<svg width="175" height="44" viewBox="0 0 175 44" fill="none" xmlns="http://www.w3.org/2000/svg">
<path d="M42.0057 12.8066C41.7288 12.6956 41.4278 12.634 41.1108 12.634H41.0064C40.9288 12.638 40.8539 12.6474 40.7763 12.6581C40.6987 12.6782 40.6278 12.7089 40.5596 12.7491C40.3469 12.8842 40.2051 13.121 40.2051 13.3912C40.2051 13.7083 40.4044 13.9825 40.684 14.0936C40.7683 14.127 40.8633 14.1471 40.9609 14.1471C41.0586 14.1471 41.1562 14.127 41.2419 14.0936C41.9843 14.1778 42.6265 14.6033 43.0037 15.2079C43.0412 15.0354 43.0639 14.8534 43.0639 14.6675C43.0639 14.1712 42.9114 13.7123 42.6559 13.327C42.4994 13.0902 42.2733 12.9123 42.0057 12.8066Z" fill="#074165"/>
<path d="M41.2635 16.2957C41.0241 16.2957 40.7913 16.3197 40.5612 16.3625C40.5545 16.3625 40.5438 16.3666 40.5371 16.3666C40.5264 16.3666 40.513 16.3666 40.5037 16.3706C40.4528 16.3773 40.3993 16.388 40.3485 16.3973C40.3217 16.4013 40.2977 16.408 40.2709 16.4147C40.2441 16.4187 40.2174 16.4254 40.1893 16.4348C40.1585 16.4281 40.1251 16.4241 40.101 16.4147C38.6013 16.1204 37.4736 14.8013 37.4736 13.2174C37.4736 13.0823 37.4843 12.9512 37.5003 12.8227C37.5311 12.5766 37.5886 12.3371 37.6689 12.107C37.7224 11.9545 37.7906 11.806 37.8682 11.6642C38.1545 11.1344 38.5813 10.6916 39.1043 10.3946C39.5833 10.1151 40.1438 9.95184 40.7391 9.95184C40.8408 9.95184 40.9411 9.95853 41.0401 9.96522C41.0401 9.96522 41.0441 9.96522 41.0468 9.96522H41.1351C41.392 9.96522 41.6381 9.99599 41.8749 10.0535C42.2896 10.1485 42.6722 10.3237 43.0067 10.5565H43.0107C43.0749 10.5164 43.1351 10.4722 43.1967 10.4254C43.3077 10.3237 43.4294 10.2328 43.5552 10.1525C43.5619 10.1418 43.5659 10.1391 43.5726 10.1391C43.6368 10.0816 43.7037 10.0281 43.7679 9.96656L43.9699 9.78462C44.1719 9.5893 44.3619 9.38328 44.5371 9.16388C44.291 9.23077 44.0341 9.28161 43.7773 9.32308C43.4294 9.37659 43.0789 9.40468 42.7164 9.40468C42.6348 9.40468 42.5478 9.40067 42.4635 9.39799C41.8562 9.20268 41.2114 9.08762 40.5451 9.06354C40.4609 9.05953 40.3793 9.05686 40.299 9.05686C39.6716 9.05686 39.0602 9.14114 38.4796 9.29632C37.7746 8.97257 37.1324 8.53378 36.5759 8C36.5719 8.10435 36.5692 8.20869 36.5692 8.31706C36.5692 9.13445 36.707 9.92107 36.9639 10.6502C36.8181 10.8629 36.6843 11.0863 36.5585 11.3124C36.0181 12.3117 35.7144 13.4502 35.7144 14.6622C35.7144 14.7157 35.7144 14.7732 35.7184 14.8281C34.01 17.1572 33 20.0348 33 23.1478C33 26.0281 33.8642 28.705 35.3465 30.9378C35.3465 30.9378 35.3465 30.9378 35.3505 30.9418C35.9284 31.7084 36.5425 32.4508 37.1833 33.1666C37.2408 33.2201 37.3759 33.3726 37.3853 33.3926C37.7398 33.7779 38.101 34.1552 38.4729 34.5244C38.9799 35.0341 39.503 35.5237 40.0395 36C40.0462 35.9732 40.0462 35.9465 40.0462 35.9184C40.0462 35.6522 39.9378 35.4114 39.7652 35.2334C39.7853 35.2294 39.8027 35.2294 39.8227 35.2227C40.0729 35.1585 40.2816 34.9967 40.414 34.7799C40.1438 34.3037 39.9003 33.814 39.6876 33.3043C39.6836 33.3003 39.6836 33.2936 39.6809 33.291C39.6569 33.2308 39.6341 33.1732 39.61 33.1157C39.4669 32.7625 39.3438 32.4 39.2301 32.0334C39.4227 32.0615 39.6154 32.0816 39.808 32.1017C39.8763 32.3251 39.9632 32.5405 40.0756 32.7411C40.2214 32.6194 40.3632 32.495 40.505 32.3666C40.5599 32.2997 40.6134 32.2314 40.6669 32.1645C40.9973 32.1779 41.3291 32.1819 41.6595 32.1699C41.6595 31.7271 41.6595 31.2829 41.6595 30.8401C43.2742 28.5057 44.4542 25.8462 45.0789 22.9806C45.1766 22.5552 45.2582 22.1231 45.3251 21.687C45.3866 21.3177 45.4348 20.9472 45.4722 20.5726C45.4803 20.5003 45.4829 20.4281 45.4803 20.3559C45.3946 18.0936 43.5405 16.2957 41.2635 16.2957Z" fill="#074165"/>
<path d="M44.7704 31.6789C44.7704 28.1979 44.7704 24.7157 44.7704 21.2347C41.7429 21.9986 38.3155 20.8 35.2881 17.9224C39.0513 19.7431 43.3135 19.7431 47.0767 17.9224C47.0767 22.218 47.0767 26.5123 47.0767 30.808C46.3262 31.1719 45.5543 31.4608 44.7704 31.6789Z" fill="#085586"/>
<path d="M44.77 31.6788C44.77 32.4922 44.77 33.3056 44.77 34.1203C43.768 34.3731 42.7205 34.4093 41.6597 34.242C41.6597 33.5491 41.6597 32.8561 41.6597 32.1631C42.7045 32.1257 43.748 31.9638 44.77 31.6788Z" fill="#085586"/>
<path d="M44.7699 21.2347C44.7699 24.7157 44.7699 28.1979 44.7699 31.6789C43.7478 31.9638 42.7043 32.1257 41.6595 32.1632C41.6595 29.327 41.6595 26.4896 41.6595 23.6535C39.6261 23.6441 37.3224 21.5732 35.2876 17.9224C38.315 20.8 41.7424 21.9986 44.7699 21.2347Z" fill="#074C7A"/>
<path d="M41.6585 32.1632C41.6585 32.8561 41.6585 33.5491 41.6585 34.2421C39.5154 33.905 37.312 32.7331 35.2866 30.808C37.3174 31.7899 39.494 32.2421 41.6585 32.1632Z" fill="#074C7A"/>
<path d="M61.7041 17.5511V26.4888H60.5701V24.952C60.0876 25.5371 59.5481 25.9797 58.9478 26.2741C58.3475 26.5705 57.6921 26.7168 56.9798 26.7168C55.7146 26.7168 54.6338 26.2589 53.739 25.3414C52.8443 24.4239 52.396 23.3088 52.396 21.9943C52.396 20.7064 52.8481 19.6065 53.7523 18.6909C54.6565 17.7752 55.7431 17.3193 57.014 17.3193C57.7472 17.3193 58.4121 17.4751 59.0067 17.7866C59.6013 18.0982 60.1218 18.5674 60.572 19.1924V17.5492H61.7041V17.5511ZM57.1071 18.4306C56.4669 18.4306 55.8761 18.5883 55.3347 18.9017C54.7933 19.2171 54.3621 19.6578 54.043 20.2277C53.7238 20.7956 53.5624 21.3978 53.5624 22.0323C53.5624 22.6611 53.7238 23.2633 54.0468 23.8369C54.3697 24.4106 54.8028 24.8589 55.348 25.1781C55.8932 25.4991 56.4764 25.6587 57.0995 25.6587C57.7282 25.6587 58.3247 25.501 58.8889 25.1819C59.4531 24.8646 59.8862 24.4353 60.1901 23.8939C60.4941 23.3525 60.6461 22.7428 60.6461 22.0646C60.6461 21.0312 60.306 20.1669 59.6241 19.4716C58.9421 18.7782 58.1025 18.4306 57.1071 18.4306Z" fill="#074165"/>
<path d="M64.2837 14.1012H65.433V21.1583L69.576 17.5509H71.2648L66.3524 21.8156L71.5535 26.4905H69.9351L65.433 22.4652V26.4905H64.2837V14.1012Z" fill="#074165"/>
<path d="M81.6436 17.5511V26.4888H80.5095V24.952C80.027 25.5371 79.4875 25.9797 78.8872 26.2741C78.287 26.5705 77.6316 26.7168 76.9192 26.7168C75.6541 26.7168 74.5732 26.2589 73.6785 25.3414C72.7838 24.4239 72.3354 23.3088 72.3354 21.9943C72.3354 20.7064 72.7876 19.6065 73.6918 18.6909C74.596 17.7752 75.6826 17.3193 76.9534 17.3193C77.6867 17.3193 78.3515 17.4751 78.9461 17.7866C79.5407 18.0982 80.0612 18.5674 80.5114 19.1924V17.5492H81.6436V17.5511ZM77.0484 18.4306C76.4082 18.4306 75.8175 18.5883 75.2761 18.9017C74.7347 19.2171 74.3035 19.6578 73.9843 20.2277C73.6652 20.7956 73.5037 21.3978 73.5037 22.0323C73.5037 22.6611 73.6652 23.2633 73.9881 23.8369C74.3111 24.4106 74.7442 24.8589 75.2894 25.1781C75.8345 25.4991 76.4177 25.6587 77.0408 25.6587C77.6696 25.6587 78.2661 25.501 78.8303 25.1819C79.3944 24.8646 79.8276 24.4353 80.1315 23.8939C80.4354 23.3525 80.5874 22.7428 80.5874 22.0646C80.5874 21.0312 80.2474 20.1669 79.5654 19.4716C78.8815 18.7782 78.0438 18.4306 77.0484 18.4306Z" fill="#074165"/>
<path d="M93.1524 14.1012V26.4905H92.0183V24.9537C91.5358 25.5388 90.9963 25.9814 90.396 26.2759C89.7958 26.5722 89.1404 26.7185 88.428 26.7185C87.1629 26.7185 86.082 26.2607 85.1873 25.3432C84.2926 24.4256 83.8442 23.3106 83.8442 21.996C83.8442 20.7081 84.2964 19.6082 85.2006 18.6926C86.1048 17.777 87.1914 17.3211 88.4622 17.3211C89.1955 17.3211 89.8603 17.4768 90.4549 17.7884C91.0495 18.0999 91.57 18.5691 92.0202 19.1941V14.1012H93.1524ZM88.5572 18.4304C87.917 18.4304 87.3262 18.5881 86.7849 18.9015C86.2435 19.2169 85.8122 19.6576 85.4931 20.2275C85.174 20.7955 85.0125 21.3976 85.0125 22.0321C85.0125 22.6609 85.174 23.2631 85.4969 23.8368C85.8198 24.4104 86.253 24.8588 86.7982 25.1779C87.3414 25.4989 87.9265 25.6585 88.5496 25.6585C89.1784 25.6585 89.7749 25.5008 90.339 25.1817C90.9032 24.8644 91.3363 24.4351 91.6403 23.8937C91.9442 23.3524 92.0962 22.7426 92.0962 22.0644C92.0962 21.031 91.7562 20.1667 91.0742 19.4714C90.3903 18.7781 89.5526 18.4304 88.5572 18.4304Z" fill="#074165"/>
<path d="M103.282 23.5232L104.251 24.0323C103.934 24.6573 103.565 25.1607 103.149 25.5444C102.733 25.9281 102.264 26.2188 101.743 26.4201C101.223 26.6196 100.634 26.7203 99.9749 26.7203C98.516 26.7203 97.3762 26.2415 96.5537 25.286C95.7311 24.3305 95.3208 23.2496 95.3208 22.0453C95.3208 20.9112 95.6684 19.9006 96.3656 19.0135C97.2489 17.8851 98.4286 17.3209 99.9103 17.3209C101.434 17.3209 102.651 17.8984 103.561 19.0553C104.207 19.8721 104.536 20.8903 104.547 22.1118H96.5043C96.5271 23.149 96.8576 24.0019 97.4997 24.6649C98.1417 25.3278 98.9339 25.6603 99.8761 25.6603C100.332 25.6603 100.775 25.5805 101.204 25.4228C101.635 25.2651 102 25.0543 102.302 24.7921C102.604 24.53 102.931 24.1064 103.282 23.5232ZM103.282 21.1164C103.128 20.5028 102.906 20.0127 102.612 19.6461C102.317 19.2794 101.93 18.9831 101.447 18.7589C100.965 18.5348 100.457 18.4227 99.9255 18.4227C99.0479 18.4227 98.2937 18.7057 97.663 19.2699C97.2014 19.6803 96.8538 20.2976 96.6182 21.1183H103.282V21.1164Z" fill="#074165"/>
<path d="M106.683 17.5508H107.832V19.0952C108.233 18.5253 108.644 18.1093 109.067 17.8471C109.648 17.4976 110.26 17.3209 110.902 17.3209C111.335 17.3209 111.747 17.4064 112.135 17.5755C112.524 17.7445 112.842 17.9706 113.089 18.2536C113.336 18.5367 113.548 18.9394 113.731 19.4656C114.113 18.7646 114.591 18.2327 115.165 17.868C115.739 17.5033 116.356 17.3209 117.017 17.3209C117.634 17.3209 118.18 17.4767 118.653 17.7882C119.126 18.0998 119.477 18.5367 119.705 19.0952C119.935 19.6537 120.049 20.4914 120.049 21.6084V26.4885H118.875V21.6084C118.875 20.651 118.806 19.9918 118.67 19.6328C118.533 19.2737 118.299 18.985 117.969 18.7665C117.638 18.5481 117.245 18.4379 116.785 18.4379C116.229 18.4379 115.72 18.6013 115.258 18.9299C114.796 19.2585 114.46 19.6974 114.247 20.2444C114.035 20.7915 113.928 21.7072 113.928 22.9875V26.4866H112.779V21.9104C112.779 20.8314 112.713 20.0982 112.578 19.7126C112.443 19.3269 112.209 19.0173 111.875 18.7836C111.54 18.55 111.143 18.4341 110.684 18.4341C110.152 18.4341 109.656 18.5937 109.193 18.9147C108.729 19.2357 108.387 19.667 108.165 20.2083C107.943 20.7497 107.832 21.5799 107.832 22.6969V26.4847H106.683V17.5508Z" fill="#074165"/>
<path d="M122.872 13.8695C123.135 13.8695 123.357 13.9626 123.543 14.1488C123.729 14.3349 123.82 14.5591 123.82 14.8231C123.82 15.0815 123.727 15.3018 123.543 15.488C123.357 15.6741 123.135 15.7672 122.872 15.7672C122.616 15.7672 122.396 15.6741 122.209 15.488C122.023 15.3018 121.932 15.0796 121.932 14.8231C121.932 14.561 122.025 14.3349 122.209 14.1488C122.396 13.9626 122.616 13.8695 122.872 13.8695ZM122.303 17.551H123.452V26.4887H122.303V17.551Z" fill="#074165"/>
<path d="M127.108 24.6823C127.387 24.6823 127.624 24.781 127.822 24.9786C128.02 25.1762 128.118 25.4174 128.118 25.7024C128.118 25.9816 128.02 26.2209 127.822 26.4204C127.624 26.6199 127.387 26.7205 127.108 26.7205C126.829 26.7205 126.591 26.6199 126.394 26.4204C126.196 26.2209 126.097 25.9816 126.097 25.7024C126.097 25.4174 126.196 25.1762 126.394 24.9786C126.591 24.781 126.829 24.6823 127.108 24.6823Z" fill="#074165"/>
<path d="M139.407 17.5511V26.4888H138.273V24.952C137.791 25.5371 137.251 25.9797 136.651 26.2741C136.051 26.5705 135.395 26.7168 134.683 26.7168C133.418 26.7168 132.337 26.2589 131.442 25.3414C130.547 24.4239 130.099 23.3088 130.099 21.9943C130.099 20.7064 130.551 19.6065 131.455 18.6909C132.36 17.7752 133.446 17.3193 134.717 17.3193C135.45 17.3193 136.115 17.4751 136.71 17.7866C137.304 18.0982 137.825 18.5674 138.275 19.1924V17.5492H139.407V17.5511ZM134.81 18.4306C134.17 18.4306 133.579 18.5883 133.038 18.9017C132.496 19.2171 132.065 19.6578 131.746 20.2277C131.425 20.7956 131.265 21.3978 131.265 22.0323C131.265 22.6611 131.427 23.2633 131.75 23.8369C132.073 24.4106 132.506 24.8589 133.051 25.1781C133.596 25.4991 134.18 25.6587 134.803 25.6587C135.431 25.6587 136.028 25.501 136.592 25.1819C137.156 24.8646 137.589 24.4353 137.893 23.8939C138.197 23.3525 138.349 22.7428 138.349 22.0646C138.349 21.0312 138.009 20.1669 137.327 19.4716C136.645 18.7782 135.806 18.4306 134.81 18.4306Z" fill="#074165"/>
<path d="M141.823 14.1012H142.972V26.4905H141.823V14.1012Z" fill="#074165"/>
</svg>
