<svg width="81" height="81" viewBox="0 0 81 81" fill="none" xmlns="http://www.w3.org/2000/svg">
<g clip-path="url(#clip0)">
<path d="M50.1152 60.3522C58.3551 60.3522 56.652 70.7238 56.7309 82.2575H50.1152V60.3522Z" fill="#FDD2B2"/>
<path d="M52.1797 66.9931L50.1152 70.4548L51.1484 82.2572H54.0318C54.1017 65.8909 52.1797 66.9931 52.1797 66.9931Z" fill="#F3AB98"/>
<path d="M15.9112 36.8638C15.9112 23.4889 26.7539 12.6461 40.1288 12.6461C53.5037 12.6461 64.3465 23.4889 64.3465 36.8638C64.3499 40.4675 63.5474 44.0264 61.9978 47.28C60.4481 50.5335 58.1905 53.3994 55.3902 55.6677C54.8933 56.0721 54.3807 56.4561 53.8523 56.8198C48.3905 60.287 41.4906 60.287 35.2617 59.7323C34.657 59.6415 34.0542 59.5271 33.4559 59.3955C31.0655 58.8689 28.7513 58.0564 26.6132 56.8716C26.0848 56.546 25.5725 56.1943 25.0762 55.8166C24.5773 55.4368 24.0985 55.0314 23.6417 54.6019C23.2096 54.2006 22.7923 53.7836 22.3898 53.3508C18.2187 48.8749 15.9031 42.9819 15.9112 36.8638Z" fill="#FDD2B2"/>
<path d="M19.2119 49.0721C19.2754 49.181 19.3381 49.29 19.4035 49.3971C19.4425 49.4625 19.4833 49.526 19.5242 49.5914C19.5841 49.6886 19.644 49.7857 19.7058 49.881C19.7494 49.95 19.7966 50.0172 19.8383 50.0844C19.8982 50.1752 19.9582 50.266 20.0199 50.3568C20.0662 50.4258 20.1107 50.4947 20.1615 50.5637C20.2214 50.6545 20.2814 50.7381 20.3431 50.8252C20.3921 50.8951 20.443 50.9641 20.4929 51.034C20.5428 51.1039 20.6146 51.202 20.6745 51.2855C20.7344 51.369 20.7789 51.4244 20.8315 51.4934C20.8842 51.5624 20.9559 51.6568 21.0195 51.7385C21.083 51.8203 21.1275 51.8756 21.182 51.9437C21.2365 52.0118 21.31 52.1035 21.3745 52.1825C21.4389 52.2615 21.4861 52.3178 21.5424 52.385C21.5987 52.4521 21.6731 52.5411 21.7394 52.6183C21.8057 52.6954 21.8547 52.7517 21.9128 52.818L22.1144 53.045C22.1734 53.1113 22.2333 53.1757 22.2959 53.2411C22.374 53.3264 22.453 53.4109 22.532 53.4944L22.6419 53.6106C22.759 53.7322 22.877 53.8539 22.9968 53.9737L23.0204 53.9983C23.1376 54.1145 23.2565 54.2298 23.3754 54.3442L23.5189 54.4803C23.6051 54.5611 23.6914 54.6419 23.7785 54.7218L23.8838 54.8181C23.9746 54.9034 24.0736 54.9869 24.1689 55.0705C24.4655 55.3289 24.7681 55.5768 25.0768 55.814C25.5725 56.1917 26.0848 56.5433 26.6138 56.869C28.7519 58.0492 31.0624 58.8663 33.4565 59.3929C34.0548 59.5245 34.6576 59.638 35.2623 59.7297C39.0844 60.0701 43.1608 60.2 46.9993 59.4501C40.8957 57.6534 11.5839 47.0984 30.0329 14.8451C29.7859 14.9586 29.5426 15.0757 29.3011 15.1973L29.2476 15.2237C29.1368 15.2791 29.0261 15.3363 28.9162 15.3944L28.8254 15.4425C28.484 15.6241 28.1463 15.812 27.8149 16.0081L27.7332 16.0562C27.6279 16.1188 27.5235 16.1824 27.4191 16.2469L27.3401 16.2959C27.0157 16.4986 26.6964 16.7084 26.3823 16.925L26.2843 16.9931C26.1853 17.0621 26.0882 17.1311 25.991 17.201L25.9311 17.2437C25.7332 17.3884 25.5377 17.5348 25.3446 17.6831L25.2883 17.7267C25.1975 17.7975 25.1067 17.8701 25.016 17.9437L24.9097 18.029C24.8189 18.1026 24.7282 18.1761 24.6374 18.2515C24.4458 18.4103 24.257 18.5737 24.0709 18.739L23.9674 18.8298L23.7231 19.0522L23.6051 19.1593C23.3461 19.4014 23.0928 19.6487 22.8452 19.9011L22.7199 20.0291C22.6482 20.1035 22.5765 20.178 22.5057 20.2533C22.4639 20.2978 22.4221 20.3441 22.3813 20.3877C22.2566 20.5208 22.1337 20.6558 22.0127 20.7926C21.9718 20.8389 21.9301 20.8834 21.8892 20.9324C21.8248 21.006 21.7612 21.0804 21.6977 21.1548L21.5606 21.3174C21.4988 21.3909 21.4371 21.4644 21.379 21.5389C21.33 21.5988 21.2809 21.6596 21.2328 21.7205C21.1357 21.8412 21.0404 21.9619 20.9459 22.0836C20.8969 22.1472 20.8479 22.2107 20.7998 22.2752C20.7516 22.3396 20.6908 22.4195 20.6373 22.4931C20.5837 22.5666 20.5401 22.6247 20.4929 22.691C20.4457 22.7573 20.3903 22.8317 20.3404 22.9025C20.2544 23.0236 20.1697 23.1461 20.0862 23.2702C20.0408 23.3365 19.9954 23.4046 19.9509 23.4718C19.9064 23.5389 19.851 23.6225 19.802 23.6987L19.6667 23.9084L19.5142 24.1545C19.4752 24.2171 19.4361 24.2798 19.398 24.3424C19.3172 24.475 19.2391 24.6084 19.161 24.7419L19.0503 24.938C19.0013 25.0242 18.9522 25.1114 18.9041 25.1985C18.8678 25.2648 18.8315 25.3311 18.7961 25.3974C18.738 25.5054 18.6808 25.6143 18.6236 25.7233L18.5146 25.9357C18.4565 26.0519 18.3984 26.1672 18.3412 26.2844C18.3113 26.347 18.2804 26.4106 18.2504 26.4741C18.2032 26.5731 18.1597 26.6729 18.1115 26.7728C18.0834 26.8327 18.0562 26.8926 18.0289 26.9544C17.9617 27.1039 17.8961 27.2552 17.8319 27.4083C17.8119 27.4555 17.7929 27.5036 17.7729 27.5508C17.7248 27.6661 17.6776 27.7815 17.6313 27.8977C17.6068 27.9585 17.5832 28.0193 17.5595 28.0792C17.5142 28.1936 17.4688 28.3089 17.4279 28.4242C17.4088 28.4742 17.3898 28.5241 17.3716 28.574C17.3147 28.7332 17.2587 28.8924 17.2037 29.0516L17.1528 29.2059C17.1129 29.327 17.0738 29.448 17.0357 29.5691L16.9812 29.7425C16.9386 29.8823 16.8968 30.0221 16.8569 30.1628C16.8478 30.1928 16.8387 30.2227 16.8305 30.2536C16.7833 30.4207 16.7379 30.5883 16.6943 30.7566C16.6798 30.8101 16.6671 30.8646 16.6535 30.9182C16.6217 31.0444 16.5908 31.1706 16.5627 31.2977L16.5246 31.4565C16.4855 31.629 16.4474 31.8015 16.412 31.9749L16.3984 32.0448C16.3675 32.1992 16.3372 32.3535 16.3076 32.5079C16.2976 32.5632 16.2885 32.6177 16.2785 32.6731C16.2549 32.8084 16.2322 32.9455 16.2114 33.0816C16.2041 33.1279 16.1959 33.1724 16.1896 33.2196C16.1623 33.3967 16.1378 33.5746 16.1142 33.7535L16.1006 33.8715C16.0824 34.0159 16.0661 34.1611 16.0507 34.3064C16.0452 34.3608 16.0389 34.4153 16.0334 34.4707C16.0189 34.6232 16.0053 34.7767 15.9926 34.9301C15.9926 34.9619 15.9871 34.9927 15.9853 35.0209C15.972 35.2024 15.9602 35.3855 15.9499 35.5701C15.9499 35.6183 15.9499 35.6673 15.9435 35.7154C15.9375 35.8582 15.932 36.0008 15.9272 36.143C15.9272 36.1966 15.9272 36.2501 15.9272 36.3037C15.9272 36.4898 15.9199 36.6768 15.9199 36.8639C15.9199 36.8639 15.9199 36.8702 15.9199 36.8729C15.9199 37.0745 15.9199 37.2742 15.9272 37.474C15.9272 37.543 15.9326 37.612 15.9344 37.681C15.939 37.8144 15.9435 37.9479 15.9499 38.0813C15.9499 38.1621 15.9599 38.242 15.9644 38.3228C15.9717 38.4436 15.978 38.5643 15.9871 38.686C15.9935 38.7768 16.0016 38.8576 16.0089 38.9429C16.0189 39.0573 16.028 39.1717 16.0398 39.2852C16.0479 39.376 16.0588 39.4613 16.0679 39.5494C16.0806 39.6592 16.0924 39.77 16.106 39.8798C16.1169 39.9706 16.1296 40.0614 16.1414 40.1477C16.156 40.2548 16.1705 40.3628 16.1868 40.47C16.2005 40.5607 16.215 40.6515 16.2295 40.7423C16.2458 40.8476 16.2631 40.9539 16.2813 41.0592C16.2976 41.15 16.3139 41.2407 16.3312 41.3315C16.3503 41.4359 16.3702 41.5403 16.3902 41.6438C16.4102 41.7473 16.4274 41.8254 16.4465 41.9162C16.4683 42.0197 16.4901 42.1223 16.5137 42.2249C16.5373 42.3275 16.5536 42.4065 16.5754 42.4909C16.599 42.5935 16.6244 42.6952 16.6499 42.7959C16.6753 42.8967 16.6943 42.973 16.717 43.0601C16.7443 43.1618 16.7715 43.2626 16.7997 43.3634C16.8233 43.4542 16.8478 43.5377 16.8732 43.6239C16.9022 43.7247 16.9322 43.8246 16.964 43.9244C16.9958 44.0243 17.0166 44.096 17.0439 44.1823C17.0711 44.2685 17.1074 44.3811 17.1401 44.4801C17.1728 44.579 17.1964 44.6498 17.2254 44.7343C17.2599 44.8332 17.2944 44.9322 17.3299 45.0311C17.3598 45.1138 17.3889 45.1973 17.4206 45.2799L17.5332 45.5768C17.565 45.6576 17.5959 45.7393 17.624 45.8201C17.664 45.919 17.7048 46.0189 17.7457 46.1179C17.7783 46.1959 17.8101 46.2749 17.8437 46.353C17.8864 46.4547 17.9345 46.5546 17.9754 46.6553C18.0089 46.7298 18.0416 46.8051 18.0752 46.8796C18.1224 46.9849 18.1724 47.0884 18.2205 47.1919L18.3185 47.4007C18.3739 47.5151 18.4311 47.6277 18.4883 47.7412C18.5174 47.7984 18.5446 47.8565 18.5746 47.9137C18.7489 48.2532 18.9304 48.5882 19.1193 48.9187C19.1456 48.9613 19.1792 49.0167 19.2119 49.0721Z" fill="#F3AB98"/>
<path d="M15.9112 36.8638C15.9112 23.4889 26.7539 12.6461 40.1288 12.6461C53.5037 12.6461 64.3465 23.4889 64.3465 36.8638C64.3499 40.4675 63.5474 44.0264 61.9978 47.28C60.4481 50.5335 58.1905 53.3994 55.3902 55.6677C54.8933 56.0721 54.3807 56.4561 53.8523 56.8198C48.3905 60.287 41.4906 60.287 35.2617 59.7323C34.657 59.6415 34.0542 59.5271 33.4559 59.3955C31.0655 58.8689 28.7513 58.0564 26.6132 56.8716C26.0848 56.546 25.5725 56.1943 25.0762 55.8166C24.5773 55.4368 24.0985 55.0314 23.6417 54.6019C23.2096 54.2006 22.7923 53.7836 22.3898 53.3508C18.2187 48.8749 15.9031 42.9819 15.9112 36.8638V36.8638Z" stroke="#592D3D" stroke-width="1.57179" stroke-miterlimit="10"/>
<path d="M29.7894 60.3522C21.5486 60.3522 23.2527 70.7238 23.1737 82.2575H29.7894V60.3522Z" fill="#FDD2B2"/>
<path d="M28.0752 66.9931L30.1424 70.4548L29.1083 82.2572H26.2276C26.1541 65.8909 28.0752 66.9931 28.0752 66.9931Z" fill="#F3AB98"/>
<path d="M50.9747 88.6126H29.2819C28.9623 88.6124 28.6559 88.4852 28.43 88.2592C28.204 88.0331 28.0771 87.7265 28.0771 87.4069V61.5578C28.0771 61.2382 28.204 60.9317 28.43 60.7056C28.6559 60.4795 28.9623 60.3524 29.2819 60.3522H50.4563C51.6448 60.3522 52.1813 61.0476 52.1813 62.157V87.4033C52.1818 87.562 52.1509 87.7193 52.0905 87.866C52.0301 88.0128 51.9413 88.1462 51.8292 88.2585C51.7171 88.3709 51.5839 88.46 51.4373 88.5207C51.2906 88.5815 51.1335 88.6127 50.9747 88.6126Z" fill="#FDD2B2"/>
<path d="M51.8445 61.07C51.754 60.9587 51.6774 60.8367 51.6166 60.7068C51.3986 60.536 51.1392 60.4261 50.8649 60.3882C50.7297 60.3672 50.5931 60.3569 50.4563 60.3573H29.2819C28.9631 60.3575 28.6573 60.4841 28.4316 60.7092C28.2058 60.9343 28.0783 61.2396 28.0771 61.5584C30.71 62.5044 35.6389 63.0328 40.1283 63.0328C45.8534 63.0328 49.6048 62.184 51.8445 61.07Z" fill="#F3AB98"/>
<path d="M50.1152 60.3522C58.3551 60.3522 56.652 70.7238 56.7309 82.2575H52.1797" stroke="#592D3D" stroke-width="1.57179" stroke-miterlimit="10" stroke-linecap="square"/>
<path d="M29.7894 60.3522C21.5486 60.3522 23.2527 70.7238 23.1737 82.2575H27.7195" stroke="#592D3D" stroke-width="1.57179" stroke-miterlimit="10" stroke-linecap="square"/>
<path d="M29.2822 60.3613L50.4567 60.3522" stroke="#592D3D" stroke-width="1.57179" stroke-miterlimit="10"/>
<path d="M29.2819 88.613H39.8696C29.9601 88.613 30.7082 67.6246 28.0772 67.6246V87.4037C28.0767 87.5622 28.1075 87.7193 28.1678 87.866C28.2281 88.0126 28.3168 88.1459 28.4287 88.2582C28.5406 88.3706 28.6735 88.4597 28.82 88.5206C28.9664 88.5815 29.1233 88.6128 29.2819 88.613Z" fill="#F3AB98"/>
<path d="M27.5325 69.6244C27.5153 69.2912 27.5225 68.958 27.537 68.6257C27.5516 68.2935 27.5797 67.9584 27.6151 67.6271C27.6333 67.46 27.6514 67.2939 27.6741 67.1268C27.6968 66.9598 27.7186 66.7936 27.7513 66.6266C27.8157 66.2809 27.9253 65.9451 28.0772 65.6279C28.2292 65.9451 28.3388 66.2809 28.4032 66.6266C28.4358 66.7936 28.4594 66.9598 28.4803 67.1268C28.5012 67.2939 28.5212 67.46 28.5393 67.6271C28.5738 67.9603 28.6011 68.2935 28.6165 68.6257C28.6319 68.958 28.6392 69.2921 28.622 69.6244H27.5325Z" fill="#592D3D"/>
<path d="M52.1789 70.4549V71.1812C52.2025 74.2679 52.2025 77.4455 52.1789 80.5096C52.1789 80.7702 52.1789 81.0289 52.1789 81.284V87.404C52.1793 87.5625 52.1484 87.7195 52.088 87.866C52.0277 88.0126 51.939 88.1458 51.8271 88.258C51.7152 88.3702 51.5823 88.4593 51.4359 88.5201C51.2896 88.5809 51.1327 88.6123 50.9742 88.6124H29.2813C28.9617 88.6122 28.6553 88.485 28.4294 88.259C28.2035 88.0329 28.0766 87.7264 28.0766 87.4068V82.1229C28.0766 81.895 28.0766 81.6626 28.0766 81.4284C28.0539 78.2626 28.0539 75.085 28.0766 71.8684V69.6241" stroke="#592D3D" stroke-width="1.57179" stroke-miterlimit="10"/>
<path d="M51.6357 70.4552C51.6184 70.0766 51.6266 69.6971 51.6411 69.3176C51.6557 68.9381 51.6838 68.5595 51.7183 68.18C51.7365 67.9903 51.7555 67.8006 51.7773 67.6108C51.7991 67.4211 51.8218 67.2322 51.8545 67.0425C51.9177 66.6517 52.0271 66.2699 52.1804 65.9049C52.3337 66.2699 52.4431 66.6517 52.5064 67.0425C52.539 67.2322 52.5626 67.422 52.5835 67.6108C52.6044 67.7996 52.6244 67.9903 52.6425 68.18C52.677 68.5595 52.7052 68.9381 52.7197 69.3176C52.7342 69.6971 52.7424 70.0766 52.7251 70.4552H51.6357Z" fill="#592D3D"/>
<path d="M40.3174 71.2598C40.3173 72.211 40.1014 73.1498 39.6862 74.0056C39.271 74.8614 38.6671 75.6119 37.9201 76.2007C37.173 76.7895 36.3022 77.2013 35.3731 77.4051C34.444 77.6089 33.4808 77.5994 32.5558 77.3773C31.6309 77.1552 30.7684 76.7263 30.0331 76.1229C29.2978 75.5195 28.7089 74.7572 28.3106 73.8934C27.9123 73.0296 27.715 72.0868 27.7336 71.1357C27.7522 70.1847 27.9862 69.2503 28.4179 68.4027" stroke="#592D3D" stroke-width="1.57179" stroke-miterlimit="10"/>
<path d="M28.417 68.4025C28.7608 67.7308 29.222 67.126 29.7788 66.6167L28.417 68.4025Z" fill="#FDD2B2"/>
<path d="M27.9307 68.1546C28.0104 67.9657 28.1135 67.7876 28.2375 67.6244C28.3606 67.4609 28.4982 67.309 28.6488 67.1704C28.7251 67.1014 28.8022 67.0343 28.883 66.9716C28.9632 66.9067 29.0486 66.8484 29.1381 66.7973C29.3319 66.6855 29.5501 66.6231 29.7737 66.6157C29.7501 66.8283 29.6966 67.0364 29.6148 67.234C29.5794 67.3248 29.5394 67.4047 29.4977 67.4855L29.3796 67.7279C29.3025 67.8877 29.2262 68.0447 29.1481 68.1991C29.0726 68.3547 28.989 68.5062 28.8976 68.653L27.9307 68.1546Z" fill="#592D3D"/>
<path d="M39.1602 67.6246C39.9135 68.6856 40.3178 69.9549 40.3168 71.2561L39.1602 67.6246Z" fill="#FDD2B2"/>
<path d="M39.1602 67.6246C39.4701 67.7927 39.7394 68.0266 39.9491 68.3101C40.0535 68.4479 40.1475 68.5933 40.2305 68.745C40.315 68.8966 40.3912 69.0527 40.4621 69.2125C40.6014 69.5335 40.7067 69.8682 40.7762 70.2112C40.8467 70.5554 40.8754 70.9069 40.8615 71.258H39.7721C39.7548 70.9629 39.7394 70.6697 39.7085 70.3746C39.6776 70.0795 39.6386 69.7863 39.5814 69.4903L39.536 69.2688L39.4834 69.0464C39.4452 68.8984 39.4044 68.7504 39.3662 68.5988C39.2805 68.2779 39.2117 67.9527 39.1602 67.6246Z" fill="#592D3D"/>
<path d="M52.988 71.2598C52.9889 70.3983 52.8126 69.5459 52.4699 68.7556C52.1272 67.9653 51.6256 67.254 50.9961 66.6659" fill="#FDD2B2"/>
<path d="M52.4433 71.2595C52.4287 70.8684 52.3905 70.4785 52.3289 70.092C52.2652 69.7016 52.1705 69.317 52.0456 68.9417C52.0147 68.8509 51.9784 68.7538 51.9448 68.6593C51.9112 68.5649 51.8686 68.4732 51.8313 68.3788C51.7941 68.2844 51.746 68.1972 51.7061 68.1019L51.5735 67.8295C51.3919 67.4573 51.1949 67.086 50.9961 66.672C51.4168 66.8515 51.7949 67.1179 52.1055 67.4537C52.1809 67.539 52.2599 67.6225 52.3298 67.7124C52.3997 67.8023 52.4696 67.894 52.534 67.9848C52.5985 68.0756 52.6639 68.1745 52.722 68.2735C52.7801 68.3724 52.8409 68.4714 52.8926 68.5749C53.1088 68.9856 53.2734 69.4213 53.3829 69.8723C53.4948 70.3258 53.5442 70.7926 53.53 71.2595H52.4433Z" fill="#592D3D"/>
<path d="M40.4008 71.2594C40.3908 72.092 40.5462 72.9184 40.8579 73.6906C41.1696 74.4627 41.6315 75.1653 42.2168 75.7577C42.802 76.35 43.4991 76.8203 44.2674 77.1412C45.0358 77.4622 45.8602 77.6275 46.6929 77.6275C47.5256 77.6275 48.35 77.4622 49.1184 77.1412C49.8867 76.8203 50.5837 76.35 51.169 75.7577C51.7543 75.1653 52.2161 74.4627 52.5279 73.6906C52.8396 72.9184 52.9949 72.092 52.9849 71.2594" stroke="#592D3D" stroke-width="1.57179" stroke-miterlimit="10"/>
<path d="M41.5591 67.6246C40.806 68.6857 40.4021 69.955 40.4033 71.2561L41.5591 67.6246Z" fill="#FDD2B2"/>
<path d="M41.5614 67.6246C41.5099 67.9534 41.4411 68.2791 41.3553 68.6006C41.3172 68.7522 41.2763 68.9002 41.2382 69.0482L41.1864 69.2706L41.141 69.4921C41.0838 69.7881 41.0421 70.0823 41.013 70.3764C40.984 70.6706 40.9676 70.9647 40.9504 71.2598H39.8573C39.8425 70.9087 39.8712 70.5571 39.9426 70.213C40.0117 69.8699 40.117 69.5352 40.2568 69.2143C40.3267 69.0545 40.4029 68.8984 40.4874 68.7468C40.5707 68.5953 40.6647 68.45 40.7688 68.3119C40.9796 68.0276 41.2501 67.793 41.5614 67.6246Z" fill="#592D3D"/>
<path d="M29.5459 67.509V60.3522" stroke="#592D3D" stroke-width="1.57179" stroke-miterlimit="10"/>
<path d="M50.7012 67.509V60.3522" stroke="#592D3D" stroke-width="1.57179" stroke-miterlimit="10"/>
<path d="M37.4512 72.978H42.3446V74.7665C40.7341 74.2173 39.1026 74.2309 37.4512 74.7665V72.978Z" fill="#633749" stroke="#592D3D" stroke-width="1.57179" stroke-miterlimit="10"/>
<path d="M52.6659 71.2597C52.6682 69.6659 52.0634 68.1311 50.9745 66.9672C50.5914 66.5569 46.9553 67.5292 44.8182 69.4421C42.7201 71.3205 40.8934 74.3891 41.1549 74.7759C41.9081 75.8937 43.0003 76.7402 44.2707 77.1906C45.5411 77.641 46.9226 77.6715 48.2117 77.2778C49.5008 76.884 50.6294 76.0867 51.4312 75.0033C52.2331 73.9199 52.6659 72.6076 52.6659 71.2597Z" fill="#633749" stroke="#592D3D" stroke-width="1.57179" stroke-miterlimit="10"/>
<path d="M49.037 68.4938C48.4814 68.827 47.9339 69.1456 47.4028 69.4924C46.8787 69.8274 46.3773 70.1968 45.9021 70.5982C45.4346 71.0031 44.9842 71.4444 44.5403 71.8929C44.0963 72.3414 43.6606 72.8007 43.2012 73.261C43.4797 72.6766 43.82 72.1235 44.2162 71.6114C44.6117 71.0913 45.0592 70.6128 45.5517 70.1833C46.0527 69.7592 46.6062 69.4013 47.1986 69.1184C47.782 68.8322 48.3999 68.6223 49.037 68.4938Z" fill="white"/>
<path d="M27.5918 71.2597C27.5895 69.6659 28.1943 68.1311 29.2832 66.9672C29.6663 66.5569 33.3024 67.5292 35.4395 69.4421C37.5376 71.3205 39.3643 74.3891 39.1028 74.7759C38.3496 75.8937 37.2574 76.7402 35.987 77.1906C34.7166 77.641 33.3351 77.6715 32.046 77.2778C30.7569 76.884 29.6283 76.0867 28.8265 75.0033C28.0246 73.9199 27.5918 72.6076 27.5918 71.2597Z" fill="#633749" stroke="#592D3D" stroke-width="1.57179" stroke-miterlimit="10"/>
<path d="M36.1124 76.7118C34.057 76.7118 32.0859 75.8953 30.6325 74.442C29.1792 72.9886 28.3627 71.0175 28.3627 68.9622C28.3627 68.6981 28.376 68.4341 28.4027 68.1714C27.7201 69.3833 27.4582 70.7872 27.6581 72.1636C27.8579 73.5401 28.5082 74.8115 29.5072 75.7793C30.5063 76.747 31.7978 77.3564 33.1799 77.5123C34.5621 77.6682 35.9569 77.3618 37.1464 76.641C36.8037 76.6876 36.4582 76.7112 36.1124 76.7118Z" fill="#5E3244"/>
<path d="M27.5918 71.2597C27.5895 69.6659 28.1943 68.1311 29.2832 66.9672C29.6663 66.5569 33.3024 67.5292 35.4395 69.4421C37.5376 71.3205 39.3643 74.3891 39.1028 74.7759C38.3496 75.8937 37.2574 76.7402 35.987 77.1906C34.7166 77.641 33.3351 77.6716 32.046 77.2778C30.7569 76.884 29.6283 76.0867 28.8265 75.0033C28.0246 73.9199 27.5918 72.6076 27.5918 71.2597V71.2597Z" stroke="#592D3D" stroke-width="1.57179" stroke-miterlimit="10"/>
<path d="M31.2217 68.4938C31.8587 68.622 32.4766 68.8316 33.0601 69.1175C33.6525 69.4007 34.206 69.7589 34.707 70.1833C35.1975 70.6125 35.6431 71.0904 36.0371 71.6096C36.4333 72.1217 36.7735 72.6747 37.0521 73.2592C36.5927 72.8053 36.1587 72.3395 35.713 71.8911C35.2672 71.4426 34.8196 71.0013 34.3511 70.5964C33.8759 70.195 33.3746 69.8256 32.8504 69.4906C32.3211 69.1456 31.7764 68.827 31.2217 68.4938Z" fill="white"/>
<path d="M56.2706 73.755C56.2897 70.3859 56.1608 67.3935 55.5689 65.0948C54.6546 62.7924 53.0105 61.4197 50.1152 61.4197L52.1843 73.6325C52.1843 73.6325 54.2288 74.5621 56.2706 73.755Z" fill="#F3AB98"/>
<path d="M57.053 72.7966C56.9493 72.8823 56.8366 72.9563 56.7168 73.0174" stroke="#592D3D" stroke-width="1.57179" stroke-miterlimit="10" stroke-linecap="square"/>
<path d="M24.3434 64.9972C23.7233 67.3187 23.6171 70.3655 23.6407 73.8036C25.4473 74.579 28.2182 73.6084 28.2182 73.6084L29.7915 61.6027C26.9889 61.5999 25.3184 62.8619 24.3434 64.9972Z" fill="#F3AB98"/>
<path d="M50.4564 60.3522H45.5347V60.3613C45.5349 60.77 45.491 61.1775 45.404 61.5769C45.3617 61.7712 45.309 61.963 45.246 62.1516C45.0452 62.7149 44.7368 63.2338 44.3382 63.6795C44.2109 63.8224 44.0744 63.9567 43.9296 64.0817C41.6445 65.7341 38.013 65.8249 35.8059 64.0291C35.5681 63.8213 35.3519 63.5902 35.1604 63.3391C34.7629 62.8171 34.4813 62.2163 34.3342 61.5769C34.2912 61.3794 34.2588 61.1796 34.2371 60.9786C34.2144 60.7736 34.2032 60.5675 34.2035 60.3613V60.3522H29.2819C28.9623 60.3524 28.6559 60.4795 28.43 60.7056C28.2041 60.9317 28.0772 61.2382 28.0772 61.5578V87.4033C28.0767 87.5619 28.1075 87.719 28.1678 87.8656C28.2281 88.0122 28.3168 88.1455 28.4287 88.2579C28.5406 88.3702 28.6735 88.4594 28.82 88.5202C28.9664 88.5811 29.1233 88.6125 29.2819 88.6126H50.9747C51.2943 88.6124 51.6008 88.4852 51.8267 88.2592C52.0526 88.0331 52.1795 87.7265 52.1795 87.4069V62.157C52.1795 61.0476 51.6448 60.3522 50.4564 60.3522Z" fill="#633749"/>
<path d="M50.1152 60.3522C55.8839 60.3522 56.7791 65.4363 56.8245 72.4424C55.1358 73.4973 52.384 72.5613 52.384 72.5613L50.1152 60.3522Z" fill="#633749"/>
<path d="M52.1797 66.9931L50.1152 70.4548L51.1484 82.2572H52.2024V72.6655L53.7713 72.9279C53.2565 66.3757 52.1797 66.9931 52.1797 66.9931Z" fill="#5E3244"/>
<path d="M29.7905 60.3522C24.1816 60.3522 22.9061 65.2366 22.8135 71.9422C24.5384 73.7452 28.0792 72.358 28.0792 72.358L29.7905 60.3522Z" fill="#633749"/>
<path d="M28.0745 66.9931V72.3614L26.5029 72.7527C27.0177 66.3866 28.0745 66.9931 28.0745 66.9931Z" fill="#5E3244"/>
<path d="M50.1152 60.3522C56.2352 60.3522 57.2375 65.4626 57.2784 72.4978C54.8998 73.6263 52.384 72.5613 52.384 72.5613" stroke="#592D3D" stroke-width="1.57179" stroke-miterlimit="10" stroke-linecap="square"/>
<path d="M29.7891 60.3522C23.7253 60.3522 22.5188 65.3183 22.457 72.22C24.3309 73.5618 28.0732 72.3616 28.0732 72.3616" stroke="#592D3D" stroke-width="1.57179" stroke-miterlimit="10" stroke-linecap="square"/>
<path d="M29.2819 88.613H39.8696C29.9601 88.613 30.7082 67.6246 28.0772 67.6246V87.4037C28.0767 87.5622 28.1075 87.7193 28.1678 87.866C28.2281 88.0126 28.3168 88.1459 28.4287 88.2582C28.5406 88.3706 28.6735 88.4597 28.82 88.5206C28.9664 88.5815 29.1233 88.6128 29.2819 88.613Z" fill="#5E3244"/>
<path d="M27.5325 69.6244C27.5153 69.2912 27.5225 68.958 27.537 68.6257C27.5516 68.2935 27.5797 67.9584 27.6151 67.6271C27.6333 67.46 27.6514 67.2939 27.6741 67.1268C27.6968 66.9598 27.7186 66.7936 27.7513 66.6266C27.8157 66.2809 27.9253 65.9451 28.0772 65.6279C28.2293 65.945 28.3386 66.2808 28.4023 66.6266C28.4358 66.7936 28.4594 66.9598 28.4803 67.1268C28.5012 67.2939 28.5212 67.46 28.5393 67.6271C28.5738 67.9603 28.6011 68.2935 28.6165 68.6257C28.6319 68.958 28.6392 69.2921 28.622 69.6244H27.5325Z" fill="#592D3D"/>
<path d="M52.1789 70.4549V71.1812C52.2025 74.2679 52.2025 77.4455 52.1789 80.5096C52.1789 80.7702 52.1789 81.0289 52.1789 81.284V87.404C52.1793 87.5625 52.1484 87.7195 52.088 87.866C52.0277 88.0126 51.939 88.1458 51.8271 88.258C51.7152 88.3702 51.5823 88.4593 51.4359 88.5201C51.2896 88.5809 51.1327 88.6123 50.9742 88.6124H29.2813C28.9617 88.6122 28.6553 88.485 28.4294 88.259C28.2035 88.0329 28.0766 87.7264 28.0766 87.4068V82.1229C28.0766 81.895 28.0766 81.6626 28.0766 81.4284C28.0539 78.2626 28.0539 75.085 28.0766 71.8684V69.6241" stroke="#592D3D" stroke-width="1.57179" stroke-miterlimit="10"/>
<path d="M51.6357 70.4552C51.6184 70.0766 51.6266 69.6971 51.6411 69.3176C51.6557 68.9381 51.6838 68.5595 51.7183 68.18C51.7365 67.9903 51.7555 67.8006 51.7773 67.6108C51.7991 67.4211 51.8218 67.2322 51.8554 67.0425C51.9179 66.6517 52.027 66.2697 52.1804 65.9049C52.3337 66.2699 52.4431 66.6517 52.5064 67.0425C52.539 67.2322 52.5626 67.422 52.5835 67.6108C52.6044 67.7996 52.6244 67.9903 52.6425 68.18C52.677 68.5595 52.7052 68.9381 52.7197 69.3176C52.7342 69.6971 52.7424 70.0766 52.7251 70.4552H51.6357Z" fill="#592D3D"/>
<path d="M29.2822 60.3613L50.4567 60.3522" stroke="#592D3D" stroke-width="1.57179" stroke-miterlimit="10"/>
<path d="M45.5353 60.3613C45.5355 60.7701 45.4916 61.1776 45.4046 61.577C45.3623 61.7712 45.3096 61.9631 45.2466 62.1517C45.0458 62.7149 44.7374 63.2339 44.3388 63.6796C44.2115 63.8225 44.075 63.9568 43.9302 64.0818C41.6451 65.7341 38.0136 65.8249 35.8065 64.0292C35.5687 63.8214 35.3525 63.5903 35.161 63.3392C34.7635 62.8172 34.4819 62.2164 34.3348 61.577C34.2918 61.3794 34.2594 61.1797 34.2377 60.9787C34.215 60.7737 34.2038 60.5676 34.2041 60.3613" stroke="#592D3D" stroke-width="1.57179" stroke-miterlimit="10"/>
<path d="M40.4372 66.6775C39.888 66.788 39.3261 66.8216 38.7676 66.7774C38.2041 66.7378 37.6484 66.623 37.1153 66.436C36.579 66.2522 36.0738 65.9877 35.6173 65.6516L35.4484 65.5236C35.393 65.48 35.3394 65.4328 35.2859 65.3856C35.178 65.2938 35.077 65.1943 34.9836 65.0878C34.7972 64.8784 34.6335 64.6498 34.4951 64.406C34.6894 64.6008 34.8936 64.7853 35.107 64.9589C35.1597 65.0025 35.2132 65.0452 35.2659 65.086C35.3186 65.1269 35.3776 65.1605 35.433 65.1986C35.4883 65.2367 35.5437 65.2748 35.6009 65.3103L35.7743 65.4156C36.2375 65.69 36.7272 65.9169 37.236 66.0928C37.7458 66.2711 38.2697 66.4063 38.8021 66.4969C39.3436 66.5855 39.8894 66.6458 40.4372 66.6775Z" fill="#592D3D"/>
<path d="M22.6826 72.4982C22.7859 72.5924 22.8979 72.6766 23.017 72.7499" stroke="#592D3D" stroke-width="1.57179" stroke-miterlimit="10" stroke-linecap="square"/>
<path d="M55.9893 71.6074C55.8004 71.7205 55.5924 71.798 55.3756 71.8362C55.1603 71.8785 54.9413 71.8983 54.7219 71.8952C54.5029 71.8909 54.2848 71.8669 54.0701 71.8235C53.9629 71.8044 53.8585 71.7727 53.7532 71.7445C53.6479 71.7164 53.5471 71.6746 53.4473 71.6319C53.5571 71.6319 53.6633 71.6483 53.7705 71.6574L54.09 71.6837C54.1963 71.6837 54.3016 71.7018 54.4078 71.7027C54.514 71.7037 54.6184 71.7127 54.7237 71.7136C54.9356 71.7173 55.1474 71.7115 55.3593 71.6964C55.5711 71.6817 55.7817 71.652 55.9893 71.6074Z" fill="#592D3D"/>
<path d="M40.1275 69.6241C39.0668 69.6241 38.03 69.9387 37.1481 70.528C36.2661 71.1172 35.5788 71.9548 35.1729 72.9347C34.767 73.9146 34.6608 74.9929 34.8677 76.0332C35.0746 77.0735 35.5854 78.0291 36.3354 78.7791C37.0854 79.5291 38.041 80.0398 39.0813 80.2468C40.1215 80.4537 41.1998 80.3475 42.1798 79.9416C43.1597 79.5357 43.9973 78.8483 44.5865 77.9664C45.1758 77.0845 45.4903 76.0477 45.4903 74.987C45.4863 73.5659 44.9199 72.2042 43.9151 71.1994C42.9102 70.1945 41.5485 69.6282 40.1275 69.6241V69.6241ZM37.1397 77.9766C36.3639 77.2052 35.9235 76.1591 35.914 75.0651L40.0903 79.2023C39.0162 79.1623 37.9486 78.7792 37.1397 77.9748V77.9766ZM41.0435 79.087L36.0293 74.0682C36.2052 73.2782 36.605 72.5557 37.1809 71.9871C37.7568 71.4185 38.4844 71.028 39.2765 70.8622C40.0687 70.6965 40.8918 70.7626 41.6473 71.0526C42.4029 71.3427 43.0588 71.8444 43.5366 72.4976L42.9619 72.9969C42.6357 72.5502 42.2094 72.1862 41.7172 71.9339C41.225 71.6817 40.6806 71.5482 40.1275 71.5443C39.415 71.5485 38.7209 71.771 38.1388 72.1819C37.5566 72.5928 37.1145 73.1722 36.8718 73.8421L41.2769 78.2472C41.8263 78.0521 42.3179 77.7217 42.7061 77.2867C43.0944 76.8516 43.3669 76.3258 43.4984 75.7578H41.66V74.9915H44.3409C44.3347 75.9455 44.0058 76.8693 43.4077 77.6126C42.8097 78.3558 41.9777 78.8749 41.0472 79.0851L41.0435 79.087Z" stroke="white" stroke-width="2.09571"/>
<path d="M40.1275 69.6241C39.0668 69.6241 38.03 69.9387 37.1481 70.528C36.2661 71.1172 35.5788 71.9548 35.1729 72.9347C34.767 73.9146 34.6608 74.9929 34.8677 76.0332C35.0746 77.0735 35.5854 78.0291 36.3354 78.7791C37.0854 79.5291 38.041 80.0398 39.0813 80.2468C40.1215 80.4537 41.1998 80.3475 42.1798 79.9416C43.1597 79.5357 43.9973 78.8483 44.5865 77.9664C45.1758 77.0845 45.4903 76.0477 45.4903 74.987C45.4863 73.5659 44.9199 72.2042 43.9151 71.1994C42.9102 70.1945 41.5485 69.6282 40.1275 69.6241ZM37.1397 77.9766C36.3639 77.2052 35.9235 76.1591 35.914 75.0651L40.0903 79.2023C39.0162 79.1623 37.9486 78.7792 37.1397 77.9748V77.9766ZM41.0435 79.087L36.0293 74.0682C36.2052 73.2782 36.605 72.5557 37.1809 71.9871C37.7568 71.4185 38.4844 71.028 39.2765 70.8622C40.0687 70.6965 40.8918 70.7626 41.6473 71.0526C42.4029 71.3427 43.0588 71.8444 43.5366 72.4976L42.9619 72.9969C42.6357 72.5502 42.2094 72.1862 41.7172 71.9339C41.225 71.6817 40.6806 71.5482 40.1275 71.5443C39.415 71.5485 38.7209 71.771 38.1388 72.1819C37.5566 72.5928 37.1145 73.1722 36.8718 73.8422L41.2769 78.2472C41.8263 78.0521 42.3179 77.7217 42.7061 77.2867C43.0944 76.8516 43.3668 76.3258 43.4984 75.7578H41.66V74.9915H44.3409C44.3347 75.9455 44.0058 76.8693 43.4077 77.6126C42.8097 78.3558 41.9777 78.8749 41.0472 79.0851L41.0435 79.087Z" fill="#663795"/>
<path opacity="0.1" d="M33.4911 78.7746C34.8053 78.7744 36.0865 78.3629 37.155 77.5976C38.2234 76.8323 39.0255 75.7518 39.4486 74.5076C38.9115 75.4264 38.1552 76.1979 37.2473 76.7533C36.3393 77.3086 35.308 77.6305 34.2454 77.6902C33.1827 77.7499 32.1219 77.5455 31.1574 77.0954C30.193 76.6452 29.3551 75.9633 28.7184 75.1104L28.7139 76.4477C29.8705 77.8667 31.5183 78.7746 33.4911 78.7746Z" fill="black"/>
<path opacity="0.1" d="M46.7671 78.7746C45.4528 78.7744 44.1717 78.3629 43.1032 77.5976C42.0348 76.8323 41.2327 75.7518 40.8096 74.5076C41.3467 75.4264 42.103 76.1979 43.0109 76.7533C43.9189 77.3086 44.9502 77.6305 46.0128 77.6902C47.0754 77.7499 48.1363 77.5455 49.1007 77.0954C50.0652 76.6452 50.9031 75.9633 51.5398 75.1104V76.4468C50.3877 77.8667 48.7399 78.7746 46.7671 78.7746Z" fill="black"/>
<path d="M31.6862 77.1558C30.7174 76.7942 29.8526 76.1995 29.1682 75.4242C28.4839 74.649 28.0011 73.717 27.7626 72.7108C27.524 71.7046 27.537 70.6552 27.8005 69.6552C28.0639 68.6552 28.5697 67.7356 29.273 66.9775" fill="#633749"/>
<path d="M31.6857 77.1555C30.6123 76.9803 29.6211 76.4722 28.8522 75.7029L28.7051 75.5577C28.657 75.5086 28.6143 75.4551 28.5662 75.4042C28.5181 75.3534 28.4754 75.2998 28.4319 75.2472C28.3858 75.1953 28.3425 75.1411 28.302 75.0847C28.2203 74.973 28.1377 74.8613 28.0587 74.7469L27.8436 74.3901C27.572 73.9013 27.3671 73.3782 27.2344 72.8349C27.111 72.2902 27.0594 71.7317 27.0809 71.1735C27.1057 70.619 27.2096 70.0708 27.3896 69.5457C27.4132 69.4812 27.4341 69.4159 27.4586 69.3514L27.5385 69.1608C27.5884 69.0337 27.6529 68.912 27.7119 68.7894C27.8381 68.5482 27.9819 68.3167 28.1422 68.0967C28.2194 67.9869 28.3075 67.8834 28.3919 67.7799C28.4763 67.6764 28.568 67.5774 28.6643 67.4866C28.852 67.2991 29.0565 67.1292 29.2753 66.9791C28.7496 67.887 28.3765 68.8121 28.2167 69.7636C28.1336 70.2312 28.0977 70.706 28.1096 71.1808C28.1271 71.6517 28.1878 72.12 28.2911 72.5798C28.4031 73.0371 28.5587 73.4825 28.756 73.9099C28.9577 74.3417 29.2035 74.7515 29.4895 75.1328C29.7788 75.5269 30.1077 75.8905 30.471 76.2177C30.8523 76.5597 31.2583 76.8731 31.6857 77.1555Z" fill="#592D3D"/>
<path d="M48.5752 77.1558C49.5437 76.7937 50.408 76.1986 51.0918 75.4231C51.7757 74.6476 52.258 73.7156 52.4961 72.7095C52.7342 71.7034 52.7207 70.6541 52.457 69.6543C52.1932 68.6546 51.6873 67.7353 50.9838 66.9775" fill="#633749"/>
<path d="M48.5752 77.1558C49.0015 76.8744 49.4066 76.5622 49.7872 76.2216C50.1505 75.8943 50.4793 75.5308 50.7686 75.1366C51.0546 74.7554 51.3005 74.3455 51.5022 73.9137C51.6994 73.4863 51.8551 73.0409 51.967 72.5837C52.0703 72.1239 52.1311 71.6556 52.1486 71.1846C52.1617 70.7081 52.1267 70.2315 52.0442 69.762C51.8844 68.8105 51.5113 67.8881 50.9856 66.9775C51.2044 67.1276 51.4089 67.2975 51.5966 67.485C51.6947 67.5758 51.7782 67.6793 51.869 67.7783C51.9598 67.8772 52.0415 67.9853 52.1186 68.0951C52.279 68.3151 52.4228 68.5466 52.549 68.7878C52.608 68.9104 52.6724 69.0321 52.7224 69.1592L52.8023 69.3498C52.8268 69.4143 52.8477 69.4796 52.8713 69.5441C53.0513 70.0692 53.1552 70.6174 53.18 71.1719C53.2015 71.7301 53.1499 72.2886 53.0265 72.8334C52.8938 73.3766 52.6889 73.8997 52.4173 74.3885L52.2022 74.7453C52.1232 74.8597 52.0406 74.9714 51.9589 75.0831C51.9184 75.1395 51.8751 75.1937 51.829 75.2456C51.7845 75.2982 51.7382 75.3509 51.6947 75.4026C51.6511 75.4544 51.6039 75.5071 51.5558 75.5561L51.4087 75.7013C50.6401 76.4713 49.6488 76.9801 48.5752 77.1558Z" fill="#592D3D"/>
<path d="M19.3745 43.8372C19.2837 41.2625 21.0087 39.0836 23.3038 38.0668C23.5448 37.9681 23.7924 37.8862 24.0446 37.8216C25.3166 37.5057 26.6551 37.5906 27.8768 38.0649C28.156 38.172 28.4275 38.2982 28.6894 38.4426C31.3703 39.8843 32.5742 43.2771 31.5365 46.0198C31.4313 46.2963 31.3044 46.564 31.157 46.8205C30.7949 47.5748 30.2481 48.2253 29.5673 48.7116C29.3402 48.8787 29.1021 49.0304 28.8546 49.1656C26.3688 50.3458 23.0097 49.9827 21.006 48.1306C20.8055 47.9177 20.6202 47.6911 20.4513 47.4524C20.2586 47.1798 20.0894 46.8912 19.9456 46.5899C19.6411 45.9736 19.4654 45.3017 19.429 44.6153C19.3961 44.3572 19.3779 44.0974 19.3745 43.8372Z" fill="#F3AB98"/>
<path d="M19.2261 42.172C19.1353 39.5972 20.8603 37.4183 23.1554 36.4015C23.3961 36.3028 23.6433 36.2209 23.8953 36.1564C25.1675 35.8402 26.5064 35.9252 27.7284 36.3997C28.0067 36.5068 28.2772 36.633 28.5382 36.7773C31.2192 38.22 32.423 41.6118 31.3853 44.3545C31.2809 44.6313 31.154 44.8992 31.0058 45.1552C30.8803 45.4012 30.7374 45.6378 30.5782 45.8634C30.4213 46.0869 30.249 46.2993 30.0625 46.4989C29.861 46.6983 29.6449 46.8826 29.4161 47.05C29.1891 47.2173 28.951 47.369 28.7034 47.5039C26.2177 48.6842 22.8585 48.321 20.8557 46.4689C20.6548 46.2565 20.4694 46.0298 20.301 45.7908C20.108 45.5181 19.9386 45.2296 19.7944 44.9283C19.4879 44.31 19.3115 43.6355 19.276 42.9464C19.2439 42.6895 19.2272 42.4309 19.2261 42.172Z" fill="white" stroke="#592D3D" stroke-width="1.57179" stroke-miterlimit="10"/>
<path d="M25.4677 43.3388C26.0814 43.3388 26.5789 42.8413 26.5789 42.2276C26.5789 41.6139 26.0814 41.1163 25.4677 41.1163C24.854 41.1163 24.3564 41.6139 24.3564 42.2276C24.3564 42.8413 24.854 43.3388 25.4677 43.3388Z" fill="#592D3D"/>
<path d="M59.6522 42.2272H49.5176" stroke="#592D3D" stroke-width="2.09571" stroke-miterlimit="10" stroke-linecap="round"/>
<path d="M51.6582 43.5965C52.0507 43.5265 52.4469 43.4793 52.8448 43.4549C53.2406 43.4277 53.6365 43.4159 54.0323 43.415C54.4281 43.4141 54.8231 43.4277 55.2189 43.454C55.6171 43.4787 56.0136 43.5262 56.4064 43.5965C56.0137 43.6676 55.6172 43.7155 55.2189 43.74C54.8231 43.766 54.4275 43.7787 54.0323 43.7781C53.6371 43.7775 53.2412 43.7645 52.8448 43.7391C52.4468 43.7149 52.0506 43.6673 51.6582 43.5965Z" fill="#592D3D"/>
<path fill-rule="evenodd" clip-rule="evenodd" d="M16.877 35.8772C17.389 37.3143 18.7744 38.0615 19.9093 38.323C21.095 36.4854 25.0524 35.6974 28.023 36.7397C30.5469 37.1936 27.0416 34.4182 21.4436 35.9226C21.2339 35.9997 20.1217 36.1904 18.6945 35.0882C18.4957 34.9348 19.1194 36.3329 19.8294 36.904C18.7989 36.8831 18.6301 36.884 16.877 35.8772Z" fill="#592D3D"/>
<path d="M36.8384 45.323C38.2501 45.323 39.1189 46.4815 40.1512 46.4815C41.1835 46.4815 42.5035 45.323 43.898 45.323C45.2925 45.323 46.0515 46.3326 46.0515 47.7307C46.0515 49.2423 44.5308 51.9069 40.3682 51.9069C36.2056 51.9069 34.4307 49.3885 34.4307 47.7806C34.4307 46.2962 35.4266 45.323 36.8384 45.323Z" fill="white" stroke="#592D3D" stroke-width="1.57179" stroke-miterlimit="10"/>
<path d="M38.1182 45.6338V51.5804" stroke="#592D3D" stroke-width="1.57179" stroke-miterlimit="10"/>
<path d="M42.5791 45.6338V51.5804" stroke="#592D3D" stroke-width="1.57179" stroke-miterlimit="10"/>
<path d="M45.4608 27.7252C44.2932 29.9041 40.0135 31.1243 39.6658 30.5777C39.2763 29.9667 43.1021 25.5554 40.9277 20.9415" fill="#F3AB98"/>
<path d="M65.9121 22.5962C65.449 22.1331 63.0922 22.7623 60.7199 22.5753C58.3954 19.4184 55.3747 16.8398 51.8922 15.0395C48.4097 13.2392 44.5591 12.2657 40.6395 12.1946C40.4179 10.3353 40.5714 8.7737 40.4025 8.554C40.1764 8.26166 38.9962 9.70519 38.6893 11.3684C37.6081 10.0066 35.7714 9.2803 35.7188 9.66161C35.6843 9.90492 36.3942 10.9408 37.0633 12.3762C26.9314 13.5991 18.6261 20.7522 15.7209 30.2614C14.4626 31.3436 13.2824 32.108 13.2697 32.5937C13.2451 33.4943 16.8385 33.4435 18.4064 33.3037V33.2982C23.9127 33.1166 34.6575 32.0472 39.8705 26.6807C39.3693 28.4138 38.446 29.6912 38.624 29.9636C38.8963 30.3876 42.103 29.4924 43.1697 27.8537C47.5275 29.6322 55.8337 31.7721 63.0522 26.3865L63.0323 26.3475C64.3478 25.2481 66.4886 23.1772 65.9121 22.5962Z" fill="#D96E27"/>
<path d="M60.7238 23.1206C60.2335 23.1423 59.756 23.1305 59.2712 23.1078C58.7864 23.0852 58.3097 23.047 57.8304 22.9935C57.5907 22.9671 57.351 22.939 57.1122 22.9027C56.8735 22.8664 56.6338 22.8373 56.3959 22.791C55.9112 22.7039 55.4371 22.5657 54.9814 22.3788C55.4577 22.2569 55.9438 22.1773 56.4341 22.141C56.6728 22.121 56.9116 22.1074 57.1504 22.0974L57.8658 22.0665C58.3424 22.0465 58.8181 22.0356 59.293 22.0257C59.7678 22.0157 60.2444 22.0148 60.7111 22.0257L60.7238 23.1206Z" fill="#592D3D"/>
<path d="M16.2153 30.5086C16.2153 30.5086 16.2153 30.5304 16.2153 30.544L16.2044 30.5921L16.179 30.6929C16.1599 30.761 16.1399 30.8309 16.119 30.9008C16.0764 31.0415 16.0283 31.1859 15.9792 31.3321C15.9302 31.4782 15.883 31.6298 15.8185 31.786C15.7825 31.8676 15.7406 31.9465 15.6933 32.022C15.6389 32.1117 15.5759 32.196 15.5053 32.2735C15.3522 32.1395 15.236 31.9685 15.1676 31.7769C15.1365 31.6915 15.1134 31.6034 15.0986 31.5136C15.0795 31.4228 15.0704 31.3321 15.0596 31.2458C15.0413 31.0647 15.0413 30.8822 15.0596 30.7011C15.0684 30.6095 15.083 30.5185 15.1031 30.4287C15.114 30.3833 15.1258 30.3379 15.1404 30.2916C15.1473 30.2679 15.1555 30.2446 15.1649 30.2217C15.1739 30.1963 15.1812 30.1781 15.1975 30.14L16.2153 30.5086Z" fill="#592D3D"/>
<path d="M18.4064 33.3066V33.3012C19.9498 33.2503 21.9136 33.1287 24.048 32.8618C24.2868 27.7849 26.0453 21.8238 30.0327 14.8458L29.4154 14.5508C26.1589 16.0638 23.2568 18.2446 20.8976 20.9517C18.5384 23.6588 16.7747 26.8316 15.7209 30.2643C14.4626 31.3465 13.2824 32.111 13.2697 32.5967C13.2451 33.4973 16.8385 33.4464 18.4064 33.3066Z" fill="#C65C22"/>
<path d="M65.9121 22.5962C65.449 22.1331 63.0922 22.7623 60.7199 22.5753C58.3954 19.4184 55.3747 16.8398 51.8922 15.0395C48.4097 13.2392 44.5591 12.2657 40.6395 12.1946C40.4179 10.3353 40.5714 8.7737 40.4025 8.554C40.1764 8.26166 38.9962 9.70519 38.6893 11.3684C37.6081 10.0066 35.7714 9.2803 35.7188 9.66161C35.6843 9.90492 36.3942 10.9408 37.0633 12.3762C26.9314 13.5991 18.6261 20.7522 15.7209 30.2614C14.4626 31.3436 13.2824 32.108 13.2697 32.5937C13.2451 33.4943 16.8385 33.4435 18.4064 33.3037V33.2982C23.9127 33.1166 34.6575 32.0472 39.8705 26.6807C39.3693 28.4138 38.446 29.6912 38.624 29.9636C38.8963 30.3876 42.103 29.4924 43.1697 27.8537C47.5275 29.6322 55.8337 31.7721 63.0522 26.3865L63.0323 26.3475C64.3478 25.2481 66.4886 23.1772 65.9121 22.5962Z" stroke="#592D3D" stroke-width="1.57179" stroke-miterlimit="10"/>
<path d="M40.6671 13.6502C39.374 13.7246 38.0862 13.8744 36.8105 14.0986C36.4945 14.1595 36.1795 14.2267 35.8626 14.2848C35.5458 14.3429 35.2362 14.4309 34.923 14.5036L33.9915 14.7505C33.6828 14.8413 33.3769 14.9393 33.07 15.0338C31.8459 15.4285 30.6499 15.9056 29.4902 16.4619C28.325 17.0275 27.1956 17.6642 26.1084 18.3684C27.0767 17.4852 28.1457 16.7191 29.2932 16.086C30.4417 15.4448 31.6508 14.919 32.903 14.5163C33.2189 14.4255 33.533 14.3265 33.849 14.2394C34.1649 14.1522 34.4845 14.0741 34.8068 14.0033C35.1291 13.9325 35.4514 13.8762 35.7746 13.8217C36.0978 13.7673 36.4237 13.7246 36.7487 13.6837C38.0493 13.5237 39.364 13.5125 40.6671 13.6502Z" fill="white"/>
<path d="M31.7119 34.5794H20.7592C20.2544 34.5794 19.7497 34.5721 19.2449 34.5794H19.2231C18.7483 34.5794 18.2934 34.997 18.3152 35.4873C18.3192 35.7268 18.4161 35.9554 18.5855 36.1249C18.7549 36.2943 18.9835 36.3912 19.2231 36.3952H30.1757C30.6796 36.3952 31.1853 36.4024 31.6901 36.3952H31.7119C32.1867 36.3952 32.6415 35.9775 32.6197 35.4873C32.6155 35.2478 32.5185 35.0193 32.3492 34.85C32.1798 34.6806 31.9513 34.5836 31.7119 34.5794Z" fill="#592D3D"/>
<path d="M60.6777 34.5794H49.725C49.2203 34.5794 48.7155 34.5721 48.2107 34.5794H48.1889C47.7141 34.5794 47.2592 34.997 47.281 35.4873C47.285 35.7268 47.3819 35.9554 47.5513 36.1249C47.7207 36.2943 47.9494 36.3912 48.1889 36.3952H59.1415C59.6463 36.3952 60.1511 36.4024 60.6559 36.3952H60.6777C61.1525 36.3952 61.6073 35.9775 61.5856 35.4873C61.5814 35.2478 61.4844 35.0193 61.315 34.85C61.1456 34.6806 60.9171 34.5836 60.6777 34.5794Z" fill="#592D3D"/>
<path opacity="0.15" d="M60.556 48.8315C61.57 47.1376 62.3719 45.3255 62.9438 43.436C61.3786 46.6807 58.4189 49.3789 54.5813 49.3789C52.015 49.3756 49.5548 48.3545 47.7404 46.5397C45.9259 44.7249 44.9053 42.2645 44.9024 39.6982C44.8988 38.4464 45.1403 37.2059 45.6133 36.0468H63.552C63.9465 37.0127 64.1802 38.0367 64.2438 39.0782C64.3101 38.3519 64.3455 37.6083 64.3455 36.8611C64.3451 35.9816 64.2972 35.1027 64.2021 34.2283H46.9379H33.1508H16.0546C15.9594 35.1027 15.9115 35.9816 15.9111 36.8611C15.9111 37.2905 15.9238 37.7163 15.9456 38.1403C16.0609 37.4223 16.258 36.7199 16.533 36.0468H34.4727C35.0693 37.5169 35.2956 39.1111 35.1318 40.6892C34.968 42.2674 34.4191 43.7811 33.5333 45.0974C32.6475 46.4137 31.452 47.4923 30.0517 48.2384C28.6515 48.9845 27.0895 49.3752 25.5029 49.3762C21.9803 49.3762 19.2548 47.0312 17.5607 44.2113C18.1319 45.8879 18.8858 47.4967 19.8087 49.0085C21.569 50.1043 23.2813 51.192 25.5029 51.192C28.5503 51.1884 31.472 49.9764 33.6271 47.8217C35.7823 45.6671 36.995 42.7457 36.9993 39.6982C36.9993 39.5339 36.9993 39.3705 36.9884 39.208C39.1111 38.4608 41.1211 38.4499 43.0994 39.1753C43.0921 39.3487 43.0867 39.523 43.0867 39.6982C43.0903 42.7462 44.3026 45.6683 46.4579 47.8235C48.6131 49.9787 51.5352 51.1911 54.5831 51.1947C56.9245 51.1947 58.7403 50.0372 60.556 48.8315ZM43.33 37.3341C41.2055 36.6487 39.0048 36.6605 36.7633 37.3695C36.6712 36.9218 36.552 36.4801 36.4065 36.0468H43.6786C43.5367 36.4685 43.4203 36.8984 43.33 37.3341Z" fill="black"/>
<path opacity="0.95" d="M15.9414 34.1234C15.9414 34.1234 15.9786 37.0495 15.9786 38.681C15.9786 44.5286 19.6537 49.2695 25.5023 49.2695C27.2902 49.2687 29.0488 48.8154 30.6142 47.9518C32.1797 47.0882 33.5012 45.8424 34.4555 44.3305C35.4097 42.8186 35.9658 41.0898 36.0719 39.305C36.178 37.5203 35.8307 35.7377 35.0622 34.1234H15.9414Z" fill="#592D3D"/>
<path opacity="0.95" d="M45.0245 34.1234C44.256 35.7377 43.9087 37.5203 44.0148 39.305C44.1209 41.0898 44.677 42.8186 45.6312 44.3305C46.5855 45.8424 47.907 47.0882 49.4725 47.9518C51.0379 48.8154 52.7965 49.2687 54.5844 49.2695C60.433 49.2695 64.3478 44.5286 64.3478 38.681C64.3478 37.0468 64.1453 34.1234 64.1453 34.1234H45.0245Z" fill="#592D3D"/>
<path opacity="0.25" d="M23.7876 48.3811L34.9608 37.2069C34.7153 36.6533 34.4109 36.1276 34.0529 35.639L22.2188 47.475C22.7079 47.8321 23.2338 48.1358 23.7876 48.3811Z" fill="white"/>
<path d="M36.1211 37.5473C38.8012 36.4578 41.4349 36.4197 44.0196 37.5473" stroke="#592D3D" stroke-width="2.61964" stroke-miterlimit="10"/>
<path d="M19.6359 37.2946C19.8229 37.8857 19.0966 38.3396 18.5519 38.4304C18.0072 38.4304 17.644 38.0673 17.4624 37.6133C17.3716 37.1594 17.4624 36.7054 17.8256 36.4331C18.2795 36.2515 18.915 36.0699 19.3181 36.5348C19.419 36.6339 19.4991 36.7522 19.5537 36.8826C19.6082 37.0131 19.6362 37.1532 19.6359 37.2946Z" fill="white"/>
<path d="M20.6063 36.9469C20.5511 37.3386 20.0084 37.3386 19.918 36.9768C19.918 36.7054 20.0084 36.615 20.2653 36.606C20.3557 36.606 20.4424 36.6419 20.5064 36.7058C20.5703 36.7698 20.6063 36.8565 20.6063 36.9469Z" fill="white"/>
<path opacity="0.25" d="M53.3099 47.6605L62.9588 38.0116C62.9067 37.6679 62.8336 37.3277 62.74 36.9929L52.2939 47.4417C52.6278 47.5351 52.9671 47.6082 53.3099 47.6605Z" fill="white"/>
<path d="M48.3615 37.384C48.5485 37.975 47.8222 38.429 47.2775 38.5198C46.7327 38.5198 46.3696 38.1566 46.188 37.7027C46.0972 37.2487 46.188 36.7948 46.5512 36.5224C47.0051 36.3409 47.6406 36.1593 48.0446 36.6241C48.1454 36.7233 48.2253 36.8416 48.2797 36.9721C48.3342 37.1026 48.3619 37.2426 48.3615 37.384Z" fill="white"/>
<path d="M49.3279 37.0354C49.2728 37.4271 48.7301 37.4271 48.6396 37.0653C48.6396 36.7939 48.7301 36.7035 48.9879 36.6945C49.0326 36.6945 49.0769 36.7033 49.1182 36.7204C49.1595 36.7376 49.1971 36.7627 49.2287 36.7944C49.2602 36.8261 49.2853 36.8637 49.3023 36.905C49.3194 36.9464 49.3281 36.9907 49.3279 37.0354Z" fill="white"/>
<path d="M15.9406 34.1234C15.9406 34.1234 15.9097 37.0005 15.9778 38.681C16.2138 44.5241 19.6529 49.2695 25.5014 49.2695C27.2893 49.2687 29.0479 48.8154 30.6134 47.9518C32.1789 47.0882 33.5003 45.8424 34.4546 44.3305C35.4089 42.8186 35.965 41.0898 36.0711 39.305C36.1772 37.5203 35.8298 35.7377 35.0614 34.1234H15.9406Z" stroke="#592D3D" stroke-width="2.61964" stroke-miterlimit="10"/>
<path d="M45.0245 34.1234C44.256 35.7377 43.9087 37.5203 44.0148 39.305C44.1209 41.0898 44.677 42.8186 45.6312 44.3305C46.5855 45.8424 47.907 47.0882 49.4725 47.9518C51.0379 48.8154 52.7965 49.2687 54.5844 49.2695C60.433 49.2695 64.3478 44.5913 64.3478 38.7436C64.3478 37.1094 64.1453 34.1234 64.1453 34.1234H45.0245Z" stroke="#592D3D" stroke-width="2.61964" stroke-miterlimit="10"/>
<path d="M33.1494 34.1224H46.9337" stroke="#592D3D" stroke-width="2.61964" stroke-miterlimit="10"/>
</g>
<defs>
<clipPath id="clip0">
<rect x="0.946289" y="0.301025" width="80" height="80" rx="40" fill="white"/>
</clipPath>
</defs>
</svg>
