<svg width="81" height="81" viewBox="0 0 81 81" fill="none" xmlns="http://www.w3.org/2000/svg">
<g clip-path="url(#clip0)">
<path d="M14.7007 45.2958C32.0725 52.6785 49.8516 52.7836 67.3542 45.2958C69.0144 44.5854 69.005 32.0486 67.3542 32.6225C50.2617 38.5732 32.1852 38.6367 14.7007 32.6225C12.6208 31.9037 12.8235 44.4936 14.7007 45.2958Z" fill="#592D3D" stroke="#592D3D" stroke-width="1.7604" stroke-miterlimit="10"/>
<path d="M40.6872 15.8472C26.6379 15.8472 15.248 27.2361 15.248 41.2863V53.4152C15.248 67.4645 26.6379 68.5284 40.6872 68.5284C54.7365 68.5284 66.1263 67.4645 66.1263 53.4152V41.2863C66.1263 27.2361 54.7365 15.8472 40.6872 15.8472Z" fill="#FEDC58" stroke="#592D3D" stroke-width="1.57179" stroke-miterlimit="10"/>
<path d="M49.8457 62.2896C57.5207 62.2896 55.9343 71.9501 56.0078 82.693H49.8457V62.2896Z" fill="#FDD2B2"/>
<path d="M51.7687 68.4755L49.8457 71.6999L50.808 82.6931H53.4938C53.5589 67.4489 51.7687 68.4755 51.7687 68.4755Z" fill="#F3AB98"/>
<path d="M17.9873 40.4117C17.9873 27.9539 28.0867 17.8545 40.5446 17.8545C53.0024 17.8545 63.1018 27.9539 63.1018 40.4117C63.105 43.7684 62.3575 47.0833 60.9141 50.1138C59.4707 53.1443 57.3679 55.8136 54.7596 57.9264C54.2968 58.303 53.8193 58.6607 53.3271 58.9995C48.2398 62.229 41.813 62.229 36.0111 61.7123C35.4479 61.6278 34.8864 61.5212 34.3292 61.3986C32.1026 60.9081 29.9471 60.1513 27.9556 59.0477C27.4635 58.7444 26.9863 58.4169 26.524 58.0651C26.0593 57.7113 25.6134 57.3337 25.1879 56.9337C24.7854 56.5599 24.3966 56.1715 24.0218 55.7684C20.1367 51.5993 17.9798 46.1104 17.9873 40.4117Z" fill="#FDD2B2"/>
<path d="M21.0624 51.7835C21.1215 51.885 21.1799 51.9865 21.2408 52.0862C21.2771 52.1471 21.3152 52.2063 21.3532 52.2672C21.4091 52.3577 21.4649 52.4482 21.5224 52.537C21.563 52.6012 21.6069 52.6638 21.6458 52.7264C21.7017 52.811 21.7575 52.8955 21.815 52.9801C21.8581 53.0443 21.8995 53.1086 21.9469 53.1729C22.0027 53.2574 22.0585 53.3352 22.116 53.4164C22.1617 53.4815 22.209 53.5458 22.2555 53.6109C22.302 53.676 22.3689 53.7674 22.4247 53.8452C22.4805 53.923 22.5219 53.9745 22.571 54.0388C22.62 54.1031 22.6868 54.191 22.746 54.2671C22.8052 54.3432 22.8466 54.3948 22.8974 54.4582C22.9481 54.5217 23.0166 54.6071 23.0766 54.6806C23.1367 54.7542 23.1807 54.8066 23.2331 54.8692C23.2855 54.9318 23.3549 55.0147 23.4166 55.0865C23.4783 55.1584 23.524 55.2109 23.5781 55.2726L23.7658 55.484C23.8208 55.5457 23.8766 55.6058 23.935 55.6667C24.0077 55.7461 24.0813 55.8248 24.1548 55.9026L24.2572 56.0108C24.3662 56.1241 24.4762 56.2374 24.5878 56.3491L24.6098 56.3719C24.7189 56.4801 24.8296 56.5875 24.9404 56.6941L25.074 56.8209C25.1544 56.8962 25.2347 56.9715 25.3159 57.0459L25.414 57.1355C25.4985 57.215 25.5907 57.2928 25.6795 57.3706C25.9557 57.6113 26.2376 57.8422 26.5251 58.0632C26.9868 58.415 27.4641 58.7425 27.9568 59.0458C29.9483 60.1451 32.1004 60.9062 34.3303 61.3966C34.8876 61.5193 35.4491 61.625 36.0123 61.7104C39.5724 62.0275 43.3693 62.1484 46.9446 61.4499C41.2594 59.7764 13.9574 49.9451 31.1414 19.9032C30.9114 20.0089 30.6848 20.118 30.4599 20.2313L30.41 20.2558C30.3068 20.3074 30.2036 20.3607 30.1013 20.4148L30.0167 20.4596C29.6988 20.6287 29.3842 20.8038 29.0756 20.9865L28.9995 21.0313C28.9014 21.0896 28.8041 21.1488 28.7069 21.2089L28.6333 21.2545C28.3311 21.4434 28.0337 21.6387 27.7412 21.8405L27.6498 21.904C27.5577 21.9682 27.4672 22.0325 27.3767 22.0976L27.3209 22.1374C27.1365 22.2721 26.9544 22.4085 26.7746 22.5466L26.7222 22.5872C26.6376 22.6532 26.553 22.7208 26.4685 22.7893L26.3695 22.8688C26.285 22.9373 26.2004 23.0058 26.1158 23.076C25.9374 23.224 25.7615 23.3762 25.5882 23.5301L25.4918 23.6147L25.2643 23.8219L25.1544 23.9216C24.9131 24.1471 24.6771 24.3774 24.4466 24.6125L24.3299 24.7318C24.2631 24.8011 24.1963 24.8704 24.1303 24.9406C24.0914 24.9821 24.0525 25.0252 24.0145 25.0658C23.8983 25.1898 23.7839 25.3155 23.6711 25.4429C23.6331 25.4861 23.5942 25.5275 23.5561 25.5732C23.4961 25.6417 23.4369 25.711 23.3777 25.7803L23.25 25.9317C23.1925 26.0002 23.135 26.0687 23.0809 26.138C23.0352 26.1939 22.9895 26.2505 22.9447 26.3072C22.8542 26.4196 22.7655 26.5321 22.6775 26.6454C22.6318 26.7046 22.5862 26.7638 22.5414 26.8238C22.4965 26.8839 22.4399 26.9583 22.39 27.0268C22.3401 27.0953 22.2995 27.1494 22.2555 27.2111C22.2116 27.2729 22.16 27.3422 22.1135 27.4082C22.0334 27.5209 21.9545 27.6351 21.8767 27.7507C21.8344 27.8124 21.7921 27.8758 21.7507 27.9384C21.7093 28.001 21.6577 28.0788 21.612 28.1498L21.486 28.3451L21.3439 28.5743C21.3076 28.6327 21.2712 28.691 21.2357 28.7493C21.1604 28.8728 21.0877 28.9971 21.015 29.1214L20.9118 29.3041C20.8662 29.3844 20.8205 29.4656 20.7757 29.5468C20.7419 29.6085 20.708 29.6702 20.6751 29.732C20.6209 29.8326 20.5677 29.9341 20.5144 30.0356L20.4129 30.2334C20.3588 30.3417 20.3047 30.4491 20.2514 30.5582C20.2235 30.6165 20.1947 30.6757 20.1668 30.7349C20.1229 30.8271 20.0823 30.9201 20.0374 31.0131C20.0112 31.0689 19.9859 31.1247 19.9605 31.1822C19.8979 31.3215 19.8368 31.4624 19.777 31.605C19.7584 31.649 19.7406 31.6938 19.722 31.7378C19.6772 31.8452 19.6332 31.9526 19.5901 32.0608C19.5673 32.1175 19.5453 32.1742 19.5233 32.23C19.481 32.3365 19.4387 32.4439 19.4007 32.5513C19.3829 32.5978 19.3652 32.6443 19.3483 32.6908C19.2953 32.8391 19.2431 32.9874 19.1918 33.1356L19.1445 33.2794C19.1073 33.3921 19.0709 33.5049 19.0354 33.6177L18.9846 33.7792C18.9449 33.9094 18.906 34.0396 18.8688 34.1707C18.8603 34.1986 18.8519 34.2265 18.8443 34.2553C18.8003 34.4109 18.758 34.567 18.7174 34.7237C18.7039 34.7736 18.692 34.8244 18.6794 34.8743C18.6498 34.9918 18.621 35.1093 18.5948 35.2277L18.5593 35.3757C18.5229 35.5364 18.4874 35.6971 18.4544 35.8586L18.4417 35.9237C18.413 36.0674 18.3848 36.2112 18.3572 36.355C18.3479 36.4065 18.3394 36.4573 18.3301 36.5089C18.3081 36.6349 18.287 36.7626 18.2675 36.8894C18.2608 36.9325 18.2532 36.974 18.2472 37.0179C18.2219 37.1828 18.199 37.3486 18.1771 37.5152L18.1644 37.6251C18.1475 37.7596 18.1322 37.8949 18.1179 38.0302C18.1128 38.0809 18.1069 38.1316 18.1018 38.1832C18.0883 38.3253 18.0756 38.4682 18.0637 38.6111C18.0637 38.6407 18.0587 38.6695 18.057 38.6957C18.0446 38.8648 18.0336 39.0353 18.024 39.2073C18.024 39.2521 18.024 39.2978 18.0181 39.3426C18.0124 39.4756 18.0074 39.6084 18.0029 39.7409C18.0029 39.7908 18.0029 39.8407 18.0029 39.8905C18.0029 40.0639 17.9961 40.2381 17.9961 40.4123C17.9961 40.4123 17.9961 40.4182 17.9961 40.4208C17.9961 40.6085 17.9961 40.7945 18.0029 40.9806C18.0029 41.0448 18.0079 41.1091 18.0096 41.1734C18.0139 41.2977 18.0181 41.422 18.024 41.5463C18.024 41.6216 18.0333 41.696 18.0375 41.7712C18.0443 41.8837 18.0502 41.9962 18.0587 42.1095C18.0646 42.194 18.0722 42.2693 18.079 42.3488C18.0883 42.4553 18.0967 42.5619 18.1077 42.6676C18.1153 42.7522 18.1255 42.8317 18.1339 42.9137C18.1458 43.016 18.1568 43.1192 18.1694 43.2215C18.1796 43.3061 18.1914 43.3906 18.2024 43.471C18.216 43.5707 18.2295 43.6714 18.2447 43.7711C18.2574 43.8557 18.2709 43.9403 18.2845 44.0248C18.2997 44.1229 18.3157 44.2219 18.3327 44.32C18.3479 44.4045 18.3631 44.4891 18.3792 44.5737C18.3969 44.6709 18.4155 44.7681 18.4341 44.8645C18.4527 44.961 18.4688 45.0337 18.4866 45.1182C18.5069 45.2146 18.5271 45.3102 18.5491 45.4058C18.5711 45.5013 18.5863 45.5749 18.6066 45.6535C18.6286 45.7491 18.6523 45.8438 18.676 45.9377C18.6997 46.0315 18.7174 46.1026 18.7386 46.1837C18.7639 46.2785 18.7893 46.3723 18.8155 46.4662C18.8375 46.5507 18.8603 46.6285 18.884 46.7089C18.9111 46.8027 18.939 46.8958 18.9686 46.9888C18.9982 47.0818 19.0176 47.1486 19.043 47.2289C19.0684 47.3093 19.1022 47.4141 19.1326 47.5063C19.1631 47.5985 19.1851 47.6644 19.2121 47.7431C19.2442 47.8353 19.2764 47.9274 19.3094 48.0196C19.3373 48.0966 19.3643 48.1744 19.3939 48.2513L19.4988 48.5278C19.5284 48.6031 19.5571 48.6792 19.5833 48.7545C19.6206 48.8466 19.6586 48.9397 19.6967 49.0318C19.7271 49.1045 19.7567 49.1781 19.788 49.2508C19.8277 49.3456 19.8726 49.4386 19.9106 49.5324C19.9419 49.6018 19.9723 49.672 20.0036 49.7413C20.0476 49.8394 20.0941 49.9358 20.1389 50.0322L20.2303 50.2267C20.2818 50.3333 20.3351 50.4381 20.3884 50.5438C20.4154 50.5971 20.4408 50.6512 20.4687 50.7045C20.6311 51.0207 20.8002 51.3328 20.9761 51.6406C21.0006 51.6803 21.0319 51.7319 21.0624 51.7835Z" fill="#F3AB98"/>
<path d="M17.9873 40.4117C17.9873 27.9539 28.0867 17.8545 40.5446 17.8545C53.0024 17.8545 63.1018 27.9539 63.1018 40.4117C63.105 43.7684 62.3575 47.0833 60.9141 50.1138C59.4707 53.1443 57.3679 55.8136 54.7596 57.9264C54.2968 58.303 53.8193 58.6607 53.3271 58.9995C48.2398 62.229 41.813 62.229 36.0111 61.7123C35.4479 61.6278 34.8864 61.5212 34.3292 61.3986C32.1026 60.9081 29.9471 60.1513 27.9556 59.0477C27.4635 58.7444 26.9863 58.4169 26.524 58.0651C26.0593 57.7113 25.6134 57.3337 25.1879 56.9337C24.7854 56.5599 24.3966 56.1715 24.0218 55.7684C20.1367 51.5993 17.9798 46.1104 17.9873 40.4117V40.4117Z" stroke="#592D3D" stroke-width="1.57179" stroke-miterlimit="10"/>
<path d="M30.9133 62.2896C23.2375 62.2896 24.8247 71.9501 24.7511 82.693H30.9133V62.2896Z" fill="#FDD2B2"/>
<path d="M29.3156 68.4755L31.2411 71.6999L30.2779 82.6931H27.5947C27.5262 67.4489 29.3156 68.4755 29.3156 68.4755Z" fill="#F3AB98"/>
<path d="M50.647 88.6124H30.4415C30.1438 88.6122 29.8584 88.4937 29.648 88.2832C29.4375 88.0726 29.3193 87.7871 29.3193 87.4894V63.4126C29.3193 63.1149 29.4375 62.8294 29.648 62.6188C29.8584 62.4082 30.1438 62.2898 30.4415 62.2896H50.1642C51.2711 62.2896 51.7709 62.9373 51.7709 63.9707V87.486C51.7713 87.6338 51.7426 87.7803 51.6863 87.917C51.63 88.0537 51.5473 88.1779 51.4428 88.2826C51.3384 88.3872 51.2144 88.4702 51.0778 88.5268C50.9412 88.5834 50.7948 88.6125 50.647 88.6124Z" fill="#FDD2B2"/>
<path d="M51.4571 62.958C51.3728 62.8544 51.3015 62.7408 51.2449 62.6198C51.0418 62.4607 50.8002 62.3582 50.5447 62.3229C50.4188 62.3035 50.2916 62.2938 50.1642 62.2942H30.4415C30.1445 62.2944 29.8597 62.4123 29.6494 62.6219C29.4391 62.8316 29.3205 63.116 29.3193 63.413C31.7717 64.2941 36.3626 64.7863 40.5443 64.7863C45.8768 64.7863 49.371 63.9956 51.4571 62.958Z" fill="#F3AB98"/>
<path d="M49.8457 62.2896C57.5207 62.2896 55.9343 71.9501 56.0078 82.693H51.7687" stroke="#592D3D" stroke-width="1.57179" stroke-miterlimit="10" stroke-linecap="square"/>
<path d="M30.9133 62.2896C23.2375 62.2896 24.8247 71.9501 24.7511 82.693H28.9852" stroke="#592D3D" stroke-width="1.57179" stroke-miterlimit="10" stroke-linecap="square"/>
<path d="M30.4414 62.298L50.1641 62.2896" stroke="#592D3D" stroke-width="1.57179" stroke-miterlimit="10"/>
<path d="M30.4415 88.6124H40.3032C31.0732 88.6124 31.77 69.0631 29.3193 69.0631V87.486C29.3189 87.6337 29.3476 87.78 29.4038 87.9166C29.46 88.0532 29.5425 88.1774 29.6468 88.282C29.751 88.3866 29.8748 88.4697 30.0112 88.5264C30.1476 88.5831 30.2938 88.6123 30.4415 88.6124Z" fill="#F3AB98"/>
<path d="M28.8111 70.9266C28.795 70.6162 28.8018 70.3059 28.8153 69.9964C28.8289 69.6869 28.8551 69.3748 28.8881 69.0662C28.905 68.9106 28.9219 68.7558 28.943 68.6002C28.9642 68.4446 28.9845 68.2899 29.0149 68.1343C29.0749 67.8123 29.177 67.4995 29.3185 67.2041C29.46 67.4995 29.5621 67.8123 29.6221 68.1343C29.6525 68.2899 29.6745 68.4446 29.694 68.6002C29.7134 68.7558 29.732 68.9106 29.7489 69.0662C29.7811 69.3765 29.8064 69.6869 29.8208 69.9964C29.8352 70.3059 29.8419 70.6171 29.8259 70.9266H28.8111Z" fill="#592D3D"/>
<path d="M51.7694 71.7V72.3765C51.7914 75.2517 51.7914 78.2114 51.7694 81.0654C51.7694 81.3081 51.7694 81.5491 51.7694 81.7867V87.4871C51.7697 87.6347 51.741 87.781 51.6847 87.9175C51.6285 88.0539 51.5459 88.178 51.4417 88.2825C51.3375 88.3871 51.2136 88.47 51.0773 88.5267C50.941 88.5833 50.7949 88.6125 50.6472 88.6127H30.4417C30.144 88.6124 29.8586 88.494 29.6482 88.2834C29.4378 88.0729 29.3196 87.7873 29.3196 87.4897V82.5681C29.3196 82.3558 29.3196 82.1393 29.3196 81.9212C29.2984 78.9725 29.2984 76.0127 29.3196 73.0167V70.9263" stroke="#592D3D" stroke-width="1.57179" stroke-miterlimit="10"/>
<path d="M51.262 71.6999C51.2459 71.3472 51.2535 70.9937 51.2671 70.6403C51.2806 70.2868 51.3068 69.9342 51.3389 69.5807C51.3558 69.404 51.3736 69.2272 51.3939 69.0505C51.4142 68.8738 51.4353 68.6979 51.4658 68.5211C51.5247 68.1572 51.6266 67.8015 51.7694 67.4615C51.9121 67.8015 52.014 68.1572 52.0729 68.5211C52.1034 68.6979 52.1254 68.8746 52.1448 69.0505C52.1643 69.2264 52.1829 69.404 52.1998 69.5807C52.2319 69.9342 52.2581 70.2868 52.2717 70.6403C52.2852 70.9937 52.2928 71.3472 52.2767 71.6999H51.262Z" fill="#592D3D"/>
<path d="M40.7192 72.4489C40.7191 73.3349 40.518 74.2093 40.1313 75.0064C39.7445 75.8035 39.1821 76.5026 38.4862 77.051C37.7904 77.5995 36.9793 77.983 36.1139 78.1728C35.2485 78.3627 34.3513 78.3538 33.4898 78.147C32.6283 77.9401 31.8249 77.5407 31.14 76.9786C30.4551 76.4166 29.9066 75.7066 29.5356 74.902C29.1646 74.0974 28.9809 73.2192 28.9982 72.3334C29.0155 71.4476 29.2334 70.5772 29.6355 69.7877" stroke="#592D3D" stroke-width="1.57179" stroke-miterlimit="10"/>
<path d="M29.6348 69.7878C29.955 69.1621 30.3846 68.5988 30.9032 68.1244L29.6348 69.7878Z" fill="#FDD2B2"/>
<path d="M29.1836 69.5577C29.2578 69.3818 29.3539 69.2159 29.4694 69.0639C29.584 68.9116 29.7123 68.7701 29.8525 68.6411C29.9235 68.5768 29.9954 68.5142 30.0707 68.4559C30.1454 68.3954 30.2248 68.3411 30.3083 68.2935C30.4887 68.1894 30.692 68.1313 30.9002 68.1244C30.8783 68.3224 30.8285 68.5162 30.7522 68.7003C30.7193 68.7848 30.6821 68.8592 30.6432 68.9345L30.5332 69.1603C30.4613 69.3091 30.3903 69.4554 30.3176 69.5992C30.2472 69.7441 30.1693 69.8852 30.0842 70.022L29.1836 69.5577Z" fill="#592D3D"/>
<path d="M39.6416 69.0631C40.3433 70.0514 40.7199 71.2336 40.7189 72.4456L39.6416 69.0631Z" fill="#FDD2B2"/>
<path d="M39.6416 69.0631C39.9303 69.2196 40.1811 69.4376 40.3765 69.7016C40.4737 69.83 40.5613 69.9653 40.6386 70.1066C40.7172 70.2478 40.7883 70.3933 40.8542 70.5421C40.984 70.8411 41.0821 71.1529 41.1468 71.4723C41.2125 71.7929 41.2392 72.1203 41.2263 72.4473H40.2116C40.1955 72.1725 40.1811 71.8994 40.1524 71.6245C40.1236 71.3497 40.0873 71.0766 40.034 70.8009L39.9917 70.5945L39.9426 70.3874C39.9071 70.2495 39.8691 70.1117 39.8336 69.9705C39.7537 69.6716 39.6896 69.3687 39.6416 69.0631Z" fill="#592D3D"/>
<path d="M52.5223 72.4488C52.5232 71.6465 52.359 70.8525 52.0398 70.1164C51.7206 69.3802 51.2533 68.7177 50.667 68.1699" fill="#FDD2B2"/>
<path d="M52.0149 72.449C52.0014 72.0847 51.9658 71.7215 51.9084 71.3615C51.8491 70.9979 51.7608 70.6397 51.6445 70.2901C51.6158 70.2055 51.582 70.1151 51.5507 70.0271C51.5194 69.9392 51.4796 69.8538 51.445 69.7658C51.4103 69.6779 51.3655 69.5967 51.3283 69.5079L51.2048 69.2542C51.0357 68.9075 50.8522 68.5616 50.667 68.176C51.0589 68.3432 51.411 68.5913 51.7004 68.9041C51.7705 68.9836 51.8441 69.0614 51.9092 69.1451C51.9743 69.2288 52.0395 69.3142 52.0995 69.3988C52.1595 69.4834 52.2204 69.5755 52.2745 69.6677C52.3287 69.7599 52.3853 69.8521 52.4335 69.9485C52.6348 70.331 52.7882 70.7368 52.8902 71.1569C52.9943 71.5794 53.0404 72.0141 53.0271 72.449H52.0149Z" fill="#592D3D"/>
<path d="M40.7973 72.4491C40.788 73.2247 40.9327 73.9943 41.223 74.7136C41.5134 75.4328 41.9436 76.0872 42.4887 76.6389C43.0339 77.1907 43.6831 77.6287 44.3988 77.9277C45.1144 78.2266 45.8823 78.3806 46.6579 78.3806C47.4336 78.3806 48.2015 78.2266 48.9171 77.9277C49.6328 77.6287 50.282 77.1907 50.8272 76.6389C51.3723 76.0872 51.8025 75.4328 52.0929 74.7136C52.3832 73.9943 52.5279 73.2247 52.5186 72.4491" stroke="#592D3D" stroke-width="1.57179" stroke-miterlimit="10"/>
<path d="M41.8773 69.0631C41.1759 70.0515 40.7996 71.2337 40.8008 72.4456L41.8773 69.0631Z" fill="#FDD2B2"/>
<path d="M41.8779 69.0631C41.8299 69.3693 41.7658 69.6727 41.6859 69.9722C41.6504 70.1134 41.6123 70.2512 41.5768 70.3891L41.5286 70.5962L41.4863 70.8026C41.4331 71.0783 41.3942 71.3522 41.3671 71.6262C41.34 71.9002 41.3248 72.1742 41.3088 72.449H40.2906C40.2769 72.122 40.3036 71.7945 40.3701 71.474C40.4345 71.1545 40.5325 70.8427 40.6627 70.5438C40.7278 70.395 40.7988 70.2495 40.8775 70.1083C40.9551 69.9672 41.0427 69.8319 41.1396 69.7033C41.336 69.4385 41.588 69.22 41.8779 69.0631Z" fill="#592D3D"/>
<path d="M30.6865 68.9557V62.2896" stroke="#592D3D" stroke-width="1.57179" stroke-miterlimit="10"/>
<path d="M50.3926 68.9557V62.2896" stroke="#592D3D" stroke-width="1.57179" stroke-miterlimit="10"/>
<path d="M38.0479 74.0492H42.6058V75.7151C41.1057 75.2035 39.5861 75.2162 38.0479 75.7151V74.0492Z" fill="#633749" stroke="#592D3D" stroke-width="1.57179" stroke-miterlimit="10"/>
<path d="M52.2226 72.4492C52.2247 70.9647 51.6614 69.5351 50.6472 68.4511C50.2903 68.0689 46.9036 68.9745 44.913 70.7563C42.9587 72.5059 41.2573 75.3641 41.5008 75.7244C42.2024 76.7656 43.2197 77.554 44.403 77.9735C45.5863 78.393 46.8731 78.4215 48.0738 78.0547C49.2745 77.6879 50.3257 76.9453 51.0726 75.9362C51.8195 74.927 52.2226 73.7047 52.2226 72.4492Z" fill="#633749" stroke="#592D3D" stroke-width="1.57179" stroke-miterlimit="10"/>
<path d="M48.841 69.8726C48.3235 70.1829 47.8135 70.4797 47.3189 70.8028C46.8306 71.1148 46.3637 71.4588 45.921 71.8327C45.4855 72.2099 45.0661 72.6209 44.6526 73.0386C44.2391 73.4563 43.8332 73.8842 43.4053 74.313C43.6647 73.7686 43.9817 73.2534 44.3507 72.7765C44.7191 72.292 45.1359 71.8463 45.5946 71.4463C46.0613 71.0513 46.5769 70.7179 47.1286 70.4544C47.6721 70.1878 48.2476 69.9922 48.841 69.8726Z" fill="white"/>
<path d="M28.8662 72.4492C28.8641 70.9647 29.4274 69.5351 30.4416 68.4511C30.7985 68.0689 34.1852 68.9745 36.1759 70.7563C38.1301 72.5059 39.8315 75.3641 39.588 75.7244C38.8864 76.7656 37.8691 77.554 36.6858 77.9735C35.5025 78.393 34.2157 78.4215 33.015 78.0547C31.8143 77.6879 30.7631 76.9453 30.0162 75.9362C29.2693 74.927 28.8662 73.7047 28.8662 72.4492Z" fill="#633749" stroke="#592D3D" stroke-width="1.57179" stroke-miterlimit="10"/>
<path d="M36.8026 77.5285C34.8882 77.5285 33.0522 76.768 31.6985 75.4143C30.3448 74.0606 29.5843 72.2246 29.5843 70.3102C29.5843 70.0642 29.5967 69.8183 29.6215 69.5736C28.9857 70.7024 28.7419 72.01 28.928 73.2921C29.1142 74.5742 29.7198 75.7585 30.6504 76.6599C31.5809 77.5612 32.7839 78.1289 34.0713 78.2741C35.3586 78.4193 36.6579 78.1339 37.7658 77.4625C37.4466 77.5059 37.1248 77.5279 36.8026 77.5285Z" fill="#5E3244"/>
<path d="M28.8662 72.4492C28.8641 70.9647 29.4274 69.5351 30.4416 68.4511C30.7985 68.0689 34.1852 68.9745 36.1759 70.7563C38.1301 72.5059 39.8315 75.3641 39.588 75.7244C38.8864 76.7656 37.8691 77.554 36.6858 77.9735C35.5025 78.393 34.2157 78.4215 33.015 78.0547C31.8143 77.6879 30.7631 76.9453 30.0162 75.9362C29.2693 74.927 28.8662 73.7047 28.8662 72.4492V72.4492Z" stroke="#592D3D" stroke-width="1.57179" stroke-miterlimit="10"/>
<path d="M32.2471 69.8726C32.8404 69.992 33.4159 70.1872 33.9595 70.4535C34.5112 70.7173 35.0268 71.051 35.4934 71.4463C35.9503 71.846 36.3654 72.2912 36.7323 72.7748C37.1013 73.2518 37.4183 73.7669 37.6777 74.3113C37.2498 73.8885 36.8456 73.4547 36.4304 73.0369C36.0152 72.6192 35.5983 72.2082 35.162 71.831C34.7193 71.4572 34.2524 71.1131 33.7641 70.8011C33.2711 70.4797 32.7638 70.1829 32.2471 69.8726Z" fill="white"/>
<path d="M55.5791 74.773C55.5968 71.6349 55.4768 68.8477 54.9254 66.7066C54.0739 64.562 52.5424 63.2834 49.8457 63.2834L51.7729 74.6589C51.7729 74.6589 53.6773 75.5248 55.5791 74.773Z" fill="#F3AB98"/>
<path d="M56.3073 73.8805C56.2107 73.9603 56.1057 74.0292 55.9941 74.0862" stroke="#592D3D" stroke-width="1.57179" stroke-miterlimit="10" stroke-linecap="square"/>
<path d="M25.8399 66.6159C25.2623 68.7782 25.1634 71.6161 25.1854 74.8185C26.8682 75.5407 29.4491 74.6367 29.4491 74.6367L30.9145 63.4541C28.3041 63.4516 26.7481 64.627 25.8399 66.6159Z" fill="#F3AB98"/>
<path d="M50.1642 62.2896H45.58V62.298C45.5801 62.6787 45.5393 63.0583 45.4582 63.4303C45.4188 63.6113 45.3697 63.7899 45.3111 63.9656C45.124 64.4903 44.8368 64.9736 44.4654 65.3888C44.3469 65.5218 44.2198 65.647 44.0849 65.7634C41.9565 67.3025 38.5739 67.387 36.5182 65.7144C36.2967 65.5209 36.0953 65.3056 35.917 65.0717C35.5467 64.5855 35.2844 64.0259 35.1474 63.4303C35.1074 63.2463 35.0771 63.0603 35.0569 62.873C35.0358 62.6821 35.0254 62.4901 35.0257 62.298V62.2896H30.4415C30.1438 62.2898 29.8584 62.4082 29.648 62.6188C29.4375 62.8294 29.3193 63.1149 29.3193 63.4126V87.486C29.3189 87.6337 29.3476 87.78 29.4038 87.9166C29.46 88.0532 29.5425 88.1773 29.6468 88.282C29.751 88.3866 29.8748 88.4696 30.0112 88.5263C30.1476 88.583 30.2938 88.6123 30.4415 88.6124H50.647C50.9447 88.6122 51.2301 88.4937 51.4406 88.2832C51.651 88.0726 51.7692 87.7871 51.7692 87.4894V63.9707C51.7692 62.9373 51.2711 62.2896 50.1642 62.2896Z" fill="#633749"/>
<path d="M49.8457 62.2896C55.2188 62.2896 56.0526 67.0251 56.0949 73.5508C54.522 74.5335 51.9589 73.6616 51.9589 73.6616L49.8457 62.2896Z" fill="#633749"/>
<path d="M51.7687 68.4755L49.8457 71.6999L50.808 82.6931H51.7898V73.759L53.2511 74.0034C52.7716 67.9005 51.7687 68.4755 51.7687 68.4755Z" fill="#5E3244"/>
<path d="M30.9137 62.2896C25.6894 62.2896 24.5013 66.8391 24.415 73.0849C26.0217 74.7643 29.3197 73.4722 29.3197 73.4722L30.9137 62.2896Z" fill="#633749"/>
<path d="M29.3154 68.4755V73.4757L27.8516 73.8402C28.331 67.9106 29.3154 68.4755 29.3154 68.4755Z" fill="#5E3244"/>
<path d="M49.8457 62.2896C55.5461 62.2896 56.4797 67.0496 56.5177 73.6024C54.3022 74.6535 51.9589 73.6616 51.9589 73.6616" stroke="#592D3D" stroke-width="1.57179" stroke-miterlimit="10" stroke-linecap="square"/>
<path d="M30.9133 62.2896C25.2653 62.2896 24.1415 66.9152 24.084 73.3436C25.8294 74.5935 29.3151 73.4756 29.3151 73.4756" stroke="#592D3D" stroke-width="1.57179" stroke-miterlimit="10" stroke-linecap="square"/>
<path d="M30.4415 88.6124H40.3032C31.0732 88.6124 31.77 69.0631 29.3193 69.0631V87.486C29.3189 87.6337 29.3476 87.78 29.4038 87.9166C29.46 88.0532 29.5425 88.1774 29.6468 88.282C29.751 88.3866 29.8748 88.4697 30.0112 88.5264C30.1476 88.5831 30.2938 88.6123 30.4415 88.6124Z" fill="#5E3244"/>
<path d="M28.8111 70.9266C28.795 70.6162 28.8018 70.3059 28.8153 69.9964C28.8289 69.6869 28.8551 69.3748 28.8881 69.0662C28.905 68.9106 28.9219 68.7558 28.943 68.6002C28.9642 68.4446 28.9845 68.2899 29.0149 68.1343C29.0749 67.8123 29.177 67.4995 29.3185 67.2041C29.4601 67.4994 29.5619 67.8122 29.6212 68.1343C29.6525 68.2899 29.6745 68.4446 29.694 68.6002C29.7134 68.7558 29.732 68.9106 29.7489 69.0662C29.7811 69.3765 29.8064 69.6869 29.8208 69.9964C29.8352 70.3059 29.8419 70.6171 29.8259 70.9266H28.8111Z" fill="#592D3D"/>
<path d="M51.7694 71.7V72.3765C51.7914 75.2517 51.7914 78.2114 51.7694 81.0654C51.7694 81.3081 51.7694 81.5491 51.7694 81.7867V87.4871C51.7697 87.6347 51.741 87.781 51.6847 87.9175C51.6285 88.0539 51.5459 88.178 51.4417 88.2825C51.3375 88.3871 51.2136 88.47 51.0773 88.5267C50.941 88.5833 50.7949 88.6125 50.6472 88.6127H30.4417C30.144 88.6124 29.8586 88.494 29.6482 88.2834C29.4378 88.0729 29.3196 87.7873 29.3196 87.4897V82.5681C29.3196 82.3558 29.3196 82.1393 29.3196 81.9212C29.2984 78.9725 29.2984 76.0127 29.3196 73.0167V70.9263" stroke="#592D3D" stroke-width="1.57179" stroke-miterlimit="10"/>
<path d="M51.262 71.6999C51.2459 71.3472 51.2535 70.9937 51.2671 70.6403C51.2806 70.2868 51.3068 69.9342 51.3389 69.5807C51.3558 69.404 51.3736 69.2272 51.3939 69.0505C51.4142 68.8738 51.4353 68.6979 51.4666 68.5211C51.5248 68.1571 51.6265 67.8014 51.7694 67.4615C51.9121 67.8015 52.014 68.1572 52.0729 68.5211C52.1034 68.6979 52.1254 68.8746 52.1448 69.0505C52.1643 69.2264 52.1829 69.404 52.1998 69.5807C52.2319 69.9342 52.2581 70.2868 52.2717 70.6403C52.2852 70.9937 52.2928 71.3472 52.2767 71.6999H51.262Z" fill="#592D3D"/>
<path d="M30.4414 62.298L50.1641 62.2896" stroke="#592D3D" stroke-width="1.57179" stroke-miterlimit="10"/>
<path d="M45.5797 62.2982C45.5799 62.6789 45.539 63.0585 45.458 63.4305C45.4186 63.6115 45.3694 63.7901 45.3108 63.9658C45.1237 64.4905 44.8365 64.9738 44.4652 65.389C44.3467 65.5221 44.2195 65.6472 44.0846 65.7636C41.9562 67.3027 38.5737 67.3872 36.5179 65.7146C36.2965 65.5211 36.095 65.3058 35.9167 65.0719C35.5464 64.5857 35.2841 64.0261 35.1472 63.4305C35.1071 63.2465 35.0769 63.0605 35.0567 62.8732C35.0356 62.6823 35.0251 62.4903 35.0254 62.2982" stroke="#592D3D" stroke-width="1.57179" stroke-miterlimit="10"/>
<path d="M40.8315 68.1812C40.32 68.2841 39.7966 68.3154 39.2764 68.2742C38.7515 68.2373 38.2339 68.1304 37.7374 67.9563C37.2379 67.785 36.7674 67.5386 36.3421 67.2256L36.1848 67.1064C36.1332 67.0658 36.0833 67.0218 36.0334 66.9779C35.933 66.8923 35.8389 66.7996 35.7518 66.7005C35.5782 66.5054 35.4257 66.2926 35.2969 66.0654C35.4778 66.2469 35.668 66.4188 35.8668 66.5804C35.9159 66.621 35.9658 66.6608 36.0148 66.6988C36.0639 66.7369 36.1188 66.7681 36.1704 66.8037C36.222 66.8392 36.2736 66.8747 36.3269 66.9077L36.4884 67.0058C36.9198 67.2614 37.3759 67.4727 37.8498 67.6366C38.3247 67.8027 38.8126 67.9285 39.3086 68.0129C39.8129 68.0955 40.3213 68.1516 40.8315 68.1812Z" fill="#592D3D"/>
<path d="M24.2939 73.603C24.3902 73.6908 24.4945 73.7693 24.6054 73.8375" stroke="#592D3D" stroke-width="1.57179" stroke-miterlimit="10" stroke-linecap="square"/>
<path d="M55.317 72.7732C55.141 72.8785 54.9473 72.9507 54.7453 72.9863C54.5448 73.0257 54.3408 73.0441 54.1365 73.0413C53.9325 73.0373 53.7293 73.0149 53.5293 72.9745C53.4295 72.9567 53.3323 72.9271 53.2342 72.9009C53.1361 72.8747 53.0422 72.8358 52.9492 72.796C53.0515 72.796 53.1505 72.8112 53.2503 72.8197L53.5479 72.8442C53.6469 72.8442 53.745 72.8611 53.8439 72.862C53.9428 72.8628 54.0401 72.8713 54.1382 72.8721C54.3355 72.8755 54.5328 72.8702 54.7301 72.8561C54.9275 72.8424 55.1236 72.8147 55.317 72.7732Z" fill="#592D3D"/>
<path opacity="0.1" d="M34.3599 79.4488C35.584 79.4487 36.7773 79.0653 37.7725 78.3525C38.7677 77.6397 39.5148 76.6333 39.9089 75.4744C39.4086 76.3302 38.7042 77.0488 37.8585 77.5661C37.0128 78.0834 36.0522 78.3832 35.0624 78.4388C34.0726 78.4944 33.0845 78.304 32.1862 77.8848C31.2879 77.4655 30.5074 76.8303 29.9144 76.0359L29.9102 77.2815C30.9875 78.6032 32.5223 79.4488 34.3599 79.4488Z" fill="black"/>
<path opacity="0.1" d="M46.7277 79.4488C45.5036 79.4487 44.3103 79.0653 43.3151 78.3525C42.3199 77.6397 41.5729 76.6333 41.1787 75.4744C41.679 76.3302 42.3835 77.0488 43.2291 77.5661C44.0748 78.0834 45.0354 78.3832 46.0252 78.4388C47.015 78.4944 48.0031 78.304 48.9014 77.8848C49.7997 77.4655 50.5802 76.8303 51.1732 76.0359V77.2806C50.1001 78.6032 48.5653 79.4488 46.7277 79.4488Z" fill="black"/>
<path d="M32.6799 77.9414C31.7776 77.6046 30.972 77.0507 30.3346 76.3286C29.6972 75.6065 29.2475 74.7385 29.0253 73.8013C28.8031 72.8641 28.8153 71.8865 29.0606 70.9551C29.306 70.0237 29.7771 69.1671 30.4323 68.4611" fill="#633749"/>
<path d="M32.6802 77.9419C31.6804 77.7788 30.7571 77.3055 30.041 76.5889L29.904 76.4536C29.8592 76.408 29.8194 76.3581 29.7746 76.3107C29.7298 76.2634 29.69 76.2135 29.6495 76.1644C29.6065 76.1161 29.5662 76.0656 29.5285 76.0131C29.4524 75.909 29.3755 75.805 29.3019 75.6985L29.1015 75.3661C28.8485 74.9108 28.6577 74.4236 28.5341 73.9176C28.4191 73.4102 28.3711 72.8899 28.3912 72.3701C28.4142 71.8535 28.511 71.343 28.6787 70.8539C28.7007 70.7938 28.7201 70.7329 28.7429 70.6729L28.8174 70.4953C28.8639 70.3769 28.9239 70.2636 28.9789 70.1494C29.0964 69.9248 29.2304 69.7091 29.3797 69.5042C29.4516 69.4019 29.5336 69.3055 29.6122 69.2091C29.6909 69.1127 29.7763 69.0205 29.8659 68.936C30.0407 68.7613 30.2313 68.603 30.4351 68.4633C29.9454 69.3089 29.5979 70.1706 29.449 71.0568C29.3717 71.4924 29.3382 71.9346 29.3493 72.3768C29.3656 72.8155 29.4222 73.2517 29.5184 73.68C29.6226 74.1058 29.7676 74.5207 29.9513 74.9188C30.1393 75.321 30.3682 75.7027 30.6346 76.0579C30.9041 76.425 31.2104 76.7636 31.5487 77.0684C31.904 77.3869 32.2821 77.6789 32.6802 77.9419Z" fill="#592D3D"/>
<path d="M48.4111 77.9414C49.3132 77.6042 50.1183 77.0499 50.7552 76.3276C51.3922 75.6053 51.8414 74.7372 52.0632 73.8C52.2849 72.8629 52.2724 71.8855 52.0268 70.9543C51.7811 70.0232 51.3098 69.1668 50.6546 68.4611" fill="#633749"/>
<path d="M48.4111 77.9414C48.8082 77.6794 49.1855 77.3886 49.5401 77.0713C49.8784 76.7665 50.1847 76.4279 50.4542 76.0608C50.7206 75.7056 50.9495 75.3239 51.1374 74.9217C51.3212 74.5236 51.4662 74.1087 51.5704 73.6828C51.6666 73.2546 51.7232 72.8184 51.7395 72.3797C51.7518 71.9359 51.7192 71.4919 51.6423 71.0546C51.4935 70.1684 51.1459 69.3092 50.6563 68.4611C50.8601 68.6008 51.0506 68.7591 51.2254 68.9338C51.3167 69.0183 51.3945 69.1147 51.4791 69.2069C51.5637 69.2991 51.6398 69.3997 51.7116 69.502C51.861 69.7069 51.9949 69.9226 52.1125 70.1472C52.1674 70.2614 52.2275 70.3747 52.274 70.4931L52.3484 70.6707C52.3712 70.7307 52.3907 70.7916 52.4127 70.8517C52.5803 71.3408 52.6772 71.8513 52.7002 72.3679C52.7202 72.8877 52.6722 73.408 52.5573 73.9154C52.4336 74.4214 52.2428 74.9086 51.9898 75.364L51.7894 75.6963C51.7159 75.8028 51.6389 75.9068 51.5628 76.0109C51.5252 76.0634 51.4848 76.1139 51.4419 76.1622C51.4004 76.2113 51.3573 76.2603 51.3167 76.3085C51.2761 76.3567 51.2322 76.4058 51.1873 76.4514L51.0504 76.5867C50.3344 77.3039 49.4112 77.7778 48.4111 77.9414Z" fill="#592D3D"/>
<path d="M27.1035 48.0257C28.0824 48.0257 28.8759 47.2322 28.8759 46.2533C28.8759 45.2744 28.0824 44.4808 27.1035 44.4808C26.1246 44.4808 25.3311 45.2744 25.3311 46.2533C25.3311 47.2322 26.1246 48.0257 27.1035 48.0257Z" fill="#592D3D"/>
<path d="M27.0914 47.6837C27.2428 47.6753 27.4119 47.6617 27.5734 47.6448C27.7349 47.6279 27.8998 47.6076 28.063 47.5822C28.2262 47.5569 28.3903 47.5273 28.5543 47.4977C28.7184 47.4681 28.8858 47.4402 29.0617 47.4275C28.9236 47.5338 28.7728 47.6224 28.6127 47.6913C28.4535 47.7579 28.2902 47.8143 28.1239 47.8605C27.9573 47.909 27.7878 47.9475 27.6165 47.9755C27.4423 48.0059 27.2657 48.0212 27.0889 48.0211L27.0914 47.6837Z" fill="#592D3D"/>
<path d="M54.2236 48.0257C55.2025 48.0257 55.9961 47.2322 55.9961 46.2533C55.9961 45.2744 55.2025 44.4808 54.2236 44.4808C53.2447 44.4808 52.4512 45.2744 52.4512 46.2533C52.4512 47.2322 53.2447 48.0257 54.2236 48.0257Z" fill="#592D3D"/>
<path d="M54.2224 47.6837C54.3746 47.6753 54.5429 47.6617 54.7044 47.6448C54.8659 47.6279 55.0317 47.6076 55.1949 47.5822C55.3581 47.5569 55.5221 47.5273 55.6862 47.4977C55.8502 47.4681 56.0177 47.4402 56.1936 47.4275C56.0553 47.5336 55.9045 47.6222 55.7445 47.6913C55.5853 47.7579 55.4221 47.8143 55.2558 47.8605C55.0891 47.909 54.9197 47.9474 54.7484 47.9755C54.5741 48.0059 54.3976 48.0212 54.2207 48.0211L54.2224 47.6837Z" fill="#592D3D"/>
<path d="M45.4952 52.457C45.1883 52.457 45.0428 52.3462 44.1777 51.5446C43.5443 50.9586 43.1097 50.6685 42.5786 50.5755C41.9165 50.4596 41.24 50.5011 40.5187 51.2249C39.7974 50.5011 39.1217 50.4639 38.4587 50.5755C37.9277 50.6685 37.493 50.9586 36.8596 51.5446C35.9945 52.3462 35.8491 52.457 35.5421 52.457C35.5114 52.4571 35.4813 52.4662 35.4558 52.4833C35.4302 52.5004 35.4103 52.5247 35.3986 52.5531C35.3868 52.5815 35.3837 52.6128 35.3897 52.6429C35.3957 52.6731 35.4105 52.7008 35.4322 52.7225C36.9121 54.2024 38.6075 54.9432 40.5187 54.9449C42.4298 54.9466 44.1253 54.2058 45.6051 52.7225C45.6269 52.7008 45.6417 52.6731 45.6477 52.6429C45.6536 52.6128 45.6506 52.5815 45.6388 52.5531C45.627 52.5247 45.6071 52.5004 45.5816 52.4833C45.556 52.4662 45.526 52.4571 45.4952 52.457Z" fill="#DD3E3E"/>
<path d="M45.5815 52.744L45.535 52.5571C39.5682 53.9203 35.5421 52.6019 35.5421 52.6019L35.3925 52.5757C35.3859 52.6015 35.3861 52.6285 35.3931 52.6541C35.4 52.6797 35.4135 52.7031 35.4322 52.722C36.9121 54.2019 38.6076 54.9427 40.5187 54.9443C42.4174 54.9443 44.105 54.2109 45.5815 52.744Z" fill="#C43333"/>
<path d="M38.792 53.1287C39.9294 53.0492 41.049 53.0069 42.1652 52.875C42.7225 52.8107 43.2772 52.7278 43.8286 52.6331C44.3799 52.5384 44.9279 52.4293 45.4784 52.3118L45.5917 52.8065C45.0353 52.9384 44.4738 53.0458 43.9072 53.1287C43.3406 53.2115 42.7724 53.2696 42.2024 53.3029C41.6316 53.3341 41.0608 53.3485 40.49 53.3257C39.9197 53.3049 39.3519 53.239 38.792 53.1287Z" fill="#592D3D"/>
<path d="M35.62 52.3613C35.763 52.3977 35.9219 52.4459 36.075 52.4865C36.2281 52.5271 36.3837 52.5778 36.5392 52.6243C36.6948 52.6708 36.8504 52.7173 37.006 52.774C37.1678 52.8309 37.3227 52.9058 37.4678 52.9972C37.3016 53.0462 37.1294 53.0719 36.9561 53.0733C36.787 53.0733 36.6221 53.0598 36.4547 53.0463C36.2872 53.0328 36.1224 53.0065 35.9575 52.9744C35.7891 52.9437 35.6234 52.8999 35.4619 52.8433L35.62 52.3613Z" fill="#592D3D"/>
<path d="M45.4947 52.4568C45.1877 52.4568 45.0423 52.3461 44.1772 51.5444C43.5438 50.9584 43.1176 50.5897 42.5781 50.5753C41.6302 50.5499 40.9587 51.0928 40.4843 51.0928C40.0099 51.0928 39.6006 50.4561 38.4548 50.5753C37.9187 50.6311 37.4891 50.9584 36.8557 51.5444C35.9906 52.3461 35.8452 52.4568 35.5382 52.4568C35.5075 52.4569 35.4774 52.466 35.4519 52.4831C35.4263 52.5002 35.4064 52.5245 35.3946 52.5529C35.3829 52.5813 35.3798 52.6126 35.3858 52.6427C35.3918 52.6729 35.4066 52.7006 35.4283 52.7224C36.9082 54.2022 38.6036 54.943 40.5148 54.9447C42.4259 54.9464 44.1214 54.2056 45.6012 52.7224C45.6228 52.7008 45.6375 52.6734 45.6436 52.6436C45.6497 52.6137 45.6469 52.5827 45.6356 52.5544C45.6242 52.5262 45.6048 52.5018 45.5798 52.4845C45.5547 52.4671 45.5252 52.4575 45.4947 52.4568V52.4568Z" stroke="#592D3D" stroke-width="1.04786" stroke-miterlimit="10"/>
<path d="M42.5796 51.1069C42.2254 51.1371 41.8778 51.2209 41.5488 51.3555C41.3847 51.4207 41.2215 51.4909 41.0541 51.5602C40.8825 51.6389 40.6991 51.6886 40.5112 51.7073C40.4108 51.709 40.311 51.6906 40.2178 51.6532C40.1306 51.6196 40.0458 51.5801 39.9641 51.5348C39.8111 51.4469 39.6536 51.367 39.4922 51.2955C39.3308 51.228 39.1623 51.179 38.9899 51.1492C38.8141 51.1206 38.6362 51.1064 38.458 51.1069C38.6361 51.0714 38.8178 51.0577 38.9992 51.0663C39.1829 51.0775 39.3644 51.113 39.5387 51.172C39.71 51.2336 39.8767 51.307 40.0376 51.3919C40.1958 51.4714 40.3514 51.5467 40.5044 51.5391C40.6735 51.5217 40.8389 51.4786 40.9949 51.4114C41.164 51.3513 41.3332 51.2837 41.5023 51.2312C41.8482 51.1126 42.2157 51.0702 42.5796 51.1069Z" fill="white"/>
<path d="M38.2284 53.2945C38.5 53.2945 38.5008 52.8728 38.2284 52.8728C37.956 52.8728 37.9568 53.2945 38.2284 53.2945Z" fill="#592D3D"/>
<path d="M45.5577 31.7299C44.4694 33.7595 40.484 34.896 40.1601 34.3869C39.7965 33.8178 43.3599 29.7089 41.3355 25.4114" fill="#F3AB98"/>
<path d="M61.4213 29.057C57.7419 21.4218 49.5596 17.0491 40.7253 17.0491C29.6314 17.0491 19.2885 25.0826 17.4434 35.9692C17.4434 35.9692 34.5598 37.2647 40.7194 30.2697C41.532 30.668 53.9188 36.8326 61.4213 29.057Z" fill="#FEDC58"/>
<path d="M40.7272 17.8456C39.2523 17.946 37.7866 18.1532 36.3417 18.4655L35.2695 18.7234C34.9143 18.8189 34.5625 18.9238 34.209 19.0236L33.1613 19.3618C32.8154 19.4853 32.4738 19.6155 32.1296 19.7457C30.7612 20.2833 29.4361 20.9254 28.1661 21.6662C26.8921 22.4167 25.6702 23.2524 24.5088 24.1675C25.5473 23.0939 26.7045 22.1418 27.9581 21.3296C29.2128 20.5094 30.5486 19.8205 31.9444 19.2739C32.2971 19.147 32.648 19.0151 33.0015 18.8925C33.36 18.7834 33.7152 18.6642 34.0754 18.5627C34.4357 18.4612 34.801 18.3775 35.1654 18.2913C35.5299 18.205 35.8994 18.1424 36.2648 18.0773C37.7379 17.8249 39.2358 17.7472 40.7272 17.8456Z" fill="#592D3D"/>
<path d="M43.6911 31.8548C42.8176 33.4877 39.6186 34.3976 39.359 33.9849C39.0672 33.5283 41.928 30.2286 40.3027 26.7784" fill="#FEDC58"/>
<path d="M18.5703 36.5497C18.5703 36.5497 34.2627 37.2498 40.5449 30.4611C40.1221 32.1118 39.213 33.3439 39.3788 33.6035C39.6232 33.9866 42.5922 33.1452 43.4513 31.6289C47.304 33.2356 54.5697 35.1239 60.884 30.2683" stroke="#592D3D" stroke-width="1.57179" stroke-miterlimit="10"/>
<path d="M32.7044 38.2841H22.5027C22.0326 38.2841 21.5624 38.2774 21.0922 38.2841H21.0719C20.6297 38.2841 20.206 38.6731 20.2263 39.1298C20.23 39.3529 20.3203 39.5658 20.4781 39.7236C20.6359 39.8814 20.8488 39.9717 21.0719 39.9754H31.2736C31.7429 39.9754 32.214 39.9822 32.6841 39.9754H32.7044C33.1467 39.9754 33.5704 39.5864 33.5501 39.1298C33.5461 38.9067 33.4558 38.6939 33.2981 38.5361C33.1403 38.3784 32.9275 38.288 32.7044 38.2841Z" fill="#592D3D"/>
<path d="M59.682 38.2841H49.4803C49.0101 38.2841 48.5399 38.2774 48.0698 38.2841H48.0495C47.6072 38.2841 47.1835 38.6731 47.2038 39.1298C47.2075 39.3529 47.2978 39.5658 47.4556 39.7236C47.6134 39.8814 47.8263 39.9717 48.0495 39.9754H58.2512C58.7213 39.9754 59.1915 39.9822 59.6617 39.9754H59.682C60.1242 39.9754 60.5479 39.5864 60.5276 39.1298C60.5237 38.9067 60.4333 38.6939 60.2756 38.5361C60.1178 38.3784 59.905 38.288 59.682 38.2841Z" fill="#592D3D"/>
<path d="M39.9021 17.5097C42.3857 17.5097 44.399 15.4964 44.399 13.0129C44.399 10.5293 42.3857 8.51599 39.9021 8.51599C37.4186 8.51599 35.4053 10.5293 35.4053 13.0129C35.4053 15.4964 37.4186 17.5097 39.9021 17.5097Z" fill="#633749"/>
<path d="M39.9021 17.5098C40.5718 17.5101 41.2331 17.3608 41.8377 17.0728C42.4423 16.7848 42.9749 16.3654 43.3966 15.8452C43.8183 15.3249 44.1185 14.7171 44.2752 14.066C44.4319 13.4149 44.4412 12.7371 44.3024 12.0819C41.3872 11.6302 38.364 11.8925 35.4214 12.6502C35.4119 12.7695 35.4053 12.8898 35.4053 13.012C35.4051 13.6026 35.5214 14.1875 35.7473 14.7332C35.9732 15.2789 36.3045 15.7747 36.722 16.1924C37.1396 16.6101 37.6354 16.9414 38.181 17.1674C38.7267 17.3935 39.3115 17.5098 39.9021 17.5098Z" fill="#5E3244"/>
<path d="M39.9021 17.5097C42.3857 17.5097 44.399 15.4964 44.399 13.0129C44.399 10.5293 42.3857 8.51599 39.9021 8.51599C37.4186 8.51599 35.4053 10.5293 35.4053 13.0129C35.4053 15.4964 37.4186 17.5097 39.9021 17.5097Z" stroke="#592D3D" stroke-width="1.7604" stroke-miterlimit="10"/>
<path d="M16.1133 38.205C16.1122 36.372 16.32 34.545 16.7327 32.7591C16.8141 32.4087 16.9029 32.0614 16.9988 31.7173C17.2735 28.6581 18.893 26.135 21.0581 23.8819C21.509 23.521 21.5989 22.7103 22.0498 22.2595C23.5822 20.9079 24.9337 19.5555 26.6461 18.471C33.6755 13.9647 42.9581 11.5316 50.4384 15.6771C51.9698 16.4878 53.6822 16.9386 54.9437 18.0202C57.3778 20.0925 59.0892 22.5265 61.5233 24.5088C63.6855 26.3083 64.0464 29.1951 64.8135 31.7135C64.9102 32.057 64.9989 32.4042 65.0797 32.7553C65.4924 34.5412 65.7002 36.3682 65.6991 38.2012L16.1133 38.205Z" fill="#633749"/>
<path d="M16.7327 32.7587C16.32 34.5446 16.1122 36.3717 16.1133 38.2046H23.9743C23.8265 30.5652 21.866 24.1855 31.8106 16.4088C24.677 19.1166 18.177 25.0635 16.7327 32.7587Z" fill="#5E3244"/>
<path d="M17.8105 28.5439C17.3734 29.5521 17.0994 30.6234 16.9988 31.7177C16.9029 32.0611 16.8141 32.4084 16.7327 32.7595C16.32 34.5453 16.1122 36.3724 16.1133 38.2053H35.0602C39.0822 37.8942 43.1223 37.8942 47.1443 38.2053H65.6991C65.7002 36.3724 65.4924 34.5453 65.0797 32.7595C64.9982 32.409 64.9095 32.0618 64.8135 31.7177C64.4859 30.6408 64.2311 29.4976 63.8797 28.4028C48.547 22.7296 33.0419 22.8499 17.8105 28.5439Z" fill="#5E3244"/>
<path d="M16.1133 38.205C16.1122 36.372 16.32 34.545 16.7327 32.7591C16.8141 32.4087 16.9029 32.0614 16.9988 31.7173C17.2735 28.6581 18.893 26.135 21.0581 23.8819C21.509 23.521 21.5989 22.7103 22.0498 22.2595C23.5822 20.9079 24.9337 19.5555 26.6461 18.471C33.6755 13.9647 42.9581 11.5316 50.4384 15.6771C51.9698 16.4878 53.6822 16.9386 54.9437 18.0202C57.3778 20.0925 59.0892 22.5265 61.5233 24.5088C63.6855 26.3083 64.0464 29.1951 64.8135 31.7135C64.9102 32.057 64.9989 32.4042 65.0797 32.7553C65.4924 34.5412 65.7002 36.3682 65.6991 38.2012L16.1133 38.205Z" stroke="#592D3D" stroke-width="1.7604" stroke-miterlimit="10"/>
<path d="M14.7007 31.8881C32.0725 24.5007 49.8516 24.4003 67.3542 31.8881C69.0144 32.5984 69.005 45.1353 67.3542 44.5613C50.2617 38.6107 32.1852 38.5472 14.7007 44.5613C12.6208 45.2764 12.8235 32.6865 14.7007 31.8881Z" fill="#633749"/>
<path d="M64.5157 40.1541C64.5941 40.4607 64.637 40.7753 64.6436 41.0917C64.6521 41.4014 64.6332 41.7092 64.619 42.018L64.5849 42.4792C64.5697 42.6326 64.5546 42.7861 64.5356 42.9385C64.4977 43.2445 64.4513 43.5485 64.385 43.8487L63.6396 43.7152C63.6813 43.4149 63.7344 43.1176 63.795 42.8202L63.8897 42.3741L63.9844 41.9289C64.0545 41.6325 64.1141 41.3351 64.1947 41.0387C64.2742 40.7345 64.3817 40.4384 64.5157 40.1541Z" fill="#592D3D"/>
<path d="M64.3823 30.5657C64.53 31.1587 64.6447 31.7595 64.7261 32.3652C64.7669 32.6673 64.8 32.9704 64.8294 33.2735C64.8587 33.5765 64.8758 33.8815 64.8919 34.1855C64.9165 34.7936 64.9269 35.4016 64.8976 36.0087C64.8713 36.6175 64.7936 37.2229 64.6655 37.8186C64.5708 37.2134 64.5073 36.6158 64.4458 36.0191C64.3842 35.4224 64.3312 34.8305 64.2516 34.2404C64.2147 33.945 64.173 33.6514 64.1285 33.3577C64.084 33.0641 64.0338 32.7715 63.9845 32.4798C63.8832 31.8954 63.7667 31.3158 63.6445 30.7362L64.3823 30.5657Z" fill="#592D3D"/>
<path d="M56.6982 28.6268C57.4143 32.6871 57.3338 37.1025 56.6982 41.7661" stroke="#592D3D" stroke-width="1.1736" stroke-miterlimit="10"/>
<path d="M50.0127 27.2639C50.5005 31.327 50.4455 35.7453 50.0127 40.4126" stroke="#592D3D" stroke-width="1.1736" stroke-miterlimit="10"/>
<path d="M43.9199 31.8917C44.034 32.5395 44.109 33.1936 44.1444 33.8503C44.1823 34.5038 44.1936 35.1573 44.2059 35.8118V36.793C44.2059 37.1198 44.2059 37.4465 44.1946 37.7733C44.1804 38.4268 44.1567 39.0803 44.1122 39.7328L43.3545 39.6949C43.3753 39.0443 43.4085 38.3946 43.4435 37.7448L43.5581 35.7966C43.6017 35.1469 43.6358 34.4963 43.686 33.8456C43.7362 33.1949 43.81 32.5443 43.9199 31.8917Z" fill="#592D3D"/>
<path d="M44.1163 26.5322C44.136 26.7321 44.1449 26.9328 44.1428 27.1336C44.1428 27.234 44.1381 27.3344 44.1352 27.4348L44.1229 27.7369C44.1068 27.9377 44.0926 28.1395 44.0585 28.3412C44.0238 28.5523 43.9574 28.757 43.8615 28.9483C43.7481 28.7658 43.6619 28.5676 43.6058 28.3601C43.5518 28.1631 43.5177 27.9661 43.4817 27.7682L43.4353 27.4727C43.423 27.3733 43.4088 27.2748 43.3984 27.1763C43.376 26.9785 43.3649 26.7796 43.3652 26.5805L44.1163 26.5322Z" fill="#592D3D"/>
<path d="M37.6592 26.5101C37.6923 30.5827 37.6885 35.0028 37.6592 39.6749" stroke="#592D3D" stroke-width="1.1736" stroke-miterlimit="10"/>
<path d="M31.5621 27.1284C31.367 31.201 31.3888 35.6268 31.5621 40.3036" stroke="#592D3D" stroke-width="1.1736" stroke-miterlimit="10"/>
<path d="M24.9323 35.2236C25.0457 35.7485 25.1314 36.279 25.1889 36.8129C25.2486 37.3423 25.2922 37.8708 25.3452 38.3993L25.4882 39.9838C25.5327 40.5113 25.5763 41.0398 25.6066 41.5693L24.8489 41.6299C24.794 41.0985 24.7608 40.5653 24.7372 40.0321C24.7249 39.765 24.7182 39.4979 24.7106 39.2308L24.7012 38.4296C24.7012 37.8954 24.7059 37.3603 24.7343 36.8261C24.7614 36.2879 24.8276 35.7523 24.9323 35.2236Z" fill="#592D3D"/>
<path d="M25.6047 28.4546C25.581 28.8003 25.5441 29.1441 25.5053 29.4879L25.4428 30.0041L25.3746 30.5202C25.3234 30.865 25.2846 31.2097 25.223 31.5554C25.1637 31.907 25.075 32.2529 24.9578 32.5897C24.859 32.2453 24.7956 31.8918 24.7684 31.5346C24.74 31.1823 24.7381 30.8318 24.7324 30.4795V29.9529C24.7381 29.7767 24.7428 29.6015 24.7514 29.4263C24.7703 29.0749 24.7978 28.7245 24.8461 28.376L25.6047 28.4546Z" fill="#592D3D"/>
<path d="M18.4428 30.3739C17.7931 34.4465 17.866 38.8837 18.4428 43.5671" stroke="#592D3D" stroke-width="1.1736" stroke-miterlimit="10"/>
<path d="M64.68 39.2866C64.75 39.2866 64.8184 39.2659 64.8766 39.227C64.9348 39.1881 64.9801 39.1329 65.0069 39.0682C65.0337 39.0036 65.0407 38.9324 65.027 38.8638C65.0134 38.7951 64.9797 38.7321 64.9302 38.6826C64.8807 38.6331 64.8177 38.5994 64.749 38.5858C64.6804 38.5721 64.6093 38.5791 64.5446 38.6059C64.4799 38.6327 64.4247 38.678 64.3858 38.7362C64.3469 38.7944 64.3262 38.8628 64.3262 38.9328C64.3274 39.0263 64.3651 39.1156 64.4312 39.1816C64.4972 39.2477 64.5865 39.2854 64.68 39.2866Z" fill="#592D3D"/>
<path d="M65.1758 30.463C66.1229 34.5204 66.014 38.933 65.1758 43.5937" stroke="#5E3244" stroke-width="1.1736" stroke-miterlimit="10"/>
<path d="M57.8564 28.4373C58.5725 32.4975 58.492 36.9129 57.8564 41.5774" stroke="#5E3244" stroke-width="1.1736" stroke-miterlimit="10"/>
<path d="M51.166 27.0591C51.6538 31.1222 51.5988 35.5404 51.166 40.2078" stroke="#5E3244" stroke-width="1.1736" stroke-miterlimit="10"/>
<path d="M44.8857 26.3369C45.1452 30.4019 45.1168 34.8239 44.8857 39.4941" stroke="#5E3244" stroke-width="1.1736" stroke-miterlimit="10"/>
<path d="M38.7998 26.274C38.832 30.3419 38.8292 34.7668 38.7998 39.4388" stroke="#5E3244" stroke-width="1.1736" stroke-miterlimit="10"/>
<path d="M32.6939 26.8777C32.4988 30.9502 32.5206 35.3761 32.6939 40.0529" stroke="#5E3244" stroke-width="1.1736" stroke-miterlimit="10"/>
<path d="M26.3554 28.1531C25.933 32.2256 25.9765 36.6572 26.3554 41.3378" stroke="#5E3244" stroke-width="1.1736" stroke-miterlimit="10"/>
<path d="M19.5678 30.1077C18.9181 34.1802 18.991 38.6174 19.5678 43.3009" stroke="#5E3244" stroke-width="1.1736" stroke-miterlimit="10"/>
<path d="M14.7007 31.8881C32.0725 24.5007 49.8516 24.4003 67.3542 31.8881C69.0144 32.5984 69.005 45.1353 67.3542 44.5613C50.2617 38.6107 32.1852 38.5472 14.7007 44.5613C12.6208 45.2764 12.8235 32.6865 14.7007 31.8881Z" stroke="#592D3D" stroke-width="1.7604" stroke-miterlimit="10"/>
<path d="M33.7764 25.0011C34.9835 24.7483 36.2046 24.5674 37.4331 24.4594C37.741 24.4329 38.0478 24.4063 38.3556 24.3855L39.2791 24.3325C39.5878 24.3192 39.8956 24.3135 40.2044 24.3041L41.1297 24.2917C42.3609 24.2917 43.5969 24.3514 44.8234 24.466C46.052 24.5756 47.2728 24.759 48.4793 25.0153C47.248 24.9879 46.0168 24.9405 44.7969 24.9083C43.577 24.8761 42.3496 24.8619 41.1269 24.8591H40.2101C39.9042 24.8591 39.5982 24.8704 39.2923 24.8695L38.3755 24.8827C38.0696 24.8932 37.7637 24.8979 37.4568 24.9017C36.2351 24.9329 35.0095 24.9765 33.7764 25.0011Z" fill="#592D3D"/>
<path d="M26.251 20.2763C26.9208 19.7407 27.6292 19.2554 28.3706 18.8244C29.1075 18.3868 29.868 17.9871 30.6437 17.6253C30.8331 17.5306 31.0348 17.4492 31.2309 17.362C31.4269 17.2749 31.622 17.1859 31.8219 17.1092C32.2215 16.9529 32.6174 16.789 33.0247 16.6545C33.8318 16.3665 34.6561 16.1293 35.4929 15.9442C35.2968 16.0304 35.0989 16.1128 34.9009 16.1933C34.703 16.2738 34.5041 16.3486 34.309 16.4358C33.9159 16.6006 33.5219 16.7597 33.1317 16.9302L32.8391 17.0561C32.7443 17.0968 32.6421 17.1366 32.5455 17.1811L31.963 17.4397C31.7679 17.523 31.5756 17.613 31.3815 17.7002C31.1873 17.7873 30.9941 17.8744 30.8037 17.9682L30.226 18.2362C30.0366 18.3309 29.8471 18.4256 29.653 18.5203C29.2741 18.7041 28.8953 18.8992 28.5117 19.0886C27.755 19.4693 27.0011 19.8643 26.251 20.2763Z" fill="white"/>
<path opacity="0.2" d="M26.9209 52.4075C31.2787 52.4075 34.8115 48.8748 34.8115 44.5169C34.8115 40.1591 31.2787 36.6263 26.9209 36.6263C22.563 36.6263 19.0303 40.1591 19.0303 44.5169C19.0303 48.8748 22.563 52.4075 26.9209 52.4075Z" fill="white"/>
<path opacity="0.15" d="M61.2181 49.4441C60.1933 50.9447 58.7259 52.0882 57.0204 52.7154C55.3149 53.3425 53.4563 53.422 51.7034 52.9428C49.9506 52.4636 48.3909 51.4495 47.2417 50.0419C46.0926 48.6342 45.4111 46.9032 45.2923 45.0899C42.1635 43.8553 38.9983 43.8663 35.6361 45.1229C35.4801 47.3277 34.4951 49.3917 32.8792 50.8998C31.2633 52.4079 29.1364 53.2483 26.9261 53.252C24.1794 53.252 20.4993 50.1654 20.9221 50.8512C22.106 52.6008 24.8965 53.9335 27.0563 53.9335C31.6692 53.9335 35.3325 50.611 35.6445 46.0759C39.0068 44.8202 42.1753 44.8075 45.3008 46.0429C45.5968 50.5941 49.3928 53.9521 54.0167 53.9521C57.7958 53.9521 59.9437 51.066 61.2181 49.4441Z" fill="black"/>
<path opacity="0.4" d="M25.3226 52.9903L35.7298 42.5822C35.5011 42.0665 35.2176 41.5769 34.8841 41.1218L23.8613 52.1455C24.3167 52.4786 24.8066 52.7619 25.3226 52.9903Z" fill="white"/>
<path d="M26.9209 52.4075C31.2787 52.4075 34.8115 48.8748 34.8115 44.5169C34.8115 40.1591 31.2787 36.6263 26.9209 36.6263C22.563 36.6263 19.0303 40.1591 19.0303 44.5169C19.0303 48.8748 22.563 52.4075 26.9209 52.4075Z" stroke="#592D3D" stroke-width="2.61964" stroke-miterlimit="10"/>
<path d="M54.0068 52.4075C58.3647 52.4075 61.8974 48.8748 61.8974 44.5169C61.8974 40.1591 58.3647 36.6263 54.0068 36.6263C49.6489 36.6263 46.1162 40.1591 46.1162 44.5169C46.1162 48.8748 49.6489 52.4075 54.0068 52.4075Z" stroke="#592D3D" stroke-width="2.61964" stroke-miterlimit="10"/>
<path d="M34.8584 44.5169C38.6807 42.9685 42.4361 42.9102 46.1171 44.5169" stroke="#592D3D" stroke-width="2.61964" stroke-miterlimit="10"/>
<path d="M24.8733 39.7777C25.0475 40.3273 24.371 40.7501 23.8636 40.8347C23.3562 40.8347 23.018 40.4965 22.8489 40.0736C22.7643 39.6508 22.8489 39.228 23.1871 38.9743C23.6099 38.8052 24.2019 38.6361 24.5782 39.0699C24.6721 39.1622 24.7467 39.2723 24.7974 39.3939C24.8481 39.5155 24.8739 39.646 24.8733 39.7777Z" fill="white"/>
<path d="M25.7739 39.4521C25.7225 39.8169 25.2171 39.8169 25.1328 39.4799C25.1328 39.2272 25.2171 39.1429 25.4572 39.1345C25.4988 39.1345 25.5401 39.1427 25.5786 39.1587C25.6171 39.1747 25.652 39.1981 25.6814 39.2276C25.7109 39.2571 25.7342 39.2921 25.75 39.3306C25.7659 39.3692 25.774 39.4105 25.7739 39.4521Z" fill="white"/>
<path opacity="0.2" d="M54.0068 52.4075C58.3647 52.4075 61.8974 48.8748 61.8974 44.5169C61.8974 40.1591 58.3647 36.6263 54.0068 36.6263C49.6489 36.6263 46.1162 40.1591 46.1162 44.5169C46.1162 48.8748 49.6489 52.4075 54.0068 52.4075Z" fill="white"/>
<path opacity="0.4" d="M52.8203 52.3185L61.8077 43.3303C61.759 43.0102 61.6909 42.6933 61.6039 42.3815L51.874 52.1147C52.185 52.2017 52.501 52.2698 52.8203 52.3185Z" fill="white"/>
<path d="M54.0068 52.4075C58.3647 52.4075 61.8974 48.8748 61.8974 44.5169C61.8974 40.1591 58.3647 36.6263 54.0068 36.6263C49.6489 36.6263 46.1162 40.1591 46.1162 44.5169C46.1162 48.8748 49.6489 52.4075 54.0068 52.4075Z" stroke="#592D3D" stroke-width="2.61964" stroke-miterlimit="10"/>
<path d="M51.9612 39.7777C52.1354 40.3273 51.4589 40.7501 50.9515 40.8347C50.4441 40.8347 50.1059 40.4965 49.9368 40.0736C49.8522 39.6508 49.9368 39.228 50.275 38.9743C50.6978 38.8052 51.2898 38.6361 51.6661 39.0699C51.7599 39.1623 51.8343 39.2725 51.885 39.394C51.9357 39.5156 51.9616 39.646 51.9612 39.7777Z" fill="white"/>
<path d="M52.8618 39.4521C52.8104 39.8169 52.3049 39.8169 52.2207 39.4799C52.2207 39.2272 52.3049 39.1429 52.5442 39.1345C52.6284 39.1345 52.7092 39.168 52.7688 39.2275C52.8283 39.2871 52.8618 39.3679 52.8618 39.4521Z" fill="white"/>
</g>
<defs>
<clipPath id="clip0">
<rect x="0.892578" y="0.301025" width="80" height="80" rx="40" fill="white"/>
</clipPath>
</defs>
</svg>
