<svg width="80" height="80" viewBox="0 0 80 80" fill="none" xmlns="http://www.w3.org/2000/svg">
<g clip-path="url(#clip0)">
<path d="M50.3916 55.9436C58.6315 55.9436 56.9283 66.3152 57.0073 77.8489H50.3916V55.9436Z" fill="#FDD2B2"/>
<path d="M52.4561 62.5845L50.3916 66.0462L51.4248 77.8487H54.3082C54.3781 61.4823 52.4561 62.5845 52.4561 62.5845Z" fill="#F3AB98"/>
<path d="M16.1885 32.4553C16.1885 19.0805 27.0313 8.23767 40.4061 8.23767C53.781 8.23767 64.6238 19.0805 64.6238 32.4553C64.6272 36.0591 63.8248 39.618 62.2751 42.8715C60.7255 46.1251 58.4679 48.9909 55.6676 51.2593C55.1707 51.6636 54.658 52.0476 54.1296 52.4114C48.6678 55.8786 41.768 55.8786 35.539 55.3239C34.9344 55.2331 34.3315 55.1187 33.7332 54.987C31.3428 54.4605 29.0286 53.6479 26.8906 52.4631C26.3622 52.1375 25.8498 51.7859 25.3535 51.4082C24.8547 51.0284 24.3759 50.6229 23.9191 50.1935C23.4869 49.7922 23.0696 49.3751 22.6671 48.9424C18.4961 44.4664 16.1804 38.5735 16.1885 32.4553Z" fill="#FDD2B2"/>
<path d="M19.4883 44.664C19.5518 44.773 19.6145 44.8819 19.6798 44.989C19.7189 45.0544 19.7597 45.118 19.8006 45.1833C19.8605 45.2805 19.9204 45.3776 19.9821 45.4729C20.0257 45.5419 20.0729 45.6091 20.1147 45.6763C20.1746 45.7671 20.2345 45.8579 20.2963 45.9487C20.3426 46.0177 20.3871 46.0867 20.4379 46.1557C20.4978 46.2465 20.5577 46.33 20.6195 46.4171C20.6685 46.487 20.7193 46.556 20.7693 46.626C20.8192 46.6959 20.8909 46.7939 20.9508 46.8774C21.0108 46.961 21.0553 47.0163 21.1079 47.0853C21.1606 47.1543 21.2323 47.2488 21.2958 47.3305C21.3594 47.4122 21.4039 47.4676 21.4584 47.5356C21.5128 47.6037 21.5864 47.6954 21.6508 47.7744C21.7153 47.8534 21.7625 47.9097 21.8188 47.9769C21.8751 48.0441 21.9495 48.133 22.0158 48.2102C22.0821 48.2874 22.1311 48.3437 22.1892 48.4099L22.3907 48.6369C22.4498 48.7032 22.5097 48.7676 22.5723 48.833C22.6504 48.9183 22.7294 49.0028 22.8084 49.0863L22.9182 49.2025C23.0353 49.3242 23.1534 49.4458 23.2732 49.5657L23.2968 49.5902C23.4139 49.7064 23.5329 49.8217 23.6518 49.9361L23.7952 50.0723C23.8815 50.1531 23.9677 50.2339 24.0549 50.3138L24.1602 50.41C24.251 50.4953 24.3499 50.5788 24.4453 50.6624C24.7418 50.9208 25.0445 51.1687 25.3531 51.4059C25.8488 51.7836 26.3612 52.1353 26.8902 52.4609C29.0282 53.6411 31.3388 54.4582 33.7329 54.9848C34.3312 55.1164 34.934 55.2299 35.5386 55.3216C39.3608 55.6621 43.4372 55.7919 47.2757 55.042C41.172 53.2453 11.8603 42.6903 30.3093 10.437C30.0623 10.5505 29.819 10.6676 29.5775 10.7893L29.5239 10.8156C29.4132 10.871 29.3024 10.9282 29.1926 10.9863L29.1018 11.0344C28.7604 11.216 28.4227 11.4039 28.0913 11.6L28.0096 11.6481C27.9043 11.7108 27.7999 11.7743 27.6955 11.8388L27.6165 11.8878C27.2921 12.0906 26.9728 12.3003 26.6587 12.517L26.5606 12.5851C26.4617 12.6541 26.3645 12.723 26.2674 12.793L26.2075 12.8356C26.0095 12.9803 25.814 13.1268 25.621 13.275L25.5647 13.3186C25.4739 13.3894 25.3831 13.4621 25.2923 13.5356L25.1861 13.6209C25.0953 13.6945 25.0045 13.768 24.9137 13.8434C24.7222 14.0022 24.5333 14.1657 24.3472 14.3309L24.2437 14.4217L23.9995 14.6441L23.8815 14.7512C23.6224 14.9933 23.3691 15.2406 23.1216 15.493L22.9963 15.621C22.9246 15.6954 22.8529 15.7699 22.782 15.8452C22.7403 15.8897 22.6985 15.936 22.6577 15.9796C22.533 16.1128 22.4101 16.2477 22.2891 16.3845C22.2482 16.4308 22.2064 16.4753 22.1656 16.5243C22.1011 16.5979 22.0376 16.6723 21.974 16.7468L21.8369 16.9093C21.7752 16.9828 21.7135 17.0564 21.6554 17.1308C21.6063 17.1907 21.5573 17.2515 21.5092 17.3124C21.412 17.4331 21.3167 17.5539 21.2223 17.6755C21.1733 17.7391 21.1243 17.8026 21.0761 17.8671C21.028 17.9315 20.9672 18.0114 20.9136 18.085C20.8601 18.1585 20.8165 18.2166 20.7693 18.2829C20.7221 18.3492 20.6667 18.4236 20.6167 18.4944C20.5308 18.6155 20.4461 18.738 20.3625 18.8621C20.3171 18.9284 20.2718 18.9965 20.2273 19.0637C20.1828 19.1309 20.1274 19.2144 20.0784 19.2906L19.9431 19.5004L19.7906 19.7464C19.7515 19.809 19.7125 19.8717 19.6744 19.9343C19.5936 20.0669 19.5155 20.2003 19.4374 20.3338L19.3267 20.5299C19.2776 20.6161 19.2286 20.7033 19.1805 20.7905C19.1442 20.8567 19.1079 20.923 19.0724 20.9893C19.0143 21.0973 18.9571 21.2063 18.9 21.3152L18.791 21.5277C18.7329 21.6439 18.6748 21.7592 18.6176 21.8763C18.5876 21.9389 18.5568 22.0025 18.5268 22.066C18.4796 22.165 18.436 22.2648 18.3879 22.3647C18.3598 22.4246 18.3325 22.4846 18.3053 22.5463C18.2381 22.6958 18.1724 22.8471 18.1083 23.0002C18.0883 23.0474 18.0692 23.0956 18.0493 23.1428C18.0012 23.2581 17.9539 23.3734 17.9076 23.4896C17.8831 23.5504 17.8595 23.6112 17.8359 23.6712C17.7905 23.7855 17.7451 23.9008 17.7043 24.0161C17.6852 24.0661 17.6661 24.116 17.648 24.1659C17.5911 24.3251 17.5351 24.4843 17.48 24.6435L17.4292 24.7978C17.3892 24.9189 17.3502 25.0399 17.3121 25.161L17.2576 25.3344C17.2149 25.4742 17.1732 25.614 17.1332 25.7547C17.1241 25.7847 17.1151 25.8147 17.1069 25.8455C17.0597 26.0126 17.0143 26.1802 16.9707 26.3485C16.9562 26.4021 16.9435 26.4565 16.9299 26.5101C16.8981 26.6363 16.8672 26.7625 16.8391 26.8896L16.8009 27.0485C16.7619 27.221 16.7238 27.3935 16.6884 27.5669L16.6747 27.6368C16.6439 27.7911 16.6136 27.9454 16.584 28.0998C16.574 28.1552 16.5649 28.2096 16.5549 28.265C16.5313 28.4003 16.5086 28.5374 16.4877 28.6736C16.4805 28.7199 16.4723 28.7644 16.4659 28.8116C16.4387 28.9886 16.4142 29.1665 16.3906 29.3454L16.377 29.4634C16.3588 29.6078 16.3425 29.753 16.327 29.8983C16.3216 29.9528 16.3152 30.0072 16.3098 30.0626C16.2952 30.2151 16.2816 30.3686 16.2689 30.522C16.2689 30.5538 16.2635 30.5846 16.2617 30.6128C16.2483 30.7944 16.2365 30.9775 16.2262 31.1621C16.2262 31.2102 16.2262 31.2592 16.2199 31.3073C16.2138 31.4502 16.2084 31.5927 16.2036 31.7349C16.2036 31.7885 16.2036 31.8421 16.2036 31.8956C16.2036 32.0817 16.1963 32.2688 16.1963 32.4558C16.1963 32.4558 16.1963 32.4621 16.1963 32.4649C16.1963 32.6664 16.1963 32.8661 16.2036 33.0659C16.2036 33.1349 16.209 33.2039 16.2108 33.2729C16.2154 33.4063 16.2199 33.5398 16.2262 33.6732C16.2262 33.754 16.2362 33.8339 16.2408 33.9147C16.248 34.0355 16.2544 34.1562 16.2635 34.2779C16.2698 34.3687 16.278 34.4495 16.2853 34.5348C16.2952 34.6492 16.3043 34.7636 16.3161 34.8771C16.3243 34.9679 16.3352 35.0532 16.3443 35.1413C16.357 35.2511 16.3688 35.3619 16.3824 35.4718C16.3933 35.5625 16.406 35.6533 16.4178 35.7396C16.4323 35.8467 16.4469 35.9547 16.4632 36.0619C16.4768 36.1527 16.4913 36.2435 16.5059 36.3342C16.5222 36.4396 16.5395 36.5458 16.5576 36.6511C16.574 36.7419 16.5903 36.8327 16.6076 36.9235C16.6266 37.0279 16.6466 37.1323 16.6666 37.2358C16.6865 37.3393 16.7038 37.4173 16.7229 37.5081C16.7446 37.6116 16.7664 37.7142 16.79 37.8168C16.8136 37.9194 16.83 37.9984 16.8518 38.0828C16.8754 38.1854 16.9008 38.2871 16.9262 38.3879C16.9516 38.4886 16.9707 38.5649 16.9934 38.6521C17.0206 38.7537 17.0479 38.8545 17.076 38.9553C17.0996 39.0461 17.1241 39.1296 17.1496 39.2158C17.1786 39.3166 17.2086 39.4165 17.2403 39.5164C17.2721 39.6162 17.293 39.6879 17.3202 39.7742C17.3475 39.8604 17.3838 39.973 17.4165 40.072C17.4492 40.1709 17.4728 40.2418 17.5018 40.3262C17.5363 40.4251 17.5708 40.5241 17.6062 40.6231C17.6362 40.7057 17.6652 40.7892 17.697 40.8718L17.8096 41.1687C17.8414 41.2495 17.8722 41.3312 17.9004 41.412C17.9403 41.511 17.9812 41.6108 18.022 41.7098C18.0547 41.7879 18.0865 41.8669 18.1201 41.9449C18.1628 42.0466 18.2109 42.1465 18.2517 42.2473C18.2853 42.3217 18.318 42.3971 18.3516 42.4715C18.3988 42.5768 18.4487 42.6803 18.4969 42.7838L18.5949 42.9926C18.6503 43.107 18.7075 43.2196 18.7647 43.3331C18.7937 43.3903 18.821 43.4484 18.8509 43.5056C19.0252 43.8451 19.2068 44.1801 19.3957 44.5106C19.422 44.5533 19.4556 44.6086 19.4883 44.664Z" fill="#F3AB98"/>
<path d="M16.1885 32.4553C16.1885 19.0805 27.0313 8.23767 40.4061 8.23767C53.781 8.23767 64.6238 19.0805 64.6238 32.4553C64.6272 36.0591 63.8248 39.618 62.2751 42.8715C60.7255 46.1251 58.4679 48.9909 55.6676 51.2593C55.1707 51.6636 54.658 52.0476 54.1296 52.4114C48.6678 55.8786 41.768 55.8786 35.539 55.3239C34.9344 55.2331 34.3315 55.1187 33.7332 54.987C31.3428 54.4605 29.0286 53.6479 26.8906 52.4631C26.3622 52.1375 25.8498 51.7859 25.3535 51.4082C24.8547 51.0284 24.3759 50.6229 23.9191 50.1935C23.4869 49.7922 23.0696 49.3751 22.6671 48.9424C18.4961 44.4664 16.1804 38.5735 16.1885 32.4553V32.4553Z" stroke="#592D3D" stroke-width="1.57179" stroke-miterlimit="10"/>
<path d="M30.0658 55.9436C21.825 55.9436 23.5291 66.3152 23.4501 77.8489H30.0658V55.9436Z" fill="#FDD2B2"/>
<path d="M28.3506 62.5845L30.4178 66.0462L29.3837 77.8487H26.503C26.4295 61.4823 28.3506 62.5845 28.3506 62.5845Z" fill="#F3AB98"/>
<path d="M51.2521 84.204H29.5592C29.2396 84.2038 28.9332 84.0767 28.7073 83.8506C28.4814 83.6245 28.3545 83.318 28.3545 82.9984V57.1493C28.3545 56.8297 28.4814 56.5231 28.7073 56.2971C28.9332 56.071 29.2396 55.9438 29.5592 55.9436H50.7337C51.9221 55.9436 52.4587 56.639 52.4587 57.7485V82.9947C52.4591 83.1535 52.4283 83.3107 52.3678 83.4575C52.3074 83.6042 52.2186 83.7376 52.1065 83.8499C51.9944 83.9623 51.8612 84.0514 51.7146 84.1122C51.568 84.1729 51.4108 84.2042 51.2521 84.204Z" fill="#FDD2B2"/>
<path d="M52.1218 56.6609C52.0313 56.5497 51.9548 56.4277 51.894 56.2978C51.676 56.127 51.4166 56.017 51.1422 55.9791C51.0071 55.9582 50.8705 55.9479 50.7337 55.9483H29.5592C29.2404 55.9485 28.9347 56.075 28.7089 56.3001C28.4831 56.5252 28.3557 56.8306 28.3545 57.1494C30.9873 58.0954 35.9162 58.6238 40.4057 58.6238C46.1307 58.6238 49.8821 57.7749 52.1218 56.6609Z" fill="#F3AB98"/>
<path d="M50.3916 55.9436C58.6315 55.9436 56.9283 66.3152 57.0073 77.8489H52.4561" stroke="#592D3D" stroke-width="1.57179" stroke-miterlimit="10" stroke-linecap="square"/>
<path d="M30.0658 55.9436C21.825 55.9436 23.5291 66.3152 23.4501 77.8489H27.9958" stroke="#592D3D" stroke-width="1.57179" stroke-miterlimit="10" stroke-linecap="square"/>
<path d="M29.5576 55.9527L50.7321 55.9436" stroke="#592D3D" stroke-width="1.57179" stroke-miterlimit="10"/>
<path d="M29.5593 84.2044H40.1469C30.2374 84.2044 30.9855 63.2161 28.3545 63.2161V82.9951C28.354 83.1537 28.3848 83.3108 28.4451 83.4574C28.5055 83.604 28.5941 83.7373 28.706 83.8497C28.8179 83.962 28.9509 84.0511 29.0973 84.112C29.2437 84.1729 29.4007 84.2043 29.5593 84.2044Z" fill="#F3AB98"/>
<path d="M27.8089 65.2153C27.7916 64.8822 27.7989 64.549 27.8134 64.2167C27.8279 63.8844 27.8561 63.5494 27.8915 63.218C27.9096 63.051 27.9278 62.8848 27.9505 62.7178C27.9732 62.5507 27.995 62.3846 28.0277 62.2175C28.0921 61.8718 28.2016 61.536 28.3536 61.2189C28.5056 61.536 28.6151 61.8718 28.6795 62.2175C28.7122 62.3846 28.7358 62.5507 28.7567 62.7178C28.7776 62.8848 28.7976 63.051 28.8157 63.218C28.8502 63.5512 28.8774 63.8844 28.8929 64.2167C28.9083 64.549 28.9156 64.8831 28.8983 65.2153H27.8089Z" fill="#592D3D"/>
<path d="M52.4573 66.0458V66.7721C52.4809 69.8589 52.4809 73.0365 52.4573 76.1005C52.4573 76.3611 52.4573 76.6199 52.4573 76.875V82.995C52.4576 83.1535 52.4267 83.3105 52.3664 83.457C52.306 83.6035 52.2173 83.7367 52.1054 83.8489C51.9935 83.9612 51.8606 84.0503 51.7142 84.1111C51.5679 84.1719 51.411 84.2032 51.2525 84.2034H29.5597C29.2401 84.2031 28.9336 84.076 28.7077 83.8499C28.4818 83.6238 28.3549 83.3173 28.3549 82.9977V77.7139C28.3549 77.486 28.3549 77.2536 28.3549 77.0193C28.3322 73.8536 28.3322 70.676 28.3549 67.4594V65.2151" stroke="#592D3D" stroke-width="1.57179" stroke-miterlimit="10"/>
<path d="M51.9121 66.0466C51.8948 65.668 51.903 65.2885 51.9175 64.909C51.932 64.5296 51.9602 64.151 51.9947 63.7715C52.0128 63.5817 52.0319 63.392 52.0537 63.2022C52.0755 63.0125 52.0982 62.8237 52.1309 62.6339C52.1941 62.2432 52.3035 61.8613 52.4568 61.4963C52.6101 61.8613 52.7195 62.2432 52.7827 62.6339C52.8154 62.8237 52.839 63.0134 52.8599 63.2022C52.8808 63.3911 52.9007 63.5817 52.9189 63.7715C52.9534 64.151 52.9815 64.5296 52.9961 64.909C53.0106 65.2885 53.0188 65.668 53.0015 66.0466H51.9121Z" fill="#592D3D"/>
<path d="M46.8213 63.5454C46.8413 62.6875 47.9307 62.3243 48.4755 62.8691C48.564 62.9594 48.6338 63.0664 48.681 63.1837C48.7282 63.3011 48.7519 63.4266 48.7505 63.5531C48.7492 63.6796 48.723 63.8046 48.6734 63.921C48.6238 64.0374 48.5517 64.1428 48.4614 64.2313C48.371 64.3199 48.2641 64.3897 48.1467 64.4369C48.0293 64.4841 47.9038 64.5077 47.7773 64.5064C47.6508 64.5051 47.5258 64.4789 47.4095 64.4293C47.2931 64.3797 47.1876 64.3076 47.0991 64.2173C47.0107 64.1292 46.9406 64.0245 46.8929 63.9092C46.8453 63.7938 46.8209 63.6702 46.8213 63.5454Z" fill="#592D3D"/>
<path d="M32.0619 63.5182C32.0428 62.7782 32.8599 62.4151 33.4046 62.6874C34.1309 62.9598 34.1309 63.9585 33.4046 64.4124C33.0415 64.594 32.6783 64.4124 32.3378 64.1873C32.2501 64.0994 32.1805 63.9951 32.1331 63.8802C32.0858 63.7654 32.0615 63.6424 32.0619 63.5182Z" fill="#592D3D"/>
<path d="M40.4058 62.5751C40.4707 62.7462 40.5164 62.924 40.542 63.1053C40.569 63.2808 40.5838 63.4579 40.5864 63.6355L40.6137 64.6968C40.6219 65.0499 40.6327 65.404 40.6364 65.7581L40.6518 66.8176C40.6727 68.2312 40.6718 69.6465 40.6772 71.061C40.6827 72.4755 40.6936 73.89 40.6772 75.3044C40.6691 76.0117 40.65 76.7189 40.6291 77.4261C40.62 77.7793 40.6028 78.1334 40.5683 78.4865C40.5374 78.8434 40.4837 79.1979 40.4076 79.5479C40.3315 79.1979 40.2778 78.8434 40.2469 78.4865C40.2124 78.1334 40.1951 77.7793 40.1861 77.4261C40.1652 76.7189 40.1461 76.0117 40.138 75.3044C40.1198 73.89 40.138 72.4755 40.138 71.061C40.138 69.6465 40.138 68.233 40.1543 66.8185L40.1697 65.7563L40.1997 64.6959L40.2296 63.6355C40.233 63.4579 40.2482 63.2808 40.275 63.1053C40.2988 62.9242 40.3427 62.7464 40.4058 62.5751Z" fill="#F3AB98"/>
<path d="M33.6162 67.2269C33.7509 67.1629 33.8934 67.1171 34.0402 67.0907C34.1804 67.0644 34.3225 67.0492 34.4651 67.0453L35.3139 67.0154L37.0117 66.9782C38.1429 66.9609 39.2732 66.9564 40.4053 66.9536C41.5374 66.9509 42.6687 66.9391 43.7999 66.9536C44.3655 66.9618 44.9311 66.9809 45.4976 67.0018C45.78 67.0117 46.0632 67.029 46.3456 67.0626C46.6323 67.0944 46.9161 67.1484 47.1944 67.2242C46.9163 67.3005 46.6324 67.3542 46.3456 67.3849C46.0632 67.4194 45.78 67.4366 45.4976 67.4457C44.9311 67.4666 44.3655 67.4847 43.7999 67.4929C42.6687 67.5102 41.5374 67.4929 40.4053 67.4929C39.2732 67.4929 38.142 67.4929 37.0099 67.4793C36.4443 67.4739 35.8786 67.4557 35.3139 67.4339L34.4651 67.403C34.3228 67.3992 34.181 67.384 34.0411 67.3576C33.8943 67.3331 33.7514 67.2892 33.6162 67.2269Z" fill="#F3AB98"/>
<path d="M35.1768 70.0745C35.284 70.0234 35.3985 69.9894 35.5163 69.9738C35.6251 69.9584 35.7352 69.9538 35.845 69.9602C36.0619 69.9692 36.2789 69.9747 36.4959 69.9792C36.9299 69.9892 37.3638 69.9928 37.7978 69.9947C38.6721 69.9947 39.5309 70.0019 40.4089 69.9756C41.2868 69.9493 42.1574 69.9366 43.0308 69.9402C43.4675 69.9402 43.9042 69.952 44.34 69.962C44.5594 69.9649 44.7784 69.9792 44.9964 70.0046C45.2204 70.0294 45.4414 70.0759 45.6564 70.1435C45.4465 70.226 45.2286 70.2868 45.0064 70.3251C44.7899 70.3641 44.5713 70.3902 44.3518 70.4032C43.9142 70.435 43.4766 70.4622 43.0399 70.4776C42.1647 70.5103 41.2904 70.5067 40.4179 70.5185C39.9813 70.5185 39.5455 70.5385 39.1033 70.5276C38.6612 70.5167 38.2236 70.5158 37.7851 70.4994C37.3466 70.4831 36.9063 70.4468 36.4687 70.4014C36.249 70.3769 36.0311 70.3496 35.8123 70.3197C35.7018 70.3061 35.5931 70.2806 35.4882 70.2434C35.3755 70.2053 35.2702 70.1481 35.1768 70.0745Z" fill="#F3AB98"/>
<path d="M34.8594 73.2971C34.9671 73.2337 35.0841 73.1877 35.2062 73.1609C35.32 73.1344 35.4362 73.1195 35.553 73.1164L36.2457 73.0874C36.7078 73.071 37.1708 73.0574 37.6329 73.0501C38.5572 73.0365 39.4814 73.0365 40.4038 73.0365C41.3262 73.0365 42.2522 73.0211 43.1764 73.0365C43.6386 73.0447 44.1007 73.0638 44.5628 73.0846C44.7946 73.0924 45.0258 73.1124 45.2555 73.1446C45.492 73.177 45.7249 73.232 45.9509 73.3089C45.7256 73.3843 45.4937 73.4381 45.2582 73.4696C45.0283 73.5025 44.7967 73.5228 44.5646 73.5304C44.1025 73.5513 43.6404 73.5704 43.1783 73.5785C42.254 73.5967 41.3289 73.584 40.4047 73.5785C39.4805 73.5731 38.5563 73.5731 37.632 73.5558C37.1699 73.5467 36.7069 73.5304 36.2448 73.5113L35.5521 73.4778C35.4353 73.4742 35.3191 73.459 35.2053 73.4324C35.0835 73.406 34.9667 73.3604 34.8594 73.2971Z" fill="#F3AB98"/>
<path d="M56.547 69.3469C56.5661 65.9778 56.4372 62.9854 55.8452 60.6867C54.931 58.3843 53.2868 57.0116 50.3916 57.0116L52.4607 69.2244C52.4607 69.2244 54.5052 70.154 56.547 69.3469Z" fill="#F3AB98"/>
<path d="M57.3294 68.3881C57.2257 68.4737 57.1129 68.5477 56.9932 68.6089" stroke="#592D3D" stroke-width="1.57179" stroke-miterlimit="10" stroke-linecap="square"/>
<path d="M24.6188 60.5882C23.9987 62.9096 23.8925 65.9564 23.9161 69.3946C25.7227 70.1699 28.4936 69.1994 28.4936 69.1994L30.0669 57.1936C27.2643 57.1909 25.5938 58.4528 24.6188 60.5882Z" fill="#F3AB98"/>
<path d="M50.7337 55.9436H45.8121V55.9527C45.8122 56.3614 45.7684 56.769 45.6813 57.1683C45.6391 57.3626 45.5863 57.5544 45.5234 57.743C45.3225 58.3063 45.0142 58.8252 44.6155 59.271C44.4883 59.4138 44.3518 59.5482 44.207 59.6732C41.9218 61.3255 38.2903 61.4163 36.0833 59.6205C35.8455 59.4128 35.6292 59.1816 35.4378 58.9305C35.0403 58.4085 34.7586 57.8078 34.6116 57.1683C34.5686 56.9708 34.5361 56.7711 34.5144 56.57C34.4918 56.365 34.4806 56.1589 34.4809 55.9527V55.9436H29.5593C29.2396 55.9438 28.9332 56.071 28.7073 56.2971C28.4814 56.5231 28.3545 56.8297 28.3545 57.1493V82.9947C28.354 83.1533 28.3848 83.3104 28.4451 83.457C28.5055 83.6037 28.5941 83.737 28.706 83.8493C28.8179 83.9616 28.9509 84.0508 29.0973 84.1117C29.2437 84.1725 29.4007 84.2039 29.5593 84.204H51.2521C51.5717 84.2038 51.8781 84.0767 52.104 83.8506C52.3299 83.6245 52.4568 83.318 52.4568 82.9984V57.7485C52.4568 56.639 51.9221 55.9436 50.7337 55.9436Z" fill="white"/>
<path d="M50.3916 55.9436C56.1603 55.9436 57.0554 61.0277 57.1008 68.0338C55.4122 69.0888 52.6604 68.1528 52.6604 68.1528L50.3916 55.9436Z" fill="white"/>
<path d="M52.4561 62.5845L50.3916 66.0462L51.4248 77.8486H52.4788V68.2569L54.0476 68.5193C53.5329 61.9671 52.4561 62.5845 52.4561 62.5845Z" fill="#E2E2E2"/>
<path d="M30.0659 55.9436C24.457 55.9436 23.1815 60.828 23.0889 67.5336C24.8138 69.3366 28.3546 67.9494 28.3546 67.9494L30.0659 55.9436Z" fill="white"/>
<path d="M28.3508 62.5845V67.9528L26.7793 68.3441C27.2941 61.978 28.3508 62.5845 28.3508 62.5845Z" fill="#E2E2E2"/>
<path d="M50.3916 55.9436C56.5116 55.9436 57.5139 61.0541 57.5548 68.0892C55.1761 69.2177 52.6604 68.1528 52.6604 68.1528" stroke="#592D3D" stroke-width="1.57179" stroke-miterlimit="10" stroke-linecap="square"/>
<path d="M30.0654 55.9436C24.0017 55.9436 22.7951 60.9097 22.7334 67.8114C24.6073 69.1532 28.3495 67.953 28.3495 67.953" stroke="#592D3D" stroke-width="1.57179" stroke-miterlimit="10" stroke-linecap="square"/>
<path d="M29.5593 84.2044H40.1469C30.2374 84.2044 30.9855 63.2161 28.3545 63.2161V82.9951C28.354 83.1537 28.3848 83.3108 28.4451 83.4574C28.5055 83.604 28.5941 83.7373 28.706 83.8497C28.8179 83.962 28.9509 84.0511 29.0973 84.112C29.2437 84.1729 29.4007 84.2043 29.5593 84.2044Z" fill="#E2E2E2"/>
<path d="M27.8089 65.2153C27.7916 64.8822 27.7989 64.549 27.8134 64.2167C27.8279 63.8844 27.8561 63.5494 27.8915 63.218C27.9096 63.051 27.9278 62.8848 27.9505 62.7178C27.9732 62.5507 27.995 62.3846 28.0277 62.2175C28.0921 61.8718 28.2016 61.536 28.3536 61.2189C28.5057 61.5359 28.615 61.8717 28.6786 62.2175C28.7122 62.3846 28.7358 62.5507 28.7567 62.7178C28.7776 62.8848 28.7976 63.051 28.8157 63.218C28.8502 63.5512 28.8774 63.8844 28.8929 64.2167C28.9083 64.549 28.9156 64.8831 28.8983 65.2153H27.8089Z" fill="#592D3D"/>
<path d="M52.4573 66.0458V66.7721C52.4809 69.8589 52.4809 73.0365 52.4573 76.1005C52.4573 76.3611 52.4573 76.6199 52.4573 76.875V82.995C52.4576 83.1535 52.4267 83.3105 52.3664 83.457C52.306 83.6035 52.2173 83.7367 52.1054 83.8489C51.9935 83.9612 51.8606 84.0503 51.7142 84.1111C51.5679 84.1719 51.411 84.2032 51.2525 84.2034H29.5597C29.2401 84.2031 28.9336 84.076 28.7077 83.8499C28.4818 83.6238 28.3549 83.3173 28.3549 82.9977V77.7139C28.3549 77.486 28.3549 77.2536 28.3549 77.0193C28.3322 73.8536 28.3322 70.676 28.3549 67.4594V65.2151" stroke="#592D3D" stroke-width="1.57179" stroke-miterlimit="10"/>
<path d="M51.9121 66.0466C51.8948 65.668 51.903 65.2885 51.9175 64.909C51.932 64.5296 51.9602 64.151 51.9947 63.7715C52.0128 63.5817 52.0319 63.392 52.0537 63.2022C52.0755 63.0125 52.0982 62.8237 52.1318 62.6339C52.1943 62.2431 52.3034 61.8612 52.4568 61.4963C52.6101 61.8613 52.7195 62.2432 52.7827 62.6339C52.8154 62.8237 52.839 63.0134 52.8599 63.2022C52.8808 63.3911 52.9007 63.5817 52.9189 63.7715C52.9534 64.151 52.9815 64.5296 52.9961 64.909C53.0106 65.2885 53.0188 65.668 53.0015 66.0466H51.9121Z" fill="#592D3D"/>
<path d="M29.5576 55.9527L50.7321 55.9436" stroke="#592D3D" stroke-width="1.57179" stroke-miterlimit="10"/>
<path d="M45.8117 55.9523C45.8118 56.361 45.768 56.7686 45.681 57.1679C45.6387 57.3622 45.5859 57.554 45.523 57.7426C45.3221 58.3059 45.0138 58.8248 44.6151 59.2706C44.4879 59.4134 44.3514 59.5478 44.2066 59.6728C41.9214 61.3251 38.2899 61.4159 36.0829 59.6201C35.8451 59.4124 35.6288 59.1812 35.4374 58.9301C35.0399 58.4081 34.7582 57.8074 34.6112 57.1679C34.5682 56.9704 34.5357 56.7706 34.5141 56.5696C34.4914 56.3646 34.4802 56.1585 34.4805 55.9523" stroke="#592D3D" stroke-width="1.57179" stroke-miterlimit="10"/>
<path d="M40.7135 62.2685C40.1643 62.3789 39.6024 62.4125 39.044 62.3683C38.4804 62.3287 37.9247 62.2139 37.3916 62.027C36.8553 61.8431 36.3502 61.5786 35.8936 61.2426L35.7248 61.1145C35.6694 61.071 35.6158 61.0238 35.5622 60.9765C35.4544 60.8847 35.3534 60.7852 35.2599 60.6788C35.0735 60.4693 34.9098 60.2408 34.7715 59.9969C34.9657 60.1917 35.17 60.3763 35.3834 60.5498C35.4361 60.5934 35.4896 60.6361 35.5423 60.6769C35.5949 60.7178 35.6539 60.7514 35.7093 60.7895C35.7647 60.8277 35.8201 60.8658 35.8773 60.9012L36.0507 61.0065C36.5139 61.2809 37.0036 61.5078 37.5124 61.6838C38.0222 61.8621 38.546 61.9972 39.0785 62.0878C39.62 62.1764 40.1657 62.2367 40.7135 62.2685Z" fill="#592D3D"/>
<path d="M22.959 68.0896C23.0623 68.1838 23.1743 68.2681 23.2934 68.3413" stroke="#592D3D" stroke-width="1.57179" stroke-miterlimit="10" stroke-linecap="square"/>
<path d="M56.2657 67.1989C56.0768 67.3119 55.8688 67.3894 55.652 67.4276C55.4367 67.4699 55.2176 67.4897 54.9983 67.4866C54.7793 67.4824 54.5611 67.4584 54.3464 67.4149C54.2393 67.3959 54.1349 67.3641 54.0296 67.3359C53.9243 67.3078 53.8235 67.266 53.7236 67.2234C53.8335 67.2234 53.9397 67.2397 54.0468 67.2488L54.3664 67.2751C54.4726 67.2751 54.5779 67.2933 54.6842 67.2942C54.7904 67.2951 54.8948 67.3042 55.0001 67.3051C55.2119 67.3087 55.4238 67.303 55.6356 67.2878C55.8475 67.2731 56.058 67.2434 56.2657 67.1989Z" fill="#592D3D"/>
<path d="M25.9762 40.6296C27.0271 40.6296 27.8791 39.7776 27.8791 38.7266C27.8791 37.6757 27.0271 36.8237 25.9762 36.8237C24.9252 36.8237 24.0732 37.6757 24.0732 38.7266C24.0732 39.7776 24.9252 40.6296 25.9762 40.6296Z" fill="#592D3D"/>
<path d="M25.9637 40.263C26.1262 40.2539 26.3077 40.2394 26.4812 40.2212C26.6546 40.2031 26.8316 40.1813 27.0068 40.1541C27.182 40.1268 27.3582 40.095 27.5343 40.0633C27.7104 40.0315 27.8902 40.0015 28.079 39.9879C27.9308 40.102 27.7688 40.1972 27.5969 40.2712C27.426 40.3426 27.2507 40.4032 27.0722 40.4528C26.8933 40.5049 26.7114 40.5462 26.5275 40.5762C26.3404 40.6089 26.1508 40.6253 25.9609 40.6252L25.9637 40.263Z" fill="#592D3D"/>
<path d="M55.0924 40.6296C56.1433 40.6296 56.9953 39.7776 56.9953 38.7266C56.9953 37.6757 56.1433 36.8237 55.0924 36.8237C54.0414 36.8237 53.1895 37.6757 53.1895 38.7266C53.1895 39.7776 54.0414 40.6296 55.0924 40.6296Z" fill="#592D3D"/>
<path d="M55.0926 40.263C55.2561 40.2539 55.4367 40.2394 55.6101 40.2212C55.7835 40.2031 55.9615 40.1813 56.1367 40.1541C56.3119 40.1268 56.488 40.095 56.6642 40.0633C56.8403 40.0315 57.0201 40.0015 57.2089 39.9879C57.0605 40.1018 56.8986 40.197 56.7268 40.2712C56.5559 40.3426 56.3806 40.4032 56.2021 40.4528C56.0231 40.5048 55.8412 40.5461 55.6573 40.5762C55.4703 40.6089 55.2807 40.6253 55.0908 40.6252L55.0926 40.263Z" fill="#592D3D"/>
<path d="M35.2432 43.5186C35.2432 41.8027 45.5676 42.0605 45.5676 43.5186C45.5676 44.8877 45.0237 46.2007 44.0556 47.1688C43.0875 48.1369 41.7745 48.6808 40.4054 48.6808C39.0363 48.6808 37.7232 48.1369 36.7551 47.1688C35.787 46.2007 35.2432 44.8877 35.2432 43.5186Z" fill="#592D3D"/>
<path d="M39.9504 45.4377C38.4116 45.3469 37.0697 46.0505 36.623 47.0918C37.3658 47.8765 38.336 48.4083 39.3969 48.6124C40.4579 48.8165 41.5562 48.6825 42.537 48.2294C42.741 48.1353 42.9384 48.0276 43.128 47.9071C43.0445 46.6261 41.6808 45.5448 39.9504 45.4377Z" fill="#F28195"/>
<path d="M35.2432 43.5186C35.2432 41.8027 45.5676 42.0605 45.5676 43.5186C45.5676 44.8877 45.0237 46.2007 44.0556 47.1688C43.0875 48.1369 41.7745 48.6808 40.4054 48.6808C39.0363 48.6808 37.7232 48.1369 36.7551 47.1688C35.787 46.2007 35.2432 44.8877 35.2432 43.5186V43.5186Z" stroke="#592D3D" stroke-width="0.785893" stroke-miterlimit="10"/>
<path d="M38.4189 44.4808C38.4598 44.4709 38.4761 44.4663 38.5025 44.4618L38.5706 44.4491C38.615 44.4409 38.6613 44.4364 38.7031 44.4327C38.7903 44.4238 38.8779 44.4208 38.9655 44.4236C39.143 44.4275 39.3194 44.4522 39.4911 44.4972C39.8508 44.5883 40.1769 44.7804 40.4308 45.051C40.6697 45.308 40.8298 45.6281 40.892 45.9734C40.9488 46.2919 40.9056 46.6201 40.7685 46.913C40.5806 46.647 40.4363 46.4083 40.2855 46.2085C40.2177 46.1128 40.1434 46.0218 40.0631 45.9362C39.9898 45.861 39.9075 45.7951 39.818 45.7401C39.6485 45.6385 39.4595 45.5739 39.2633 45.5503C39.1603 45.537 39.0566 45.5298 38.9528 45.5285C38.8992 45.5285 38.8456 45.5285 38.793 45.5331L38.7158 45.5385H38.6804C38.6713 45.5385 38.6532 45.5385 38.6595 45.5385L38.4189 44.4808Z" fill="#592D3D"/>
<path d="M45.7371 23.3156C44.5696 25.4946 40.2899 26.7147 39.9422 26.1682C39.5527 25.5572 43.3785 21.1458 41.2041 16.532" fill="#F3AB98"/>
<path d="M66.1894 18.1876C65.7264 17.7246 63.3695 18.3537 60.9973 18.1667C58.6728 15.0099 55.652 12.4312 52.1695 10.6309C48.687 8.8306 44.8365 7.85712 40.9168 7.78602C40.6953 5.92668 40.8487 4.36513 40.6798 4.14543C40.4538 3.85309 39.2735 5.29662 38.9667 6.95985C37.8854 5.59803 36.0488 4.87173 35.9961 5.25304C35.9616 5.49635 36.6716 6.53224 37.3407 7.9676C27.2087 9.19051 18.9035 16.3437 15.9983 25.8528C14.74 26.935 13.5597 27.6994 13.547 28.1851C13.5225 29.0858 17.1159 29.0349 18.6838 28.8951V28.8896C24.1901 28.7081 34.9348 27.6386 40.1478 22.2721C39.6467 24.0053 38.7234 25.2826 38.9013 25.555C39.1737 25.979 42.3803 25.0838 43.4471 23.4451C47.8049 25.2236 56.1111 27.3635 63.3296 21.978L63.3096 21.9389C64.6251 20.8395 66.7659 18.7686 66.1894 18.1876Z" fill="#592D3D"/>
<path d="M61.0011 18.7115C60.5109 18.7333 60.0333 18.7215 59.5485 18.6988C59.0637 18.6761 58.5871 18.638 58.1077 18.5844C57.868 18.5581 57.6284 18.5299 57.3896 18.4936C57.1508 18.4573 56.9111 18.4282 56.6733 18.3819C56.1886 18.2948 55.7144 18.1567 55.2588 17.9698C55.735 17.8478 56.2211 17.7682 56.7114 17.7319C56.9502 17.7119 57.1889 17.6983 57.4277 17.6883L58.1431 17.6575C58.6198 17.6375 59.0955 17.6266 59.5703 17.6166C60.0451 17.6066 60.5218 17.6057 60.9884 17.6166L61.0011 18.7115Z" fill="#592D3D"/>
<path d="M16.4916 26.0996C16.4916 26.0996 16.4916 26.1213 16.4916 26.135L16.4808 26.1831L16.4553 26.2839C16.4363 26.3519 16.4163 26.4219 16.3954 26.4918C16.3527 26.6325 16.3046 26.7768 16.2556 26.923C16.2066 27.0692 16.1594 27.2208 16.0949 27.3769C16.0588 27.4585 16.017 27.5374 15.9696 27.613C15.9152 27.7027 15.8523 27.7869 15.7817 27.8645C15.6286 27.7304 15.5123 27.5595 15.444 27.3679C15.4128 27.2824 15.3897 27.1943 15.375 27.1046C15.3559 27.0138 15.3468 26.923 15.3359 26.8368C15.3177 26.6556 15.3177 26.4731 15.3359 26.292C15.3448 26.2004 15.3593 26.1095 15.3795 26.0197C15.3904 25.9743 15.4022 25.9289 15.4167 25.8826C15.4237 25.8589 15.4319 25.8355 15.4412 25.8127C15.4503 25.7872 15.4576 25.7691 15.4739 25.731L16.4916 26.0996Z" fill="#592D3D"/>
<path d="M18.6828 28.8981V28.8926C20.2262 28.8418 22.1899 28.7201 24.3244 28.4532C24.5631 23.3764 26.3217 17.4152 30.3091 10.4373L29.6917 10.1422C26.4352 11.6553 23.5332 13.8361 21.174 16.5431C18.8148 19.2502 17.0511 22.423 15.9973 25.8558C14.739 26.938 13.5587 27.7024 13.546 28.1881C13.5215 29.0887 17.1149 29.0379 18.6828 28.8981Z" fill="#592D3D"/>
<path d="M66.1894 18.1876C65.7264 17.7246 63.3695 18.3537 60.9973 18.1667C58.6728 15.0099 55.652 12.4312 52.1695 10.6309C48.687 8.8306 44.8365 7.85712 40.9168 7.78602C40.6953 5.92669 40.8487 4.36513 40.6798 4.14543C40.4538 3.85309 39.2735 5.29662 38.9667 6.95985C37.8854 5.59803 36.0488 4.87173 35.9961 5.25304C35.9616 5.49635 36.6716 6.53224 37.3407 7.9676C27.2087 9.19051 18.9035 16.3437 15.9983 25.8528C14.74 26.935 13.5597 27.6994 13.547 28.1851C13.5225 29.0857 17.1159 29.0349 18.6838 28.8951V28.8896C24.1901 28.7081 34.9348 27.6386 40.1478 22.2721C39.6467 24.0053 38.7234 25.2826 38.9013 25.555C39.1737 25.979 42.3803 25.0838 43.4471 23.4451C47.8049 25.2236 56.1111 27.3635 63.3296 21.978L63.3096 21.9389C64.6251 20.8395 66.7659 18.7686 66.1894 18.1876Z" stroke="#592D3D" stroke-width="1.57179" stroke-miterlimit="10"/>
<path d="M40.9435 9.2411C39.6503 9.31559 38.3626 9.46534 37.0868 9.68959C36.7709 9.75042 36.4559 9.8176 36.139 9.8757C35.8222 9.93381 35.5126 10.0219 35.1994 10.0945L34.2679 10.3414C33.9592 10.4322 33.6532 10.5303 33.3464 10.6247C32.1223 11.0195 30.9263 11.4966 29.7666 12.0528C28.6013 12.6184 27.4719 13.2552 26.3848 13.9593C27.3531 13.0761 28.4221 12.3101 29.5696 11.6769C30.718 11.0357 31.9272 10.5099 33.1793 10.1072C33.4953 10.0164 33.8094 9.91747 34.1253 9.83031C34.4413 9.74315 34.7608 9.66507 35.0831 9.59426C35.4054 9.52345 35.7277 9.46716 36.0509 9.41268C36.3741 9.35821 36.7001 9.31554 37.0251 9.27469C38.3257 9.11469 39.6403 9.10342 40.9435 9.2411Z" fill="white"/>
<path d="M49.7657 28.1235C50.7684 27.868 51.7839 27.6662 52.808 27.5189L52.5711 27.5524C53.7668 27.3782 54.9803 27.3636 56.1799 27.5089L55.9384 27.4762C56.2362 27.517 56.5322 27.567 56.8299 27.6042L56.5885 27.5724C57.4921 27.6964 58.3863 27.8814 59.2649 28.1262C59.7188 28.2533 60.2735 27.9701 60.3816 27.4907C60.4409 27.2585 60.4078 27.0123 60.2893 26.804C60.1707 26.5957 59.976 26.4416 59.7461 26.374C58.7161 26.092 57.6668 25.8862 56.6066 25.7585L56.8472 25.7912C55.8459 25.6134 54.8273 25.554 53.8122 25.6141C52.802 25.6806 51.7978 25.8183 50.8071 26.0263C50.2978 26.1298 49.7912 26.2478 49.2855 26.3722C48.8243 26.4857 48.5038 27.0313 48.65 27.4889C48.7179 27.7186 48.8722 27.913 49.0803 28.0315C49.2885 28.15 49.5345 28.1833 49.7667 28.1244L49.7657 28.1235Z" fill="#592D3D"/>
<path d="M18.73 32.6572L20.0128 32.5229L23.0697 32.2033L26.7865 31.8138L29.9804 31.4788C30.4997 31.4252 31.019 31.3726 31.5383 31.3163H31.5601C31.808 31.2909 32.0204 31.2328 32.202 31.0503C32.3722 30.88 32.4678 30.6492 32.4678 30.4084C32.4678 30.1677 32.3722 29.9368 32.202 29.7665C32.0359 29.6131 31.7953 29.476 31.5601 29.5005L30.2773 29.6349L27.2205 29.9554L23.4982 30.3449L20.3043 30.679C19.7849 30.7334 19.2656 30.7861 18.7463 30.8424H18.7245C18.4767 30.8687 18.2643 30.9268 18.0827 31.1084C17.9983 31.1927 17.9313 31.2928 17.8856 31.403C17.8399 31.5133 17.8164 31.6314 17.8164 31.7507C17.8164 31.87 17.8399 31.9882 17.8856 32.0984C17.9313 32.2086 17.9983 32.3087 18.0827 32.393C18.2488 32.5456 18.4894 32.6836 18.7245 32.6581L18.73 32.6572Z" fill="#592D3D"/>
</g>
<defs>
<clipPath id="clip0">
<rect width="80" height="80" rx="40" fill="white"/>
</clipPath>
</defs>
</svg>
