<svg width="81" height="80" viewBox="0 0 81 80" fill="none" xmlns="http://www.w3.org/2000/svg">
<g clip-path="url(#clip0)">
<path d="M17.6035 40.6044C32.9015 47.1058 48.5581 47.1983 63.9713 40.6044C65.4333 39.9789 65.425 28.9386 63.9713 29.4441C48.9193 34.6844 33.0008 34.7402 17.6035 29.4441C15.7719 28.811 15.9504 39.898 17.6035 40.6044Z" fill="#592D3D" stroke="#592D3D" stroke-width="1.57179" stroke-miterlimit="10"/>
<path d="M49.6855 62.3492C57.2553 62.3492 55.6907 71.8773 55.7632 82.473H49.6855V62.3492Z" fill="#FDD2B2"/>
<path d="M51.5822 68.4503L49.6855 71.6305L50.6347 82.4731H53.2836C53.3478 67.4378 51.5822 68.4503 51.5822 68.4503Z" fill="#F3AB98"/>
<path d="M18.2627 40.7709C18.2627 28.4838 28.2237 18.5228 40.5108 18.5228C52.7979 18.5228 62.7589 28.4838 62.7589 40.7709C62.7621 44.0816 62.0248 47.3511 60.6012 50.34C59.1776 53.329 57.1036 55.9617 54.5311 58.0456C54.0746 58.417 53.6036 58.7698 53.1182 59.104C48.1006 62.2892 41.7619 62.2892 36.0395 61.7796C35.484 61.6962 34.9302 61.5911 34.3806 61.4702C32.1846 60.9864 30.0586 60.24 28.0944 59.1516C27.609 58.8524 27.1383 58.5294 26.6824 58.1824C26.2241 57.8335 25.7842 57.461 25.3646 57.0664C24.9676 56.6978 24.5842 56.3147 24.2144 55.9171C20.3826 51.8052 18.2553 46.3915 18.2627 40.7709Z" fill="#FDD2B2"/>
<path d="M21.2947 51.988C21.3531 52.088 21.4107 52.1881 21.4707 52.2866C21.5066 52.3466 21.5441 52.405 21.5817 52.465C21.6367 52.5543 21.6917 52.6435 21.7485 52.7311C21.7885 52.7945 21.8319 52.8562 21.8702 52.9179C21.9253 53.0013 21.9803 53.0847 22.037 53.1681C22.0796 53.2315 22.1204 53.2949 22.1672 53.3583C22.2222 53.4417 22.2772 53.5184 22.334 53.5985C22.379 53.6627 22.4257 53.7261 22.4716 53.7903C22.5175 53.8546 22.5833 53.9446 22.6384 54.0214C22.6934 54.0981 22.7343 54.149 22.7827 54.2124C22.8311 54.2757 22.8969 54.3625 22.9553 54.4375C23.0137 54.5126 23.0546 54.5635 23.1046 54.626C23.1547 54.6886 23.2222 54.7728 23.2814 54.8454C23.3407 54.918 23.384 54.9697 23.4357 55.0314C23.4874 55.0931 23.5558 55.1748 23.6167 55.2457C23.6776 55.3166 23.7226 55.3683 23.776 55.4292L23.9612 55.6377C24.0154 55.6986 24.0704 55.7578 24.128 55.8179C24.1997 55.8963 24.2723 55.9739 24.3448 56.0506L24.4458 56.1573C24.5534 56.2691 24.6618 56.3809 24.7719 56.491L24.7936 56.5135C24.9011 56.6202 25.0104 56.7262 25.1197 56.8312L25.2514 56.9564C25.3307 57.0306 25.4099 57.1048 25.49 57.1782L25.5867 57.2666C25.6701 57.345 25.761 57.4218 25.8486 57.4985C26.1211 57.7359 26.3991 57.9636 26.6827 58.1816C27.138 58.5285 27.6087 58.8516 28.0947 59.1507C30.0589 60.235 32.1815 60.9856 34.3809 61.4694C34.9305 61.5903 35.4843 61.6946 36.0398 61.7788C39.5511 62.0916 43.296 62.2108 46.8223 61.5219C41.215 59.8713 14.2871 50.1748 31.2357 20.5446C31.0088 20.6488 30.7853 20.7564 30.5635 20.8682L30.5143 20.8924C30.4125 20.9432 30.3107 20.9958 30.2098 21.0492L30.1264 21.0934C29.8128 21.2602 29.5026 21.4328 29.1981 21.613L29.1231 21.6572C29.0263 21.7147 28.9304 21.7731 28.8345 21.8323L28.7619 21.8774C28.4639 22.0636 28.1706 22.2563 27.882 22.4553L27.7919 22.5179C27.701 22.5813 27.6118 22.6447 27.5225 22.7089L27.4675 22.7481C27.2857 22.881 27.1061 23.0155 26.9287 23.1518L26.877 23.1918C26.7936 23.2569 26.7102 23.3236 26.6268 23.3911L26.5292 23.4695C26.4458 23.5371 26.3624 23.6047 26.279 23.6739C26.103 23.8198 25.9295 23.97 25.7585 24.1218L25.6635 24.2052L25.4391 24.4095L25.3307 24.5079C25.0927 24.7303 24.86 24.9575 24.6326 25.1893L24.5175 25.3069C24.4516 25.3753 24.3857 25.4437 24.3207 25.5129C24.2823 25.5538 24.2439 25.5964 24.2064 25.6364C24.0918 25.7587 23.979 25.8827 23.8678 26.0084C23.8302 26.0509 23.7919 26.0918 23.7543 26.1368C23.6951 26.2044 23.6367 26.2728 23.5784 26.3412L23.4524 26.4904C23.3957 26.558 23.339 26.6256 23.2856 26.694C23.2406 26.749 23.1955 26.8049 23.1513 26.8608C23.0621 26.9717 22.9745 27.0826 22.8878 27.1944C22.8427 27.2528 22.7977 27.3111 22.7535 27.3704C22.7093 27.4296 22.6534 27.503 22.6042 27.5705C22.555 27.6381 22.515 27.6915 22.4716 27.7524C22.4282 27.8132 22.3773 27.8816 22.3315 27.9467C22.2525 28.0579 22.1747 28.1705 22.0979 28.2845C22.0562 28.3454 22.0145 28.4079 21.9737 28.4696C21.9328 28.5313 21.8819 28.6081 21.8369 28.6781L21.7126 28.8708L21.5725 29.0968C21.5366 29.1544 21.5008 29.2119 21.4657 29.2695C21.3915 29.3912 21.3198 29.5138 21.248 29.6365L21.1463 29.8166C21.1012 29.8958 21.0562 29.9759 21.012 30.056C20.9786 30.1169 20.9453 30.1777 20.9128 30.2386C20.8594 30.3379 20.8068 30.438 20.7543 30.5381L20.6542 30.7332C20.6008 30.84 20.5474 30.9459 20.4949 31.0535C20.4674 31.111 20.439 31.1694 20.4115 31.2278C20.3681 31.3187 20.3281 31.4105 20.2839 31.5022C20.258 31.5573 20.233 31.6123 20.208 31.669C20.1463 31.8064 20.0859 31.9454 20.027 32.086C20.0087 32.1294 19.9911 32.1736 19.9728 32.217C19.9286 32.3229 19.8852 32.4288 19.8427 32.5356C19.8202 32.5915 19.7985 32.6473 19.7768 32.7024C19.7351 32.8075 19.6934 32.9134 19.6559 33.0193C19.6383 33.0652 19.6208 33.1111 19.6041 33.1569C19.5519 33.3032 19.5004 33.4494 19.4498 33.5957L19.4031 33.7374C19.3664 33.8486 19.3306 33.9599 19.2955 34.0711L19.2455 34.2304C19.2063 34.3588 19.1679 34.4872 19.1312 34.6165C19.1229 34.644 19.1146 34.6716 19.1071 34.6999C19.0637 34.8534 19.022 35.0074 18.9819 35.162C18.9686 35.2112 18.9569 35.2612 18.9444 35.3104C18.9152 35.4264 18.8869 35.5423 18.861 35.6591L18.826 35.805C18.7901 35.9635 18.7551 36.122 18.7226 36.2813L18.71 36.3455C18.6817 36.4873 18.6539 36.6291 18.6266 36.7709C18.6175 36.8217 18.6091 36.8718 18.6 36.9227C18.5783 37.0469 18.5574 37.1729 18.5382 37.298C18.5316 37.3405 18.5241 37.3814 18.5182 37.4247C18.4932 37.5874 18.4707 37.7509 18.449 37.9152L18.4365 38.0236C18.4198 38.1562 18.4048 38.2896 18.3906 38.4231C18.3856 38.4731 18.3798 38.5232 18.3748 38.5741C18.3614 38.7142 18.3489 38.8551 18.3372 38.9961C18.3372 39.0253 18.3322 39.0536 18.3306 39.0795C18.3183 39.2463 18.3075 39.4145 18.298 39.5841C18.298 39.6283 18.298 39.6733 18.2922 39.7175C18.2866 39.8488 18.2816 39.9797 18.2772 40.1104C18.2772 40.1596 18.2772 40.2088 18.2772 40.258C18.2772 40.429 18.2705 40.6008 18.2705 40.7726C18.2705 40.7726 18.2705 40.7784 18.2705 40.7809C18.2705 40.9661 18.2705 41.1496 18.2772 41.3331C18.2772 41.3965 18.2822 41.4598 18.2839 41.5232C18.288 41.6458 18.2922 41.7684 18.298 41.891C18.298 41.9653 18.3072 42.0387 18.3114 42.1129C18.318 42.2238 18.3239 42.3348 18.3322 42.4465C18.3381 42.5299 18.3456 42.6041 18.3522 42.6825C18.3614 42.7876 18.3698 42.8927 18.3806 42.997C18.3881 43.0804 18.3981 43.1588 18.4065 43.2397C18.4181 43.3406 18.429 43.4424 18.4415 43.5433C18.4515 43.6267 18.4632 43.7101 18.474 43.7893C18.4874 43.8877 18.5007 43.987 18.5157 44.0854C18.5282 44.1688 18.5416 44.2522 18.5549 44.3356C18.5699 44.4324 18.5858 44.53 18.6025 44.6267C18.6175 44.7101 18.6325 44.7935 18.6483 44.8769C18.6658 44.9728 18.6842 45.0687 18.7025 45.1638C18.7209 45.2589 18.7367 45.3306 18.7543 45.414C18.7743 45.5091 18.7943 45.6034 18.816 45.6976C18.8377 45.7919 18.8527 45.8644 18.8727 45.942C18.8944 46.0362 18.9177 46.1296 18.9411 46.2222C18.9644 46.3148 18.9819 46.3849 19.0028 46.4649C19.0278 46.5583 19.0528 46.6509 19.0787 46.7435C19.1004 46.8269 19.1229 46.9036 19.1463 46.9829C19.1729 47.0755 19.2005 47.1672 19.2297 47.2589C19.2588 47.3507 19.278 47.4166 19.3031 47.4958C19.3281 47.575 19.3614 47.6785 19.3915 47.7694C19.4215 47.8603 19.4432 47.9253 19.4699 48.0029C19.5016 48.0938 19.5332 48.1847 19.5658 48.2756C19.5933 48.3515 19.62 48.4283 19.6492 48.5042L19.7526 48.7769C19.7818 48.8511 19.8101 48.9262 19.836 49.0004C19.8727 49.0913 19.9102 49.1831 19.9478 49.274C19.9778 49.3457 20.007 49.4183 20.0378 49.49C20.077 49.5834 20.1212 49.6752 20.1588 49.7677C20.1896 49.8361 20.2197 49.9054 20.2505 49.9738C20.2939 50.0705 20.3398 50.1656 20.384 50.2607L20.474 50.4525C20.5249 50.5576 20.5775 50.661 20.63 50.7653C20.6567 50.8178 20.6817 50.8712 20.7092 50.9237C20.8694 51.2357 21.0362 51.5434 21.2097 51.847C21.2339 51.8862 21.2647 51.9371 21.2947 51.988Z" fill="#F3AB98"/>
<path d="M18.2627 40.7709C18.2627 28.4838 28.2237 18.5228 40.5108 18.5228C52.7979 18.5228 62.7589 28.4838 62.7589 40.7709C62.7621 44.0816 62.0248 47.3511 60.6012 50.34C59.1776 53.329 57.1036 55.9617 54.5311 58.0456C54.0746 58.417 53.6036 58.7698 53.1182 59.104C48.1006 62.2892 41.7619 62.2892 36.0395 61.7796C35.484 61.6962 34.9302 61.5911 34.3806 61.4702C32.1846 60.9864 30.0586 60.24 28.0944 59.1516C27.609 58.8524 27.1383 58.5294 26.6824 58.1824C26.2241 57.8335 25.7842 57.461 25.3646 57.0664C24.9676 56.6978 24.5842 56.3147 24.2144 55.9171C20.3826 51.8052 18.2553 46.3915 18.2627 40.7709V40.7709Z" stroke="#592D3D" stroke-width="1.57179" stroke-miterlimit="10"/>
<path d="M31.0112 62.3492C23.4406 62.3492 25.0061 71.8773 24.9335 82.473H31.0112V62.3492Z" fill="#FDD2B2"/>
<path d="M29.4374 68.4503L31.3366 71.6305L30.3866 82.4731H27.7402C27.6726 67.4378 29.4374 68.4503 29.4374 68.4503Z" fill="#F3AB98"/>
<path d="M50.4748 88.3113H30.5462C30.2526 88.3111 29.9711 88.1943 29.7636 87.9866C29.556 87.7789 29.4395 87.4973 29.4395 87.2037V63.4569C29.4395 63.1632 29.556 62.8816 29.7636 62.674C29.9711 62.4663 30.2526 62.3495 30.5462 62.3492H49.9986C51.0904 62.3492 51.5833 62.9881 51.5833 64.0073V87.2004C51.5837 87.3462 51.5554 87.4906 51.4999 87.6255C51.4443 87.7603 51.3627 87.8828 51.2598 87.986C51.1568 88.0892 51.0344 88.1711 50.8997 88.2269C50.765 88.2828 50.6206 88.3114 50.4748 88.3113Z" fill="#FDD2B2"/>
<path d="M51.2739 63.0081C51.1907 62.9059 51.1204 62.7939 51.0645 62.6745C50.8643 62.5176 50.626 62.4166 50.3739 62.3818C50.2498 62.3625 50.1243 62.3531 49.9986 62.3534H30.5462C30.2533 62.3536 29.9725 62.4698 29.765 62.6766C29.5576 62.8834 29.4406 63.164 29.4395 63.4568C31.8582 64.3259 36.3862 64.8113 40.5105 64.8113C45.77 64.8113 49.2163 64.0315 51.2739 63.0081Z" fill="#F3AB98"/>
<path d="M49.6855 62.3492C57.2553 62.3492 55.6907 71.8773 55.7632 82.473H51.5822" stroke="#592D3D" stroke-width="1.57179" stroke-miterlimit="10" stroke-linecap="square"/>
<path d="M31.0112 62.3492C23.4406 62.3492 25.0061 71.8773 24.9335 82.473H29.1096" stroke="#592D3D" stroke-width="1.57179" stroke-miterlimit="10" stroke-linecap="square"/>
<path d="M30.5449 62.3576L49.9973 62.3492" stroke="#592D3D" stroke-width="1.57179" stroke-miterlimit="10"/>
<path d="M30.5462 88.3118H40.2728C31.1693 88.3118 31.8565 69.0304 29.4395 69.0304V87.2009C29.439 87.3465 29.4673 87.4908 29.5227 87.6255C29.5781 87.7603 29.6596 87.8827 29.7624 87.9859C29.8652 88.0891 29.9873 88.171 30.1219 88.2269C30.2564 88.2828 30.4006 88.3117 30.5462 88.3118Z" fill="#F3AB98"/>
<path d="M28.9379 70.8677C28.9221 70.5616 28.9288 70.2556 28.9421 69.9503C28.9555 69.645 28.9813 69.3373 29.0138 69.0328C29.0305 68.8794 29.0472 68.7268 29.068 68.5733C29.0889 68.4198 29.1089 68.2672 29.1389 68.1137C29.1981 67.7961 29.2988 67.4877 29.4384 67.1963C29.578 67.4877 29.6786 67.7961 29.7378 68.1137C29.7678 68.2672 29.7895 68.4198 29.8087 68.5733C29.8279 68.7268 29.8462 68.8794 29.8629 69.0328C29.8946 69.3389 29.9196 69.645 29.9338 69.9503C29.948 70.2556 29.9546 70.5625 29.9388 70.8677H28.9379Z" fill="#592D3D"/>
<path d="M51.5807 71.6312V72.2984C51.6023 75.1342 51.6023 78.0533 51.5807 80.8682C51.5807 81.1076 51.5807 81.3453 51.5807 81.5797V87.2019C51.581 87.3475 51.5526 87.4918 51.4971 87.6264C51.4417 87.761 51.3602 87.8833 51.2574 87.9865C51.1546 88.0896 51.0325 88.1714 50.8981 88.2273C50.7636 88.2831 50.6195 88.3119 50.4739 88.312H30.5453C30.2517 88.3118 29.9701 88.195 29.7626 87.9873C29.5551 87.7796 29.4385 87.498 29.4385 87.2044V82.3503C29.4385 82.141 29.4385 81.9275 29.4385 81.7123C29.4176 78.804 29.4176 75.8848 29.4385 72.9298V70.868" stroke="#592D3D" stroke-width="1.57179" stroke-miterlimit="10"/>
<path d="M51.0812 71.6301C51.0653 71.2823 51.0729 70.9336 51.0862 70.585C51.0995 70.2364 51.1254 69.8886 51.1571 69.5399C51.1738 69.3656 51.1913 69.1913 51.2113 69.017C51.2313 68.8427 51.2522 68.6692 51.2822 68.4949C51.3403 68.1359 51.4408 67.7851 51.5816 67.4498C51.7224 67.7851 51.8229 68.1359 51.881 68.4949C51.9111 68.6692 51.9328 68.8435 51.9519 69.017C51.9711 69.1905 51.9895 69.3656 52.0061 69.5399C52.0378 69.8886 52.0637 70.2364 52.077 70.585C52.0904 70.9336 52.0979 71.2823 52.082 71.6301H51.0812Z" fill="#592D3D"/>
<path d="M46.4053 69.3329C46.4236 68.5447 47.4245 68.2111 47.9249 68.7115C48.0062 68.7945 48.0704 68.8928 48.1138 69.0006C48.1571 69.1084 48.1788 69.2237 48.1776 69.3399C48.1764 69.4561 48.1524 69.571 48.1068 69.6779C48.0612 69.7848 47.995 69.8817 47.912 69.963C47.829 70.0443 47.7307 70.1085 47.6229 70.1519C47.5151 70.1952 47.3998 70.2169 47.2836 70.2157C47.1673 70.2145 47.0525 70.1904 46.9456 70.1449C46.8387 70.0993 46.7418 70.0331 46.6605 69.9501C46.5793 69.8692 46.5149 69.773 46.4711 69.667C46.4273 69.5611 46.4049 69.4475 46.4053 69.3329Z" fill="#592D3D"/>
<path d="M32.847 69.3078C32.8295 68.628 33.5801 68.2944 34.0805 68.5446C34.7478 68.7948 34.7478 69.7123 34.0805 70.1293C33.7469 70.2961 33.4133 70.1293 33.1005 69.9224C33.0199 69.8417 32.956 69.7459 32.9125 69.6404C32.8689 69.5349 32.8467 69.4219 32.847 69.3078Z" fill="#592D3D"/>
<path d="M40.5113 68.4421C40.5709 68.5993 40.6129 68.7627 40.6364 68.9292C40.6612 69.0904 40.6749 69.2532 40.6772 69.4163L40.7023 70.3913C40.7098 70.7157 40.7198 71.041 40.7231 71.3663L40.7373 72.3396C40.7565 73.6382 40.7556 74.9385 40.7606 76.2379C40.7657 77.5374 40.7757 78.8368 40.7606 80.1362C40.7531 80.786 40.7356 81.4357 40.7164 82.0854C40.7081 82.4098 40.6923 82.7351 40.6606 83.0596C40.6322 83.3874 40.5829 83.713 40.5129 84.0346C40.443 83.713 40.3937 83.3874 40.3653 83.0596C40.3336 82.7351 40.3178 82.4098 40.3094 82.0854C40.2902 81.4357 40.2727 80.786 40.2652 80.1362C40.2485 78.8368 40.2652 77.5374 40.2652 76.2379C40.2652 74.9385 40.2652 73.6399 40.2802 72.3405L40.2944 71.3646L40.3219 70.3905L40.3495 69.4163C40.3526 69.2532 40.3665 69.0905 40.3912 68.9292C40.413 68.7629 40.4533 68.5995 40.5113 68.4421Z" fill="#F3AB98"/>
<path d="M34.2734 72.7149C34.3971 72.6561 34.5281 72.614 34.6629 72.5897C34.7917 72.5656 34.9223 72.5516 35.0533 72.548L35.8331 72.5205L37.3928 72.4863C38.432 72.4705 39.4704 72.4663 40.5104 72.4638C41.5505 72.4613 42.5897 72.4505 43.6289 72.4638C44.1485 72.4713 44.6681 72.4888 45.1886 72.508C45.4479 72.5172 45.7082 72.533 45.9676 72.5639C46.2309 72.5931 46.4917 72.6427 46.7474 72.7123C46.4918 72.7824 46.231 72.8318 45.9676 72.86C45.7082 72.8917 45.4479 72.9075 45.1886 72.9159C44.6681 72.935 44.1485 72.9517 43.6289 72.9592C42.5897 72.9751 41.5505 72.9592 40.5104 72.9592C39.4704 72.9592 38.4311 72.9592 37.3911 72.9467C36.8715 72.9417 36.3519 72.925 35.8331 72.905L35.0533 72.8767C34.9225 72.8731 34.7923 72.8592 34.6638 72.835C34.5289 72.8124 34.3976 72.772 34.2734 72.7149Z" fill="#F3AB98"/>
<path d="M35.7061 75.3315C35.8046 75.2845 35.9098 75.2533 36.018 75.2389C36.118 75.2248 36.2191 75.2206 36.3199 75.2264C36.5192 75.2348 36.7186 75.2398 36.9179 75.2439C37.3166 75.2531 37.7153 75.2565 38.1139 75.2581C38.9171 75.2581 39.7061 75.2648 40.5126 75.2406C41.3192 75.2164 42.119 75.2047 42.9214 75.2081C43.3225 75.2081 43.7237 75.2189 44.124 75.2281C44.3256 75.2308 44.5269 75.2439 44.7271 75.2673C44.9328 75.29 45.1359 75.3328 45.3334 75.3949C45.1405 75.4707 44.9404 75.5265 44.7362 75.5617C44.5374 75.5975 44.3366 75.6215 44.1349 75.6334C43.7329 75.6626 43.3309 75.6877 42.9297 75.7018C42.1257 75.7319 41.3225 75.7285 40.521 75.7394C40.1198 75.7394 39.7195 75.7577 39.3133 75.7477C38.9071 75.7377 38.5051 75.7369 38.1023 75.7218C37.6994 75.7068 37.2949 75.6735 36.8929 75.6318C36.6911 75.6093 36.4909 75.5842 36.2899 75.5567C36.1884 75.5443 36.0885 75.5208 35.9921 75.4866C35.8886 75.4516 35.7919 75.3991 35.7061 75.3315Z" fill="#F3AB98"/>
<path d="M35.417 78.2914C35.5159 78.2332 35.6235 78.191 35.7356 78.1663C35.8402 78.142 35.9469 78.1283 36.0542 78.1255L36.6906 78.0988C37.1151 78.0838 37.5405 78.0713 37.965 78.0646C38.814 78.0521 39.6631 78.0521 40.5105 78.0521C41.3579 78.0521 42.2086 78.0379 43.0577 78.0521C43.4822 78.0596 43.9067 78.0771 44.3312 78.0963C44.5442 78.1034 44.7566 78.1218 44.9676 78.1513C45.1849 78.1811 45.3988 78.2317 45.6065 78.3023C45.3995 78.3716 45.1864 78.421 44.9701 78.4499C44.7589 78.4801 44.5462 78.4988 44.3329 78.5058C43.9084 78.525 43.4839 78.5425 43.0593 78.55C42.2103 78.5667 41.3604 78.555 40.5113 78.55C39.6623 78.545 38.8132 78.545 37.9642 78.5291C37.5396 78.5208 37.1143 78.5058 36.6897 78.4883L36.0534 78.4574C35.946 78.4542 35.8393 78.4402 35.7348 78.4157C35.6229 78.3915 35.5156 78.3496 35.417 78.2914Z" fill="#F3AB98"/>
<path d="M55.3404 74.6626C55.3579 71.5674 55.2394 68.8184 54.6956 66.7067C53.8558 64.5915 52.3453 63.3304 49.6855 63.3304L51.5863 74.55C51.5863 74.55 53.4646 75.404 55.3404 74.6626Z" fill="#F3AB98"/>
<path d="M56.0589 73.7817C55.9636 73.8604 55.86 73.9284 55.75 73.9846" stroke="#592D3D" stroke-width="1.57179" stroke-miterlimit="10" stroke-linecap="square"/>
<path d="M26.0067 66.6165C25.437 68.7492 25.3394 71.5482 25.3611 74.7068C27.0209 75.419 29.5664 74.5274 29.5664 74.5274L31.0118 63.4981C28.4371 63.4955 26.9024 64.6549 26.0067 66.6165Z" fill="#F3AB98"/>
<path d="M49.9986 62.3492H45.4773V62.3576C45.4774 62.7331 45.4371 63.1075 45.3572 63.4744C45.3183 63.6528 45.2699 63.8291 45.212 64.0023C45.0275 64.5198 44.7443 64.9965 44.378 65.406C44.2611 65.5372 44.1357 65.6607 44.0027 65.7755C41.9034 67.2935 38.5672 67.3769 36.5397 65.7271C36.3212 65.5363 36.1225 65.3239 35.9467 65.0932C35.5815 64.6137 35.3227 64.0618 35.1877 63.4744C35.1481 63.2929 35.1184 63.1094 35.0984 62.9247C35.0776 62.7364 35.0673 62.5471 35.0676 62.3576V62.3492H30.5462C30.2526 62.3495 29.9711 62.4663 29.7636 62.674C29.556 62.8816 29.4395 63.1632 29.4395 63.4569V87.2004C29.439 87.3461 29.4673 87.4904 29.5227 87.6251C29.5781 87.7598 29.6596 87.8822 29.7624 87.9854C29.8652 88.0886 29.9873 88.1705 30.1219 88.2265C30.2564 88.2824 30.4006 88.3112 30.5462 88.3113H50.4748C50.7685 88.3111 51.05 88.1943 51.2575 87.9866C51.465 87.7789 51.5816 87.4973 51.5816 87.2037V64.0073C51.5816 62.9881 51.0904 62.3492 49.9986 62.3492Z" fill="#89D86F"/>
<path d="M49.6855 62.3492C54.9851 62.3492 55.8074 67.0199 55.8491 73.4562C54.2978 74.4254 51.7698 73.5655 51.7698 73.5655L49.6855 62.3492Z" fill="#89D86F"/>
<path d="M51.5822 68.4503L49.6855 71.6305L50.6347 82.4731H51.603V73.6614L53.0442 73.9024C52.5713 67.8831 51.5822 68.4503 51.5822 68.4503Z" fill="#7DC462"/>
<path d="M31.0131 62.3492C25.8604 62.3492 24.6886 66.8364 24.6035 72.9966C26.1882 74.653 29.441 73.3786 29.441 73.3786L31.0131 62.3492Z" fill="#89D86F"/>
<path d="M29.4359 68.4503V73.382L27.9922 73.7415C28.4651 67.8932 29.4359 68.4503 29.4359 68.4503Z" fill="#7DC462"/>
<path d="M49.6855 62.3492C55.3078 62.3492 56.2286 67.0441 56.2661 73.5071C54.081 74.5438 51.7698 73.5655 51.7698 73.5655" stroke="#592D3D" stroke-width="1.57179" stroke-miterlimit="10" stroke-linecap="square"/>
<path d="M31.0131 62.3492C25.4425 62.3492 24.3341 66.9115 24.2773 73.2519C25.9988 74.4846 29.4367 73.382 29.4367 73.382" stroke="#592D3D" stroke-width="1.57179" stroke-miterlimit="10" stroke-linecap="square"/>
<path d="M30.5462 88.3118H40.2728C31.1693 88.3118 31.8565 69.0304 29.4395 69.0304V87.2009C29.439 87.3465 29.4673 87.4908 29.5227 87.6255C29.5781 87.7603 29.6596 87.8827 29.7624 87.9859C29.8652 88.0891 29.9873 88.171 30.1219 88.2269C30.2564 88.2828 30.4006 88.3117 30.5462 88.3118Z" fill="#7DC462"/>
<path d="M28.9379 70.8677C28.9221 70.5616 28.9288 70.2556 28.9421 69.9503C28.9555 69.645 28.9813 69.3373 29.0138 69.0328C29.0305 68.8794 29.0472 68.7268 29.068 68.5733C29.0889 68.4198 29.1089 68.2672 29.1389 68.1137C29.1981 67.7961 29.2988 67.4877 29.4384 67.1963C29.5781 67.4875 29.6785 67.796 29.737 68.1137C29.7678 68.2672 29.7895 68.4198 29.8087 68.5733C29.8279 68.7268 29.8462 68.8794 29.8629 69.0328C29.8946 69.3389 29.9196 69.645 29.9338 69.9503C29.948 70.2556 29.9546 70.5625 29.9388 70.8677H28.9379Z" fill="#592D3D"/>
<path d="M51.5807 71.6312V72.2984C51.6023 75.1342 51.6023 78.0533 51.5807 80.8682C51.5807 81.1076 51.5807 81.3453 51.5807 81.5797V87.2019C51.581 87.3475 51.5526 87.4918 51.4971 87.6264C51.4417 87.761 51.3602 87.8833 51.2574 87.9865C51.1546 88.0896 51.0325 88.1714 50.8981 88.2273C50.7636 88.2831 50.6195 88.3119 50.4739 88.312H30.5453C30.2517 88.3118 29.9701 88.195 29.7626 87.9873C29.5551 87.7796 29.4385 87.498 29.4385 87.2044V82.3503C29.4385 82.141 29.4385 81.9275 29.4385 81.7123C29.4176 78.804 29.4176 75.8848 29.4385 72.9298V70.868" stroke="#592D3D" stroke-width="1.57179" stroke-miterlimit="10"/>
<path d="M51.0812 71.6301C51.0653 71.2823 51.0729 70.9336 51.0862 70.585C51.0995 70.2364 51.1254 69.8886 51.1571 69.5399C51.1738 69.3656 51.1913 69.1913 51.2113 69.017C51.2313 68.8427 51.2522 68.6692 51.283 68.4949C51.3404 68.1359 51.4407 67.785 51.5816 67.4498C51.7224 67.7851 51.8229 68.1359 51.881 68.4949C51.9111 68.6692 51.9328 68.8435 51.9519 69.017C51.9711 69.1905 51.9895 69.3656 52.0061 69.5399C52.0378 69.8886 52.0637 70.2364 52.077 70.585C52.0904 70.9336 52.0979 71.2823 52.082 71.6301H51.0812Z" fill="#592D3D"/>
<path d="M30.5449 62.3576L49.9973 62.3492" stroke="#592D3D" stroke-width="1.57179" stroke-miterlimit="10"/>
<path d="M45.4771 62.358C45.4772 62.7335 45.4369 63.1079 45.357 63.4748C45.3181 63.6533 45.2697 63.8295 45.2118 64.0028C45.0273 64.5202 44.7441 64.997 44.3778 65.4065C44.2609 65.5377 44.1355 65.6611 44.0025 65.7759C41.9032 67.2939 38.567 67.3773 36.5395 65.7276C36.321 65.5367 36.1224 65.3244 35.9465 65.0937C35.5813 64.6141 35.3225 64.0623 35.1875 63.4748C35.148 63.2933 35.1182 63.1099 35.0982 62.9252C35.0774 62.7369 35.0671 62.5475 35.0674 62.358" stroke="#592D3D" stroke-width="1.57179" stroke-miterlimit="10"/>
<path d="M40.7938 68.1603C40.2892 68.2617 39.773 68.2926 39.26 68.252C38.7423 68.2156 38.2317 68.1101 37.742 67.9384C37.2493 67.7695 36.7853 67.5265 36.3658 67.2178L36.2107 67.1002C36.1598 67.0602 36.1106 67.0168 36.0614 66.9734C35.9623 66.8891 35.8695 66.7976 35.7837 66.6999C35.6125 66.5075 35.462 66.2975 35.335 66.0735C35.5134 66.2524 35.701 66.422 35.8971 66.5814C35.9455 66.6215 35.9947 66.6607 36.0431 66.6982C36.0914 66.7357 36.1456 66.7666 36.1965 66.8016C36.2474 66.8366 36.2983 66.8717 36.3508 66.9042L36.5101 67.0009C36.9356 67.253 37.3855 67.4615 37.8529 67.6231C38.3213 67.7869 38.8025 67.9111 39.2917 67.9943C39.7891 68.0757 40.2905 68.1311 40.7938 68.1603Z" fill="#592D3D"/>
<path d="M24.4824 73.5074C24.5773 73.594 24.6802 73.6714 24.7896 73.7387" stroke="#592D3D" stroke-width="1.57179" stroke-miterlimit="10" stroke-linecap="square"/>
<path d="M55.0814 72.6892C54.9079 72.7931 54.7168 72.8643 54.5176 72.8994C54.3199 72.9382 54.1186 72.9564 53.9171 72.9536C53.7159 72.9497 53.5155 72.9276 53.3182 72.8877C53.2198 72.8702 53.1239 72.841 53.0272 72.8152C52.9304 72.7893 52.8378 72.7509 52.7461 72.7117C52.847 72.7117 52.9446 72.7267 53.043 72.7351L53.3366 72.7593C53.4342 72.7593 53.5309 72.7759 53.6285 72.7768C53.7261 72.7776 53.822 72.786 53.9188 72.7868C54.1134 72.7901 54.308 72.7848 54.5026 72.7709C54.6972 72.7575 54.8907 72.7301 55.0814 72.6892Z" fill="#592D3D"/>
<path d="M27.254 48.2812C28.2195 48.2812 29.0022 47.4985 29.0022 46.5331C29.0022 45.5676 28.2195 44.7849 27.254 44.7849C26.2885 44.7849 25.5059 45.5676 25.5059 46.5331C25.5059 47.4985 26.2885 48.2812 27.254 48.2812Z" fill="#592D3D"/>
<path d="M27.2427 47.9442C27.392 47.9359 27.5588 47.9226 27.7181 47.9059C27.8774 47.8892 28.0401 47.8692 28.2011 47.8442C28.362 47.8191 28.5238 47.7899 28.6856 47.7608C28.8474 47.7316 29.0126 47.704 29.1861 47.6915C29.0498 47.7964 28.9011 47.8838 28.7432 47.9518C28.5861 48.0174 28.4251 48.0731 28.2611 48.1186C28.0968 48.1665 27.9296 48.2044 27.7607 48.232C27.5888 48.262 27.4147 48.2771 27.2402 48.277L27.2427 47.9442Z" fill="#592D3D"/>
<path d="M54.003 48.2812C54.9685 48.2812 55.7512 47.4985 55.7512 46.5331C55.7512 45.5676 54.9685 44.7849 54.003 44.7849C53.0376 44.7849 52.2549 45.5676 52.2549 46.5331C52.2549 47.4985 53.0376 48.2812 54.003 48.2812Z" fill="#592D3D"/>
<path d="M54.0017 47.9442C54.1518 47.9359 54.3178 47.9226 54.4771 47.9059C54.6364 47.8892 54.7998 47.8692 54.9608 47.8442C55.1218 47.8191 55.2836 47.7899 55.4454 47.7608C55.6072 47.7316 55.7723 47.704 55.9458 47.6915C55.8095 47.7962 55.6607 47.8836 55.5029 47.9518C55.3459 48.0174 55.1849 48.0731 55.0209 48.1186C54.8565 48.1664 54.6894 48.2043 54.5204 48.232C54.3486 48.262 54.1745 48.2771 54 48.277L54.0017 47.9442Z" fill="#592D3D"/>
<path d="M40.486 57.1917C42.9711 57.1917 44.9856 55.1771 44.9856 52.692C44.9856 50.2069 42.9711 48.1924 40.486 48.1924C38.0009 48.1924 35.9863 50.2069 35.9863 52.692C35.9863 55.1771 38.0009 57.1917 40.486 57.1917Z" fill="#592D3D"/>
<path d="M39.7782 54.3984C38.6047 54.1173 37.4745 54.4818 36.9883 55.2216C37.4545 55.9273 38.1304 56.469 38.9207 56.7704C39.711 57.0717 40.576 57.1175 41.3937 56.9013C41.5639 56.8565 41.7311 56.8008 41.8941 56.7345C42.0067 55.7328 41.1018 54.7145 39.7782 54.3984Z" fill="#F28195"/>
<path d="M38.7295 53.4482H38.7962H38.8504C38.8863 53.4482 38.9205 53.4482 38.9547 53.4532C39.0231 53.4583 39.0911 53.468 39.1582 53.4824C39.2946 53.5091 39.4273 53.552 39.5535 53.61C39.8185 53.7289 40.0438 53.9214 40.2024 54.1647C40.3521 54.3952 40.4323 54.6639 40.4334 54.9387C40.4331 55.1916 40.3547 55.4383 40.2091 55.6451C40.1007 55.4149 40.0223 55.2114 39.933 55.0371C39.8935 54.9543 39.8484 54.8743 39.7979 54.7977C39.7512 54.73 39.6966 54.6681 39.6353 54.6134C39.5186 54.5116 39.3816 54.4359 39.2333 54.3915C39.1552 54.3677 39.0759 54.3485 38.9956 54.334C38.9547 54.3282 38.9121 54.3207 38.8729 54.3156L38.8121 54.3098H38.7845C38.7779 54.3098 38.7629 54.3098 38.7687 54.3098L38.7295 53.4482Z" fill="#592D3D"/>
<path d="M40.486 57.1917C42.9711 57.1917 44.9856 55.1771 44.9856 52.692C44.9856 50.2069 42.9711 48.1924 40.486 48.1924C38.0009 48.1924 35.9863 50.2069 35.9863 52.692C35.9863 55.1771 38.0009 57.1917 40.486 57.1917Z" stroke="#592D3D" stroke-width="1.04786" stroke-miterlimit="10"/>
<path d="M33.9642 19.4662C26.7614 21.8899 20.808 27.9884 19.2467 34.916C16.5727 45.47 20.7338 51.9472 24.4269 55.9172C24.7914 56.3092 18.6336 44.3857 24.2242 35.8168C29.3202 35.6233 36.9367 34.6174 40.5531 30.574C40.1911 32.3363 39.1753 33.6816 39.3421 33.9469C39.5823 34.323 42.5273 33.4856 43.3322 31.9835L43.4014 31.6824C46.2972 32.7317 51.0546 33.9001 55.4116 32.2337C65.682 43.7685 56.4642 56.5344 57.2156 55.7004C60.9256 51.6139 62.9777 46.2904 62.9705 40.771C62.9705 33.5632 59.2774 28.3529 59.2774 28.3529C56.7319 23.8149 52.3115 20.6906 47.2004 19.2527" fill="white"/>
<path d="M26.0523 35.7158C26.501 31.3604 28.1374 26.3328 31.4486 20.5446C31.2223 20.6491 30.9982 20.757 30.7763 20.8682L30.7271 20.8924C30.6254 20.9432 30.5236 20.9958 30.4227 21.0492L30.3393 21.0934C30.0257 21.2602 29.7163 21.4334 29.411 21.613L29.3359 21.6572C29.2392 21.7147 29.1433 21.7731 29.0474 21.8323L28.9756 21.8774C28.677 22.0636 28.3835 22.2563 28.0949 22.4553L28.0048 22.5179C27.9147 22.5813 27.8247 22.6447 27.7354 22.7089L27.6812 22.7481C27.4994 22.881 27.3195 23.0155 27.1416 23.1518L27.0899 23.1918C27.0065 23.2569 26.9231 23.3236 26.8397 23.3911L26.7412 23.4695C26.6578 23.5371 26.5744 23.6047 26.491 23.6739C26.315 23.8198 26.1424 23.97 25.9706 24.1218L25.8755 24.2052L25.6511 24.4095L25.541 24.5079C25.3036 24.7303 25.0709 24.9575 24.843 25.1893L24.7287 25.3069C24.662 25.3753 24.5961 25.4437 24.531 25.5129L24.4168 25.6364C24.3028 25.7609 24.1902 25.8852 24.079 26.0092C24.0406 26.0517 24.0022 26.0926 23.9647 26.1376C23.9055 26.2052 23.8471 26.2736 23.7887 26.3428C23.7462 26.392 23.7053 26.4412 23.6628 26.4913C23.6061 26.5588 23.5494 26.6264 23.496 26.6948C23.4509 26.7498 23.4067 26.8057 23.3617 26.8616C23.2733 26.9725 23.1857 27.0835 23.099 27.1952C23.0531 27.2536 23.0081 27.312 22.9639 27.3712C22.9197 27.4304 22.8638 27.5038 22.8146 27.5714L22.6819 27.7532C22.6352 27.8182 22.5877 27.8825 22.5418 27.9475C22.4634 28.0593 22.385 28.1719 22.3083 28.2853C22.2666 28.3462 22.2249 28.4087 22.1849 28.4705C22.1448 28.5322 22.0923 28.6089 22.0472 28.679C22.0022 28.749 21.9638 28.8074 21.9238 28.8716C21.8838 28.9359 21.8296 29.0218 21.7829 29.0977C21.747 29.1552 21.7111 29.2128 21.6761 29.2703C21.6027 29.3921 21.5304 29.5144 21.4592 29.6373C21.4242 29.6973 21.3908 29.7574 21.3567 29.8174C21.3116 29.8967 21.2666 29.9767 21.2224 30.0568C21.189 30.1177 21.1557 30.1786 21.1231 30.2395C21.0697 30.3387 21.0172 30.4388 20.9655 30.5389C20.9313 30.6039 20.8979 30.669 20.8646 30.7341C20.8112 30.8408 20.7578 30.9467 20.7061 31.0543C20.6777 31.1119 20.6502 31.1703 20.6227 31.2286C20.5793 31.3196 20.5393 31.4113 20.4943 31.503L20.4184 31.6699C20.3566 31.8072 20.2963 31.9462 20.2374 32.0869C20.219 32.1302 20.2015 32.1744 20.1832 32.2178C20.139 32.3237 20.0998 32.4297 20.053 32.5364C20.0314 32.5923 20.0088 32.6482 19.9872 32.7032C19.9463 32.8083 19.9038 32.9142 19.8662 33.0202L19.8153 33.1578C19.7597 33.304 19.708 33.4503 19.6602 33.5965L19.6135 33.7383C19.5768 33.8495 19.5409 33.9607 19.5059 34.0719C19.4892 34.1244 19.4726 34.1778 19.4567 34.2312C19.4167 34.3596 19.3783 34.4884 19.3416 34.6174C19.3333 34.6449 19.3249 34.6724 19.3174 34.7008C19.2741 34.8542 19.2323 35.0082 19.1923 35.1628L19.1548 35.3113C19.1389 35.373 19.1239 35.4356 19.1089 35.4981C18.9788 36.0561 18.8687 36.6015 18.7753 37.1362C18.767 37.1904 18.7569 37.2446 18.7486 37.2988L18.7286 37.4247C18.7036 37.5882 18.6808 37.752 18.6602 37.916C18.6552 37.9519 18.651 37.9886 18.6468 38.0244C18.6302 38.157 18.6152 38.2905 18.601 38.4239L18.586 38.5749C18.5718 38.715 18.5593 38.856 18.5484 38.9969L18.5409 39.0803C18.5281 39.2471 18.5176 39.4153 18.5092 39.5849C18.5092 39.6291 18.5051 39.6742 18.5026 39.7184C18.4964 39.8496 18.4914 39.9805 18.4875 40.1112C18.4875 40.1604 18.4875 40.2096 18.4834 40.2588C18.4834 40.4298 18.4775 40.6016 18.4775 40.7734V40.7818C18.4775 40.9658 18.4798 41.1499 18.4842 41.3339C18.4842 41.3973 18.4892 41.4607 18.4909 41.5241C18.4951 41.6467 18.4992 41.7693 18.5051 41.8919C18.5092 41.9661 18.5142 42.0395 18.5184 42.1137C18.5251 42.2247 18.5318 42.3356 18.5393 42.4474C18.5451 42.5308 18.5526 42.605 18.5593 42.6834C18.5685 42.7885 18.5768 42.8936 18.5876 42.9978C18.5951 43.0812 18.6051 43.1596 18.6135 43.2405C18.6252 43.3414 18.636 43.4432 18.6485 43.5441C18.6585 43.6275 18.6702 43.7109 18.681 43.7902C18.6944 43.8886 18.7086 43.9878 18.7227 44.0862C18.7353 44.1697 18.7486 44.2531 18.7619 44.3365C18.7778 44.4332 18.7928 44.5308 18.8103 44.6275C18.8245 44.7109 18.8395 44.7943 18.8554 44.8778C18.8729 44.9737 18.8912 45.0696 18.9104 45.1647C18.9296 45.2597 18.9438 45.3315 18.9613 45.4149C18.9813 45.51 19.0013 45.6042 19.023 45.6985C19.0447 45.7927 19.0605 45.8653 19.0797 45.9428C19.1014 46.0371 19.1248 46.1305 19.1481 46.2231C19.1715 46.3156 19.189 46.3857 19.2107 46.4658C19.2349 46.5592 19.2599 46.6518 19.2857 46.7443C19.3082 46.8277 19.3299 46.9045 19.3533 46.9837C19.38 47.0763 19.4075 47.168 19.4367 47.2598C19.4659 47.3515 19.4842 47.4174 19.5093 47.4967C19.5343 47.5759 19.5685 47.6793 19.5985 47.7702C19.6243 47.8478 19.6494 47.9262 19.6761 48.0037L19.772 48.2765L19.8554 48.505C19.8896 48.5959 19.9246 48.6868 19.9596 48.7777C19.988 48.852 20.0163 48.927 20.043 49.0013C20.0797 49.0922 20.1173 49.1839 20.1548 49.2748C20.1848 49.3466 20.214 49.4191 20.2449 49.4908C20.2849 49.5843 20.3283 49.676 20.3666 49.7686C20.3967 49.8378 20.4267 49.9062 20.4576 49.9746C20.5009 50.0713 20.5468 50.1664 20.5918 50.2615C20.6219 50.3257 20.6511 50.3899 20.6819 50.4533C20.732 50.5584 20.7845 50.6618 20.837 50.7661L20.9163 50.9246C21.0764 51.2365 21.2432 51.5443 21.4167 51.8479C21.4467 51.8996 21.4776 51.9504 21.5076 52.0013C21.566 52.1014 21.6235 52.2015 21.6836 52.2999C21.7203 52.36 21.7578 52.4183 21.7945 52.4784C21.8496 52.5676 21.9046 52.6569 21.9613 52.7444C22.0014 52.8078 22.0447 52.8696 22.0839 52.9313C22.1382 53.0147 22.1932 53.0981 22.2507 53.1815C22.2933 53.2449 22.3342 53.3083 22.3809 53.3717C22.4359 53.4551 22.491 53.5318 22.5477 53.6119C22.5927 53.6761 22.6394 53.7395 22.6853 53.8037C22.7312 53.8679 22.797 53.958 22.8521 54.0347C22.9071 54.1114 22.948 54.1623 22.9955 54.2257L23.1682 54.4509C23.2174 54.5143 23.2674 54.5768 23.3175 54.6394C23.3675 54.702 23.4351 54.7862 23.4943 54.8587C23.5535 54.9313 23.5969 54.983 23.6486 55.0447C23.7003 55.1065 23.7687 55.1882 23.8296 55.2591C23.8905 55.33 23.9355 55.3817 23.9889 55.4426L24.1741 55.6511C24.2283 55.712 24.2833 55.7712 24.3409 55.8312L24.4368 55.9355C24.6786 56.0956 18.6894 44.3173 24.2274 35.8284C24.8046 35.795 25.4134 35.7625 26.0523 35.7158Z" fill="#E2E2E2"/>
<path d="M53.6827 30.6735C53.6827 30.6735 53.5076 32.4091 49.46 33.0271C51.3874 33.1606 53.4417 32.9888 55.4134 32.234C55.6819 32.535 53.6827 30.6735 53.6827 30.6735Z" fill="#E2E2E2"/>
<path d="M24.2255 35.8504C24.2255 35.8504 23.3081 35.9455 21.6592 35.6927L24.2255 35.8504Z" fill="white"/>
<path d="M24.2761 36.3506C24.2336 36.3573 24.2086 36.3598 24.1769 36.3631C24.1452 36.3665 24.1177 36.369 24.0876 36.3715C24.0292 36.3715 23.9717 36.3781 23.9141 36.3781C23.7999 36.3781 23.6865 36.3781 23.5739 36.3648C23.3494 36.3457 23.1265 36.3117 22.9066 36.2631C22.7974 36.2389 22.6889 36.2138 22.5813 36.1796C22.4728 36.1517 22.3661 36.1169 22.2619 36.0754C22.0377 35.9877 21.8324 35.8577 21.6572 35.6926C21.767 35.6367 21.8818 35.5912 22 35.5566C22.1081 35.5243 22.2181 35.4989 22.3295 35.4807C22.5455 35.4457 22.7565 35.4348 22.9667 35.4148C23.1769 35.3948 23.3837 35.3823 23.588 35.3706C23.6898 35.364 23.7915 35.3606 23.8908 35.3564H24.0393C24.0634 35.3564 24.0885 35.3564 24.111 35.3564C24.1335 35.3564 24.161 35.3564 24.1719 35.3564L24.2761 36.3506Z" fill="#592D3D"/>
<path d="M55.2722 32.1132C55.2722 32.1132 54.3789 30.9206 51.9043 29.5277L55.2722 32.1132Z" fill="white"/>
<path d="M54.8682 32.4122L54.7206 32.2529L54.5538 32.0761C54.4379 31.9585 54.3186 31.8384 54.1976 31.7216C53.9541 31.4864 53.7014 31.2529 53.447 31.0211C53.1926 30.7892 52.9216 30.5673 52.6605 30.3271C52.5304 30.207 52.3995 30.0844 52.2743 29.9501C52.1425 29.8171 52.0202 29.675 51.9082 29.5248C52.0957 29.5475 52.2812 29.5849 52.4628 29.6365C52.6396 29.6892 52.8134 29.7515 52.9833 29.8234C53.1501 29.8976 53.3169 29.976 53.4762 30.0661C53.6355 30.1561 53.7965 30.2437 53.9533 30.3405C54.2688 30.5329 54.5706 30.7469 54.8565 30.981C54.9992 31.102 55.1426 31.2237 55.2736 31.3588C55.342 31.4247 55.4078 31.4948 55.4729 31.5674C55.5054 31.6049 55.538 31.6399 55.5696 31.6799C55.6013 31.72 55.6297 31.7542 55.6714 31.8126L54.8682 32.4122Z" fill="#592D3D"/>
<path d="M33.9642 19.4662C26.7614 21.8899 20.808 27.9884 19.2467 34.916C16.5727 45.47 20.7338 51.9472 24.4269 55.9172C24.7914 56.3092 18.6336 44.3857 24.2242 35.8168C29.3202 35.6233 36.9367 34.6174 40.5531 30.574C40.1911 32.3363 39.1753 33.6816 39.3421 33.9469C39.5823 34.323 42.5273 33.4856 43.3322 31.9835L43.4014 31.6824C46.2972 32.7317 51.0546 33.9001 55.4116 32.2337C65.682 43.7685 56.4642 56.5344 57.2156 55.7004C60.9256 51.6139 62.9777 46.2904 62.9705 40.771C62.9705 33.5632 59.2774 28.3529 59.2774 28.3529C56.7319 23.8149 52.3115 20.6906 47.2004 19.2527" stroke="#592D3D" stroke-width="1.57179" stroke-miterlimit="10"/>
<path d="M42.1882 19.8512C41.0002 19.9193 39.8172 20.0566 38.6452 20.2624C38.3541 20.3191 38.0613 20.3808 37.7744 20.4342C37.4875 20.4876 37.1989 20.5685 36.9112 20.6352L36.0546 20.8621C35.7719 20.9455 35.4908 21.0356 35.2089 21.1215C34.0842 21.4841 32.9855 21.9227 31.9203 22.4342C30.8497 22.9538 29.8121 23.5387 28.8135 24.1857C29.7029 23.3741 30.6849 22.6703 31.7393 22.089C32.7941 21.4991 33.9049 21.0158 35.0555 20.6461C35.3449 20.5627 35.6334 20.4726 35.9245 20.3917C36.2156 20.3108 36.5084 20.2399 36.8036 20.1757C37.0989 20.1114 37.3958 20.0581 37.6927 20.0088C37.9896 19.9596 38.289 19.9188 38.5885 19.8821C39.7833 19.7346 40.991 19.7243 42.1882 19.8512Z" fill="white"/>
<path d="M42.998 18.571C43.42 18.4701 43.8519 18.4164 44.2858 18.4109C44.4993 18.4059 44.712 18.4109 44.9255 18.4217C45.139 18.4326 45.3525 18.4467 45.5661 18.4651C45.9959 18.5023 46.4233 18.5636 46.8463 18.6486C47.2745 18.7318 47.6952 18.8501 48.1041 19.0022L47.7788 19.9489C47.3943 19.8338 47.0081 19.717 46.6161 19.6094C46.2241 19.5018 45.828 19.4001 45.4276 19.3L44.8229 19.1532C44.6203 19.1056 44.4168 19.0573 44.2141 19.0022C43.7965 18.8957 43.3895 18.7514 42.998 18.571Z" fill="#592D3D"/>
<path d="M33.208 19.2101C33.5785 19.0669 33.959 18.9512 34.3465 18.864C34.732 18.776 35.1217 18.7078 35.5141 18.6597C35.7093 18.6363 35.9045 18.6155 36.098 18.6004C36.2915 18.5854 36.4891 18.5729 36.6818 18.5721C37.0825 18.566 37.4823 18.6103 37.872 18.7039C37.5218 18.89 37.1552 19.0436 36.7769 19.1626C36.5942 19.2235 36.4107 19.2769 36.2272 19.3294L35.6809 19.4904C35.319 19.6005 34.9578 19.7072 34.6017 19.824C34.2456 19.9408 33.8911 20.0508 33.535 20.1576L33.208 19.2101Z" fill="#592D3D"/>
<path d="M41.7009 19.0101C41.97 19.0101 42.188 18.792 42.188 18.523C42.188 18.254 41.97 18.0359 41.7009 18.0359C41.4319 18.0359 41.2139 18.254 41.2139 18.523C41.2139 18.792 41.4319 19.0101 41.7009 19.0101Z" fill="#592D3D"/>
<path d="M40.3412 18.8653C40.5307 18.8653 40.6844 18.7116 40.6844 18.5221C40.6844 18.3326 40.5307 18.179 40.3412 18.179C40.1517 18.179 39.998 18.3326 39.998 18.5221C39.998 18.7116 40.1517 18.8653 40.3412 18.8653Z" fill="#592D3D"/>
<path d="M48.9246 37.4823C49.8456 37.2475 50.7786 37.0623 51.7195 36.9276L51.4976 36.9568C52.5969 36.8117 53.7112 36.7692 54.8129 36.9168L54.5911 36.8868C54.8638 36.9251 55.1366 36.9702 55.4101 37.0052L55.1883 36.9752C56.0185 37.089 56.84 37.2592 57.647 37.4848C58.064 37.6007 58.5728 37.3405 58.6729 36.9009C58.7274 36.6876 58.697 36.4615 58.5881 36.2701C58.4792 36.0788 58.3003 35.9371 58.0891 35.8751C57.1426 35.6159 56.1784 35.4269 55.2041 35.3096L55.426 35.3396C54.5059 35.1763 53.5698 35.1217 52.6369 35.177C51.7091 35.2379 50.7869 35.3647 49.8771 35.5565C49.4084 35.6507 48.943 35.7591 48.4792 35.8734C48.0555 35.9777 47.7603 36.4789 47.8954 36.8993C47.9575 37.1105 48.0991 37.2894 48.2904 37.3983C48.4818 37.5072 48.708 37.5376 48.9213 37.4831L48.9246 37.4823Z" fill="#592D3D"/>
<path d="M22.673 37.4846C23.4724 37.2527 24.2878 37.0801 25.1126 36.9684L24.8908 36.9984C26.3133 36.8121 27.7541 36.8144 29.1761 37.0051L28.9542 36.9759C29.7837 37.089 30.6044 37.259 31.4105 37.4846C31.8275 37.6014 32.3363 37.3404 32.4363 36.9008C32.4909 36.6875 32.4605 36.4613 32.3516 36.27C32.2427 36.0786 32.0638 35.937 31.8525 35.8749C30.6479 35.5398 29.413 35.3247 28.166 35.2327C26.1638 35.1024 24.154 35.32 22.226 35.8758C22.0169 35.9363 21.8383 36.0732 21.7256 36.2594C21.6142 36.4541 21.5842 36.685 21.6422 36.9016C21.7798 37.3278 22.2185 37.6139 22.668 37.4855L22.673 37.4846Z" fill="#592D3D"/>
<path d="M39.7969 16.1352C41.984 16.1352 43.757 14.3622 43.757 12.1751C43.757 9.98806 41.984 8.21509 39.7969 8.21509C37.6099 8.21509 35.8369 9.98806 35.8369 12.1751C35.8369 14.3622 37.6099 16.1352 39.7969 16.1352Z" fill="white"/>
<path d="M39.797 16.1353C40.3867 16.1355 40.969 16.0041 41.5014 15.7504C42.0338 15.4968 42.5029 15.1275 42.8742 14.6694C43.2456 14.2112 43.51 13.676 43.648 13.1026C43.786 12.5293 43.7942 11.9323 43.6719 11.3554C41.1047 10.9575 38.4425 11.1886 35.8511 11.8558C35.8428 11.9609 35.8369 12.0668 35.8369 12.1744C35.8368 12.6945 35.9392 13.2096 36.1381 13.6901C36.3371 14.1707 36.6288 14.6073 36.9965 14.9751C37.3642 15.3429 37.8008 15.6347 38.2813 15.8338C38.7618 16.0328 39.2768 16.1353 39.797 16.1353Z" fill="#E2E2E2"/>
<path d="M39.7969 16.1352C41.984 16.1352 43.757 14.3622 43.757 12.1751C43.757 9.98806 41.984 8.21509 39.7969 8.21509C37.6099 8.21509 35.8369 9.98806 35.8369 12.1751C35.8369 14.3622 37.6099 16.1352 39.7969 16.1352Z" stroke="#592D3D" stroke-width="1.57179" stroke-miterlimit="10"/>
<path d="M18.8467 34.36C18.8457 32.7459 19.0287 31.1369 19.3921 29.5643C19.4639 29.2557 19.542 28.9499 19.6265 28.6468C19.8684 25.9529 21.2946 23.731 23.2012 21.7468C23.5982 21.429 23.6775 20.7151 24.0745 20.3181C25.4239 19.1279 26.6141 17.9369 28.1221 16.9819C34.3123 13.0135 42.4868 10.8709 49.0741 14.5215C50.4227 15.2354 51.9307 15.6324 53.0416 16.5849C55.1851 18.4098 56.6922 20.5533 58.8357 22.2989C60.7398 23.8836 61.0576 26.4258 61.7332 28.6435C61.8182 28.946 61.8964 29.2518 61.9675 29.5609C62.331 31.1336 62.514 32.7426 62.513 34.3567L18.8467 34.36Z" fill="white"/>
<path d="M19.3921 29.564C19.0287 31.1366 18.8457 32.7456 18.8467 34.3597H25.7692C25.6391 27.6323 23.9127 22.0142 32.6701 15.1659C26.3881 17.5504 20.6641 22.7874 19.3921 29.564Z" fill="#E2E2E2"/>
<path d="M20.3413 25.8516C19.9563 26.7394 19.7151 27.6829 19.6265 28.6465C19.542 28.949 19.4639 29.2548 19.3921 29.5639C19.0287 31.1366 18.8457 32.7456 18.8467 34.3597H35.5317C39.0736 34.0857 42.6314 34.0857 46.1733 34.3597H62.513C62.514 32.7456 62.331 31.1366 61.9675 29.5639C61.8958 29.2553 61.8177 28.9495 61.7332 28.6465C61.4446 27.6982 61.2202 26.6915 60.9108 25.7273C47.4085 20.7314 33.7544 20.8373 20.3413 25.8516Z" fill="#E2E2E2"/>
<path d="M18.8467 34.36C18.8457 32.7459 19.0287 31.1369 19.3921 29.5643C19.4639 29.2557 19.542 28.9499 19.6265 28.6468C19.8684 25.9529 21.2946 23.731 23.2012 21.7468C23.5982 21.429 23.6775 20.7151 24.0745 20.3181C25.4239 19.1279 26.6141 17.9369 28.1221 16.9819C34.3123 13.0135 42.4868 10.8709 49.0741 14.5215C50.4227 15.2354 51.9307 15.6324 53.0416 16.5849C55.1851 18.4098 56.6922 20.5533 58.8357 22.2989C60.7398 23.8836 61.0576 26.4258 61.7332 28.6435C61.8182 28.946 61.8964 29.2518 61.9675 29.5609C62.331 31.1336 62.514 32.7426 62.513 34.3567L18.8467 34.36Z" stroke="#592D3D" stroke-width="1.57179" stroke-miterlimit="10"/>
<path d="M17.6035 28.7964C32.9015 22.2909 48.5581 22.2025 63.9713 28.7964C65.4333 29.4219 65.425 40.4622 63.9713 39.9567C48.9193 34.7164 33.0008 34.6605 17.6035 39.9567C15.7719 40.5864 15.9504 29.4995 17.6035 28.7964Z" fill="white"/>
<path d="M61.4717 36.0765C61.5407 36.3465 61.5785 36.6236 61.5843 36.9022C61.5918 37.175 61.5751 37.446 61.5626 37.7179L61.5326 38.1241C61.5192 38.2592 61.5059 38.3943 61.4892 38.5286C61.4558 38.798 61.415 39.0657 61.3566 39.3301L60.7002 39.2125C60.7369 38.9481 60.7836 38.6863 60.837 38.4244L60.9204 38.0315L61.0038 37.6395C61.0655 37.3785 61.118 37.1166 61.1889 36.8555C61.259 36.5877 61.3537 36.327 61.4717 36.0765Z" fill="#592D3D"/>
<path d="M61.3528 27.6324C61.4828 28.1547 61.5839 28.6837 61.6556 29.2171C61.6915 29.4832 61.7207 29.7501 61.7465 30.017C61.7724 30.2839 61.7874 30.5524 61.8016 30.8202C61.8232 31.3556 61.8324 31.8911 61.8066 32.4257C61.7834 32.9618 61.7151 33.495 61.6022 34.0195C61.5188 33.4866 61.4629 32.9603 61.4087 32.4349C61.3545 31.9094 61.3078 31.3881 61.2377 30.8685C61.2052 30.6083 61.1685 30.3498 61.1293 30.0912C61.0901 29.8327 61.0459 29.5749 61.0025 29.318C60.9133 28.8034 60.8107 28.293 60.7031 27.7826L61.3528 27.6324Z" fill="#592D3D"/>
<path d="M54.5859 25.925C55.2165 29.5006 55.1456 33.3889 54.5859 37.4957" stroke="#592D3D" stroke-width="1.04786" stroke-miterlimit="10"/>
<path d="M48.7002 24.7246C49.1297 28.3027 49.0814 32.1935 48.7002 36.3036" stroke="#592D3D" stroke-width="1.04786" stroke-miterlimit="10"/>
<path d="M43.3329 28.8C43.4334 29.3705 43.4994 29.9465 43.5305 30.5248C43.5639 31.1003 43.5739 31.6758 43.5848 32.2522V33.1162C43.5848 33.404 43.5848 33.6917 43.5748 33.9795C43.5622 34.5549 43.5414 35.1304 43.5022 35.7051L42.835 35.6717C42.8533 35.0987 42.8825 34.5266 42.9134 33.9544L43.0143 32.2388C43.0526 31.6667 43.0827 31.0937 43.1269 30.5207C43.1711 29.9477 43.2361 29.3747 43.3329 28.8Z" fill="#592D3D"/>
<path d="M43.5081 24.0808C43.5255 24.2568 43.5332 24.4336 43.5314 24.6104C43.5314 24.6988 43.5273 24.7872 43.5248 24.8757L43.5139 25.1417C43.4997 25.3185 43.4872 25.4962 43.4572 25.6738C43.4266 25.8598 43.3682 26.04 43.2837 26.2085C43.1838 26.0477 43.108 25.8732 43.0585 25.6905C43.011 25.517 42.981 25.3436 42.9493 25.1692L42.9084 24.909C42.8976 24.8214 42.8851 24.7347 42.8759 24.648C42.8561 24.4738 42.8464 24.2986 42.8467 24.1233L43.5081 24.0808Z" fill="#592D3D"/>
<path d="M37.8223 24.0614C37.8515 27.6478 37.8481 31.5403 37.8223 35.6546" stroke="#592D3D" stroke-width="1.04786" stroke-miterlimit="10"/>
<path d="M32.4519 24.6056C32.28 28.192 32.2992 32.0895 32.4519 36.208" stroke="#592D3D" stroke-width="1.04786" stroke-miterlimit="10"/>
<path d="M26.6127 31.7344C26.7126 32.1966 26.788 32.6637 26.8387 33.1339C26.8913 33.6001 26.9296 34.0655 26.9763 34.5309L27.1023 35.9263C27.1415 36.3908 27.1798 36.8562 27.2065 37.3225L26.5393 37.3758C26.4909 36.9079 26.4617 36.4384 26.4409 35.9688C26.43 35.7336 26.4242 35.4984 26.4175 35.2632L26.4092 34.5576C26.4092 34.0872 26.4134 33.616 26.4384 33.1456C26.4622 32.6716 26.5205 32.1999 26.6127 31.7344Z" fill="#592D3D"/>
<path d="M27.2057 25.7734C27.1848 26.0779 27.1523 26.3806 27.1181 26.6834L27.063 27.1379L27.003 27.5925C26.9579 27.8961 26.9237 28.1997 26.8695 28.5041C26.8173 28.8137 26.7391 29.1183 26.636 29.4149C26.549 29.1116 26.4931 28.8003 26.4692 28.4858C26.4442 28.1755 26.4425 27.8669 26.4375 27.5566V27.0929C26.4425 26.9378 26.4467 26.7835 26.4542 26.6292C26.4709 26.3197 26.495 26.0112 26.5376 25.7042L27.2057 25.7734Z" fill="#592D3D"/>
<path d="M20.8995 27.4637C20.3274 31.0501 20.3916 34.9576 20.8995 39.082" stroke="#592D3D" stroke-width="1.04786" stroke-miterlimit="10"/>
<path d="M61.6163 35.3128C61.6779 35.3128 61.7381 35.2945 61.7894 35.2602C61.8406 35.226 61.8806 35.1773 61.9041 35.1204C61.9277 35.0635 61.9339 35.0008 61.9219 34.9404C61.9099 34.8799 61.8802 34.8244 61.8366 34.7808C61.793 34.7373 61.7375 34.7076 61.6771 34.6956C61.6166 34.6835 61.554 34.6897 61.497 34.7133C61.4401 34.7369 61.3914 34.7768 61.3572 34.8281C61.323 34.8793 61.3047 34.9395 61.3047 35.0012C61.3058 35.0835 61.3389 35.1621 61.3971 35.2203C61.4553 35.2785 61.534 35.3117 61.6163 35.3128Z" fill="#592D3D"/>
<path d="M62.0518 27.5414C62.8858 31.1144 62.7899 35.0002 62.0518 39.1045" stroke="#E2E2E2" stroke-width="1.04786" stroke-miterlimit="10"/>
<path d="M55.6074 25.759C56.238 29.3346 56.1671 33.2229 55.6074 37.3305" stroke="#E2E2E2" stroke-width="1.04786" stroke-miterlimit="10"/>
<path d="M49.7168 24.5448C50.1463 28.1228 50.098 32.0137 49.7168 36.1238" stroke="#E2E2E2" stroke-width="1.04786" stroke-miterlimit="10"/>
<path d="M44.1836 23.9086C44.4121 27.4883 44.3871 31.3824 44.1836 35.4951" stroke="#E2E2E2" stroke-width="1.04786" stroke-miterlimit="10"/>
<path d="M38.8262 23.8534C38.8545 27.4356 38.852 31.3323 38.8262 35.4466" stroke="#E2E2E2" stroke-width="1.04786" stroke-miterlimit="10"/>
<path d="M33.4489 24.3843C33.2771 27.9707 33.2963 31.8681 33.4489 35.9866" stroke="#E2E2E2" stroke-width="1.04786" stroke-miterlimit="10"/>
<path d="M27.8664 25.5081C27.4944 29.0944 27.5327 32.9969 27.8664 37.1188" stroke="#E2E2E2" stroke-width="1.04786" stroke-miterlimit="10"/>
<path d="M21.8888 27.2296C21.3166 30.816 21.3809 34.7235 21.8888 38.8478" stroke="#E2E2E2" stroke-width="1.04786" stroke-miterlimit="10"/>
<path d="M17.6035 28.7964C32.9015 22.2909 48.5581 22.2025 63.9713 28.7964C65.4333 29.4219 65.425 40.4622 63.9713 39.9567C48.9193 34.7164 33.0008 34.6605 17.6035 39.9567C15.7719 40.5864 15.9504 29.4995 17.6035 28.7964Z" stroke="#592D3D" stroke-width="1.57179" stroke-miterlimit="10"/>
<path d="M34.4023 22.7324C35.4654 22.5097 36.5407 22.3504 37.6226 22.2553C37.8936 22.2319 38.1639 22.2086 38.4349 22.1902L39.2481 22.1435C39.52 22.1319 39.7911 22.1268 40.063 22.1185L40.8779 22.1077C41.9621 22.1077 43.0505 22.1602 44.1306 22.2611C45.2125 22.3576 46.2876 22.5192 47.35 22.7449C46.2658 22.7207 45.1815 22.679 44.1073 22.6506C43.033 22.6223 41.9521 22.6098 40.8753 22.6073H40.068C39.7986 22.6073 39.5292 22.6173 39.2598 22.6164L38.4525 22.6281C38.1831 22.6373 37.9137 22.6415 37.6434 22.6448C36.5675 22.6723 35.4883 22.7107 34.4023 22.7324Z" fill="#592D3D"/>
<path d="M27.7754 18.571C28.3652 18.0994 28.9891 17.672 29.642 17.2924C30.2909 16.9071 30.9606 16.5551 31.6437 16.2365C31.8105 16.1531 31.9881 16.0814 32.1608 16.0047C32.3334 15.9279 32.5052 15.8495 32.6812 15.782C33.0332 15.6444 33.3818 15.5001 33.7405 15.3816C34.4512 15.128 35.1771 14.9191 35.914 14.7561C35.7413 14.832 35.567 14.9046 35.3927 14.9755C35.2184 15.0464 35.0432 15.1122 34.8714 15.189C34.5253 15.3341 34.1783 15.4742 33.8347 15.6243L33.577 15.7353C33.4936 15.7711 33.4035 15.8062 33.3184 15.8454L32.8055 16.0731C32.6337 16.1465 32.4644 16.2257 32.2934 16.3024C32.1224 16.3792 31.9523 16.4559 31.7846 16.5385L31.2759 16.7745C31.1091 16.8579 30.9423 16.9413 30.7713 17.0247C30.4377 17.1865 30.104 17.3583 29.7663 17.5251C29.0998 17.8604 28.436 18.2082 27.7754 18.571Z" fill="white"/>
<path opacity="0.2" d="M27.0735 52.6027C31.3716 52.6027 34.8559 49.1184 34.8559 44.8203C34.8559 40.5222 31.3716 37.0378 27.0735 37.0378C22.7753 37.0378 19.291 40.5222 19.291 44.8203C19.291 49.1184 22.7753 52.6027 27.0735 52.6027Z" fill="white"/>
<path opacity="0.15" d="M60.9008 49.6805C59.89 51.1606 58.4427 52.2885 56.7606 52.907C55.0785 53.5256 53.2453 53.604 51.5165 53.1313C49.7877 52.6587 48.2494 51.6585 47.1159 50.2701C45.9825 48.8818 45.3104 47.1745 45.1932 45.3861C42.1073 44.1684 38.9855 44.1792 35.6693 45.4186C35.5154 47.5932 34.544 49.6289 32.9502 51.1163C31.3565 52.6037 29.2587 53.4326 27.0787 53.4362C24.3697 53.4362 20.7399 50.392 21.157 51.0684C22.3246 52.794 25.077 54.1085 27.2071 54.1085C31.7568 54.1085 35.3699 50.8315 35.6776 46.3585C38.9938 45.12 42.119 45.1075 45.2016 46.326C45.4935 50.8148 49.2375 54.1268 53.7981 54.1268C57.5254 54.1268 59.6439 51.2802 60.9008 49.6805Z" fill="black"/>
<path opacity="0.4" d="M25.4979 53.1777L35.7624 42.9123C35.5369 42.4037 35.2572 41.9208 34.9284 41.4719L24.0566 52.3445C24.5058 52.6731 24.989 52.9524 25.4979 53.1777Z" fill="white"/>
<path d="M27.0735 52.6027C31.3716 52.6027 34.8559 49.1184 34.8559 44.8203C34.8559 40.5222 31.3716 37.0378 27.0735 37.0378C22.7753 37.0378 19.291 40.5222 19.291 44.8203C19.291 49.1184 22.7753 52.6027 27.0735 52.6027Z" stroke="#592D3D" stroke-width="2.61964" stroke-miterlimit="10"/>
<path d="M53.7883 52.6027C58.0864 52.6027 61.5708 49.1184 61.5708 44.8203C61.5708 40.5222 58.0864 37.0378 53.7883 37.0378C49.4902 37.0378 46.0059 40.5222 46.0059 44.8203C46.0059 49.1184 49.4902 52.6027 53.7883 52.6027Z" stroke="#592D3D" stroke-width="2.61964" stroke-miterlimit="10"/>
<path d="M34.9033 44.8206C38.6732 43.2935 42.3772 43.2359 46.0078 44.8206" stroke="#592D3D" stroke-width="2.61964" stroke-miterlimit="10"/>
<path d="M25.0541 40.1454C25.2259 40.6876 24.5587 41.1046 24.0583 41.188C23.5579 41.188 23.2242 40.8544 23.0574 40.4373C22.974 40.0203 23.0574 39.6033 23.391 39.3531C23.8081 39.1863 24.3919 39.0195 24.763 39.4473C24.8557 39.5384 24.9292 39.647 24.9792 39.7669C25.0292 39.8868 25.0547 40.0155 25.0541 40.1454Z" fill="white"/>
<path d="M25.9429 39.8248C25.8922 40.1846 25.3936 40.1846 25.3105 39.8523C25.3105 39.603 25.3936 39.5199 25.6304 39.5116C25.6715 39.5116 25.7122 39.5197 25.7502 39.5355C25.7882 39.5512 25.8226 39.5743 25.8517 39.6034C25.8807 39.6325 25.9037 39.667 25.9193 39.705C25.935 39.743 25.943 39.7838 25.9429 39.8248Z" fill="white"/>
<path opacity="0.2" d="M53.7883 52.6027C58.0864 52.6027 61.5708 49.1184 61.5708 44.8203C61.5708 40.5222 58.0864 37.0378 53.7883 37.0378C49.4902 37.0378 46.0059 40.5222 46.0059 44.8203C46.0059 49.1184 49.4902 52.6027 53.7883 52.6027Z" fill="white"/>
<path opacity="0.4" d="M52.6208 52.5151L61.485 43.65C61.437 43.3343 61.3698 43.0218 61.284 42.7142L51.6875 52.3141C51.9942 52.3999 52.3059 52.467 52.6208 52.5151Z" fill="white"/>
<path d="M53.7883 52.6027C58.0864 52.6027 61.5708 49.1184 61.5708 44.8203C61.5708 40.5222 58.0864 37.0378 53.7883 37.0378C49.4902 37.0378 46.0059 40.5222 46.0059 44.8203C46.0059 49.1184 49.4902 52.6027 53.7883 52.6027Z" stroke="#592D3D" stroke-width="2.61964" stroke-miterlimit="10"/>
<path d="M51.7709 40.1454C51.9427 40.6876 51.2755 41.1046 50.7751 41.188C50.2746 41.188 49.941 40.8544 49.7742 40.4373C49.6908 40.0203 49.7742 39.6033 50.1078 39.3531C50.5249 39.1863 51.1087 39.0195 51.4798 39.4473C51.5724 39.5385 51.6458 39.6472 51.6958 39.767C51.7457 39.8869 51.7713 40.0155 51.7709 40.1454Z" fill="white"/>
<path d="M52.6587 39.8248C52.608 40.1846 52.1095 40.1846 52.0264 39.8523C52.0264 39.603 52.1095 39.5199 52.3454 39.5116C52.4285 39.5116 52.5082 39.5446 52.5669 39.6033C52.6257 39.6621 52.6587 39.7418 52.6587 39.8248Z" fill="white"/>
</g>
<defs>
<clipPath id="clip0">
<rect x="0.892578" width="80" height="80" rx="40" fill="white"/>
</clipPath>
</defs>
</svg>
