<svg width="81" height="81" viewBox="0 0 81 81" fill="none" xmlns="http://www.w3.org/2000/svg">
<g clip-path="url(#clip0)">
<path d="M50.3174 63.5503C57.5371 63.5503 56.0448 72.6378 56.114 82.7434H50.3174V63.5503Z" fill="#FDD2B2"/>
<path d="M52.1263 69.3692L50.3174 72.4023L51.2226 82.7435H53.749C53.8103 68.4035 52.1263 69.3692 52.1263 69.3692Z" fill="#F3AB98"/>
<path d="M20.3496 42.9703C20.3496 31.2514 29.8499 21.7511 41.5688 21.7511C53.2877 21.7511 62.788 31.2514 62.788 42.9703C62.7911 46.1279 62.0879 49.2461 60.7302 52.0969C59.3724 54.9476 57.3943 57.4586 54.9407 59.4461C54.5053 59.8004 54.0561 60.1368 53.5932 60.4556C48.8076 63.4935 42.762 63.4935 37.3043 63.0074C36.7745 62.9279 36.2463 62.8277 35.7221 62.7123C33.6276 62.2509 31.6 61.539 29.7266 60.5009C29.2637 60.2156 28.8148 59.9075 28.3799 59.5766C27.9428 59.2438 27.5233 58.8885 27.1231 58.5122C26.7444 58.1606 26.3788 57.7952 26.0261 57.4161C22.3715 53.4943 20.3426 48.331 20.3496 42.9703V42.9703Z" fill="#FDD2B2"/>
<path d="M23.2418 53.6675C23.2975 53.763 23.3524 53.8584 23.4096 53.9523C23.4439 54.0096 23.4796 54.0652 23.5154 54.1225C23.5679 54.2076 23.6204 54.2927 23.6745 54.3763C23.7127 54.4367 23.7541 54.4956 23.7907 54.5545C23.8432 54.634 23.8957 54.7135 23.9498 54.7931C23.9903 54.8535 24.0293 54.914 24.0739 54.9745C24.1264 55.054 24.1789 55.1272 24.233 55.2036C24.2759 55.2648 24.3205 55.3253 24.3642 55.3865C24.408 55.4478 24.4708 55.5337 24.5233 55.6069C24.5758 55.68 24.6148 55.7286 24.6609 55.789C24.7071 55.8495 24.7699 55.9322 24.8256 56.0038C24.8813 56.0754 24.9202 56.1239 24.968 56.1836C25.0157 56.2432 25.0801 56.3236 25.1366 56.3928C25.1931 56.462 25.2345 56.5113 25.2838 56.5702C25.3331 56.629 25.3983 56.707 25.4564 56.7746C25.5145 56.8422 25.5574 56.8915 25.6083 56.9496L25.7849 57.1485C25.8366 57.2066 25.8891 57.263 25.944 57.3203C26.0124 57.3951 26.0816 57.4691 26.1508 57.5422L26.2471 57.6441C26.3497 57.7507 26.4531 57.8572 26.5581 57.9622L26.5788 57.9837C26.6814 58.0855 26.7856 58.1866 26.8898 58.2868L27.0155 58.4061C27.0911 58.4769 27.1667 58.5477 27.243 58.6177L27.3353 58.702C27.4148 58.7768 27.5016 58.85 27.5851 58.9232C27.8449 59.1496 28.1101 59.3668 28.3805 59.5747C28.8149 59.9056 29.2638 60.2137 29.7273 60.499C31.6006 61.5331 33.6251 62.249 35.7228 62.7104C36.247 62.8258 36.7752 62.9252 37.3049 63.0055C40.6539 63.3038 44.2255 63.4176 47.5888 62.7605C42.2408 61.1863 16.5582 51.9381 32.723 23.6782C32.5067 23.7777 32.2935 23.8803 32.0819 23.9869L32.0349 24.0099C31.9379 24.0585 31.8408 24.1086 31.7446 24.1595L31.6651 24.2016C31.366 24.3607 31.07 24.5254 30.7797 24.6972L30.7081 24.7394C30.6158 24.7943 30.5243 24.85 30.4329 24.9064L30.3637 24.9494C30.0794 25.127 29.7997 25.3108 29.5244 25.5006L29.4385 25.5603C29.3518 25.6208 29.2667 25.6812 29.1816 25.7425L29.1291 25.7799C28.9557 25.9066 28.7844 26.0349 28.6152 26.1649L28.5659 26.203C28.4863 26.2651 28.4068 26.3287 28.3273 26.3932L28.2342 26.4679C28.1546 26.5324 28.0751 26.5968 27.9955 26.6628C27.8277 26.802 27.6622 26.9452 27.4992 27.09L27.4085 27.1695L27.1945 27.3644L27.0911 27.4583C26.8641 27.6704 26.6422 27.8871 26.4253 28.1082L26.3155 28.2204C26.2527 28.2856 26.1898 28.3508 26.1278 28.4168C26.0912 28.4558 26.0546 28.4964 26.0188 28.5346C25.9095 28.6512 25.8019 28.7695 25.6958 28.8894C25.66 28.9299 25.6234 28.9689 25.5876 29.0119C25.5312 29.0763 25.4755 29.1415 25.4198 29.2068L25.2997 29.3491C25.2456 29.4136 25.1915 29.478 25.1406 29.5432C25.0976 29.5957 25.0547 29.649 25.0125 29.7023C24.9274 29.8081 24.8439 29.9139 24.7612 30.0205C24.7182 30.0762 24.6752 30.1319 24.6331 30.1884C24.5909 30.2448 24.5376 30.3148 24.4907 30.3793C24.4438 30.4437 24.4056 30.4946 24.3642 30.5527C24.3228 30.6108 24.2743 30.676 24.2306 30.738C24.1553 30.8441 24.081 30.9515 24.0078 31.0602C23.9681 31.1183 23.9283 31.1779 23.8893 31.2368C23.8503 31.2957 23.8018 31.3688 23.7589 31.4357L23.6403 31.6194L23.5067 31.835C23.4725 31.8899 23.4383 31.9448 23.4049 31.9996C23.3341 32.1158 23.2657 32.2327 23.1973 32.3497L23.1002 32.5215C23.0573 32.597 23.0143 32.6734 22.9721 32.7498C22.9403 32.8078 22.9085 32.8659 22.8775 32.924C22.8266 33.0186 22.7765 33.1141 22.7263 33.2096L22.6309 33.3957C22.58 33.4975 22.5291 33.5985 22.4789 33.7012C22.4527 33.7561 22.4256 33.8117 22.3994 33.8674C22.358 33.9541 22.3198 34.0416 22.2777 34.1291C22.253 34.1816 22.2292 34.2341 22.2053 34.2882C22.1464 34.4192 22.0889 34.5518 22.0327 34.686C22.0152 34.7273 21.9985 34.7695 21.981 34.8108C21.9388 34.9119 21.8975 35.0129 21.8569 35.1147C21.8354 35.168 21.8147 35.2213 21.794 35.2738C21.7543 35.374 21.7145 35.4751 21.6787 35.5761C21.662 35.6198 21.6453 35.6636 21.6294 35.7073C21.5795 35.8468 21.5305 35.9863 21.4822 36.1258L21.4377 36.261C21.4027 36.3671 21.3685 36.4731 21.3351 36.5792L21.2873 36.7311C21.2499 36.8536 21.2133 36.9761 21.1783 37.0994C21.1704 37.1257 21.1624 37.1519 21.1553 37.179C21.1139 37.3253 21.0741 37.4722 21.036 37.6197C21.0232 37.6666 21.0121 37.7143 21.0002 37.7613C20.9723 37.8718 20.9453 37.9824 20.9206 38.0938L20.8872 38.233C20.853 38.3841 20.8196 38.5352 20.7886 38.6872L20.7766 38.7484C20.7496 38.8837 20.7231 39.0189 20.6971 39.1541C20.6883 39.2026 20.6804 39.2504 20.6716 39.2989C20.651 39.4174 20.6311 39.5375 20.6128 39.6569C20.6064 39.6974 20.5992 39.7364 20.5937 39.7778C20.5698 39.9329 20.5483 40.0888 20.5277 40.2455L20.5157 40.3489C20.4998 40.4754 20.4855 40.6027 20.472 40.73C20.4672 40.7777 20.4616 40.8254 20.4569 40.8739C20.4441 41.0076 20.4322 41.142 20.4211 41.2764C20.4211 41.3043 20.4163 41.3313 20.4147 41.356C20.403 41.5151 20.3927 41.6755 20.3837 41.8372C20.3837 41.8794 20.3837 41.9224 20.3781 41.9645C20.3728 42.0897 20.368 42.2146 20.3638 42.3392C20.3638 42.3861 20.3638 42.4331 20.3638 42.48C20.3638 42.6431 20.3574 42.8069 20.3574 42.9708C20.3574 42.9708 20.3574 42.9764 20.3574 42.9787C20.3574 43.1553 20.3574 43.3303 20.3638 43.5054C20.3638 43.5658 20.3686 43.6263 20.3701 43.6867C20.3741 43.8037 20.3781 43.9206 20.3837 44.0375C20.3837 44.1083 20.3924 44.1783 20.3964 44.2491C20.4028 44.3549 20.4083 44.4607 20.4163 44.5673C20.4219 44.6469 20.429 44.7176 20.4354 44.7924C20.4441 44.8927 20.4521 44.9929 20.4624 45.0923C20.4696 45.1719 20.4791 45.2466 20.4871 45.3238C20.4982 45.4201 20.5086 45.5171 20.5205 45.6133C20.53 45.6929 20.5412 45.7724 20.5515 45.848C20.5642 45.9419 20.577 46.0365 20.5913 46.1304C20.6032 46.21 20.6159 46.2895 20.6287 46.369C20.643 46.4613 20.6581 46.5544 20.674 46.6467C20.6883 46.7262 20.7027 46.8058 20.7178 46.8853C20.7345 46.9768 20.752 47.0683 20.7695 47.159C20.787 47.2496 20.8021 47.318 20.8188 47.3976C20.8379 47.4883 20.857 47.5782 20.8777 47.6681C20.8983 47.7579 20.9127 47.8271 20.9318 47.9011C20.9524 47.991 20.9747 48.0801 20.997 48.1684C21.0193 48.2567 21.036 48.3235 21.0558 48.3999C21.0797 48.489 21.1036 48.5773 21.1282 48.6656C21.1489 48.7451 21.1704 48.8183 21.1927 48.8939C21.2181 48.9822 21.2444 49.0697 21.2722 49.1572C21.3001 49.2447 21.3184 49.3075 21.3422 49.3831C21.3661 49.4587 21.3979 49.5573 21.4265 49.644C21.4552 49.7307 21.4759 49.7928 21.5013 49.8667C21.5315 49.9534 21.5618 50.0401 21.5928 50.1269C21.619 50.1992 21.6445 50.2724 21.6723 50.3448L21.771 50.6049C21.7988 50.6757 21.8259 50.7473 21.8505 50.8181C21.8855 50.9048 21.9213 50.9923 21.9571 51.079C21.9858 51.1474 22.0136 51.2167 22.043 51.2851C22.0804 51.3742 22.1226 51.4617 22.1584 51.55C22.1878 51.6152 22.2164 51.6812 22.2459 51.7464C22.2872 51.8387 22.331 51.9294 22.3731 52.0201L22.4591 52.203C22.5076 52.3033 22.5577 52.4019 22.6078 52.5013C22.6333 52.5515 22.6571 52.6024 22.6834 52.6525C22.8361 52.95 22.9952 53.2435 23.1607 53.5331C23.1837 53.5705 23.2132 53.619 23.2418 53.6675Z" fill="#F3AB98"/>
<path d="M20.3496 42.9703C20.3496 31.2514 29.8499 21.7511 41.5688 21.7511C53.2877 21.7511 62.788 31.2514 62.788 42.9703C62.7911 46.1279 62.0879 49.2461 60.7302 52.0969C59.3724 54.9476 57.3943 57.4586 54.9407 59.4461C54.5053 59.8004 54.0561 60.1368 53.5932 60.4556C48.8076 63.4935 42.762 63.4935 37.3043 63.0074C36.7745 62.9279 36.2463 62.8277 35.7221 62.7123C33.6276 62.2509 31.6 61.539 29.7266 60.5009C29.2637 60.2156 28.8148 59.9075 28.3799 59.5766C27.9428 59.2438 27.5233 58.8885 27.1231 58.5122C26.7444 58.1606 26.3788 57.7952 26.0261 57.4161C22.3715 53.4943 20.3426 48.331 20.3496 42.9703V42.9703Z" stroke="#592D3D" stroke-width="1.57179" stroke-miterlimit="10"/>
<path d="M32.5102 63.5503C25.2897 63.5503 26.7828 72.6378 26.7136 82.7434H32.5102V63.5503Z" fill="#FDD2B2"/>
<path d="M31.0073 69.3692L32.8186 72.4023L31.9126 82.7435H29.3885C29.3241 68.4035 31.0073 69.3692 31.0073 69.3692Z" fill="#F3AB98"/>
<path d="M51.0733 88.3117H32.0663C31.7863 88.3115 31.5178 88.2001 31.3199 88.002C31.1219 87.804 31.0107 87.5354 31.0107 87.2553V64.6067C31.0107 64.3266 31.1219 64.0581 31.3199 63.86C31.5178 63.6619 31.7863 63.5505 32.0663 63.5503H50.6191C51.6604 63.5503 52.1305 64.1596 52.1305 65.1317V87.2522C52.1309 87.3912 52.1039 87.529 52.0509 87.6576C51.998 87.7862 51.9202 87.903 51.822 88.0015C51.7237 88.0999 51.607 88.178 51.4786 88.2312C51.3501 88.2845 51.2124 88.3118 51.0733 88.3117V88.3117Z" fill="#FDD2B2"/>
<path d="M51.8354 64.1794C51.7561 64.0819 51.689 63.975 51.6357 63.8612C51.4447 63.7115 51.2175 63.6152 50.9771 63.582C50.8586 63.5636 50.739 63.5546 50.6191 63.5549H32.0663C31.787 63.5551 31.5191 63.666 31.3213 63.8632C31.1234 64.0604 31.0118 64.328 31.0107 64.6073C33.3176 65.4362 37.6362 65.8992 41.5698 65.8992C46.5861 65.8992 49.873 65.1554 51.8354 64.1794Z" fill="#F3AB98"/>
<path d="M50.3174 63.5503C57.5371 63.5503 56.0448 72.6378 56.114 82.7434H52.1263" stroke="#592D3D" stroke-width="1.57179" stroke-miterlimit="10" stroke-linecap="square"/>
<path d="M32.5102 63.5503C25.2897 63.5503 26.7828 72.6378 26.7136 82.7434H30.6966" stroke="#592D3D" stroke-width="1.57179" stroke-miterlimit="10" stroke-linecap="square"/>
<path d="M32.0654 63.5583L50.6182 63.5503" stroke="#592D3D" stroke-width="1.57179" stroke-miterlimit="10"/>
<path d="M32.0663 88.3116H41.3431C32.6606 88.3116 33.316 69.9219 31.0107 69.9219V87.252C31.0103 87.391 31.0373 87.5286 31.0902 87.6571C31.143 87.7856 31.2207 87.9023 31.3187 88.0008C31.4168 88.0992 31.5333 88.1773 31.6616 88.2306C31.7899 88.284 31.9274 88.3115 32.0663 88.3116V88.3116Z" fill="#F3AB98"/>
<path d="M30.5332 71.6749C30.5181 71.3829 30.5245 71.091 30.5372 70.7999C30.5499 70.5087 30.5746 70.2152 30.6056 69.9248C30.6215 69.7785 30.6374 69.6329 30.6573 69.4865C30.6772 69.3402 30.6963 69.1946 30.7249 69.0482C30.7813 68.7453 30.8774 68.4511 31.0105 68.1732C31.1436 68.4511 31.2397 68.7453 31.2961 69.0482C31.3247 69.1946 31.3454 69.3402 31.3637 69.4865C31.382 69.6329 31.3995 69.7785 31.4154 69.9248C31.4456 70.2168 31.4695 70.5087 31.483 70.7999C31.4965 71.091 31.5029 71.3837 31.4878 71.6749H30.5332Z" fill="#592D3D"/>
<path d="M52.1282 72.4025V73.0389C52.1489 75.7435 52.1489 78.5277 52.1282 81.2124C52.1282 81.4407 52.1282 81.6674 52.1282 81.8909V87.2532C52.1285 87.3921 52.1015 87.5296 52.0486 87.658C51.9957 87.7864 51.918 87.9031 51.8199 88.0014C51.7219 88.0998 51.6054 88.1778 51.4772 88.2311C51.349 88.2844 51.2115 88.3119 51.0726 88.312H32.0656C31.7856 88.3118 31.5171 88.2004 31.3192 88.0023C31.1212 87.8042 31.01 87.5356 31.01 87.2556V82.6259C31.01 82.4263 31.01 82.2226 31.01 82.0174C30.9901 79.2436 30.9901 76.4594 31.01 73.6411V71.6747" stroke="#592D3D" stroke-width="1.57179" stroke-miterlimit="10"/>
<path d="M51.6501 72.4028C51.635 72.0711 51.6422 71.7386 51.6549 71.4061C51.6676 71.0736 51.6923 70.7419 51.7225 70.4093C51.7384 70.2431 51.7551 70.0768 51.7742 69.9106C51.7933 69.7443 51.8132 69.5789 51.8418 69.4126C51.8972 69.0702 51.9931 68.7357 52.1274 68.4159C52.2617 68.7357 52.3576 69.0702 52.413 69.4126C52.4416 69.5789 52.4623 69.7451 52.4806 69.9106C52.4989 70.076 52.5164 70.2431 52.5323 70.4093C52.5625 70.7419 52.5872 71.0736 52.5999 71.4061C52.6126 71.7386 52.6198 72.0711 52.6047 72.4028H51.6501Z" fill="#592D3D"/>
<path d="M41.7329 73.1075C41.7327 73.9409 41.5436 74.7635 41.1798 75.5133C40.816 76.2631 40.2869 76.9207 39.6324 77.4366C38.9778 77.9525 38.2148 78.3133 37.4007 78.4919C36.5866 78.6704 35.7427 78.6621 34.9323 78.4675C34.1219 78.273 33.3661 77.8972 32.7219 77.3685C32.0776 76.8398 31.5616 76.1719 31.2126 75.415C30.8637 74.6582 30.6908 73.8321 30.7071 72.9988C30.7234 72.1655 30.9284 71.3468 31.3066 70.6041" stroke="#592D3D" stroke-width="1.57179" stroke-miterlimit="10"/>
<path d="M31.3076 70.604C31.6088 70.0154 32.013 69.4855 32.5008 69.0393Z" fill="#FDD2B2"/>
<path d="M30.8818 70.3871C30.9517 70.2217 31.042 70.0656 31.1507 69.9226C31.2585 69.7794 31.3791 69.6462 31.5111 69.5249C31.5779 69.4644 31.6455 69.4055 31.7163 69.3506C31.7866 69.2938 31.8613 69.2427 31.9398 69.1979C32.1095 69.1 32.3008 69.0453 32.4966 69.0388C32.476 69.225 32.4291 69.4074 32.3574 69.5805C32.3264 69.6601 32.2914 69.7301 32.2548 69.8009L32.1514 70.0133C32.0838 70.1533 32.017 70.2909 31.9486 70.4261C31.8824 70.5624 31.8091 70.6952 31.729 70.8239L30.8818 70.3871Z" fill="#592D3D"/>
<path d="M40.7207 69.9219C41.3808 70.8515 41.735 71.9636 41.7341 73.1038Z" fill="#FDD2B2"/>
<path d="M40.7207 69.9219C40.9923 70.0691 41.2282 70.2741 41.412 70.5225C41.5034 70.6432 41.5858 70.7706 41.6586 70.9035C41.7325 71.0363 41.7994 71.1732 41.8614 71.3132C41.9835 71.5944 42.0757 71.8877 42.1366 72.1882C42.1985 72.4898 42.2236 72.7977 42.2114 73.1054H41.2569C41.2417 72.8468 41.2282 72.5899 41.2012 72.3314C41.1741 72.0728 41.1399 71.8159 41.0898 71.5566L41.05 71.3625L41.0039 71.1676C40.9705 71.0379 40.9347 70.9083 40.9013 70.7754C40.8261 70.4943 40.7659 70.2094 40.7207 69.9219V69.9219Z" fill="#592D3D"/>
<path d="M52.8371 73.1074C52.8379 72.3526 52.6834 71.6057 52.3831 70.9133C52.0829 70.2208 51.6433 69.5975 51.0918 69.0823" fill="#FDD2B2"/>
<path d="M52.3598 73.1074C52.347 72.7647 52.3135 72.4231 52.2595 72.0844C52.2037 71.7424 52.1208 71.4054 52.0114 71.0766C51.9843 70.997 51.9525 70.9119 51.9231 70.8292C51.8936 70.7464 51.8562 70.6661 51.8236 70.5834C51.791 70.5006 51.7489 70.4243 51.7139 70.3408L51.5977 70.1021C51.4386 69.776 51.266 69.4506 51.0918 69.0879C51.4605 69.2452 51.7917 69.4786 52.0639 69.7728C52.1299 69.8476 52.1991 69.9207 52.2603 69.9995C52.3216 70.0782 52.3828 70.1586 52.4393 70.2381C52.4958 70.3177 52.5531 70.4044 52.604 70.4911C52.6549 70.5778 52.7082 70.6645 52.7535 70.7552C52.9429 71.115 53.0872 71.4968 53.1831 71.8919C53.2811 72.2893 53.3245 72.6983 53.312 73.1074H52.3598Z" fill="#592D3D"/>
<path d="M41.807 73.1077C41.7983 73.8372 41.9344 74.5613 42.2075 75.2378C42.4806 75.9144 42.8853 76.53 43.3981 77.049C43.9109 77.568 44.5217 77.98 45.1949 78.2613C45.8681 78.5425 46.5904 78.6873 47.3201 78.6873C48.0497 78.6873 48.772 78.5425 49.4452 78.2613C50.1185 77.98 50.7292 77.568 51.242 77.049C51.7548 76.53 52.1595 75.9144 52.4326 75.2378C52.7057 74.5613 52.8418 73.8372 52.8331 73.1077" stroke="#592D3D" stroke-width="1.57179" stroke-miterlimit="10"/>
<path d="M42.8232 69.9219C42.1634 70.8516 41.8095 71.9637 41.8105 73.1038Z" fill="#FDD2B2"/>
<path d="M42.8226 69.9219C42.7775 70.2099 42.7172 70.4953 42.642 70.777C42.6086 70.9099 42.5728 71.0395 42.5394 71.1692L42.494 71.3641L42.4543 71.5582C42.4042 71.8175 42.3676 72.0752 42.3421 72.3329C42.3167 72.5907 42.3023 72.8484 42.2872 73.1069H41.3295C41.3165 72.7993 41.3417 72.4912 41.4042 72.1898C41.4648 71.8892 41.557 71.5959 41.6795 71.3147C41.7407 71.1747 41.8076 71.0379 41.8815 70.9051C41.9546 70.7724 42.037 70.645 42.1281 70.524C42.3128 70.275 42.5499 70.0694 42.8226 69.9219V69.9219Z" fill="#592D3D"/>
<path d="M32.2959 69.821V63.5503" stroke="#592D3D" stroke-width="1.57179" stroke-miterlimit="10"/>
<path d="M50.833 69.821V63.5503" stroke="#592D3D" stroke-width="1.57179" stroke-miterlimit="10"/>
<path d="M39.2217 74.6125H43.5093V76.1796C42.0981 75.6984 40.6686 75.7103 39.2217 76.1796V74.6125Z" fill="#89D86F" stroke="#592D3D" stroke-width="1.57179" stroke-miterlimit="10"/>
<path d="M52.555 73.1076C52.557 71.7111 52.0271 70.3663 51.073 69.3466C50.7373 68.9871 47.5515 69.839 45.6789 71.5151C43.8406 73.1609 42.2401 75.8496 42.4692 76.1885C43.1291 77.1679 44.0861 77.9095 45.1992 78.3042C46.3123 78.6988 47.5228 78.7256 48.6522 78.3806C49.7817 78.0356 50.7706 77.337 51.4732 76.3877C52.1758 75.4384 52.555 74.2886 52.555 73.1076Z" fill="#89D86F" stroke="#592D3D" stroke-width="1.57179" stroke-miterlimit="10"/>
<path d="M49.374 70.6838C48.8872 70.9758 48.4075 71.255 47.9422 71.5589C47.4829 71.8524 47.0436 72.176 46.6273 72.5277C46.2176 72.8825 45.823 73.2691 45.4341 73.6621C45.0451 74.055 44.6633 74.4576 44.2607 74.8609C44.5048 74.3487 44.8029 73.8642 45.1501 73.4155C45.4967 72.9598 45.8887 72.5405 46.3202 72.1642C46.7592 71.7926 47.2442 71.479 47.7632 71.2311C48.2744 70.9804 48.8158 70.7964 49.374 70.6838V70.6838Z" fill="white"/>
<path d="M30.582 73.1076C30.58 71.7111 31.1099 70.3663 32.064 69.3466C32.3997 68.9871 35.5856 69.839 37.4581 71.5151C39.2964 73.1609 40.8969 75.8496 40.6678 76.1885C40.0079 77.1679 39.0509 77.9095 37.9378 78.3042C36.8247 78.6988 35.6143 78.7256 34.4848 78.3806C33.3553 78.0356 32.3664 77.337 31.6638 76.3877C30.9612 75.4384 30.582 74.2886 30.582 73.1076V73.1076Z" fill="#89D86F" stroke="#592D3D" stroke-width="1.57179" stroke-miterlimit="10"/>
<path d="M38.0487 77.8852C36.2479 77.8852 34.5208 77.1698 33.2474 75.8964C31.974 74.623 31.2586 72.8959 31.2586 71.0951C31.2586 70.8637 31.2703 70.6324 31.2936 70.4022C30.6955 71.4641 30.4661 72.6941 30.6412 73.9002C30.8163 75.1062 31.3861 76.2202 32.2614 77.0681C33.1368 77.916 34.2684 78.45 35.4794 78.5866C36.6904 78.7232 37.9125 78.4548 38.9548 77.8232C38.6545 77.864 38.3518 77.8847 38.0487 77.8852V77.8852Z" fill="#7DC462"/>
<path d="M30.582 73.1076C30.58 71.7111 31.1099 70.3663 32.064 69.3466C32.3997 68.9871 35.5856 69.839 37.4581 71.5151C39.2964 73.1609 40.8969 75.8496 40.6678 76.1885C40.0079 77.1679 39.0509 77.9095 37.9378 78.3042C36.8247 78.6988 35.6143 78.7256 34.4848 78.3806C33.3553 78.0356 32.3664 77.337 31.6638 76.3877C30.9612 75.4384 30.582 74.2886 30.582 73.1076V73.1076Z" stroke="#592D3D" stroke-width="1.57179" stroke-miterlimit="10"/>
<path d="M33.7646 70.6838C34.3228 70.7962 34.8642 70.9798 35.3755 71.2303C35.8945 71.4785 36.3795 71.7923 36.8185 72.1642C37.2482 72.5403 37.6387 72.959 37.9838 73.4139C38.331 73.8626 38.6291 74.3471 38.8732 74.8593C38.4707 74.4615 38.0904 74.0535 37.6998 73.6605C37.3093 73.2675 36.9171 72.8809 36.5066 72.5261C36.0903 72.1744 35.651 71.8508 35.1917 71.5573C34.728 71.255 34.2507 70.9758 33.7646 70.6838Z" fill="white"/>
<path d="M55.943 75.2489C55.9589 72.2977 55.8467 69.6751 55.3273 67.6609C54.5255 65.6444 53.0857 64.4417 50.5449 64.4417L52.3626 75.1384C52.3626 75.1384 54.1532 75.9569 55.943 75.2489Z" fill="#F3AB98"/>
<path d="M56.6269 74.4092C56.5363 74.4839 56.4377 74.5486 56.333 74.602" stroke="#592D3D" stroke-width="1.57179" stroke-miterlimit="10" stroke-linecap="square"/>
<path d="M27.9669 67.5755C27.4244 69.6095 27.3305 72.2791 27.3512 75.2915C28.9342 75.9717 31.3628 75.1205 31.3628 75.1205L32.7398 64.598C30.2849 64.598 28.8213 65.7037 27.9669 67.5755Z" fill="#F3AB98"/>
<path d="M50.8484 63.5065L47.7906 63.5144C47.7906 67.7877 41.7983 72.3553 41.7983 72.3553C41.7983 72.3553 35.3709 67.5363 35.3709 63.5144L32.2956 63.5065C32.0156 63.5065 31.747 63.6177 31.5489 63.8156C31.3509 64.0135 31.2395 64.282 31.2393 64.5621V87.2083C31.2395 87.4884 31.3509 87.7569 31.5489 87.9548C31.747 88.1527 32.0156 88.2639 32.2956 88.2639H51.3018C51.5818 88.2639 51.8503 88.1527 52.0483 87.9548C52.2462 87.7568 52.3574 87.4883 52.3574 87.2083V65.0847C52.3574 64.1158 51.8897 63.5065 50.8484 63.5065Z" fill="#89D86F"/>
<path d="M50.5449 63.5065C55.5993 63.5065 56.3837 67.9611 56.4235 74.099C54.9447 75.0233 52.5328 74.204 52.5328 74.204L50.5449 63.5065Z" fill="#89D86F"/>
<path d="M52.3578 69.3248L50.5449 72.3548L51.451 82.6959H52.3737V74.2941L53.7483 74.524C53.3012 68.7831 52.3578 69.3248 52.3578 69.3248Z" fill="#7DC462"/>
<path d="M32.7392 63.5065C27.8248 63.5065 26.7079 67.7853 26.626 73.6615C28.1374 75.2405 31.2357 74.0258 31.2357 74.0258L32.7392 63.5065Z" fill="#89D86F"/>
<path d="M31.2383 69.3248V74.0252L29.8613 74.3673C30.3124 68.7934 31.2383 69.3248 31.2383 69.3248Z" fill="#7DC462"/>
<path d="M50.5449 63.5065C55.908 63.5065 56.7854 67.9834 56.8212 74.1483C54.7371 75.1363 52.5328 74.204 52.5328 74.204" stroke="#592D3D" stroke-width="1.57179" stroke-miterlimit="10" stroke-linecap="square"/>
<path d="M32.7389 63.5065C27.4259 63.5065 26.3687 67.8569 26.3154 73.9041C27.9533 75.0806 31.2354 74.0258 31.2354 74.0258" stroke="#592D3D" stroke-width="1.57179" stroke-miterlimit="10" stroke-linecap="square"/>
<path d="M32.2959 88.2634H41.5687C32.883 88.2634 33.5416 69.8768 31.2363 69.8768V87.2078C31.2364 87.3467 31.2639 87.4842 31.3173 87.6125C31.3706 87.7408 31.4487 87.8573 31.5471 87.9554C31.6456 88.0534 31.7624 88.1311 31.8908 88.1839C32.0193 88.2368 32.157 88.2638 32.2959 88.2634Z" fill="#7DC462"/>
<path d="M30.7627 71.63C30.7475 71.3381 30.7539 71.0453 30.7674 70.755C30.7809 70.4647 30.8048 70.1711 30.835 69.88C30.851 69.7344 30.8677 69.588 30.8867 69.4417C30.9058 69.2953 30.9257 69.1497 30.9544 69.0042C31.0107 68.7012 31.1067 68.407 31.2399 68.1292C31.3732 68.407 31.4692 68.7012 31.5255 69.0042C31.5541 69.1497 31.5748 69.2961 31.5931 69.4417C31.6114 69.5872 31.6289 69.7344 31.6448 69.88C31.6756 70.1727 31.6984 70.4644 31.7132 70.755C31.726 71.0469 31.7323 71.3397 31.7132 71.63H30.7627Z" fill="#592D3D"/>
<path d="M52.3563 72.3544V72.9908C52.377 75.6954 52.377 78.4796 52.3563 81.1651C52.3563 81.3934 52.3563 81.6201 52.3563 81.8436V87.2059C52.3563 87.4858 52.2451 87.7543 52.0472 87.9523C51.8492 88.1503 51.5807 88.2615 51.3008 88.2615H32.2946C32.0145 88.2615 31.7459 88.1503 31.5479 87.9524C31.3498 87.7544 31.2384 87.4859 31.2382 87.2059V81.9717C31.2175 79.1987 31.2175 76.4145 31.2382 73.5954V71.6298" stroke="#592D3D" stroke-width="1.57179" stroke-miterlimit="10"/>
<path d="M51.8816 72.355C51.8664 72.0225 51.8736 71.69 51.8863 71.3583C51.8991 71.0266 51.9237 70.6933 51.9547 70.3616C51.9707 70.1953 51.9866 70.029 52.0057 69.8628C52.0247 69.6965 52.0446 69.5303 52.0741 69.364C52.129 69.0217 52.2246 68.687 52.3588 68.3673C52.4937 68.6869 52.5895 69.0215 52.6444 69.364C52.6731 69.5303 52.6945 69.6965 52.712 69.8628C52.7295 70.029 52.7478 70.1953 52.7637 70.3616C52.7948 70.6933 52.8186 71.0258 52.8314 71.3583C52.8441 71.6908 52.852 72.0225 52.8361 72.355H51.8816Z" fill="#592D3D"/>
<path d="M32.2959 63.5144L50.8487 63.5065" stroke="#592D3D" stroke-width="1.57179" stroke-miterlimit="10"/>
<path d="M26.5127 74.1481C26.6034 74.2303 26.7015 74.3039 26.8058 74.3679" stroke="#592D3D" stroke-width="1.57179" stroke-miterlimit="10" stroke-linecap="square"/>
<path d="M55.6961 73.3672C55.5305 73.4656 55.3487 73.5335 55.1591 73.5676C54.9702 73.6044 54.778 73.6215 54.5856 73.6186C54.394 73.6151 54.2031 73.5944 54.0152 73.5565C53.9214 73.539 53.8291 73.5112 53.7376 73.4873C53.6461 73.4634 53.5563 73.4253 53.4688 73.3887C53.565 73.3887 53.6589 73.4022 53.7519 73.4101L54.0319 73.4332C54.125 73.4332 54.2173 73.4491 54.3104 73.4499C54.4034 73.4507 54.4957 73.4587 54.588 73.4595C54.7725 73.4634 54.9571 73.4595 55.1448 73.4451C55.3301 73.4319 55.5143 73.4058 55.6961 73.3672V73.3672Z" fill="#592D3D"/>
<path d="M47.7908 63.5137C47.7908 67.7869 41.7985 72.3545 41.7985 72.3545C41.7985 72.3545 35.3711 67.5356 35.3711 63.5137" stroke="#592D3D" stroke-width="1.57179" stroke-miterlimit="10"/>
<path opacity="0.1" d="M35.7532 79.6917C36.9047 79.6916 38.0272 79.331 38.9634 78.6604C39.8995 77.9899 40.6023 77.0432 40.973 75.953C40.5024 76.7581 39.8398 77.4341 39.0442 77.9206C38.2487 78.4072 37.3451 78.6893 36.414 78.7416C35.483 78.7939 34.5534 78.6148 33.7084 78.2204C32.8634 77.826 32.1292 77.2285 31.5714 76.4812L31.5674 77.6529C32.5808 78.8962 34.0246 79.6917 35.7532 79.6917Z" fill="black"/>
<path opacity="0.1" d="M47.3849 79.6917C46.2334 79.6916 45.1109 79.331 44.1747 78.6604C43.2386 77.9899 42.5358 77.0432 42.165 75.953C42.6357 76.7581 43.2983 77.4341 44.0938 77.9206C44.8894 78.4072 45.793 78.6893 46.7241 78.7416C47.6551 78.7939 48.5846 78.6148 49.4297 78.2204C50.2747 77.826 51.0089 77.2285 51.5667 76.4812V77.6521C50.5573 78.8962 49.1135 79.6917 47.3849 79.6917Z" fill="black"/>
<path d="M34.1706 78.2736C33.3217 77.9568 32.564 77.4357 31.9644 76.7565C31.3648 76.0772 30.9418 75.2606 30.7327 74.379C30.5237 73.4974 30.5351 72.5779 30.766 71.7017C30.9968 70.8256 31.4399 70.0198 32.0562 69.3556" fill="#89D86F"/>
<path d="M34.1716 78.2741C33.2311 78.1206 32.3626 77.6754 31.689 77.0014L31.5601 76.8741C31.5179 76.8311 31.4805 76.7842 31.4384 76.7396C31.3962 76.6951 31.3588 76.6482 31.3207 76.602C31.2803 76.5566 31.2423 76.509 31.2069 76.4596C31.1353 76.3618 31.0629 76.264 30.9937 76.1637L30.8052 75.8511C30.5672 75.4227 30.3877 74.9645 30.2714 74.4885C30.1633 74.0112 30.1181 73.5218 30.137 73.0327C30.1586 72.5469 30.2497 72.0666 30.4074 71.6065C30.4281 71.55 30.4464 71.4927 30.4679 71.4362L30.5379 71.2692C30.5817 71.1578 30.6381 71.0512 30.6898 70.9438C30.8004 70.7325 30.9264 70.5296 31.0669 70.3369C31.1345 70.2406 31.2117 70.15 31.2856 70.0593C31.3596 69.9686 31.44 69.8819 31.5243 69.8023C31.6887 69.638 31.8679 69.4892 32.0596 69.3577C31.5991 70.1531 31.2721 70.9637 31.1321 71.7974C31.0593 72.2071 31.0279 72.6231 31.0383 73.0391C31.0536 73.4517 31.1068 73.8621 31.1974 74.2649C31.2954 74.6656 31.4318 75.0558 31.6046 75.4303C31.7814 75.8087 31.9968 76.1677 32.2474 76.5018C32.5009 76.8471 32.789 77.1657 33.1073 77.4524C33.4414 77.752 33.7972 78.0267 34.1716 78.2741V78.2741Z" fill="#592D3D"/>
<path d="M48.9707 78.2736C49.8193 77.9564 50.5766 77.435 51.1758 76.7555C51.7749 76.076 52.1975 75.2594 52.4061 74.3779C52.6147 73.4963 52.603 72.5769 52.3719 71.701C52.1408 70.825 51.6975 70.0195 51.0811 69.3556" fill="#89D86F"/>
<path d="M48.9707 78.2736C49.3442 78.0271 49.6992 77.7535 50.0327 77.4551C50.3509 77.1684 50.6391 76.8498 50.8926 76.5045C51.1432 76.1704 51.3585 75.8113 51.5353 75.433C51.7081 75.0585 51.8445 74.6682 51.9426 74.2676C52.0331 73.8648 52.0864 73.4544 52.1017 73.0418C52.1132 72.6243 52.0825 72.2067 52.0102 71.7953C51.8702 70.9616 51.5433 70.1534 51.0827 69.3556C51.2744 69.4871 51.4536 69.6359 51.618 69.8003C51.7039 69.8798 51.7771 69.9705 51.8567 70.0572C51.9362 70.1439 52.0078 70.2386 52.0754 70.3348C52.2159 70.5276 52.3419 70.7304 52.4525 70.9418C52.5042 71.0491 52.5607 71.1557 52.6044 71.2671L52.6744 71.4342C52.6959 71.4906 52.7142 71.5479 52.7349 71.6044C52.8926 72.0645 52.9837 72.5448 53.0053 73.0307C53.0242 73.5197 52.979 74.0091 52.8709 74.4864C52.7546 74.9624 52.5751 75.4207 52.3371 75.849L52.1486 76.1616C52.0794 76.2619 52.007 76.3597 51.9354 76.4576C51.9 76.507 51.862 76.5545 51.8217 76.6C51.7827 76.6461 51.7421 76.6922 51.7039 76.7376C51.6658 76.7829 51.6244 76.829 51.5822 76.872L51.4534 76.9993C50.7799 77.6739 49.9114 78.1197 48.9707 78.2736V78.2736Z" fill="#592D3D"/>
<path d="M23.3848 49.0811C23.3053 46.8251 24.8167 44.916 26.8276 44.025C27.0388 43.9386 27.2557 43.8668 27.4767 43.8103C28.5912 43.5334 29.764 43.6079 30.8344 44.0234C31.0791 44.1173 31.3169 44.2278 31.5464 44.3544C33.8954 45.6176 34.9502 48.5902 34.041 50.9934C33.9488 51.2357 33.8377 51.4703 33.7085 51.695C33.3912 52.3558 32.9121 52.9258 32.3156 53.3519C32.1166 53.4984 31.908 53.6313 31.6912 53.7497C29.5132 54.7838 26.5699 54.4656 24.8143 52.8428C24.6387 52.6563 24.4763 52.4577 24.3283 52.2486C24.1594 52.0097 24.0112 51.7569 23.8852 51.4929C23.6185 50.9529 23.4644 50.3642 23.4326 49.7628C23.4038 49.5366 23.3878 49.309 23.3848 49.0811V49.0811Z" fill="#F3AB98"/>
<path d="M23.255 47.6212C23.1754 45.3653 24.6868 43.4561 26.6978 42.5652C26.9087 42.4788 27.1253 42.407 27.3461 42.3504C28.4608 42.0734 29.6338 42.1479 30.7045 42.5636C30.9484 42.6575 31.1855 42.7681 31.4141 42.8945C33.7631 44.1585 34.8179 47.1304 33.9087 49.5335C33.8172 49.7761 33.706 50.0107 33.5762 50.2351C33.4662 50.4506 33.341 50.658 33.2015 50.8556C33.064 51.0515 32.9131 51.2375 32.7497 51.4124C32.5731 51.5872 32.3838 51.7486 32.1833 51.8953C31.9845 52.0419 31.7758 52.1748 31.5589 52.293C29.3809 53.3271 26.4376 53.0089 24.6828 51.3862C24.5068 51.2 24.3444 51.0014 24.1968 50.792C24.0277 50.5531 23.8792 50.3003 23.7529 50.0363C23.4844 49.4946 23.3298 48.9036 23.2987 48.2997C23.2706 48.0746 23.256 47.8481 23.255 47.6212V47.6212Z" fill="white" stroke="#592D3D" stroke-width="1.57179" stroke-miterlimit="10"/>
<path d="M31.5454 47.0324V47.4835C31.5409 47.4934 31.5375 47.5038 31.5351 47.5145C31.5124 47.6947 31.4608 47.8701 31.3824 48.0339C31.2102 48.3906 30.9792 48.7157 30.699 48.9957C30.1231 49.578 29.4748 50.0841 28.77 50.5015C28.7579 50.5108 28.7431 50.5158 28.7279 50.5158C28.7126 50.5158 28.6978 50.5108 28.6857 50.5015C28.123 50.165 27.594 49.7753 27.1059 49.3377C26.7556 49.0296 26.451 48.6731 26.2014 48.2789C26.0639 48.0626 25.9713 47.8209 25.9292 47.568C25.8871 47.3152 25.8964 47.0565 25.9564 46.8073C26.2126 45.6682 27.6269 45.2028 28.5139 45.9665C28.5895 46.0309 28.6563 46.1065 28.7318 46.1813C28.7364 46.1735 28.7415 46.1661 28.747 46.159C29.1447 45.7167 29.6299 45.5226 30.2138 45.6173C30.8542 45.7247 31.2734 46.1073 31.4778 46.723C31.5059 46.8248 31.5285 46.9281 31.5454 47.0324V47.0324Z" fill="#E2495B"/>
<path d="M48.2422 48.4399C48.2764 47.2363 48.7727 46.0463 49.4433 45.1522C49.6146 44.9119 49.8039 44.6851 50.0097 44.4736C50.925 43.5206 52.1505 42.9257 53.4654 42.7959C54.7804 42.6661 56.0985 43.01 57.1825 43.7657C57.3632 43.8918 57.5366 44.028 57.7019 44.1738C59.8497 45.88 60.0979 49.1964 58.9206 51.5899C58.8062 51.7801 58.6792 51.9624 58.5403 52.1356C58.3563 52.3664 58.1547 52.5826 57.9374 52.7823C56.325 54.2007 53.816 54.5427 51.7796 53.7703C51.4895 53.6609 51.2088 53.5279 50.9404 53.3726C49.5165 52.5151 48.5246 50.8995 48.2811 49.2178C48.248 48.9599 48.2349 48.6998 48.2422 48.4399V48.4399Z" fill="#F3AB98"/>
<path d="M48.6799 47.5243C48.7133 46.3987 49.1906 45.2851 49.8349 44.449C50.0007 44.2236 50.1831 44.0109 50.3806 43.8126C51.2753 42.9182 52.4531 42.3627 53.7123 42.2413C54.9715 42.1198 56.2338 42.4399 57.2829 43.1468C57.4565 43.2643 57.6233 43.3915 57.7825 43.5279C59.8507 45.1244 60.0894 48.2267 58.955 50.466C58.8451 50.6445 58.7228 50.8152 58.5891 50.9767C58.4115 51.1927 58.2176 51.3948 58.0092 51.5812C56.4572 52.9128 54.043 53.231 52.0837 52.5072C51.8043 52.4045 51.5338 52.2792 51.2748 52.1325C49.9049 51.3306 48.9504 49.8193 48.7157 48.2466C48.6844 48.0072 48.6724 47.7657 48.6799 47.5243Z" fill="white" stroke="#592D3D" stroke-width="1.57179" stroke-miterlimit="10"/>
<path d="M57.096 46.8927V47.3382C57.0921 47.3483 57.0889 47.3586 57.0865 47.3692C57.0642 47.5469 57.0134 47.7199 56.9361 47.8815C56.7658 48.2337 56.5375 48.5548 56.2608 48.8313C55.691 49.4069 55.0493 49.9066 54.3516 50.318C54.34 50.3262 54.3261 50.3306 54.3119 50.3306C54.2976 50.3306 54.2838 50.3262 54.2721 50.318C53.7165 49.986 53.1942 49.6013 52.7122 49.1693C52.3668 48.8648 52.0663 48.5129 51.8197 48.1241C51.6849 47.91 51.5943 47.6712 51.5534 47.4216C51.5124 47.172 51.5218 46.9167 51.581 46.6708C51.834 45.546 53.2348 45.087 54.1066 45.8403C54.1814 45.9039 54.2474 45.9787 54.3214 46.0527C54.3262 46.0447 54.3318 46.0376 54.3365 46.0304C54.7263 45.5937 55.2116 45.3988 55.7851 45.4959C56.4215 45.6017 56.8319 45.9795 57.0332 46.5872C57.06 46.6878 57.081 46.7898 57.096 46.8927V46.8927Z" fill="#E2495B"/>
<path fill-rule="evenodd" clip-rule="evenodd" d="M21.1963 42.1051C21.6449 43.3643 22.8588 44.019 23.8532 44.2481C24.8921 42.638 28.3595 41.9476 30.9623 42.8608C33.1737 43.2585 30.1024 40.8267 25.1975 42.1448C25.0138 42.2125 24.0393 42.3795 22.7888 41.4138C22.6146 41.2794 23.1611 42.5044 23.7832 43.0047C22.8803 42.9864 22.7323 42.9872 21.1963 42.1051Z" fill="#592D3D"/>
<path fill-rule="evenodd" clip-rule="evenodd" d="M59.1644 43.0033C59.7865 42.5061 60.3329 41.2811 60.1587 41.4124C58.9083 42.3781 57.9314 42.2078 57.75 42.1434C52.8452 40.8229 49.7731 43.2571 51.9845 42.8593C54.588 41.9461 58.0555 42.6366 59.0944 44.2466C60.0887 44.0175 61.3026 43.3629 61.7513 42.1036C60.2152 42.9866 60.0673 42.9858 59.1644 43.0033Z" fill="#592D3D"/>
<path d="M37.0449 52.6636C37.0449 51.1602 46.091 51.3861 46.091 52.6636C46.091 53.8632 45.6145 55.0136 44.7663 55.8619C43.918 56.7101 42.7676 57.1866 41.568 57.1866C40.3684 57.1866 39.2179 56.7101 38.3697 55.8619C37.5215 55.0136 37.0449 53.8632 37.0449 52.6636V52.6636Z" fill="#592D3D"/>
<path d="M41.1703 54.3455C39.822 54.266 38.6463 54.8825 38.2549 55.7949C38.9056 56.4824 39.7557 56.9483 40.6853 57.1272C41.6149 57.306 42.5772 57.1886 43.4366 56.7916C43.6153 56.7091 43.7883 56.6148 43.9544 56.5092C43.8813 55.3868 42.6865 54.4394 41.1703 54.3455Z" fill="#F28195"/>
<path d="M37.0449 52.6636C37.0449 51.1602 46.091 51.3861 46.091 52.6636C46.091 53.8632 45.6145 55.0136 44.7663 55.8619C43.918 56.7101 42.7676 57.1866 41.568 57.1866C40.3684 57.1866 39.2179 56.7101 38.3697 55.8619C37.5215 55.0136 37.0449 53.8632 37.0449 52.6636V52.6636Z" stroke="#592D3D" stroke-width="0.785893" stroke-miterlimit="10"/>
<path d="M39.8291 53.5067C39.8649 53.498 39.8792 53.494 39.9023 53.49L39.9619 53.4789C40.0009 53.4717 40.0415 53.4677 40.0781 53.4646C40.1545 53.4568 40.2313 53.4541 40.308 53.4566C40.4635 53.46 40.6181 53.4816 40.7686 53.521C41.0837 53.6008 41.3694 53.7692 41.5919 54.0063C41.8012 54.2314 41.9414 54.5119 41.996 54.8145C42.0457 55.0935 42.0079 55.3811 41.8878 55.6378C41.7231 55.4047 41.5966 55.1955 41.4646 55.0205C41.4051 54.9366 41.34 54.8569 41.2697 54.7819C41.2055 54.716 41.1333 54.6583 41.0549 54.61C40.9064 54.5211 40.7408 54.4644 40.5689 54.4438C40.4787 54.4321 40.3878 54.4258 40.2968 54.4247C40.2499 54.4247 40.203 54.4247 40.1568 54.4287L40.0892 54.4334H40.0582C40.0502 54.4334 40.0343 54.4334 40.0399 54.4334L39.8291 53.5067Z" fill="#592D3D"/>
<path d="M41.545 25.3305C46.2713 25.3305 50.1027 21.499 50.1027 16.7728C50.1027 12.0465 46.2713 8.21509 41.545 8.21509C36.8187 8.21509 32.9873 12.0465 32.9873 16.7728C32.9873 21.499 36.8187 25.3305 41.545 25.3305Z" fill="#D96E27"/>
<path d="M46.2848 34.8038C45.2611 36.7129 41.512 37.782 41.2073 37.3031C40.8653 36.7678 44.2174 32.9026 42.313 28.86" fill="#F3AB98"/>
<path d="M35.2705 13.9033C35.4898 13.2743 35.8177 12.6888 36.2394 12.1731C36.3484 12.0467 36.4558 11.9178 36.5703 11.7961C36.6849 11.6744 36.8089 11.5574 36.9307 11.4453C37.0524 11.3331 37.186 11.2281 37.3188 11.1271C37.4517 11.0261 37.5901 10.9282 37.7301 10.8368C37.8701 10.7453 38.0165 10.661 38.1652 10.583L38.3896 10.4692C38.4635 10.4296 38.5394 10.3938 38.6171 10.3619C38.7762 10.3014 38.9265 10.233 39.0856 10.1797C39.2447 10.1264 39.4038 10.0747 39.5629 10.0357C40.2078 9.86805 40.877 9.81421 41.5404 9.87662C40.8914 9.93914 40.2512 10.0725 39.6313 10.2744C39.5517 10.295 39.4801 10.33 39.4046 10.3539L39.1779 10.4334C39.0283 10.4915 38.8843 10.5647 38.7372 10.6283C38.59 10.692 38.4524 10.7755 38.3092 10.8487C38.166 10.9219 38.0356 11.0149 37.898 11.0969C37.7603 11.1788 37.6331 11.2782 37.5002 11.3681C37.3674 11.458 37.2496 11.5686 37.1216 11.6664C36.9935 11.7643 36.8829 11.8796 36.7612 11.9846L36.4208 12.3275C35.98 12.8084 35.5942 13.337 35.2705 13.9033V13.9033Z" fill="white"/>
<path d="M34.3936 21.4729C35.9209 23.7989 36.4514 21.7505 41.4096 21.7505C49.9379 21.7505 47.2659 23.7392 48.7828 21.3409C46.5881 20.5733 45.2828 19.7985 41.7724 19.7985C38.4075 19.7985 36.6917 20.621 34.3936 21.4729Z" fill="#C65C22"/>
<path d="M41.545 25.3305C46.2713 25.3305 50.1027 21.499 50.1027 16.7728C50.1027 12.0465 46.2713 8.21509 41.545 8.21509C36.8187 8.21509 32.9873 12.0465 32.9873 16.7728C32.9873 21.499 36.8187 25.3305 41.545 25.3305Z" stroke="#592D3D" stroke-width="1.57179" stroke-miterlimit="10"/>
<path d="M35.3253 22.6513C28.4556 24.9629 22.7775 30.7794 21.2884 37.3866C18.7381 47.4525 22.7067 53.6301 26.2291 57.4166C26.5767 57.7904 20.7037 46.4184 26.0358 38.2457C30.8961 38.0611 38.1604 37.1018 41.6095 33.2454C41.2643 34.9262 40.2954 36.2093 40.4545 36.4622C40.6836 36.821 43.4924 36.0224 44.26 34.5897L44.3261 34.3025C47.0879 35.3032 51.6253 36.4177 55.7808 34.8284C65.5763 45.8297 56.7847 58.0052 57.5014 57.2097C61.0399 53.3123 62.9971 48.2349 62.9902 42.9708C62.9902 36.0963 59.4679 31.127 59.4679 31.127C57.0401 26.7989 52.8241 23.819 47.9494 22.4476" fill="#D96E27"/>
<path d="M27.7801 38.1479C28.2081 33.9939 29.7688 29.1988 32.9268 23.6782C32.711 23.7779 32.4973 23.8808 32.2857 23.9869L32.2388 24.0099C32.1417 24.0585 32.0447 24.1086 31.9484 24.1595L31.8689 24.2016C31.5698 24.3607 31.2746 24.5259 30.9835 24.6972L30.9119 24.7394C30.8196 24.7943 30.7282 24.85 30.6367 24.9064L30.5683 24.9494C30.2835 25.127 30.0035 25.3108 29.7282 25.5006L29.6423 25.5603C29.5564 25.6208 29.4705 25.6812 29.3854 25.7425L29.3337 25.7799C29.1603 25.9066 28.9887 26.0349 28.819 26.1649L28.7697 26.203C28.6902 26.2651 28.6106 26.3287 28.5311 26.3932L28.4372 26.4679C28.3577 26.5324 28.2781 26.5968 28.1986 26.6628C28.0307 26.802 27.866 26.9452 27.7022 27.09L27.6115 27.1695L27.3975 27.3644L27.2925 27.4583C27.0661 27.6704 26.8441 27.8871 26.6267 28.1082L26.5177 28.2204C26.4541 28.2856 26.3912 28.3508 26.3292 28.4168L26.2202 28.5346C26.1115 28.6534 26.0041 28.7719 25.8981 28.8902C25.8615 28.9307 25.8249 28.9697 25.7891 29.0127C25.7326 29.0771 25.6769 29.1423 25.6212 29.2083C25.5807 29.2553 25.5417 29.3022 25.5011 29.3499C25.447 29.4144 25.3929 29.4788 25.342 29.544C25.2991 29.5965 25.2569 29.6498 25.2139 29.7031C25.1296 29.8089 25.0461 29.9147 24.9634 30.0213C24.9196 30.077 24.8767 30.1327 24.8345 30.1892C24.7923 30.2456 24.739 30.3156 24.6921 30.3801L24.5656 30.5535C24.5211 30.6155 24.4757 30.6768 24.432 30.7388C24.3572 30.8454 24.2824 30.9528 24.2093 31.061C24.1695 31.1191 24.1297 31.1787 24.0915 31.2376C24.0534 31.2965 24.0032 31.3696 23.9603 31.4365C23.9173 31.5033 23.8807 31.559 23.8426 31.6202C23.8044 31.6815 23.7527 31.7634 23.7081 31.8358C23.6739 31.8907 23.6397 31.9456 23.6063 32.0004C23.5363 32.1166 23.4674 32.2333 23.3995 32.3505C23.3661 32.4077 23.3342 32.465 23.3016 32.5223C23.2587 32.5978 23.2157 32.6742 23.1736 32.7506C23.1417 32.8086 23.1099 32.8667 23.0789 32.9248C23.028 33.0194 22.9779 33.1149 22.9286 33.2104C22.8959 33.2724 22.8641 33.3345 22.8323 33.3965C22.7814 33.4983 22.7305 33.5993 22.6812 33.702C22.6541 33.7568 22.6279 33.8125 22.6016 33.8682C22.5603 33.9549 22.5221 34.0424 22.4791 34.1299L22.4067 34.289C22.3479 34.42 22.2903 34.5526 22.2341 34.6868C22.2166 34.7281 22.1999 34.7703 22.1824 34.8116C22.1402 34.9127 22.1029 35.0137 22.0583 35.1155C22.0376 35.1688 22.0162 35.2221 21.9955 35.2746C21.9565 35.3748 21.9159 35.4759 21.8801 35.5769L21.8316 35.7081C21.7786 35.8476 21.7293 35.9871 21.6836 36.1266L21.6391 36.2618C21.6041 36.3679 21.5699 36.4739 21.5365 36.58C21.5206 36.6301 21.5047 36.681 21.4895 36.7319C21.4514 36.8544 21.4148 36.9772 21.3798 37.1002C21.3718 37.1265 21.3639 37.1527 21.3567 37.1798C21.3153 37.3261 21.2756 37.473 21.2374 37.6205L21.2016 37.762C21.1865 37.8209 21.1722 37.8806 21.1578 37.9402C21.0337 38.4724 20.9287 38.9926 20.8396 39.5025C20.8317 39.5542 20.8221 39.6059 20.8142 39.6577L20.7951 39.7778C20.7712 39.9337 20.7495 40.0899 20.7299 40.2463C20.7251 40.2805 20.7211 40.3155 20.7171 40.3497C20.7012 40.4762 20.6869 40.6035 20.6734 40.7307L20.6591 40.8747C20.6456 41.0084 20.6336 41.1428 20.6233 41.2772L20.6161 41.3568C20.6039 41.5159 20.5938 41.6763 20.5859 41.838C20.5859 41.8802 20.5819 41.9232 20.5795 41.9653C20.5737 42.0905 20.5689 42.2154 20.5652 42.34C20.5652 42.3869 20.5652 42.4339 20.5612 42.4808C20.5612 42.6439 20.5557 42.8077 20.5557 42.9716V42.9795C20.5557 43.1551 20.5578 43.3306 20.562 43.5061C20.562 43.5666 20.5668 43.6271 20.5684 43.6875C20.5724 43.8044 20.5763 43.9214 20.5819 44.0383C20.5859 44.1091 20.5907 44.1791 20.5946 44.2499C20.601 44.3557 20.6074 44.4615 20.6145 44.5681C20.6201 44.6477 20.6273 44.7184 20.6336 44.7932C20.6424 44.8934 20.6503 44.9937 20.6607 45.0931C20.6678 45.1727 20.6774 45.2474 20.6853 45.3246C20.6965 45.4208 20.7068 45.5179 20.7187 45.6141C20.7283 45.6937 20.7394 45.7732 20.7498 45.8488C20.7625 45.9427 20.776 46.0373 20.7895 46.1312C20.8015 46.2108 20.8142 46.2903 20.8269 46.3698C20.842 46.4621 20.8564 46.5552 20.8731 46.6475C20.8866 46.727 20.9009 46.8066 20.916 46.8861C20.9327 46.9776 20.9502 47.0691 20.9685 47.1597C20.9868 47.2504 21.0003 47.3188 21.017 47.3984C21.0361 47.4891 21.0552 47.579 21.0759 47.6689C21.0966 47.7587 21.1117 47.8279 21.13 47.9019C21.1507 47.9918 21.173 48.0809 21.1952 48.1692C21.2175 48.2575 21.2342 48.3243 21.2549 48.4007C21.278 48.4898 21.3018 48.5781 21.3265 48.6664C21.348 48.7459 21.3686 48.8191 21.3909 48.8947C21.4164 48.983 21.4426 49.0705 21.4705 49.158C21.4983 49.2455 21.5158 49.3083 21.5397 49.3839C21.5635 49.4595 21.5961 49.5581 21.6248 49.6448C21.6494 49.7188 21.6733 49.7936 21.6988 49.8675L21.7902 50.1277L21.8698 50.3456C21.9024 50.4323 21.9358 50.519 21.9692 50.6057C21.9963 50.6765 22.0233 50.7481 22.0488 50.8189C22.0838 50.9056 22.1196 50.9931 22.1554 51.0798C22.184 51.1482 22.2118 51.2174 22.2413 51.2859C22.2795 51.375 22.3208 51.4625 22.3574 51.5508C22.386 51.6168 22.4147 51.682 22.4441 51.7472C22.4855 51.8395 22.5292 51.9302 22.5722 52.0209C22.6008 52.0821 22.6287 52.1434 22.6581 52.2038C22.7058 52.3041 22.7559 52.4027 22.8061 52.5021L22.8816 52.6533C23.0344 52.9508 23.1934 53.2443 23.3589 53.5339C23.3875 53.5832 23.417 53.6317 23.4456 53.6802C23.5013 53.7757 23.5562 53.8711 23.6135 53.965C23.6485 54.0223 23.6843 54.078 23.7193 54.1352C23.7718 54.2204 23.8243 54.3055 23.8783 54.389C23.9165 54.4495 23.9579 54.5083 23.9953 54.5672C24.047 54.6467 24.0995 54.7263 24.1544 54.8058C24.1949 54.8663 24.2339 54.9267 24.2785 54.9872C24.331 55.0667 24.3835 55.1399 24.4376 55.2163C24.4805 55.2775 24.5251 55.338 24.5688 55.3992C24.6126 55.4605 24.6754 55.5464 24.7279 55.6196C24.7804 55.6928 24.8194 55.7413 24.8647 55.8018L25.0294 56.0165C25.0763 56.077 25.1241 56.1366 25.1718 56.1963C25.2195 56.256 25.2839 56.3363 25.3404 56.4055C25.3969 56.4747 25.4383 56.524 25.4876 56.5829C25.5369 56.6418 25.6021 56.7197 25.6602 56.7873C25.7183 56.855 25.7612 56.9043 25.8121 56.9623L25.9887 57.1612C26.0404 57.2193 26.0929 57.2758 26.1478 57.333L26.2393 57.4325C26.47 57.5852 20.7577 46.3516 26.0396 38.2552C26.5901 38.2234 27.1708 38.1924 27.7801 38.1479Z" fill="#C65C22"/>
<path d="M54.1329 33.3391C54.1329 33.3391 53.9659 34.9945 50.1055 35.5839C51.9438 35.7112 53.9031 35.5473 55.7835 34.8274C56.0397 35.1146 54.1329 33.3391 54.1329 33.3391Z" fill="#C65C22"/>
<path d="M26.0365 38.2767C26.0365 38.2767 25.1615 38.3674 23.5889 38.1263Z" fill="#D96E27"/>
<path d="M26.0857 38.7541C26.0451 38.7605 26.0212 38.7629 25.991 38.766C25.9608 38.7692 25.9345 38.7716 25.9059 38.774C25.8502 38.774 25.7953 38.7804 25.7404 38.7804C25.6315 38.7804 25.5233 38.7804 25.4159 38.7676C25.2018 38.7494 24.9892 38.717 24.7795 38.6706C24.6753 38.6475 24.5719 38.6237 24.4693 38.591C24.3657 38.5644 24.264 38.5312 24.1646 38.4916C23.9508 38.4079 23.755 38.284 23.5879 38.1265C23.6926 38.0732 23.8021 38.0298 23.9148 37.9968C24.0179 37.966 24.1229 37.9418 24.229 37.9244C24.4351 37.891 24.6363 37.8807 24.8368 37.8616C25.0372 37.8425 25.2345 37.8306 25.4294 37.8194C25.5265 37.8131 25.6235 37.8099 25.7182 37.8059H25.8598C25.8828 37.8059 25.9067 37.8059 25.9282 37.8059C25.9496 37.8059 25.9759 37.8059 25.9862 37.8059L26.0857 38.7541Z" fill="#592D3D"/>
<path d="M55.6486 34.7119C55.6486 34.7119 54.7967 33.5744 52.4365 32.246Z" fill="#D96E27"/>
<path d="M55.2626 34.9979L55.1218 34.846L54.9627 34.6774C54.8521 34.5652 54.7384 34.4507 54.623 34.3393C54.3907 34.115 54.1497 33.8922 53.9071 33.6711C53.6645 33.45 53.4059 33.2384 53.157 33.0093C53.0329 32.8947 52.908 32.7778 52.7887 32.6497C52.6629 32.5228 52.5462 32.3873 52.4395 32.244C52.6183 32.2657 52.7952 32.3014 52.9684 32.3506C53.1371 32.4008 53.3028 32.4603 53.4648 32.5288C53.6239 32.5996 53.783 32.6744 53.9349 32.7603C54.0869 32.8462 54.2404 32.9297 54.3899 33.022C54.6908 33.2055 54.9787 33.4097 55.2514 33.6329C55.3875 33.7483 55.5243 33.8644 55.6492 33.9933C55.7144 34.0561 55.7773 34.1229 55.8393 34.1921C55.8703 34.2279 55.9013 34.2613 55.9316 34.2995C55.9618 34.3377 55.9888 34.3703 56.0286 34.426L55.2626 34.9979Z" fill="#592D3D"/>
<path d="M35.3253 22.6513C28.4556 24.9629 22.7775 30.7794 21.2884 37.3866C18.7381 47.4525 22.7067 53.6301 26.2291 57.4166C26.5767 57.7904 20.7037 46.4184 26.0358 38.2457C30.8961 38.0611 38.1604 37.1018 41.6095 33.2454C41.2643 34.9262 40.2954 36.2093 40.4545 36.4622C40.6836 36.821 43.4924 36.0224 44.26 34.5897L44.3261 34.3025C47.0879 35.3032 51.6253 36.4177 55.7808 34.8284C65.5763 45.8297 56.7847 58.0052 57.5014 57.2097C61.0399 53.3123 62.9971 48.2349 62.9902 42.9708C62.9902 36.0963 59.4679 31.127 59.4679 31.127C57.0401 26.7989 52.8241 23.819 47.9494 22.4476" stroke="#592D3D" stroke-width="1.57179" stroke-miterlimit="10"/>
<path d="M43.1683 23.0176C42.0352 23.0825 40.9069 23.2135 39.7891 23.4097C39.5115 23.4638 39.2323 23.5227 38.9587 23.5736C38.685 23.6245 38.4098 23.7017 38.1353 23.7653L37.3184 23.9817C37.0487 24.0612 36.7807 24.1471 36.5118 24.2291C35.4391 24.5749 34.3912 24.9932 33.3752 25.4811C32.3542 25.9766 31.3646 26.5345 30.4121 27.1516C31.2604 26.3776 32.197 25.7063 33.2026 25.1518C34.2086 24.5892 35.2681 24.1282 36.3654 23.7756C36.6414 23.6961 36.9167 23.6102 37.1943 23.533C37.4719 23.4559 37.7511 23.3882 38.0327 23.327C38.3143 23.2657 38.5975 23.2148 38.8807 23.1679C39.1639 23.121 39.4495 23.082 39.735 23.047C40.8746 22.9064 42.0265 22.8965 43.1683 23.0176V23.0176Z" fill="white"/>
<path d="M43.9404 21.7968C44.3429 21.7005 44.7548 21.6493 45.1686 21.6441C45.3723 21.6393 45.5751 21.6441 45.7788 21.6544C45.9824 21.6648 46.186 21.6783 46.3897 21.6958C46.7996 21.7313 47.2073 21.7897 47.6107 21.8708C48.0192 21.9501 48.4204 22.0629 48.8103 22.2081L48.5001 23.1109C48.1334 23.0011 47.7651 22.8898 47.3912 22.7872C47.0173 22.6845 46.6395 22.5875 46.2576 22.492L45.6809 22.352C45.4876 22.3067 45.2935 22.2606 45.1002 22.2081C44.7019 22.1065 44.3137 21.9688 43.9404 21.7968V21.7968Z" fill="#592D3D"/>
<path d="M34.6035 22.4066C34.9568 22.2699 35.3198 22.1596 35.6893 22.0764C36.057 21.9925 36.4287 21.9275 36.803 21.8815C36.9891 21.8593 37.1753 21.8394 37.3598 21.8251C37.5444 21.8107 37.7329 21.7988 37.9167 21.798C38.2988 21.7922 38.6802 21.8344 39.0518 21.9237C38.7178 22.1013 38.3682 22.2477 38.0073 22.3612C37.8331 22.4193 37.6581 22.4702 37.4831 22.5203L36.9621 22.6738C36.6169 22.7788 36.2724 22.8807 35.9327 22.992C35.5931 23.1034 35.255 23.2084 34.9153 23.3102L34.6035 22.4066Z" fill="#592D3D"/>
<path d="M42.7038 22.2157C42.9604 22.2157 43.1684 22.0077 43.1684 21.7512C43.1684 21.4946 42.9604 21.2866 42.7038 21.2866C42.4472 21.2866 42.2393 21.4946 42.2393 21.7512C42.2393 22.0077 42.4472 22.2157 42.7038 22.2157Z" fill="#592D3D"/>
<path d="M41.4074 22.0766C41.5881 22.0766 41.7347 21.9301 41.7347 21.7493C41.7347 21.5685 41.5881 21.422 41.4074 21.422C41.2266 21.422 41.0801 21.5685 41.0801 21.7493C41.0801 21.9301 41.2266 22.0766 41.4074 22.0766Z" fill="#592D3D"/>
<path d="M49.5942 39.8333C50.4727 39.6094 51.3625 39.4328 52.2599 39.3043L52.0483 39.3322C53.0967 39.1938 54.1594 39.1532 55.2103 39.294L54.9987 39.2654C55.2588 39.3019 55.5189 39.3449 55.7798 39.3783L55.5682 39.3497C56.36 39.4582 57.1435 39.6206 57.9133 39.8357C58.311 39.9463 58.7962 39.6981 58.8917 39.2789C58.9437 39.0754 58.9147 38.8597 58.8108 38.6772C58.707 38.4947 58.5363 38.3596 58.3349 38.3004C57.4322 38.0532 56.5125 37.873 55.5833 37.7611L55.7949 37.7898C54.9174 37.634 54.0246 37.582 53.1349 37.6346C52.25 37.6927 51.3704 37.8137 50.5027 37.9966C50.0556 38.0865 49.6117 38.1899 49.1694 38.2989C48.7653 38.3983 48.4837 38.8764 48.6126 39.2773C48.6718 39.4788 48.8069 39.6494 48.9894 39.7533C49.1719 39.8571 49.3876 39.8861 49.591 39.8341L49.5942 39.8333Z" fill="#592D3D"/>
<path d="M24.5576 39.8355C25.32 39.6142 26.0977 39.4497 26.8844 39.3431L26.6728 39.3717C28.0295 39.194 29.4038 39.1962 30.7599 39.3781L30.5483 39.3502C31.3394 39.4581 32.1221 39.6202 32.891 39.8355C33.2887 39.9468 33.774 39.6979 33.8694 39.2786C33.9214 39.0752 33.8924 38.8595 33.7886 38.677C33.6847 38.4945 33.5141 38.3594 33.3126 38.3002C32.1637 37.9806 30.9859 37.7754 29.7966 37.6877C27.8869 37.5634 25.9701 37.7709 24.1313 38.301C23.9319 38.3587 23.7615 38.4893 23.654 38.6669C23.5477 38.8526 23.5192 39.0728 23.5744 39.2794C23.7057 39.6859 24.1241 39.9588 24.5529 39.8363L24.5576 39.8355Z" fill="#592D3D"/>
</g>
<defs>
<clipPath id="clip0">
<rect x="0.838867" width="80.0968" height="80.0968" rx="40.0484" fill="white"/>
</clipPath>
</defs>
</svg>
