<svg width="81" height="81" viewBox="0 0 81 81" fill="none" xmlns="http://www.w3.org/2000/svg">
<g clip-path="url(#clip0)">
<path d="M51.0352 60.3522C59.2751 60.3522 57.5719 70.7238 57.6509 82.2575H51.0352V60.3522Z" fill="#FDD2B2"/>
<path d="M53.0997 66.9931L51.0352 70.4548L52.0683 82.2572H54.9517C55.0217 65.8909 53.0997 66.9931 53.0997 66.9931Z" fill="#F3AB98"/>
<path d="M16.8321 36.8638C16.8321 23.4889 27.6748 12.6461 41.0497 12.6461C54.4246 12.6461 65.2673 23.4889 65.2673 36.8638C65.2708 40.4675 64.4683 44.0264 62.9187 47.28C61.369 50.5335 59.1114 53.3994 56.3111 55.6677C55.8142 56.072 55.3016 56.4561 54.7732 56.8198C49.3114 60.287 42.4115 60.287 36.1826 59.7323C35.5779 59.6415 34.9751 59.5271 34.3768 59.3955C31.9864 58.8689 29.6722 58.0564 27.5341 56.8716C27.0057 56.546 26.4934 56.1943 25.9971 55.8166C25.4982 55.4368 25.0194 55.0313 24.5626 54.6019C24.1305 54.2006 23.7132 53.7836 23.3107 53.3508C19.1396 48.8749 16.824 42.9819 16.8321 36.8638Z" fill="#FDD2B2"/>
<path d="M20.1328 49.0726C20.1963 49.1815 20.259 49.2905 20.3243 49.3976C20.3634 49.463 20.4042 49.5265 20.4451 49.5919C20.505 49.689 20.5649 49.7862 20.6267 49.8815C20.6702 49.9505 20.7175 50.0177 20.7592 50.0849C20.8191 50.1757 20.8791 50.2664 20.9408 50.3572C20.9871 50.4262 21.0316 50.4952 21.0824 50.5642C21.1423 50.655 21.2023 50.7385 21.264 50.8257C21.313 50.8956 21.3639 50.9646 21.4138 51.0345C21.4637 51.1044 21.5355 51.2025 21.5954 51.286C21.6553 51.3695 21.6998 51.4249 21.7524 51.4939C21.8051 51.5629 21.8768 51.6573 21.9404 51.739C22.0039 51.8207 22.0484 51.8761 22.1029 51.9442C22.1574 52.0123 22.2309 52.104 22.2954 52.183C22.3598 52.262 22.407 52.3182 22.4633 52.3854C22.5196 52.4526 22.594 52.5416 22.6603 52.6188C22.7266 52.6959 22.7756 52.7522 22.8337 52.8185L23.0353 53.0455C23.0943 53.1117 23.1542 53.1762 23.2168 53.2416C23.2949 53.3269 23.3739 53.4113 23.4529 53.4949L23.5628 53.6111C23.6799 53.7327 23.7979 53.8544 23.9177 53.9742L23.9413 53.9987C24.0585 54.1149 24.1774 54.2302 24.2963 54.3446L24.4398 54.4808C24.526 54.5616 24.6123 54.6424 24.6994 54.7223L24.8047 54.8186C24.8955 54.9039 24.9945 54.9874 25.0898 55.0709C25.3864 55.3294 25.689 55.5772 25.9977 55.8145C26.4934 56.1922 27.0057 56.5438 27.5347 56.8694C29.6728 58.0497 31.9833 58.8668 34.3774 59.3933C34.9757 59.525 35.5785 59.6385 36.1832 59.7302C40.0053 60.0706 44.0817 60.2005 47.9202 59.4505C41.8165 57.6539 12.5048 47.0989 30.9538 14.8456C30.7068 14.9591 30.4635 15.0762 30.222 15.1978L30.1685 15.2242C30.0577 15.2795 29.9469 15.3367 29.8371 15.3948L29.7463 15.443C29.4049 15.6245 29.0672 15.8125 28.7358 16.0086L28.6541 16.0567C28.5488 16.1193 28.4444 16.1829 28.34 16.2473L28.261 16.2964C27.9366 16.4991 27.6173 16.7089 27.3032 16.9255L27.2052 16.9936C27.1062 17.0626 27.0091 17.1316 26.9119 17.2015L26.852 17.2442C26.6541 17.3888 26.4586 17.5353 26.2655 17.6836L26.2092 17.7272C26.1184 17.798 26.0276 17.8706 25.9369 17.9442L25.8306 18.0295C25.7398 18.103 25.6491 18.1766 25.5583 18.2519C25.3667 18.4108 25.1779 18.5742 24.9917 18.7395L24.8883 18.8303L24.644 19.0527L24.526 19.1598C24.267 19.4019 24.0137 19.6492 23.7661 19.9016L23.6408 20.0296C23.5691 20.104 23.4974 20.1785 23.4266 20.2538C23.3848 20.2983 23.343 20.3446 23.3022 20.3882C23.1775 20.5213 23.0546 20.6563 22.9336 20.7931C22.8927 20.8394 22.851 20.8839 22.8101 20.9329C22.7457 21.0064 22.6821 21.0809 22.6186 21.1553L22.4815 21.3178C22.4197 21.3914 22.358 21.4649 22.2999 21.5394C22.2509 21.5993 22.2018 21.6601 22.1537 21.7209C22.0566 21.8417 21.9613 21.9624 21.8668 22.0841C21.8178 22.1476 21.7688 22.2112 21.7207 22.2757C21.6725 22.3401 21.6117 22.42 21.5582 22.4935C21.5046 22.5671 21.461 22.6252 21.4138 22.6915C21.3666 22.7577 21.3112 22.8322 21.2613 22.903C21.1753 23.0241 21.0906 23.1466 21.0071 23.2707C20.9617 23.337 20.9163 23.4051 20.8718 23.4722C20.8273 23.5394 20.7719 23.6229 20.7229 23.6992L20.5876 23.9089L20.4351 24.155C20.3961 24.2176 20.357 24.2802 20.3189 24.3429C20.2381 24.4754 20.16 24.6089 20.0819 24.7424L19.9712 24.9385C19.9222 25.0247 19.8731 25.1119 19.825 25.199C19.7887 25.2653 19.7524 25.3316 19.717 25.3978C19.6589 25.5059 19.6017 25.6148 19.5445 25.7238L19.4355 25.9362C19.3774 26.0524 19.3193 26.1677 19.2621 26.2848C19.2322 26.3475 19.2013 26.411 19.1713 26.4746C19.1241 26.5736 19.0806 26.6734 19.0324 26.7733C19.0043 26.8332 18.9771 26.8931 18.9498 26.9549C18.8826 27.1044 18.817 27.2557 18.7528 27.4088C18.7328 27.456 18.7138 27.5041 18.6938 27.5513C18.6457 27.6666 18.5985 27.7819 18.5522 27.8981C18.5277 27.959 18.5041 28.0198 18.4804 28.0797C18.4351 28.1941 18.3897 28.3094 18.3488 28.4247C18.3297 28.4746 18.3107 28.5246 18.2925 28.5745C18.2356 28.7337 18.1796 28.8929 18.1246 29.0521L18.0737 29.2064C18.0338 29.3274 17.9947 29.4485 17.9566 29.5695L17.9021 29.743C17.8595 29.8828 17.8177 30.0226 17.7777 30.1633C17.7687 30.1933 17.7596 30.2232 17.7514 30.2541C17.7042 30.4211 17.6588 30.5888 17.6152 30.7571C17.6007 30.8106 17.588 30.8651 17.5744 30.9187C17.5426 31.0448 17.5117 31.171 17.4836 31.2981L17.4455 31.457C17.4064 31.6295 17.3683 31.802 17.3329 31.9754L17.3193 32.0453C17.2884 32.1997 17.2581 32.354 17.2285 32.5084C17.2185 32.5637 17.2094 32.6182 17.1994 32.6736C17.1758 32.8089 17.1531 32.9459 17.1322 33.0821C17.125 33.1284 17.1168 33.1729 17.1105 33.2201C17.0832 33.3972 17.0587 33.5751 17.0351 33.754L17.0215 33.872C17.0033 34.0163 16.987 34.1616 16.9716 34.3069C16.9661 34.3613 16.9598 34.4158 16.9543 34.4712C16.9398 34.6237 16.9262 34.7771 16.9134 34.9306C16.9134 34.9623 16.908 34.9932 16.9062 35.0214C16.8929 35.2029 16.8811 35.386 16.8708 35.5706C16.8708 35.6187 16.8708 35.6678 16.8644 35.7159C16.8584 35.8587 16.8529 36.0013 16.8481 36.1435C16.8481 36.1971 16.8481 36.2506 16.8481 36.3042C16.8481 36.4903 16.8408 36.6773 16.8408 36.8644C16.8408 36.8644 16.8408 36.8707 16.8408 36.8734C16.8408 37.075 16.8408 37.2747 16.8481 37.4744C16.8481 37.5434 16.8535 37.6124 16.8553 37.6814C16.8599 37.8149 16.8644 37.9484 16.8708 38.0818C16.8708 38.1626 16.8808 38.2425 16.8853 38.3233C16.8926 38.4441 16.8989 38.5648 16.908 38.6865C16.9144 38.7773 16.9225 38.858 16.9298 38.9434C16.9398 39.0578 16.9489 39.1722 16.9607 39.2857C16.9688 39.3764 16.9797 39.4618 16.9888 39.5499C17.0015 39.6597 17.0133 39.7705 17.0269 39.8803C17.0378 39.9711 17.0505 40.0619 17.0623 40.1481C17.0769 40.2553 17.0914 40.3633 17.1077 40.4704C17.1214 40.5612 17.1359 40.652 17.1504 40.7428C17.1667 40.8481 17.184 40.9543 17.2022 41.0597C17.2185 41.1504 17.2348 41.2412 17.2521 41.332C17.2712 41.4364 17.2911 41.5408 17.3111 41.6443C17.3311 41.7478 17.3483 41.8259 17.3674 41.9167C17.3892 42.0202 17.411 42.1228 17.4346 42.2254C17.4582 42.328 17.4745 42.4069 17.4963 42.4914C17.5199 42.594 17.5453 42.6957 17.5708 42.7964C17.5962 42.8972 17.6152 42.9735 17.6379 43.0606C17.6652 43.1623 17.6924 43.2631 17.7206 43.3638C17.7442 43.4546 17.7687 43.5382 17.7941 43.6244C17.8231 43.7252 17.8531 43.8251 17.8849 43.9249C17.9167 44.0248 17.9375 44.0965 17.9648 44.1828C17.992 44.269 18.0283 44.3816 18.061 44.4805C18.0937 44.5795 18.1173 44.6503 18.1463 44.7347C18.1808 44.8337 18.2153 44.9327 18.2508 45.0316C18.2807 45.1142 18.3098 45.1978 18.3415 45.2804L18.4541 45.5773C18.4859 45.6581 18.5168 45.7398 18.5449 45.8206C18.5849 45.9195 18.6257 46.0194 18.6666 46.1184C18.6992 46.1964 18.731 46.2754 18.7646 46.3535C18.8073 46.4552 18.8554 46.555 18.8963 46.6558C18.9298 46.7303 18.9625 46.8056 18.9961 46.8801C19.0433 46.9854 19.0933 47.0889 19.1414 47.1924L19.2394 47.4012C19.2948 47.5156 19.352 47.6282 19.4092 47.7416C19.4383 47.7988 19.4655 47.8569 19.4955 47.9141C19.6698 48.2537 19.8513 48.5887 20.0402 48.9192C20.0665 48.9618 20.1001 49.0172 20.1328 49.0726Z" fill="#F3AB98"/>
<path d="M16.8321 36.8638C16.8321 23.4889 27.6748 12.6461 41.0497 12.6461C54.4246 12.6461 65.2673 23.4889 65.2673 36.8638C65.2708 40.4675 64.4683 44.0264 62.9187 47.28C61.369 50.5335 59.1114 53.3994 56.3111 55.6677C55.8142 56.072 55.3016 56.4561 54.7732 56.8198C49.3114 60.287 42.4115 60.287 36.1826 59.7323C35.5779 59.6415 34.9751 59.5271 34.3768 59.3955C31.9864 58.8689 29.6722 58.0564 27.5341 56.8716C27.0057 56.546 26.4934 56.1943 25.9971 55.8166C25.4982 55.4368 25.0194 55.0313 24.5626 54.6019C24.1305 54.2006 23.7132 53.7836 23.3107 53.3508C19.1396 48.8749 16.824 42.9819 16.8321 36.8638V36.8638Z" stroke="#592D3D" stroke-width="1.57179" stroke-miterlimit="10"/>
<path d="M30.7093 60.3522C22.4685 60.3522 24.1726 70.7238 24.0936 82.2575H30.7093V60.3522Z" fill="#FDD2B2"/>
<path d="M28.9931 66.9931L31.0604 70.4548L30.0263 82.2572H27.1456C27.0721 65.8909 28.9931 66.9931 28.9931 66.9931Z" fill="#F3AB98"/>
<path d="M51.8947 88.6126H30.2018C29.8822 88.6124 29.5758 88.4852 29.3499 88.2591C29.124 88.0331 28.9971 87.7265 28.9971 87.4069V61.5578C28.9971 61.2382 29.124 60.9317 29.3499 60.7056C29.5758 60.4795 29.8822 60.3524 30.2018 60.3522H51.3763C52.5647 60.3522 53.1012 61.0476 53.1012 62.157V87.4033C53.1017 87.562 53.0708 87.7193 53.0104 87.866C52.95 88.0128 52.8612 88.1462 52.7491 88.2585C52.637 88.3709 52.5038 88.46 52.3572 88.5207C52.2105 88.5815 52.0534 88.6127 51.8947 88.6126Z" fill="#FDD2B2"/>
<path d="M52.7644 61.07C52.6739 60.9587 52.5974 60.8367 52.5365 60.7068C52.3185 60.536 52.0592 60.4261 51.7848 60.3882C51.6496 60.3672 51.513 60.3569 51.3763 60.3573H30.2018C29.883 60.3575 29.5773 60.4841 29.3515 60.7092C29.1257 60.9343 28.9983 61.2396 28.9971 61.5584C31.6299 62.5044 36.5588 63.0328 41.0482 63.0328C46.7733 63.0328 50.5247 62.184 52.7644 61.07Z" fill="#F3AB98"/>
<path d="M51.0352 60.3522C59.2751 60.3522 57.5719 70.7238 57.6509 82.2575H53.0997" stroke="#592D3D" stroke-width="1.57179" stroke-miterlimit="10" stroke-linecap="square"/>
<path d="M30.7093 60.3522C22.4685 60.3522 24.1726 70.7238 24.0936 82.2575H28.6394" stroke="#592D3D" stroke-width="1.57179" stroke-miterlimit="10" stroke-linecap="square"/>
<path d="M30.2012 60.3613L51.3756 60.3522" stroke="#592D3D" stroke-width="1.57179" stroke-miterlimit="10"/>
<path d="M30.2018 88.6128H40.7895C30.88 88.6128 31.6281 67.6245 28.9971 67.6245V87.4036C28.9966 87.5621 29.0274 87.7192 29.0877 87.8658C29.148 88.0125 29.2367 88.1458 29.3486 88.2581C29.4605 88.3704 29.5935 88.4596 29.7399 88.5205C29.8863 88.5813 30.0433 88.6127 30.2018 88.6128Z" fill="#F3AB98"/>
<path d="M28.4524 69.6244C28.4352 69.2912 28.4424 68.958 28.457 68.6257C28.4715 68.2935 28.4996 67.9584 28.535 67.6271C28.5532 67.46 28.5714 67.2939 28.5941 67.1268C28.6168 66.9598 28.6385 66.7936 28.6712 66.6266C28.7356 66.2809 28.8452 65.9451 28.9972 65.6279C29.1491 65.9451 29.2587 66.2809 29.3231 66.6266C29.3558 66.7936 29.3794 66.9598 29.4003 67.1268C29.4211 67.2939 29.4411 67.46 29.4593 67.6271C29.4938 67.9603 29.521 68.2935 29.5364 68.6257C29.5519 68.958 29.5591 69.2921 29.5419 69.6244H28.4524Z" fill="#592D3D"/>
<path d="M53.0998 70.4549V71.1812C53.1234 74.2679 53.1234 77.4455 53.0998 80.5096C53.0998 80.7702 53.0998 81.0289 53.0998 81.284V87.404C53.1002 87.5625 53.0693 87.7195 53.0089 87.866C52.9486 88.0126 52.8599 88.1458 52.748 88.258C52.6361 88.3702 52.5032 88.4593 52.3568 88.5201C52.2105 88.5809 52.0536 88.6123 51.8951 88.6124H30.2022C29.8826 88.6122 29.5762 88.485 29.3503 88.259C29.1244 88.0329 28.9975 87.7264 28.9975 87.4068V82.1229C28.9975 81.895 28.9975 81.6626 28.9975 81.4284C28.9748 78.2626 28.9748 75.085 28.9975 71.8684V69.6241" stroke="#592D3D" stroke-width="1.57179" stroke-miterlimit="10"/>
<path d="M52.5537 70.4552C52.5364 70.0766 52.5446 69.6971 52.5591 69.3176C52.5736 68.9381 52.6018 68.5595 52.6363 68.18C52.6544 67.9903 52.6735 67.8006 52.6953 67.6108C52.7171 67.4211 52.7398 67.2322 52.7725 67.0425C52.8357 66.6517 52.9451 66.2699 53.0984 65.9049C53.2517 66.2699 53.3611 66.6517 53.4243 67.0425C53.457 67.2322 53.4806 67.422 53.5015 67.6108C53.5224 67.7996 53.5423 67.9903 53.5605 68.18C53.595 68.5595 53.6231 68.9381 53.6377 69.3176C53.6522 69.6971 53.6604 70.0766 53.6431 70.4552H52.5537Z" fill="#592D3D"/>
<path d="M47.4648 67.954C47.4848 67.0961 48.5743 66.7329 49.119 67.2776C49.2075 67.368 49.2774 67.4749 49.3246 67.5923C49.3718 67.7097 49.3954 67.8352 49.3941 67.9617C49.3928 68.0882 49.3666 68.2132 49.317 68.3296C49.2674 68.4459 49.1953 68.5514 49.1049 68.6399C49.0146 68.7284 48.9076 68.7983 48.7903 68.8455C48.6729 68.8927 48.5474 68.9163 48.4209 68.915C48.2944 68.9137 48.1694 68.8875 48.053 68.8379C47.9366 68.7882 47.8312 68.7162 47.7427 68.6258C47.6543 68.5378 47.5842 68.433 47.5365 68.3177C47.4888 68.2024 47.4645 68.0788 47.4648 67.954Z" fill="#592D3D"/>
<path d="M32.7044 67.9272C32.6854 67.1873 33.5025 66.8241 34.0472 67.0965C34.7735 67.3689 34.7735 68.3675 34.0472 68.8215C33.684 69.003 33.3209 68.8215 32.9804 68.5963C32.8926 68.5084 32.8231 68.4041 32.7757 68.2893C32.7283 68.1745 32.7041 68.0514 32.7044 67.9272Z" fill="#592D3D"/>
<path d="M41.0493 66.9841C41.1143 67.1553 41.16 67.3331 41.1855 67.5143C41.2125 67.6898 41.2274 67.867 41.23 68.0445L41.2572 69.1058C41.2654 69.459 41.2763 69.8131 41.2799 70.1672L41.2954 71.2266C41.3162 72.6402 41.3153 74.0556 41.3208 75.4701C41.3262 76.8845 41.3371 78.299 41.3208 79.7135C41.3126 80.4207 41.2936 81.128 41.2727 81.8352C41.2636 82.1884 41.2463 82.5424 41.2118 82.8956C41.181 83.2524 41.1273 83.6069 41.0511 83.9569C40.975 83.6069 40.9213 83.2524 40.8905 82.8956C40.856 82.5424 40.8387 82.1884 40.8296 81.8352C40.8087 81.128 40.7897 80.4207 40.7815 79.7135C40.7633 78.299 40.7815 76.8845 40.7815 75.4701C40.7815 74.0556 40.7815 72.642 40.7979 71.2276L40.8133 70.1653L40.8432 69.1049L40.8732 68.0445C40.8766 67.867 40.8917 67.6899 40.9186 67.5143C40.9424 67.3333 40.9862 67.1555 41.0493 66.9841Z" fill="#F3AB98"/>
<path d="M34.2598 71.636C34.3944 71.572 34.537 71.5262 34.6837 71.4998C34.824 71.4735 34.966 71.4583 35.1086 71.4544L35.9575 71.4244L37.6552 71.3872C38.7864 71.37 39.9168 71.3654 41.0489 71.3627C42.181 71.36 43.3122 71.3482 44.4434 71.3627C45.009 71.3709 45.5747 71.3899 46.1412 71.4108C46.4235 71.4208 46.7068 71.4381 46.9891 71.4716C47.2758 71.5034 47.5597 71.5575 47.838 71.6332C47.5598 71.7095 47.2759 71.7633 46.9891 71.7939C46.7068 71.8284 46.4235 71.8457 46.1412 71.8548C45.5747 71.8756 45.009 71.8938 44.4434 71.902C43.3122 71.9192 42.181 71.902 41.0489 71.902C39.9168 71.902 38.7855 71.902 37.6534 71.8884C37.0878 71.8829 36.5222 71.8648 35.9575 71.843L35.1086 71.8121C34.9663 71.8083 34.8245 71.7931 34.6847 71.7667C34.5378 71.7422 34.395 71.6982 34.2598 71.636Z" fill="#F3AB98"/>
<path d="M35.8203 74.4841C35.9275 74.433 36.0421 74.3989 36.1599 74.3833C36.2687 74.368 36.3788 74.3634 36.4885 74.3697C36.7055 74.3788 36.9225 74.3842 37.1395 74.3888C37.5734 74.3988 38.0074 74.4024 38.4414 74.4042C39.3156 74.4042 40.1745 74.4115 41.0524 74.3851C41.9303 74.3588 42.801 74.3461 43.6744 74.3497C44.1111 74.3497 44.5477 74.3615 44.9835 74.3715C45.2029 74.3745 45.422 74.3887 45.6399 74.4142C45.8639 74.4389 46.085 74.4854 46.3 74.5531C46.09 74.6355 45.8722 74.6964 45.6499 74.7347C45.4335 74.7737 45.2149 74.7997 44.9953 74.8127C44.5577 74.8445 44.1201 74.8718 43.6834 74.8872C42.8083 74.9199 41.934 74.9162 41.0615 74.928C40.6248 74.928 40.189 74.948 39.7469 74.9371C39.3047 74.9262 38.8672 74.9253 38.4286 74.909C37.9901 74.8926 37.5498 74.8563 37.1122 74.8109C36.8925 74.7864 36.6746 74.7592 36.4558 74.7292C36.3453 74.7157 36.2366 74.6901 36.1317 74.653C36.0191 74.6148 35.9137 74.5577 35.8203 74.4841Z" fill="#F3AB98"/>
<path d="M35.5039 77.7061C35.6116 77.6428 35.7287 77.5968 35.8507 77.57C35.9645 77.5435 36.0807 77.5286 36.1975 77.5255L36.8902 77.4964C37.3523 77.4801 37.8154 77.4665 38.2775 77.4592C39.2017 77.4456 40.1259 77.4456 41.0483 77.4456C41.9707 77.4456 42.8968 77.4301 43.821 77.4456C44.2831 77.4538 44.7452 77.4728 45.2073 77.4937C45.4391 77.5015 45.6703 77.5215 45.9 77.5536C46.1365 77.5861 46.3694 77.6411 46.5955 77.7179C46.3702 77.7934 46.1382 77.8472 45.9027 77.8786C45.6728 77.9115 45.4413 77.9318 45.2091 77.9395C44.747 77.9603 44.2849 77.9794 43.8228 77.9876C42.8986 78.0057 41.9734 77.993 41.0492 77.9876C40.125 77.9821 39.2008 77.9821 38.2766 77.9649C37.8145 77.9558 37.3514 77.9395 36.8893 77.9204L36.1966 77.8868C36.0798 77.8833 35.9636 77.8681 35.8498 77.8414C35.728 77.8151 35.6112 77.7694 35.5039 77.7061Z" fill="#F3AB98"/>
<path d="M57.4538 73.7041C57.472 70.3358 57.344 67.3426 56.7511 65.0438C55.836 62.7423 54.1927 61.3696 51.293 61.3696L53.3675 73.5779C53.3675 73.5779 55.4111 74.5121 57.4538 73.7041Z" fill="#F3AB98"/>
<path d="M58.2337 72.7455C58.1303 72.8308 58.0179 72.9045 57.8984 72.9654" stroke="#592D3D" stroke-width="1.57179" stroke-miterlimit="10" stroke-linecap="square"/>
<path d="M25.523 64.946C24.9039 67.2675 24.7967 70.3143 24.8203 73.7525C26.627 74.5287 29.3988 73.5573 29.3988 73.5573L30.9703 61.5479C28.1686 61.5479 26.4981 62.8098 25.523 64.946Z" fill="#F3AB98"/>
<path d="M51.6408 60.3015L48.151 60.3106C48.151 65.1877 41.3119 70.4008 41.3119 70.4008C41.3119 70.4008 33.9763 64.9008 33.9763 60.3106L30.4664 60.3015C30.1468 60.3015 29.8403 60.4284 29.6142 60.6543C29.3881 60.8802 29.261 61.1867 29.2607 61.5063V87.3526C29.261 87.6723 29.3881 87.9787 29.6142 88.2046C29.8403 88.4305 30.1468 88.5574 30.4664 88.5574H52.1583C52.4779 88.5574 52.7843 88.4305 53.0102 88.2045C53.2362 87.9786 53.3631 87.6722 53.3631 87.3526V62.1027C53.3631 60.997 52.8293 60.3015 51.6408 60.3015Z" fill="#062F96"/>
<path d="M51.293 60.3015C57.0616 60.3015 57.9568 65.3856 58.0022 72.3908C56.3144 73.4458 53.5618 72.5107 53.5618 72.5107L51.293 60.3015Z" fill="#062F96"/>
<path d="M53.362 66.9431L51.293 70.4012L52.327 82.2036H53.3802V72.6146L54.949 72.877C54.4388 66.3248 53.362 66.9431 53.362 66.9431Z" fill="#001C70"/>
<path d="M30.9712 60.301C25.3623 60.301 24.0877 65.1845 23.9941 71.891C25.7191 73.6931 29.2553 72.3068 29.2553 72.3068L30.9712 60.301Z" fill="#062F96"/>
<path d="M29.2561 66.943V72.3077L27.6846 72.6981C28.1993 66.3366 29.2561 66.943 29.2561 66.943Z" fill="#001C70"/>
<path d="M51.293 60.3015C57.4139 60.3015 58.4153 65.4111 58.4561 72.4471C56.0775 73.5747 53.5618 72.5107 53.5618 72.5107" stroke="#592D3D" stroke-width="1.57179" stroke-miterlimit="10" stroke-linecap="square"/>
<path d="M30.9698 60.3015C24.9061 60.3015 23.6995 65.2667 23.6387 72.1684C25.508 73.5111 29.2539 72.3073 29.2539 72.3073" stroke="#592D3D" stroke-width="1.57179" stroke-miterlimit="10" stroke-linecap="square"/>
<path d="M30.4652 88.5571H41.0483C31.1352 88.5571 31.8869 67.5724 29.2559 67.5724V87.3523C29.256 87.5109 29.2874 87.6679 29.3482 87.8143C29.4091 87.9607 29.4983 88.0936 29.6106 88.2056C29.7229 88.3175 29.8562 88.4061 30.0029 88.4664C30.1495 88.5268 30.3066 88.5576 30.4652 88.5571Z" fill="#001C70"/>
<path d="M28.7131 69.5734C28.6959 69.2403 28.7031 68.9062 28.7186 68.5748C28.734 68.2434 28.7612 67.9084 28.7957 67.5761C28.8139 67.41 28.8329 67.2429 28.8547 67.0759C28.8765 66.9088 28.8992 66.7427 28.9319 66.5765C28.9962 66.2308 29.1058 65.895 29.2578 65.5779C29.4099 65.895 29.5195 66.2308 29.5838 66.5765C29.6164 66.7427 29.6401 66.9097 29.6609 67.0759C29.6818 67.242 29.7018 67.41 29.7199 67.5761C29.755 67.9102 29.7811 68.2431 29.798 68.5748C29.8125 68.908 29.8198 69.2421 29.798 69.5734H28.7131Z" fill="#592D3D"/>
<path d="M53.3622 70.4012V71.1275C53.3858 74.2143 53.3858 77.3918 53.3622 80.4568C53.3622 80.7174 53.3622 80.9761 53.3622 81.2313V87.3513C53.3622 87.6708 53.2353 87.9772 53.0094 88.2031C52.7834 88.4291 52.477 88.556 52.1575 88.556H30.4656C30.1459 88.556 29.8394 88.4291 29.6133 88.2032C29.3873 87.9773 29.2601 87.6709 29.2599 87.3513V81.3774C29.2363 78.2126 29.2363 75.035 29.2599 71.8175V69.5741" stroke="#592D3D" stroke-width="1.57179" stroke-miterlimit="10"/>
<path d="M52.8183 70.4004C52.8011 70.0209 52.8092 69.6414 52.8238 69.2629C52.8383 68.8843 52.8664 68.5039 52.9018 68.1253C52.92 67.9355 52.9382 67.7458 52.9599 67.5561C52.9817 67.3663 53.0044 67.1766 53.038 66.9868C53.1008 66.596 53.2099 66.2142 53.363 65.8492C53.5169 66.214 53.6263 66.5959 53.689 66.9868C53.7216 67.1766 53.7462 67.3663 53.7661 67.5561C53.7861 67.7458 53.807 67.9355 53.8251 68.1253C53.8606 68.5039 53.8878 68.8834 53.9023 69.2629C53.9168 69.6424 53.9259 70.0209 53.9078 70.4004H52.8183Z" fill="#592D3D"/>
<path d="M30.4639 60.3106L51.6383 60.3015" stroke="#592D3D" stroke-width="1.57179" stroke-miterlimit="10"/>
<path d="M23.8633 72.447C23.9667 72.5408 24.0787 72.6247 24.1977 72.6978" stroke="#592D3D" stroke-width="1.57179" stroke-miterlimit="10" stroke-linecap="square"/>
<path d="M57.1719 71.5564C56.983 71.6687 56.7754 71.7462 56.5591 71.7852C56.3435 71.8272 56.1242 71.8466 55.9045 71.8433C55.6859 71.8394 55.468 71.8157 55.2536 71.7725C55.1465 71.7525 55.0411 71.7207 54.9367 71.6935C54.8323 71.6663 54.7297 71.6227 54.6299 71.5809C54.7397 71.5809 54.8469 71.5963 54.9531 71.6054L55.2727 71.6318C55.3789 71.6318 55.4842 71.6499 55.5904 71.6508C55.6966 71.6517 55.8019 71.6608 55.9073 71.6617C56.1179 71.6662 56.3285 71.6617 56.5428 71.6454C56.7543 71.6302 56.9645 71.6005 57.1719 71.5564Z" fill="#592D3D"/>
<path d="M48.1483 60.3108C48.1483 65.1879 41.3093 70.4009 41.3093 70.4009C41.3093 70.4009 33.9736 64.901 33.9736 60.3108" stroke="#592D3D" stroke-width="1.57179" stroke-miterlimit="10"/>
<path d="M45.729 79.5095C45.6439 79.4603 45.5522 79.4236 45.4567 79.4005V76.6215C45.5542 76.5984 45.6478 76.5611 45.7345 76.5107C45.8647 76.4362 45.9773 76.3345 46.0647 76.2125C46.152 76.0905 46.212 75.9511 46.2406 75.8038C46.2692 75.6565 46.2656 75.5048 46.2302 75.359C46.1948 75.2132 46.1283 75.0768 46.0354 74.959C45.9424 74.8412 45.8251 74.7449 45.6916 74.6766C45.558 74.6082 45.4112 74.5695 45.2613 74.5631C45.1114 74.5566 44.9619 74.5826 44.823 74.6392C44.684 74.6958 44.5589 74.7817 44.4562 74.8911L42.0476 73.5029C42.0904 73.3596 42.1018 73.2087 42.0811 73.0605C42.0604 72.9123 42.0081 72.7703 41.9276 72.6442C41.8471 72.518 41.7404 72.4107 41.6148 72.3295C41.4891 72.2482 41.3474 72.195 41.1994 72.1734C41.0513 72.1518 40.9004 72.1623 40.7567 72.2043C40.6131 72.2462 40.4802 72.3186 40.367 72.4165C40.2539 72.5144 40.1631 72.6355 40.1009 72.7716C40.0388 72.9077 40.0066 73.0555 40.0067 73.2052C40.0068 73.3053 40.0212 73.405 40.0493 73.5011L37.6435 74.8902C37.5743 74.8173 37.4951 74.7546 37.4083 74.7041C37.2895 74.6319 37.1575 74.5841 37.02 74.5636C36.8825 74.5432 36.7423 74.5504 36.6077 74.5848C36.473 74.6193 36.3466 74.6804 36.2358 74.7644C36.1251 74.8484 36.0323 74.9537 35.9628 75.0741C35.8934 75.1946 35.8487 75.3276 35.8314 75.4656C35.8141 75.6035 35.8245 75.7435 35.8621 75.8773C35.8996 76.0112 35.9636 76.1361 36.0501 76.2449C36.1367 76.3537 36.2441 76.4441 36.3661 76.5107C36.4527 76.5611 36.5464 76.5984 36.6439 76.6215V79.3996C36.5485 79.4235 36.4568 79.4604 36.3715 79.5095C36.2495 79.5761 36.1421 79.6665 36.0556 79.7753C35.969 79.8841 35.9051 80.009 35.8675 80.1429C35.8299 80.2767 35.8195 80.4167 35.8368 80.5546C35.8541 80.6926 35.8988 80.8257 35.9683 80.9461C36.0377 81.0665 36.1306 81.1718 36.2413 81.2558C36.352 81.3398 36.4785 81.4009 36.6131 81.4354C36.7478 81.4698 36.888 81.4771 37.0255 81.4566C37.163 81.4361 37.295 81.3884 37.4138 81.3161C37.4997 81.2668 37.5782 81.2057 37.6471 81.1346L40.0502 82.5209C40.0217 82.6166 40.0073 82.7161 40.0076 82.816C40.0076 83.0929 40.1176 83.3584 40.3134 83.5542C40.5092 83.75 40.7747 83.86 41.0516 83.86C41.3285 83.86 41.5941 83.75 41.7899 83.5542C41.9857 83.3584 42.0957 83.0929 42.0957 82.816C42.0956 82.7043 42.0778 82.5934 42.043 82.4873L44.4335 81.1073C44.5075 81.1905 44.5946 81.2611 44.6913 81.3161C44.9304 81.4468 45.2112 81.4788 45.4736 81.4051C45.7359 81.3315 45.959 81.1581 46.0952 80.9221C46.2314 80.686 46.2698 80.4061 46.2022 80.1421C46.1346 79.8781 45.9664 79.651 45.7336 79.5095H45.729ZM37.9031 80.1695C37.8797 80.0739 37.8427 79.9822 37.7933 79.8971C37.744 79.8115 37.6828 79.7333 37.6117 79.6647L40.7602 74.212C40.8547 74.239 40.9525 74.2528 41.0507 74.2529C41.1494 74.2529 41.2475 74.2389 41.3422 74.2111L44.4898 79.6638C44.3452 79.8016 44.2434 79.9781 44.1965 80.1722L37.9031 80.1695ZM44.2083 75.3251C44.1698 75.4594 44.1588 75.6002 44.1759 75.739C44.193 75.8777 44.2379 76.0116 44.3079 76.1326C44.3779 76.2536 44.4716 76.3592 44.5833 76.4432C44.695 76.5273 44.8225 76.5879 44.9582 76.6215V79.4042L44.9183 79.4141L41.7698 73.9605L41.797 73.9333L44.2083 75.3251ZM40.299 73.9324L40.329 73.9614L37.1804 79.415L37.1396 79.4042V76.6188C37.2754 76.5852 37.403 76.5245 37.5147 76.4404C37.6265 76.3564 37.7202 76.2506 37.7901 76.1295C37.86 76.0083 37.9048 75.8743 37.9217 75.7355C37.9386 75.5966 37.9274 75.4558 37.8886 75.3214L40.299 73.9324ZM41.8197 82.116C41.7235 82.0107 41.6068 81.9263 41.4767 81.8679C41.3466 81.8095 41.206 81.7784 41.0634 81.7765C40.9209 81.7745 40.7794 81.8018 40.6478 81.8566C40.5162 81.9114 40.3971 81.9925 40.2981 82.0951L37.8913 80.7051L37.9022 80.6652H44.1956C44.2011 80.6879 44.2074 80.7115 44.2147 80.7333L41.8197 82.116Z" fill="black" stroke="white" stroke-width="2.09571"/>
<path d="M45.729 79.5095C45.6439 79.4603 45.5522 79.4236 45.4567 79.4005V76.6215C45.5542 76.5984 45.6478 76.5611 45.7345 76.5107C45.8647 76.4362 45.9773 76.3345 46.0647 76.2125C46.152 76.0905 46.212 75.9511 46.2406 75.8038C46.2692 75.6565 46.2656 75.5048 46.2302 75.359C46.1948 75.2132 46.1283 75.0768 46.0354 74.959C45.9424 74.8412 45.8251 74.7449 45.6916 74.6766C45.558 74.6082 45.4112 74.5695 45.2613 74.5631C45.1114 74.5566 44.9619 74.5826 44.823 74.6392C44.684 74.6958 44.5589 74.7817 44.4562 74.8911L42.0476 73.5029C42.0904 73.3596 42.1018 73.2087 42.0811 73.0605C42.0604 72.9123 42.0081 72.7703 41.9276 72.6442C41.8471 72.518 41.7404 72.4107 41.6148 72.3295C41.4891 72.2482 41.3474 72.195 41.1994 72.1734C41.0513 72.1518 40.9004 72.1623 40.7567 72.2043C40.6131 72.2462 40.4802 72.3186 40.367 72.4165C40.2539 72.5144 40.1631 72.6355 40.1009 72.7716C40.0388 72.9077 40.0066 73.0555 40.0067 73.2052C40.0068 73.3053 40.0212 73.405 40.0493 73.5011L37.6435 74.8902C37.5743 74.8173 37.4951 74.7546 37.4083 74.7041C37.2895 74.6319 37.1575 74.5841 37.02 74.5636C36.8825 74.5432 36.7423 74.5504 36.6077 74.5848C36.473 74.6193 36.3466 74.6804 36.2358 74.7644C36.1251 74.8484 36.0323 74.9537 35.9628 75.0741C35.8934 75.1946 35.8487 75.3276 35.8314 75.4656C35.8141 75.6035 35.8245 75.7435 35.8621 75.8773C35.8996 76.0112 35.9636 76.1361 36.0501 76.2449C36.1367 76.3537 36.2441 76.4441 36.3661 76.5107C36.4527 76.5611 36.5464 76.5984 36.6439 76.6215V79.3996C36.5485 79.4235 36.4568 79.4604 36.3715 79.5095C36.2495 79.5761 36.1421 79.6665 36.0556 79.7753C35.969 79.8841 35.9051 80.009 35.8675 80.1429C35.8299 80.2767 35.8195 80.4167 35.8368 80.5546C35.8541 80.6926 35.8988 80.8257 35.9683 80.9461C36.0377 81.0665 36.1306 81.1718 36.2413 81.2558C36.352 81.3398 36.4785 81.4009 36.6131 81.4354C36.7478 81.4698 36.888 81.4771 37.0255 81.4566C37.163 81.4361 37.295 81.3884 37.4138 81.3161C37.4997 81.2668 37.5782 81.2057 37.6471 81.1346L40.0502 82.5209C40.0217 82.6166 40.0073 82.7161 40.0076 82.816C40.0076 83.0929 40.1176 83.3584 40.3134 83.5542C40.5092 83.75 40.7747 83.86 41.0516 83.86C41.3285 83.86 41.5941 83.75 41.7899 83.5542C41.9857 83.3584 42.0957 83.0929 42.0957 82.816C42.0956 82.7043 42.0778 82.5934 42.043 82.4873L44.4335 81.1073C44.5075 81.1905 44.5946 81.2611 44.6913 81.3161C44.9304 81.4468 45.2112 81.4788 45.4736 81.4051C45.7359 81.3315 45.959 81.1581 46.0952 80.9221C46.2314 80.686 46.2698 80.4061 46.2022 80.1421C46.1346 79.8781 45.9664 79.651 45.7336 79.5095H45.729ZM37.9031 80.1695C37.8797 80.0739 37.8427 79.9822 37.7933 79.8971C37.744 79.8115 37.6828 79.7333 37.6117 79.6647L40.7602 74.212C40.8547 74.239 40.9525 74.2528 41.0507 74.2529C41.1494 74.2529 41.2475 74.2389 41.3422 74.2111L44.4898 79.6638C44.3452 79.8016 44.2434 79.9781 44.1965 80.1722L37.9031 80.1695ZM44.2083 75.3251C44.1698 75.4594 44.1588 75.6002 44.1759 75.739C44.193 75.8777 44.2379 76.0116 44.3079 76.1326C44.3779 76.2536 44.4716 76.3592 44.5833 76.4432C44.695 76.5273 44.8225 76.5879 44.9582 76.6215V79.4042L44.9183 79.4141L41.7698 73.9605L41.797 73.9333L44.2083 75.3251ZM40.299 73.9324L40.329 73.9614L37.1804 79.415L37.1396 79.4042V76.6188C37.2754 76.5852 37.403 76.5245 37.5147 76.4404C37.6265 76.3564 37.7202 76.2506 37.7901 76.1295C37.86 76.0083 37.9048 75.8743 37.9217 75.7355C37.9386 75.5966 37.9274 75.4558 37.8886 75.3214L40.299 73.9324ZM41.8197 82.116C41.7235 82.0107 41.6068 81.9263 41.4767 81.8679C41.3466 81.8095 41.206 81.7784 41.0634 81.7765C40.9209 81.7745 40.7794 81.8018 40.6478 81.8566C40.5162 81.9114 40.3971 81.9925 40.2981 82.0951L37.8913 80.7051L37.9022 80.6652H44.1956C44.2011 80.6879 44.2074 80.7115 44.2147 80.7333L41.8197 82.116Z" fill="#E535AB"/>
<path d="M59.5259 37.4185V38.5887C59.6677 39.3573 59.607 40.1495 59.3498 40.8875C59.2652 41.1283 59.1585 41.3608 59.0311 41.582C58.727 42.3728 57.9099 43.0083 57.0928 43.2806C55.8218 43.6438 54.2784 43.4622 53.2797 42.4636C52.0087 41.1017 52.1903 39.1044 52.1494 37.4139" stroke="#592D3D" stroke-width="1.57179" stroke-miterlimit="10" stroke-linecap="round"/>
<path d="M29.8537 37.3812C30.0661 39.797 29.703 43.1562 26.5735 43.4794C26.3283 43.5012 26.0816 43.5012 25.8363 43.4794C25.0979 43.4162 24.392 43.1469 23.799 42.7022C22.1649 41.3404 22.528 39.1615 22.5325 37.3802" stroke="#592D3D" stroke-width="1.57179" stroke-miterlimit="10" stroke-linecap="round"/>
<path d="M35.8867 47.9272C35.8867 46.2113 46.2111 46.4691 46.2111 47.9272C46.2111 49.2963 45.6672 50.6093 44.6991 51.5774C43.731 52.5455 42.418 53.0894 41.0489 53.0894C39.6798 53.0894 38.3668 52.5455 37.3987 51.5774C36.4306 50.6093 35.8867 49.2963 35.8867 47.9272Z" fill="#592D3D"/>
<path d="M40.5959 49.8462C39.0571 49.7555 37.7152 50.4591 37.2686 51.5004C38.0113 52.285 38.9815 52.8169 40.0424 53.021C41.1034 53.225 42.2017 53.0911 43.1825 52.638C43.3865 52.5439 43.5839 52.4362 43.7735 52.3157C43.69 51.0347 42.3263 49.9534 40.5959 49.8462Z" fill="#F28195"/>
<path d="M35.8867 47.9272C35.8867 46.2113 46.2111 46.4691 46.2111 47.9272C46.2111 49.2963 45.6672 50.6093 44.6991 51.5774C43.731 52.5455 42.418 53.0894 41.0489 53.0894C39.6798 53.0894 38.3668 52.5455 37.3987 51.5774C36.4306 50.6093 35.8867 49.2963 35.8867 47.9272V47.9272Z" stroke="#592D3D" stroke-width="0.785893" stroke-miterlimit="10"/>
<path d="M39.0625 48.8899C39.1034 48.8799 39.1197 48.8754 39.146 48.8708L39.2141 48.8581C39.2586 48.85 39.3049 48.8454 39.3467 48.8418C39.4338 48.8329 39.5215 48.8298 39.609 48.8327C39.7865 48.8366 39.963 48.8613 40.1347 48.9062C40.4944 48.9973 40.8204 49.1895 41.0744 49.46C41.3132 49.717 41.4733 50.0372 41.5356 50.3825C41.5923 50.7009 41.5492 51.0291 41.4121 51.3221C41.2242 51.0561 41.0798 50.8173 40.9291 50.6176C40.8612 50.5218 40.7869 50.4308 40.7067 50.3452C40.6333 50.27 40.551 50.2042 40.4615 50.1491C40.292 50.0476 40.103 49.9829 39.9068 49.9594C39.8038 49.9461 39.7002 49.9388 39.5963 49.9376C39.5428 49.9376 39.4892 49.9376 39.4365 49.9421L39.3594 49.9476H39.324C39.3149 49.9476 39.2967 49.9476 39.3031 49.9476L39.0625 48.8899Z" fill="#592D3D"/>
<path d="M46.3817 27.7252C45.2141 29.9041 40.9344 31.1243 40.5867 30.5777C40.1972 29.9667 44.023 25.5554 41.8486 20.9415" fill="#F3AB98"/>
<path d="M66.831 22.5961C66.368 22.1331 64.0111 22.7623 61.6388 22.5753C59.3144 19.4184 56.2936 16.8398 52.8111 15.0395C49.3286 13.2392 45.4781 12.2657 41.5584 12.1946C41.3369 10.3353 41.4903 8.7737 41.3214 8.554C41.0954 8.26166 39.9151 9.70519 39.6083 11.3684C38.527 10.0066 36.6904 9.2803 36.6377 9.66161C36.6032 9.90492 37.3132 10.9408 37.9823 12.3762C27.8503 13.5991 19.5451 20.7522 16.6399 30.2614C15.3816 31.3436 14.2013 32.108 14.1886 32.5937C14.1641 33.4943 17.7575 33.4435 19.3254 33.3037V33.2982C24.8317 33.1166 35.5764 32.0472 40.7894 26.6807C40.2883 28.4138 39.365 29.6912 39.5429 29.9636C39.8153 30.3876 43.0219 29.4924 44.0887 27.8537C48.4465 29.6322 56.7526 31.7721 63.9712 26.3865L63.9512 26.3475C65.2667 25.2481 67.4075 23.1772 66.831 22.5961Z" fill="#FEDC58"/>
<path d="M61.6437 23.1201C61.1534 23.1419 60.6759 23.1301 60.1911 23.1074C59.7063 23.0847 59.2296 23.0465 58.7503 22.993C58.5106 22.9666 58.2709 22.9385 58.0322 22.9022C57.7934 22.8659 57.5537 22.8368 57.3158 22.7905C56.8311 22.7034 56.357 22.5652 55.9014 22.3783C56.3776 22.2564 56.8637 22.1768 57.354 22.1405C57.5927 22.1205 57.8315 22.1069 58.0703 22.0969L58.7857 22.066C59.2623 22.0461 59.7381 22.0352 60.2129 22.0252C60.6877 22.0152 61.1643 22.0143 61.631 22.0252L61.6437 23.1201Z" fill="#592D3D"/>
<path d="M17.1352 30.5086C17.1352 30.5086 17.1352 30.5304 17.1352 30.544L17.1243 30.5921L17.0989 30.6929C17.0798 30.761 17.0598 30.8309 17.039 30.9008C16.9963 31.0415 16.9482 31.1859 16.8992 31.3321C16.8501 31.4782 16.8029 31.6298 16.7385 31.786C16.7024 31.8676 16.6605 31.9465 16.6132 32.022C16.5588 32.1117 16.4958 32.196 16.4252 32.2735C16.2722 32.1395 16.1559 31.9685 16.0875 31.7769C16.0564 31.6915 16.0333 31.6034 16.0185 31.5136C15.9994 31.4228 15.9904 31.3321 15.9795 31.2458C15.9613 31.0647 15.9613 30.8822 15.9795 30.7011C15.9883 30.6095 16.0029 30.5185 16.0231 30.4287C16.0339 30.3833 16.0457 30.3379 16.0603 30.2916C16.0672 30.2679 16.0754 30.2446 16.0848 30.2217C16.0939 30.1963 16.1011 30.1781 16.1175 30.14L17.1352 30.5086Z" fill="#592D3D"/>
<path d="M19.3254 33.3066V33.3012C20.8688 33.2503 22.8325 33.1287 24.9669 32.8618C25.2057 27.7849 26.9643 21.8238 30.9517 14.8458L30.3343 14.5508C27.0778 16.0638 24.1758 18.2446 21.8166 20.9517C19.4574 23.6588 17.6936 26.8316 16.6399 30.2643C15.3816 31.3465 14.2013 32.111 14.1886 32.5967C14.1641 33.4973 17.7575 33.4464 19.3254 33.3066Z" fill="#EDBF2E"/>
<path d="M66.831 22.5961C66.368 22.1331 64.0111 22.7623 61.6388 22.5753C59.3144 19.4184 56.2936 16.8398 52.8111 15.0395C49.3286 13.2392 45.4781 12.2657 41.5584 12.1946C41.3369 10.3353 41.4903 8.7737 41.3214 8.554C41.0954 8.26166 39.9151 9.70519 39.6083 11.3684C38.527 10.0066 36.6904 9.2803 36.6377 9.66161C36.6032 9.90492 37.3132 10.9408 37.9823 12.3762C27.8503 13.5991 19.5451 20.7522 16.6399 30.2614C15.3816 31.3436 14.2013 32.108 14.1886 32.5937C14.1641 33.4943 17.7575 33.4435 19.3254 33.3037V33.2982C24.8317 33.1166 35.5764 32.0472 40.7894 26.6807C40.2883 28.4138 39.365 29.6912 39.5429 29.9636C39.8153 30.3876 43.0219 29.4924 44.0887 27.8537C48.4465 29.6322 56.7526 31.7721 63.9712 26.3865L63.9512 26.3475C65.2667 25.2481 67.4075 23.1772 66.831 22.5961Z" stroke="#592D3D" stroke-width="1.57179" stroke-miterlimit="10"/>
<path d="M41.587 13.6502C40.2939 13.7246 39.0061 13.8744 37.7304 14.0986C37.4144 14.1595 37.0994 14.2267 36.7826 14.2848C36.4657 14.3429 36.1561 14.4309 35.8429 14.5036L34.9114 14.7505C34.6027 14.8413 34.2968 14.9393 33.9899 15.0338C32.7658 15.4285 31.5699 15.9056 30.4102 16.4619C29.2449 17.0275 28.1155 17.6642 27.0283 18.3684C27.9966 17.4852 29.0656 16.7191 30.2132 16.086C31.3616 15.4448 32.5707 14.919 33.8229 14.5163C34.1388 14.4255 34.4529 14.3265 34.7689 14.2394C35.0848 14.1522 35.4044 14.0741 35.7267 14.0033C36.049 13.9325 36.3713 13.8762 36.6945 13.8217C37.0177 13.7673 37.3436 13.7246 37.6686 13.6837C38.9693 13.5237 40.2839 13.5125 41.587 13.6502Z" fill="white"/>
<path d="M50.2081 33.2838C51.2107 33.0282 52.2262 32.8267 53.2504 32.68L53.0089 32.7118C54.2055 32.5538 55.4184 32.5075 56.6177 32.6682L56.3762 32.6356C56.6731 32.6773 56.97 32.7263 57.2678 32.7645L57.0263 32.7318C57.93 32.8556 58.8242 33.041 59.7027 33.2865C60.1566 33.4127 60.7104 33.1294 60.8194 32.651C60.8787 32.4188 60.8456 32.1726 60.7271 31.9643C60.6086 31.756 60.4138 31.6019 60.1839 31.5343C59.1536 31.2522 58.104 31.0464 57.0435 30.9188L57.285 30.9514C56.2835 30.7737 55.2645 30.7143 54.2491 30.7744C53.2392 30.8407 52.2352 30.9787 51.2449 31.1875C50.7347 31.2901 50.2281 31.4081 49.7233 31.5325C49.2621 31.646 48.9407 32.1916 49.0878 32.6492C49.1553 32.8791 49.3095 33.0739 49.5178 33.1924C49.7261 33.311 49.9723 33.344 50.2045 33.2847L50.2081 33.2838Z" fill="#592D3D"/>
<path d="M21.6321 33.2869C22.5022 33.0344 23.3898 32.8465 24.2876 32.7249L24.0461 32.7576C25.5946 32.5548 27.163 32.5572 28.7108 32.7648L28.4693 32.7331C29.3722 32.8561 30.2655 33.0412 31.143 33.2869C31.597 33.414 32.1508 33.1298 32.2597 32.6513C32.3191 32.4191 32.286 32.173 32.1674 31.9647C32.0489 31.7564 31.8541 31.6022 31.6242 31.5347C30.3129 31.1698 28.9688 30.9357 27.6114 30.8356C25.4318 30.6937 23.2442 30.9305 21.1455 31.5356C20.9179 31.6014 20.7234 31.7505 20.6007 31.9532C20.4795 32.1651 20.4469 32.4164 20.51 32.6522C20.6598 33.1162 21.1373 33.4276 21.6266 33.2878L21.6321 33.2869Z" fill="#592D3D"/>
</g>
<defs>
<clipPath id="clip0">
<rect x="0.838867" y="0.301025" width="80" height="80" rx="40" fill="white"/>
</clipPath>
</defs>
</svg>
