<svg width="80" height="81" viewBox="0 0 80 81" fill="none" xmlns="http://www.w3.org/2000/svg">
<g clip-path="url(#clip0)">
<path d="M13.8081 45.2958C31.1799 52.6785 48.959 52.7836 66.4616 45.2958C68.1219 44.5854 68.1124 32.0486 66.4616 32.6225C49.3691 38.5732 31.2926 38.6367 13.8081 32.6225C11.7282 31.9037 11.9309 44.4936 13.8081 45.2958Z" fill="#592D3D" stroke="#592D3D" stroke-width="1.7604" stroke-miterlimit="10"/>
<path d="M40.7262 15.8472C26.6769 15.8472 15.2871 27.2361 15.2871 41.2863V52.0385C15.2871 66.0879 26.6769 71.1921 40.7262 71.1921C54.7756 71.1921 66.1654 66.0879 66.1654 52.0385V41.2863C66.1654 27.2361 54.7756 15.8472 40.7262 15.8472Z" fill="#592D3D" stroke="#592D3D" stroke-width="1.57179" stroke-miterlimit="10"/>
<path d="M49.8838 62.29C57.5587 62.29 55.9723 71.9505 56.0459 82.6934H49.8838V62.29Z" fill="#FDD2B2"/>
<path d="M51.8068 68.4755L49.8838 71.6999L50.8461 82.6931H53.5318C53.597 67.4489 51.8068 68.4755 51.8068 68.4755Z" fill="#F3AB98"/>
<path d="M18.0244 40.4117C18.0244 27.9539 28.1238 17.8545 40.5817 17.8545C53.0395 17.8545 63.1389 27.9539 63.1389 40.4117C63.1421 43.7684 62.3946 47.0833 60.9512 50.1138C59.5078 53.1443 57.405 55.8136 54.7967 57.9264C54.3339 58.303 53.8564 58.6607 53.3642 58.9995C48.2769 62.229 41.8501 62.229 36.0482 61.7123C35.485 61.6278 34.9235 61.5212 34.3663 61.3986C32.1397 60.9081 29.9842 60.1513 27.9927 59.0477C27.5006 58.7444 27.0234 58.4169 26.5611 58.0651C26.0964 57.7113 25.6505 57.3337 25.225 56.9337C24.8225 56.5599 24.4338 56.1715 24.0589 55.7684C20.1738 51.5993 18.0169 46.1104 18.0244 40.4117Z" fill="#FDD2B2"/>
<path d="M21.0985 51.7835C21.1577 51.885 21.216 51.9865 21.2769 52.0862C21.3133 52.1471 21.3513 52.2063 21.3894 52.2672C21.4452 52.3577 21.501 52.4482 21.5585 52.537C21.5991 52.6012 21.6431 52.6638 21.682 52.7264C21.7378 52.811 21.7936 52.8955 21.8511 52.9801C21.8942 53.0443 21.9357 53.1086 21.983 53.1729C22.0388 53.2574 22.0946 53.3352 22.1521 53.4164C22.1978 53.4815 22.2452 53.5458 22.2917 53.6109C22.3382 53.676 22.405 53.7674 22.4608 53.8452C22.5166 53.923 22.558 53.9745 22.6071 54.0388C22.6561 54.1031 22.7229 54.191 22.7821 54.2671C22.8413 54.3432 22.8828 54.3948 22.9335 54.4582C22.9842 54.5217 23.0527 54.6071 23.1128 54.6806C23.1728 54.7542 23.2168 54.8066 23.2692 54.8692C23.3217 54.9318 23.391 55.0147 23.4527 55.0865C23.5145 55.1584 23.5601 55.2109 23.6142 55.2726L23.802 55.484C23.8569 55.5457 23.9127 55.6058 23.9711 55.6667C24.0438 55.7461 24.1174 55.8248 24.191 55.9026L24.2933 56.0108C24.4024 56.1241 24.5123 56.2374 24.6239 56.3491L24.6459 56.3719C24.755 56.4801 24.8658 56.5875 24.9766 56.6941L25.1102 56.8209C25.1905 56.8962 25.2708 56.9715 25.352 57.0459L25.4501 57.1355C25.5347 57.215 25.6268 57.2928 25.7156 57.3706C25.9919 57.6113 26.2738 57.8422 26.5613 58.0632C27.023 58.415 27.5002 58.7425 27.9929 59.0458C29.9844 60.1451 32.1365 60.9062 34.3664 61.3966C34.9237 61.5193 35.4852 61.625 36.0484 61.7104C39.6085 62.0275 43.4054 62.1484 46.9807 61.4499C41.2955 59.7764 13.9935 49.9451 31.1776 19.9032C30.9476 20.0089 30.7209 20.118 30.496 20.2313L30.4461 20.2558C30.3429 20.3074 30.2398 20.3607 30.1374 20.4148L30.0529 20.4596C29.7349 20.6287 29.4203 20.8038 29.1117 20.9865L29.0356 21.0313C28.9375 21.0896 28.8402 21.1488 28.743 21.2089L28.6694 21.2545C28.3673 21.4434 28.0699 21.6387 27.7773 21.8405L27.686 21.904C27.5938 21.9682 27.5033 22.0325 27.4128 22.0976L27.357 22.1374C27.1727 22.2721 26.9906 22.4085 26.8107 22.5466L26.7583 22.5872C26.6737 22.6532 26.5892 22.7208 26.5046 22.7893L26.4057 22.8688C26.3211 22.9373 26.2365 23.0058 26.152 23.076C25.9736 23.224 25.7977 23.3762 25.6243 23.5301L25.5279 23.6147L25.3004 23.8219L25.1905 23.9216C24.9492 24.1471 24.7133 24.3774 24.4827 24.6125L24.366 24.7318C24.2992 24.8011 24.2324 24.8704 24.1664 24.9406C24.1275 24.9821 24.0886 25.0252 24.0506 25.0658C23.9345 25.1898 23.82 25.3155 23.7073 25.4429C23.6692 25.4861 23.6303 25.5275 23.5923 25.5732C23.5322 25.6417 23.473 25.711 23.4138 25.7803L23.2861 25.9317C23.2286 26.0002 23.1711 26.0687 23.117 26.138C23.0713 26.1939 23.0257 26.2505 22.9809 26.3072C22.8904 26.4196 22.8016 26.5321 22.7136 26.6454C22.668 26.7046 22.6223 26.7638 22.5775 26.8238C22.5327 26.8839 22.476 26.9583 22.4261 27.0268C22.3762 27.0953 22.3356 27.1494 22.2917 27.2111C22.2477 27.2729 22.1961 27.3422 22.1496 27.4082C22.0696 27.5209 21.9906 27.6351 21.9128 27.7507C21.8705 27.8124 21.8283 27.8758 21.7868 27.9384C21.7454 28.001 21.6938 28.0788 21.6481 28.1498L21.5221 28.3451L21.3801 28.5743C21.3437 28.6327 21.3074 28.691 21.2718 28.7493C21.1966 28.8728 21.1239 28.9971 21.0511 29.1214L20.948 29.3041C20.9023 29.3844 20.8566 29.4656 20.8118 29.5468C20.778 29.6085 20.7442 29.6702 20.7112 29.732C20.6571 29.8326 20.6038 29.9341 20.5505 30.0356L20.449 30.2334C20.3949 30.3417 20.3408 30.4491 20.2875 30.5582C20.2596 30.6165 20.2309 30.6757 20.203 30.7349C20.159 30.8271 20.1184 30.9201 20.0736 31.0131C20.0474 31.0689 20.022 31.1247 19.9966 31.1822C19.9341 31.3215 19.8729 31.4624 19.8131 31.605C19.7945 31.649 19.7768 31.6938 19.7582 31.7378C19.7133 31.8452 19.6694 31.9526 19.6262 32.0608C19.6034 32.1175 19.5814 32.1742 19.5594 32.23C19.5172 32.3365 19.4749 32.4439 19.4368 32.5513C19.4191 32.5978 19.4013 32.6443 19.3844 32.6908C19.3314 32.8391 19.2793 32.9874 19.2279 33.1356L19.1806 33.2794C19.1434 33.3921 19.107 33.5049 19.0715 33.6177L19.0208 33.7792C18.981 33.9094 18.9421 34.0396 18.9049 34.1707C18.8965 34.1986 18.888 34.2265 18.8804 34.2553C18.8364 34.4109 18.7941 34.567 18.7536 34.7237C18.74 34.7736 18.7282 34.8244 18.7155 34.8743C18.6859 34.9918 18.6571 35.1093 18.6309 35.2277L18.5954 35.3757C18.5591 35.5364 18.5235 35.6971 18.4906 35.8586L18.4779 35.9237C18.4491 36.0674 18.4209 36.2112 18.3933 36.355C18.384 36.4065 18.3756 36.4573 18.3663 36.5089C18.3443 36.6349 18.3231 36.7626 18.3037 36.8894C18.2969 36.9325 18.2893 36.974 18.2834 37.0179C18.258 37.1828 18.2352 37.3486 18.2132 37.5152L18.2005 37.6251C18.1836 37.7596 18.1684 37.8949 18.154 38.0302C18.1489 38.0809 18.143 38.1316 18.1379 38.1832C18.1244 38.3253 18.1117 38.4682 18.0999 38.6111C18.0999 38.6407 18.0948 38.6695 18.0931 38.6957C18.0807 38.8648 18.0697 39.0353 18.0601 39.2073C18.0601 39.2521 18.0601 39.2978 18.0542 39.3426C18.0486 39.4756 18.0435 39.6084 18.039 39.7409C18.039 39.7908 18.039 39.8407 18.039 39.8905C18.039 40.0639 18.0322 40.2381 18.0322 40.4123C18.0322 40.4123 18.0322 40.4182 18.0322 40.4208C18.0322 40.6085 18.0322 40.7945 18.039 40.9806C18.039 41.0448 18.0441 41.1091 18.0458 41.1734C18.05 41.2977 18.0542 41.422 18.0601 41.5463C18.0601 41.6216 18.0694 41.696 18.0737 41.7712C18.0804 41.8837 18.0863 41.9962 18.0948 42.1095C18.1007 42.194 18.1083 42.2693 18.1151 42.3488C18.1244 42.4553 18.1329 42.5619 18.1438 42.6676C18.1515 42.7522 18.1616 42.8317 18.1701 42.9137C18.1819 43.016 18.1929 43.1192 18.2056 43.2215C18.2157 43.3061 18.2276 43.3906 18.2386 43.471C18.2521 43.5707 18.2656 43.6714 18.2808 43.7711C18.2935 43.8557 18.3071 43.9403 18.3206 44.0248C18.3358 44.1229 18.3519 44.2219 18.3688 44.32C18.384 44.4045 18.3992 44.4891 18.4153 44.5737C18.4331 44.6709 18.4517 44.7681 18.4703 44.8645C18.4889 44.961 18.5049 45.0337 18.5227 45.1182C18.543 45.2146 18.5633 45.3102 18.5853 45.4058C18.6073 45.5013 18.6225 45.5749 18.6428 45.6535C18.6648 45.7491 18.6884 45.8438 18.7121 45.9377C18.7358 46.0315 18.7536 46.1026 18.7747 46.1837C18.8001 46.2785 18.8254 46.3723 18.8516 46.4662C18.8736 46.5507 18.8965 46.6285 18.9201 46.7089C18.9472 46.8027 18.9751 46.8958 19.0047 46.9888C19.0343 47.0818 19.0537 47.1486 19.0791 47.2289C19.1045 47.3093 19.1383 47.4141 19.1688 47.5063C19.1992 47.5985 19.2212 47.6644 19.2482 47.7431C19.2804 47.8353 19.3125 47.9274 19.3455 48.0196C19.3734 48.0966 19.4005 48.1744 19.4301 48.2513L19.5349 48.5278C19.5645 48.6031 19.5933 48.6792 19.6195 48.7545C19.6567 48.8466 19.6947 48.9397 19.7328 49.0318C19.7632 49.1045 19.7928 49.1781 19.8241 49.2508C19.8639 49.3456 19.9087 49.4386 19.9467 49.5324C19.978 49.6018 20.0085 49.672 20.0398 49.7413C20.0837 49.8394 20.1302 49.9358 20.1751 50.0322L20.2664 50.2267C20.318 50.3333 20.3712 50.4381 20.4245 50.5438C20.4516 50.5971 20.4769 50.6512 20.5049 50.7045C20.6672 51.0207 20.8363 51.3328 21.0122 51.6406C21.0368 51.6803 21.068 51.7319 21.0985 51.7835Z" fill="#F3AB98"/>
<path d="M18.0244 40.4117C18.0244 27.9539 28.1238 17.8545 40.5817 17.8545C53.0395 17.8545 63.1389 27.9539 63.1389 40.4117C63.1421 43.7684 62.3946 47.0833 60.9512 50.1138C59.5078 53.1443 57.405 55.8136 54.7967 57.9264C54.3339 58.303 53.8564 58.6607 53.3642 58.9995C48.2769 62.229 41.8501 62.229 36.0482 61.7123C35.485 61.6278 34.9235 61.5212 34.3663 61.3986C32.1397 60.9081 29.9842 60.1513 27.9927 59.0477C27.5006 58.7444 27.0234 58.4169 26.5611 58.0651C26.0964 57.7113 25.6505 57.3337 25.225 56.9337C24.8225 56.5599 24.4338 56.1715 24.0589 55.7684C20.1738 51.5993 18.0169 46.1104 18.0244 40.4117V40.4117Z" stroke="#592D3D" stroke-width="1.57179" stroke-miterlimit="10"/>
<path d="M30.9523 62.29C23.2765 62.29 24.8638 71.9505 24.7902 82.6934H30.9523V62.29Z" fill="#FDD2B2"/>
<path d="M29.3527 68.4755L31.2782 71.6999L30.315 82.6931H27.6318C27.5633 67.4489 29.3527 68.4755 29.3527 68.4755Z" fill="#F3AB98"/>
<path d="M50.6851 88.6129H30.4796C30.1819 88.6126 29.8965 88.4942 29.686 88.2836C29.4756 88.0731 29.3574 87.7876 29.3574 87.4899V63.413C29.3574 63.1153 29.4756 62.8298 29.686 62.6193C29.8965 62.4087 30.1819 62.2903 30.4796 62.29H50.2022C51.3092 62.29 51.8089 62.9378 51.8089 63.9712V87.4865C51.8094 87.6343 51.7806 87.7808 51.7243 87.9175C51.6681 88.0542 51.5853 88.1784 51.4809 88.283C51.3765 88.3877 51.2525 88.4707 51.1159 88.5273C50.9793 88.5839 50.8329 88.613 50.6851 88.6129Z" fill="#FDD2B2"/>
<path d="M51.4952 62.958C51.4109 62.8544 51.3396 62.7408 51.283 62.6198C51.0799 62.4607 50.8383 62.3582 50.5828 62.3229C50.4569 62.3035 50.3296 62.2938 50.2022 62.2942H30.4796C30.1826 62.2944 29.8978 62.4123 29.6875 62.6219C29.4772 62.8316 29.3585 63.116 29.3574 63.413C31.8098 64.2941 36.4007 64.7863 40.5823 64.7863C45.9149 64.7863 49.409 63.9956 51.4952 62.958Z" fill="#F3AB98"/>
<path d="M49.8838 62.29C57.5587 62.29 55.9723 71.9505 56.0459 82.6934H51.8068" stroke="#592D3D" stroke-width="1.57179" stroke-miterlimit="10" stroke-linecap="square"/>
<path d="M30.9523 62.29C23.2765 62.29 24.8638 71.9505 24.7902 82.6934H29.0243" stroke="#592D3D" stroke-width="1.57179" stroke-miterlimit="10" stroke-linecap="square"/>
<path d="M30.4785 62.2985L50.2012 62.29" stroke="#592D3D" stroke-width="1.57179" stroke-miterlimit="10"/>
<path d="M30.4796 88.6124H40.3413C31.1113 88.6124 31.8081 69.0631 29.3574 69.0631V87.486C29.357 87.6337 29.3857 87.78 29.4419 87.9166C29.498 88.0532 29.5806 88.1774 29.6848 88.282C29.7891 88.3866 29.9129 88.4697 30.0493 88.5264C30.1857 88.5831 30.3319 88.6123 30.4796 88.6124Z" fill="#F3AB98"/>
<path d="M28.8492 70.9266C28.8331 70.6162 28.8399 70.3059 28.8534 69.9964C28.867 69.6869 28.8932 69.3748 28.9262 69.0662C28.9431 68.9106 28.96 68.7558 28.9811 68.6002C29.0023 68.4446 29.0226 68.2899 29.053 68.1343C29.113 67.8123 29.215 67.4995 29.3566 67.2041C29.4981 67.4995 29.6002 67.8123 29.6602 68.1343C29.6906 68.2899 29.7126 68.4446 29.732 68.6002C29.7515 68.7558 29.7701 68.9106 29.787 69.0662C29.8191 69.3765 29.8445 69.6869 29.8589 69.9964C29.8733 70.3059 29.88 70.6171 29.864 70.9266H28.8492Z" fill="#592D3D"/>
<path d="M51.8055 71.7V72.3765C51.8275 75.2517 51.8275 78.2114 51.8055 81.0654C51.8055 81.3081 51.8055 81.5491 51.8055 81.7867V87.4871C51.8059 87.6347 51.7771 87.781 51.7209 87.9175C51.6646 88.0539 51.582 88.178 51.4778 88.2825C51.3736 88.3871 51.2498 88.47 51.1135 88.5267C50.9771 88.5833 50.831 88.6125 50.6834 88.6127H30.4779C30.1802 88.6124 29.8947 88.494 29.6843 88.2834C29.4739 88.0729 29.3557 87.7873 29.3557 87.4897V82.5681C29.3557 82.3558 29.3557 82.1393 29.3557 81.9212C29.3346 78.9725 29.3346 76.0127 29.3557 73.0167V70.9263" stroke="#592D3D" stroke-width="1.57179" stroke-miterlimit="10"/>
<path d="M51.2991 71.6999C51.283 71.3472 51.2906 70.9937 51.3042 70.6403C51.3177 70.2868 51.3439 69.9342 51.376 69.5807C51.393 69.404 51.4107 69.2272 51.431 69.0505C51.4513 68.8738 51.4724 68.6979 51.5029 68.5211C51.5618 68.1572 51.6637 67.8015 51.8065 67.4615C51.9492 67.8015 52.0511 68.1572 52.1101 68.5211C52.1405 68.6979 52.1625 68.8746 52.1819 69.0505C52.2014 69.2264 52.22 69.404 52.2369 69.5807C52.269 69.9342 52.2952 70.2868 52.3088 70.6403C52.3223 70.9937 52.3299 71.3472 52.3138 71.6999H51.2991Z" fill="#592D3D"/>
<path d="M40.7563 72.4489C40.7562 73.3349 40.5552 74.2093 40.1684 75.0064C39.7816 75.8035 39.2192 76.5026 38.5233 77.051C37.8275 77.5995 37.0164 77.983 36.151 78.1728C35.2856 78.3627 34.3884 78.3538 33.5269 78.147C32.6654 77.9401 31.862 77.5407 31.1771 76.9786C30.4922 76.4166 29.9437 75.7066 29.5727 74.902C29.2017 74.0974 29.018 73.2192 29.0353 72.3334C29.0526 71.4476 29.2705 70.5772 29.6726 69.7877" stroke="#592D3D" stroke-width="1.57179" stroke-miterlimit="10"/>
<path d="M29.6729 69.7882C29.9931 69.1626 30.4227 68.5992 30.9413 68.1249L29.6729 69.7882Z" fill="#FDD2B2"/>
<path d="M29.2207 69.5577C29.295 69.3818 29.391 69.2159 29.5065 69.0639C29.6212 68.9116 29.7494 68.7701 29.8896 68.6411C29.9606 68.5768 30.0325 68.5142 30.1078 68.4559C30.1825 68.3954 30.2619 68.3411 30.3454 68.2935C30.5258 68.1894 30.7291 68.1313 30.9373 68.1244C30.9154 68.3224 30.8656 68.5162 30.7894 68.7003C30.7564 68.7848 30.7192 68.8592 30.6803 68.9345L30.5703 69.1603C30.4985 69.3091 30.4274 69.4554 30.3547 69.5992C30.2843 69.7441 30.2064 69.8852 30.1213 70.022L29.2207 69.5577Z" fill="#592D3D"/>
<path d="M39.6787 69.0631C40.3804 70.0514 40.757 71.2336 40.756 72.4456L39.6787 69.0631Z" fill="#FDD2B2"/>
<path d="M39.6787 69.0631C39.9674 69.2196 40.2183 69.4376 40.4136 69.7016C40.5108 69.83 40.5984 69.9653 40.6757 70.1066C40.7544 70.2478 40.8254 70.3933 40.8913 70.5421C41.0211 70.8411 41.1192 71.1529 41.1839 71.4723C41.2496 71.7929 41.2763 72.1203 41.2634 72.4473H40.2487C40.2326 72.1725 40.2182 71.8994 40.1895 71.6245C40.1607 71.3497 40.1244 71.0766 40.0711 70.8009L40.0288 70.5945L39.9798 70.3874C39.9442 70.2495 39.9062 70.1117 39.8707 69.9705C39.7908 69.6716 39.7267 69.3687 39.6787 69.0631Z" fill="#592D3D"/>
<path d="M52.5594 72.4488C52.5603 71.6465 52.3961 70.8525 52.0769 70.1164C51.7577 69.3802 51.2904 68.7177 50.7041 68.1699" fill="#FDD2B2"/>
<path d="M52.052 72.449C52.0385 72.0847 52.0029 71.7215 51.9455 71.3615C51.8862 70.9979 51.7979 70.6397 51.6817 70.2901C51.6529 70.2055 51.6191 70.1151 51.5878 70.0271C51.5565 69.9392 51.5167 69.8538 51.4821 69.7658C51.4474 69.6779 51.4026 69.5967 51.3654 69.5079L51.2419 69.2542C51.0728 68.9075 50.8893 68.5616 50.7041 68.176C51.096 68.3432 51.4481 68.5913 51.7375 68.9041C51.8076 68.9836 51.8812 69.0614 51.9463 69.1451C52.0114 69.2288 52.0766 69.3142 52.1366 69.3988C52.1966 69.4834 52.2575 69.5755 52.3116 69.6677C52.3658 69.7599 52.4224 69.8521 52.4706 69.9485C52.6719 70.331 52.8253 70.7368 52.9273 71.1569C53.0315 71.5794 53.0775 72.0141 53.0643 72.449H52.052Z" fill="#592D3D"/>
<path d="M40.8354 72.4491C40.8261 73.2247 40.9708 73.9943 41.2611 74.7136C41.5515 75.4328 41.9817 76.0872 42.5268 76.6389C43.0719 77.1907 43.7212 77.6287 44.4368 77.9277C45.1525 78.2266 45.9204 78.3806 46.696 78.3806C47.4716 78.3806 48.2395 78.2266 48.9552 77.9277C49.6709 77.6287 50.3201 77.1907 50.8653 76.6389C51.4104 76.0872 51.8406 75.4328 52.1309 74.7136C52.4213 73.9943 52.566 73.2247 52.5567 72.4491" stroke="#592D3D" stroke-width="1.57179" stroke-miterlimit="10"/>
<path d="M41.9144 69.0631C41.213 70.0515 40.8367 71.2337 40.8379 72.4456L41.9144 69.0631Z" fill="#FDD2B2"/>
<path d="M41.915 69.0631C41.867 69.3693 41.803 69.6727 41.723 69.9722C41.6875 70.1134 41.6495 70.2512 41.6139 70.3891L41.5657 70.5962L41.5235 70.8026C41.4702 71.0783 41.4313 71.3522 41.4042 71.6262C41.3772 71.9002 41.3619 72.1742 41.3459 72.449H40.3277C40.314 72.122 40.3407 71.7945 40.4072 71.474C40.4716 71.1545 40.5696 70.8427 40.6998 70.5438C40.7649 70.395 40.836 70.2495 40.9146 70.1083C40.9922 69.9672 41.0798 69.8319 41.1767 69.7033C41.3731 69.4385 41.6251 69.22 41.915 69.0631Z" fill="#592D3D"/>
<path d="M30.7246 68.9562V62.29" stroke="#592D3D" stroke-width="1.57179" stroke-miterlimit="10"/>
<path d="M50.4307 68.9562V62.29" stroke="#592D3D" stroke-width="1.57179" stroke-miterlimit="10"/>
<path d="M38.0859 74.0492H42.6439V75.7151C41.1437 75.2035 39.6241 75.2162 38.0859 75.7151V74.0492Z" fill="#633749" stroke="#592D3D" stroke-width="1.57179" stroke-miterlimit="10"/>
<path d="M52.2587 72.4497C52.2609 70.9652 51.6975 69.5356 50.6833 68.4516C50.3265 68.0694 46.9397 68.975 44.9491 70.7568C42.9948 72.5064 41.2934 75.3646 41.537 75.7249C42.2385 76.7661 43.2558 77.5545 44.4391 77.974C45.6225 78.3935 46.9092 78.422 48.1099 78.0552C49.3106 77.6884 50.3618 76.9458 51.1087 75.9367C51.8556 74.9275 52.2588 73.7052 52.2587 72.4497Z" fill="#633749" stroke="#592D3D" stroke-width="1.57179" stroke-miterlimit="10"/>
<path d="M48.8771 69.8726C48.3596 70.1829 47.8497 70.4797 47.355 70.8028C46.8668 71.1148 46.3998 71.4588 45.9572 71.8327C45.5217 72.2099 45.1022 72.6209 44.6887 73.0386C44.2752 73.4563 43.8693 73.8842 43.4414 74.313C43.7009 73.7686 44.0178 73.2534 44.3868 72.7765C44.7553 72.292 45.172 71.8463 45.6307 71.4463C46.0974 71.0513 46.613 70.7179 47.1647 70.4544C47.7082 70.1878 48.2837 69.9922 48.8771 69.8726Z" fill="white"/>
<path d="M28.9023 72.4497C28.9002 70.9652 29.4635 69.5356 30.4778 68.4516C30.8346 68.0694 34.2214 68.975 36.212 70.7568C38.1662 72.5064 39.8677 75.3646 39.6241 75.7249C38.9226 76.7661 37.9053 77.5545 36.7219 77.974C35.5386 78.3935 34.2519 78.422 33.0512 78.0552C31.8505 77.6884 30.7993 76.9458 30.0524 75.9367C29.3055 74.9275 28.9023 73.7052 28.9023 72.4497Z" fill="#633749" stroke="#592D3D" stroke-width="1.57179" stroke-miterlimit="10"/>
<path d="M36.8388 77.5285C34.9244 77.5285 33.0884 76.768 31.7347 75.4143C30.381 74.0606 29.6205 72.2246 29.6205 70.3102C29.6205 70.0642 29.6329 69.8183 29.6577 69.5736C29.0219 70.7024 28.778 72.01 28.9641 73.2921C29.1503 74.5742 29.756 75.7585 30.6865 76.6599C31.6171 77.5612 32.8201 78.1289 34.1074 78.2741C35.3948 78.4193 36.694 78.1339 37.802 77.4625C37.4827 77.5059 37.1609 77.5279 36.8388 77.5285Z" fill="#5E3244"/>
<path d="M28.9023 72.4497C28.9002 70.9652 29.4635 69.5356 30.4778 68.4516C30.8346 68.0694 34.2214 68.975 36.212 70.7568C38.1662 72.5064 39.8677 75.3646 39.6241 75.7249C38.9226 76.7661 37.9053 77.5545 36.7219 77.974C35.5386 78.3935 34.2519 78.422 33.0512 78.0552C31.8505 77.6884 30.7993 76.9458 30.0524 75.9367C29.3055 74.9275 28.9023 73.7052 28.9023 72.4497V72.4497Z" stroke="#592D3D" stroke-width="1.57179" stroke-miterlimit="10"/>
<path d="M32.2852 69.8726C32.8785 69.992 33.454 70.1872 33.9976 70.4535C34.5493 70.7173 35.0649 71.051 35.5315 71.4463C35.9884 71.846 36.4035 72.2912 36.7704 72.7748C37.1394 73.2518 37.4564 73.7669 37.7158 74.3113C37.2879 73.8885 36.8837 73.4547 36.4685 73.0369C36.0533 72.6192 35.6364 72.2082 35.2 71.831C34.7574 71.4572 34.2904 71.1131 33.8022 70.8011C33.3092 70.4797 32.8018 70.1829 32.2852 69.8726Z" fill="white"/>
<path d="M55.8615 74.7262C55.8784 71.5889 55.7592 68.8008 55.207 66.6597C54.3546 64.516 52.824 63.2374 50.123 63.2374L52.0553 74.6086C52.0553 74.6086 53.9588 75.4788 55.8615 74.7262Z" fill="#F3AB98"/>
<path d="M56.5897 73.8335C56.4933 73.9129 56.3886 73.9816 56.2773 74.0383" stroke="#592D3D" stroke-width="1.57179" stroke-miterlimit="10" stroke-linecap="square"/>
<path d="M26.1211 66.5688C25.5444 68.731 25.4446 71.569 25.4666 74.7714C27.1494 75.4944 29.7311 74.5896 29.7311 74.5896L31.1949 63.4036C28.5853 63.4036 27.0294 64.579 26.1211 66.5688Z" fill="#F3AB98"/>
<path d="M50.4463 62.2426L47.1956 62.251C47.1956 66.7937 40.8255 71.6494 40.8255 71.6494C40.8255 71.6494 33.9928 66.5265 33.9928 62.251L30.7236 62.2426C30.4259 62.2426 30.1404 62.3608 29.9298 62.5712C29.7192 62.7816 29.6008 63.067 29.6006 63.3647V87.439C29.6008 87.7367 29.7192 88.0221 29.9298 88.2325C30.1404 88.4429 30.4259 88.5611 30.7236 88.5611H50.9283C51.2259 88.5611 51.5113 88.4429 51.7217 88.2325C51.9322 88.022 52.0504 87.7366 52.0504 87.439V63.9203C52.0504 62.8903 51.5532 62.2426 50.4463 62.2426Z" fill="#633749"/>
<path d="M50.123 62.2426C55.4962 62.2426 56.33 66.9781 56.3723 73.503C54.8002 74.4856 52.2363 73.6146 52.2363 73.6146L50.123 62.2426Z" fill="#633749"/>
<path d="M52.0502 68.4286L50.123 71.6496L51.0862 82.6428H52.0672V73.7112L53.5284 73.9556C53.0532 67.8527 52.0502 68.4286 52.0502 68.4286Z" fill="#5E3244"/>
<path d="M31.195 62.2426C25.9707 62.2426 24.7834 66.7912 24.6963 73.0379C26.303 74.7165 29.5967 73.4252 29.5967 73.4252L31.195 62.2426Z" fill="#633749"/>
<path d="M29.5995 68.429V73.4259L28.1357 73.7895C28.6152 67.8642 29.5995 68.429 29.5995 68.429Z" fill="#5E3244"/>
<path d="M50.123 62.2426C55.8243 62.2426 56.757 67.0018 56.7951 73.5554C54.5795 74.6057 52.2363 73.6146 52.2363 73.6146" stroke="#592D3D" stroke-width="1.57179" stroke-miterlimit="10" stroke-linecap="square"/>
<path d="M31.1957 62.2426C25.5477 62.2426 24.4238 66.8673 24.3672 73.2958C26.1083 74.5465 29.5974 73.4252 29.5974 73.4252" stroke="#592D3D" stroke-width="1.57179" stroke-miterlimit="10" stroke-linecap="square"/>
<path d="M30.724 88.5609H40.5816C31.3481 88.5609 32.0483 69.015 29.5977 69.015V87.4388C29.5978 87.5865 29.627 87.7327 29.6837 87.8691C29.7404 88.0054 29.8234 88.1293 29.9281 88.2335C30.0327 88.3378 30.1569 88.4203 30.2934 88.4765C30.43 88.5327 30.5764 88.5614 30.724 88.5609Z" fill="#5E3244"/>
<path d="M29.0933 70.8787C29.0772 70.5684 29.084 70.2572 29.0984 69.9485C29.1127 69.6399 29.1381 69.3278 29.1702 69.0183C29.1871 68.8636 29.2049 68.708 29.2252 68.5524C29.2455 68.3968 29.2666 68.2421 29.2971 68.0873C29.3569 67.7652 29.459 67.4525 29.6007 67.1571C29.7423 67.4525 29.8444 67.7652 29.9042 68.0873C29.9347 68.2421 29.9567 68.3976 29.9761 68.5524C29.9956 68.7071 30.0142 68.8636 30.0311 69.0183C30.0638 69.3295 30.088 69.6396 30.1038 69.9485C30.1173 70.2589 30.1241 70.5701 30.1038 70.8787H29.0933Z" fill="#592D3D"/>
<path d="M52.0513 71.6492V72.3257C52.0733 75.2008 52.0733 78.1605 52.0513 81.0154C52.0513 81.2581 52.0513 81.4991 52.0513 81.7367V87.4371C52.0513 87.7347 51.9331 88.0201 51.7226 88.2306C51.5122 88.441 51.2267 88.5592 50.9291 88.5592H30.7244C30.4268 88.5592 30.1412 88.441 29.9307 88.2306C29.7201 88.0202 29.6017 87.7348 29.6015 87.4371V81.8728C29.5795 78.925 29.5795 75.9653 29.6015 72.9683V70.8788" stroke="#592D3D" stroke-width="1.57179" stroke-miterlimit="10"/>
<path d="M51.5432 71.6492C51.5272 71.2957 51.5348 70.9422 51.5483 70.5896C51.5618 70.237 51.588 69.8827 51.621 69.53C51.6379 69.3533 51.6549 69.1766 51.6751 68.9998C51.6954 68.8231 51.7166 68.6463 51.7479 68.4696C51.8063 68.1056 51.9079 67.7499 52.0506 67.41C52.1939 67.7498 52.2959 68.1055 52.3542 68.4696C52.3846 68.6463 52.4075 68.8231 52.4261 68.9998C52.4447 69.1766 52.4641 69.3533 52.481 69.53C52.514 69.8827 52.5394 70.2361 52.5529 70.5896C52.5664 70.9431 52.5749 71.2957 52.558 71.6492H51.5432Z" fill="#592D3D"/>
<path d="M30.7227 62.251L50.4453 62.2426" stroke="#592D3D" stroke-width="1.57179" stroke-miterlimit="10"/>
<path d="M24.5752 73.5555C24.6716 73.6429 24.7758 73.7211 24.8867 73.7891" stroke="#592D3D" stroke-width="1.57179" stroke-miterlimit="10" stroke-linecap="square"/>
<path d="M55.6002 72.7262C55.4242 72.8308 55.2309 72.903 55.0294 72.9393C54.8286 72.9784 54.6242 72.9965 54.4197 72.9934C54.216 72.9898 54.0131 72.9677 53.8134 72.9275C53.7136 72.9089 53.6155 72.8793 53.5182 72.8539C53.421 72.8285 53.3254 72.7879 53.2324 72.749C53.3347 72.749 53.4345 72.7634 53.5335 72.7719L53.8311 72.7964C53.9301 72.7964 54.0282 72.8133 54.1271 72.8141C54.226 72.815 54.3241 72.8234 54.4222 72.8243C54.6184 72.8285 54.8146 72.8243 55.0142 72.8091C55.2112 72.7949 55.407 72.7673 55.6002 72.7262Z" fill="#592D3D"/>
<path d="M47.197 62.2512C47.197 66.794 40.8268 71.6496 40.8268 71.6496C40.8268 71.6496 33.9941 66.5267 33.9941 62.2512" stroke="#592D3D" stroke-width="1.57179" stroke-miterlimit="10"/>
<path fill-rule="evenodd" clip-rule="evenodd" d="M39.7876 73.3066C39.3901 73.507 38.5513 73.8985 38.0963 74.2072C37.6414 74.5159 37.6989 74.8076 37.5001 75.008C37.3014 75.2084 36.7052 75.7082 36.3078 76.0084C35.9103 76.3086 36.0093 77.1077 35.9103 77.4088C35.8114 77.7098 35.6118 78.4091 35.5121 78.7093C35.4123 79.0095 35.7108 79.4095 35.9103 79.8087C36.1099 80.2078 36.6055 81.3088 36.8042 81.7096C37.0029 82.1105 37.5999 81.9092 38.0963 82.3092C38.6358 82.7426 39.2005 83.1436 39.7876 83.51C40.284 83.8102 40.4835 83.8102 40.9799 83.51C41.5671 83.1438 42.1318 82.7428 42.6712 82.3092C43.1684 81.9092 43.7646 82.1096 43.9641 81.7096C44.1637 81.3097 44.6592 80.2087 44.858 79.8087C45.0567 79.4087 45.3552 79.0079 45.2563 78.7093C45.1573 78.4108 44.9578 77.709 44.858 77.4088C44.7582 77.1086 44.858 76.3094 44.4605 76.0084C44.0457 75.6962 43.6477 75.3623 43.2682 75.008C42.9299 74.6892 43.0695 74.5074 42.6712 74.2072C42.2729 73.907 41.379 73.507 40.9799 73.3066C40.7965 73.2084 40.5918 73.157 40.3837 73.157C40.1757 73.157 39.9709 73.2084 39.7876 73.3066Z" fill="white"/>
<path fill-rule="evenodd" clip-rule="evenodd" d="M38.3819 75.0365L40.2423 76.305C40.2845 76.3329 40.3338 76.3481 40.3844 76.3489C40.4348 76.3486 40.4839 76.3333 40.5256 76.305L42.386 75.0306C42.4216 75.0052 42.4501 74.9709 42.4686 74.9312C42.4871 74.8914 42.495 74.8476 42.4915 74.8039C42.488 74.7602 42.4733 74.7182 42.4487 74.6819C42.4241 74.6456 42.3906 74.6163 42.3513 74.5968L40.4909 73.6751C40.4561 73.6583 40.4179 73.6497 40.3793 73.6497C40.3406 73.6497 40.3025 73.6583 40.2677 73.6751L38.4123 74.5968C38.3724 74.6164 38.3383 74.6461 38.3135 74.683C38.2886 74.7199 38.2739 74.7627 38.2709 74.807C38.2678 74.8514 38.2764 74.8958 38.2959 74.9358C38.3154 74.9758 38.3451 75.0099 38.3819 75.0348V75.0365ZM41.0152 76.705C41.015 76.7464 41.0248 76.7872 41.044 76.8239C41.0632 76.8606 41.091 76.8921 41.1251 76.9155L42.6168 77.9354C42.6634 77.9667 42.719 77.9817 42.775 77.978C42.831 77.9743 42.8843 77.9522 42.9263 77.9151L44.177 76.7963C44.2048 76.7717 44.2268 76.7413 44.2416 76.7072C44.2563 76.6732 44.2634 76.6363 44.2624 76.5992C44.2613 76.5621 44.2522 76.5257 44.2355 76.4926C44.2189 76.4594 44.1952 76.4303 44.166 76.4073L42.972 75.4526C42.9297 75.4189 42.8778 75.3996 42.8238 75.3974C42.7698 75.3953 42.7166 75.4105 42.6718 75.4407L41.1251 76.4986C41.0915 76.5216 41.0638 76.5523 41.0445 76.5882C41.0252 76.6242 41.0149 76.6642 41.0144 76.705H41.0152ZM37.3054 78.0918C37.3355 78.1184 37.3588 78.1517 37.3735 78.189C37.3882 78.2264 37.3939 78.2666 37.39 78.3066C37.3858 78.3465 37.3722 78.3849 37.3503 78.4186C37.3284 78.4523 37.2988 78.4802 37.264 78.5002L36.3735 79.0338C36.3294 79.0599 36.2784 79.0721 36.2272 79.0686C36.176 79.0651 36.1271 79.0462 36.0869 79.0144C36.0463 78.9824 36.0164 78.9388 36.0013 78.8893C35.9862 78.8399 35.9866 78.7871 36.0023 78.7379L36.3321 77.702C36.3446 77.6616 36.367 77.6249 36.3973 77.5954C36.4276 77.5658 36.4647 77.5443 36.5054 77.5328C36.5461 77.5212 36.5891 77.5202 36.6303 77.53C36.6715 77.5398 36.7094 77.56 36.7405 77.5886L37.3054 78.0918ZM42.1365 78.2L40.5256 77.1007C40.4838 77.0727 40.4347 77.0578 40.3844 77.0578C40.3341 77.0578 40.2849 77.0727 40.2431 77.1007L38.6364 78.2C38.6046 78.2218 38.5781 78.2506 38.5591 78.2842C38.54 78.3177 38.5289 78.3552 38.5265 78.3937C38.5245 78.4324 38.531 78.4712 38.5456 78.5071C38.5603 78.5431 38.5826 78.5754 38.6111 78.6017L40.2178 80.0393C40.2642 80.0809 40.3246 80.1035 40.3869 80.1027C40.4491 80.103 40.5093 80.0805 40.556 80.0393L42.1627 78.6017C42.1918 78.5759 42.2146 78.5436 42.2293 78.5076C42.2439 78.4715 42.2501 78.4325 42.2473 78.3937C42.2447 78.355 42.2333 78.3175 42.214 78.2839C42.1946 78.2503 42.1678 78.2216 42.1357 78.2H42.1365ZM37.8407 77.9151L36.5909 76.7963C36.5631 76.771 36.5412 76.74 36.5266 76.7054C36.512 76.6708 36.5051 76.6334 36.5063 76.5959C36.507 76.5588 36.5159 76.5223 36.5322 76.489C36.5486 76.4556 36.5721 76.4263 36.601 76.4031L37.795 75.4424C37.8375 75.4085 37.8898 75.3891 37.9442 75.3871C37.9985 75.3851 38.0521 75.4007 38.0969 75.4314L39.6419 76.4885C39.6772 76.512 39.7061 76.5437 39.7262 76.5811C39.7462 76.6184 39.7568 76.6601 39.7569 76.7024C39.757 76.7447 39.7466 76.7864 39.7265 76.8236C39.7064 76.8608 39.6773 76.8924 39.6419 76.9155L38.1519 77.9354C38.1052 77.9671 38.0492 77.9823 37.9928 77.9787C37.9364 77.975 37.8829 77.9526 37.8407 77.9151ZM44.2574 79.5218L42.9847 78.7607C42.9385 78.7335 42.8849 78.7217 42.8316 78.7268C42.7783 78.732 42.728 78.7539 42.6879 78.7894L41.1327 80.1771C41.101 80.2059 41.077 80.2422 41.063 80.2827C41.049 80.3232 41.0456 80.3666 41.0529 80.4088C41.0603 80.451 41.0782 80.4907 41.105 80.5241C41.1318 80.5576 41.1667 80.5836 41.2063 80.5999L43.3635 81.4743C43.4244 81.4985 43.4923 81.4982 43.553 81.4735C43.6137 81.4487 43.6625 81.4015 43.6891 81.3416L44.3571 79.8439C44.3826 79.7874 44.3866 79.7236 44.3682 79.6644C44.3498 79.6051 44.3104 79.5547 44.2574 79.5226V79.5218ZM44.4341 77.7037L44.763 78.7396C44.7755 78.7777 44.7787 78.8182 44.7724 78.8578C44.7662 78.8975 44.7506 78.935 44.727 78.9675C44.7034 78.9999 44.6724 79.0263 44.6366 79.0444C44.6009 79.0626 44.5613 79.072 44.5212 79.0719C44.4758 79.0718 44.4313 79.0593 44.3927 79.0355L43.5005 78.5019C43.4662 78.4818 43.4371 78.4537 43.4159 78.42C43.3947 78.3863 43.382 78.348 43.3787 78.3083C43.3748 78.2683 43.3805 78.228 43.3952 78.1907C43.4099 78.1534 43.4332 78.12 43.4633 78.0935L44.029 77.5861C44.0604 77.5581 44.0982 77.5384 44.1391 77.5286C44.18 77.5189 44.2227 77.5195 44.2633 77.5303C44.304 77.5426 44.341 77.5649 44.3708 77.5952C44.4007 77.6254 44.4224 77.6628 44.4341 77.7037ZM39.7155 80.4097C39.7225 80.3668 39.7185 80.3228 39.7037 80.2819C39.6889 80.2411 39.6638 80.2047 39.6309 80.1763L38.0758 78.7886C38.0357 78.7531 37.9854 78.7312 37.9321 78.726C37.8787 78.7208 37.8251 78.7327 37.779 78.7598L36.5105 79.5209C36.4571 79.5535 36.4173 79.6044 36.3987 79.6642C36.38 79.7239 36.3837 79.7884 36.409 79.8456L37.0788 81.3432C37.1055 81.4028 37.1542 81.4497 37.2147 81.4743C37.2752 81.4989 37.3428 81.4992 37.4035 81.4752L39.5599 80.6016C39.6 80.5856 39.6354 80.5595 39.6626 80.5259C39.6899 80.4923 39.708 80.4523 39.7155 80.4097ZM40.4765 80.8325L42.2067 81.5335C42.2493 81.5509 42.2864 81.5795 42.314 81.6163C42.3417 81.6532 42.3587 81.6968 42.3634 81.7426C42.3681 81.7884 42.3602 81.8346 42.3407 81.8763C42.3211 81.918 42.2906 81.9535 42.2524 81.9792L40.5205 83.1817C40.4792 83.2109 40.4299 83.2268 40.3793 83.2273C40.3287 83.2265 40.2795 83.2106 40.2381 83.1817L38.5079 81.9792C38.4698 81.9533 38.4394 81.9175 38.4201 81.8756C38.4008 81.8337 38.3933 81.7874 38.3983 81.7416C38.4034 81.6958 38.4208 81.6522 38.4487 81.6155C38.4767 81.5789 38.5141 81.5505 38.557 81.5335L40.2871 80.8325C40.3492 80.81 40.4175 80.8118 40.4782 80.8376L40.4765 80.8325Z" fill="#C04927"/>
<path opacity="0.1" d="M34.398 79.4488C35.6221 79.4487 36.8154 79.0653 37.8106 78.3525C38.8058 77.6397 39.5528 76.6333 39.947 75.4744C39.4467 76.3302 38.7422 77.0488 37.8966 77.5661C37.0509 78.0834 36.0903 78.3832 35.1005 78.4388C34.1107 78.4944 33.1226 78.304 32.2243 77.8848C31.326 77.4655 30.5455 76.8303 29.9525 76.0359L29.9482 77.2815C31.0256 78.6032 32.5604 79.4488 34.398 79.4488Z" fill="black"/>
<path opacity="0.1" d="M46.7639 79.4488C45.5398 79.4487 44.3464 79.0653 43.3512 78.3525C42.3561 77.6397 41.609 76.6333 41.2148 75.4744C41.7152 76.3302 42.4196 77.0488 43.2653 77.5661C44.111 78.0834 45.0716 78.3832 46.0613 78.4388C47.0511 78.4944 48.0393 78.304 48.9376 77.8848C49.8358 77.4655 50.6163 76.8303 51.2094 76.0359V77.2806C50.1363 78.6032 48.6014 79.4488 46.7639 79.4488Z" fill="black"/>
<path d="M32.7161 77.9414C31.8137 77.6046 31.0082 77.0507 30.3708 76.3286C29.7333 75.6065 29.2837 74.7385 29.0615 73.8013C28.8393 72.8641 28.8514 71.8865 29.0968 70.9551C29.3422 70.0237 29.8132 69.1671 30.4684 68.4611" fill="#633749"/>
<path d="M32.7173 77.9419C31.7175 77.7788 30.7942 77.3055 30.0781 76.5889L29.9411 76.4536C29.8963 76.408 29.8565 76.3581 29.8117 76.3107C29.7669 76.2634 29.7272 76.2135 29.6866 76.1644C29.6437 76.1161 29.6033 76.0656 29.5656 76.0131C29.4895 75.909 29.4126 75.805 29.339 75.6985L29.1386 75.3661C28.8856 74.9108 28.6948 74.4236 28.5712 73.9176C28.4562 73.4102 28.4082 72.8899 28.4283 72.3701C28.4513 71.8535 28.5481 71.343 28.7158 70.8539C28.7378 70.7938 28.7572 70.7329 28.78 70.6729L28.8545 70.4953C28.901 70.3769 28.961 70.2636 29.016 70.1494C29.1335 69.9248 29.2675 69.7091 29.4168 69.5042C29.4887 69.4019 29.5707 69.3055 29.6494 69.2091C29.728 69.1127 29.8134 69.0205 29.903 68.936C30.0779 68.7613 30.2684 68.603 30.4722 68.4633C29.9825 69.3089 29.635 70.1706 29.4862 71.0568C29.4088 71.4924 29.3753 71.9346 29.3864 72.3768C29.4027 72.8155 29.4593 73.2517 29.5555 73.68C29.6597 74.1058 29.8047 74.5207 29.9885 74.9188C30.1764 75.321 30.4053 75.7027 30.6717 76.0579C30.9412 76.425 31.2475 76.7636 31.5859 77.0684C31.9411 77.3869 32.3192 77.6789 32.7173 77.9419Z" fill="#592D3D"/>
<path d="M48.4492 77.9414C49.3513 77.6042 50.1564 77.0499 50.7933 76.3276C51.4303 75.6053 51.8795 74.7372 52.1013 73.8C52.323 72.8629 52.3105 71.8855 52.0649 70.9543C51.8192 70.0232 51.3479 69.1668 50.6927 68.4611" fill="#633749"/>
<path d="M48.4492 77.9414C48.8463 77.6794 49.2236 77.3886 49.5781 77.0713C49.9165 76.7665 50.2228 76.4279 50.4923 76.0608C50.7587 75.7056 50.9876 75.3239 51.1755 74.9217C51.3593 74.5236 51.5043 74.1087 51.6085 73.6828C51.7047 73.2546 51.7613 72.8184 51.7776 72.3797C51.7898 71.9359 51.7573 71.4919 51.6804 71.0546C51.5315 70.1684 51.184 69.3092 50.6944 68.4611C50.8982 68.6008 51.0887 68.7591 51.2635 68.9338C51.3548 69.0183 51.4326 69.1147 51.5172 69.2069C51.6017 69.2991 51.6778 69.3997 51.7497 69.502C51.8991 69.7069 52.033 69.9226 52.1506 70.1472C52.2055 70.2614 52.2656 70.3747 52.3121 70.4931L52.3865 70.6707C52.4093 70.7307 52.4288 70.7916 52.4507 70.8517C52.6184 71.3408 52.7152 71.8513 52.7383 72.3679C52.7583 72.8877 52.7103 73.408 52.5954 73.9154C52.4717 74.4214 52.2809 74.9086 52.0279 75.364L51.8275 75.6963C51.7539 75.8028 51.677 75.9068 51.6009 76.0109C51.5632 76.0634 51.5229 76.1139 51.48 76.1622C51.4385 76.2113 51.3954 76.2603 51.3548 76.3085C51.3142 76.3567 51.2702 76.4058 51.2254 76.4514L51.0884 76.5867C50.3725 77.3039 49.4492 77.7778 48.4492 77.9414Z" fill="#592D3D"/>
<path d="M23.3713 46.5516V45.4582C23.2393 44.7424 23.2958 44.0045 23.5354 43.3171C23.6144 43.0928 23.7137 42.8763 23.8322 42.6702C24.1155 41.9336 24.8766 41.3417 25.6376 41.088C26.8215 40.7497 28.2591 40.9189 29.1893 41.8491C30.3732 43.1175 30.204 44.9779 30.2421 46.5525" stroke="#592D3D" stroke-width="1.57179" stroke-miterlimit="10" stroke-linecap="round"/>
<path d="M51.0099 46.5844C50.812 44.3334 51.1503 41.2045 54.0652 40.9043C54.2936 40.8836 54.5234 40.8836 54.7518 40.9043C55.4397 40.964 56.0971 41.2154 56.6494 41.6299C58.1716 42.8983 57.8333 44.9278 57.8291 46.5878" stroke="#592D3D" stroke-width="1.57179" stroke-miterlimit="10" stroke-linecap="round"/>
<path d="M45.5313 52.457C45.2244 52.457 45.0789 52.3462 44.2139 51.5446C43.5805 50.9586 43.1458 50.6685 42.6148 50.5755C41.9526 50.4596 41.2761 50.5011 40.5548 51.2249C39.8335 50.5011 39.1578 50.4639 38.4948 50.5755C37.9638 50.6685 37.5291 50.9586 36.8958 51.5446C36.0307 52.3462 35.8852 52.457 35.5783 52.457C35.5475 52.4571 35.5175 52.4662 35.4919 52.4833C35.4664 52.5004 35.4464 52.5247 35.4347 52.5531C35.4229 52.5815 35.4198 52.6128 35.4258 52.6429C35.4318 52.6731 35.4466 52.7008 35.4683 52.7225C36.9482 54.2024 38.6437 54.9432 40.5548 54.9449C42.4659 54.9466 44.1614 54.2058 45.6413 52.7225C45.663 52.7008 45.6778 52.6731 45.6838 52.6429C45.6898 52.6128 45.6867 52.5815 45.6749 52.5531C45.6632 52.5247 45.6433 52.5004 45.6177 52.4833C45.5921 52.4662 45.5621 52.4571 45.5313 52.457Z" fill="#D69AC7"/>
<path d="M45.6196 52.7445L45.5731 52.5576C39.6063 53.9208 35.5802 52.6024 35.5802 52.6024L35.4306 52.5762C35.424 52.602 35.4242 52.629 35.4312 52.6546C35.4381 52.6802 35.4516 52.7036 35.4703 52.7225C36.9502 54.2024 38.6456 54.9431 40.5568 54.9448C42.4555 54.9448 44.1431 54.2114 45.6196 52.7445Z" fill="#C683B4"/>
<path d="M38.8291 53.1287C39.9665 53.0492 41.0861 53.0069 42.2023 52.875C42.7596 52.8107 43.3143 52.7278 43.8657 52.6331C44.417 52.5384 44.965 52.4293 45.5155 52.3118L45.6288 52.8065C45.0724 52.9384 44.5109 53.0458 43.9443 53.1287C43.3778 53.2115 42.8095 53.2696 42.2395 53.3029C41.6687 53.3341 41.0979 53.3485 40.5271 53.3257C39.9568 53.3049 39.389 53.239 38.8291 53.1287Z" fill="#592D3D"/>
<path d="M35.6581 52.3613C35.801 52.3977 35.96 52.4459 36.1131 52.4865C36.2661 52.5271 36.4217 52.5778 36.5773 52.6243C36.7329 52.6708 36.8885 52.7173 37.0441 52.774C37.2059 52.8309 37.3608 52.9058 37.5058 52.9972C37.3397 53.0462 37.1675 53.0719 36.9942 53.0733C36.8251 53.0733 36.6602 53.0598 36.4928 53.0463C36.3253 53.0328 36.1604 53.0065 35.9955 52.9744C35.8272 52.9437 35.6615 52.8999 35.5 52.8433L35.6581 52.3613Z" fill="#592D3D"/>
<path d="M45.5318 52.4568C45.2248 52.4568 45.0794 52.3461 44.2143 51.5444C43.5809 50.9584 43.1547 50.5897 42.6152 50.5753C41.6673 50.5499 40.9958 51.0928 40.5214 51.0928C40.047 51.0928 39.6378 50.4561 38.4919 50.5753C37.9558 50.6311 37.5262 50.9584 36.8928 51.5444C36.0278 52.3461 35.8823 52.4568 35.5753 52.4568C35.5446 52.4569 35.5145 52.466 35.489 52.4831C35.4634 52.5002 35.4435 52.5245 35.4318 52.5529C35.42 52.5813 35.4169 52.6126 35.4229 52.6427C35.4289 52.6729 35.4437 52.7006 35.4654 52.7224C36.9453 54.2022 38.6408 54.943 40.5519 54.9447C42.463 54.9464 44.1585 54.2056 45.6384 52.7224C45.6599 52.7008 45.6746 52.6734 45.6807 52.6436C45.6868 52.6137 45.684 52.5827 45.6727 52.5544C45.6613 52.5262 45.6419 52.5018 45.6169 52.4845C45.5918 52.4671 45.5623 52.4575 45.5318 52.4568V52.4568Z" stroke="#592D3D" stroke-width="1.04786" stroke-miterlimit="10"/>
<path d="M42.6157 51.1069C42.2615 51.1371 41.914 51.2209 41.5849 51.3555C41.4209 51.4207 41.2577 51.4909 41.0902 51.5602C40.9186 51.6389 40.7352 51.6886 40.5473 51.7073C40.4469 51.709 40.3471 51.6906 40.2539 51.6532C40.1667 51.6196 40.0819 51.5801 40.0002 51.5348C39.8472 51.4469 39.6897 51.367 39.5283 51.2955C39.3669 51.228 39.1984 51.179 39.026 51.1492C38.8502 51.1206 38.6723 51.1064 38.4941 51.1069C38.6722 51.0714 38.854 51.0577 39.0353 51.0663C39.2191 51.0775 39.4005 51.113 39.5749 51.172C39.7461 51.2336 39.9128 51.307 40.0738 51.3919C40.2319 51.4714 40.3875 51.5467 40.5406 51.5391C40.7096 51.5217 40.875 51.4786 41.031 51.4114C41.2002 51.3513 41.3693 51.2837 41.5384 51.2312C41.8844 51.1126 42.2519 51.0702 42.6157 51.1069Z" fill="white"/>
<path d="M38.2655 53.2945C38.5371 53.2945 38.5379 52.8728 38.2655 52.8728C37.9931 52.8728 37.994 53.2945 38.2655 53.2945Z" fill="#592D3D"/>
<path d="M45.5939 31.7299C44.5055 33.7595 40.5201 34.896 40.1962 34.3869C39.8326 33.8178 43.3961 29.7089 41.3716 25.4114" fill="#F3AB98"/>
<path d="M61.4604 29.057C57.781 21.4218 49.5987 17.0491 40.7644 17.0491C29.6705 17.0491 19.3276 25.0826 17.4824 35.9692C17.4824 35.9692 34.5989 37.2647 40.7584 30.2697C41.5711 30.668 53.9579 36.8326 61.4604 29.057Z" fill="#592D3D"/>
<path d="M40.7633 17.8456C39.2884 17.946 37.8228 18.1532 36.3778 18.4655L35.3056 18.7234C34.9504 18.8189 34.5986 18.9238 34.2452 19.0236L33.1974 19.3618C32.8516 19.4853 32.5099 19.6155 32.1658 19.7457C30.7973 20.2833 29.4722 20.9254 28.2023 21.6662C26.9283 22.4167 25.7064 23.2524 24.5449 24.1675C25.5834 23.0939 26.7406 22.1418 27.9943 21.3296C29.2489 20.5094 30.5848 19.8205 31.9806 19.2739C32.3332 19.147 32.6841 19.0151 33.0376 18.8925C33.3961 18.7834 33.7513 18.6642 34.1116 18.5627C34.4718 18.4612 34.8371 18.3775 35.2016 18.2913C35.566 18.205 35.9356 18.1424 36.3009 18.0773C37.7741 17.8249 39.2719 17.7472 40.7633 17.8456Z" fill="#592D3D"/>
<path d="M43.7302 31.8548C42.8567 33.4877 39.6576 34.3976 39.398 33.9849C39.1063 33.5283 41.9671 30.2286 40.3418 26.7784" fill="#592D3D"/>
<path d="M18.6074 36.5497C18.6074 36.5497 34.2998 37.2498 40.582 30.4611C40.1592 32.1118 39.2501 33.3439 39.4159 33.6035C39.6603 33.9866 42.6293 33.1452 43.4884 31.6289C47.3411 33.2356 54.6068 35.1239 60.9211 30.2683" stroke="#592D3D" stroke-width="1.57179" stroke-miterlimit="10"/>
<path d="M34.4331 40.5069L33.3337 40.1357L30.6954 39.2444L27.5158 38.1696L24.7683 37.2394C24.3227 37.0889 23.8796 36.9282 23.4314 36.7878L23.4128 36.7811C23.1965 36.7214 22.9653 36.7501 22.7702 36.8609C22.575 36.9717 22.4319 37.1554 22.3722 37.3717C22.3126 37.588 22.3413 37.8192 22.4521 38.0143C22.5629 38.2095 22.7466 38.3526 22.9629 38.4123L24.0622 38.7835L26.7006 39.6748L29.8802 40.7488L32.6276 41.679C33.0724 41.8295 33.5156 41.9893 33.9646 42.1305L33.9832 42.1373C34.0903 42.1668 34.2022 42.175 34.3124 42.1613C34.4227 42.1476 34.5292 42.1123 34.6258 42.0575C34.7224 42.0026 34.8073 41.9293 34.8756 41.8416C34.9439 41.754 34.9942 41.6537 35.0237 41.5466C35.0533 41.4395 35.0614 41.3276 35.0477 41.2174C35.034 41.1071 34.9988 41.0006 34.9439 40.904C34.8891 40.8074 34.8157 40.7225 34.7281 40.6542C34.6404 40.586 34.5402 40.5356 34.4331 40.5061V40.5069Z" fill="#592D3D"/>
<path d="M57.2559 36.5134L56.1803 36.9446L53.5977 37.9856L50.4849 39.2405L47.795 40.3272C47.3586 40.5031 46.9226 40.679 46.4868 40.8548L46.4682 40.8616C46.2559 40.9462 46.0826 41.0451 45.9608 41.2506C45.8475 41.4482 45.8171 41.6826 45.8762 41.9026C45.935 42.1159 46.0745 42.2978 46.2652 42.41C46.453 42.5097 46.71 42.5791 46.9164 42.4945L47.9929 42.0607L50.5754 41.0197L53.689 39.7631L56.379 38.679C56.8145 38.5031 57.2517 38.3281 57.6872 38.1514L57.7058 38.1437C57.918 38.0592 58.0914 37.9602 58.2132 37.7556C58.2693 37.6597 58.306 37.5536 58.3212 37.4435C58.3363 37.3334 58.3296 37.2214 58.3014 37.1138C58.2732 37.0063 58.2241 36.9054 58.1568 36.8169C58.0896 36.7284 58.0056 36.654 57.9096 36.5979C57.7218 36.499 57.4639 36.4288 57.2576 36.5134H57.2559Z" fill="#592D3D"/>
<path d="M39.0096 17.5097C41.4931 17.5097 43.5064 15.4964 43.5064 13.0129C43.5064 10.5293 41.4931 8.51599 39.0096 8.51599C36.526 8.51599 34.5127 10.5293 34.5127 13.0129C34.5127 15.4964 36.526 17.5097 39.0096 17.5097Z" fill="#062F96"/>
<path d="M39.0096 17.4365H39.0096C38.4286 17.4365 37.8533 17.322 37.3165 17.0997C36.7798 16.8773 36.2921 16.5514 35.8813 16.1405C35.4706 15.7297 35.1447 15.2419 34.9225 14.7051C34.7003 14.1683 34.5859 13.593 34.586 13.012V13.012C34.586 12.91 34.5908 12.809 34.598 12.7082C37.5001 11.9668 40.4771 11.7101 43.3483 12.1467C43.4741 12.7757 43.4615 13.4248 43.3113 14.0489C43.1572 14.6893 42.8619 15.2872 42.447 15.799C42.0322 16.3107 41.5083 16.7233 40.9136 17.0066C40.3188 17.2899 39.6683 17.4368 39.0096 17.4365Z" fill="#001C70" stroke="#001C70" stroke-width="0.1467"/>
<path d="M39.0096 17.5097C41.4931 17.5097 43.5064 15.4964 43.5064 13.0129C43.5064 10.5293 41.4931 8.51599 39.0096 8.51599C36.526 8.51599 34.5127 10.5293 34.5127 13.0129C34.5127 15.4964 36.526 17.5097 39.0096 17.5097Z" stroke="#592D3D" stroke-width="1.7604" stroke-miterlimit="10"/>
<path d="M15.2207 38.205C15.2196 36.372 15.4274 34.545 15.8401 32.7591C15.9216 32.4087 16.0103 32.0614 16.1063 31.7173C16.3809 28.6581 18.0005 26.135 20.1656 23.8819C20.6164 23.521 20.7064 22.7103 21.1572 22.2595C22.6896 20.9079 24.0411 19.5555 25.7535 18.471C32.7829 13.9647 42.0655 11.5316 49.5458 15.6771C51.0772 16.4878 52.7896 16.9386 54.0512 18.0202C56.4852 20.0925 58.1966 22.5265 60.6307 24.5088C62.793 26.3083 63.1538 29.1951 63.921 31.7135C64.0176 32.057 64.1063 32.4042 64.1871 32.7553C64.5998 34.5412 64.8076 36.3682 64.8065 38.2012L15.2207 38.205Z" fill="#062F96"/>
<path d="M15.9116 32.7752L15.9116 32.7753L15.9122 32.7723C17.3198 25.2729 23.5526 19.4327 30.4899 16.6545C25.7862 20.4327 23.8629 23.8932 23.1434 27.3432C22.7745 29.1123 22.7228 30.8754 22.772 32.6718C22.7946 33.4936 22.8383 34.3232 22.8825 35.1635C22.8867 35.2414 22.8908 35.3194 22.8949 35.3975C22.9419 36.2942 22.9875 37.2036 23.0069 38.1312H15.2941C15.2985 36.3285 15.5056 34.5319 15.9116 32.7752Z" fill="#001C70" stroke="#001C70" stroke-width="0.1467"/>
<path d="M16.1769 31.7374L16.1781 31.7377L16.1793 31.7244C16.2782 30.6482 16.546 29.5944 16.9729 28.6017C32.1675 22.9287 47.6329 22.8084 62.9282 28.4592C63.0986 28.9938 63.2466 29.5401 63.3921 30.0859C63.4061 30.1384 63.4201 30.191 63.434 30.2435C63.5681 30.7472 63.7018 31.2495 63.8505 31.7382C63.9461 32.081 64.0345 32.427 64.1157 32.7761C64.5216 34.5327 64.7287 36.3293 64.7331 38.132H46.2546C42.2306 37.8209 38.1887 37.8209 34.1648 38.132H15.2941C15.2985 36.3292 15.5056 34.5326 15.9116 32.776C15.9928 32.426 16.0812 32.0798 16.1769 31.7374Z" fill="#001C70" stroke="#001C70" stroke-width="0.1467"/>
<path d="M15.2207 38.205C15.2196 36.372 15.4274 34.545 15.8401 32.7591C15.9216 32.4087 16.0103 32.0614 16.1063 31.7173C16.3809 28.6581 18.0005 26.135 20.1656 23.8819C20.6164 23.521 20.7064 22.7103 21.1572 22.2595C22.6896 20.9079 24.0411 19.5555 25.7535 18.471C32.7829 13.9647 42.0655 11.5316 49.5458 15.6771C51.0772 16.4878 52.7896 16.9386 54.0512 18.0202C56.4852 20.0925 58.1966 22.5265 60.6307 24.5088C62.793 26.3083 63.1538 29.1951 63.921 31.7135C64.0176 32.057 64.1063 32.4042 64.1871 32.7553C64.5998 34.5412 64.8076 36.3682 64.8065 38.2012L15.2207 38.205Z" stroke="#592D3D" stroke-width="1.7604" stroke-miterlimit="10"/>
<path d="M13.8081 31.8881C31.1799 24.5007 48.959 24.4003 66.4616 31.8881C68.1219 32.5984 68.1124 45.1353 66.4616 44.5613C49.3691 38.6107 31.2926 38.5472 13.8081 44.5613C11.7282 45.2764 11.9309 32.6865 13.8081 31.8881Z" fill="#062F96"/>
<path d="M63.6231 40.1545C63.7016 40.4612 63.7445 40.7758 63.751 41.0922C63.7595 41.4019 63.7406 41.7097 63.7264 42.0185L63.6923 42.4797C63.6771 42.6331 63.662 42.7866 63.643 42.939C63.6051 43.245 63.5587 43.549 63.4924 43.8492L62.7471 43.7157C62.7887 43.4154 62.8418 43.118 62.9024 42.8206L62.9971 42.3746L63.0918 41.9294C63.1619 41.633 63.2216 41.3356 63.3021 41.0391C63.3817 40.735 63.4891 40.4389 63.6231 40.1545Z" fill="#592D3D"/>
<path d="M63.4897 30.5657C63.6374 31.1587 63.7522 31.7595 63.8335 32.3652C63.8743 32.6673 63.9074 32.9704 63.9368 33.2735C63.9661 33.5765 63.9832 33.8815 63.9993 34.1855C64.0239 34.7936 64.0343 35.4016 64.005 36.0087C63.9787 36.6175 63.9011 37.2229 63.7729 37.8186C63.6782 37.2134 63.6148 36.6158 63.5532 36.0191C63.4916 35.4224 63.4386 34.8305 63.3591 34.2404C63.3221 33.945 63.2804 33.6514 63.2359 33.3577C63.1914 33.0641 63.1412 32.7715 63.092 32.4798C62.9906 31.8954 62.8741 31.3158 62.752 30.7362L63.4897 30.5657Z" fill="#592D3D"/>
<path d="M55.8057 28.6268C56.5217 32.6871 56.4412 37.1025 55.8057 41.7661" stroke="#592D3D" stroke-width="1.1736" stroke-miterlimit="10"/>
<path d="M49.1201 27.2639C49.6079 31.327 49.5529 35.7453 49.1201 40.4126" stroke="#592D3D" stroke-width="1.1736" stroke-miterlimit="10"/>
<path d="M43.0273 31.8917C43.1415 32.5395 43.2164 33.1936 43.2518 33.8503C43.2897 34.5038 43.3011 35.1573 43.3134 35.8118V36.793C43.3134 37.1198 43.3134 37.4465 43.302 37.7733C43.2878 38.4268 43.2641 39.0803 43.2196 39.7328L42.4619 39.6949C42.4828 39.0443 42.5159 38.3946 42.5509 37.7448L42.6655 35.7966C42.7091 35.1469 42.7432 34.4963 42.7934 33.8456C42.8436 33.1949 42.9175 32.5443 43.0273 31.8917Z" fill="#592D3D"/>
<path d="M43.2237 26.5322C43.2434 26.7321 43.2523 26.9328 43.2502 27.1336C43.2502 27.234 43.2455 27.3344 43.2427 27.4348L43.2303 27.7369C43.2142 27.9377 43.2 28.1395 43.1659 28.3412C43.1312 28.5523 43.0648 28.757 42.9689 28.9483C42.8555 28.7658 42.7694 28.5676 42.7132 28.3601C42.6592 28.1631 42.6251 27.9661 42.5892 27.7682L42.5427 27.4727C42.5304 27.3733 42.5162 27.2748 42.5058 27.1763C42.4834 26.9785 42.4723 26.7796 42.4727 26.5805L43.2237 26.5322Z" fill="#592D3D"/>
<path d="M36.7666 26.5106C36.7998 30.5832 36.796 35.0033 36.7666 39.6754" stroke="#592D3D" stroke-width="1.1736" stroke-miterlimit="10"/>
<path d="M30.6695 27.1284C30.4744 31.201 30.4962 35.6268 30.6695 40.3036" stroke="#592D3D" stroke-width="1.1736" stroke-miterlimit="10"/>
<path d="M24.0397 35.2236C24.1531 35.7485 24.2388 36.279 24.2964 36.8129C24.356 37.3423 24.3996 37.8708 24.4526 38.3993L24.5956 39.9838C24.6402 40.5113 24.6837 41.0398 24.714 41.5693L23.9563 41.6299C23.9014 41.0985 23.8683 40.5653 23.8446 40.0321C23.8323 39.765 23.8256 39.4979 23.8181 39.2308L23.8086 38.4296C23.8086 37.8954 23.8133 37.3603 23.8417 36.8261C23.8688 36.2879 23.935 35.7523 24.0397 35.2236Z" fill="#592D3D"/>
<path d="M24.7121 28.4546C24.6885 28.8003 24.6515 29.1441 24.6127 29.4879L24.5502 30.0041L24.482 30.5202C24.4308 30.865 24.392 31.2097 24.3304 31.5554C24.2711 31.907 24.1824 32.2529 24.0653 32.5897C23.9665 32.2453 23.903 31.8918 23.8758 31.5346C23.8474 31.1823 23.8455 30.8318 23.8398 30.4795V29.9529C23.8455 29.7767 23.8503 29.6015 23.8588 29.4263C23.8777 29.0749 23.9052 28.7245 23.9535 28.376L24.7121 28.4546Z" fill="#592D3D"/>
<path d="M17.5502 30.3739C16.9005 34.4465 16.9734 38.8837 17.5502 43.5671" stroke="#592D3D" stroke-width="1.1736" stroke-miterlimit="10"/>
<path d="M63.7874 39.2866C63.8574 39.2866 63.9258 39.2659 63.984 39.227C64.0422 39.1881 64.0875 39.1329 64.1143 39.0682C64.1411 39.0036 64.1481 38.9324 64.1345 38.8638C64.1208 38.7951 64.0871 38.7321 64.0376 38.6826C63.9881 38.6331 63.9251 38.5994 63.8564 38.5858C63.7878 38.5721 63.7167 38.5791 63.652 38.6059C63.5874 38.6327 63.5321 38.678 63.4932 38.7362C63.4543 38.7944 63.4336 38.8628 63.4336 38.9328C63.4348 39.0263 63.4725 39.1156 63.5386 39.1816C63.6047 39.2477 63.694 39.2854 63.7874 39.2866Z" fill="#592D3D"/>
<path d="M64.2832 30.463C65.2303 34.5204 65.1214 38.933 64.2832 43.5937V30.463Z" fill="#001C70"/>
<path d="M64.2832 30.463C65.2303 34.5204 65.1214 38.933 64.2832 43.5937" stroke="#001C70" stroke-width="1.1736" stroke-miterlimit="10"/>
<path d="M56.9639 28.4373C57.6799 32.4975 57.5994 36.9129 56.9639 41.5774V28.4373Z" fill="#001C70"/>
<path d="M56.9639 28.4373C57.6799 32.4975 57.5994 36.9129 56.9639 41.5774" stroke="#001C70" stroke-width="1.1736" stroke-miterlimit="10"/>
<path d="M50.2734 27.0596C50.7612 31.1227 50.7063 35.5409 50.2734 40.2083V27.0596Z" fill="#001C70"/>
<path d="M50.2734 27.0596C50.7612 31.1227 50.7063 35.5409 50.2734 40.2083" stroke="#001C70" stroke-width="1.1736" stroke-miterlimit="10"/>
<path d="M43.9932 26.3369C44.2527 30.4019 44.2243 34.8239 43.9932 39.4941V26.3369Z" fill="#001C70"/>
<path d="M43.9932 26.3369C44.2527 30.4019 44.2243 34.8239 43.9932 39.4941" stroke="#001C70" stroke-width="1.1736" stroke-miterlimit="10"/>
<path d="M37.9072 26.274C37.9394 30.3419 37.9366 34.7668 37.9072 39.4388V26.274Z" fill="#001C70"/>
<path d="M37.9072 26.274C37.9394 30.3419 37.9366 34.7668 37.9072 39.4388" stroke="#001C70" stroke-width="1.1736" stroke-miterlimit="10"/>
<path d="M31.8014 26.8777C31.6063 30.9502 31.628 35.3761 31.8014 40.0529V26.8777Z" fill="#001C70"/>
<path d="M31.8014 26.8777C31.6063 30.9502 31.628 35.3761 31.8014 40.0529" stroke="#001C70" stroke-width="1.1736" stroke-miterlimit="10"/>
<path d="M25.4628 28.1531C25.0404 32.2256 25.084 36.6572 25.4628 41.3378V28.1531Z" fill="#001C70"/>
<path d="M25.4628 28.1531C25.0404 32.2256 25.084 36.6572 25.4628 41.3378" stroke="#001C70" stroke-width="1.1736" stroke-miterlimit="10"/>
<path d="M18.6752 30.1077C18.0255 34.1802 18.0984 38.6174 18.6752 43.3009V30.1077Z" fill="#001C70"/>
<path d="M18.6752 30.1077C18.0255 34.1802 18.0984 38.6174 18.6752 43.3009" stroke="#001C70" stroke-width="1.1736" stroke-miterlimit="10"/>
<path d="M13.8081 31.8881C31.1799 24.5007 48.959 24.4003 66.4616 31.8881C68.1219 32.5984 68.1124 45.1353 66.4616 44.5613C49.3691 38.6107 31.2926 38.5472 13.8081 44.5613C11.7282 45.2764 11.9309 32.6865 13.8081 31.8881Z" stroke="#592D3D" stroke-width="1.7604" stroke-miterlimit="10"/>
<path d="M32.8838 25.0011C34.0909 24.7483 35.312 24.5674 36.5406 24.4594C36.8484 24.4329 37.1552 24.4063 37.4631 24.3855L38.3865 24.3325C38.6952 24.3192 39.0031 24.3135 39.3118 24.3041L40.2371 24.2917C41.4684 24.2917 42.7043 24.3514 43.9309 24.466C45.1594 24.5756 46.3802 24.759 47.5867 25.0153C46.3554 24.9879 45.1242 24.9405 43.9043 24.9083C42.6845 24.8761 41.457 24.8619 40.2343 24.8591H39.3175C39.0116 24.8591 38.7057 24.8704 38.3997 24.8695L37.4829 24.8827C37.177 24.8932 36.8711 24.8979 36.5642 24.9017C35.3425 24.9329 34.1169 24.9765 32.8838 25.0011Z" fill="#592D3D"/>
<path d="M25.3584 20.2763C26.0282 19.7407 26.7367 19.2554 27.478 18.8244C28.2149 18.3868 28.9754 17.9871 29.7511 17.6253C29.9405 17.5306 30.1422 17.4492 30.3383 17.362C30.5343 17.2749 30.7294 17.1859 30.9293 17.1092C31.329 16.9529 31.7249 16.789 32.1321 16.6545C32.9392 16.3665 33.7635 16.1293 34.6003 15.9442C34.4042 16.0304 34.2063 16.1128 34.0083 16.1933C33.8104 16.2738 33.6115 16.3486 33.4164 16.4358C33.0233 16.6006 32.6293 16.7597 32.2391 16.9302L31.9465 17.0561C31.8518 17.0968 31.7495 17.1366 31.6529 17.1811L31.0704 17.4397C30.8753 17.523 30.683 17.613 30.4889 17.7002C30.2947 17.7873 30.1015 17.8744 29.9111 17.9682L29.3334 18.2362C29.144 18.3309 28.9546 18.4256 28.7604 18.5203C28.3816 18.7041 28.0027 18.8992 27.6191 19.0886C26.8624 19.4693 26.1085 19.8643 25.3584 20.2763Z" fill="white"/>
</g>
<defs>
<clipPath id="clip0">
<rect y="0.301025" width="80" height="80" rx="40" fill="white"/>
</clipPath>
</defs>
</svg>
