<svg width="81" height="80" viewBox="0 0 81 80" fill="none" xmlns="http://www.w3.org/2000/svg">
<g clip-path="url(#clip0)">
<path d="M66.8009 34.5338C66.8055 33.6463 66.5463 32.7774 66.056 32.0376C65.5658 31.2978 64.8667 30.7205 64.0476 30.3789C64.6598 29.966 65.1608 29.4087 65.5063 28.7561C65.8518 28.1035 66.0311 27.3758 66.0284 26.6375C66.0284 24.5071 64.5708 22.725 62.6168 22.2739C62.9954 21.5963 63.1938 20.833 63.193 20.0568C63.193 17.5874 61.2314 15.5851 58.811 15.5851C58.1684 15.5846 57.5339 15.7285 56.9545 16.0063C56.9891 15.7798 57.0063 15.5511 57.0059 15.322C57.0059 12.851 55.0443 10.8472 52.6239 10.8472C51.9807 10.8481 51.3457 10.9921 50.765 11.2689C50.1843 11.5457 49.6726 11.9483 49.2669 12.4475C49.1434 10.0892 47.2316 8.21509 44.8941 8.21509C44.1062 8.21768 43.3337 8.4335 42.6585 8.83963C41.9833 9.24577 41.4306 9.82708 41.0591 10.5219C40.6873 9.82713 40.1345 9.24588 39.4592 8.83976C38.7839 8.43364 38.0113 8.21779 37.2234 8.21509C34.8835 8.21509 32.9718 10.0892 32.8506 12.4475C32.4446 11.9484 31.9327 11.5458 31.352 11.269C30.7712 10.9923 30.1361 10.8482 29.4928 10.8472C27.0739 10.8472 25.1116 12.8502 25.1116 15.322C25.1113 15.551 25.1282 15.7798 25.1622 16.0063C24.5836 15.7286 23.9498 15.5846 23.308 15.5851C20.8884 15.5851 18.926 17.5889 18.926 20.0599C18.9248 20.8361 19.1232 21.5996 19.5022 22.277C17.5498 22.7281 16.0914 24.5102 16.0914 26.6405C16.0892 27.3789 16.2691 28.1065 16.6152 28.7588C16.9612 29.4111 17.4627 29.9681 18.0752 30.3804C17.2664 30.723 16.575 31.2942 16.0861 32.024C15.5971 32.7538 15.3317 33.6105 15.3225 34.4889C15.3133 35.3673 15.5607 36.2293 16.0342 36.9692C16.5078 37.7091 17.187 38.2946 17.9886 38.6541C17.2628 39.4814 16.8645 40.5455 16.8685 41.646C16.8685 43.8332 18.4067 45.6544 20.4388 46.0441C19.5559 46.835 62.2762 46.8826 61.4185 46.0863C63.5819 45.8124 65.2543 43.9298 65.2543 41.6468C65.2577 40.5462 64.8592 39.4823 64.1335 38.6549C64.9309 38.3021 65.6081 37.7242 66.0819 36.9922C66.5557 36.2601 66.8056 35.4057 66.8009 34.5338ZM23.6609 45.6222C23.5895 45.5823 23.5159 45.5454 23.4422 45.514C23.5167 45.4703 23.6609 45.6222 23.6609 45.6222Z" fill="#A56941"/>
<path d="M38.9418 45.0002C38.3863 45.5074 37.6963 45.8438 36.9546 45.9689C36.2129 46.0941 35.4508 46.0028 34.7596 45.7059C34.0684 45.4091 33.4774 44.9193 33.0575 44.2952C32.6376 43.6711 32.4064 42.9391 32.3918 42.187C31.6906 42.4116 30.9403 42.4342 30.2269 42.2522C29.5134 42.0701 28.8657 41.6908 28.3578 41.1577C27.8499 40.6246 27.5024 39.9593 27.3551 39.2378C27.2079 38.5164 27.2667 37.7681 27.525 37.0786C26.7705 37.028 26.0466 36.7606 25.4403 36.3084C24.8341 35.8563 24.3714 35.2387 24.1077 34.5299C23.8441 33.8211 23.7907 33.0512 23.9541 32.3128C24.1175 31.5744 24.4906 30.8989 25.0287 30.3675C24.3323 30.0659 23.7379 29.5694 23.3171 28.9379C22.8963 28.3063 22.6669 27.5666 22.6567 26.8078C22.6465 26.0489 22.8558 25.3033 23.2595 24.6606C23.6632 24.018 24.244 23.5057 24.932 23.1855C24.4553 22.6087 24.1524 21.9082 24.0588 21.1657C23.9652 20.4233 24.0847 19.6695 24.4034 18.9924C24.7221 18.3153 25.2268 17.7429 25.8586 17.3418C26.4903 16.9408 27.2232 16.7278 27.9715 16.7276H27.9838C27.8403 16.1454 27.831 15.5383 27.9566 14.9521C28.0823 14.3658 28.3396 13.8158 28.7091 13.3436C29.0786 12.8715 29.5507 12.4895 30.0895 12.2266C30.6284 11.9638 31.22 11.8268 31.8195 11.8262C31.9646 11.8264 32.1095 11.8344 32.2537 11.85C31.4794 11.2018 30.5019 10.8464 29.492 10.8458C27.0724 10.8458 25.1108 12.8489 25.1108 15.3206C25.1105 15.5497 25.1274 15.7784 25.1614 16.0049C24.5829 15.7278 23.9495 15.5844 23.308 15.5853C20.8884 15.5853 18.926 17.5891 18.926 20.0601C18.9248 20.8363 19.1232 21.5998 19.5022 22.2771C17.5498 22.7282 16.0914 24.5103 16.0914 26.6407C16.0892 27.3791 16.2691 28.1067 16.6152 28.759C16.9612 29.4113 17.4627 29.9682 18.0752 30.3806C17.2664 30.7232 16.575 31.2944 16.0861 32.0242C15.5971 32.754 15.3317 33.6106 15.3225 34.489C15.3133 35.3675 15.5607 36.2295 16.0342 36.9693C16.5078 37.7092 17.187 38.2948 17.9886 38.6543C17.2628 39.4816 16.8645 40.5457 16.8685 41.6462C16.8685 43.8333 18.4067 45.6546 20.4388 46.0443C20.0085 46.4278 29.9369 46.6388 40.1286 46.658C39.5938 46.2196 39.1844 45.6477 38.9418 45.0002Z" fill="#8D5638"/>
<path d="M59.7475 35.8381L57.0625 41.8342L60.0904 46.3305C61.0294 46.2607 61.5181 46.177 61.4184 46.0873C63.5818 45.8134 65.2541 43.9308 65.2541 41.6478C65.2536 41.3985 65.2331 41.1496 65.1928 40.9036C63.6585 36.2516 59.7475 35.8381 59.7475 35.8381Z" fill="#8D5638"/>
<path d="M66.8009 34.5338C66.8055 33.6463 66.5463 32.7774 66.056 32.0376C65.5658 31.2978 64.8667 30.7205 64.0476 30.3789C64.6598 29.966 65.1608 29.4087 65.5063 28.7561C65.8518 28.1035 66.0311 27.3758 66.0284 26.6375C66.0284 24.5071 64.5708 22.725 62.6168 22.2739C62.9954 21.5963 63.1938 20.833 63.193 20.0568C63.193 17.5874 61.2314 15.5851 58.811 15.5851C58.1684 15.5846 57.5339 15.7285 56.9545 16.0063C56.9891 15.7798 57.0063 15.5511 57.0059 15.322C57.0059 12.851 55.0443 10.8472 52.6239 10.8472C51.9807 10.8481 51.3457 10.9921 50.765 11.2689C50.1843 11.5457 49.6726 11.9483 49.2669 12.4475C49.1434 10.0892 47.2316 8.21509 44.8941 8.21509C44.1062 8.21768 43.3337 8.4335 42.6585 8.83963C41.9833 9.24577 41.4306 9.82708 41.0591 10.5219C40.6873 9.82713 40.1345 9.24588 39.4592 8.83976C38.7839 8.43364 38.0113 8.21779 37.2233 8.21509C34.8835 8.21509 32.9718 10.0892 32.8506 12.4475C32.4446 11.9484 31.9327 11.5458 31.352 11.269C30.7712 10.9923 30.1361 10.8482 29.4928 10.8472C27.0739 10.8472 25.1116 12.8502 25.1116 15.322C25.1113 15.551 25.1282 15.7798 25.1622 16.0063C24.5836 15.7286 23.9498 15.5846 23.308 15.5851C20.8884 15.5851 18.926 17.5889 18.926 20.0599C18.9248 20.8361 19.1232 21.5996 19.5022 22.277C17.5498 22.7281 16.0914 24.5102 16.0914 26.6405C16.0892 27.3789 16.2691 28.1065 16.6152 28.7588C16.9612 29.4111 17.4627 29.9681 18.0752 30.3804C17.2664 30.723 16.575 31.2942 16.0861 32.024C15.5971 32.7538 15.3317 33.6105 15.3225 34.4889C15.3133 35.3673 15.5607 36.2293 16.0342 36.9692C16.5078 37.7091 17.187 38.2946 17.9886 38.6541C17.2628 39.4814 16.8645 40.5455 16.8685 41.646C16.8685 43.8332 18.4067 45.6544 20.4388 46.0441C19.5559 46.835 62.2762 46.8826 61.4185 46.0863C63.5819 45.8124 65.2543 43.9298 65.2543 41.6468C65.2577 40.5462 64.8592 39.4823 64.1335 38.6549C64.9309 38.3021 65.6081 37.7242 66.0819 36.9922C66.5557 36.2601 66.8056 35.4057 66.8009 34.5338V34.5338Z" stroke="#592D3D" stroke-width="1.57179" stroke-miterlimit="10"/>
<path d="M49.6826 64.4318C56.6453 64.4318 55.2061 73.1957 55.2729 82.9416H49.6826V64.4318Z" fill="#FDD2B2"/>
<path d="M51.4271 70.0427L49.6826 72.9678L50.5556 82.9408H52.9921C53.0512 69.1113 51.4271 70.0427 51.4271 70.0427Z" fill="#F3AB98"/>
<path d="M20.7793 44.5839C20.7793 33.2822 29.9414 24.1201 41.2431 24.1201C52.5448 24.1201 61.7068 33.2822 61.7068 44.5839C61.7098 47.629 61.0317 50.6363 59.7222 53.3855C58.4128 56.1348 56.5051 58.5564 54.1389 60.4731C53.719 60.8148 53.2858 61.1393 52.8393 61.4466C48.2242 64.3764 42.3938 64.3764 37.1304 63.9077C36.6195 63.831 36.1101 63.7343 35.6045 63.6231C33.5846 63.1781 31.6291 62.4915 29.8225 61.4904C29.376 61.2152 28.9431 60.9181 28.5237 60.5989C28.1022 60.278 27.6976 59.9354 27.3116 59.5725C26.9464 59.2334 26.5938 58.881 26.2537 58.5154C22.7292 54.7332 20.7725 49.7537 20.7793 44.5839Z" fill="#FDD2B2"/>
<path d="M23.5698 54.9007C23.6235 54.9928 23.6764 55.0849 23.7316 55.1754C23.7646 55.2306 23.7992 55.2843 23.8337 55.3395C23.8843 55.4216 23.9349 55.5037 23.9871 55.5843C24.0239 55.6426 24.0638 55.6993 24.0991 55.7561C24.1497 55.8328 24.2004 55.9095 24.2525 55.9863C24.2917 56.0446 24.3293 56.1029 24.3722 56.1612C24.4228 56.2379 24.4735 56.3085 24.5256 56.3821C24.5671 56.4412 24.61 56.4995 24.6522 56.5586C24.6944 56.6176 24.755 56.7005 24.8057 56.7711C24.8563 56.8416 24.8939 56.8884 24.9384 56.9467C24.9829 57.005 25.0435 57.0848 25.0972 57.1539C25.1509 57.2229 25.1885 57.2697 25.2345 57.3272C25.2805 57.3848 25.3427 57.4623 25.3971 57.529C25.4516 57.5957 25.4915 57.6433 25.5391 57.7001C25.5866 57.7568 25.6495 57.832 25.7055 57.8972C25.7615 57.9624 25.803 58.01 25.8521 58.066L26.0224 58.2578C26.0722 58.3138 26.1229 58.3683 26.1758 58.4235C26.2418 58.4956 26.3085 58.567 26.3752 58.6375L26.4681 58.7357C26.567 58.8385 26.6668 58.9413 26.768 59.0426L26.788 59.0633C26.8869 59.1615 26.9874 59.2589 27.0879 59.3556L27.2091 59.4707C27.282 59.5389 27.3549 59.6072 27.4285 59.6747L27.5175 59.756C27.5943 59.8282 27.6779 59.8987 27.7584 59.9693C28.009 60.1877 28.2647 60.3971 28.5256 60.5976C28.9444 60.9167 29.3774 61.2139 29.8244 61.489C31.631 62.4863 33.5834 63.1768 35.6064 63.6217C36.1119 63.7329 36.6213 63.8288 37.1322 63.9063C40.362 64.194 43.8065 64.3037 47.05 63.67C41.8924 62.1519 17.1242 53.233 32.7135 25.9791C32.5048 26.075 32.2992 26.174 32.0951 26.2768L32.0499 26.299C31.9563 26.3458 31.8627 26.3942 31.7699 26.4433L31.6931 26.4839C31.4047 26.6373 31.1193 26.7961 30.8393 26.9618L30.7703 27.0025C30.6813 27.0554 30.593 27.1091 30.5048 27.1636L30.4381 27.205C30.164 27.3764 29.8942 27.5536 29.6287 27.7367L29.5459 27.7942C29.4623 27.8525 29.3802 27.9108 29.2981 27.9699L29.2475 28.0059C29.0802 28.1282 28.915 28.2519 28.7519 28.3772L28.7043 28.4141C28.6276 28.4739 28.5509 28.5353 28.4742 28.5974L28.3844 28.6695C28.3077 28.7317 28.231 28.7938 28.1543 28.8575C27.9924 28.9917 27.8328 29.1298 27.6756 29.2694L27.5881 29.3462L27.3818 29.5341L27.282 29.6246C27.0631 29.8292 26.8491 30.0381 26.6399 30.2514L26.534 30.3596C26.4734 30.4225 26.4128 30.4854 26.353 30.549C26.3177 30.5866 26.2824 30.6258 26.2479 30.6626C26.1425 30.7751 26.0387 30.8891 25.9364 31.0047C25.9019 31.0439 25.8666 31.0814 25.8321 31.1229C25.7776 31.185 25.7239 31.2479 25.6702 31.3108L25.5544 31.4481C25.5022 31.5103 25.4501 31.5724 25.401 31.6353C25.3595 31.686 25.3181 31.7374 25.2775 31.7888C25.1954 31.8908 25.1148 31.9928 25.035 32.0956C24.9936 32.1493 24.9522 32.203 24.9115 32.2575C24.8709 32.312 24.8195 32.3795 24.7742 32.4416C24.7289 32.5037 24.6921 32.5528 24.6522 32.6088C24.6123 32.6648 24.5655 32.7278 24.5233 32.7876C24.4507 32.8899 24.3791 32.9934 24.3085 33.0983C24.2702 33.1543 24.2318 33.2118 24.1942 33.2686C24.1566 33.3254 24.1099 33.3959 24.0684 33.4604L23.9541 33.6376L23.8252 33.8455C23.7923 33.8984 23.7593 33.9514 23.727 34.0043C23.6588 34.1163 23.5928 34.2291 23.5268 34.3418L23.4332 34.5075C23.3918 34.5804 23.3504 34.6541 23.3097 34.7277C23.279 34.7837 23.2483 34.8397 23.2184 34.8957C23.1693 34.987 23.121 35.0791 23.0727 35.1711L22.9806 35.3506C22.9315 35.4488 22.8824 35.5463 22.8341 35.6452C22.8088 35.6982 22.7827 35.7519 22.7574 35.8056C22.7175 35.8892 22.6806 35.9736 22.64 36.058C22.6162 36.1086 22.5932 36.1592 22.5702 36.2114C22.5134 36.3377 22.4579 36.4656 22.4037 36.595C22.3868 36.6349 22.3707 36.6755 22.3538 36.7154C22.3132 36.8128 22.2733 36.9103 22.2342 37.0085C22.2135 37.0599 22.1935 37.1113 22.1736 37.1619C22.1352 37.2586 22.0968 37.356 22.0623 37.4534C22.0462 37.4956 22.0301 37.5378 22.0148 37.58C21.9667 37.7145 21.9194 37.849 21.8728 37.9835L21.8299 38.1139C21.7961 38.2162 21.7631 38.3185 21.7309 38.4208L21.6849 38.5673C21.6488 38.6855 21.6135 38.8036 21.5798 38.9225C21.5721 38.9478 21.5644 38.9731 21.5575 38.9992C21.5176 39.1404 21.4793 39.282 21.4425 39.4242C21.4302 39.4695 21.4195 39.5155 21.4079 39.5608C21.3811 39.6674 21.355 39.774 21.3312 39.8814L21.299 40.0157C21.266 40.1615 21.2338 40.3072 21.2039 40.4537L21.1924 40.5128C21.1663 40.6432 21.1407 40.7736 21.1157 40.9041C21.1072 40.9509 21.0995 40.9969 21.0911 41.0437C21.0712 41.158 21.052 41.2738 21.0343 41.3889C21.0282 41.428 21.0213 41.4656 21.0159 41.5055C20.9929 41.6551 20.9722 41.8055 20.9523 41.9566L20.9407 42.0563C20.9254 42.1783 20.9116 42.301 20.8986 42.4238C20.894 42.4698 20.8886 42.5158 20.884 42.5626C20.8717 42.6915 20.8602 42.8212 20.8495 42.9508C20.8495 42.9777 20.8449 43.0037 20.8433 43.0275C20.8321 43.181 20.8221 43.3357 20.8134 43.4917C20.8134 43.5323 20.8134 43.5737 20.808 43.6144C20.8029 43.7351 20.7983 43.8555 20.7942 43.9757C20.7942 44.021 20.7942 44.0663 20.7942 44.1115C20.7942 44.2688 20.7881 44.4268 20.7881 44.5849C20.7881 44.5849 20.7881 44.5902 20.7881 44.5925C20.7881 44.7628 20.7881 44.9316 20.7942 45.1004C20.7942 45.1587 20.7988 45.217 20.8004 45.2753C20.8042 45.3881 20.808 45.5008 20.8134 45.6136C20.8134 45.6819 20.8218 45.7494 20.8257 45.8177C20.8318 45.9197 20.8372 46.0217 20.8449 46.1245C20.8502 46.2012 20.8571 46.2695 20.8633 46.3416C20.8717 46.4383 20.8794 46.5349 20.8893 46.6308C20.8963 46.7076 20.9055 46.7797 20.9131 46.8541C20.9239 46.9469 20.9338 47.0405 20.9454 47.1333C20.9546 47.21 20.9653 47.2868 20.9753 47.3596C20.9875 47.4502 20.9998 47.5415 21.0136 47.632C21.0251 47.7087 21.0374 47.7854 21.0497 47.8621C21.0635 47.9511 21.0781 48.0409 21.0934 48.1299C21.1072 48.2066 21.121 48.2833 21.1356 48.36C21.1517 48.4482 21.1686 48.5364 21.1855 48.6239C21.2023 48.7114 21.2169 48.7773 21.233 48.854C21.2514 48.9415 21.2699 49.0282 21.2898 49.1149C21.3097 49.2016 21.3236 49.2683 21.342 49.3397C21.3619 49.4263 21.3834 49.5123 21.4049 49.5974C21.4264 49.6826 21.4425 49.747 21.4616 49.8207C21.4847 49.9066 21.5077 49.9917 21.5315 50.0769C21.5514 50.1536 21.5721 50.2242 21.5936 50.2971C21.6181 50.3822 21.6435 50.4666 21.6703 50.551C21.6972 50.6354 21.7148 50.696 21.7378 50.7689C21.7608 50.8417 21.7915 50.9369 21.8191 51.0205C21.8468 51.1041 21.8667 51.1639 21.8912 51.2353C21.9204 51.3189 21.9496 51.4025 21.9795 51.4861C22.0048 51.556 22.0293 51.6265 22.0562 51.6963L22.1513 51.9472C22.1782 52.0155 22.2042 52.0845 22.228 52.1528C22.2618 52.2364 22.2963 52.3208 22.3308 52.4044C22.3584 52.4704 22.3853 52.5371 22.4137 52.6031C22.4497 52.689 22.4904 52.7734 22.5249 52.8586C22.5533 52.9215 22.5809 52.9852 22.6093 53.0481C22.6492 53.1371 22.6914 53.2245 22.732 53.312L22.8149 53.4884C22.8617 53.5851 22.91 53.6802 22.9584 53.7761C22.9829 53.8244 23.0059 53.8735 23.0312 53.9218C23.1785 54.2088 23.332 54.4918 23.4915 54.7711C23.5138 54.8071 23.5422 54.8539 23.5698 54.9007Z" fill="#F3AB98"/>
<path d="M20.7793 44.5839C20.7793 33.2822 29.9414 24.1201 41.2431 24.1201C52.5448 24.1201 61.7068 33.2822 61.7068 44.5839C61.7098 47.629 61.0317 50.6363 59.7222 53.3855C58.4128 56.1348 56.5051 58.5564 54.1389 60.4731C53.719 60.8148 53.2858 61.1393 52.8393 61.4466C48.2242 64.3764 42.3938 64.3764 37.1304 63.9077C36.6195 63.831 36.1101 63.7343 35.6045 63.6231C33.5846 63.1781 31.6291 62.4915 29.8225 61.4904C29.376 61.2152 28.9431 60.9181 28.5237 60.5989C28.1022 60.278 27.6976 59.9354 27.3116 59.5725C26.9464 59.2334 26.5938 58.881 26.2537 58.5154C22.7292 54.7332 20.7725 49.7537 20.7793 44.5839V44.5839Z" stroke="#592D3D" stroke-width="1.57179" stroke-miterlimit="10"/>
<path d="M32.5079 64.4318C25.5445 64.4318 26.9844 73.1957 26.9177 82.9416H32.5079V64.4318Z" fill="#FDD2B2"/>
<path d="M31.059 70.0427L32.8058 72.9678L31.932 82.9408H29.4978C29.4357 69.1113 31.059 70.0427 31.059 70.0427Z" fill="#F3AB98"/>
<path d="M50.4089 88.3117H32.0786C31.8085 88.3115 31.5496 88.204 31.3587 88.013C31.1678 87.822 31.0605 87.5629 31.0605 87.2929V65.4505C31.0605 65.1805 31.1678 64.9215 31.3587 64.7304C31.5496 64.5394 31.8085 64.432 32.0786 64.4318H49.9708C50.975 64.4318 51.4284 65.0194 51.4284 65.9569V87.2898C51.4288 87.4239 51.4027 87.5568 51.3517 87.6808C51.3006 87.8048 51.2256 87.9175 51.1308 88.0124C51.0361 88.1074 50.9236 88.1827 50.7997 88.234C50.6758 88.2854 50.543 88.3118 50.4089 88.3117Z" fill="#FDD2B2"/>
<path d="M51.1438 65.0376C51.0673 64.9436 51.0027 64.8406 50.9512 64.7308C50.767 64.5864 50.5479 64.4935 50.316 64.4615C50.2018 64.4438 50.0864 64.4351 49.9708 64.4354H32.0786C31.8092 64.4356 31.5508 64.5425 31.36 64.7327C31.1692 64.9229 31.0616 65.181 31.0605 65.4504C33.2853 66.2497 37.4502 66.6962 41.2437 66.6962C46.0814 66.6962 49.2512 65.9789 51.1438 65.0376Z" fill="#F3AB98"/>
<path d="M49.6826 64.4318C56.6453 64.4318 55.2061 73.1957 55.2729 82.9416H51.4271" stroke="#592D3D" stroke-width="1.57179" stroke-miterlimit="10" stroke-linecap="square"/>
<path d="M32.5079 64.4318C25.5445 64.4318 26.9844 73.1957 26.9177 82.9416H30.7588" stroke="#592D3D" stroke-width="1.57179" stroke-miterlimit="10" stroke-linecap="square"/>
<path d="M32.0791 64.4394L49.9714 64.4318" stroke="#592D3D" stroke-width="1.57179" stroke-miterlimit="10"/>
<path d="M32.0786 88.3108H41.0251C32.6516 88.3108 33.2838 70.5758 31.0606 70.5758V87.289C31.0601 87.423 31.0862 87.5557 31.1371 87.6796C31.1881 87.8035 31.263 87.9161 31.3576 88.0111C31.4521 88.106 31.5645 88.1813 31.6882 88.2327C31.8119 88.2842 31.9446 88.3107 32.0786 88.3108Z" fill="#F3AB98"/>
<path d="M30.6003 72.2664C30.5857 71.9849 30.5918 71.7033 30.6041 71.4225C30.6164 71.1418 30.6402 70.8587 30.6701 70.5787C30.6854 70.4375 30.7008 70.2971 30.72 70.156C30.7391 70.0148 30.7576 69.8744 30.7852 69.7333C30.8396 69.4411 30.9322 69.1574 31.0606 68.8894C31.189 69.1574 31.2816 69.4411 31.336 69.7333C31.3636 69.8744 31.3835 70.0148 31.4012 70.156C31.4188 70.2971 31.4357 70.4375 31.4511 70.5787C31.4802 70.8602 31.5032 71.1418 31.5163 71.4225C31.5293 71.7033 31.5354 71.9856 31.5209 72.2664H30.6003Z" fill="#592D3D"/>
<path d="M51.4276 72.9688V73.5825C51.4475 76.1908 51.4475 78.8759 51.4276 81.465C51.4276 81.6852 51.4276 81.9038 51.4276 82.1194V87.2907C51.4279 87.4247 51.4018 87.5573 51.3508 87.6811C51.2998 87.805 51.2248 87.9175 51.1303 88.0123C51.0357 88.1072 50.9234 88.1824 50.7998 88.2338C50.6761 88.2852 50.5435 88.3117 50.4096 88.3118H32.0793C31.8092 88.3116 31.5503 88.2042 31.3594 88.0132C31.1685 87.8221 31.0613 87.5631 31.0613 87.293V82.8282C31.0613 82.6357 31.0613 82.4393 31.0613 82.2413C31.0421 79.5663 31.0421 76.8813 31.0613 74.1632V72.2668" stroke="#592D3D" stroke-width="1.57179" stroke-miterlimit="10"/>
<path d="M50.9662 72.9679C50.9516 72.648 50.9585 72.3273 50.9708 72.0066C50.9831 71.686 51.0069 71.3661 51.036 71.0454C51.0514 70.8851 51.0675 70.7247 51.0859 70.5644C51.1043 70.4041 51.1235 70.2445 51.1511 70.0842C51.2045 69.754 51.297 69.4313 51.4265 69.1229C51.556 69.4313 51.6485 69.754 51.7019 70.0842C51.7295 70.2445 51.7495 70.4048 51.7671 70.5644C51.7848 70.724 51.8016 70.8851 51.817 71.0454C51.8461 71.3661 51.8699 71.686 51.8822 72.0066C51.8945 72.3273 51.9014 72.648 51.8868 72.9679H50.9662Z" fill="#592D3D"/>
<path d="M46.667 70.8551C46.6839 70.1302 47.6045 69.8233 48.0647 70.2836C48.1396 70.36 48.1986 70.4503 48.2385 70.5495C48.2783 70.6487 48.2983 70.7547 48.2972 70.8616C48.2961 70.9685 48.274 71.0741 48.232 71.1725C48.1901 71.2708 48.1292 71.3599 48.0529 71.4347C47.9765 71.5095 47.8861 71.5685 47.787 71.6084C47.6878 71.6483 47.5817 71.6683 47.4748 71.6672C47.3679 71.6661 47.2623 71.6439 47.164 71.602C47.0657 71.5601 46.9765 71.4992 46.9017 71.4228C46.827 71.3484 46.7678 71.2599 46.7275 71.1625C46.6872 71.065 46.6667 70.9606 46.667 70.8551Z" fill="#592D3D"/>
<path d="M34.1946 70.8323C34.1785 70.2071 34.8689 69.9002 35.3292 70.1304C35.943 70.3605 35.943 71.2044 35.3292 71.5879C35.0224 71.7414 34.7155 71.5879 34.4278 71.3977C34.3536 71.3234 34.2949 71.2353 34.2548 71.1383C34.2148 71.0412 34.1943 70.9373 34.1946 70.8323Z" fill="#592D3D"/>
<path d="M41.2429 70.0356C41.2978 70.1802 41.3364 70.3305 41.358 70.4837C41.3808 70.632 41.3934 70.7817 41.3956 70.9317L41.4186 71.8285C41.4255 72.1269 41.4347 72.4261 41.4378 72.7253L41.4508 73.6205C41.4684 74.815 41.4677 76.011 41.4723 77.2062C41.4769 78.4014 41.4861 79.5966 41.4723 80.7919C41.4654 81.3895 41.4493 81.9871 41.4316 82.5847C41.4239 82.8831 41.4094 83.1823 41.3802 83.4807C41.3541 83.7823 41.3088 84.0818 41.2444 84.3775C41.1801 84.0818 41.1347 83.7823 41.1086 83.4807C41.0795 83.1823 41.0649 82.8831 41.0572 82.5847C41.0396 81.9871 41.0235 81.3895 41.0166 80.7919C41.0012 79.5966 41.0166 78.4014 41.0166 77.2062C41.0166 76.011 41.0166 74.8165 41.0304 73.6213L41.0434 72.7237L41.0688 71.8277L41.0941 70.9317C41.0969 70.7817 41.1097 70.632 41.1324 70.4837C41.1525 70.3307 41.1896 70.1804 41.2429 70.0356Z" fill="#F3AB98"/>
<path d="M35.5068 73.9652C35.6206 73.9111 35.7411 73.8724 35.8651 73.8501C35.9836 73.8279 36.1036 73.815 36.2241 73.8118L36.9414 73.7864L38.376 73.755C39.3319 73.7404 40.287 73.7366 41.2436 73.7343C42.2002 73.732 43.1561 73.722 44.112 73.7343C44.5899 73.7412 45.0678 73.7573 45.5465 73.7749C45.7851 73.7834 46.0245 73.7979 46.2631 73.8263C46.5053 73.8532 46.7452 73.8989 46.9804 73.9629C46.7453 74.0273 46.5054 74.0727 46.2631 74.0987C46.0245 74.1278 45.7851 74.1424 45.5465 74.1501C45.0678 74.1677 44.5899 74.1831 44.112 74.19C43.1561 74.2045 42.2002 74.19 41.2436 74.19C40.287 74.19 39.3311 74.19 38.3744 74.1785C37.8965 74.1739 37.4186 74.1585 36.9414 74.1401L36.2241 74.114C36.1039 74.1108 35.9841 74.0979 35.8659 74.0757C35.7418 74.0549 35.6211 74.0178 35.5068 73.9652Z" fill="#F3AB98"/>
<path d="M36.8262 76.373C36.9168 76.3297 37.0136 76.301 37.1131 76.2878C37.205 76.2748 37.2981 76.271 37.3908 76.2763C37.5741 76.284 37.7575 76.2886 37.9408 76.2924C38.3075 76.3009 38.6742 76.3039 39.0409 76.3055C39.7797 76.3055 40.5054 76.3116 41.2473 76.2893C41.9891 76.2671 42.7248 76.2564 43.4628 76.2594C43.8318 76.2594 44.2008 76.2694 44.569 76.2778C44.7544 76.2803 44.9395 76.2924 45.1237 76.3139C45.313 76.3348 45.4998 76.3741 45.6814 76.4313C45.504 76.5009 45.32 76.5524 45.1321 76.5847C44.9492 76.6176 44.7645 76.6397 44.579 76.6507C44.2092 76.6775 43.8395 76.7005 43.4705 76.7136C42.7309 76.7412 41.9922 76.7381 41.2549 76.7481C40.8859 76.7481 40.5177 76.765 40.1441 76.7558C39.7705 76.7466 39.4007 76.7458 39.0302 76.732C38.6597 76.7182 38.2876 76.6875 37.9178 76.6491C37.7322 76.6284 37.5481 76.6054 37.3632 76.5801C37.2698 76.5687 37.178 76.5471 37.0893 76.5157C36.9941 76.4834 36.9051 76.4352 36.8262 76.373Z" fill="#F3AB98"/>
<path d="M36.5586 79.0957C36.6496 79.0422 36.7485 79.0033 36.8516 78.9806C36.9478 78.9583 37.046 78.9457 37.1447 78.9431L37.73 78.9185C38.1205 78.9047 38.5118 78.8932 38.9022 78.8871C39.6832 78.8755 40.4642 78.8755 41.2436 78.8755C42.023 78.8755 42.8055 78.8625 43.5865 78.8755C43.9769 78.8825 44.3674 78.8986 44.7579 78.9162C44.9538 78.9228 45.1492 78.9397 45.3432 78.9668C45.5431 78.9943 45.7399 79.0408 45.9309 79.1057C45.7405 79.1694 45.5445 79.2149 45.3455 79.2415C45.1513 79.2693 44.9556 79.2864 44.7594 79.2929C44.369 79.3105 43.9785 79.3266 43.588 79.3335C42.807 79.3489 42.0253 79.3381 41.2444 79.3335C40.4634 79.3289 39.6824 79.3289 38.9015 79.3144C38.511 79.3067 38.1197 79.2929 37.7293 79.2768L37.1439 79.2484C37.0452 79.2454 36.947 79.2325 36.8509 79.21C36.748 79.1878 36.6493 79.1492 36.5586 79.0957Z" fill="#F3AB98"/>
<path d="M54.8839 75.7565C54.9 72.9096 54.7911 70.3811 54.2909 68.4387C53.5184 66.4932 52.1291 65.3333 49.6826 65.3333L51.431 75.653C51.431 75.653 53.1586 76.4385 54.8839 75.7565Z" fill="#F3AB98"/>
<path d="M55.544 74.947C55.4563 75.0194 55.361 75.082 55.2598 75.1337" stroke="#592D3D" stroke-width="1.57179" stroke-miterlimit="10" stroke-linecap="square"/>
<path d="M27.9039 68.3556C27.3799 70.3172 27.2902 72.8917 27.3101 75.7969C28.8368 76.4521 31.1781 75.632 31.1781 75.632L32.5076 65.4872C30.1394 65.4849 28.7278 66.5512 27.9039 68.3556Z" fill="#F3AB98"/>
<path d="M49.9708 64.4318H45.8121V64.4394C45.8122 64.7848 45.7752 65.1292 45.7016 65.4667C45.6659 65.6308 45.6213 65.7929 45.5682 65.9523C45.3984 66.4282 45.1379 66.8667 44.801 67.2434C44.6935 67.3641 44.5782 67.4776 44.4558 67.5832C42.5249 68.9794 39.4563 69.0562 37.5913 67.5387C37.3904 67.3632 37.2076 67.1679 37.0459 66.9557C36.71 66.5146 36.472 66.007 36.3478 65.4667C36.3114 65.2997 36.284 65.131 36.2657 64.9611C36.2465 64.7879 36.237 64.6137 36.2373 64.4394V64.4318H32.0786C31.8085 64.432 31.5496 64.5394 31.3587 64.7304C31.1678 64.9215 31.0606 65.1805 31.0606 65.4505V87.2898C31.0601 87.4238 31.0862 87.5565 31.1371 87.6804C31.1881 87.8044 31.263 87.917 31.3576 88.0119C31.4521 88.1068 31.5645 88.1822 31.6882 88.2336C31.8119 88.285 31.9446 88.3116 32.0786 88.3117H50.4089C50.6789 88.3115 50.9379 88.204 51.1288 88.013C51.3197 87.822 51.4269 87.5629 51.4269 87.2929V65.9569C51.4269 65.0194 50.975 64.4318 49.9708 64.4318Z" fill="#D67070"/>
<path d="M49.6826 64.4318C54.5571 64.4318 55.3135 68.7278 55.3519 74.6479C53.925 75.5394 51.5997 74.7484 51.5997 74.7484L49.6826 64.4318Z" fill="#D67070"/>
<path d="M51.4271 70.0427L49.6826 72.9678L50.5556 82.9408H51.4463V74.8358L52.7719 75.0575C52.337 69.521 51.4271 70.0427 51.4271 70.0427Z" fill="#C46565"/>
<path d="M32.5079 64.4318C27.7684 64.4318 26.6906 68.559 26.6123 74.2252C28.0699 75.7488 31.0618 74.5766 31.0618 74.5766L32.5079 64.4318Z" fill="#D67070"/>
<path d="M31.0584 70.0427V74.5788L29.7305 74.9095C30.1654 69.5302 31.0584 70.0427 31.0584 70.0427Z" fill="#C46565"/>
<path d="M49.6826 64.4318C54.854 64.4318 55.7009 68.7501 55.7354 74.6947C53.7255 75.6483 51.5997 74.7484 51.5997 74.7484" stroke="#592D3D" stroke-width="1.57179" stroke-miterlimit="10" stroke-linecap="square"/>
<path d="M32.508 64.4318C27.3842 64.4318 26.3647 68.6281 26.3125 74.46C27.8959 75.5938 31.0581 74.5796 31.0581 74.5796" stroke="#592D3D" stroke-width="1.57179" stroke-miterlimit="10" stroke-linecap="square"/>
<path d="M32.0786 88.3108H41.0251C32.6516 88.3108 33.2838 70.5758 31.0606 70.5758V87.289C31.0601 87.423 31.0862 87.5557 31.1371 87.6796C31.1881 87.8035 31.263 87.9161 31.3576 88.0111C31.4521 88.106 31.5645 88.1813 31.6882 88.2327C31.8119 88.2842 31.9446 88.3107 32.0786 88.3108Z" fill="#C46565"/>
<path d="M30.6003 72.2664C30.5857 71.9849 30.5918 71.7033 30.6041 71.4225C30.6164 71.1418 30.6402 70.8587 30.6701 70.5787C30.6854 70.4375 30.7008 70.2971 30.72 70.156C30.7391 70.0148 30.7576 69.8744 30.7852 69.7333C30.8396 69.4411 30.9322 69.1574 31.0606 68.8894C31.1891 69.1573 31.2814 69.4411 31.3352 69.7333C31.3636 69.8744 31.3835 70.0148 31.4012 70.156C31.4188 70.2971 31.4357 70.4375 31.4511 70.5787C31.4802 70.8602 31.5032 71.1418 31.5163 71.4225C31.5293 71.7033 31.5354 71.9856 31.5209 72.2664H30.6003Z" fill="#592D3D"/>
<path d="M51.4276 72.9688V73.5825C51.4475 76.1908 51.4475 78.8759 51.4276 81.465C51.4276 81.6852 51.4276 81.9038 51.4276 82.1194V87.2907C51.4279 87.4247 51.4018 87.5573 51.3508 87.6811C51.2998 87.805 51.2248 87.9175 51.1303 88.0123C51.0357 88.1072 50.9234 88.1824 50.7998 88.2338C50.6761 88.2852 50.5435 88.3117 50.4096 88.3118H32.0793C31.8092 88.3116 31.5503 88.2042 31.3594 88.0132C31.1685 87.8221 31.0613 87.5631 31.0613 87.293V82.8282C31.0613 82.6357 31.0613 82.4393 31.0613 82.2413C31.0421 79.5663 31.0421 76.8813 31.0613 74.1632V72.2668" stroke="#592D3D" stroke-width="1.57179" stroke-miterlimit="10"/>
<path d="M50.9662 72.9679C50.9516 72.648 50.9585 72.3273 50.9708 72.0066C50.9831 71.686 51.0069 71.3661 51.036 71.0454C51.0514 70.8851 51.0675 70.7247 51.0859 70.5644C51.1043 70.4041 51.1235 70.2445 51.1519 70.0842C51.2047 69.7539 51.2969 69.4312 51.4265 69.1229C51.556 69.4313 51.6485 69.754 51.7019 70.0842C51.7295 70.2445 51.7495 70.4048 51.7671 70.5644C51.7848 70.724 51.8016 70.8851 51.817 71.0454C51.8461 71.3661 51.8699 71.686 51.8822 72.0066C51.8945 72.3273 51.9014 72.648 51.8868 72.9679H50.9662Z" fill="#592D3D"/>
<path d="M32.0791 64.4394L49.9714 64.4318" stroke="#592D3D" stroke-width="1.57179" stroke-miterlimit="10"/>
<path d="M45.8112 64.4395C45.8113 64.7848 45.7742 65.1292 45.7007 65.4667C45.6649 65.6308 45.6204 65.7929 45.5672 65.9523C45.3975 66.4282 45.1369 66.8667 44.8 67.2434C44.6925 67.3641 44.5772 67.4776 44.4548 67.5832C42.5239 68.9795 39.4553 69.0562 37.5904 67.5387C37.3894 67.3632 37.2067 67.1679 37.0449 66.9557C36.709 66.5146 36.471 66.007 36.3468 65.4667C36.3104 65.2997 36.283 65.131 36.2647 64.9611C36.2455 64.7879 36.2361 64.6137 36.2363 64.4395" stroke="#592D3D" stroke-width="1.57179" stroke-miterlimit="10"/>
<path d="M41.5044 69.7756C41.0403 69.869 40.5655 69.8974 40.0936 69.86C39.6174 69.8265 39.1479 69.7295 38.6974 69.5716C38.2442 69.4162 37.8174 69.1927 37.4316 68.9087L37.2889 68.8006C37.2421 68.7637 37.1968 68.7238 37.1516 68.684C37.0605 68.6064 36.9751 68.5223 36.8961 68.4323C36.7386 68.2554 36.6003 68.0622 36.4834 67.8562C36.6475 68.0208 36.8201 68.1767 37.0005 68.3234C37.045 68.3602 37.0902 68.3963 37.1347 68.4308C37.1792 68.4653 37.2291 68.4937 37.2759 68.5259C37.3227 68.5581 37.3695 68.5904 37.4178 68.6203L37.5643 68.7093C37.9557 68.9411 38.3695 69.1329 38.7994 69.2816C39.2302 69.4322 39.6729 69.5464 40.1228 69.623C40.5803 69.6978 41.0415 69.7488 41.5044 69.7756Z" fill="#592D3D"/>
<path d="M26.502 74.6946C26.5893 74.7742 26.684 74.8455 26.7847 74.9074" stroke="#592D3D" stroke-width="1.57179" stroke-miterlimit="10" stroke-linecap="square"/>
<path d="M54.6451 73.9419C54.4855 74.0374 54.3097 74.1029 54.1265 74.1352C53.9446 74.171 53.7595 74.1877 53.5741 74.1851C53.3891 74.1815 53.2047 74.1612 53.0233 74.1245C52.9328 74.1084 52.8446 74.0815 52.7556 74.0577C52.6666 74.034 52.5815 73.9987 52.4971 73.9626C52.5899 73.9626 52.6797 73.9764 52.7702 73.9841L53.0402 74.0063C53.13 74.0063 53.219 74.0217 53.3087 74.0224C53.3985 74.0232 53.4867 74.0309 53.5757 74.0316C53.7547 74.0347 53.9337 74.0299 54.1127 74.0171C54.2917 74.0047 54.4696 73.9796 54.6451 73.9419Z" fill="#592D3D"/>
<path d="M23.707 49.8413C23.6303 47.6656 25.0879 45.8245 27.0272 44.9652C27.2309 44.8819 27.44 44.8127 27.6532 44.7581C28.7284 44.4923 29.8594 44.5655 30.8914 44.9675C31.1268 45.0581 31.3557 45.1647 31.5764 45.2867C33.8418 46.5057 34.8591 49.3718 33.9822 51.6893C33.8934 51.923 33.7861 52.1492 33.6616 52.366C33.3556 53.0033 32.8935 53.553 32.3183 53.9639C32.1264 54.1052 31.9252 54.2333 31.7161 54.3475C29.6156 55.3448 26.7771 55.0379 25.084 53.473C24.9145 53.2932 24.7579 53.1017 24.6153 52.8999C24.4525 52.6695 24.3095 52.4257 24.188 52.1711C23.9308 51.649 23.7828 51.08 23.753 50.4987C23.7252 50.2806 23.7099 50.0611 23.707 49.8413Z" fill="#F3AB98"/>
<path d="M23.582 48.433C23.5053 46.2573 24.9629 44.4162 26.9022 43.5569C27.1056 43.4736 27.3145 43.4044 27.5275 43.3498C28.6025 43.0827 29.7338 43.1545 30.7664 43.5554C31.0015 43.646 31.2302 43.7526 31.4507 43.8745C33.7161 45.0935 34.7333 47.9604 33.8565 50.2772C33.7682 50.5111 33.661 50.7374 33.5358 50.9538C33.4297 51.1616 33.309 51.3616 33.1745 51.5522C33.0419 51.7411 32.8963 51.9205 32.7387 52.0892C32.5684 52.2577 32.3859 52.4134 32.1925 52.5549C32.0007 52.6962 31.7995 52.8244 31.5903 52.9384C29.4898 53.9357 26.6514 53.6289 24.959 52.0647C24.7894 51.8847 24.6328 51.6929 24.4903 51.4908C24.3272 51.2604 24.184 51.0166 24.0622 50.762C23.8043 50.242 23.6552 49.6747 23.6242 49.095C23.5967 48.8754 23.5827 48.6543 23.582 48.433Z" fill="white" stroke="#592D3D" stroke-width="1.57179" stroke-miterlimit="10"/>
<path d="M28.856 49.4185C29.3746 49.4185 29.795 48.9981 29.795 48.4795C29.795 47.9609 29.3746 47.5405 28.856 47.5405C28.3374 47.5405 27.917 47.9609 27.917 48.4795C27.917 48.9981 28.3374 49.4185 28.856 49.4185Z" fill="#592D3D"/>
<path d="M47.6795 49.2227C47.7125 48.062 48.1912 46.9143 48.8379 46.0521C49.0031 45.8203 49.1857 45.6016 49.3841 45.3977C50.2663 44.478 51.4479 43.9035 52.7161 43.7776C53.9843 43.6518 55.2557 43.9828 56.3015 44.7111C56.4758 44.8327 56.6431 44.9641 56.8025 45.1046C58.8738 46.7502 59.1131 49.9484 57.9778 52.2568C57.8674 52.4402 57.7449 52.616 57.6111 52.783C57.4336 53.0056 57.2392 53.2141 57.0296 53.4067C55.4745 54.7746 53.0549 55.1044 51.091 54.3595C50.8112 54.254 50.5405 54.1257 50.2817 53.976C48.9085 53.149 47.9519 51.5909 47.7171 49.9691C47.6853 49.7217 47.6727 49.4721 47.6795 49.2227Z" fill="#F3AB98"/>
<path d="M48.1017 48.343C48.1339 47.2575 48.5942 46.1835 49.2156 45.3772C49.3754 45.1598 49.5514 44.9546 49.7418 44.7635C50.6049 43.9013 51.7409 43.366 52.9553 43.2492C54.1697 43.1325 55.3869 43.4416 56.3984 44.1237C56.5658 44.237 56.7267 44.3596 56.8802 44.4911C58.8748 46.0308 59.1049 49.0227 58.011 51.1822C57.905 51.3544 57.787 51.519 57.6581 51.6747C57.4868 51.8831 57.2998 52.078 57.0988 52.2578C55.6021 53.5374 53.2738 53.8465 51.3843 53.1492C51.1147 53.0492 50.8538 52.9273 50.6041 52.7848C49.2831 52.0115 48.3625 50.5539 48.1362 49.0373C48.1061 48.8071 48.0945 48.575 48.1017 48.343Z" fill="white" stroke="#592D3D" stroke-width="1.57179" stroke-miterlimit="10"/>
<path d="M53.4576 49.4185C53.9761 49.4185 54.3965 48.9981 54.3965 48.4795C54.3965 47.9609 53.9761 47.5405 53.4576 47.5405C52.939 47.5405 52.5186 47.9609 52.5186 48.4795C52.5186 48.9981 52.939 49.4185 53.4576 49.4185Z" fill="#592D3D"/>
<path d="M36.8818 53.9321C36.8818 52.4822 45.6059 52.7 45.6059 53.9321C45.6059 55.089 45.1463 56.1985 44.3283 57.0165C43.5102 57.8345 42.4007 58.2941 41.2439 58.2941C40.087 58.2941 38.9775 57.8345 38.1594 57.0165C37.3414 56.1985 36.8818 55.089 36.8818 53.9321Z" fill="#592D3D"/>
<path d="M40.8604 55.5544C39.5601 55.4777 38.4263 56.0722 38.0488 56.9521C38.6764 57.6151 39.4962 58.0645 40.3927 58.237C41.2893 58.4094 42.2173 58.2962 43.0461 57.9134C43.2184 57.8338 43.3853 57.7429 43.5455 57.641C43.4749 56.5586 42.3226 55.6449 40.8604 55.5544Z" fill="#F28195"/>
<path d="M36.8818 53.9321C36.8818 52.4822 45.6059 52.7 45.6059 53.9321C45.6059 55.089 45.1463 56.1985 44.3283 57.0165C43.5102 57.8345 42.4007 58.2941 41.2439 58.2941C40.087 58.2941 38.9775 57.8345 38.1594 57.0165C37.3414 56.1985 36.8818 55.089 36.8818 53.9321V53.9321Z" stroke="#592D3D" stroke-width="0.785893" stroke-miterlimit="10"/>
<path d="M39.5654 54.7451C39.6 54.7367 39.6138 54.7329 39.636 54.729L39.6935 54.7183C39.7311 54.7114 39.7703 54.7075 39.8055 54.7045C39.8792 54.6969 39.9533 54.6944 40.0273 54.6968C40.1772 54.7001 40.3263 54.7209 40.4714 54.7589C40.7754 54.8359 41.0509 54.9983 41.2654 55.2269C41.4673 55.444 41.6026 55.7146 41.6551 56.0063C41.7031 56.2754 41.6667 56.5528 41.5508 56.8003C41.392 56.5756 41.27 56.3738 41.1427 56.205C41.0854 56.1241 41.0226 56.0472 40.9547 55.9749C40.8928 55.9113 40.8232 55.8557 40.7476 55.8092C40.6044 55.7234 40.4447 55.6687 40.2789 55.6488C40.1919 55.6376 40.1043 55.6315 40.0165 55.6304C39.9713 55.6304 39.926 55.6304 39.8815 55.6343L39.8163 55.6389H39.7864C39.7787 55.6389 39.7634 55.6389 39.7687 55.6389L39.5654 54.7451Z" fill="#592D3D"/>
<path d="M45.7262 37.4398C44.7389 39.281 41.1233 40.3128 40.8295 39.8502C40.4996 39.3339 43.7332 35.6063 41.8958 31.7076" fill="#F3AB98"/>
<path d="M41.2561 23.2426C31.1949 23.2426 21.8962 31.4081 20.2246 41.2852C20.2246 41.2852 35.6697 42.4536 41.2952 36.1645C40.9385 37.902 39.9358 39.2231 40.1053 39.4885C40.3416 39.8598 43.2445 39.0344 44.037 37.5538L43.7562 37.1334C47.5851 38.5234 55.0709 40.2465 60.1165 35.0145C56.7809 28.0902 49.2697 23.2426 41.2561 23.2426Z" fill="#A56941"/>
<path d="M28.3193 41.1172C27.8256 40.5838 27.4898 39.9237 27.3496 39.2106C27.2094 38.4975 27.2702 37.7594 27.5253 37.0789C26.9856 37.0433 26.4591 36.8965 25.9789 36.6477C25.4987 36.3989 25.0751 36.0534 24.7348 35.633C24.3946 35.2126 24.1449 34.7264 24.0016 34.2048C23.8583 33.6833 23.8244 33.1378 23.9021 32.6025C22.054 35.1871 20.7567 38.149 20.2197 41.2852C22.9198 41.442 25.6281 41.3858 28.3193 41.1172Z" fill="#8D5638"/>
<path d="M59.6301 36.1138C53.9025 40.5172 47.3104 38.8065 43.8153 37.3481C43.0374 38.7244 40.3431 39.4877 40.1214 39.1402C39.968 38.9039 40.7981 37.7862 41.1786 36.2894C35.4802 42.4474 21.2441 41.8129 21.2441 41.8129" stroke="#592D3D" stroke-width="1.57179" stroke-miterlimit="10"/>
<path d="M24.4375 16.9796C23.8993 17.0043 23.3712 17.1347 22.8832 17.3631C22.4219 17.5754 22.0121 17.885 21.6819 18.2707C21.6396 18.3172 21.6004 18.3664 21.5645 18.418C21.5277 18.4686 21.4878 18.5162 21.4525 18.5714C21.3809 18.6757 21.3153 18.7841 21.2561 18.8959C21.1342 19.1206 21.034 19.3564 20.9569 19.6002C20.8095 20.1185 20.7501 20.6579 20.7812 21.1958C20.509 20.6743 20.4061 20.0809 20.4866 19.4981L20.5273 19.2787L20.5495 19.1683C20.558 19.1322 20.5703 19.0969 20.581 19.0609C20.6025 18.9887 20.624 18.9166 20.6477 18.8453C20.6715 18.7739 20.706 18.7072 20.7352 18.6374C20.7966 18.4995 20.8673 18.366 20.9469 18.2377C20.986 18.1725 21.0344 18.1142 21.0773 18.052C21.1202 17.9897 21.1668 17.93 21.217 17.8733C21.6108 17.41 22.1337 17.0745 22.719 16.9098C23.2834 16.7392 23.8888 16.7638 24.4375 16.9796Z" fill="white"/>
<path d="M30.4187 12.1446C29.9534 12.1288 29.4883 12.1805 29.0378 12.298C28.6153 12.4125 28.2144 12.5955 27.851 12.8396C27.488 13.0866 27.1686 13.3923 26.9059 13.7441C26.8415 13.8346 26.7678 13.9213 26.7118 14.0187L26.619 14.163C26.586 14.2105 26.5645 14.2627 26.5354 14.3164C26.417 14.5238 26.3119 14.7385 26.2208 14.9593C26.1882 14.7113 26.1984 14.4596 26.2507 14.2151C26.2638 14.1537 26.2715 14.0901 26.2906 14.0295L26.3474 13.8484C26.3868 13.7268 26.4358 13.6086 26.4939 13.4948C26.7258 13.0245 27.0771 12.6235 27.5127 12.3318C27.9442 12.0413 28.4433 11.8672 28.9619 11.8262C29.4686 11.7805 29.9772 11.8916 30.4187 12.1446Z" fill="white"/>
<path d="M34.1322 42.6534H24.8773C24.4508 42.6534 24.0243 42.6472 23.5977 42.6534H23.5793C23.1781 42.6534 22.7937 43.0063 22.8122 43.4205C22.8155 43.6229 22.8974 43.8161 23.0406 43.9593C23.1837 44.1024 23.3769 44.1843 23.5793 44.1877H32.8342C33.26 44.1877 33.6873 44.1938 34.1138 44.1877H34.1322C34.5335 44.1877 34.9178 43.8348 34.8994 43.4205C34.8959 43.2182 34.8139 43.0251 34.6708 42.882C34.5277 42.7389 34.3346 42.6569 34.1322 42.6534Z" fill="#592D3D"/>
<path d="M58.6069 42.6529H49.3519C48.9254 42.6529 48.4989 42.6467 48.0723 42.6529H48.0539C47.6527 42.6529 47.2684 43.0058 47.2868 43.42C47.2901 43.6224 47.372 43.8156 47.5152 43.9588C47.6583 44.1019 47.8515 44.1838 48.0539 44.1872H57.3088C57.7354 44.1872 58.1619 44.1933 58.5884 44.1872H58.6069C59.0081 44.1872 59.3924 43.8343 59.374 43.42C59.3705 43.2177 59.2885 43.0246 59.1454 42.8815C59.0023 42.7384 58.8092 42.6564 58.6069 42.6529Z" fill="#592D3D"/>
</g>
<defs>
<clipPath id="clip0">
<rect x="0.946289" width="80" height="80" rx="40" fill="white"/>
</clipPath>
</defs>
</svg>
