<svg width="49" height="71" viewBox="0 0 49 71" fill="none" xmlns="http://www.w3.org/2000/svg">
<path d="M34.2998 49.9839C42.3219 49.9839 40.6638 60.633 40.7407 72.4754H34.2998V49.9839Z" fill="#FDD2B2"/>
<path d="M36.3098 56.8024L34.2998 60.3568L35.3057 72.475H38.1129C38.1809 55.6707 36.3098 56.8024 36.3098 56.8024Z" fill="#F3AB98"/>
<path d="M1.00002 25.8657C1.00002 12.1329 11.5562 1 24.5776 1C37.599 1 48.1552 12.1329 48.1552 25.8657C48.1585 29.5659 47.3773 33.2201 45.8686 36.5607C44.3599 39.9013 42.1619 42.8438 39.4357 45.1729C38.9519 45.588 38.4528 45.9823 37.9384 46.3558C32.6209 49.9158 25.9034 49.9158 19.8391 49.3462C19.2504 49.253 18.6635 49.1356 18.0811 49.0004C15.7538 48.4597 13.5008 47.6254 11.4192 46.409C10.9048 46.0746 10.406 45.7136 9.92282 45.3258C9.43716 44.9358 8.97102 44.5195 8.52628 44.0785C8.10555 43.6665 7.69926 43.2383 7.30741 42.794C3.2466 38.1982 0.992168 32.1476 1.00002 25.8657Z" fill="#FDD2B2"/>
<path d="M4.21375 38.4015C4.27562 38.5134 4.33661 38.6253 4.40025 38.7353C4.43825 38.8024 4.47803 38.8676 4.5178 38.9347C4.57614 39.0345 4.63447 39.1342 4.69458 39.2321C4.737 39.303 4.78297 39.3719 4.82363 39.4409C4.88196 39.5341 4.9403 39.6273 5.0004 39.7206C5.04548 39.7914 5.08879 39.8623 5.13829 39.9331C5.19663 40.0263 5.25496 40.1121 5.31507 40.2016C5.3628 40.2733 5.41229 40.3442 5.46091 40.416C5.50952 40.4877 5.57935 40.5884 5.63768 40.6742C5.69602 40.7599 5.73933 40.8168 5.7906 40.8876C5.84186 40.9585 5.91169 41.0554 5.97356 41.1393C6.03543 41.2232 6.07874 41.2801 6.13177 41.35C6.18481 41.4199 6.2564 41.5141 6.31916 41.5952C6.38191 41.6763 6.42787 41.7341 6.48267 41.803C6.53748 41.872 6.60995 41.9634 6.67448 42.0426C6.739 42.1218 6.78673 42.1796 6.8433 42.2477L7.03952 42.4807C7.09697 42.5488 7.15531 42.615 7.2163 42.6821C7.29231 42.7697 7.36921 42.8564 7.44611 42.9422L7.55306 43.0615C7.66708 43.1864 7.78198 43.3113 7.89865 43.4343L7.92164 43.4595C8.03566 43.5788 8.15145 43.6972 8.26723 43.8147L8.40689 43.9545C8.49086 44.0375 8.57483 44.1204 8.65968 44.2025L8.76221 44.3013C8.8506 44.3889 8.94694 44.4746 9.03975 44.5604C9.32848 44.8258 9.62311 45.0802 9.92363 45.3239C10.4062 45.7116 10.905 46.0727 11.42 46.407C13.5016 47.6189 15.7511 48.4578 18.0819 48.9985C18.6643 49.1336 19.2512 49.2502 19.8399 49.3443C23.5611 49.6939 27.5297 49.8272 31.2667 49.0572C25.3244 47.2124 -3.21264 36.375 14.7487 3.25861C14.5083 3.37513 14.2714 3.49538 14.0363 3.62029L13.9842 3.64732C13.8764 3.70418 13.7685 3.76291 13.6616 3.82257L13.5732 3.87197C13.2408 4.05841 12.912 4.25137 12.5894 4.45272L12.5099 4.50212C12.4073 4.56644 12.3057 4.6317 12.204 4.69788L12.1272 4.74822C11.8113 4.9564 11.5005 5.17174 11.1947 5.39422L11.0992 5.46413C11.0029 5.53497 10.9083 5.60582 10.8137 5.67759L10.7554 5.72141C10.5627 5.86993 10.3723 6.02032 10.1844 6.17258L10.1296 6.21732C10.0412 6.29003 9.9528 6.3646 9.86441 6.44011L9.761 6.52774C9.67261 6.60324 9.58422 6.67875 9.49583 6.75612C9.30933 6.91925 9.12548 7.08704 8.94429 7.2567L8.84352 7.34991L8.60576 7.5783L8.49086 7.68829C8.23866 7.93687 7.99205 8.19073 7.75105 8.44988L7.62907 8.58131C7.55924 8.65775 7.48942 8.73419 7.42048 8.81156C7.37982 8.85724 7.33916 8.90478 7.29938 8.94952C7.17799 9.08624 7.05838 9.22482 6.94053 9.36527C6.90075 9.41281 6.86009 9.45849 6.82032 9.50883C6.75756 9.58433 6.69569 9.66077 6.63382 9.73721L6.50035 9.90407C6.44025 9.97957 6.38015 10.0551 6.32358 10.1315C6.27585 10.193 6.22812 10.2555 6.18127 10.318C6.08669 10.4419 5.99389 10.5659 5.90196 10.6908C5.85423 10.7561 5.8065 10.8213 5.75966 10.8875C5.71281 10.9537 5.65359 11.0357 5.60144 11.1112C5.54929 11.1867 5.50687 11.2464 5.46091 11.3144C5.41494 11.3825 5.36103 11.4589 5.31241 11.5316C5.22874 11.6559 5.14624 11.7818 5.06493 11.9092C5.02073 11.9772 4.97654 12.0471 4.93323 12.1161C4.88992 12.1851 4.836 12.2709 4.78827 12.3492L4.65657 12.5645L4.50808 12.8171C4.47007 12.8814 4.43207 12.9457 4.39494 13.0101C4.31628 13.1462 4.24026 13.2832 4.16425 13.4202L4.05642 13.6216C4.00869 13.7101 3.96096 13.7996 3.91411 13.8891C3.87876 13.9572 3.8434 14.0252 3.80893 14.0933C3.75236 14.2042 3.69668 14.316 3.64099 14.4279L3.53492 14.646C3.47836 14.7654 3.42179 14.8837 3.3661 15.004C3.33693 15.0683 3.30688 15.1336 3.27771 15.1988C3.23175 15.3004 3.18933 15.403 3.14248 15.5055C3.11508 15.567 3.08856 15.6285 3.06205 15.6919C2.99664 15.8454 2.93271 16.0008 2.87025 16.158C2.8508 16.2065 2.83224 16.2559 2.81279 16.3044C2.76595 16.4228 2.71999 16.5411 2.67491 16.6605C2.65104 16.7229 2.62806 16.7854 2.60508 16.8469C2.56089 16.9643 2.51669 17.0827 2.47692 17.2011C2.45836 17.2524 2.43979 17.3037 2.42212 17.3549C2.36673 17.5184 2.31222 17.6818 2.2586 17.8453L2.2091 18.0037C2.17021 18.128 2.1322 18.2523 2.09508 18.3766L2.04205 18.5546C2.0005 18.6982 1.95985 18.8417 1.92096 18.9862C1.91212 19.017 1.90328 19.0478 1.89532 19.0795C1.84936 19.251 1.80517 19.4231 1.76274 19.5959C1.7486 19.6509 1.73622 19.7068 1.72297 19.7618C1.69203 19.8914 1.66198 20.0209 1.63458 20.1515L1.59745 20.3146C1.55945 20.4917 1.52232 20.6688 1.48785 20.8469L1.47459 20.9186C1.44454 21.0771 1.41508 21.2356 1.38621 21.394C1.37648 21.4509 1.36765 21.5068 1.35792 21.5637C1.33494 21.7026 1.31284 21.8433 1.29251 21.9832C1.28544 22.0307 1.27749 22.0764 1.2713 22.1249C1.24479 22.3066 1.22092 22.4893 1.19794 22.673L1.18468 22.7942C1.167 22.9424 1.15109 23.0915 1.13607 23.2407C1.13076 23.2966 1.12458 23.3525 1.11927 23.4094C1.10513 23.566 1.09187 23.7235 1.0795 23.8811C1.0795 23.9137 1.0742 23.9454 1.07243 23.9743C1.05947 24.1607 1.04797 24.3487 1.03796 24.5383C1.03796 24.5877 1.03796 24.638 1.03177 24.6874C1.02588 24.8341 1.02057 24.9804 1.01586 25.1265C1.01586 25.1815 1.01586 25.2365 1.01586 25.2915C1.01586 25.4825 1.00879 25.6746 1.00879 25.8666C1.00879 25.8666 1.00879 25.8731 1.00879 25.8759C1.00879 26.0829 1.00879 26.2879 1.01586 26.493C1.01586 26.5639 1.02116 26.6347 1.02293 26.7056C1.02735 26.8426 1.03177 26.9796 1.03796 27.1166C1.03796 27.1996 1.04768 27.2816 1.0521 27.3646C1.05917 27.4886 1.06536 27.6126 1.0742 27.7375C1.08038 27.8307 1.08834 27.9137 1.09541 28.0013C1.10513 28.1187 1.11397 28.2362 1.12546 28.3527C1.13342 28.4459 1.14402 28.5336 1.15286 28.624C1.16524 28.7368 1.17673 28.8505 1.18998 28.9633C1.20059 29.0565 1.21296 29.1497 1.22446 29.2383C1.2386 29.3483 1.25274 29.4592 1.26865 29.5692C1.28191 29.6624 1.29605 29.7556 1.31019 29.8488C1.3261 29.957 1.3429 30.066 1.36057 30.1742C1.37648 30.2674 1.39239 30.3606 1.40919 30.4538C1.42775 30.561 1.44719 30.6682 1.46664 30.7745C1.48609 30.8808 1.50288 30.9609 1.52144 31.0541C1.54265 31.1604 1.56387 31.2658 1.58685 31.3711C1.60983 31.4764 1.62574 31.5575 1.64695 31.6442C1.66993 31.7495 1.69468 31.854 1.71943 31.9574C1.74418 32.0609 1.76274 32.1392 1.78484 32.2287C1.81135 32.3331 1.83787 32.4366 1.86527 32.54C1.88825 32.6332 1.91212 32.719 1.93687 32.8076C1.96515 32.911 1.99432 33.0136 2.02525 33.1161C2.05619 33.2187 2.07652 33.2923 2.10304 33.3809C2.12955 33.4694 2.16491 33.585 2.19673 33.6866C2.22855 33.7882 2.25153 33.8609 2.27981 33.9476C2.3134 34.0492 2.34699 34.1508 2.38146 34.2524C2.41063 34.3373 2.43891 34.423 2.46985 34.5079L2.57945 34.8127C2.61038 34.8956 2.64044 34.9795 2.66784 35.0625C2.70673 35.1641 2.7465 35.2666 2.78628 35.3682C2.8181 35.4484 2.84903 35.5295 2.88174 35.6097C2.92328 35.7141 2.97012 35.8166 3.0099 35.9201C3.0426 35.9965 3.07442 36.0739 3.10713 36.1503C3.15309 36.2585 3.2017 36.3647 3.24855 36.471L3.34401 36.6854C3.39792 36.8029 3.45361 36.9184 3.50929 37.035C3.53758 37.0937 3.56409 37.1534 3.59326 37.2121C3.76297 37.5607 3.93974 37.9047 4.12359 38.244C4.14922 38.2878 4.18193 38.3447 4.21375 38.4015Z" fill="#F3AB98"/>
<path d="M1.00002 25.8657C1.00002 12.1329 11.5562 1 24.5776 1C37.599 1 48.1552 12.1329 48.1552 25.8657C48.1585 29.5659 47.3773 33.2201 45.8686 36.5607C44.3599 39.9013 42.1619 42.8438 39.4357 45.1729C38.9519 45.588 38.4528 45.9823 37.9384 46.3558C32.6209 49.9158 25.9034 49.9158 19.8391 49.3462C19.2504 49.253 18.6635 49.1356 18.0811 49.0004C15.7538 48.4597 13.5008 47.6254 11.4192 46.409C10.9048 46.0746 10.406 45.7136 9.92282 45.3258C9.43716 44.9358 8.97102 44.5195 8.52628 44.0785C8.10555 43.6665 7.69926 43.2383 7.30741 42.794C3.2466 38.1982 0.992168 32.1476 1.00002 25.8657V25.8657Z" stroke="#592D3D" stroke-width="1.06066" stroke-miterlimit="10"/>
<path d="M14.5124 49.9839C6.48942 49.9839 8.14847 60.633 8.07157 72.4754H14.5124V49.9839Z" fill="#FDD2B2"/>
<path d="M12.8417 56.8024L14.8543 60.3568L13.8476 72.475H11.043C10.9714 55.6707 12.8417 56.8024 12.8417 56.8024Z" fill="#F3AB98"/>
<path d="M35.1381 79.0006H14.0186C13.7075 79.0003 13.4091 78.8698 13.1892 78.6377C12.9692 78.4055 12.8457 78.0908 12.8457 77.7626V51.2218C12.8457 50.8937 12.9692 50.5789 13.1892 50.3468C13.4091 50.1147 13.7075 49.9841 14.0186 49.9839H34.6334C35.7904 49.9839 36.3128 50.6979 36.3128 51.837V77.7589C36.3133 77.9219 36.2832 78.0833 36.2244 78.234C36.1655 78.3847 36.0791 78.5216 35.9699 78.637C35.8608 78.7524 35.7311 78.8439 35.5884 78.9063C35.4457 78.9686 35.2926 79.0007 35.1381 79.0006Z" fill="#FDD2B2"/>
<path d="M35.9849 50.7197C35.8967 50.6055 35.8222 50.4803 35.763 50.3469C35.5508 50.1715 35.2983 50.0586 35.0312 50.0197C34.8996 49.9982 34.7666 49.9876 34.6334 49.988H14.0186C13.7082 49.9882 13.4106 50.1181 13.1907 50.3492C12.9709 50.5804 12.8469 50.8939 12.8457 51.2213C15.409 52.1926 20.2076 52.7351 24.5784 52.7351C30.1521 52.7351 33.8043 51.8635 35.9849 50.7197Z" fill="#F3AB98"/>
<path d="M34.2998 49.9839C42.3219 49.9839 40.6638 60.633 40.7407 72.4754H36.3098" stroke="#592D3D" stroke-width="1.06066" stroke-miterlimit="10" stroke-linecap="square"/>
<path d="M14.5124 49.9839C6.48942 49.9839 8.14847 60.633 8.07157 72.4754H12.4972" stroke="#592D3D" stroke-width="1.06066" stroke-miterlimit="10" stroke-linecap="square"/>
<path d="M14.0176 49.9927L34.6324 49.9839" stroke="#592D3D" stroke-width="1.06066" stroke-miterlimit="10"/>
<path d="M14.0186 78.9997H24.3265C14.6789 78.9997 15.4072 57.4497 12.8457 57.4497V77.758C12.8452 77.9208 12.8752 78.0821 12.934 78.2327C12.9927 78.3833 13.079 78.5201 13.1879 78.6355C13.2969 78.7508 13.4263 78.8423 13.5689 78.9048C13.7114 78.9673 13.8643 78.9996 14.0186 78.9997Z" fill="#F3AB98"/>
<path d="M12.3145 59.5026C12.2977 59.1605 12.3047 58.8184 12.3189 58.4772C12.333 58.136 12.3604 57.7921 12.3949 57.4518C12.4126 57.2803 12.4303 57.1097 12.4524 56.9382C12.4744 56.7667 12.4957 56.5961 12.5275 56.4246C12.5902 56.0696 12.6969 55.7248 12.8448 55.3992C12.9927 55.7248 13.0994 56.0696 13.1621 56.4246C13.1939 56.5961 13.2169 56.7667 13.2372 56.9382C13.2576 57.1097 13.277 57.2803 13.2947 57.4518C13.3283 57.7939 13.3548 58.136 13.3698 58.4772C13.3848 58.8184 13.3919 59.1614 13.3751 59.5026H12.3145Z" fill="#592D3D"/>
<path d="M36.311 60.3563V61.102C36.334 64.2714 36.334 67.534 36.311 70.6801C36.311 70.9476 36.311 71.2133 36.311 71.4753V77.759C36.3113 77.9218 36.2813 78.083 36.2225 78.2334C36.1637 78.3839 36.0774 78.5206 35.9685 78.6359C35.8595 78.7511 35.7301 78.8426 35.5876 78.905C35.4451 78.9674 35.2924 78.9996 35.1381 78.9998H14.0186C13.7074 78.9995 13.4091 78.869 13.1892 78.6368C12.9692 78.4047 12.8457 78.09 12.8457 77.7618V72.3366C12.8457 72.1026 12.8457 71.864 12.8457 71.6235C12.8236 68.373 12.8236 65.1104 12.8457 61.8077V59.5034" stroke="#592D3D" stroke-width="1.06066" stroke-miterlimit="10"/>
<path d="M35.78 60.3555C35.7632 59.9667 35.7711 59.5771 35.7853 59.1874C35.7994 58.7978 35.8268 58.4091 35.8604 58.0194C35.8781 57.8246 35.8966 57.6298 35.9179 57.435C35.9391 57.2401 35.9612 57.0462 35.993 56.8514C36.0546 56.4502 36.1611 56.0581 36.3103 55.6834C36.4595 56.0581 36.566 56.4502 36.6276 56.8514C36.6594 57.0462 36.6824 57.2411 36.7027 57.435C36.7231 57.6289 36.7425 57.8246 36.7602 58.0194C36.7938 58.4091 36.8212 58.7978 36.8353 59.1874C36.8495 59.5771 36.8574 59.9667 36.8406 60.3555H35.78Z" fill="#592D3D"/>
<path d="M30.8252 57.7876C30.8446 56.9067 31.9053 56.5339 32.4356 57.0932C32.5218 57.186 32.5898 57.2958 32.6358 57.4163C32.6817 57.5368 32.7047 57.6656 32.7035 57.7955C32.7022 57.9254 32.6767 58.0538 32.6284 58.1732C32.5801 58.2927 32.5099 58.401 32.4219 58.4919C32.334 58.5828 32.2299 58.6545 32.1156 58.703C32.0013 58.7514 31.8791 58.7757 31.756 58.7744C31.6328 58.773 31.5111 58.7461 31.3978 58.6952C31.2845 58.6442 31.1819 58.5702 31.0957 58.4775C31.0096 58.387 30.9414 58.2795 30.895 58.1611C30.8485 58.0427 30.8248 57.9158 30.8252 57.7876Z" fill="#592D3D"/>
<path d="M16.4554 57.7589C16.4368 56.9991 17.2323 56.6263 17.7627 56.9059C18.4698 57.1856 18.4698 58.211 17.7627 58.6771C17.4091 58.8635 17.0556 58.6771 16.7241 58.4459C16.6386 58.3557 16.5709 58.2485 16.5248 58.1306C16.4787 58.0127 16.4551 57.8864 16.4554 57.7589Z" fill="#592D3D"/>
<path d="M24.5772 56.7927C24.6404 56.9684 24.6849 57.151 24.7098 57.337C24.7361 57.5172 24.7506 57.6991 24.7531 57.8814L24.7796 58.9712C24.7876 59.3338 24.7982 59.6973 24.8017 60.0609L24.8167 61.1487C24.8371 62.6001 24.8362 64.0534 24.8415 65.5057C24.8468 66.958 24.8574 68.4103 24.8415 69.8627C24.8335 70.5888 24.815 71.315 24.7946 72.0412C24.7858 72.4038 24.769 72.7673 24.7354 73.1299C24.7054 73.4963 24.6531 73.8603 24.579 74.2196C24.5048 73.8603 24.4526 73.4963 24.4225 73.1299C24.3889 72.7673 24.3721 72.4038 24.3633 72.0412C24.343 71.315 24.3244 70.5888 24.3165 69.8627C24.2988 68.4103 24.3165 66.958 24.3165 65.5057C24.3165 64.0534 24.3165 62.602 24.3324 61.1496L24.3474 60.059L24.3766 58.9702L24.4057 57.8814C24.409 57.6991 24.4238 57.5173 24.4499 57.337C24.4731 57.1512 24.5158 56.9686 24.5772 56.7927Z" fill="#F3AB98"/>
<path d="M17.9678 61.5678C18.0989 61.5021 18.2377 61.4551 18.3805 61.428C18.5171 61.401 18.6554 61.3854 18.7942 61.3814L19.6206 61.3507L21.2735 61.3124C22.3748 61.2947 23.4752 61.2901 24.5774 61.2873C25.6797 61.2845 26.781 61.2723 27.8823 61.2873C28.4329 61.2957 28.9836 61.3152 29.5351 61.3367C29.81 61.3469 30.0858 61.3646 30.3607 61.3991C30.6398 61.4318 30.9161 61.4872 31.1871 61.565C30.9163 61.6434 30.6399 61.6985 30.3607 61.73C30.0858 61.7655 29.81 61.7832 29.5351 61.7925C28.9836 61.8139 28.4329 61.8326 27.8823 61.841C26.781 61.8587 25.6797 61.841 24.5774 61.841C23.4752 61.841 22.3739 61.841 21.2717 61.827C20.7211 61.8214 20.1704 61.8028 19.6206 61.7804L18.7942 61.7487C18.6557 61.7447 18.5176 61.7292 18.3814 61.7021C18.2385 61.6769 18.0994 61.6318 17.9678 61.5678Z" fill="#F3AB98"/>
<path d="M19.4873 64.4929C19.5917 64.4404 19.7032 64.4055 19.8179 64.3894C19.9238 64.3736 20.031 64.369 20.1378 64.3754C20.3491 64.3848 20.5603 64.3904 20.7716 64.395C21.1941 64.4053 21.6166 64.409 22.0391 64.4109C22.8903 64.4109 23.7264 64.4183 24.5811 64.3913C25.4358 64.3643 26.2835 64.3512 27.1338 64.3549C27.5589 64.3549 27.9841 64.3671 28.4083 64.3773C28.6219 64.3803 28.8352 64.3949 29.0474 64.4211C29.2655 64.4465 29.4807 64.4943 29.69 64.5637C29.4856 64.6484 29.2735 64.7109 29.0571 64.7502C28.8464 64.7902 28.6336 64.817 28.4198 64.8303C27.9938 64.863 27.5678 64.8909 27.1426 64.9068C26.2906 64.9403 25.4394 64.9366 24.59 64.9487C24.1648 64.9487 23.7405 64.9692 23.3101 64.958C22.8796 64.9469 22.4536 64.9459 22.0267 64.9292C21.5998 64.9124 21.1711 64.8751 20.7451 64.8285C20.5312 64.8033 20.319 64.7753 20.106 64.7446C19.9984 64.7307 19.8926 64.7044 19.7905 64.6663C19.6808 64.6271 19.5783 64.5685 19.4873 64.4929Z" fill="#F3AB98"/>
<path d="M19.1797 67.801C19.2846 67.7359 19.3985 67.6887 19.5173 67.6612C19.6281 67.634 19.7413 67.6187 19.855 67.6155L20.5294 67.5857C20.9793 67.5689 21.4301 67.5549 21.88 67.5475C22.7797 67.5335 23.6795 67.5335 24.5776 67.5335C25.4756 67.5335 26.3771 67.5176 27.2769 67.5335C27.7268 67.5419 28.1767 67.5614 28.6266 67.5829C28.8523 67.5909 29.0774 67.6114 29.301 67.6444C29.5313 67.6777 29.758 67.7342 29.9781 67.8131C29.7588 67.8906 29.5329 67.9458 29.3037 67.9781C29.0798 68.0119 28.8544 68.0327 28.6284 68.0406C28.1785 68.062 27.7286 68.0816 27.2787 68.09C26.3789 68.1086 25.4782 68.0956 24.5784 68.09C23.6787 68.0844 22.7789 68.0844 21.8791 68.0667C21.4292 68.0573 20.9784 68.0406 20.5285 68.021L19.8541 67.9865C19.7404 67.9829 19.6272 67.9673 19.5164 67.9399C19.3979 67.9129 19.2842 67.866 19.1797 67.801Z" fill="#F3AB98"/>
<path d="M28.8063 58.3033L25.0825 55.0994L31.6789 49.9921H17.4749L24.0713 55.0994L20.3475 58.3033L17.0215 53.0365V60.3522H32.424V52.5742L28.8063 58.3033Z" fill="#F3AB98"/>
<path d="M34.8892 49.9313L31.1124 49.9407C31.0928 50.3617 31.0506 50.7812 30.986 51.1972C30.9444 51.3969 30.893 51.5942 30.8322 51.7882C30.6253 52.3932 29.3066 52.9068 28.9327 53.3478C28.8088 53.4944 28.6759 53.6324 28.535 53.7607C26.3102 55.4573 22.7747 55.5505 20.626 53.7066C20.3942 53.4932 20.1837 53.2556 19.9975 52.9973C19.6236 52.479 18.548 51.9169 18.3977 51.2317C18.3551 51.029 18.3232 50.8239 18.3022 50.6174C18.2809 50.4069 18.2703 50.1953 18.2704 49.9835L14.2744 49.9313C13.9632 49.9313 13.6648 50.0616 13.4447 50.2936C13.2246 50.5255 13.1008 50.8402 13.1006 51.1683V77.7064C13.1008 78.0345 13.2246 78.3492 13.4447 78.5811C13.6648 78.8131 13.9632 78.9434 14.2744 78.9434H35.393C35.7041 78.9434 36.0024 78.813 36.2224 78.5811C36.4423 78.3491 36.5659 78.0344 36.5659 77.7064V51.7808C36.5659 50.6454 36.0462 49.9313 34.8892 49.9313Z" fill="white"/>
<path d="M34.5518 49.9313C40.1679 49.9313 42.3759 53.976 41.5256 75.2865C39.8692 75.911 36.5838 75.7143 36.5838 75.7143L34.5518 49.9313Z" fill="white"/>
<path d="M20.251 58.9953L24.5334 56.7497L28.8273 58.9953L25.5516 54.9851L21.6723 55.0625L20.251 58.9953Z" fill="#E2E2E2"/>
<path d="M36.5649 56.7499C36.5649 56.7499 34.5505 64.6305 34.8581 78.5628L37.7935 75.673L38.1099 62.8482C37.6132 56.1151 36.5649 56.7499 36.5649 56.7499Z" fill="#E2E2E2"/>
<path d="M14.7667 49.9313C9.30606 49.9313 6.91073 55.1935 7.62933 72.8143C9.611 73.7381 12.5959 73.3345 12.5959 73.3345L14.7667 49.9313Z" fill="white"/>
<path d="M7.51367 68.5117C7.52899 69.7832 7.56464 71.1342 7.62062 72.5648C8.97031 72.6329 11.4823 72.6469 12.6685 72.5648L13.0379 68.5742C12.086 68.4567 8.99152 68.4185 7.51367 68.5117Z" fill="#E2E2E2"/>
<path d="M13.0971 56.7494L13.0529 73.3132L11.8729 73.3971C11.6104 59.503 13.0971 56.7494 13.0971 56.7494Z" fill="#E2E2E2"/>
<path d="M34.5518 49.9313C40.5109 49.9313 41.4858 55.1776 41.5256 62.402V75.2865C41.5256 75.2865 37.1062 75.8019 36.5838 75.7143L36.575 62.4672" stroke="#592D3D" stroke-width="1.06066" stroke-miterlimit="10" stroke-linecap="square"/>
<path d="M14.7666 49.9313C12.4924 49.9313 10.92 50.6883 9.84252 52.0231C8.12337 54.155 7.66552 57.7597 7.63281 62.1158V73.6533C8.69878 73.9628 13.0563 73.314 13.0563 73.314L13.0996 62.2584" stroke="#592D3D" stroke-width="1.06066" stroke-miterlimit="10" stroke-linecap="square"/>
<path d="M13.3159 73.5229C13.1541 73.7662 6.79548 73.7019 6.71593 73.5229C6.63638 73.3439 6.52236 70.0272 6.71593 69.701C6.87503 69.4325 13.0896 69.4894 13.3159 69.701C13.5422 69.9126 13.4776 73.2796 13.3159 73.5229Z" fill="white" stroke="#592D3D" stroke-width="1.06066" stroke-miterlimit="10" stroke-linecap="square"/>
<path d="M14.274 78.9424H24.5774C14.9263 78.9424 15.6582 57.3962 13.0967 57.3962V77.7054C13.0968 77.8682 13.1274 78.0294 13.1866 78.1798C13.2459 78.3301 13.3327 78.4666 13.442 78.5815C13.5514 78.6964 13.6812 78.7874 13.8239 78.8494C13.9667 78.9113 14.1196 78.9429 14.274 78.9424Z" fill="#E2E2E2"/>
<path d="M12.5693 59.4512C12.5525 59.1091 12.5596 58.766 12.5746 58.4258C12.5896 58.0855 12.6161 57.7416 12.6497 57.4004C12.6674 57.2298 12.686 57.0583 12.7072 56.8868C12.7284 56.7153 12.7505 56.5447 12.7823 56.3741C12.8449 56.0191 12.9516 55.6743 13.0996 55.3487C13.2477 55.6743 13.3544 56.0191 13.4169 56.3741C13.4488 56.5447 13.4717 56.7162 13.4921 56.8868C13.5124 57.0574 13.5318 57.2298 13.5495 57.4004C13.5837 57.7434 13.609 58.0852 13.6255 58.4258C13.6397 58.7679 13.6467 59.1109 13.6255 59.4512H12.5693Z" fill="#592D3D"/>
<path d="M36.5656 60.3001V61.0458C36.5885 64.2152 36.5885 67.4778 36.5656 70.6248C36.5656 70.8924 36.5656 71.158 36.5656 71.42V77.7038C36.5656 78.0318 36.442 78.3465 36.222 78.5784C36.0021 78.8104 35.7037 78.9407 35.3927 78.9407H14.274C13.9629 78.9407 13.6645 78.8104 13.4444 78.5785C13.2242 78.3465 13.1005 78.0319 13.1002 77.7038V71.5701C13.0773 68.3205 13.0773 65.0579 13.1002 61.7543V59.4509" stroke="#592D3D" stroke-width="1.06066" stroke-miterlimit="10"/>
<path d="M42.028 69.7004C42.2242 69.9111 42.1685 73.279 42.028 73.5223C41.8875 73.7656 36.3712 73.7013 36.3031 73.5223C36.235 73.3433 36.1352 70.0266 36.3031 69.7004C36.327 69.6538 36.5046 69.6174 36.7848 69.5904" fill="white"/>
<path d="M42.028 69.7004C42.2242 69.9111 42.1685 73.279 42.028 73.5223C41.8875 73.7656 36.3712 73.7013 36.3031 73.5223C36.235 73.3433 36.1352 70.0266 36.3031 69.7004C36.327 69.6538 36.5046 69.6174 36.7848 69.5904" stroke="#592D3D" stroke-width="1.06066" stroke-miterlimit="10" stroke-linecap="square"/>
<path d="M40.3916 69.52C40.7275 69.5479 41.7174 69.41 41.7546 69.4491L40.3916 69.52Z" fill="white"/>
<path d="M40.3916 69.5187C40.4431 69.4481 40.4986 69.3809 40.5578 69.3174C40.606 69.2665 40.6587 69.2206 40.7151 69.1803C40.766 69.1447 40.8195 69.1136 40.8751 69.0871C40.929 69.0601 40.9829 69.0368 41.0368 69.0135C41.1454 68.9671 41.2575 68.9304 41.3718 68.9035C41.4301 68.8899 41.4892 68.8802 41.5486 68.8746C41.5804 68.8746 41.6131 68.8746 41.652 68.8746C41.6741 68.8746 41.6927 68.8746 41.7245 68.8746C41.7351 68.8746 41.7634 68.8746 41.7873 68.8811H41.8182L41.8615 68.8914L41.8836 68.8969L41.9013 68.9025L41.9517 68.9221C42.0177 68.9525 42.0777 68.9959 42.1284 69.0498L42.4997 69.4497L41.7351 70.2402L41.3709 69.8328C41.4187 69.8856 41.4761 69.9275 41.5398 69.9559C41.5557 69.9633 41.5716 69.9689 41.5875 69.9745H41.6025L41.6193 69.9792C41.6303 69.983 41.6415 69.9858 41.6529 69.9876H41.6697C41.6785 69.9876 41.6927 69.9876 41.6891 69.9876C41.6856 69.9876 41.683 69.9876 41.6759 69.9876H41.6096C41.5592 69.9876 41.5044 69.9876 41.4487 69.9876C41.3322 69.9803 41.2164 69.9638 41.1022 69.9382C41.043 69.9242 40.9838 69.9102 40.9255 69.8925C40.8649 69.8754 40.8057 69.853 40.7487 69.8254C40.6828 69.7925 40.6211 69.7512 40.5648 69.7023C40.4976 69.652 40.439 69.5899 40.3916 69.5187Z" fill="#592D3D"/>
<path d="M32.7552 50.4417L26.1553 55.5509L29.88 58.7557L35.132 50.437L32.7552 50.4417Z" fill="#E2E2E2"/>
<path d="M36.0349 60.2998C36.0181 59.9101 36.026 59.5205 36.0402 59.1317C36.0543 58.743 36.0817 58.3524 36.1162 57.9637C36.1338 57.7689 36.1515 57.5741 36.1727 57.3793C36.194 57.1844 36.216 56.9896 36.2487 56.7948C36.3098 56.3936 36.4161 56.0015 36.5652 55.6268C36.715 56.0013 36.8215 56.3934 36.8825 56.7948C36.9143 56.9896 36.9382 57.1844 36.9576 57.3793C36.9771 57.5741 36.9974 57.7689 37.0151 57.9637C37.0495 58.3524 37.0761 58.7421 37.0902 59.1317C37.1044 59.5214 37.1132 59.9101 37.0955 60.2998H36.0349Z" fill="#592D3D"/>
<path d="M14.2734 49.9402L34.8882 49.9313" stroke="#592D3D" stroke-width="1.06066" stroke-miterlimit="10"/>
<path d="M27.1757 57.1448L25.2002 55.0624L23.2256 57.1448L24.1961 58.1684L23.337 68.1081L25.1701 69.6155L27.0634 68.1081L26.2052 58.1684L27.1757 57.1448Z" fill="#E2E2E2"/>
<path d="M24.5801 55.0624V78.9428" stroke="#592D3D" stroke-width="0.53033" stroke-miterlimit="10" stroke-linecap="square"/>
<path d="M24.5801 55.0624L26.5555 56.4923L24.5801 58.5757L22.6055 56.4923L24.5801 55.0624Z" fill="#633749"/>
<path d="M17.4724 49.9908C17.4724 49.9908 21.2969 53.6579 24.0714 55.1C22.7209 57.45 20.3476 58.3058 20.3476 58.3058L15.0947 49.988L17.4724 49.9908Z" fill="white" stroke="#592D3D" stroke-width="1.06066" stroke-miterlimit="10"/>
<path d="M31.6821 49.9906C31.6821 49.9906 28.2013 53.8311 25.083 55.0998C25.9669 56.9902 28.8068 58.3037 28.8068 58.3037L34.0597 49.9859L31.6821 49.9906Z" fill="white" stroke="#592D3D" stroke-width="1.06066" stroke-miterlimit="10"/>
<path d="M22.7178 67.4555L24.5509 68.9628L26.4442 67.4555L25.5603 57.2221H23.6017L22.7178 67.4555Z" fill="#633749"/>
<path d="M22.6055 56.4919L23.576 57.5154L22.7168 67.4552L24.55 68.9625L26.4433 67.4552L25.585 57.5154L26.5555 56.4919" stroke="#592D3D" stroke-width="0.707106" stroke-miterlimit="10"/>
<path d="M36.7842 69.591C37.448 69.5248 38.6854 69.508 39.7894 69.5285L36.7842 69.591Z" fill="white"/>
<path d="M36.7346 69.0334C36.9933 68.9949 37.2548 68.9802 37.5159 68.9895C37.7722 68.9961 38.0268 69.0175 38.2814 69.0501C38.4078 69.0669 38.535 69.0846 38.6614 69.107C38.789 69.1267 38.9156 69.1531 39.0406 69.1862C39.3076 69.2547 39.5616 69.3704 39.7919 69.5283C39.5582 69.6772 39.3042 69.7872 39.0389 69.8546C38.9142 69.8882 38.7896 69.9133 38.665 69.9348C38.5403 69.9562 38.4166 69.9786 38.2929 69.9991C38.0454 70.0382 37.7988 70.0718 37.5548 70.0923C37.3109 70.1128 37.0669 70.1389 36.8336 70.1426L36.3032 70.152L36.2148 69.1145L36.7346 69.0334Z" fill="#592D3D"/>
<path d="M25.9711 71.3298C26.2055 71.3298 26.3954 71.1295 26.3954 70.8824C26.3954 70.6353 26.2055 70.4349 25.9711 70.4349C25.7368 70.4349 25.5469 70.6353 25.5469 70.8824C25.5469 71.1295 25.7368 71.3298 25.9711 71.3298Z" fill="#592D3D"/>
<path d="M23.7726 57.205C23.7681 57.1994 23.7726 57.205 23.7726 57.205L23.7787 57.2097C23.7842 57.2127 23.7892 57.2165 23.7938 57.2208L23.8274 57.2479C23.8495 57.2675 23.8733 57.287 23.8963 57.3085C23.9432 57.3504 23.9926 57.3952 24.0466 57.438C24.1005 57.4809 24.1588 57.5219 24.2233 57.5704C24.3076 57.6372 24.3876 57.7098 24.4629 57.7876C24.3999 57.8961 24.3015 57.9766 24.1862 58.0141C24.0799 58.0453 23.9687 58.0539 23.8592 58.0393C23.7479 58.0279 23.6394 57.9964 23.5383 57.9461C23.4869 57.9202 23.4381 57.889 23.3925 57.8529C23.3688 57.8346 23.3461 57.815 23.3244 57.7941C23.3138 57.7839 23.3023 57.7727 23.2917 57.7606L23.2741 57.741L23.252 57.714L23.7726 57.205Z" fill="#592D3D"/>
<path opacity="0.15" d="M39.0772 44.7252C41.5795 42.5812 43.8864 39.6243 45.3245 36.6992C45.3192 36.6899 45.016 37.0142 45.0107 37.0049C45.0054 36.9956 43.1483 38.7555 37.8053 38.7294C31.0612 38.7006 32.4543 36.7085 24.3252 36.7085C17.1286 36.7085 18.2715 37.8168 11.4956 38.214C6.00759 38.5356 4.10459 37.0021 4.10459 37.0021L4.08691 37.0329C5.04699 38.9829 6.25295 40.7869 7.67194 42.3957C8.05378 42.8291 8.45506 43.2514 8.86342 43.6523C9.29542 44.0808 9.74829 44.4852 10.2202 44.8641C10.678 45.2323 11.1633 45.5837 11.6636 45.909C13.5825 47.0277 15.7718 47.8797 18.1716 48.438C18.7452 48.5713 19.3206 48.6841 19.8784 48.7736C25.6952 49.3189 32.3482 49.3982 37.6214 45.8727C38.1191 45.5138 38.6087 45.127 39.0772 44.7252Z" fill="black"/>
<path d="M7.91732 41.0902C8.12137 41.0902 8.28678 40.9158 8.28678 40.7006C8.28678 40.4854 8.12137 40.3109 7.91732 40.3109C7.71327 40.3109 7.54785 40.4854 7.54785 40.7006C7.54785 40.9158 7.71327 41.0902 7.91732 41.0902Z" fill="#592D3D"/>
<path d="M10.3036 41.3653C10.4481 41.3653 10.5653 41.2418 10.5653 41.0894C10.5653 40.937 10.4481 40.8135 10.3036 40.8135C10.1591 40.8135 10.042 40.937 10.042 41.0894C10.042 41.2418 10.1591 41.3653 10.3036 41.3653Z" fill="#592D3D"/>
<path d="M15.8319 45.5282C15.9764 45.5282 16.0936 45.4047 16.0936 45.2523C16.0936 45.0999 15.9764 44.9764 15.8319 44.9764C15.6874 44.9764 15.5703 45.0999 15.5703 45.2523C15.5703 45.4047 15.6874 45.5282 15.8319 45.5282Z" fill="#592D3D"/>
<path d="M25.1816 45.8393C25.326 45.8393 25.4432 45.7157 25.4432 45.5633C25.4432 45.411 25.326 45.2874 25.1816 45.2874C25.0371 45.2874 24.9199 45.411 24.9199 45.5633C24.9199 45.7157 25.0371 45.8393 25.1816 45.8393Z" fill="#592D3D"/>
<path d="M26.1357 45.2049C26.2801 45.2049 26.3973 45.0813 26.3973 44.9289C26.3973 44.7766 26.2801 44.653 26.1357 44.653C25.9912 44.653 25.874 44.7766 25.874 44.9289C25.874 45.0813 25.9912 45.2049 26.1357 45.2049Z" fill="#592D3D"/>
<path d="M31.5009 44.9289C31.6454 44.9289 31.7625 44.8053 31.7625 44.6529C31.7625 44.5005 31.6454 44.377 31.5009 44.377C31.3564 44.377 31.2393 44.5005 31.2393 44.6529C31.2393 44.8053 31.3564 44.9289 31.5009 44.9289Z" fill="#592D3D"/>
<path d="M31.7626 43.214C31.9071 43.214 32.0242 43.0905 32.0242 42.9381C32.0242 42.7857 31.9071 42.6622 31.7626 42.6622C31.6181 42.6622 31.501 42.7857 31.501 42.9381C31.501 43.0905 31.6181 43.214 31.7626 43.214Z" fill="#592D3D"/>
<path d="M15.0039 44.1453C15.2661 44.1453 15.4786 43.9212 15.4786 43.6447C15.4786 43.3683 15.2661 43.1442 15.0039 43.1442C14.7418 43.1442 14.5293 43.3683 14.5293 43.6447C14.5293 43.9212 14.7418 44.1453 15.0039 44.1453Z" fill="#592D3D"/>
<path d="M33.4548 45.397C33.5566 45.397 33.6391 45.31 33.6391 45.2027C33.6391 45.0953 33.5566 45.0083 33.4548 45.0083C33.353 45.0083 33.2705 45.0953 33.2705 45.2027C33.2705 45.31 33.353 45.397 33.4548 45.397Z" fill="#592D3D"/>
<path d="M37.2132 44.5332C37.4173 44.5332 37.5827 44.3588 37.5827 44.1436C37.5827 43.9284 37.4173 43.7539 37.2132 43.7539C37.0092 43.7539 36.8438 43.9284 36.8438 44.1436C36.8438 44.3588 37.0092 44.5332 37.2132 44.5332Z" fill="#592D3D"/>
<path d="M21.2689 47.1399C21.4729 47.1399 21.6383 46.9654 21.6383 46.7502C21.6383 46.535 21.4729 46.3606 21.2689 46.3606C21.0648 46.3606 20.8994 46.535 20.8994 46.7502C20.8994 46.9654 21.0648 47.1399 21.2689 47.1399Z" fill="#592D3D"/>
<path d="M37.2138 41.356C37.3583 41.356 37.4754 41.2325 37.4754 41.0801C37.4754 40.9277 37.3583 40.8042 37.2138 40.8042C37.0693 40.8042 36.9521 40.9277 36.9521 41.0801C36.9521 41.2325 37.0693 41.356 37.2138 41.356Z" fill="#592D3D"/>
<path d="M38.1933 42.2737C38.3378 42.2737 38.4549 42.1502 38.4549 41.9978C38.4549 41.8454 38.3378 41.7219 38.1933 41.7219C38.0488 41.7219 37.9316 41.8454 37.9316 41.9978C37.9316 42.1502 38.0488 42.2737 38.1933 42.2737Z" fill="#592D3D"/>
<path d="M4.3715 32.2531C4.28311 29.6095 5.96249 27.3723 8.19694 26.3282C8.43158 26.2269 8.67257 26.1428 8.91819 26.0765C10.1569 25.7536 11.4601 25.8425 12.6491 26.331C12.9203 26.441 13.184 26.5706 13.4384 26.7188C16.0485 28.2 17.2205 31.6826 16.2102 34.4987C16.1079 34.7826 15.9843 35.0576 15.8408 35.3209C15.4883 36.0953 14.9559 36.7633 14.2931 37.2626C14.072 37.4342 13.8402 37.5899 13.5992 37.7287C11.1792 38.9405 7.9088 38.5677 5.95807 36.666C5.76273 36.4476 5.58226 36.2149 5.41801 35.9697C5.23041 35.6898 5.06571 35.3935 4.92569 35.0841C4.62934 34.4497 4.45881 33.7583 4.42453 33.052C4.39252 32.787 4.37482 32.5203 4.3715 32.2531Z" fill="#F3AB98"/>
<path d="M4.22794 30.5423C4.13955 27.8987 5.81893 25.6614 8.05339 24.6174C8.28773 24.5161 8.52843 24.432 8.77375 24.3657C10.0123 24.0411 11.3158 24.1284 12.5055 24.6155C12.7764 24.7256 13.0399 24.8551 13.2939 25.0033C15.904 26.4846 17.0761 29.9681 16.0658 32.7832C15.9642 33.0675 15.8406 33.3425 15.6963 33.6054C15.5741 33.8579 15.435 34.1009 15.28 34.3325C15.1272 34.5621 14.9595 34.7801 14.778 34.985C14.5818 35.1898 14.3714 35.3789 14.1486 35.5509C13.9277 35.7227 13.6959 35.8784 13.4548 36.017C11.0347 37.2288 7.76436 36.8559 5.81451 34.9552C5.61912 34.7365 5.43865 34.5035 5.27446 34.2579C5.08659 33.978 4.9216 33.6818 4.78125 33.3724C4.48405 32.7404 4.31231 32.0512 4.27656 31.3468C4.24494 31.0799 4.2287 30.8112 4.22794 30.5423Z" fill="white" stroke="#592D3D" stroke-width="1.06066" stroke-miterlimit="10"/>
<path d="M10.3036 31.7406C10.9011 31.7406 11.3854 31.2298 11.3854 30.5997C11.3854 29.9695 10.9011 29.4587 10.3036 29.4587C9.70605 29.4587 9.22168 29.9695 9.22168 30.5997C9.22168 31.2298 9.70605 31.7406 10.3036 31.7406Z" fill="#592D3D"/>
<path d="M31.9923 31.5031C32.0303 30.0927 32.5818 28.6982 33.3269 27.6504C33.5172 27.3688 33.7276 27.103 33.9563 26.8552C34.9727 25.7377 36.3341 25.0397 37.7952 24.8867C39.2564 24.7338 40.7213 25.136 41.9262 26.021C42.1271 26.1687 42.3198 26.3284 42.5034 26.4992C44.8899 28.4987 45.1657 32.3849 43.8575 35.1898C43.7304 35.4127 43.5893 35.6263 43.435 35.8293C43.2305 36.0997 43.0065 36.3531 42.7651 36.5871C40.9734 38.2492 38.1857 38.65 35.9229 37.7449C35.6005 37.6167 35.2887 37.4608 34.9904 37.2788C33.4083 36.2739 32.3061 34.3807 32.0356 32.4101C31.999 32.1094 31.9845 31.8061 31.9923 31.5031Z" fill="#F3AB98"/>
<path d="M32.478 30.4331C32.5151 29.1141 33.0454 27.809 33.7614 26.8293C33.9456 26.5651 34.1482 26.3159 34.3677 26.0836C35.3621 25.0359 36.671 24.3854 38.0702 24.2436C39.4693 24.1018 40.8717 24.4774 42.0371 25.3061C42.23 25.4438 42.4153 25.5929 42.5922 25.7527C44.8903 27.6235 45.1555 31.259 43.8951 33.8831C43.7729 34.0923 43.6371 34.2923 43.4885 34.4815C43.2911 34.7347 43.0757 34.9715 42.8441 35.19C41.1197 36.7448 38.4371 37.1205 36.2601 36.2732C35.9495 36.1516 35.6489 36.0036 35.3612 35.8304C33.8391 34.8908 32.7785 33.1196 32.5177 31.2767C32.483 30.9971 32.4697 30.715 32.478 30.4331Z" fill="white" stroke="#592D3D" stroke-width="1.06066" stroke-miterlimit="10"/>
<path d="M38.6493 31.7406C39.2468 31.7406 39.7311 31.2298 39.7311 30.5997C39.7311 29.9695 39.2468 29.4587 38.6493 29.4587C38.0518 29.4587 37.5674 29.9695 37.5674 30.5997C37.5674 31.2298 38.0518 31.7406 38.6493 31.7406Z" fill="#592D3D"/>
<path fill-rule="evenodd" clip-rule="evenodd" d="M1.94043 24.3855C2.43894 25.8611 3.78775 26.6283 4.8926 26.8967C6.04695 25.01 9.89979 24.2009 12.7919 25.271C15.2491 25.7371 11.8364 22.8875 6.38636 24.4321C6.18218 24.5113 5.09943 24.7071 3.70996 23.5754C3.51639 23.4179 4.12362 24.8534 4.81482 25.4398C3.81161 25.4183 3.64721 25.4193 1.94043 24.3855Z" fill="#592D3D"/>
<path fill-rule="evenodd" clip-rule="evenodd" d="M44.1294 25.4394C44.8206 24.8568 45.4278 23.4212 45.2343 23.5751C43.8448 24.7067 42.7594 24.5072 42.5579 24.4317C37.1079 22.8843 33.6943 25.7368 36.1515 25.2707C39.0444 24.2005 42.8973 25.0097 44.0516 26.8964C45.1565 26.6279 46.5053 25.8607 47.0038 24.3851C45.297 25.4198 45.1326 25.4189 44.1294 25.4394Z" fill="#592D3D"/>
<path d="M19.8623 35.7484H28.3361" stroke="#592D3D" stroke-width="1.06066" stroke-miterlimit="10" stroke-linecap="round"/>
<path d="M16.3822 23.5204H5.71901C5.22757 23.5204 4.73613 23.5129 4.24469 23.5204H4.22348C3.76121 23.5204 3.31839 23.9492 3.3396 24.4526C3.34347 24.6985 3.43783 24.9333 3.60276 25.1072C3.76769 25.2812 3.99027 25.3807 4.22348 25.3848H14.8866C15.3772 25.3848 15.8695 25.3922 16.361 25.3848H16.3822C16.8444 25.3848 17.2873 24.956 17.2661 24.4526C17.262 24.2067 17.1675 23.9721 17.0026 23.7982C16.8378 23.6243 16.6153 23.5247 16.3822 23.5204Z" fill="#592D3D"/>
<path d="M44.5804 23.5204H33.9173C33.4258 23.5204 32.9344 23.5129 32.4429 23.5204H32.4217C31.9595 23.5204 31.5166 23.9492 31.5378 24.4526C31.5417 24.6985 31.6361 24.9333 31.801 25.1072C31.9659 25.2812 32.1885 25.3807 32.4217 25.3848H43.0849C43.5763 25.3848 44.0678 25.3922 44.5592 25.3848H44.5804C45.0427 25.3848 45.4855 24.956 45.4643 24.4526C45.4602 24.2067 45.3658 23.9721 45.2009 23.7982C45.036 23.6243 44.8136 23.5247 44.5804 23.5204Z" fill="#592D3D"/>
</svg>
