<svg width="73" height="71" viewBox="0 0 73 71" fill="none" xmlns="http://www.w3.org/2000/svg">
<path d="M46.8477 49.9831C55.3081 49.9831 53.5593 60.6323 53.6404 72.4747H46.8477V49.9831Z" fill="#FDD2B2"/>
<path d="M48.9674 56.802L46.8477 60.3564L47.9085 72.4747H50.8691C50.9409 55.6704 48.9674 56.802 48.9674 56.802Z" fill="#F3AB98"/>
<path d="M11.7276 25.8658C11.7276 12.133 22.8606 1 36.5934 1C50.3263 1 61.4593 12.133 61.4593 25.8658C61.4628 29.5661 60.6388 33.2202 59.0477 36.5609C57.4566 39.9015 55.1386 42.8441 52.2633 45.1731C51.7531 45.5882 51.2267 45.9826 50.6842 46.3561C45.0762 49.916 37.9917 49.916 31.596 49.3465C30.9752 49.2533 30.3562 49.1358 29.7419 49.0006C27.2875 48.46 24.9114 47.6257 22.7161 46.4092C22.1735 46.0748 21.6475 45.7138 21.1379 45.326C20.6257 44.936 20.1341 44.5197 19.6651 44.0787C19.2213 43.6667 18.7928 43.2385 18.3796 42.7942C14.0969 38.1984 11.7193 32.1478 11.7276 25.8658Z" fill="#FDD2B2"/>
<path d="M15.1174 38.4017C15.1826 38.5136 15.247 38.6254 15.3141 38.7354C15.3542 38.8026 15.3961 38.8678 15.4381 38.9349C15.4996 39.0347 15.5611 39.1344 15.6245 39.2323C15.6692 39.3031 15.7177 39.3721 15.7606 39.4411C15.8221 39.5343 15.8836 39.6275 15.947 39.7208C15.9946 39.7916 16.0402 39.8624 16.0924 39.9333C16.154 40.0265 16.2155 40.1123 16.2789 40.2018C16.3292 40.2735 16.3814 40.3444 16.4327 40.4162C16.484 40.4879 16.5576 40.5886 16.6191 40.6744C16.6806 40.7601 16.7263 40.817 16.7804 40.8878C16.8345 40.9587 16.9081 41.0556 16.9733 41.1395C17.0386 41.2234 17.0843 41.2803 17.1402 41.3502C17.1961 41.4201 17.2716 41.5143 17.3378 41.5954C17.404 41.6765 17.4525 41.7343 17.5103 41.8032C17.5681 41.8722 17.6445 41.9636 17.7126 42.0428C17.7806 42.122 17.831 42.1798 17.8906 42.2479L18.0976 42.4809C18.1581 42.549 18.2197 42.6152 18.284 42.6823C18.3642 42.7699 18.4453 42.8566 18.5264 42.9424L18.6392 43.0617C18.7594 43.1866 18.8806 43.3115 19.0036 43.4345L19.0279 43.4597C19.1481 43.579 19.2702 43.6974 19.3924 43.8149L19.5396 43.9547C19.6282 44.0377 19.7167 44.1206 19.8062 44.2027L19.9144 44.3015C20.0076 44.3891 20.1092 44.4749 20.2071 44.5606C20.5116 44.826 20.8223 45.0805 21.1393 45.3241C21.6482 45.7119 22.1743 46.0729 22.7174 46.4073C24.9127 47.6191 27.2851 48.4581 29.7433 48.9987C30.3576 49.1339 30.9765 49.2504 31.5974 49.3446C35.5218 49.6941 39.7073 49.8274 43.6486 49.0574C37.3815 47.2127 7.28522 36.3752 26.228 3.25861C25.9745 3.37513 25.7246 3.49538 25.4767 3.62029L25.4217 3.64732C25.308 3.70419 25.1942 3.76291 25.0814 3.82257L24.9882 3.87198C24.6377 4.05841 24.2909 4.25138 23.9507 4.45273L23.8668 4.50213C23.7587 4.56645 23.6515 4.6317 23.5443 4.69789L23.4632 4.74822C23.1301 4.95641 22.8023 5.17175 22.4797 5.39423L22.3791 5.46414C22.2774 5.53499 22.1777 5.60583 22.078 5.67761L22.0164 5.72142C21.8132 5.86995 21.6125 6.02034 21.4142 6.17259L21.3565 6.21734C21.2632 6.29005 21.17 6.36462 21.0768 6.44013L20.9677 6.52775C20.8745 6.60326 20.7813 6.67877 20.6881 6.75614C20.4914 6.91927 20.2975 7.08706 20.1064 7.25672L20.0001 7.34993L19.7494 7.57832L19.6282 7.68832C19.3622 7.9369 19.1021 8.19076 18.848 8.44991L18.7193 8.58134C18.6457 8.65778 18.572 8.73422 18.4993 8.81159C18.4564 8.85727 18.4136 8.90481 18.3716 8.94955C18.2436 9.08627 18.1174 9.22485 17.9932 9.3653C17.9512 9.41284 17.9083 9.45852 17.8664 9.50886C17.8002 9.58437 17.7349 9.66081 17.6697 9.73724L17.5289 9.9041C17.4655 9.97961 17.4022 10.0551 17.3425 10.1316C17.2922 10.1931 17.2418 10.2555 17.1924 10.318C17.0927 10.442 16.9948 10.5659 16.8978 10.6909C16.8475 10.7561 16.7972 10.8214 16.7478 10.8876C16.6984 10.9537 16.6359 11.0358 16.5809 11.1113C16.5259 11.1868 16.4812 11.2464 16.4327 11.3145C16.3842 11.3825 16.3274 11.459 16.2761 11.5317C16.1878 11.656 16.1008 11.7818 16.0151 11.9092C15.9685 11.9773 15.9219 12.0472 15.8762 12.1162C15.8305 12.1851 15.7736 12.2709 15.7233 12.3492L15.5844 12.5645L15.4278 12.8172C15.3877 12.8815 15.3476 12.9458 15.3085 13.0101C15.2255 13.1462 15.1453 13.2832 15.0652 13.4203L14.9515 13.6216C14.9011 13.7102 14.8508 13.7997 14.8014 13.8892C14.7641 13.9572 14.7268 14.0253 14.6904 14.0933C14.6308 14.2042 14.5721 14.3161 14.5133 14.428L14.4015 14.6461C14.3418 14.7654 14.2821 14.8838 14.2234 15.0041C14.1927 15.0684 14.161 15.1336 14.1302 15.1989C14.0817 15.3005 14.037 15.403 13.9876 15.5056C13.9587 15.5671 13.9307 15.6286 13.9028 15.692C13.8338 15.8455 13.7663 16.0009 13.7005 16.1581C13.68 16.2066 13.6604 16.256 13.6399 16.3044C13.5905 16.4228 13.542 16.5412 13.4945 16.6605C13.4693 16.723 13.4451 16.7854 13.4208 16.847C13.3742 16.9644 13.3276 17.0828 13.2857 17.2012C13.2661 17.2525 13.2465 17.3037 13.2279 17.355C13.1694 17.5184 13.112 17.6819 13.0554 17.8453L13.0032 18.0038C12.9622 18.1281 12.9221 18.2524 12.883 18.3767L12.827 18.5547C12.7832 18.6983 12.7403 18.8418 12.6993 18.9863C12.69 19.0171 12.6807 19.0478 12.6723 19.0795C12.6238 19.2511 12.5772 19.4232 12.5325 19.596C12.5175 19.651 12.5045 19.7069 12.4905 19.7619C12.4579 19.8915 12.4262 20.021 12.3973 20.1515L12.3581 20.3147C12.3181 20.4918 12.2789 20.6689 12.2425 20.8469L12.2286 20.9187C12.1969 21.0772 12.1658 21.2357 12.1353 21.3941C12.1251 21.451 12.1158 21.5069 12.1055 21.5638C12.0813 21.7027 12.058 21.8434 12.0365 21.9833C12.0291 22.0308 12.0207 22.0765 12.0142 22.125C11.9862 22.3067 11.961 22.4894 11.9368 22.6731L11.9228 22.7943C11.9042 22.9425 11.8874 23.0916 11.8715 23.2408C11.8659 23.2967 11.8594 23.3526 11.8538 23.4095C11.8389 23.5661 11.8249 23.7236 11.8119 23.8812C11.8119 23.9138 11.8063 23.9455 11.8044 23.9744C11.7907 24.1608 11.7786 24.3488 11.7681 24.5384C11.7681 24.5878 11.7681 24.6381 11.7615 24.6875C11.7553 24.8342 11.7497 24.9805 11.7448 25.1266C11.7448 25.1816 11.7448 25.2366 11.7448 25.2916C11.7448 25.4827 11.7373 25.6747 11.7373 25.8667C11.7373 25.8667 11.7373 25.8732 11.7373 25.876C11.7373 26.083 11.7373 26.2881 11.7448 26.4931C11.7448 26.564 11.7504 26.6348 11.7522 26.7057C11.7569 26.8427 11.7615 26.9797 11.7681 27.1168C11.7681 27.1997 11.7783 27.2818 11.783 27.3647C11.7904 27.4887 11.797 27.6127 11.8063 27.7376C11.8128 27.8308 11.8212 27.9138 11.8287 28.0014C11.8389 28.1189 11.8482 28.2363 11.8604 28.3528C11.8687 28.4461 11.8799 28.5337 11.8892 28.6241C11.9023 28.7369 11.9144 28.8506 11.9284 28.9634C11.9396 29.0566 11.9526 29.1499 11.9648 29.2384C11.9797 29.3484 11.9946 29.4593 12.0114 29.5693C12.0253 29.6625 12.0403 29.7558 12.0552 29.849C12.072 29.9571 12.0897 30.0662 12.1083 30.1743C12.1251 30.2675 12.1419 30.3607 12.1596 30.454C12.1792 30.5612 12.1997 30.6684 12.2202 30.7746C12.2407 30.8809 12.2584 30.9611 12.278 31.0543C12.3003 31.1606 12.3227 31.2659 12.3469 31.3712C12.3712 31.4766 12.388 31.5577 12.4103 31.6444C12.4346 31.7497 12.4607 31.8541 12.4868 31.9576C12.5129 32.061 12.5325 32.1393 12.5558 32.2288C12.5837 32.3332 12.6117 32.4367 12.6406 32.5402C12.6648 32.6334 12.69 32.7192 12.7161 32.8077C12.7459 32.9112 12.7767 33.0137 12.8093 33.1163C12.8419 33.2188 12.8634 33.2925 12.8913 33.381C12.9193 33.4696 12.9566 33.5852 12.9902 33.6868C13.0237 33.7884 13.0479 33.8611 13.0778 33.9478C13.1132 34.0494 13.1486 34.151 13.185 34.2526C13.2157 34.3374 13.2456 34.4232 13.2782 34.508L13.3938 34.8128C13.4264 34.8958 13.4581 34.9797 13.487 35.0627C13.528 35.1643 13.57 35.2668 13.6119 35.3684C13.6455 35.4486 13.6781 35.5297 13.7126 35.6098C13.7564 35.7143 13.8058 35.8168 13.8478 35.9203C13.8822 35.9967 13.9158 36.0741 13.9503 36.1505C13.9988 36.2586 14.05 36.3649 14.0994 36.4712L14.2001 36.6856C14.257 36.803 14.3157 36.9186 14.3744 37.0351C14.4043 37.0939 14.4322 37.1535 14.463 37.2123C14.642 37.5609 14.8284 37.9049 15.0223 38.2442C15.0493 38.288 15.0838 38.3449 15.1174 38.4017Z" fill="#F3AB98"/>
<path d="M11.7276 25.8658C11.7276 12.133 22.8606 1 36.5934 1C50.3263 1 61.4593 12.133 61.4593 25.8658C61.4628 29.5661 60.6388 33.2202 59.0477 36.5609C57.4566 39.9015 55.1386 42.8441 52.2633 45.1731C51.7531 45.5883 51.2267 45.9826 50.6842 46.3561C45.0762 49.916 37.9917 49.916 31.596 49.3465C30.9752 49.2533 30.3562 49.1358 29.7419 49.0006C27.2875 48.46 24.9114 47.6257 22.7161 46.4092C22.1735 46.0748 21.6475 45.7138 21.1379 45.326C20.6257 44.936 20.1341 44.5197 19.6651 44.0787C19.2213 43.6667 18.7928 43.2385 18.3796 42.7942C14.0969 38.1984 11.7193 32.1478 11.7276 25.8658V25.8658Z" stroke="#592D3D" stroke-width="1.11861" stroke-miterlimit="10"/>
<path d="M25.9788 49.9831C17.5174 49.9831 19.2671 60.6323 19.186 72.4747H25.9788V49.9831Z" fill="#FDD2B2"/>
<path d="M24.2175 56.802L26.34 60.3564L25.2783 72.4747H22.3205C22.245 55.6704 24.2175 56.802 24.2175 56.802Z" fill="#F3AB98"/>
<path d="M47.7312 78.9999H25.4577C25.1295 78.9997 24.8149 78.8692 24.583 78.637C24.351 78.4049 24.2207 78.0902 24.2207 77.762V51.221C24.2207 50.8929 24.351 50.5781 24.583 50.346C24.8149 50.1139 25.1295 49.9833 25.4577 49.9831H47.1989C48.4191 49.9831 48.97 50.6971 48.97 51.8363V77.7583C48.9705 77.9212 48.9388 78.0827 48.8768 78.2334C48.8147 78.3841 48.7235 78.521 48.6084 78.6364C48.4933 78.7517 48.3566 78.8432 48.2061 78.9056C48.0555 78.968 47.8941 79.0001 47.7312 78.9999Z" fill="#FDD2B2"/>
<path d="M48.6242 50.7196C48.5313 50.6053 48.4527 50.4801 48.3902 50.3467C48.1664 50.1713 47.9001 50.0584 47.6184 50.0195C47.4796 49.998 47.3393 49.9874 47.1989 49.9878H25.4577C25.1303 49.988 24.8164 50.1179 24.5846 50.3491C24.3528 50.5802 24.2219 50.8937 24.2207 51.2211C26.924 52.1924 31.9848 52.7349 36.5944 52.7349C42.4727 52.7349 46.3245 51.8633 48.6242 50.7196Z" fill="#F3AB98"/>
<path d="M46.8477 49.9831C55.3081 49.9831 53.5593 60.6323 53.6404 72.4747H48.9674" stroke="#592D3D" stroke-width="1.11861" stroke-miterlimit="10" stroke-linecap="square"/>
<path d="M25.9788 49.9831C17.5174 49.9831 19.2671 60.6323 19.186 72.4747H23.8534" stroke="#592D3D" stroke-width="1.11861" stroke-miterlimit="10" stroke-linecap="square"/>
<path d="M25.457 49.9924L47.1982 49.9831" stroke="#592D3D" stroke-width="1.11861" stroke-miterlimit="10"/>
<path d="M25.4577 78.9999H36.3288C26.154 78.9999 26.9222 57.4498 24.2207 57.4498V77.7583C24.2202 77.9211 24.2518 78.0824 24.3138 78.2329C24.3757 78.3835 24.4667 78.5204 24.5816 78.6357C24.6965 78.751 24.8331 78.8426 24.9834 78.9051C25.1337 78.9676 25.2949 78.9998 25.4577 78.9999Z" fill="#F3AB98"/>
<path d="M23.6607 59.5035C23.643 59.1614 23.6504 58.8192 23.6654 58.4781C23.6803 58.1369 23.7092 57.7929 23.7455 57.4527C23.7642 57.2812 23.7828 57.1106 23.8061 56.9391C23.8294 56.7675 23.8518 56.5969 23.8854 56.4254C23.9515 56.0704 24.064 55.7257 24.22 55.4C24.376 55.7257 24.4885 56.0704 24.5547 56.4254C24.5882 56.5969 24.6125 56.7675 24.6339 56.9391C24.6553 57.1106 24.6758 57.2812 24.6945 57.4527C24.7299 57.7948 24.7579 58.1369 24.7737 58.4781C24.7896 58.8192 24.797 59.1623 24.7793 59.5035H23.6607Z" fill="#592D3D"/>
<path d="M48.9681 60.3564V61.1021C48.9923 64.2715 48.9923 67.5341 48.9681 70.6802C48.9681 70.9478 48.9681 71.2134 48.9681 71.4754V77.7592C48.9684 77.9219 48.9367 78.0831 48.8747 78.2336C48.8127 78.384 48.7217 78.5208 48.6068 78.636C48.4919 78.7513 48.3554 78.8427 48.2052 78.9052C48.0549 78.9676 47.8938 78.9998 47.7311 78.9999H25.4576C25.1294 78.9997 24.8148 78.8691 24.5829 78.637C24.3509 78.4049 24.2206 78.0901 24.2206 77.762V72.3367C24.2206 72.1027 24.2206 71.8641 24.2206 71.6236C24.1973 68.3731 24.1973 65.1105 24.2206 61.8078V59.5034" stroke="#592D3D" stroke-width="1.11861" stroke-miterlimit="10"/>
<path d="M48.4084 60.3563C48.3907 59.9676 48.3991 59.5779 48.414 59.1883C48.4289 58.7986 48.4578 58.4099 48.4932 58.0202C48.5119 57.8254 48.5315 57.6306 48.5538 57.4358C48.5762 57.2409 48.5995 57.047 48.6331 56.8522C48.698 56.451 48.8103 56.0589 48.9677 55.6842C49.1251 56.0589 49.2374 56.451 49.3024 56.8522C49.3359 57.047 49.3602 57.2419 49.3816 57.4358C49.403 57.6297 49.4236 57.8254 49.4422 58.0202C49.4776 58.4099 49.5065 58.7986 49.5214 59.1883C49.5364 59.5779 49.5447 59.9676 49.527 60.3563H48.4084Z" fill="#592D3D"/>
<path d="M43.1826 57.7883C43.2031 56.9074 44.3217 56.5345 44.8811 57.0938C44.9719 57.1866 45.0437 57.2964 45.0921 57.4169C45.1406 57.5374 45.1649 57.6663 45.1635 57.7961C45.1622 57.926 45.1353 58.0544 45.0843 58.1739C45.0334 58.2934 44.9594 58.4016 44.8666 58.4925C44.7738 58.5834 44.664 58.6551 44.5435 58.7036C44.423 58.7521 44.2941 58.7763 44.1642 58.775C44.0344 58.7736 43.906 58.7467 43.7865 58.6958C43.667 58.6448 43.5588 58.5709 43.4679 58.4781C43.3771 58.3876 43.3052 58.2801 43.2562 58.1617C43.2072 58.0433 43.1822 57.9164 43.1826 57.7883Z" fill="#592D3D"/>
<path d="M28.0287 57.7603C28.0091 57.0006 28.848 56.6277 29.4073 56.9074C30.1531 57.187 30.1531 58.2124 29.4073 58.6785C29.0345 58.865 28.6616 58.6785 28.312 58.4473C28.2219 58.3571 28.1505 58.25 28.1018 58.1321C28.0532 58.0142 28.0283 57.8879 28.0287 57.7603Z" fill="#592D3D"/>
<path d="M36.5938 56.7927C36.6605 56.9684 36.7074 57.151 36.7337 57.3371C36.7614 57.5173 36.7767 57.6992 36.7793 57.8815L36.8073 58.9712C36.8157 59.3338 36.8269 59.6974 36.8306 60.0609L36.8464 61.1488C36.8679 62.6002 36.867 64.0535 36.8725 65.5058C36.8781 66.9581 36.8893 68.4105 36.8725 69.8628C36.8642 70.589 36.8446 71.3151 36.8231 72.0413C36.8138 72.4039 36.7961 72.7675 36.7607 73.1301C36.729 73.4965 36.6739 73.8604 36.5957 74.2198C36.5175 73.8604 36.4624 73.4965 36.4307 73.1301C36.3953 72.7675 36.3776 72.4039 36.3682 72.0413C36.3468 71.3151 36.3272 70.589 36.3188 69.8628C36.3002 68.4105 36.3188 66.9581 36.3188 65.5058C36.3188 64.0535 36.3188 62.6021 36.3356 61.1497L36.3515 60.0591L36.3822 58.9703L36.413 57.8815C36.4164 57.6992 36.432 57.5173 36.4596 57.3371C36.484 57.1512 36.529 56.9687 36.5938 56.7927Z" fill="#F3AB98"/>
<path d="M29.623 61.5683C29.7613 61.5026 29.9077 61.4555 30.0584 61.4285C30.2023 61.4014 30.3482 61.3858 30.4946 61.3818L31.3662 61.3511L33.1094 61.3129C34.2709 61.2951 35.4314 61.2905 36.5939 61.2877C37.7563 61.2849 38.9178 61.2728 40.0793 61.2877C40.66 61.2961 41.2408 61.3157 41.8225 61.3371C42.1124 61.3474 42.4032 61.3651 42.6931 61.3996C42.9875 61.4322 43.2789 61.4877 43.5647 61.5655C43.2791 61.6438 42.9876 61.699 42.6931 61.7305C42.4032 61.7659 42.1124 61.7836 41.8225 61.7929C41.2408 61.8144 40.66 61.833 40.0793 61.8414C38.9178 61.8591 37.7563 61.8414 36.5939 61.8414C35.4314 61.8414 34.27 61.8414 33.1075 61.8274C32.5268 61.8218 31.946 61.8032 31.3662 61.7808L30.4946 61.7491C30.3485 61.7452 30.2029 61.7296 30.0593 61.7025C29.9086 61.6773 29.7619 61.6322 29.623 61.5683Z" fill="#F3AB98"/>
<path d="M31.2256 64.4935C31.3357 64.441 31.4533 64.4061 31.5742 64.39C31.686 64.3743 31.799 64.3696 31.9117 64.3761C32.1345 64.3854 32.3572 64.391 32.58 64.3956C33.0256 64.4059 33.4712 64.4096 33.9168 64.4115C34.8145 64.4115 35.6963 64.4189 36.5977 64.3919C37.4991 64.3649 38.3931 64.3518 39.2899 64.3555C39.7382 64.3555 40.1866 64.3677 40.6341 64.3779C40.8593 64.3809 41.0843 64.3956 41.308 64.4217C41.538 64.4471 41.765 64.4949 41.9857 64.5644C41.7702 64.649 41.5465 64.7115 41.3183 64.7508C41.096 64.7908 40.8716 64.8176 40.6462 64.831C40.1969 64.8636 39.7476 64.8915 39.2992 64.9074C38.4006 64.941 37.5029 64.9372 36.6071 64.9493C36.1587 64.9493 35.7112 64.9698 35.2573 64.9587C34.8033 64.9475 34.354 64.9465 33.9037 64.9298C33.4535 64.913 33.0014 64.8757 32.5521 64.8291C32.3265 64.8039 32.1028 64.776 31.8781 64.7452C31.7647 64.7313 31.6531 64.705 31.5453 64.6669C31.4297 64.6277 31.3215 64.5691 31.2256 64.4935Z" fill="#F3AB98"/>
<path d="M30.9014 67.8018C31.012 67.7367 31.1321 67.6895 31.2575 67.662C31.3743 67.6348 31.4936 67.6195 31.6136 67.6163L32.3248 67.5865C32.7993 67.5697 33.2747 67.5557 33.7492 67.5482C34.6981 67.5343 35.6471 67.5343 36.5942 67.5343C37.5413 67.5343 38.4921 67.5184 39.441 67.5343C39.9155 67.5427 40.39 67.5622 40.8645 67.5837C41.1025 67.5917 41.3399 67.6122 41.5757 67.6452C41.8186 67.6785 42.0577 67.735 42.2898 67.8139C42.0585 67.8914 41.8203 67.9466 41.5785 67.9789C41.3425 68.0127 41.1047 68.0335 40.8664 68.0414C40.3919 68.0628 39.9174 68.0824 39.4429 68.0908C38.494 68.1094 37.5441 68.0964 36.5951 68.0908C35.6462 68.0852 34.6972 68.0852 33.7482 68.0675C33.2738 68.0581 32.7984 68.0414 32.3239 68.0218L31.6126 67.9873C31.4927 67.9837 31.3734 67.968 31.2565 67.9407C31.1315 67.9137 31.0116 67.8668 30.9014 67.8018Z" fill="#F3AB98"/>
<path d="M41.0547 58.3039L37.1274 55.1L44.0843 49.9926H29.1042L36.061 55.1L32.1338 58.3039L28.626 53.037V60.3528H44.8701V52.5747L41.0547 58.3039Z" fill="#F3AB98"/>
<path d="M47.4684 49.931L43.4852 49.9403C43.4646 50.3613 43.4201 50.7809 43.3519 51.1969C43.308 51.3965 43.2539 51.5938 43.1897 51.7879C42.9716 52.3929 41.5807 52.9065 41.1864 53.3474C41.0558 53.4941 40.9157 53.632 40.767 53.7604C38.4207 55.4569 34.6919 55.5501 32.4258 53.7063C32.1814 53.4929 31.9594 53.2552 31.763 52.9969C31.3687 52.4786 30.2343 51.9165 30.0758 51.2314C30.0309 51.0286 29.9973 50.8235 29.9751 50.6171C29.9526 50.4065 29.9414 50.1949 29.9416 49.9832L25.7272 49.931C25.399 49.931 25.0843 50.0613 24.8522 50.2932C24.62 50.5252 24.4895 50.8398 24.4893 51.168V77.7061C24.4895 78.0343 24.62 78.3489 24.8522 78.5809C25.0843 78.8129 25.399 78.9432 25.7272 78.9432H47.9997C48.3278 78.9432 48.6424 78.8128 48.8744 78.5808C49.1064 78.3489 49.2367 78.0342 49.2367 77.7061V51.7804C49.2367 50.645 48.6886 49.931 47.4684 49.931Z" fill="white"/>
<path d="M47.1123 49.931C53.0354 49.931 55.3639 53.9757 54.4672 75.2862C52.7203 75.9108 49.2554 75.7141 49.2554 75.7141L47.1123 49.931Z" fill="white"/>
<path d="M32.0322 58.9955L36.5486 56.7498L41.0772 58.9955L37.6225 54.9852L33.5312 55.0626L32.0322 58.9955Z" fill="#E2E2E2"/>
<path d="M49.2371 56.7499C49.2371 56.7499 47.1126 64.6306 47.437 78.5629L50.5328 75.6731L50.8665 62.8482C50.3426 56.1151 49.2371 56.7499 49.2371 56.7499Z" fill="#E2E2E2"/>
<path d="M26.2465 49.931C20.4875 49.931 17.9613 55.1931 18.7191 72.8141C20.8091 73.7379 23.957 73.3342 23.957 73.3342L26.2465 49.931Z" fill="white"/>
<path d="M18.5977 68.5121C18.6138 69.7836 18.6514 71.1346 18.7104 72.5652C20.1339 72.6333 22.7831 72.6472 24.0341 72.5652L24.4238 68.5746C23.4198 68.4571 20.1563 68.4189 18.5977 68.5121Z" fill="#E2E2E2"/>
<path d="M24.4869 56.7499L24.4403 73.3138L23.1959 73.3976C22.919 59.5035 24.4869 56.7499 24.4869 56.7499Z" fill="#E2E2E2"/>
<path d="M47.1123 49.931C53.397 49.931 54.4252 55.1773 54.4672 62.4017V75.2862C54.4672 75.2862 49.8063 75.8017 49.2554 75.7141L49.2461 62.4669" stroke="#592D3D" stroke-width="1.11861" stroke-miterlimit="10" stroke-linecap="square"/>
<path d="M26.2472 49.931C23.8487 49.931 22.1904 50.6879 21.0541 52.0228C19.241 54.1547 18.7581 57.7594 18.7236 62.1155V73.653C19.8478 73.9625 24.4435 73.3137 24.4435 73.3137L24.4892 62.2581" stroke="#592D3D" stroke-width="1.11861" stroke-miterlimit="10" stroke-linecap="square"/>
<path d="M24.7185 73.5224C24.5479 73.7657 17.8418 73.7014 17.7579 73.5224C17.674 73.3434 17.5537 70.0268 17.7579 69.7005C17.9257 69.432 24.4798 69.4889 24.7185 69.7005C24.9571 69.9121 24.889 73.2791 24.7185 73.5224Z" fill="white" stroke="#592D3D" stroke-width="1.11861" stroke-miterlimit="10" stroke-linecap="square"/>
<path d="M25.728 78.9432H36.5944C26.4159 78.9432 27.1878 57.3968 24.4863 57.3968V77.7062C24.4864 77.869 24.5187 78.0301 24.5812 78.1805C24.6437 78.3308 24.7352 78.4673 24.8506 78.5822C24.9659 78.6971 25.1028 78.7882 25.2533 78.8501C25.4039 78.912 25.5652 78.9436 25.728 78.9432Z" fill="#E2E2E2"/>
<path d="M23.9302 59.4513C23.9125 59.1092 23.9199 58.7662 23.9358 58.4259C23.9516 58.0857 23.9796 57.7417 24.015 57.4005C24.0336 57.2299 24.0532 57.0584 24.0756 56.8869C24.098 56.7154 24.1213 56.5448 24.1548 56.3742C24.2208 56.0192 24.3333 55.6744 24.4895 55.3488C24.6456 55.6744 24.7582 56.0192 24.8241 56.3742C24.8577 56.5448 24.8819 56.7163 24.9034 56.8869C24.9248 57.0575 24.9453 57.2299 24.964 57.4005C25 57.7436 25.0267 58.0854 25.0441 58.4259C25.059 58.768 25.0665 59.1111 25.0441 59.4513H23.9302Z" fill="#592D3D"/>
<path d="M49.2373 60.3005V61.0463C49.2616 64.2157 49.2616 67.4783 49.2373 70.6253C49.2373 70.8928 49.2373 71.1585 49.2373 71.4205V77.7043C49.2373 78.0323 49.107 78.347 48.875 78.579C48.643 78.8109 48.3284 78.9413 48.0003 78.9413H25.7278C25.3996 78.9413 25.0849 78.811 24.8528 78.579C24.6206 78.3471 24.4901 78.0324 24.4899 77.7043V71.5705C24.4656 68.321 24.4656 65.0583 24.4899 61.7547V59.4513" stroke="#592D3D" stroke-width="1.11861" stroke-miterlimit="10"/>
<path d="M54.9972 69.7005C55.2042 69.9112 55.1454 73.2791 54.9972 73.5224C54.849 73.7657 49.0313 73.7014 48.9595 73.5224C48.8877 73.3435 48.7824 70.0268 48.9595 69.7005C48.9847 69.6539 49.172 69.6175 49.4675 69.5905" fill="white"/>
<path d="M54.9972 69.7005C55.2042 69.9112 55.1454 73.2791 54.9972 73.5224C54.849 73.7657 49.0313 73.7014 48.9595 73.5224C48.8877 73.3435 48.7824 70.0268 48.9595 69.7005C48.9847 69.6539 49.172 69.6175 49.4675 69.5905" stroke="#592D3D" stroke-width="1.11861" stroke-miterlimit="10" stroke-linecap="square"/>
<path d="M53.2725 69.5197C53.6267 69.5476 54.6707 69.4097 54.7099 69.4488L53.2725 69.5197Z" fill="white"/>
<path d="M53.2725 69.5197C53.3268 69.4492 53.3853 69.3819 53.4477 69.3184C53.4985 69.2675 53.5541 69.2217 53.6136 69.1814C53.6673 69.1458 53.7237 69.1146 53.7824 69.0881C53.8392 69.0611 53.8961 69.0378 53.9529 69.0145C54.0675 68.9682 54.1857 68.9314 54.3062 68.9045C54.3677 68.8909 54.43 68.8813 54.4927 68.8756C54.5262 68.8756 54.5607 68.8756 54.6017 68.8756C54.6251 68.8756 54.6446 68.8756 54.6782 68.8756C54.6894 68.8756 54.7192 68.8756 54.7444 68.8821H54.777L54.8227 68.8924L54.846 68.898L54.8646 68.9036L54.9178 68.9232C54.9874 68.9536 55.0507 68.9969 55.1042 69.0509L55.4957 69.4508L54.6894 70.2412L54.3053 69.8339C54.3556 69.8866 54.4162 69.9285 54.4834 69.9569C54.5001 69.9644 54.5169 69.97 54.5337 69.9756H54.5495L54.5673 69.9802C54.5788 69.984 54.5907 69.9868 54.6027 69.9886H54.6204C54.6297 69.9886 54.6446 69.9886 54.6409 69.9886C54.6372 69.9886 54.6344 69.9886 54.6269 69.9886H54.557C54.5039 69.9886 54.4461 69.9886 54.3873 69.9886C54.2645 69.9814 54.1423 69.9649 54.0219 69.9392C53.9595 69.9252 53.897 69.9113 53.8355 69.8935C53.7716 69.8765 53.7092 69.854 53.6491 69.8264C53.5796 69.7936 53.5145 69.7522 53.4552 69.7034C53.3843 69.653 53.3225 69.5909 53.2725 69.5197Z" fill="#592D3D"/>
<path d="M45.2174 50.4417L38.2568 55.551L42.185 58.7558L47.724 50.4371L45.2174 50.4417Z" fill="#E2E2E2"/>
<path d="M48.6779 60.3004C48.6602 59.9107 48.6686 59.5211 48.6835 59.1324C48.6985 58.7436 48.7274 58.3531 48.7637 57.9644C48.7823 57.7695 48.801 57.5747 48.8234 57.3799C48.8457 57.185 48.869 56.9902 48.9035 56.7954C48.9679 56.3942 49.08 56.0021 49.2373 55.6274C49.3952 56.0019 49.5076 56.394 49.5719 56.7954C49.6055 56.9902 49.6306 57.185 49.6511 57.3799C49.6716 57.5747 49.6931 57.7695 49.7117 57.9644C49.7481 58.3531 49.7761 58.7427 49.791 59.1324C49.8059 59.522 49.8152 59.9107 49.7966 60.3004H48.6779Z" fill="#592D3D"/>
<path d="M25.7275 49.9403L47.4687 49.931" stroke="#592D3D" stroke-width="1.11861" stroke-miterlimit="10"/>
<path d="M39.3339 57.145L37.2505 55.0626L35.168 57.145L36.1915 58.1686L35.2854 68.1084L37.2188 69.6157L39.2155 68.1084L38.3103 58.1686L39.3339 57.145Z" fill="#E2E2E2"/>
<path d="M36.5977 55.0626V78.9431" stroke="#592D3D" stroke-width="0.559307" stroke-miterlimit="10" stroke-linecap="square"/>
<path d="M36.5981 55.0626L38.6815 56.4925L36.5981 58.5759L34.5156 56.4925L36.5981 55.0626Z" fill="#633749"/>
<path d="M29.1013 49.9906C29.1013 49.9906 33.1348 53.6578 36.061 55.0999C34.6366 57.4499 32.1337 58.3056 32.1337 58.3056L26.5938 49.9878L29.1013 49.9906Z" fill="white" stroke="#592D3D" stroke-width="1.11861" stroke-miterlimit="10"/>
<path d="M44.0866 49.9906C44.0866 49.9906 40.4157 53.8311 37.127 55.0998C38.0591 56.9903 41.0542 58.3037 41.0542 58.3037L46.5942 49.9859L44.0866 49.9906Z" fill="white" stroke="#592D3D" stroke-width="1.11861" stroke-miterlimit="10"/>
<path d="M34.6328 67.4559L36.5662 68.9632L38.5629 67.4559L37.6307 57.2224H35.565L34.6328 67.4559Z" fill="#633749"/>
<path d="M34.5156 56.4926L35.5392 57.5161L34.6331 67.4559L36.5664 68.9632L38.5631 67.4559L37.658 57.5161L38.6815 56.4926" stroke="#592D3D" stroke-width="0.745742" stroke-miterlimit="10"/>
<path d="M49.4678 69.5905C50.1678 69.5243 51.4729 69.5076 52.6372 69.5281L49.4678 69.5905Z" fill="white"/>
<path d="M49.4153 69.0332C49.6882 68.9947 49.9639 68.98 50.2394 68.9894C50.5097 68.9959 50.7782 69.0173 51.0466 69.05C51.1799 69.0667 51.3142 69.0844 51.4475 69.1068C51.582 69.1265 51.7155 69.1529 51.8474 69.1861C52.1289 69.2545 52.3968 69.3702 52.6397 69.5282C52.3933 69.677 52.1254 69.787 51.8455 69.8544C51.7141 69.888 51.5826 69.9132 51.4512 69.9346C51.3198 69.956 51.1892 69.9784 51.0587 69.9989C50.7977 70.0381 50.5377 70.0716 50.2804 70.0921C50.0231 70.1126 49.7658 70.1387 49.5197 70.1425L48.9604 70.1518L48.8672 69.1143L49.4153 69.0332Z" fill="#592D3D"/>
<path d="M38.0637 71.3309C38.3108 71.3309 38.5111 71.1305 38.5111 70.8834C38.5111 70.6363 38.3108 70.436 38.0637 70.436C37.8165 70.436 37.6162 70.6363 37.6162 70.8834C37.6162 71.1305 37.8165 71.3309 38.0637 71.3309Z" fill="#592D3D"/>
<path d="M35.7444 57.2046C35.7397 57.199 35.7444 57.2046 35.7444 57.2046L35.7509 57.2093C35.7566 57.2124 35.7619 57.2161 35.7667 57.2205L35.8022 57.2475C35.8255 57.2671 35.8506 57.2867 35.8749 57.3081C35.9243 57.3501 35.9765 57.3948 36.0333 57.4377C36.0902 57.4806 36.1517 57.5216 36.2198 57.57C36.3086 57.6369 36.393 57.7094 36.4724 57.7872C36.4059 57.8957 36.3022 57.9763 36.1806 58.0138C36.0685 58.045 35.9512 58.0535 35.8357 58.0389C35.7184 58.0275 35.6039 57.996 35.4973 57.9457C35.4431 57.9198 35.3916 57.8886 35.3435 57.8525C35.3185 57.8343 35.2946 57.8147 35.2718 57.7938C35.2606 57.7835 35.2484 57.7723 35.2373 57.7602L35.2186 57.7406L35.1953 57.7136L35.7444 57.2046Z" fill="#592D3D"/>
<path opacity="0.15" d="M51.8865 44.7257C54.5255 42.5816 56.9585 39.6248 58.4751 36.6996C58.4696 36.6903 58.1498 37.0147 58.1442 37.0054C58.1386 36.996 56.1801 38.756 50.5451 38.7299C43.4326 38.701 44.9017 36.7089 36.3285 36.7089C28.7387 36.7089 29.944 37.8173 22.7979 38.2144C17.01 38.536 15.003 37.0026 15.003 37.0026L14.9844 37.0333C15.9969 38.9833 17.2688 40.7873 18.7653 42.3961C19.168 42.8296 19.5912 43.2519 20.0219 43.6527C20.4775 44.0812 20.9551 44.4857 21.4528 44.8645C21.9356 45.2328 22.4474 45.5842 22.975 45.9095C24.9988 47.0281 27.3078 47.8801 29.8386 48.4385C30.4436 48.5718 31.0505 48.6846 31.6387 48.7741C37.7733 49.3194 44.7898 49.3987 50.3512 45.8732C50.876 45.5143 51.3925 45.1274 51.8865 44.7257Z" fill="black"/>
<path d="M19.0234 41.0903C19.2386 41.0903 19.4131 40.9158 19.4131 40.7006C19.4131 40.4854 19.2386 40.311 19.0234 40.311C18.8082 40.311 18.6338 40.4854 18.6338 40.7006C18.6338 40.9158 18.8082 41.0903 19.0234 41.0903Z" fill="#592D3D"/>
<path d="M21.5406 41.3661C21.693 41.3661 21.8165 41.2425 21.8165 41.0901C21.8165 40.9377 21.693 40.8142 21.5406 40.8142C21.3882 40.8142 21.2646 40.9377 21.2646 41.0901C21.2646 41.2425 21.3882 41.3661 21.5406 41.3661Z" fill="#592D3D"/>
<path d="M27.3707 45.5292C27.523 45.5292 27.6466 45.4057 27.6466 45.2533C27.6466 45.1009 27.523 44.9774 27.3707 44.9774C27.2183 44.9774 27.0947 45.1009 27.0947 45.2533C27.0947 45.4057 27.2183 45.5292 27.3707 45.5292Z" fill="#592D3D"/>
<path d="M37.231 45.8398C37.3834 45.8398 37.5069 45.7162 37.5069 45.5638C37.5069 45.4114 37.3834 45.2879 37.231 45.2879C37.0786 45.2879 36.9551 45.4114 36.9551 45.5638C36.9551 45.7162 37.0786 45.8398 37.231 45.8398Z" fill="#592D3D"/>
<path d="M38.2378 45.2048C38.3902 45.2048 38.5138 45.0813 38.5138 44.9289C38.5138 44.7765 38.3902 44.653 38.2378 44.653C38.0855 44.653 37.9619 44.7765 37.9619 44.9289C37.9619 45.0813 38.0855 45.2048 38.2378 45.2048Z" fill="#592D3D"/>
<path d="M43.896 44.9289C44.0484 44.9289 44.172 44.8054 44.172 44.653C44.172 44.5006 44.0484 44.3771 43.896 44.3771C43.7437 44.3771 43.6201 44.5006 43.6201 44.653C43.6201 44.8054 43.7437 44.9289 43.896 44.9289Z" fill="#592D3D"/>
<path d="M44.1714 43.2147C44.3238 43.2147 44.4474 43.0912 44.4474 42.9388C44.4474 42.7864 44.3238 42.6628 44.1714 42.6628C44.019 42.6628 43.8955 42.7864 43.8955 42.9388C43.8955 43.0912 44.019 43.2147 44.1714 43.2147Z" fill="#592D3D"/>
<path d="M26.4976 44.1449C26.7741 44.1449 26.9982 43.9208 26.9982 43.6443C26.9982 43.3679 26.7741 43.1437 26.4976 43.1437C26.2212 43.1437 25.9971 43.3679 25.9971 43.6443C25.9971 43.9208 26.2212 44.1449 26.4976 44.1449Z" fill="#592D3D"/>
<path d="M45.9565 45.3986C46.0641 45.3986 46.1514 45.3114 46.1514 45.2038C46.1514 45.0962 46.0641 45.009 45.9565 45.009C45.8489 45.009 45.7617 45.0962 45.7617 45.2038C45.7617 45.3114 45.8489 45.3986 45.9565 45.3986Z" fill="#592D3D"/>
<path d="M49.9209 44.5337C50.1361 44.5337 50.3105 44.3592 50.3105 44.144C50.3105 43.9288 50.1361 43.7544 49.9209 43.7544C49.7057 43.7544 49.5312 43.9288 49.5312 44.144C49.5312 44.3592 49.7057 44.5337 49.9209 44.5337Z" fill="#592D3D"/>
<path d="M33.1035 47.14C33.3187 47.14 33.4932 46.9656 33.4932 46.7504C33.4932 46.5352 33.3187 46.3607 33.1035 46.3607C32.8883 46.3607 32.7139 46.5352 32.7139 46.7504C32.7139 46.9656 32.8883 47.14 33.1035 47.14Z" fill="#592D3D"/>
<path d="M49.9205 41.3568C50.0728 41.3568 50.1964 41.2332 50.1964 41.0809C50.1964 40.9285 50.0728 40.8049 49.9205 40.8049C49.7681 40.8049 49.6445 40.9285 49.6445 41.0809C49.6445 41.2332 49.7681 41.3568 49.9205 41.3568Z" fill="#592D3D"/>
<path d="M50.9546 42.2741C51.107 42.2741 51.2306 42.1505 51.2306 41.9982C51.2306 41.8458 51.107 41.7222 50.9546 41.7222C50.8022 41.7222 50.6787 41.8458 50.6787 41.9982C50.6787 42.1505 50.8022 42.2741 50.9546 42.2741Z" fill="#592D3D"/>
<path d="M15.2848 32.2541C15.1915 29.6104 16.9627 27.3732 19.3192 26.3291C19.5667 26.2279 19.8209 26.1438 20.0799 26.0775C21.3863 25.7545 22.7607 25.8434 24.0146 26.3319C24.3007 26.442 24.5788 26.5715 24.8471 26.7197C27.5998 28.201 28.8358 31.6836 27.7704 34.4997C27.6624 34.7836 27.5321 35.0585 27.3807 35.3219C27.0089 36.0963 26.4475 36.7642 25.7485 37.2636C25.5153 37.4352 25.2708 37.5909 25.0167 37.7297C22.4644 38.9415 19.0153 38.5686 16.958 36.667C16.752 36.4486 16.5617 36.2159 16.3885 35.9707C16.1906 35.6907 16.0169 35.3945 15.8692 35.0851C15.5567 34.4507 15.3769 33.7592 15.3407 33.0529C15.3069 32.7879 15.2883 32.5212 15.2848 32.2541Z" fill="#F3AB98"/>
<path d="M15.1324 30.5435C15.0392 27.8998 16.8103 25.6626 19.1669 24.6186C19.414 24.5173 19.6679 24.4332 19.9266 24.3669C21.2329 24.0423 22.6076 24.1295 23.8623 24.6167C24.148 24.7267 24.4258 24.8563 24.6938 25.0045C27.4465 26.4857 28.6826 29.9693 27.6171 32.7844C27.5099 33.0687 27.3796 33.3437 27.2274 33.6066C27.0986 33.8591 26.9519 34.1021 26.7884 34.3337C26.6273 34.5633 26.4503 34.7813 26.2589 34.9863C26.052 35.191 25.8301 35.3802 25.5952 35.5521C25.3621 35.7239 25.1177 35.8796 24.8634 36.0182C22.3111 37.23 18.8621 36.8571 16.8057 34.9564C16.5996 34.7377 16.4093 34.5047 16.2361 34.2592C16.038 33.9792 15.864 33.683 15.716 33.3736C15.4025 32.7416 15.2214 32.0524 15.1837 31.348C15.1503 31.0811 15.1332 30.8124 15.1324 30.5435Z" fill="white" stroke="#592D3D" stroke-width="1.11861" stroke-miterlimit="10"/>
<path d="M21.5404 31.7413C22.1706 31.7413 22.6814 31.2304 22.6814 30.6003C22.6814 29.9701 22.1706 29.4593 21.5404 29.4593C20.9103 29.4593 20.3994 29.9701 20.3994 30.6003C20.3994 31.2304 20.9103 31.7413 21.5404 31.7413Z" fill="#592D3D"/>
<path d="M44.4143 31.5027C44.4544 30.0923 45.036 28.6977 45.8219 27.65C46.0225 27.3684 46.2444 27.1026 46.4856 26.8548C47.5576 25.7373 48.9933 25.0392 50.5343 24.8863C52.0753 24.7333 53.6203 25.1356 54.891 26.0205C55.1028 26.1683 55.306 26.328 55.4997 26.4987C58.0166 28.4983 58.3075 32.3845 56.9278 35.1894C56.7938 35.4123 56.6449 35.626 56.4822 35.8289C56.2666 36.0993 56.0303 36.3527 55.7757 36.5868C53.8861 38.2488 50.946 38.6497 48.5597 37.7445C48.2197 37.6163 47.8908 37.4604 47.5762 37.2784C45.9076 36.2736 44.7452 34.3803 44.4599 32.4097C44.4213 32.109 44.406 31.8057 44.4143 31.5027Z" fill="#F3AB98"/>
<path d="M44.9263 30.4336C44.9655 29.1146 45.5248 27.8095 46.2798 26.8298C46.4741 26.5656 46.6879 26.3164 46.9193 26.0841C47.9681 25.0364 49.3485 24.3859 50.8241 24.2441C52.2997 24.1023 53.7787 24.4779 55.0078 25.3066C55.2112 25.4443 55.4067 25.5934 55.5932 25.7532C58.0169 27.624 58.2966 31.2595 56.9673 33.8836C56.8385 34.0929 56.6952 34.2928 56.5385 34.4821C56.3303 34.7352 56.1032 34.9721 55.8589 35.1905C54.0402 36.7454 51.2111 37.1211 48.9151 36.2737C48.5876 36.1522 48.2705 36.0041 47.9671 35.8309C46.3619 34.8913 45.2433 33.1202 44.9683 31.2772C44.9317 30.9976 44.9176 30.7155 44.9263 30.4336Z" fill="white" stroke="#592D3D" stroke-width="1.11861" stroke-miterlimit="10"/>
<path d="M51.4349 31.7413C52.0651 31.7413 52.5759 31.2304 52.5759 30.6003C52.5759 29.9701 52.0651 29.4593 51.4349 29.4593C50.8048 29.4593 50.2939 29.9701 50.2939 30.6003C50.2939 31.2304 50.8048 31.7413 51.4349 31.7413Z" fill="#592D3D"/>
<path fill-rule="evenodd" clip-rule="evenodd" d="M12.7197 24.3862C13.2455 25.8618 14.668 26.629 15.8332 26.8975C17.0506 25.0108 21.114 24.2016 24.1641 25.2718C26.7555 25.7379 23.1564 22.8882 17.4086 24.4328C17.1932 24.5121 16.0513 24.7078 14.5859 23.5761C14.3818 23.4186 15.0222 24.8542 15.7512 25.4405C14.6931 25.4191 14.5198 25.42 12.7197 24.3862Z" fill="#592D3D"/>
<path fill-rule="evenodd" clip-rule="evenodd" d="M57.2151 25.4401C57.9441 24.8575 58.5845 23.422 58.3803 23.5758C56.9149 24.7075 55.7702 24.508 55.5577 24.4325C49.8099 22.885 46.2098 25.7375 48.8013 25.2714C51.8523 24.2013 55.9156 25.0104 57.1331 26.8971C58.2983 26.6287 59.7208 25.8615 60.2465 24.3859C58.4465 25.4206 58.2731 25.4196 57.2151 25.4401Z" fill="#592D3D"/>
<path d="M31.6221 35.7488H40.5589" stroke="#592D3D" stroke-width="1.11861" stroke-miterlimit="10" stroke-linecap="round"/>
<path d="M29.623 7.25498C30.6727 6.64418 31.7982 6.17406 32.9705 5.85672C34.1515 5.53373 35.3695 5.36608 36.5939 5.358C37.8216 5.35019 39.0446 5.5095 40.2294 5.83155C41.4038 6.14654 42.5279 6.62575 43.5684 7.25498C42.4311 6.90145 41.2734 6.61723 40.1017 6.4039C38.9453 6.1993 37.7729 6.09884 36.5985 6.10374C35.4247 6.1124 34.2537 6.22093 33.0982 6.42814C31.9262 6.64304 30.7662 6.91903 29.623 7.25498Z" fill="#592D3D"/>
<path d="M29.623 9.86026C30.6727 9.24945 31.7982 8.77933 32.9705 8.46199C34.1518 8.14103 35.3698 7.97496 36.5939 7.96794C37.8212 7.95769 39.0443 8.11449 40.2294 8.43403C41.4038 8.74903 42.5279 9.22823 43.5684 9.85746C42.431 9.50436 41.2733 9.22016 40.1017 9.00639C38.9465 8.80169 37.7754 8.70092 36.6023 8.70529C35.4284 8.71395 34.2574 8.82248 33.1019 9.02969C31.9287 9.24613 30.7675 9.52336 29.623 9.86026Z" fill="#592D3D"/>
<path d="M43.5647 9.87258C42.4205 10.119 41.2625 10.2958 40.097 10.4021C38.933 10.5139 37.7653 10.5726 36.5938 10.5782C35.4239 10.5782 34.2541 10.5344 33.0888 10.4254C31.9219 10.3223 30.7635 10.1382 29.6221 9.87444C30.7957 9.83809 31.9525 9.84275 33.1168 9.83995L36.5938 9.83249L40.0699 9.82037C41.2296 9.82037 42.392 9.81944 43.5647 9.87258Z" fill="#F3AB98"/>
<path d="M43.5647 7.26611C42.4177 7.49398 41.2587 7.65645 40.0933 7.75271C38.9299 7.854 37.7638 7.90714 36.5948 7.91211C35.4268 7.91677 34.2588 7.87296 33.0935 7.77415C31.9269 7.68063 30.7676 7.51092 29.623 7.26611C30.7948 7.21111 31.9535 7.20086 33.1159 7.18781L36.5939 7.16637C37.7516 7.16637 38.9103 7.16077 40.0718 7.16637C41.2333 7.17196 42.3939 7.19433 43.5647 7.26611Z" fill="#F3AB98"/>
<path d="M71.1876 25.866C62.4009 25.3132 62.9509 9.75605 57.755 12.8024L57.7941 12.8667C57.6934 13.6777 56.7603 22.1997 60.2262 33.7568C60.2644 33.6403 60.3017 33.5229 60.339 33.4054C60.5254 33.9088 61.9237 37.0502 67.4058 35.5643C63.623 32.3744 64.4722 28.5478 64.4722 28.5478C64.4722 28.5478 68.6251 28.6709 71.1876 25.866Z" fill="#A56941"/>
<path d="M71.1876 25.866C62.4009 25.3132 62.9509 9.75605 57.755 12.8024L57.7941 12.8667C57.6934 13.6777 56.7603 22.1997 60.2262 33.7568C60.2644 33.6403 60.3017 33.5229 60.339 33.4054C60.5254 33.9088 61.9237 37.0502 67.4058 35.5643C63.623 32.3744 64.4722 28.5478 64.4722 28.5478C64.4722 28.5478 68.6251 28.6709 71.1876 25.866Z" stroke="#592D3D" stroke-width="1.11861" stroke-miterlimit="10"/>
<path d="M61.4597 25.8658C61.5669 26.5333 61.6143 27.209 61.6014 27.8849C61.5866 28.561 61.5368 29.2358 61.4522 29.9068C61.4087 30.2424 61.3584 30.5773 61.3012 30.9117C61.2406 31.2445 61.1753 31.5772 61.0998 31.9082C60.9509 32.5708 60.7642 33.2244 60.5405 33.8657L59.833 33.629C60.0297 33.0016 60.218 32.3715 60.3849 31.7348L60.5079 31.2566L60.6216 30.7756L60.7307 30.2936L60.8304 29.8089C60.9619 29.162 61.0635 28.5094 61.1595 27.8513C61.2555 27.1932 61.3459 26.5332 61.4597 25.8658Z" fill="#592D3D"/>
<path d="M58.1133 12.6718C58.4954 13.2746 58.8424 13.8989 59.1527 14.5417C59.23 14.702 59.3037 14.8642 59.3782 15.0264L59.5926 15.5158L59.7931 16.0117L59.9795 16.5114C60.2227 17.1795 60.4293 17.8604 60.5985 18.551C60.7659 19.2418 60.871 19.9463 60.9126 20.6559C60.6553 19.9931 60.4195 19.334 60.1725 18.6806C59.9254 18.0271 59.6765 17.3802 59.3932 16.7454L59.1797 16.2709L58.9569 15.8048L58.7285 15.3387L58.4908 14.8773C58.1711 14.263 57.8299 13.6655 57.4775 13.0661L58.1133 12.6718Z" fill="#592D3D"/>
<path d="M2 25.866C10.7867 25.3132 10.2367 9.75605 15.4327 12.8024L15.3935 12.8667C15.4942 13.6777 16.4273 22.1997 12.9615 33.7568C12.9233 33.6403 12.886 33.5229 12.8487 33.4054C12.6623 33.9088 11.264 37.0502 5.78185 35.5643C9.56463 32.3744 8.71541 28.5478 8.71541 28.5478C8.71541 28.5478 4.56256 28.6709 2 25.866Z" fill="#A56941"/>
<path d="M2 25.866C10.7867 25.3132 10.2367 9.75605 15.4327 12.8024L15.3935 12.8667C15.4942 13.6777 16.4273 22.1997 12.9615 33.7568C12.9233 33.6403 12.886 33.5229 12.8487 33.4054C12.6623 33.9088 11.264 37.0502 5.78185 35.5643C9.56463 32.3744 8.71541 28.5478 8.71541 28.5478C8.71541 28.5478 4.56256 28.6709 2 25.866Z" stroke="#592D3D" stroke-width="1.11861" stroke-miterlimit="10"/>
<path d="M11.728 25.8658C11.8417 26.5332 11.9312 27.1932 12.03 27.8495C12.1288 28.5057 12.2277 29.1592 12.3591 29.807L12.4588 30.2918L12.5679 30.7737L12.6816 31.2547L12.8047 31.7329C12.9715 32.3696 13.1589 32.9997 13.3565 33.6271L12.649 33.8639C12.4253 33.2226 12.2386 32.569 12.0897 31.9063C12.0142 31.5754 11.9489 31.2426 11.8883 30.9098C11.8278 30.577 11.7811 30.2405 11.7373 29.9049C11.6527 29.234 11.603 28.5591 11.5882 27.883C11.5748 27.2078 11.6215 26.5327 11.728 25.8658Z" fill="#592D3D"/>
<path d="M15.7133 13.0623C15.3609 13.658 15.0197 14.2593 14.7 14.8736L14.4595 15.3322L14.2311 15.7983L14.0083 16.2644L13.7948 16.7389C13.5152 17.3737 13.2598 18.0215 13.0155 18.6741C12.7713 19.3266 12.5327 19.9866 12.2754 20.6493C12.317 19.9397 12.4221 19.2353 12.5895 18.5445C12.7587 17.8539 12.9653 17.173 13.2085 16.5049L13.3949 16.0052L13.5972 15.5186L13.8116 15.0292C13.8862 14.867 13.9598 14.7048 14.0372 14.5445C14.3468 13.9018 14.6932 13.2774 15.0747 12.6746L15.7133 13.0623Z" fill="#592D3D"/>
<path d="M8.46939 28.555L8.32025 27.1017C8.29601 26.8538 8.26525 26.6058 8.2466 26.356C8.24008 26.2292 8.23262 26.1024 8.23635 25.971C8.23571 25.8372 8.24506 25.7035 8.26431 25.5711C8.43402 25.7762 8.5737 26.0044 8.67913 26.2488C8.73227 26.3672 8.77795 26.4884 8.81989 26.6105C8.86184 26.7326 8.90192 26.8556 8.94014 26.9834C8.97836 27.1111 9.01099 27.2322 9.04268 27.3562C9.07438 27.4802 9.10141 27.6098 9.12565 27.7375C9.14988 27.8652 9.17132 27.9938 9.18624 28.1243C9.20382 28.2585 9.21347 28.3936 9.21514 28.5289L8.46939 28.555Z" fill="#592D3D"/>
<path d="M63.9678 28.4172C63.976 28.2082 64.0035 28.0004 64.0498 27.7964C64.0722 27.6966 64.0992 27.5969 64.1262 27.4981C64.1533 27.3993 64.1878 27.3014 64.2195 27.2045C64.2867 27.0092 64.3703 26.8199 64.4693 26.6386C64.5742 26.4499 64.7151 26.2836 64.8841 26.1492C64.9083 26.3559 64.9117 26.5645 64.8944 26.7719C64.886 26.8651 64.8776 26.9668 64.8655 27.0609L64.8394 27.348L64.7806 27.9166C64.7601 28.1031 64.7405 28.2979 64.7135 28.4694L63.9678 28.4172Z" fill="#592D3D"/>
<path d="M27.9523 23.5205H16.7065C16.1882 23.5205 15.6699 23.513 15.1516 23.5205H15.1292C14.6417 23.5205 14.1747 23.9493 14.1971 24.4526C14.2011 24.6986 14.3007 24.9333 14.4746 25.1073C14.6485 25.2812 14.8833 25.3807 15.1292 25.3848H26.375C26.8924 25.3848 27.4116 25.3923 27.9299 25.3848H27.9523C28.4398 25.3848 28.9068 24.956 28.8845 24.4526C28.8802 24.2068 28.7806 23.9722 28.6067 23.7983C28.4328 23.6244 28.1982 23.5248 27.9523 23.5205Z" fill="#592D3D"/>
<path d="M57.6915 23.5205H46.4457C45.9275 23.5205 45.4092 23.513 44.8909 23.5205H44.8685C44.381 23.5205 43.9139 23.9493 43.9363 24.4526C43.9404 24.6986 44.0399 24.9333 44.2139 25.1073C44.3878 25.2812 44.6225 25.3807 44.8685 25.3848H56.1143C56.6326 25.3848 57.1509 25.3923 57.6692 25.3848H57.6915C58.1791 25.3848 58.6461 24.956 58.6237 24.4526C58.6194 24.2068 58.5198 23.9722 58.3459 23.7983C58.172 23.6244 57.9374 23.5248 57.6915 23.5205Z" fill="#592D3D"/>
<path opacity="0.2" d="M25.6789 37.8443C27.4211 37.8443 28.8334 36.4319 28.8334 34.6898C28.8334 32.9476 27.4211 31.5353 25.6789 31.5353C23.9367 31.5353 22.5244 32.9476 22.5244 34.6898C22.5244 36.4319 23.9367 37.8443 25.6789 37.8443Z" fill="white"/>
<path opacity="0.4" d="M25.0234 38.0773L29.0607 34.1864C28.8459 33.7739 28.6104 33.3725 28.355 32.9839L24.0791 37.105C24.2562 37.229 24.823 37.9915 25.0234 38.0773Z" fill="white"/>
<path d="M25.6789 37.8443C27.4211 37.8443 28.8334 36.4319 28.8334 34.6898C28.8334 32.9476 27.4211 31.5353 25.6789 31.5353C23.9367 31.5353 22.5244 32.9476 22.5244 34.6898C22.5244 36.4319 23.9367 37.8443 25.6789 37.8443Z" stroke="#592D3D" stroke-width="1.11861" stroke-miterlimit="10"/>
<path d="M25.222 33.3671C25.3357 33.7241 24.8957 33.9991 24.5695 34.0541C24.2395 34.0541 24.0195 33.8341 23.9095 33.5591C23.8545 33.2841 23.9095 33.0091 24.1295 32.8441C24.4045 32.7341 24.7895 32.6241 25.0337 32.9066C25.0943 32.9668 25.1422 33.0386 25.1745 33.1177C25.2069 33.1968 25.223 33.2816 25.222 33.3671Z" fill="white"/>
<path d="M25.8111 33.1565C25.8036 33.2054 25.7794 33.2502 25.7426 33.2832C25.7057 33.3162 25.6586 33.3354 25.6091 33.3375C25.5597 33.3396 25.5111 33.3244 25.4716 33.2947C25.4321 33.2649 25.4042 33.2223 25.3926 33.1742C25.3926 33.0092 25.4476 32.9542 25.6042 32.9486C25.6591 32.9486 25.7117 32.9704 25.7505 33.0092C25.7893 33.048 25.8111 33.1007 25.8111 33.1556V33.1565Z" fill="white"/>
<path opacity="0.2" d="M47.3332 37.8443C49.0754 37.8443 50.4877 36.4319 50.4877 34.6898C50.4877 32.9476 49.0754 31.5353 47.3332 31.5353C45.591 31.5353 44.1787 32.9476 44.1787 34.6898C44.1787 36.4319 45.591 37.8443 47.3332 37.8443Z" fill="white"/>
<path opacity="0.4" d="M46.8593 37.8079L50.4519 34.2153C50.4324 34.0876 49.901 33.4602 49.8656 33.3353L45.9766 37.2262C46.1024 37.2607 46.7316 37.7893 46.8593 37.8079Z" fill="white"/>
<path d="M47.3332 37.8443C49.0754 37.8443 50.4877 36.4319 50.4877 34.6898C50.4877 32.9476 49.0754 31.5353 47.3332 31.5353C45.591 31.5353 44.1787 32.9476 44.1787 34.6898C44.1787 36.4319 45.591 37.8443 47.3332 37.8443Z" stroke="#592D3D" stroke-width="1.11861" stroke-miterlimit="10"/>
<path d="M46.6022 33.3148C46.6954 33.6178 46.3226 33.8508 46.0429 33.8974C45.7633 33.8974 45.5768 33.711 45.4836 33.478C45.437 33.2449 45.4836 33.0119 45.67 32.872C45.9031 32.7788 46.2294 32.6856 46.4372 32.9252C46.4893 32.9759 46.5307 33.0364 46.5591 33.1034C46.5874 33.1703 46.6021 33.2422 46.6022 33.3148Z" fill="white"/>
<path d="M47.0993 33.1368C47.0928 33.178 47.0722 33.2157 47.041 33.2435C47.0099 33.2713 46.97 33.2874 46.9283 33.2892C46.8866 33.291 46.8456 33.2782 46.8122 33.2532C46.7788 33.2281 46.7551 33.1923 46.7451 33.1517C46.7451 33.0119 46.7917 32.9653 46.9241 32.9653C46.9699 32.9653 47.014 32.9832 47.0467 33.0153C47.0795 33.0473 47.0984 33.091 47.0993 33.1368Z" fill="white"/>
<path d="M28.833 34.6898C34.0333 32.8255 39.1488 32.8255 44.1795 34.6898" stroke="#592D3D" stroke-width="1.11861" stroke-miterlimit="10"/>
<path opacity="0.15" d="M47.3328 38.4036C46.4183 38.4023 45.5363 38.0642 44.8553 37.4537C44.1744 36.8433 43.7422 36.0033 43.6413 35.0944C38.9805 33.4491 34.1835 33.45 29.3697 35.0944C29.3107 35.6349 29.1337 36.1558 28.8511 36.6203C28.5686 37.0848 28.1874 37.4816 27.7346 37.7825C27.2818 38.0834 26.7684 38.2812 26.2307 38.3618C25.693 38.4424 25.1442 38.4038 24.623 38.2489C25.1333 38.4993 25.6963 38.6233 26.2645 38.6103C26.8327 38.5974 27.3895 38.4479 27.8878 38.1745C28.3861 37.9011 28.8113 37.5118 29.1275 37.0394C29.4436 36.5671 29.6415 36.0256 29.7044 35.4607C34.2925 33.8891 38.8658 33.8872 43.3076 35.4607C43.3693 36.0264 43.5663 36.5688 43.8819 37.0422C44.1976 37.5156 44.6226 37.9059 45.1211 38.1803C45.6196 38.4546 46.1768 38.6048 46.7456 38.6182C47.3144 38.6316 47.8781 38.5078 48.3889 38.2573C48.0457 38.3564 47.69 38.4057 47.3328 38.4036Z" fill="black"/>
</svg>
