<svg width="49" height="71" viewBox="0 0 49 71" fill="none" xmlns="http://www.w3.org/2000/svg">
<path d="M34.2998 49.9839C42.3219 49.9839 40.6638 60.633 40.7407 72.4754H34.2998V49.9839Z" fill="#FDD2B2"/>
<path d="M36.3098 56.8024L34.2998 60.3568L35.3057 72.475H38.1129C38.1809 55.6707 36.3098 56.8024 36.3098 56.8024Z" fill="#F3AB98"/>
<path d="M1.00002 25.8657C1.00002 12.1329 11.5562 1 24.5776 1C37.599 1 48.1552 12.1329 48.1552 25.8657C48.1585 29.5659 47.3773 33.2201 45.8686 36.5607C44.3599 39.9013 42.1619 42.8438 39.4357 45.1729C38.9519 45.588 38.4528 45.9823 37.9384 46.3558C32.6209 49.9158 25.9034 49.9158 19.8391 49.3462C19.2504 49.253 18.6635 49.1356 18.0811 49.0004C15.7538 48.4597 13.5008 47.6254 11.4192 46.409C10.9048 46.0746 10.406 45.7136 9.92282 45.3258C9.43716 44.9358 8.97102 44.5195 8.52628 44.0785C8.10555 43.6665 7.69926 43.2383 7.30741 42.794C3.2466 38.1982 0.992168 32.1476 1.00002 25.8657Z" fill="#FDD2B2"/>
<path d="M4.21277 38.4015C4.27464 38.5134 4.33563 38.6253 4.39927 38.7353C4.43728 38.8024 4.47705 38.8676 4.51683 38.9347C4.57516 39.0345 4.6335 39.1342 4.6936 39.2321C4.73603 39.303 4.78199 39.3719 4.82265 39.4409C4.88099 39.5341 4.93932 39.6273 4.99943 39.7206C5.04451 39.7914 5.08782 39.8623 5.13731 39.9331C5.19565 40.0263 5.25399 40.1121 5.31409 40.2016C5.36182 40.2733 5.41132 40.3442 5.45993 40.416C5.50854 40.4877 5.57837 40.5884 5.63671 40.6742C5.69504 40.7599 5.73835 40.8168 5.78962 40.8876C5.84088 40.9585 5.91071 41.0554 5.97258 41.1393C6.03445 41.2232 6.07776 41.2801 6.1308 41.35C6.18383 41.4199 6.25542 41.5141 6.31818 41.5952C6.38093 41.6763 6.4269 41.7341 6.4817 41.803C6.5365 41.872 6.60898 41.9634 6.6735 42.0426C6.73803 42.1218 6.78575 42.1796 6.84232 42.2477L7.03854 42.4807C7.096 42.5488 7.15433 42.615 7.21532 42.6821C7.29133 42.7697 7.36823 42.8564 7.44513 42.9422L7.55208 43.0615C7.6661 43.1864 7.781 43.3113 7.89768 43.4343L7.92066 43.4595C8.03468 43.5788 8.15047 43.6972 8.26626 43.8147L8.40591 43.9545C8.48988 44.0375 8.57385 44.1204 8.6587 44.2025L8.76123 44.3013C8.84962 44.3889 8.94596 44.4746 9.03877 44.5604C9.32751 44.8258 9.62213 45.0802 9.92265 45.3239C10.4053 45.7116 10.9041 46.0727 11.4191 46.407C13.5006 47.6189 15.7501 48.4578 18.0809 48.9985C18.6634 49.1336 19.2503 49.2502 19.8389 49.3443C23.5601 49.6939 27.5287 49.8272 31.2658 49.0572C25.3234 47.2124 -3.21361 36.375 14.7478 3.25861C14.5074 3.37513 14.2705 3.49538 14.0354 3.62029L13.9832 3.64732C13.8754 3.70418 13.7675 3.76291 13.6606 3.82257L13.5722 3.87197C13.2399 4.05841 12.9111 4.25137 12.5884 4.45272L12.5089 4.50212C12.4064 4.56644 12.3047 4.6317 12.2031 4.69788L12.1262 4.74822C11.8103 4.9564 11.4995 5.17174 11.1937 5.39422L11.0982 5.46413C11.0019 5.53497 10.9073 5.60582 10.8127 5.67759L10.7544 5.72141C10.5617 5.86993 10.3714 6.02032 10.1834 6.17258L10.1286 6.21732C10.0402 6.29003 9.95182 6.3646 9.86343 6.44011L9.76002 6.52774C9.67163 6.60324 9.58324 6.67875 9.49485 6.75612C9.30835 6.91925 9.12451 7.08704 8.94331 7.2567L8.84255 7.34991L8.60478 7.5783L8.48988 7.68829C8.23768 7.93687 7.99108 8.19073 7.75007 8.44988L7.62809 8.58131C7.55827 8.65775 7.48844 8.73419 7.4195 8.81156C7.37884 8.85724 7.33818 8.90478 7.2984 8.94952C7.17702 9.08624 7.0574 9.22482 6.93955 9.36527C6.89977 9.41281 6.85912 9.45849 6.81934 9.50883C6.75659 9.58433 6.69471 9.66077 6.63284 9.73721L6.49938 9.90407C6.43927 9.97957 6.37917 10.0551 6.3226 10.1315C6.27487 10.193 6.22714 10.2555 6.18029 10.318C6.08572 10.4419 5.99291 10.5659 5.90099 10.6908C5.85326 10.7561 5.80553 10.8213 5.75868 10.8875C5.71184 10.9537 5.65262 11.0357 5.60047 11.1112C5.54832 11.1867 5.50589 11.2464 5.45993 11.3144C5.41397 11.3825 5.36005 11.4589 5.31144 11.5316C5.22776 11.6559 5.14527 11.7818 5.06395 11.9092C5.01975 11.9772 4.97556 12.0471 4.93225 12.1161C4.88894 12.1851 4.83502 12.2709 4.78729 12.3492L4.6556 12.5645L4.5071 12.8171C4.4691 12.8814 4.43109 12.9457 4.39397 13.0101C4.3153 13.1462 4.23929 13.2832 4.16327 13.4202L4.05544 13.6216C4.00771 13.7101 3.95998 13.7996 3.91313 13.8891C3.87778 13.9572 3.84242 14.0252 3.80795 14.0933C3.75138 14.2042 3.6957 14.316 3.64002 14.4279L3.53395 14.646C3.47738 14.7654 3.42081 14.8837 3.36513 15.004C3.33596 15.0683 3.30591 15.1336 3.27674 15.1988C3.23078 15.3004 3.18835 15.403 3.1415 15.5055C3.1141 15.567 3.08759 15.6285 3.06107 15.6919C2.99566 15.8454 2.93173 16.0008 2.86927 16.158C2.84982 16.2065 2.83126 16.2559 2.81182 16.3044C2.76497 16.4228 2.71901 16.5411 2.67393 16.6605C2.65007 16.7229 2.62709 16.7854 2.6041 16.8469C2.55991 16.9643 2.51572 17.0827 2.47594 17.2011C2.45738 17.2524 2.43882 17.3037 2.42114 17.3549C2.36575 17.5184 2.31124 17.6818 2.25762 17.8453L2.20812 18.0037C2.16923 18.128 2.13123 18.2523 2.0941 18.3766L2.04107 18.5546C1.99953 18.6982 1.95887 18.8417 1.91998 18.9862C1.91114 19.017 1.9023 19.0478 1.89435 19.0795C1.84838 19.251 1.80419 19.4231 1.76176 19.5959C1.74762 19.6509 1.73525 19.7068 1.72199 19.7618C1.69105 19.8914 1.661 20.0209 1.6336 20.1515L1.59648 20.3146C1.55847 20.4917 1.52135 20.6688 1.48688 20.8469L1.47362 20.9186C1.44357 21.0771 1.4141 21.2356 1.38523 21.394C1.37551 21.4509 1.36667 21.5068 1.35695 21.5637C1.33396 21.7026 1.31187 21.8433 1.29154 21.9832C1.28447 22.0307 1.27651 22.0764 1.27033 22.1249C1.24381 22.3066 1.21994 22.4893 1.19696 22.673L1.1837 22.7942C1.16603 22.9424 1.15012 23.0915 1.13509 23.2407C1.12979 23.2966 1.1236 23.3525 1.1183 23.4094C1.10416 23.566 1.0909 23.7235 1.07852 23.8811C1.07852 23.9137 1.07322 23.9454 1.07145 23.9743C1.05849 24.1607 1.047 24.3487 1.03698 24.5383C1.03698 24.5877 1.03698 24.638 1.03079 24.6874C1.0249 24.8341 1.0196 24.9804 1.01488 25.1265C1.01488 25.1815 1.01488 25.2365 1.01488 25.2915C1.01488 25.4825 1.00781 25.6746 1.00781 25.8666C1.00781 25.8666 1.00781 25.8731 1.00781 25.8759C1.00781 26.0829 1.00781 26.2879 1.01488 26.493C1.01488 26.5639 1.02019 26.6347 1.02195 26.7056C1.02637 26.8426 1.03079 26.9796 1.03698 27.1166C1.03698 27.1996 1.0467 27.2816 1.05112 27.3646C1.05819 27.4886 1.06438 27.6126 1.07322 27.7375C1.07941 27.8307 1.08736 27.9137 1.09443 28.0013C1.10416 28.1187 1.11299 28.2362 1.12448 28.3527C1.13244 28.4459 1.14305 28.5336 1.15188 28.624C1.16426 28.7368 1.17575 28.8505 1.18901 28.9633C1.19961 29.0565 1.21199 29.1497 1.22348 29.2383C1.23762 29.3483 1.25176 29.4592 1.26767 29.5692C1.28093 29.6624 1.29507 29.7556 1.30922 29.8488C1.32513 29.957 1.34192 30.066 1.3596 30.1742C1.37551 30.2674 1.39142 30.3606 1.40821 30.4538C1.42677 30.561 1.44622 30.6682 1.46566 30.7745C1.48511 30.8808 1.5019 30.9609 1.52046 31.0541C1.54168 31.1604 1.56289 31.2658 1.58587 31.3711C1.60885 31.4764 1.62476 31.5575 1.64598 31.6442C1.66896 31.7495 1.6937 31.854 1.71845 31.9574C1.7432 32.0609 1.76176 32.1392 1.78386 32.2287C1.81038 32.3331 1.83689 32.4366 1.86429 32.54C1.88727 32.6332 1.91114 32.719 1.93589 32.8076C1.96417 32.911 1.99334 33.0136 2.02428 33.1161C2.05521 33.2187 2.07554 33.2923 2.10206 33.3809C2.12857 33.4694 2.16393 33.585 2.19575 33.6866C2.22757 33.7882 2.25055 33.8609 2.27884 33.9476C2.31242 34.0492 2.34601 34.1508 2.38048 34.2524C2.40965 34.3373 2.43793 34.423 2.46887 34.5079L2.57847 34.8127C2.60941 34.8956 2.63946 34.9795 2.66686 35.0625C2.70575 35.1641 2.74553 35.2666 2.7853 35.3682C2.81712 35.4484 2.84806 35.5295 2.88076 35.6097C2.9223 35.7141 2.96915 35.8166 3.00892 35.9201C3.04163 35.9965 3.07345 36.0739 3.10615 36.1503C3.15211 36.2585 3.20073 36.3647 3.24757 36.471L3.34303 36.6854C3.39695 36.8029 3.45263 36.9184 3.50832 37.035C3.5366 37.0937 3.56312 37.1534 3.59228 37.2121C3.76199 37.5607 3.93877 37.9047 4.12261 38.244C4.14825 38.2878 4.18095 38.3447 4.21277 38.4015Z" fill="#F3AB98"/>
<path d="M1.00002 25.8657C1.00002 12.1329 11.5562 1 24.5776 1C37.599 1 48.1552 12.1329 48.1552 25.8657C48.1585 29.5659 47.3773 33.2201 45.8686 36.5607C44.3599 39.9013 42.1619 42.8438 39.4357 45.1729C38.9519 45.588 38.4528 45.9823 37.9384 46.3558C32.6209 49.9158 25.9034 49.9158 19.8391 49.3462C19.2504 49.253 18.6635 49.1356 18.0811 49.0004C15.7538 48.4597 13.5008 47.6254 11.4192 46.409C10.9048 46.0746 10.406 45.7136 9.92282 45.3258C9.43716 44.9358 8.97102 44.5195 8.52628 44.0785C8.10555 43.6665 7.69926 43.2383 7.30741 42.794C3.2466 38.1982 0.992168 32.1476 1.00002 25.8657V25.8657Z" stroke="#592D3D" stroke-width="1.06066" stroke-miterlimit="10"/>
<path d="M14.5105 49.9839C6.48746 49.9839 8.14651 60.633 8.06961 72.4754H14.5105V49.9839Z" fill="#FDD2B2"/>
<path d="M12.8417 56.8024L14.8543 60.3568L13.8476 72.475H11.043C10.9714 55.6707 12.8417 56.8024 12.8417 56.8024Z" fill="#F3AB98"/>
<path d="M35.1362 79.0006H14.0167C13.7055 79.0003 13.4072 78.8698 13.1872 78.6377C12.9673 78.4055 12.8437 78.0908 12.8438 77.7626V51.2218C12.8437 50.8937 12.9673 50.5789 13.1872 50.3468C13.4072 50.1147 13.7055 49.9841 14.0167 49.9839H34.6315C35.7885 49.9839 36.3108 50.6979 36.3108 51.837V77.7589C36.3113 77.9219 36.2813 78.0833 36.2224 78.234C36.1636 78.3847 36.0771 78.5216 35.968 78.637C35.8588 78.7524 35.7292 78.8439 35.5864 78.9063C35.4437 78.9686 35.2907 79.0007 35.1362 79.0006Z" fill="#FDD2B2"/>
<path d="M35.9829 50.7197C35.8948 50.6055 35.8203 50.4803 35.7611 50.3469C35.5488 50.1715 35.2963 50.0586 35.0292 50.0197C34.8976 49.9982 34.7646 49.9876 34.6315 49.988H14.0167C13.7063 49.9882 13.4086 50.1181 13.1888 50.3492C12.969 50.5804 12.8449 50.8939 12.8438 51.2213C15.407 52.1926 20.2056 52.7351 24.5764 52.7351C30.1502 52.7351 33.8024 51.8635 35.9829 50.7197Z" fill="#F3AB98"/>
<path d="M34.2998 49.9839C42.3219 49.9839 40.6638 60.633 40.7407 72.4754H36.3098" stroke="#592D3D" stroke-width="1.06066" stroke-miterlimit="10" stroke-linecap="square"/>
<path d="M14.5105 49.9839C6.48746 49.9839 8.14651 60.633 8.06961 72.4754H12.4952" stroke="#592D3D" stroke-width="1.06066" stroke-miterlimit="10" stroke-linecap="square"/>
<path d="M14.0176 49.9927L34.6324 49.9839" stroke="#592D3D" stroke-width="1.06066" stroke-miterlimit="10"/>
<path d="M14.0167 78.9997H24.3245C14.6769 78.9997 15.4052 57.4497 12.8438 57.4497V77.758C12.8433 77.9208 12.8733 78.0821 12.932 78.2327C12.9907 78.3833 13.077 78.5201 13.186 78.6355C13.2949 78.7508 13.4244 78.8423 13.5669 78.9048C13.7095 78.9673 13.8623 78.9996 14.0167 78.9997Z" fill="#F3AB98"/>
<path d="M12.3135 59.5026C12.2967 59.1605 12.3038 58.8184 12.3179 58.4772C12.3321 58.136 12.3595 57.7921 12.3939 57.4518C12.4116 57.2803 12.4293 57.1097 12.4514 56.9382C12.4735 56.7667 12.4947 56.5961 12.5265 56.4246C12.5892 56.0696 12.6959 55.7248 12.8438 55.3992C12.9918 55.7248 13.0984 56.0696 13.1611 56.4246C13.193 56.5961 13.2159 56.7667 13.2363 56.9382C13.2566 57.1097 13.276 57.2803 13.2937 57.4518C13.3273 57.7939 13.3538 58.136 13.3688 58.4772C13.3839 58.8184 13.3909 59.1614 13.3741 59.5026H12.3135Z" fill="#592D3D"/>
<path d="M36.31 60.3563V61.102C36.333 64.2714 36.333 67.534 36.31 70.6801C36.31 70.9476 36.31 71.2133 36.31 71.4753V77.759C36.3104 77.9218 36.2803 78.083 36.2215 78.2334C36.1627 78.3839 36.0764 78.5206 35.9675 78.6359C35.8585 78.7511 35.7291 78.8426 35.5866 78.905C35.4442 78.9674 35.2914 78.9996 35.1371 78.9998H14.0176C13.7065 78.9995 13.4081 78.869 13.1882 78.6368C12.9682 78.4047 12.8447 78.09 12.8447 77.7618V72.3366C12.8447 72.1026 12.8447 71.864 12.8447 71.6235C12.8226 68.373 12.8226 65.1104 12.8447 61.8077V59.5034" stroke="#592D3D" stroke-width="1.06066" stroke-miterlimit="10"/>
<path d="M35.779 60.3555C35.7622 59.9667 35.7702 59.5771 35.7843 59.1874C35.7984 58.7978 35.8258 58.4091 35.8594 58.0194C35.8771 57.8246 35.8957 57.6298 35.9169 57.435C35.9381 57.2401 35.9602 57.0462 35.992 56.8514C36.0536 56.4502 36.1601 56.0581 36.3093 55.6834C36.4585 56.0581 36.5651 56.4502 36.6266 56.8514C36.6585 57.0462 36.6814 57.2411 36.7018 57.435C36.7221 57.6289 36.7415 57.8246 36.7592 58.0194C36.7928 58.4091 36.8202 58.7978 36.8343 59.1874C36.8485 59.5771 36.8564 59.9667 36.8397 60.3555H35.779Z" fill="#592D3D"/>
<path d="M30.8232 57.7876C30.8427 56.9067 31.9034 56.5339 32.4337 57.0932C32.5199 57.186 32.5879 57.2958 32.6338 57.4163C32.6798 57.5368 32.7028 57.6656 32.7015 57.7955C32.7002 57.9254 32.6747 58.0538 32.6264 58.1732C32.5781 58.2927 32.508 58.401 32.42 58.4919C32.332 58.5828 32.2279 58.6545 32.1136 58.703C31.9994 58.7514 31.8772 58.7757 31.754 58.7744C31.6309 58.773 31.5092 58.7461 31.3959 58.6952C31.2826 58.6442 31.1799 58.5702 31.0937 58.4775C31.0076 58.387 30.9394 58.2795 30.893 58.1611C30.8466 58.0427 30.8229 57.9158 30.8232 57.7876Z" fill="#592D3D"/>
<path d="M16.4544 57.7589C16.4359 56.9991 17.2314 56.6263 17.7617 56.9059C18.4688 57.1856 18.4688 58.211 17.7617 58.6771C17.4081 58.8635 17.0546 58.6771 16.7231 58.4459C16.6377 58.3557 16.5699 58.2485 16.5238 58.1306C16.4777 58.0127 16.4541 57.8864 16.4544 57.7589Z" fill="#592D3D"/>
<path d="M24.5772 56.7927C24.6404 56.9684 24.6849 57.151 24.7098 57.337C24.7361 57.5172 24.7506 57.6991 24.7531 57.8814L24.7796 58.9712C24.7876 59.3338 24.7982 59.6973 24.8017 60.0609L24.8167 61.1487C24.8371 62.6001 24.8362 64.0534 24.8415 65.5057C24.8468 66.958 24.8574 68.4103 24.8415 69.8627C24.8335 70.5888 24.815 71.315 24.7946 72.0412C24.7858 72.4038 24.769 72.7673 24.7354 73.1299C24.7054 73.4963 24.6531 73.8603 24.579 74.2196C24.5048 73.8603 24.4526 73.4963 24.4225 73.1299C24.3889 72.7673 24.3721 72.4038 24.3633 72.0412C24.343 71.315 24.3244 70.5888 24.3165 69.8627C24.2988 68.4103 24.3165 66.958 24.3165 65.5057C24.3165 64.0534 24.3165 62.602 24.3324 61.1496L24.3474 60.059L24.3766 58.9702L24.4057 57.8814C24.409 57.6991 24.4238 57.5173 24.4499 57.337C24.4731 57.1512 24.5158 56.9686 24.5772 56.7927Z" fill="#F3AB98"/>
<path d="M17.9668 61.5678C18.0979 61.5021 18.2367 61.4551 18.3796 61.428C18.5161 61.401 18.6544 61.3854 18.7932 61.3814L19.6197 61.3507L21.2725 61.3124C22.3738 61.2947 23.4743 61.2901 24.5765 61.2873C25.6787 61.2845 26.78 61.2723 27.8813 61.2873C28.432 61.2957 28.9826 61.3152 29.5342 61.3367C29.8091 61.3469 30.0848 61.3646 30.3597 61.3991C30.6389 61.4318 30.9152 61.4872 31.1862 61.565C30.9153 61.6434 30.6389 61.6985 30.3597 61.73C30.0848 61.7655 29.8091 61.7832 29.5342 61.7925C28.9826 61.8139 28.432 61.8326 27.8813 61.841C26.78 61.8587 25.6787 61.841 24.5765 61.841C23.4743 61.841 22.373 61.841 21.2708 61.827C20.7201 61.8214 20.1694 61.8028 19.6197 61.7804L18.7932 61.7487C18.6547 61.7447 18.5167 61.7292 18.3805 61.7021C18.2375 61.6769 18.0984 61.6318 17.9668 61.5678Z" fill="#F3AB98"/>
<path d="M19.4873 64.4929C19.5917 64.4404 19.7032 64.4055 19.8179 64.3894C19.9238 64.3736 20.031 64.369 20.1378 64.3754C20.3491 64.3848 20.5603 64.3904 20.7716 64.395C21.1941 64.4053 21.6166 64.409 22.0391 64.4109C22.8903 64.4109 23.7264 64.4183 24.5811 64.3913C25.4358 64.3643 26.2835 64.3512 27.1338 64.3549C27.5589 64.3549 27.9841 64.3671 28.4083 64.3773C28.6219 64.3803 28.8352 64.3949 29.0474 64.4211C29.2655 64.4465 29.4807 64.4943 29.69 64.5637C29.4856 64.6484 29.2735 64.7109 29.0571 64.7502C28.8464 64.7902 28.6336 64.817 28.4198 64.8303C27.9938 64.863 27.5678 64.8909 27.1426 64.9068C26.2906 64.9403 25.4394 64.9366 24.59 64.9487C24.1648 64.9487 23.7405 64.9692 23.3101 64.958C22.8796 64.9469 22.4536 64.9459 22.0267 64.9292C21.5998 64.9124 21.1711 64.8751 20.7451 64.8285C20.5312 64.8033 20.319 64.7753 20.106 64.7446C19.9984 64.7307 19.8926 64.7044 19.7905 64.6663C19.6808 64.6271 19.5783 64.5685 19.4873 64.4929Z" fill="#F3AB98"/>
<path d="M19.1787 67.801C19.2836 67.7359 19.3975 67.6887 19.5164 67.6612C19.6272 67.634 19.7403 67.6187 19.854 67.6155L20.5284 67.5857C20.9783 67.5689 21.4291 67.5549 21.879 67.5475C22.7788 67.5335 23.6786 67.5335 24.5766 67.5335C25.4746 67.5335 26.3762 67.5176 27.276 67.5335C27.7259 67.5419 28.1758 67.5614 28.6257 67.5829C28.8513 67.5909 29.0764 67.6114 29.3001 67.6444C29.5303 67.6777 29.757 67.7342 29.9771 67.8131C29.7578 67.8906 29.532 67.9458 29.3027 67.9781C29.0789 68.0119 28.8534 68.0327 28.6274 68.0406C28.1775 68.062 27.7276 68.0816 27.2777 68.09C26.3779 68.1086 25.4773 68.0956 24.5775 68.09C23.6777 68.0844 22.7779 68.0844 21.8781 68.0667C21.4282 68.0573 20.9774 68.0406 20.5275 68.021L19.8531 67.9865C19.7394 67.9829 19.6263 67.9673 19.5155 67.9399C19.3969 67.9129 19.2832 67.866 19.1787 67.801Z" fill="#F3AB98"/>
<path d="M28.8063 58.3033L25.0825 55.0994L31.6789 49.9921H17.4749L24.0713 55.0994L20.3475 58.3033L17.0215 53.0365V60.3522H32.424V52.5742L28.8063 58.3033Z" fill="#F3AB98"/>
<path d="M34.8882 49.9313L31.1114 49.9407C31.0918 50.3617 31.0496 50.7812 30.985 51.1972C30.9434 51.3969 30.8921 51.5942 30.8312 51.7882C30.6244 52.3932 29.3056 52.9068 28.9317 53.3478C28.8078 53.4944 28.675 53.6324 28.534 53.7607C26.3092 55.4573 22.7737 55.5505 20.625 53.7066C20.3933 53.4932 20.1827 53.2556 19.9965 52.9973C19.6227 52.479 18.547 51.9169 18.3967 51.2317C18.3541 51.029 18.3222 50.8239 18.3013 50.6174C18.2799 50.4069 18.2693 50.1953 18.2694 49.9835L14.2734 49.9313C13.9622 49.9313 13.6638 50.0616 13.4437 50.2936C13.2236 50.5255 13.0998 50.8402 13.0996 51.1683V77.7064C13.0998 78.0345 13.2236 78.3492 13.4437 78.5811C13.6638 78.8131 13.9622 78.9434 14.2734 78.9434H35.392C35.7031 78.9434 36.0014 78.813 36.2214 78.5811C36.4414 78.3491 36.5649 78.0344 36.5649 77.7064V51.7808C36.5649 50.6454 36.0452 49.9313 34.8882 49.9313Z" fill="white"/>
<path d="M34.5508 49.9313C40.167 49.9313 42.3749 53.976 41.5246 75.2865C39.8682 75.911 36.5828 75.7143 36.5828 75.7143L34.5508 49.9313Z" fill="white"/>
<path d="M20.252 58.9953L24.5344 56.7497L28.8283 58.9953L25.5526 54.9851L21.6732 55.0625L20.252 58.9953Z" fill="#E2E2E2"/>
<path d="M36.5649 56.7499C36.5649 56.7499 34.5505 64.6305 34.8581 78.5628L37.7935 75.673L38.1099 62.8482C37.6132 56.1151 36.5649 56.7499 36.5649 56.7499Z" fill="#E2E2E2"/>
<path d="M14.7657 49.9313C9.30508 49.9313 6.90976 55.1935 7.62835 72.8143C9.61002 73.7381 12.5949 73.3345 12.5949 73.3345L14.7657 49.9313Z" fill="white"/>
<path d="M7.5127 68.5117C7.52802 69.7832 7.56367 71.1342 7.61964 72.5648C8.96933 72.6329 11.4813 72.6469 12.6675 72.5648L13.037 68.5742C12.085 68.4567 8.99055 68.4185 7.5127 68.5117Z" fill="#E2E2E2"/>
<path d="M13.0971 56.7494L13.0529 73.3132L11.8729 73.3971C11.6104 59.503 13.0971 56.7494 13.0971 56.7494Z" fill="#E2E2E2"/>
<path d="M34.5508 49.9313C40.5099 49.9313 41.4848 55.1776 41.5246 62.402V75.2865C41.5246 75.2865 37.1052 75.8019 36.5828 75.7143L36.574 62.4672" stroke="#592D3D" stroke-width="1.06066" stroke-miterlimit="10" stroke-linecap="square"/>
<path d="M14.7657 49.9313C12.4914 49.9313 10.919 50.6883 9.84154 52.0231C8.12239 54.155 7.66454 57.7597 7.63184 62.1158V73.6533C8.6978 73.9628 13.0553 73.314 13.0553 73.314L13.0987 62.2584" stroke="#592D3D" stroke-width="1.06066" stroke-miterlimit="10" stroke-linecap="square"/>
<path d="M13.3169 73.5229C13.1551 73.7662 6.79646 73.7019 6.71691 73.5229C6.63736 73.3439 6.52334 70.0272 6.71691 69.701C6.876 69.4325 13.0906 69.4894 13.3169 69.701C13.5431 69.9126 13.4786 73.2796 13.3169 73.5229Z" fill="white" stroke="#592D3D" stroke-width="1.06066" stroke-miterlimit="10" stroke-linecap="square"/>
<path d="M14.274 78.9424H24.5774C14.9263 78.9424 15.6582 57.3962 13.0967 57.3962V77.7054C13.0968 77.8682 13.1274 78.0294 13.1866 78.1798C13.2459 78.3301 13.3327 78.4666 13.442 78.5815C13.5514 78.6964 13.6812 78.7874 13.8239 78.8494C13.9667 78.9113 14.1196 78.9429 14.274 78.9424Z" fill="#E2E2E2"/>
<path d="M12.5693 59.4512C12.5525 59.1091 12.5596 58.766 12.5746 58.4258C12.5896 58.0855 12.6161 57.7416 12.6497 57.4004C12.6674 57.2298 12.686 57.0583 12.7072 56.8868C12.7284 56.7153 12.7505 56.5447 12.7823 56.3741C12.8449 56.0191 12.9516 55.6743 13.0996 55.3487C13.2477 55.6743 13.3544 56.0191 13.4169 56.3741C13.4488 56.5447 13.4717 56.7162 13.4921 56.8868C13.5124 57.0574 13.5318 57.2298 13.5495 57.4004C13.5837 57.7434 13.609 58.0852 13.6255 58.4258C13.6397 58.7679 13.6467 59.1109 13.6255 59.4512H12.5693Z" fill="#592D3D"/>
<path d="M36.5656 60.3001V61.0458C36.5885 64.2152 36.5885 67.4778 36.5656 70.6248C36.5656 70.8924 36.5656 71.158 36.5656 71.42V77.7038C36.5656 78.0318 36.442 78.3465 36.222 78.5784C36.0021 78.8104 35.7037 78.9407 35.3927 78.9407H14.274C13.9629 78.9407 13.6645 78.8104 13.4444 78.5785C13.2242 78.3465 13.1005 78.0319 13.1002 77.7038V71.5701C13.0773 68.3205 13.0773 65.0579 13.1002 61.7543V59.4509" stroke="#592D3D" stroke-width="1.06066" stroke-miterlimit="10"/>
<path d="M42.0261 69.7004C42.2223 69.9111 42.1666 73.279 42.0261 73.5223C41.8855 73.7656 36.3692 73.7013 36.3011 73.5223C36.2331 73.3433 36.1332 70.0266 36.3011 69.7004C36.325 69.6538 36.5027 69.6174 36.7829 69.5904" fill="white"/>
<path d="M42.0261 69.7004C42.2223 69.9111 42.1666 73.279 42.0261 73.5223C41.8855 73.7656 36.3692 73.7013 36.3011 73.5223C36.2331 73.3433 36.1332 70.0266 36.3011 69.7004C36.325 69.6538 36.5027 69.6174 36.7829 69.5904" stroke="#592D3D" stroke-width="1.06066" stroke-miterlimit="10" stroke-linecap="square"/>
<path d="M40.3916 69.52C40.7275 69.5479 41.7174 69.41 41.7546 69.4491L40.3916 69.52Z" fill="white"/>
<path d="M40.3916 69.5187C40.4431 69.4481 40.4986 69.3809 40.5578 69.3174C40.606 69.2665 40.6587 69.2206 40.7151 69.1803C40.766 69.1447 40.8195 69.1136 40.8751 69.0871C40.929 69.0601 40.9829 69.0368 41.0368 69.0135C41.1454 68.9671 41.2575 68.9304 41.3718 68.9035C41.4301 68.8899 41.4892 68.8802 41.5486 68.8746C41.5804 68.8746 41.6131 68.8746 41.652 68.8746C41.6741 68.8746 41.6927 68.8746 41.7245 68.8746C41.7351 68.8746 41.7634 68.8746 41.7873 68.8811H41.8182L41.8615 68.8914L41.8836 68.8969L41.9013 68.9025L41.9517 68.9221C42.0177 68.9525 42.0777 68.9959 42.1284 69.0498L42.4997 69.4497L41.7351 70.2402L41.3709 69.8328C41.4187 69.8856 41.4761 69.9275 41.5398 69.9559C41.5557 69.9633 41.5716 69.9689 41.5875 69.9745H41.6025L41.6193 69.9792C41.6303 69.983 41.6415 69.9858 41.6529 69.9876H41.6697C41.6785 69.9876 41.6927 69.9876 41.6891 69.9876C41.6856 69.9876 41.683 69.9876 41.6759 69.9876H41.6096C41.5592 69.9876 41.5044 69.9876 41.4487 69.9876C41.3322 69.9803 41.2164 69.9638 41.1022 69.9382C41.043 69.9242 40.9838 69.9102 40.9255 69.8925C40.8649 69.8754 40.8057 69.853 40.7487 69.8254C40.6828 69.7925 40.6211 69.7512 40.5648 69.7023C40.4976 69.652 40.439 69.5899 40.3916 69.5187Z" fill="#592D3D"/>
<path d="M32.7533 50.4417L26.1533 55.5509L29.878 58.7557L35.13 50.437L32.7533 50.4417Z" fill="#E2E2E2"/>
<path d="M36.0349 60.2998C36.0181 59.9101 36.026 59.5205 36.0402 59.1317C36.0543 58.743 36.0817 58.3524 36.1162 57.9637C36.1338 57.7689 36.1515 57.5741 36.1727 57.3793C36.194 57.1844 36.216 56.9896 36.2487 56.7948C36.3098 56.3936 36.4161 56.0015 36.5652 55.6268C36.715 56.0013 36.8215 56.3934 36.8825 56.7948C36.9143 56.9896 36.9382 57.1844 36.9576 57.3793C36.9771 57.5741 36.9974 57.7689 37.0151 57.9637C37.0495 58.3524 37.0761 58.7421 37.0902 59.1317C37.1044 59.5214 37.1132 59.9101 37.0955 60.2998H36.0349Z" fill="#592D3D"/>
<path d="M14.2744 49.9402L34.8892 49.9313" stroke="#592D3D" stroke-width="1.06066" stroke-miterlimit="10"/>
<path d="M27.1747 57.1448L25.1992 55.0624L23.2246 57.1448L24.1951 58.1684L23.336 68.1081L25.1692 69.6155L27.0624 68.1081L26.2042 58.1684L27.1747 57.1448Z" fill="#E2E2E2"/>
<path d="M24.5801 55.0624V78.9428" stroke="#592D3D" stroke-width="0.53033" stroke-miterlimit="10" stroke-linecap="square"/>
<path d="M17.4724 49.9908C17.4724 49.9908 21.2969 53.6579 24.0714 55.1C22.7209 57.45 20.3476 58.3058 20.3476 58.3058L15.0947 49.988L17.4724 49.9908Z" fill="white" stroke="#592D3D" stroke-width="1.06066" stroke-miterlimit="10"/>
<path d="M31.6821 49.9906C31.6821 49.9906 28.2013 53.8311 25.083 55.0998C25.9669 56.9902 28.8068 58.3037 28.8068 58.3037L34.0597 49.9859L31.6821 49.9906Z" fill="white" stroke="#592D3D" stroke-width="1.06066" stroke-miterlimit="10"/>
<path d="M22.6064 56.4919L23.5769 57.5154L22.7178 67.4552L24.551 68.9625L26.4443 67.4552L25.586 57.5154L26.5565 56.4919" stroke="#592D3D" stroke-width="0.707106" stroke-miterlimit="10"/>
<path d="M36.7832 69.591C37.447 69.5248 38.6844 69.508 39.7884 69.5285L36.7832 69.591Z" fill="white"/>
<path d="M36.7336 69.0334C36.9923 68.9949 37.2538 68.9802 37.5149 68.9895C37.7713 68.9961 38.0258 69.0175 38.2804 69.0501C38.4068 69.0669 38.5341 69.0846 38.6605 69.107C38.788 69.1267 38.9146 69.1531 39.0396 69.1862C39.3066 69.2547 39.5606 69.3704 39.7909 69.5283C39.5573 69.6772 39.3033 69.7872 39.0379 69.8546C38.9132 69.8882 38.7886 69.9133 38.664 69.9348C38.5394 69.9562 38.4156 69.9786 38.2919 69.9991C38.0444 70.0382 37.7978 70.0718 37.5538 70.0923C37.3099 70.1128 37.0659 70.1389 36.8326 70.1426L36.3023 70.152L36.2139 69.1145L36.7336 69.0334Z" fill="#592D3D"/>
<path d="M25.9711 71.3298C26.2055 71.3298 26.3954 71.1295 26.3954 70.8824C26.3954 70.6353 26.2055 70.4349 25.9711 70.4349C25.7368 70.4349 25.5469 70.6353 25.5469 70.8824C25.5469 71.1295 25.7368 71.3298 25.9711 71.3298Z" fill="#592D3D"/>
<path d="M23.7716 57.205C23.7672 57.1994 23.7716 57.205 23.7716 57.205L23.7778 57.2097C23.7832 57.2127 23.7882 57.2165 23.7928 57.2208L23.8264 57.2479C23.8485 57.2675 23.8723 57.287 23.8953 57.3085C23.9422 57.3504 23.9917 57.3952 24.0456 57.438C24.0995 57.4809 24.1578 57.5219 24.2224 57.5704C24.3066 57.6372 24.3866 57.7098 24.4619 57.7876C24.3989 57.8961 24.3005 57.9766 24.1852 58.0141C24.0789 58.0453 23.9677 58.0539 23.8582 58.0393C23.747 58.0279 23.6384 57.9964 23.5374 57.9461C23.4859 57.9202 23.4371 57.889 23.3915 57.8529C23.3678 57.8346 23.3451 57.815 23.3235 57.7941C23.3128 57.7839 23.3014 57.7727 23.2908 57.7606L23.2731 57.741L23.251 57.714L23.7716 57.205Z" fill="#592D3D"/>
<path d="M4.3715 32.2531C4.28311 29.6095 5.96249 27.3723 8.19694 26.3282C8.43158 26.2269 8.67257 26.1428 8.91819 26.0765C10.1569 25.7536 11.4601 25.8425 12.6491 26.331C12.9203 26.441 13.184 26.5706 13.4384 26.7188C16.0485 28.2 17.2205 31.6826 16.2102 34.4987C16.1079 34.7826 15.9843 35.0576 15.8408 35.3209C15.4883 36.0953 14.9559 36.7633 14.2931 37.2626C14.072 37.4342 13.8402 37.5899 13.5992 37.7287C11.1792 38.9405 7.9088 38.5677 5.95807 36.666C5.76273 36.4476 5.58226 36.2149 5.41801 35.9697C5.23041 35.6898 5.06571 35.3935 4.92569 35.0841C4.62934 34.4497 4.45881 33.7583 4.42453 33.052C4.39252 32.787 4.37482 32.5203 4.3715 32.2531Z" fill="#F3AB98"/>
<path d="M4.22794 30.5423C4.13955 27.8987 5.81893 25.6614 8.05339 24.6174C8.28773 24.5161 8.52843 24.432 8.77375 24.3657C10.0123 24.0411 11.3158 24.1284 12.5055 24.6155C12.7764 24.7256 13.0399 24.8551 13.2939 25.0033C15.904 26.4846 17.0761 29.9681 16.0658 32.7832C15.9642 33.0675 15.8406 33.3425 15.6963 33.6054C15.5741 33.8579 15.435 34.1009 15.28 34.3325C15.1272 34.5621 14.9595 34.7801 14.778 34.985C14.5818 35.1898 14.3714 35.3789 14.1486 35.5509C13.9277 35.7227 13.6959 35.8784 13.4548 36.017C11.0347 37.2288 7.76436 36.8559 5.81451 34.9552C5.61912 34.7365 5.43865 34.5035 5.27446 34.2579C5.08659 33.978 4.9216 33.6818 4.78125 33.3724C4.48405 32.7404 4.31231 32.0512 4.27656 31.3468C4.24494 31.0799 4.2287 30.8112 4.22794 30.5423Z" fill="white"/>
<path d="M10.3026 30.9023C10.9001 30.9023 11.3844 30.3914 11.3844 29.7613C11.3844 29.1311 10.9001 28.6203 10.3026 28.6203C9.70508 28.6203 9.2207 29.1311 9.2207 29.7613C9.2207 30.3914 9.70508 30.9023 10.3026 30.9023Z" fill="#592D3D"/>
<path d="M15.6951 33.603C15.8394 33.3401 15.9629 33.0651 16.0646 32.7808C16.1586 32.5185 16.2345 32.2493 16.2917 31.9754C10.253 31.253 5.06641 33.9153 5.06641 33.9153L5.16363 34.0784C5.19987 34.1362 5.23611 34.194 5.27412 34.2499C5.4383 34.4955 5.61878 34.7285 5.81417 34.9472C7.76402 36.8451 11.0344 37.218 13.4545 36.009C13.6955 35.8704 13.9273 35.7147 14.1483 35.5429C14.3711 35.371 14.5814 35.1818 14.7776 34.977C14.9591 34.7721 15.1269 34.5541 15.2797 34.3245C15.4342 34.0947 15.573 33.8536 15.6951 33.603Z" fill="#FDD2B2" stroke="#592D3D" stroke-width="0.53033" stroke-miterlimit="10"/>
<path d="M4.22794 30.5423C4.13955 27.8987 5.81893 25.6614 8.05339 24.6174C8.28773 24.5161 8.52843 24.432 8.77375 24.3657C10.0123 24.0411 11.3158 24.1284 12.5055 24.6155C12.7764 24.7256 13.0399 24.8551 13.2939 25.0033C15.904 26.4846 17.0761 29.9681 16.0658 32.7832C15.9642 33.0675 15.8406 33.3425 15.6963 33.6054C15.5741 33.8579 15.435 34.1009 15.28 34.3325C15.1272 34.5621 14.9595 34.7801 14.778 34.985C14.5818 35.1898 14.3714 35.3789 14.1486 35.5509C13.9277 35.7227 13.6959 35.8784 13.4548 36.017C11.0347 37.2288 7.76436 36.8559 5.81451 34.9552C5.61912 34.7365 5.43865 34.5035 5.27446 34.2579C5.08659 33.978 4.9216 33.6818 4.78125 33.3724C4.48405 32.7404 4.31231 32.0512 4.27656 31.3468C4.24494 31.0799 4.2287 30.8112 4.22794 30.5423V30.5423Z" stroke="#592D3D" stroke-width="1.06066" stroke-miterlimit="10"/>
<path d="M31.9923 31.5031C32.0303 30.0927 32.5818 28.6982 33.3269 27.6504C33.5172 27.3688 33.7276 27.103 33.9563 26.8552C34.9727 25.7377 36.3341 25.0397 37.7952 24.8867C39.2564 24.7338 40.7213 25.136 41.9262 26.021C42.1271 26.1687 42.3198 26.3284 42.5034 26.4992C44.8899 28.4987 45.1657 32.3849 43.8575 35.1898C43.7304 35.4127 43.5893 35.6263 43.435 35.8293C43.2305 36.0997 43.0065 36.3531 42.7651 36.5871C40.9734 38.2492 38.1857 38.65 35.9229 37.7449C35.6005 37.6167 35.2887 37.4608 34.9904 37.2788C33.4083 36.2739 32.3061 34.3807 32.0356 32.4101C31.999 32.1094 31.9845 31.8061 31.9923 31.5031Z" fill="#FDD2B2"/>
<path d="M32.476 30.4331C32.5131 29.1141 33.0435 27.809 33.7594 26.8293C33.9436 26.5651 34.1463 26.3159 34.3657 26.0836C35.3602 25.0359 36.669 24.3854 38.0682 24.2436C39.4674 24.1018 40.8698 24.4774 42.0352 25.3061C42.2281 25.4438 42.4134 25.5929 42.5903 25.7527C44.8884 27.6235 45.1535 31.259 43.8931 33.8831C43.771 34.0923 43.6351 34.2923 43.4865 34.4815C43.2892 34.7347 43.0738 34.9715 42.8422 35.19C41.1177 36.7448 38.4351 37.1205 36.2581 36.2732C35.9476 36.1516 35.6469 36.0036 35.3592 35.8304C33.8372 34.8908 32.7765 33.1196 32.5158 31.2767C32.4811 30.9971 32.4678 30.715 32.476 30.4331Z" fill="white" stroke="#592D3D" stroke-width="1.06066" stroke-miterlimit="10"/>
<path d="M38.6493 31.7406C39.2468 31.7406 39.7311 31.2298 39.7311 30.5997C39.7311 29.9695 39.2468 29.4587 38.6493 29.4587C38.0518 29.4587 37.5674 29.9695 37.5674 30.5997C37.5674 31.2298 38.0518 31.7406 38.6493 31.7406Z" fill="#592D3D"/>
<path d="M43.9216 36.8758C43.0174 37.3419 42.1256 37.7661 41.1515 38.0588C40.6759 38.2053 40.1891 38.3082 39.6966 38.3664C39.1765 38.4102 38.6543 38.4195 38.1331 38.3943C37.5296 38.3797 36.928 38.3199 36.3326 38.2154C36.162 38.1865 35.9675 38.2629 35.9242 38.4596C35.888 38.6283 35.9728 38.8586 36.1558 38.8903C36.7308 38.9923 37.3111 39.0576 37.8935 39.086C38.1755 39.0981 38.4565 39.0916 38.7385 39.1009C39.0056 39.1107 39.273 39.1042 39.5393 39.0814C40.6 38.9881 41.627 38.6824 42.6117 38.2648C43.1703 38.0271 43.7183 37.7614 44.2584 37.4799C44.3338 37.4327 44.3886 37.356 44.4108 37.2664C44.4329 37.1769 44.4207 37.0818 44.3768 37.0017C44.3312 36.923 44.2586 36.866 44.1741 36.8426C44.0896 36.8191 43.9997 36.831 43.9234 36.8758H43.9216Z" fill="#592D3D"/>
<path d="M12.6719 37.7444C11.6669 37.9458 10.692 38.0986 9.66142 38.1014C9.15797 38.1064 8.65511 38.064 8.15882 37.9747C7.07679 37.7348 6.02284 37.3709 5.01573 36.8896C4.93927 36.8453 4.84957 36.8336 4.76519 36.857C4.6808 36.8805 4.60817 36.9372 4.5623 37.0155C4.47833 37.1665 4.51811 37.4135 4.68074 37.4937C5.19455 37.7466 5.72195 37.9676 6.26024 38.1555C6.51745 38.2487 6.77908 38.314 7.03629 38.3979C7.29513 38.4848 7.55798 38.5579 7.82383 38.6169C8.88007 38.8425 9.96459 38.8379 11.0332 38.7101C11.6413 38.6393 12.245 38.5349 12.846 38.4146C13.0228 38.3802 13.1218 38.1564 13.0776 37.9849C13.0527 37.8964 12.9962 37.8216 12.9201 37.776C12.844 37.7305 12.7541 37.7178 12.6693 37.7407L12.6719 37.7444Z" fill="#592D3D"/>
<path fill-rule="evenodd" clip-rule="evenodd" d="M1.94043 24.3855C2.43894 25.8611 3.78775 26.6283 4.8926 26.8967C6.04695 25.01 9.89979 24.2009 12.7919 25.271C15.2491 25.7371 11.8364 22.8875 6.38636 24.4321C6.18218 24.5113 5.09943 24.7071 3.70996 23.5754C3.51639 23.4179 4.12362 24.8534 4.81482 25.4398C3.81161 25.4183 3.64721 25.4193 1.94043 24.3855Z" fill="#592D3D"/>
<path fill-rule="evenodd" clip-rule="evenodd" d="M44.1294 25.4394C44.8206 24.8568 45.4278 23.4212 45.2343 23.5751C43.8448 24.7067 42.7594 24.5072 42.5579 24.4317C37.1079 22.8843 33.6943 25.7368 36.1515 25.2707C39.0444 24.2005 42.8973 25.0097 44.0516 26.8964C45.1565 26.6279 46.5053 25.8607 47.0038 24.3851C45.297 25.4198 45.1326 25.4189 44.1294 25.4394Z" fill="#592D3D"/>
<path d="M19.8623 35.7484H28.3361" stroke="#592D3D" stroke-width="1.06066" stroke-miterlimit="10" stroke-linecap="round"/>
<path d="M24.5774 1C12.5831 1 2.68093 10.4457 1.19336 22.6684C3.82099 20.0602 5.92919 16.9258 7.39468 13.4482C13.0395 14.7477 18.7996 15.4086 24.5774 15.4198C30.3558 15.423 36.1174 14.762 41.76 13.4482C43.2255 16.9258 45.3337 20.0602 47.9614 22.6684C46.4738 10.4457 36.5717 1 24.5774 1Z" fill="#A56941"/>
<path d="M7.39459 13.4482C8.33386 13.6626 9.27873 13.8599 10.2292 14.0401C11.167 10.7402 12.636 7.15323 14.7485 3.25861C14.6309 3.3164 14.5134 3.37419 14.3949 3.43292L14.3799 3.44038C14.2641 3.4991 14.1483 3.55876 14.0334 3.62029L13.9813 3.64732C13.8734 3.70418 13.7656 3.76291 13.6587 3.82257L13.5703 3.87197C13.2379 4.05841 12.9091 4.25137 12.5865 4.45272L12.5158 4.49653L12.5034 4.50492C12.4015 4.56707 12.3007 4.63139 12.2011 4.69788L12.1242 4.74822C11.8084 4.9564 11.4976 5.17174 11.1917 5.39422L11.0963 5.46413C11.0079 5.53031 10.9195 5.5965 10.8311 5.66361L10.7684 5.71208L10.7551 5.72141C10.5624 5.86993 10.3721 6.02032 10.1841 6.17258L10.1293 6.21732C10.0409 6.29003 9.95255 6.3646 9.86416 6.44011L9.76074 6.52774L9.54773 6.71417L9.47878 6.77476C9.29759 6.93417 9.11993 7.09636 8.94315 7.26136L8.84239 7.35458L8.60463 7.58296L8.4906 7.68829C8.2384 7.93687 7.9918 8.19073 7.75079 8.44988L7.66241 8.5431C7.64296 8.5636 7.6244 8.58411 7.60584 8.60555C7.54396 8.67267 7.48298 8.73978 7.42199 8.80783C7.38133 8.85351 7.34067 8.90105 7.3009 8.94579C7.17951 9.08251 7.05989 9.2211 6.94204 9.36154L6.89961 9.41281C6.87221 9.44544 6.84393 9.47807 6.81653 9.51162L6.63445 9.73907C6.62473 9.75212 6.615 9.76424 6.6044 9.77636L6.49833 9.90966C6.44441 9.97678 6.39138 10.0448 6.33835 10.1129C6.30388 10.1567 6.26941 10.2061 6.23494 10.2471L6.1766 10.3235C6.08291 10.4478 5.99069 10.5721 5.89994 10.6964L5.89376 10.7048C5.84691 10.7682 5.80095 10.8316 5.75499 10.8959C5.71963 10.9444 5.68516 10.9938 5.65157 11.0423L5.56318 11.1662L5.45535 11.3228L5.36696 11.4487L5.24233 11.6351C5.19195 11.7106 5.14246 11.7861 5.09296 11.8626C5.04346 11.939 4.99485 12.0154 4.94712 12.0919L4.92502 12.1254L4.79067 12.3408L4.63687 12.5943C4.59091 12.6717 4.54849 12.7491 4.49987 12.8264C4.44949 12.9122 4.39911 12.998 4.34961 13.0846C4.30011 13.1713 4.26123 13.2412 4.2188 13.3196C4.17637 13.3979 4.13748 13.465 4.09859 13.5377L4.04821 13.6309L3.94833 13.8173C3.91121 13.8891 3.8732 13.96 3.83696 14.0317C3.82459 14.055 3.81221 14.0783 3.80072 14.1016C3.7636 14.1744 3.72648 14.248 3.69024 14.3216C3.654 14.3953 3.63013 14.4419 3.60185 14.5025L3.5276 14.6544L3.4454 14.8297C3.41093 14.9024 3.37646 14.9742 3.34287 15.0478L3.27039 15.2072L3.24388 15.2678C3.20499 15.3536 3.16698 15.4402 3.12897 15.5269L3.06533 15.6752C3.02909 15.76 2.99374 15.8457 2.95838 15.9315L2.86999 16.1496C2.83022 16.2494 2.79221 16.3491 2.75332 16.4489C2.72504 16.5206 2.69764 16.5915 2.67023 16.6633C2.66051 16.6875 2.65167 16.7127 2.64283 16.7378C2.6119 16.8199 2.58185 16.9028 2.55445 16.9858C2.52705 17.0688 2.50053 17.1321 2.4749 17.2058L2.46076 17.2459C2.42717 17.3391 2.39535 17.4323 2.36353 17.5311C2.33171 17.6299 2.30696 17.698 2.27514 17.7819C2.24244 17.8825 2.21062 17.9823 2.17968 18.083C2.15316 18.1678 2.12665 18.2526 2.10102 18.3374C2.07008 18.439 2.04091 18.5397 2.01263 18.6413C1.98788 18.7271 1.96401 18.8128 1.94015 18.8995C1.91186 19.0011 1.88358 19.1037 1.85706 19.2062C1.83408 19.292 1.81199 19.3787 1.79077 19.4654C1.76426 19.5688 1.73862 19.6723 1.71387 19.7767C1.69266 19.8625 1.67322 19.9501 1.65377 20.0368C1.6299 20.1412 1.60604 20.2465 1.58306 20.3509C1.5645 20.4376 1.54682 20.5253 1.52914 20.6119C1.50793 20.7182 1.48583 20.8254 1.46462 20.9326C1.44871 21.0174 1.43368 21.1023 1.41866 21.188C1.40363 21.2738 1.38419 21.3745 1.36828 21.4677L1.35237 21.5609L1.3232 21.7473C1.30729 21.8489 1.29049 21.9515 1.27547 22.054C1.27547 22.0736 1.26928 22.0932 1.26663 22.1127C1.24011 22.2992 1.21536 22.4856 1.19238 22.672C3.82071 20.0629 5.92924 16.9271 7.39459 13.4482Z" fill="#8D5638"/>
<path d="M24.5774 1C12.5831 1 2.68093 10.4457 1.19336 22.6684C3.82099 20.0602 5.92919 16.9258 7.39468 13.4482C13.0395 14.7477 18.7996 15.4086 24.5774 15.4198C30.3558 15.423 36.1174 14.762 41.76 13.4482C43.2255 16.9258 45.3337 20.0602 47.9614 22.6684C46.4738 10.4457 36.5717 1 24.5774 1Z" stroke="#592D3D" stroke-width="1.06066" stroke-miterlimit="10"/>
<path d="M25.126 2.57118C24.015 2.72778 22.9216 2.88625 21.8415 3.10811C20.7614 3.32996 19.6946 3.59097 18.6436 3.91351C17.5927 4.23604 16.5559 4.61077 15.5341 5.03864C14.5124 5.46651 13.5056 5.94564 12.4883 6.44156C13.3556 5.68675 14.3005 5.03699 15.3052 4.5045C17.3217 3.42501 19.5125 2.75494 21.7637 2.52923C22.8826 2.41263 24.0102 2.4267 25.126 2.57118Z" fill="white"/>
<path d="M33.4949 22.1898C34.471 21.9274 35.4597 21.7204 36.4568 21.5699L36.2217 21.6025C37.3867 21.4403 38.5675 21.3928 39.7351 21.5578L39.5 21.5242C39.7891 21.5671 40.0781 21.6174 40.368 21.6566L40.1329 21.623C41.0127 21.7502 41.8833 21.9405 42.7386 22.1926C43.1805 22.3222 43.7197 22.0313 43.8257 21.5401C43.8835 21.3017 43.8513 21.0489 43.7359 20.835C43.6205 20.6212 43.4309 20.4629 43.207 20.3935C42.204 20.1038 41.1821 19.8926 40.1497 19.7615L40.3848 19.795C39.4097 19.6125 38.4177 19.5515 37.4291 19.6133C36.4459 19.6813 35.4685 19.8231 34.5043 20.0374C34.0076 20.1427 33.5144 20.2639 33.0229 20.3916C32.5739 20.5082 32.261 21.0684 32.4042 21.5382C32.47 21.7743 32.6201 21.9743 32.8229 22.096C33.0257 22.2177 33.2653 22.2517 33.4914 22.1907L33.4949 22.1898Z" fill="#592D3D"/>
<path d="M5.67485 22.1932C6.52198 21.9339 7.38612 21.7411 8.26021 21.6162L8.02509 21.6497C9.53261 21.4415 11.0596 21.444 12.5665 21.6572L12.3314 21.6246C13.2104 21.751 14.0801 21.9409 14.9344 22.1932C15.3763 22.3237 15.9155 22.0319 16.0216 21.5407C16.0794 21.3022 16.0471 21.0495 15.9317 20.8356C15.8163 20.6217 15.6267 20.4635 15.4029 20.3941C14.1262 20.0195 12.8176 19.7791 11.4961 19.6763C9.37415 19.5306 7.24431 19.7738 5.20109 20.395C4.97952 20.4626 4.7902 20.6157 4.67076 20.8238C4.55272 21.0414 4.52095 21.2994 4.58237 21.5416C4.72821 22.0179 5.19313 22.3377 5.66954 22.1941L5.67485 22.1932Z" fill="#592D3D"/>
<path opacity="0.2" d="M10.3374 39.0893C14.8923 39.0893 18.5849 35.195 18.5849 30.3912C18.5849 25.5873 14.8923 21.6931 10.3374 21.6931C5.78238 21.6931 2.08984 25.5873 2.08984 30.3912C2.08984 35.195 5.78238 39.0893 10.3374 39.0893Z" fill="white"/>
<path opacity="0.15" d="M46.1859 35.8232C45.1148 37.4774 43.581 38.738 41.7984 39.4293C40.0157 40.1206 38.073 40.2083 36.2409 39.68C34.4088 39.1517 32.7785 38.0339 31.5774 36.4822C30.3762 34.9305 29.6639 33.0223 29.5398 31.0234C26.2694 29.6625 22.961 29.6746 19.4467 31.0598C19.2836 33.4902 18.2541 35.7654 16.5651 37.4279C14.8762 39.0903 12.653 40.0167 10.3427 40.0208C7.47186 40.0208 3.6252 36.6183 4.06714 37.3743C5.30458 39.303 8.22139 40.7721 10.4788 40.7721C15.3004 40.7721 19.1294 37.1096 19.4555 32.1104C22.9699 30.7261 26.2818 30.7121 29.5486 32.074C29.858 37.091 33.8257 40.7926 38.6588 40.7926C42.6088 40.7926 44.8539 37.6111 46.1859 35.8232Z" fill="black"/>
<path opacity="0.4" d="M8.667 39.7321L19.5449 28.2589C19.3059 27.6904 19.0096 27.1507 18.6611 26.649L7.13965 38.8009C7.61565 39.1681 8.12771 39.4803 8.667 39.7321Z" fill="white"/>
<path d="M10.3374 39.0893C14.8923 39.0893 18.5849 35.195 18.5849 30.3912C18.5849 25.5873 14.8923 21.6931 10.3374 21.6931C5.78238 21.6931 2.08984 25.5873 2.08984 30.3912C2.08984 35.195 5.78238 39.0893 10.3374 39.0893Z" stroke="#592D3D" stroke-width="1.76777" stroke-miterlimit="10"/>
<path d="M38.6489 39.0893C43.2039 39.0893 46.8964 35.195 46.8964 30.3912C46.8964 25.5873 43.2039 21.6931 38.6489 21.6931C34.0939 21.6931 30.4014 25.5873 30.4014 30.3912C30.4014 35.195 34.0939 39.0893 38.6489 39.0893Z" stroke="#592D3D" stroke-width="1.76777" stroke-miterlimit="10"/>
<path d="M18.6348 30.3912C22.6299 28.6844 26.5552 28.6201 30.4028 30.3912" stroke="#592D3D" stroke-width="1.76777" stroke-miterlimit="10"/>
<path d="M8.19868 25.1676C8.38076 25.7735 7.67365 26.2396 7.14332 26.3328C6.61299 26.3328 6.25944 25.9599 6.08266 25.4938C5.99427 25.0278 6.08266 24.5617 6.43621 24.282C6.87816 24.0956 7.49687 23.9091 7.8902 24.3874C7.98842 24.4891 8.06632 24.6105 8.11931 24.7445C8.17229 24.8785 8.19928 25.0224 8.19868 25.1676Z" fill="white"/>
<path d="M9.14138 24.8099C9.08747 25.2135 8.55714 25.2135 8.46875 24.8406C8.46875 24.561 8.55714 24.4678 8.80904 24.4584C8.85276 24.4584 8.89605 24.4675 8.93643 24.4852C8.97681 24.5029 9.01349 24.5288 9.04436 24.5614C9.07523 24.5941 9.09969 24.6328 9.11634 24.6754C9.13299 24.7181 9.1415 24.7638 9.14138 24.8099Z" fill="white"/>
<path opacity="0.2" d="M38.6489 39.0893C43.2039 39.0893 46.8964 35.195 46.8964 30.3912C46.8964 25.5873 43.2039 21.6931 38.6489 21.6931C34.0939 21.6931 30.4014 25.5873 30.4014 30.3912C30.4014 35.195 34.0939 39.0893 38.6489 39.0893Z" fill="white"/>
<path opacity="0.4" d="M37.41 38.9913L46.8039 29.0833C46.753 28.7304 46.6818 28.3811 46.5909 28.0374L36.4209 38.7667C36.746 38.8626 37.0763 38.9376 37.41 38.9913Z" fill="white"/>
<path d="M38.6489 39.0893C43.2039 39.0893 46.8964 35.195 46.8964 30.3912C46.8964 25.5873 43.2039 21.6931 38.6489 21.6931C34.0939 21.6931 30.4014 25.5873 30.4014 30.3912C30.4014 35.195 34.0939 39.0893 38.6489 39.0893Z" stroke="#592D3D" stroke-width="1.76777" stroke-miterlimit="10"/>
<path d="M36.5092 25.1676C36.6913 25.7735 35.9842 26.2396 35.4539 26.3328C34.9235 26.3328 34.57 25.9599 34.3932 25.4938C34.3048 25.0278 34.3932 24.5617 34.7468 24.282C35.1887 24.0956 35.8074 23.9091 36.2007 24.3874C36.2988 24.4892 36.3766 24.6107 36.4296 24.7447C36.4825 24.8786 36.5096 25.0224 36.5092 25.1676Z" fill="white"/>
<path d="M37.4549 24.8099C37.4009 25.2135 36.8706 25.2135 36.7822 24.8406C36.7822 24.561 36.8706 24.4678 37.1216 24.4584C37.21 24.4584 37.2948 24.4955 37.3573 24.5614C37.4198 24.6273 37.4549 24.7167 37.4549 24.8099Z" fill="white"/>
</svg>
