<svg width="43" height="71" viewBox="0 0 43 71" fill="none" xmlns="http://www.w3.org/2000/svg">
<path d="M30.1846 54.8864C37.2153 54.8864 35.762 63.7359 35.8294 73.577H30.1846V54.8864Z" fill="#FDD2B2"/>
<path d="M31.9461 60.5535L30.1846 63.5073L31.0661 73.5777H33.5264C33.586 59.6131 31.9461 60.5535 31.9461 60.5535Z" fill="#F3AB98"/>
<path d="M1.00002 34.8449C1.00002 23.4328 10.2516 14.1812 21.6637 14.1812C33.0758 14.1812 42.3274 23.4328 42.3274 34.8449C42.3303 37.9198 41.6456 40.9564 40.3234 43.7325C39.0011 46.5086 37.0748 48.9539 34.6855 50.8894C34.2615 51.2343 33.8241 51.562 33.3733 51.8724C28.713 54.8308 22.8257 54.8308 17.5108 54.3575C16.9949 54.28 16.4805 54.1824 15.9701 54.0701C13.9304 53.6208 11.9558 52.9275 10.1315 51.9165C9.6807 51.6387 9.24354 51.3387 8.82007 51.0164C8.39443 50.6923 7.9859 50.3464 7.59613 49.9799C7.2274 49.6375 6.87132 49.2817 6.52789 48.9125C2.96895 45.0933 0.993136 40.0652 1.00002 34.8449Z" fill="#FDD2B2"/>
<path d="M3.81668 45.2625C3.8709 45.3555 3.92435 45.4484 3.98013 45.5398C4.01344 45.5956 4.0483 45.6498 4.08316 45.7056C4.13428 45.7885 4.18541 45.8714 4.23809 45.9527C4.27527 46.0116 4.31555 46.0689 4.35119 46.1262C4.40231 46.2037 4.45344 46.2812 4.50611 46.3586C4.54562 46.4175 4.58358 46.4764 4.62696 46.5353C4.67809 46.6127 4.72921 46.684 4.78189 46.7584C4.82372 46.818 4.8671 46.8769 4.9097 46.9365C4.95231 46.9962 5.01351 47.0798 5.06463 47.1511C5.11576 47.2224 5.15372 47.2696 5.19865 47.3285C5.24358 47.3874 5.30477 47.4679 5.359 47.5376C5.41322 47.6074 5.45118 47.6546 5.49766 47.7127C5.54414 47.7708 5.60689 47.8491 5.66189 47.9164C5.71689 47.9838 5.75717 48.0319 5.8052 48.0892C5.85322 48.1465 5.91675 48.2224 5.97329 48.2883C6.02984 48.3541 6.07167 48.4021 6.12125 48.4587L6.29322 48.6524C6.34357 48.7089 6.3947 48.7639 6.44815 48.8197C6.51477 48.8925 6.58216 48.9645 6.64956 49.0358L6.74329 49.135C6.84322 49.2388 6.94392 49.3426 7.04618 49.4448L7.06632 49.4657C7.16625 49.5649 7.26773 49.6633 7.36921 49.7609L7.4916 49.8771C7.56519 49.946 7.63878 50.015 7.71315 50.0831L7.80301 50.1652C7.88047 50.2381 7.96491 50.3093 8.04625 50.3806C8.2993 50.6011 8.55751 50.8126 8.82089 51.015C9.24385 51.3373 9.68101 51.6373 10.1324 51.9152C11.9567 52.9222 13.9281 53.6194 15.9709 54.0687C16.4814 54.181 16.9957 54.2778 17.5116 54.3561C20.7729 54.6466 24.2511 54.7573 27.5263 54.1175C22.3183 52.5845 -2.6919 43.5784 13.0497 16.0583C12.839 16.1552 12.6314 16.2551 12.4253 16.3589L12.3796 16.3814C12.2851 16.4286 12.1906 16.4774 12.0969 16.527L12.0194 16.5681C11.7281 16.723 11.44 16.8833 11.1572 17.0507L11.0875 17.0917C10.9976 17.1452 10.9086 17.1994 10.8195 17.2544L10.7521 17.2962C10.4753 17.4692 10.2029 17.6482 9.93483 17.8331L9.85117 17.8912C9.76674 17.95 9.68385 18.0089 9.60096 18.0686L9.54983 18.105C9.38096 18.2284 9.21416 18.3534 9.04941 18.4799L9.00139 18.5171C8.92392 18.5775 8.84646 18.6395 8.76899 18.7022L8.67836 18.775C8.60089 18.8378 8.52343 18.9005 8.44596 18.9648C8.28251 19.1004 8.12139 19.2398 7.96258 19.3808L7.87427 19.4583L7.66589 19.6481L7.56519 19.7395C7.34416 19.946 7.12803 20.157 6.91681 20.3724L6.80991 20.4816C6.74871 20.5451 6.68752 20.6086 6.6271 20.6729C6.59146 20.7109 6.55583 20.7504 6.52097 20.7876C6.41458 20.9012 6.30975 21.0163 6.20646 21.1331C6.1716 21.1726 6.13597 21.2105 6.10111 21.2524C6.04611 21.3151 5.99188 21.3786 5.93766 21.4421L5.82069 21.5808C5.76801 21.6435 5.71534 21.7063 5.66576 21.7698C5.62393 21.8209 5.5821 21.8728 5.54104 21.9247C5.45815 22.0278 5.37682 22.1308 5.29625 22.2346C5.25442 22.2888 5.21259 22.3431 5.17154 22.3981C5.13048 22.4531 5.07858 22.5212 5.03287 22.584C4.98717 22.6467 4.94999 22.6963 4.9097 22.7528C4.86942 22.8094 4.82217 22.8729 4.77956 22.9333C4.70623 23.0366 4.63393 23.1412 4.56266 23.2471C4.52393 23.3036 4.4852 23.3617 4.44724 23.419C4.40928 23.4764 4.36203 23.5476 4.3202 23.6127L4.20478 23.7916L4.07464 24.0016C4.04133 24.055 4.00802 24.1085 3.97548 24.1619C3.90654 24.275 3.83992 24.3889 3.7733 24.5028L3.67879 24.6701C3.63696 24.7437 3.59513 24.818 3.55407 24.8924C3.52309 24.949 3.4921 25.0055 3.46189 25.0621C3.41231 25.1542 3.36351 25.2472 3.31471 25.3402L3.22175 25.5214C3.17217 25.6206 3.1226 25.719 3.07379 25.8189C3.04823 25.8723 3.02189 25.9266 2.99633 25.9808C2.95605 26.0652 2.91886 26.1504 2.87781 26.2356C2.85379 26.2868 2.83055 26.3379 2.80731 26.3906C2.74999 26.5181 2.69396 26.6472 2.63922 26.7779C2.62217 26.8182 2.60591 26.8592 2.58886 26.8995C2.54781 26.9979 2.50753 27.0963 2.46802 27.1954C2.4471 27.2473 2.42696 27.2992 2.40682 27.3504C2.36809 27.448 2.32936 27.5464 2.2945 27.6447C2.27823 27.6873 2.26196 27.7299 2.24647 27.7725C2.19793 27.9084 2.15016 28.0442 2.10316 28.18L2.05978 28.3117C2.0257 28.415 1.99239 28.5183 1.95985 28.6216L1.91337 28.7695C1.87696 28.8888 1.84133 29.0081 1.80725 29.1282C1.7995 29.1537 1.79175 29.1793 1.78478 29.2056C1.7445 29.3482 1.70577 29.4912 1.66859 29.6348C1.65619 29.6805 1.64535 29.727 1.63373 29.7727C1.60661 29.8804 1.58027 29.988 1.55626 30.0965L1.52373 30.2321C1.49042 30.3792 1.45788 30.5264 1.42767 30.6744L1.41605 30.734C1.38971 30.8657 1.36389 30.9974 1.33859 31.1291C1.33006 31.1763 1.32232 31.2228 1.3138 31.2701C1.29366 31.3855 1.27429 31.5025 1.25647 31.6187C1.25028 31.6582 1.24331 31.6961 1.23788 31.7364C1.21464 31.8875 1.19373 32.0393 1.17359 32.1919L1.16197 32.2926C1.14647 32.4158 1.13253 32.5397 1.11936 32.6637C1.11471 32.7101 1.10929 32.7566 1.10464 32.8039C1.09225 32.934 1.08063 33.0649 1.06978 33.1958C1.06978 33.223 1.06514 33.2493 1.06359 33.2733C1.05223 33.4282 1.04215 33.5845 1.03337 33.742C1.03337 33.783 1.03338 33.8249 1.02795 33.8659C1.02279 33.9878 1.01814 34.1094 1.01401 34.2308C1.01401 34.2765 1.01401 34.3222 1.01401 34.3679C1.01401 34.5267 1.00781 34.6863 1.00781 34.8458C1.00781 34.8458 1.00781 34.8513 1.00781 34.8536C1.00781 35.0256 1.00781 35.196 1.01401 35.3664C1.01401 35.4253 1.01866 35.4842 1.02021 35.543C1.02408 35.6569 1.02795 35.7708 1.03337 35.8846C1.03337 35.9536 1.0419 36.0218 1.04577 36.0907C1.05197 36.1937 1.05739 36.2968 1.06514 36.4006C1.07056 36.478 1.07753 36.547 1.08373 36.6198C1.09225 36.7174 1.09999 36.815 1.11007 36.9118C1.11704 36.9893 1.12633 37.0621 1.13408 37.1372C1.14492 37.231 1.15499 37.3255 1.16661 37.4192C1.17591 37.4967 1.18675 37.5741 1.19683 37.6477C1.20922 37.7391 1.22161 37.8313 1.23556 37.9227C1.24718 38.0002 1.25957 38.0777 1.27197 38.1551C1.28591 38.245 1.30063 38.3356 1.31612 38.4255C1.33006 38.5029 1.34401 38.5804 1.35873 38.6579C1.37499 38.747 1.39204 38.836 1.40908 38.9244C1.42612 39.0127 1.44084 39.0793 1.45711 39.1567C1.4757 39.2451 1.49429 39.3326 1.51443 39.4201C1.53457 39.5077 1.54852 39.5751 1.56711 39.6471C1.58725 39.7346 1.60894 39.8214 1.63063 39.9074C1.65232 39.9934 1.66859 40.0584 1.68795 40.1328C1.71119 40.2196 1.73443 40.3055 1.75844 40.3915C1.77858 40.469 1.7995 40.5403 1.82119 40.6139C1.84598 40.6998 1.87154 40.7851 1.89866 40.8703C1.92577 40.9555 1.94358 41.0167 1.96682 41.0903C1.99006 41.1639 2.02105 41.2599 2.04894 41.3444C2.07682 41.4288 2.09696 41.4892 2.12175 41.5613C2.15119 41.6457 2.18063 41.7301 2.21084 41.8146C2.2364 41.885 2.26119 41.9563 2.2883 42.0268L2.38436 42.2801C2.41147 42.3491 2.43781 42.4188 2.46182 42.4877C2.49591 42.5722 2.53077 42.6574 2.56563 42.7418C2.59351 42.8084 2.62062 42.8758 2.64929 42.9424C2.68569 43.0292 2.72675 43.1144 2.76161 43.2004C2.79027 43.2639 2.81816 43.3282 2.84682 43.3917C2.8871 43.4816 2.92971 43.5699 2.97077 43.6582L3.05443 43.8364C3.10168 43.934 3.15048 44.03 3.19929 44.1269C3.22408 44.1757 3.24731 44.2253 3.27288 44.2741C3.42161 44.5638 3.57654 44.8496 3.73766 45.1316C3.76013 45.168 3.78879 45.2153 3.81668 45.2625Z" fill="#F3AB98"/>
<path d="M1.00002 34.8449C1.00002 23.4328 10.2516 14.1812 21.6637 14.1812C33.0758 14.1812 42.3274 23.4328 42.3274 34.8449C42.3303 37.9198 41.6456 40.9564 40.3234 43.7325C39.0011 46.5086 37.0748 48.9539 34.6855 50.8894C34.2615 51.2343 33.8241 51.562 33.3733 51.8724C28.713 54.8308 22.8257 54.8308 17.5108 54.3575C16.9949 54.28 16.4805 54.1824 15.9701 54.0701C13.9304 53.6208 11.9558 52.9275 10.1315 51.9165C9.6807 51.6387 9.24354 51.3387 8.82007 51.0164C8.39443 50.6923 7.9859 50.3464 7.59613 49.9799C7.2274 49.6375 6.87132 49.2817 6.52789 48.9125C2.96895 45.0933 0.993136 40.0652 1.00002 34.8449V34.8449Z" stroke="#592D3D" stroke-width="0.929575" stroke-miterlimit="10"/>
<path d="M12.8416 54.8864C5.81017 54.8864 7.26418 63.7359 7.19679 73.577H12.8416V54.8864Z" fill="#FDD2B2"/>
<path d="M11.378 60.5535L13.1418 63.5073L12.2595 73.5777H9.80156C9.73881 59.6131 11.378 60.5535 11.378 60.5535Z" fill="#F3AB98"/>
<path d="M30.9182 78.9995H12.4088C12.1361 78.9993 11.8746 78.8909 11.6819 78.698C11.4891 78.5051 11.3809 78.2435 11.3809 77.9708V55.9151C11.3809 55.6424 11.4891 55.3808 11.6819 55.1879C11.8746 54.995 12.1361 54.8866 12.4088 54.8864H30.4759C31.4899 54.8864 31.9477 55.4797 31.9477 56.4263V77.9677C31.9481 78.1031 31.9218 78.2373 31.8702 78.3625C31.8187 78.4877 31.7429 78.6015 31.6472 78.6974C31.5516 78.7933 31.4379 78.8693 31.3128 78.9212C31.1877 78.973 31.0536 78.9996 30.9182 78.9995Z" fill="#FDD2B2"/>
<path d="M31.6603 55.4984C31.5831 55.4034 31.5178 55.2993 31.4659 55.1885C31.2799 55.0428 31.0586 54.9489 30.8245 54.9166C30.7091 54.8987 30.5926 54.8899 30.4759 54.8903H12.4088C12.1368 54.8905 11.8759 54.9984 11.6833 55.1905C11.4906 55.3825 11.3819 55.6431 11.3809 55.9151C13.6273 56.7223 17.8329 57.1731 21.6635 57.1731C26.5484 57.1731 29.7493 56.4489 31.6603 55.4984Z" fill="#F3AB98"/>
<path d="M30.1846 54.8864C37.2153 54.8864 35.762 63.7359 35.8294 73.577H31.9461" stroke="#592D3D" stroke-width="0.929575" stroke-miterlimit="10" stroke-linecap="square"/>
<path d="M12.8416 54.8864C5.81017 54.8864 7.26418 63.7359 7.19679 73.577H11.0754" stroke="#592D3D" stroke-width="0.929575" stroke-miterlimit="10" stroke-linecap="square"/>
<path d="M12.4092 54.8941L30.4763 54.8864" stroke="#592D3D" stroke-width="0.929575" stroke-miterlimit="10"/>
<path d="M12.4088 79H21.4427C12.9875 79 13.6258 61.0917 11.3809 61.0917V77.9682C11.3805 78.1035 11.4067 78.2375 11.4582 78.3626C11.5097 78.4877 11.5853 78.6015 11.6808 78.6973C11.7763 78.7932 11.8897 78.8692 12.0147 78.9212C12.1396 78.9731 12.2735 78.9999 12.4088 79Z" fill="#F3AB98"/>
<path d="M10.9168 62.7986C10.9021 62.5143 10.9083 62.23 10.9206 61.9465C10.933 61.663 10.9571 61.3771 10.9873 61.0944C11.0028 60.9518 11.0183 60.8101 11.0376 60.6676C11.057 60.525 11.0756 60.3833 11.1035 60.2407C11.1584 59.9457 11.2519 59.6592 11.3816 59.3886C11.5112 59.6592 11.6047 59.9457 11.6597 60.2407C11.6875 60.3833 11.7077 60.525 11.7255 60.6676C11.7433 60.8101 11.7604 60.9518 11.7759 61.0944C11.8053 61.3787 11.8285 61.663 11.8417 61.9465C11.8549 62.23 11.8611 62.5151 11.8463 62.7986H10.9168Z" fill="#592D3D"/>
<path d="M31.946 63.5066V64.1263C31.9662 66.7601 31.9662 69.4714 31.946 72.0858C31.946 72.3081 31.946 72.5289 31.946 72.7466V77.9685C31.9463 78.1037 31.92 78.2376 31.8685 78.3627C31.817 78.4877 31.7413 78.6013 31.6458 78.6971C31.5504 78.7929 31.4369 78.8689 31.3121 78.9208C31.1872 78.9727 31.0533 78.9994 30.9181 78.9995H12.4087C12.136 78.9993 11.8745 78.8908 11.6818 78.6979C11.489 78.505 11.3807 78.2435 11.3807 77.9708V73.4623C11.3807 73.2679 11.3807 73.0696 11.3807 72.8697C11.3614 70.1685 11.3614 67.4573 11.3807 64.7127V62.7978" stroke="#592D3D" stroke-width="0.929575" stroke-miterlimit="10"/>
<path d="M31.4809 63.5067C31.4662 63.1837 31.4732 62.8599 31.4856 62.5361C31.498 62.2123 31.522 61.8893 31.5514 61.5655C31.5669 61.4036 31.5832 61.2417 31.6018 61.0798C31.6204 60.9179 31.6398 60.7567 31.6676 60.5948C31.7216 60.2614 31.815 59.9356 31.9457 59.6242C32.0765 59.9356 32.1699 60.2614 32.2238 60.5948C32.2517 60.7567 32.2719 60.9186 32.2897 61.0798C32.3075 61.2409 32.3245 61.4036 32.34 61.5655C32.3695 61.8893 32.3935 62.2123 32.4059 62.5361C32.4183 62.8599 32.4252 63.1837 32.4105 63.5067H31.4809Z" fill="#592D3D"/>
<path d="M21.8241 64.1934C21.8239 65.005 21.6398 65.806 21.2855 66.5362C20.9312 67.2664 20.416 67.9068 19.7785 68.4092C19.1411 68.9116 18.3981 69.2629 17.6053 69.4368C16.8126 69.6107 15.9907 69.6026 15.2015 69.4131C14.4123 69.2236 13.6764 68.8577 13.049 68.3428C12.4216 67.8279 11.9191 67.1775 11.5793 66.4405C11.2394 65.7035 11.0711 64.899 11.087 64.0875C11.1028 63.2761 11.3024 62.4788 11.6708 61.7556" stroke="#592D3D" stroke-width="0.929575" stroke-miterlimit="10"/>
<path d="M11.6709 61.7551C11.9642 61.182 12.3578 60.6659 12.8329 60.2314L11.6709 61.7551Z" fill="#FDD2B2"/>
<path d="M11.2559 61.5444C11.3239 61.3833 11.4118 61.2313 11.5177 61.092C11.6227 60.9525 11.7401 60.8229 11.8686 60.7047C11.9337 60.6458 11.9995 60.5885 12.0685 60.535C12.1369 60.4797 12.2097 60.4299 12.2861 60.3863C12.4514 60.2909 12.6377 60.2377 12.8284 60.2314C12.8083 60.4127 12.7626 60.5903 12.6928 60.7589C12.6626 60.8364 12.6285 60.9045 12.5929 60.9735L12.4922 61.1803C12.4263 61.3167 12.3613 61.4507 12.2947 61.5824C12.2302 61.7151 12.1588 61.8444 12.0809 61.9697L11.2559 61.5444Z" fill="#592D3D"/>
<path d="M20.8369 61.0917C21.4797 61.997 21.8247 63.08 21.8238 64.1903L20.8369 61.0917Z" fill="#FDD2B2"/>
<path d="M20.8369 61.0917C21.1014 61.2351 21.3312 61.4348 21.5101 61.6766C21.5991 61.7942 21.6794 61.9182 21.7502 62.0476C21.8223 62.177 21.8873 62.3103 21.9478 62.4466C22.0666 62.7205 22.1565 63.0061 22.2158 63.2987C22.276 63.5924 22.3004 63.8923 22.2886 64.1919H21.359C21.3443 63.9401 21.3311 63.6899 21.3048 63.4381C21.2785 63.1864 21.2452 62.9362 21.1964 62.6836L21.1576 62.4946L21.1127 62.3048C21.0802 62.1786 21.0453 62.0523 21.0128 61.9229C20.9396 61.6491 20.8809 61.3717 20.8369 61.0917Z" fill="#592D3D"/>
<path d="M32.6361 64.1931C32.6369 63.4581 32.4865 62.7308 32.1941 62.0564C31.9017 61.3821 31.4736 60.7751 30.9365 60.2734" fill="#FDD2B2"/>
<path d="M32.1713 64.1936C32.1589 63.8599 32.1263 63.5272 32.0737 63.1974C32.0194 62.8643 31.9385 62.5361 31.832 62.2159C31.8057 62.1384 31.7747 62.0556 31.746 61.975C31.7174 61.8944 31.681 61.8162 31.6492 61.7356C31.6174 61.6551 31.5764 61.5807 31.5423 61.4994L31.4292 61.267C31.2743 60.9494 31.1062 60.6325 30.9365 60.2793C31.2955 60.4324 31.6181 60.6597 31.8831 60.9463C31.9474 61.0191 32.0148 61.0903 32.0745 61.167C32.1341 61.2437 32.1938 61.322 32.2488 61.3994C32.3038 61.4769 32.3595 61.5613 32.4091 61.6458C32.4587 61.7302 32.5106 61.8146 32.5548 61.903C32.7392 62.2533 32.8797 62.6251 32.9731 63.0099C33.0685 63.3969 33.1107 63.7952 33.0986 64.1936H32.1713Z" fill="#592D3D"/>
<path d="M21.8959 64.193C21.8874 64.9034 22.0199 65.6085 22.2859 66.2674C22.5519 66.9262 22.946 67.5257 23.4453 68.0311C23.9447 68.5365 24.5394 68.9378 25.195 69.2117C25.8506 69.4855 26.5541 69.6266 27.2646 69.6266C27.9751 69.6266 28.6785 69.4855 29.3341 69.2117C29.9897 68.9378 30.5844 68.5365 31.0838 68.0311C31.5832 67.5257 31.9773 66.9262 32.2433 66.2674C32.5092 65.6085 32.6418 64.9034 32.6333 64.193" stroke="#592D3D" stroke-width="0.929575" stroke-miterlimit="10"/>
<path d="M22.8855 61.0917C22.243 61.9971 21.8983 63.0801 21.8994 64.1903L22.8855 61.0917Z" fill="#FDD2B2"/>
<path d="M22.885 61.0917C22.841 61.3722 22.7823 61.6502 22.7091 61.9245C22.6766 62.0538 22.6417 62.1801 22.6092 62.3064L22.565 62.4962L22.5263 62.6852C22.4775 62.9377 22.4419 63.1887 22.4171 63.4397C22.3923 63.6907 22.3783 63.9417 22.3636 64.1934H21.431C21.4184 63.8938 21.4428 63.5938 21.5038 63.3003C21.5627 63.0075 21.6526 62.7219 21.7718 62.4481C21.8314 62.3118 21.8965 62.1786 21.9686 62.0492C22.0397 61.92 22.1199 61.796 22.2087 61.6781C22.3885 61.4356 22.6194 61.2354 22.885 61.0917Z" fill="#592D3D"/>
<path d="M12.6348 60.9929V54.8864" stroke="#592D3D" stroke-width="0.929575" stroke-miterlimit="10"/>
<path d="M30.6855 60.9929V54.8864" stroke="#592D3D" stroke-width="0.929575" stroke-miterlimit="10"/>
<path d="M19.3789 65.6585H23.5543V67.1846C22.18 66.7159 20.788 66.7275 19.3789 67.1846V65.6585Z" fill="#D67070" stroke="#592D3D" stroke-width="0.929575" stroke-miterlimit="10"/>
<path d="M32.3616 64.1931C32.3636 62.8332 31.8476 61.5236 30.9185 60.5306C30.5916 60.1804 27.4891 61.0101 25.6656 62.6423C23.8754 64.245 22.3168 66.8633 22.5399 67.1933C23.1825 68.1471 24.1145 68.8693 25.1985 69.2536C26.2824 69.6379 27.4612 69.664 28.5611 69.328C29.661 68.992 30.624 68.3117 31.3082 67.3873C31.9924 66.4629 32.3617 65.3432 32.3616 64.1931Z" fill="#D67070" stroke="#592D3D" stroke-width="0.929575" stroke-miterlimit="10"/>
<path d="M29.2646 61.8328C28.7905 62.1171 28.3234 62.389 27.8702 62.6849C27.423 62.9708 26.9952 63.286 26.5897 63.6285C26.1908 63.9739 25.8066 64.3504 25.4278 64.7331C25.049 65.1158 24.6771 65.5077 24.2852 65.9005C24.5228 65.4018 24.8132 64.9299 25.1512 64.493C25.4887 64.0492 25.8705 63.6409 26.2907 63.2744C26.7182 62.9126 27.1905 62.6072 27.6959 62.3658C28.1938 62.1216 28.721 61.9425 29.2646 61.8328Z" fill="white"/>
<path d="M10.9658 64.1931C10.9639 62.8332 11.4799 61.5236 12.409 60.5306C12.7359 60.1804 15.8383 61.0101 17.6619 62.6423C19.4521 64.245 21.0107 66.8633 20.7876 67.1933C20.1449 68.1471 19.213 68.8693 18.129 69.2536C17.045 69.6379 15.8663 69.664 14.7664 69.328C13.6665 68.992 12.7035 68.3117 12.0193 67.3873C11.3351 66.4629 10.9658 65.3432 10.9658 64.1931Z" fill="#D67070" stroke="#592D3D" stroke-width="0.929575" stroke-miterlimit="10"/>
<path d="M18.2361 68.8452C16.4824 68.8452 14.8005 68.1485 13.5605 66.9085C12.3204 65.6684 11.6237 63.9865 11.6237 62.2328C11.6237 62.0075 11.6351 61.7823 11.6578 61.5581C11.0754 62.5921 10.852 63.79 11.0225 64.9645C11.193 66.1389 11.7479 67.2238 12.6003 68.0495C13.4528 68.8752 14.5547 69.3952 15.734 69.5283C16.9133 69.6613 18.1035 69.3998 19.1184 68.7848C18.826 68.8245 18.5312 68.8447 18.2361 68.8452Z" fill="#C46565"/>
<path d="M10.9658 64.1931C10.9639 62.8332 11.4799 61.5236 12.409 60.5306C12.7359 60.1804 15.8383 61.0101 17.6619 62.6423C19.4521 64.245 21.0107 66.8633 20.7876 67.1933C20.1449 68.1471 19.213 68.8693 18.129 69.2536C17.045 69.6379 15.8663 69.664 14.7664 69.328C13.6665 68.992 12.7035 68.3117 12.0193 67.3873C11.3351 66.4629 10.9658 65.3432 10.9658 64.1931V64.1931Z" stroke="#592D3D" stroke-width="0.929575" stroke-miterlimit="10"/>
<path d="M14.0635 61.8328C14.607 61.9422 15.1342 62.1211 15.6321 62.365C16.1376 62.6067 16.6099 62.9123 17.0373 63.2744C17.4558 63.6406 17.8361 64.0484 18.1722 64.4914C18.5102 64.9284 18.8006 65.4002 19.0383 65.8989C18.6463 65.5116 18.276 65.1142 17.8956 64.7315C17.5153 64.3489 17.1334 63.9724 16.7337 63.6269C16.3282 63.2844 15.9004 62.9692 15.4532 62.6834C15.0016 62.389 14.5368 62.1171 14.0635 61.8328Z" fill="white"/>
<path d="M25.3713 61.8009L22.1077 59.1384L27.8889 54.8942H15.4404L21.2215 59.1384L17.958 61.8009L15.043 57.4242V63.5036H28.542V57.0399L25.3713 61.8009Z" fill="#F3AB98"/>
<path d="M30.7013 54.8433L27.3912 54.8511C27.3741 55.201 27.3371 55.5496 27.2804 55.8953C27.244 56.0612 27.199 56.2251 27.1456 56.3864C26.9644 56.8892 25.8086 57.316 25.4809 57.6824C25.3724 57.8043 25.2559 57.9189 25.1323 58.0256C23.1826 59.4354 20.084 59.5129 18.2008 57.9806C17.9977 57.8033 17.8132 57.6058 17.65 57.3911C17.3224 56.9604 16.3796 56.4933 16.2479 55.924C16.2106 55.7555 16.1827 55.5851 16.1643 55.4135C16.1456 55.2385 16.1363 55.0627 16.1364 54.8867L12.6342 54.8433C12.3615 54.8433 12.1 54.9516 11.9071 55.1444C11.7141 55.3371 11.6057 55.5986 11.6055 55.8713V77.9247C11.6057 78.1974 11.7141 78.4588 11.9071 78.6516C12.1 78.8444 12.3615 78.9526 12.6342 78.9526H31.1428C31.4154 78.9526 31.6769 78.8443 31.8697 78.6516C32.0625 78.4588 32.1708 78.1973 32.1708 77.9247V56.3802C32.1708 55.4367 31.7153 54.8433 30.7013 54.8433Z" fill="white"/>
<path d="M30.4053 54.8433C35.3274 54.8433 37.2624 58.2045 36.5172 75.9137C35.0655 76.4327 32.1862 76.2693 32.1862 76.2693L30.4053 54.8433Z" fill="white"/>
<path d="M17.873 62.376L21.6262 60.5099L25.3894 62.376L22.5186 59.0435L19.1187 59.1078L17.873 62.376Z" fill="#E2E2E2"/>
<path d="M32.1703 60.5096C32.1703 60.5096 30.4049 67.0585 30.6745 78.6363L33.2471 76.2349L33.5244 65.5773C33.0891 59.9821 32.1703 60.5096 32.1703 60.5096Z" fill="#E2E2E2"/>
<path d="M13.0655 54.8433C8.27974 54.8433 6.18045 59.2162 6.81024 73.8593C8.547 74.627 11.163 74.2916 11.163 74.2916L13.0655 54.8433Z" fill="white"/>
<path d="M6.70898 70.2843C6.72241 71.341 6.75365 72.4637 6.80272 73.6525C7.9856 73.7091 10.1871 73.7207 11.2267 73.6525L11.5505 70.3362C10.7162 70.2386 8.00419 70.2069 6.70898 70.2843Z" fill="#E2E2E2"/>
<path d="M11.6021 60.51L11.5633 74.2747L10.5292 74.3444C10.2991 62.7983 11.6021 60.51 11.6021 60.51Z" fill="#E2E2E2"/>
<path d="M30.4053 54.8433C35.6279 54.8433 36.4824 59.203 36.5172 65.2065V75.9137C36.5172 75.9137 32.644 76.3421 32.1862 76.2693L32.1784 65.2608" stroke="#592D3D" stroke-width="0.929575" stroke-miterlimit="10" stroke-linecap="square"/>
<path d="M13.0656 54.8433C11.0725 54.8433 9.69439 55.4723 8.75009 56.5816C7.24341 58.3532 6.84214 61.3488 6.81348 64.9687V74.5565C7.7477 74.8137 11.5667 74.2745 11.5667 74.2745L11.6047 65.0872" stroke="#592D3D" stroke-width="0.929575" stroke-miterlimit="10" stroke-linecap="square"/>
<path d="M11.7956 74.448C11.6539 74.6502 6.08107 74.5967 6.01135 74.448C5.94164 74.2993 5.84171 71.5431 6.01135 71.272C6.15079 71.0489 11.5973 71.0961 11.7956 71.272C11.9939 71.4478 11.9374 74.2458 11.7956 74.448Z" fill="white" stroke="#592D3D" stroke-width="0.929575" stroke-miterlimit="10" stroke-linecap="square"/>
<path d="M12.6344 78.9529H21.6644C13.2061 78.9529 13.8475 61.0477 11.6025 61.0477V77.9249C11.6026 78.0602 11.6294 78.1942 11.6814 78.3191C11.7333 78.444 11.8094 78.5575 11.9052 78.653C12.0011 78.7484 12.1148 78.8241 12.2399 78.8756C12.365 78.927 12.4991 78.9533 12.6344 78.9529Z" fill="#E2E2E2"/>
<path d="M11.1404 62.7548C11.1256 62.4705 11.1318 62.1854 11.145 61.9027C11.1582 61.6199 11.1814 61.3341 11.2108 61.0506C11.2263 60.9088 11.2426 60.7663 11.2612 60.6237C11.2798 60.4812 11.2992 60.3395 11.327 60.1977C11.3819 59.9027 11.4754 59.6162 11.6051 59.3456C11.7349 59.6162 11.8284 59.9027 11.8832 60.1977C11.9111 60.3395 11.9313 60.482 11.9491 60.6237C11.9669 60.7655 11.9839 60.9088 11.9994 61.0506C12.0294 61.3356 12.0516 61.6197 12.0661 61.9027C12.0785 62.187 12.0846 62.472 12.0661 62.7548H11.1404Z" fill="#592D3D"/>
<path d="M32.1703 63.4605V64.0802C32.1904 66.714 32.1904 69.4252 32.1703 72.0404C32.1703 72.2628 32.1703 72.4835 32.1703 72.7012V77.9231C32.1703 78.1957 32.0619 78.4572 31.8692 78.65C31.6764 78.8428 31.4149 78.9511 31.1423 78.9511H12.6337C12.361 78.9511 12.0994 78.8428 11.9065 78.65C11.7136 78.4573 11.6052 78.1958 11.6049 77.9231V72.8259C11.5848 70.1255 11.5848 67.4143 11.6049 64.6689V62.7548" stroke="#592D3D" stroke-width="0.929575" stroke-miterlimit="10"/>
<path d="M36.9556 71.2719C37.1275 71.447 37.0787 74.2458 36.9556 74.448C36.8324 74.6502 31.9978 74.5967 31.9382 74.448C31.8785 74.2993 31.791 71.5431 31.9382 71.2719C31.9591 71.2332 32.1148 71.203 32.3604 71.1805" fill="white"/>
<path d="M36.9556 71.2719C37.1275 71.447 37.0787 74.2458 36.9556 74.448C36.8324 74.6502 31.9978 74.5967 31.9382 74.448C31.8785 74.2993 31.791 71.5431 31.9382 71.2719C31.9591 71.2332 32.1148 71.203 32.3604 71.1805" stroke="#592D3D" stroke-width="0.929575" stroke-miterlimit="10" stroke-linecap="square"/>
<path d="M35.5244 71.1213C35.5695 71.0627 35.6182 71.0068 35.67 70.954C35.7123 70.9118 35.7585 70.8736 35.8079 70.8401C35.8525 70.8106 35.8994 70.7847 35.9481 70.7627C35.9954 70.7402 36.0427 70.7208 36.0899 70.7015C36.1851 70.663 36.2833 70.6324 36.3835 70.6101C36.4346 70.5988 36.4863 70.5908 36.5384 70.5861C36.5663 70.5861 36.595 70.5861 36.6291 70.5861C36.6484 70.5861 36.6647 70.5861 36.6926 70.5861C36.7019 70.5861 36.7267 70.5861 36.7476 70.5915H36.7747L36.8127 70.6L36.832 70.6047L36.8475 70.6093L36.8917 70.6256C36.9496 70.6508 37.0021 70.6868 37.0466 70.7317L37.3719 71.064L36.7019 71.7209L36.3827 71.3824C36.4245 71.4262 36.4749 71.461 36.5307 71.4846C36.5446 71.4908 36.5586 71.4955 36.5725 71.5001H36.5857L36.6004 71.504C36.61 71.5072 36.6198 71.5095 36.6298 71.511H36.6446C36.6523 71.511 36.6647 71.511 36.6616 71.511C36.6585 71.511 36.6562 71.511 36.65 71.511H36.5919C36.5477 71.511 36.4997 71.511 36.4509 71.511C36.3488 71.505 36.2473 71.4912 36.1472 71.4699C36.0953 71.4583 36.0434 71.4467 35.9923 71.432C35.9392 71.4178 35.8873 71.3991 35.8374 71.3762C35.7797 71.3489 35.7255 71.3145 35.6762 71.2739C35.6173 71.2321 35.566 71.1805 35.5244 71.1213Z" fill="#592D3D"/>
<path d="M28.8302 55.2676L23.0459 59.5134L26.3103 62.1767L30.9132 55.2637L28.8302 55.2676Z" fill="#E2E2E2"/>
<path d="M31.7056 63.4606C31.6908 63.1368 31.6978 62.813 31.7102 62.4899C31.7226 62.1669 31.7466 61.8423 31.7768 61.5193C31.7923 61.3574 31.8078 61.1955 31.8264 61.0336C31.845 60.8717 31.8644 60.7098 31.893 60.5479C31.9465 60.2145 32.0396 59.8886 32.1703 59.5773C32.3016 59.8885 32.395 60.2144 32.4484 60.5479C32.4763 60.7098 32.4972 60.8717 32.5143 61.0336C32.5313 61.1955 32.5491 61.3574 32.5646 61.5193C32.5948 61.8423 32.6181 62.1661 32.6305 62.4899C32.6429 62.8137 32.6506 63.1368 32.6351 63.4606H31.7056Z" fill="#592D3D"/>
<path d="M12.6338 54.8511L30.7009 54.8433" stroke="#592D3D" stroke-width="0.929575" stroke-miterlimit="10"/>
<path d="M23.9404 60.8385L22.2091 59.108L20.4785 60.8385L21.3291 61.6891L20.5761 69.9491L22.1827 71.2017L23.842 69.9491L23.0898 61.6891L23.9404 60.8385Z" fill="#E2E2E2"/>
<path d="M21.666 59.108V78.9529" stroke="#592D3D" stroke-width="0.464788" stroke-miterlimit="10" stroke-linecap="square"/>
<path d="M21.6671 59.108L23.3984 60.2963L21.6671 62.0276L19.9365 60.2963L21.6671 59.108Z" fill="#D67070"/>
<path d="M15.4383 54.8926C15.4383 54.8926 18.7902 57.94 21.2218 59.1384C20.0381 61.0913 17.9582 61.8024 17.9582 61.8024L13.3545 54.8903L15.4383 54.8926Z" fill="white" stroke="#592D3D" stroke-width="0.929575" stroke-miterlimit="10"/>
<path d="M27.89 54.8932C27.89 54.8932 24.8394 58.0847 22.1064 59.139C22.8811 60.71 25.37 61.8014 25.37 61.8014L29.9738 54.8893L27.89 54.8932Z" fill="white" stroke="#592D3D" stroke-width="0.929575" stroke-miterlimit="10"/>
<path d="M20.0332 69.4071L21.6398 70.6597L23.2991 69.4071L22.5245 60.903H20.8078L20.0332 69.4071Z" fill="#D67070"/>
<path d="M19.9365 60.2959L20.7871 61.1465L20.0341 69.4065L21.6407 70.6591L23.3 69.4065L22.5479 61.1465L23.3984 60.2959" stroke="#592D3D" stroke-width="0.619717" stroke-miterlimit="10"/>
<path d="M32.3178 70.7176C32.5446 70.6856 32.7737 70.6735 33.0026 70.6812C33.2272 70.6866 33.4503 70.7045 33.6734 70.7316C33.7842 70.7455 33.8958 70.7602 34.0065 70.7788C34.1183 70.7952 34.2293 70.8171 34.3389 70.8447C34.5728 70.9016 34.7954 70.9977 34.9973 71.129C34.7925 71.2526 34.5699 71.3441 34.3373 71.4001C34.2281 71.428 34.1189 71.4489 34.0096 71.4667C33.9004 71.4845 33.7919 71.5031 33.6835 71.5202C33.4666 71.5527 33.2505 71.5806 33.0367 71.5976C32.8229 71.6147 32.6091 71.6364 32.4046 71.6395L31.9398 71.6472L31.8623 70.785L32.3178 70.7176Z" fill="#592D3D"/>
<path d="M20.9582 60.8875C20.9543 60.8829 20.9582 60.8875 20.9582 60.8875L20.9636 60.8914C20.9684 60.8939 20.9728 60.8971 20.9768 60.9007L21.0062 60.9231C21.0256 60.9394 21.0465 60.9557 21.0667 60.9735C21.1077 61.0083 21.1511 61.0455 21.1984 61.0812C21.2456 61.1168 21.2967 61.1509 21.3533 61.1912C21.4271 61.2467 21.4972 61.307 21.5632 61.3717C21.508 61.4618 21.4218 61.5287 21.3208 61.5599C21.2275 61.5858 21.1301 61.5929 21.0341 61.5808C20.9366 61.5713 20.8415 61.5451 20.7529 61.5033C20.7079 61.4818 20.6651 61.4559 20.6251 61.4259C20.6043 61.4107 20.5844 61.3945 20.5655 61.3771C20.5562 61.3686 20.5461 61.3593 20.5368 61.3492L20.5213 61.3329L20.502 61.3105L20.9582 60.8875Z" fill="#592D3D"/>
<path opacity="0.1" d="M16 70.6046C17.1214 70.6044 18.2146 70.2533 19.1262 69.6003C20.0378 68.9474 20.7222 68.0254 21.0832 66.9637C20.6249 67.7477 19.9796 68.406 19.2049 68.8799C18.4302 69.3537 17.5503 69.6284 16.6436 69.6793C15.7369 69.7303 14.8317 69.5559 14.0088 69.1718C13.1859 68.7877 12.4709 68.2058 11.9277 67.4781L11.9238 68.6192C12.9107 69.8299 14.3167 70.6046 16 70.6046Z" fill="black"/>
<path opacity="0.1" d="M27.3283 70.6046C26.207 70.6044 25.1138 70.2533 24.2022 69.6003C23.2905 68.9474 22.6062 68.0254 22.2451 66.9637C22.7034 67.7477 23.3487 68.406 24.1234 68.8799C24.8981 69.3537 25.7781 69.6284 26.6848 69.6793C27.5915 69.7303 28.4967 69.5559 29.3195 69.1718C30.1424 68.7877 30.8574 68.2058 31.4007 67.4781V68.6184C30.4176 69.8299 29.0116 70.6046 27.3283 70.6046Z" fill="black"/>
<path d="M14.4595 69.2248C13.6329 68.9163 12.895 68.4089 12.3111 67.7474C11.7271 67.0859 11.3152 66.2907 11.1117 65.4322C10.9081 64.5737 10.9192 63.6782 11.144 62.825C11.3688 61.9718 11.8003 61.1871 12.4005 60.5403" fill="white"/>
<path d="M14.4594 69.2243C13.5435 69.0748 12.6978 68.6412 12.0418 67.9848L11.9163 67.8609C11.8752 67.8191 11.8388 67.7734 11.7978 67.73C11.7567 67.6866 11.7203 67.6409 11.6831 67.596C11.6438 67.5517 11.6068 67.5054 11.5723 67.4573C11.5026 67.362 11.4321 67.2667 11.3647 67.1691L11.1811 66.8647C10.9494 66.4476 10.7746 66.0013 10.6613 65.5377C10.5561 65.0729 10.512 64.5963 10.5304 64.1201C10.5515 63.647 10.6402 63.1792 10.7938 62.7312C10.814 62.6762 10.8318 62.6204 10.8527 62.5654L10.9209 62.4027C10.9635 62.2943 11.0185 62.1905 11.0688 62.0859C11.1765 61.8801 11.2992 61.6825 11.436 61.4949C11.5018 61.4011 11.577 61.3128 11.649 61.2245C11.7211 61.1362 11.7993 61.0518 11.8814 60.9743C12.0415 60.8143 12.2161 60.6693 12.4028 60.5413C11.9542 61.3159 11.6359 62.1053 11.4995 62.9171C11.4286 63.3161 11.398 63.7212 11.4081 64.1263C11.423 64.5281 11.4749 64.9277 11.563 65.3201C11.6585 65.7102 11.7913 66.0902 11.9597 66.4549C12.1318 66.8234 12.3415 67.173 12.5856 67.4984C12.8324 67.8347 13.113 68.1448 13.423 68.4241C13.7484 68.7159 14.0948 68.9833 14.4594 69.2243Z" fill="#592D3D"/>
<path d="M28.8721 69.2248C29.6984 68.9159 30.4359 68.4081 31.0194 67.7465C31.6029 67.0848 32.0144 66.2896 32.2175 65.4311C32.4207 64.5726 32.4092 63.6773 32.1842 62.8243C31.9591 61.9713 31.5274 61.1868 30.9272 60.5403" fill="white"/>
<path d="M28.8721 69.2248C29.2358 68.9848 29.5815 68.7184 29.9062 68.4277C30.2162 68.1485 30.4968 67.8383 30.7436 67.502C30.9876 67.1767 31.1974 66.827 31.3695 66.4586C31.5378 66.0939 31.6707 65.7139 31.7661 65.3237C31.8543 64.9314 31.9062 64.5318 31.9211 64.13C31.9323 63.7234 31.9024 63.3167 31.832 62.9161C31.6957 62.1043 31.3773 61.3173 30.9288 60.5403C31.1154 60.6683 31.29 60.8133 31.4501 60.9733C31.5338 61.0508 31.605 61.1391 31.6825 61.2235C31.76 61.308 31.8297 61.4001 31.8955 61.4939C32.0323 61.6816 32.155 61.8791 32.2627 62.0849C32.313 62.1895 32.368 62.2933 32.4107 62.4018L32.4788 62.5644C32.4997 62.6194 32.5176 62.6752 32.5377 62.7302C32.6913 63.1783 32.78 63.646 32.8011 64.1191C32.8195 64.5954 32.7754 65.0719 32.6702 65.5367C32.5569 66.0003 32.3821 66.4466 32.1504 66.8637L31.9668 67.1682C31.8994 67.2658 31.8289 67.361 31.7592 67.4563C31.7247 67.5044 31.6877 67.5507 31.6484 67.595C31.6104 67.6399 31.5709 67.6848 31.5338 67.729C31.4966 67.7732 31.4563 67.8181 31.4152 67.8599L31.2897 67.9839C30.6339 68.6408 29.7881 69.0749 28.8721 69.2248Z" fill="#592D3D"/>
<path d="M5.89968 40.4691V39.4675C5.77872 38.8117 5.83051 38.1358 6.04996 37.5061C6.12229 37.3007 6.21331 37.1023 6.32186 36.9135C6.58137 36.2388 7.27855 35.6965 7.97573 35.4641C9.06023 35.1543 10.3771 35.3092 11.2292 36.1613C12.3137 37.3233 12.1588 39.0275 12.1937 40.4699" stroke="#592D3D" stroke-width="0.929575" stroke-miterlimit="10" stroke-linecap="round"/>
<path d="M31.216 40.5002C31.0347 38.4381 31.3446 35.5719 34.0148 35.2969C34.224 35.278 34.4346 35.278 34.6438 35.2969C35.274 35.3516 35.8762 35.5819 36.3821 35.9616C37.7765 37.1235 37.4666 38.9827 37.4627 40.5033" stroke="#592D3D" stroke-width="0.929575" stroke-miterlimit="10" stroke-linecap="round"/>
<path d="M26.1994 45.8789C25.9182 45.8789 25.785 45.7774 24.9925 45.0431C24.4123 44.5063 24.0141 44.2405 23.5277 44.1553C22.9211 44.0492 22.3014 44.0872 21.6406 44.7503C20.9798 44.0872 20.3609 44.0531 19.7536 44.1553C19.2671 44.2405 18.8689 44.5063 18.2887 45.0431C17.4963 45.7774 17.363 45.8789 17.0818 45.8789C17.0537 45.879 17.0261 45.8873 17.0027 45.903C16.9793 45.9187 16.9611 45.9409 16.9503 45.9669C16.9395 45.993 16.9367 46.0216 16.9422 46.0492C16.9477 46.0768 16.9612 46.1022 16.9811 46.1222C18.3367 47.4778 19.8899 48.1564 21.6406 48.1579C23.3913 48.1595 24.9445 47.4809 26.3001 46.1222C26.32 46.1022 26.3336 46.0768 26.339 46.0492C26.3445 46.0216 26.3417 45.993 26.3309 45.9669C26.3202 45.9409 26.3019 45.9187 26.2785 45.903C26.2551 45.8873 26.2276 45.879 26.1994 45.8789Z" fill="#DD3E3E"/>
<path d="M26.2785 46.1429L26.2359 45.9717C20.77 47.2205 17.0819 46.0128 17.0819 46.0128L16.9448 45.9888C16.9388 46.0124 16.939 46.0371 16.9454 46.0606C16.9517 46.0841 16.9641 46.1055 16.9812 46.1228C18.3368 47.4784 19.89 48.157 21.6407 48.1586C23.38 48.1586 24.926 47.4867 26.2785 46.1429Z" fill="#C43333"/>
<path d="M20.0586 46.4952C21.1005 46.4224 22.1261 46.3836 23.1487 46.2628C23.6591 46.2039 24.1673 46.128 24.6724 46.0413C25.1775 45.9545 25.6794 45.8546 26.1837 45.7469L26.2875 46.2001C25.7778 46.3209 25.2634 46.4193 24.7444 46.4952C24.2254 46.5711 23.7049 46.6243 23.1827 46.6548C22.6599 46.6834 22.137 46.6966 21.6141 46.6757C21.0916 46.6567 20.5715 46.5963 20.0586 46.4952Z" fill="#592D3D"/>
<path d="M17.1546 45.7919C17.2855 45.8252 17.4312 45.8693 17.5714 45.9065C17.7116 45.9437 17.8541 45.9902 17.9967 46.0328C18.1392 46.0754 18.2817 46.118 18.4243 46.1699C18.5725 46.222 18.7143 46.2906 18.8472 46.3744C18.695 46.4193 18.5373 46.4428 18.3786 46.4441C18.2236 46.4441 18.0726 46.4317 17.9192 46.4193C17.7658 46.4069 17.6148 46.3829 17.4637 46.3535C17.3095 46.3254 17.1577 46.2852 17.0098 46.2334L17.1546 45.7919Z" fill="#592D3D"/>
<path d="M26.1996 45.8788C25.9184 45.8788 25.7851 45.7773 24.9927 45.0429C24.4125 44.5061 24.022 44.1683 23.5278 44.1552C22.6594 44.1319 22.0444 44.6292 21.6098 44.6292C21.1752 44.6292 20.8003 44.0459 19.7506 44.1552C19.2595 44.2063 18.866 44.5061 18.2858 45.0429C17.4933 45.7773 17.3601 45.8788 17.0789 45.8788C17.0507 45.8788 17.0232 45.8872 16.9998 45.9028C16.9764 45.9185 16.9581 45.9407 16.9474 45.9668C16.9366 45.9928 16.9338 46.0214 16.9393 46.049C16.9447 46.0767 16.9583 46.1021 16.9782 46.122C18.3338 47.4776 19.887 48.1562 21.6377 48.1578C23.3884 48.1593 24.9415 47.4807 26.2972 46.122C26.3169 46.1022 26.3304 46.0771 26.336 46.0498C26.3416 46.0225 26.339 45.9941 26.3286 45.9682C26.3182 45.9423 26.3005 45.92 26.2775 45.9041C26.2546 45.8882 26.2275 45.8794 26.1996 45.8788V45.8788Z" stroke="#592D3D" stroke-width="0.619717" stroke-miterlimit="10"/>
<path d="M23.5276 44.6425C23.2031 44.6701 22.8847 44.7469 22.5833 44.8702C22.433 44.9299 22.2835 44.9942 22.1301 45.0577C21.9729 45.1298 21.8049 45.1754 21.6328 45.1925C21.5408 45.194 21.4494 45.1772 21.364 45.1429C21.2841 45.1122 21.2065 45.0759 21.1316 45.0345C20.9914 44.9539 20.8472 44.8807 20.6993 44.8152C20.5515 44.7534 20.3971 44.7085 20.2392 44.6812C20.0781 44.655 19.9152 44.6421 19.752 44.6425C19.9151 44.6099 20.0816 44.5974 20.2477 44.6053C20.416 44.6155 20.5822 44.6481 20.742 44.7021C20.8988 44.7585 21.0515 44.8258 21.199 44.9036C21.3439 44.9764 21.4864 45.0453 21.6266 45.0383C21.7814 45.0224 21.9329 44.983 22.0759 44.9214C22.2308 44.8664 22.3857 44.8044 22.5407 44.7564C22.8576 44.6477 23.1942 44.6089 23.5276 44.6425Z" fill="white"/>
<path d="M19.5441 46.6481C19.7939 46.6481 19.7946 46.2602 19.5441 46.2602C19.2935 46.2602 19.2943 46.6481 19.5441 46.6481Z" fill="#592D3D"/>
<path d="M21.6413 17.6673C26.2438 17.6673 29.9749 13.9362 29.9749 9.33364C29.9749 4.7311 26.2438 1 21.6413 1C17.0387 1 13.3076 4.7311 13.3076 9.33364C13.3076 13.9362 17.0387 17.6673 21.6413 17.6673Z" fill="#A56941"/>
<path d="M26.2567 26.8924C25.2598 28.7516 21.6089 29.7927 21.3122 29.3263C20.9791 28.805 24.2434 25.041 22.3889 21.1042" fill="#F3AB98"/>
<path d="M15.5293 6.53843C15.7428 5.92594 16.0622 5.35568 16.4728 4.85357C16.5789 4.7304 16.6835 4.60491 16.7951 4.48639C16.9066 4.36787 17.0275 4.254 17.146 4.14477C17.2645 4.03555 17.3946 3.93329 17.524 3.83491C17.6534 3.73653 17.7882 3.64125 17.9245 3.55217C18.0608 3.46308 18.2034 3.38097 18.3482 3.30505L18.5667 3.19428C18.6387 3.15567 18.7127 3.12077 18.7882 3.0897C18.9432 3.03083 19.0896 2.96421 19.2445 2.91231C19.3994 2.86041 19.5544 2.81006 19.7093 2.7721C20.3373 2.60882 20.989 2.55639 21.6351 2.61717C21.0031 2.67806 20.3796 2.80794 19.7759 3.00449C19.6984 3.02463 19.6287 3.05872 19.5551 3.08196L19.3344 3.15942C19.1887 3.21597 19.0485 3.28724 18.9052 3.34921C18.7619 3.41118 18.6279 3.49252 18.4884 3.56379C18.349 3.63505 18.222 3.72569 18.088 3.80547C17.9539 3.88526 17.83 3.98209 17.7006 4.06963C17.5713 4.15716 17.4566 4.26484 17.3319 4.36012C17.2072 4.4554 17.0995 4.56773 16.981 4.66998L16.6494 5.00385C16.2203 5.47221 15.8446 5.98691 15.5293 6.53843Z" fill="white"/>
<path d="M14.6758 13.9112C16.1631 16.1763 16.6798 14.1816 21.5082 14.1816C29.8131 14.1816 27.2111 16.1182 28.6884 13.7826C26.5511 13.0351 25.2799 12.2806 21.8614 12.2806C18.5846 12.2806 16.9137 13.0816 14.6758 13.9112Z" fill="#8D5638"/>
<path d="M21.6413 17.6673C26.2438 17.6673 29.9749 13.9362 29.9749 9.33364C29.9749 4.7311 26.2438 1 21.6413 1C17.0387 1 13.3076 4.7311 13.3076 9.33364C13.3076 13.9362 17.0387 17.6673 21.6413 17.6673Z" stroke="#592D3D" stroke-width="0.929575" stroke-miterlimit="10"/>
<path d="M15.584 15.0571C8.89419 17.3082 3.36477 22.9724 1.91463 29.4066C-0.568881 39.209 3.29583 45.2249 6.72596 48.9122C7.06448 49.2763 1.34527 38.202 6.53772 30.2432C11.2708 30.0635 18.3449 29.1293 21.7037 25.3738C21.3675 27.0106 20.424 28.2601 20.579 28.5065C20.8021 28.8558 23.5373 28.0781 24.2849 26.683L24.3492 26.4033C27.0387 27.3778 31.4573 28.4631 35.5041 26.9154C45.043 37.6287 36.4817 49.4854 37.1796 48.7108C40.6254 44.9154 42.5314 39.9709 42.5247 34.8446C42.5247 28.1501 39.0945 23.3109 39.0945 23.3109C36.7303 19.0961 32.6247 16.1943 27.8777 14.8588" fill="#A56941"/>
<path d="M8.23553 30.1492C8.65229 26.104 10.1721 21.4344 13.2475 16.0583C13.0373 16.1554 12.8292 16.2556 12.6231 16.3589L12.5774 16.3814C12.4829 16.4286 12.3884 16.4774 12.2947 16.527L12.2172 16.5681C11.9259 16.723 11.6385 16.8839 11.355 17.0507L11.2853 17.0917C11.1955 17.1452 11.1064 17.1994 11.0173 17.2544L10.9507 17.2962C10.6733 17.4692 10.4007 17.6482 10.1326 17.8331L10.049 17.8912C9.96532 17.95 9.88165 18.0089 9.79877 18.0686L9.74841 18.105C9.57954 18.2284 9.41248 18.3534 9.24722 18.4799L9.19919 18.5171C9.12173 18.5775 9.04426 18.6395 8.9668 18.7022L8.87539 18.775C8.79792 18.8378 8.72046 18.9005 8.643 18.9648C8.47955 19.1004 8.31919 19.2398 8.15962 19.3808L8.07131 19.4583L7.86293 19.6481L7.76067 19.7395C7.54016 19.946 7.32403 20.157 7.11229 20.3724L7.00617 20.4816C6.9442 20.5451 6.883 20.6086 6.82258 20.6729L6.71645 20.7876C6.61058 20.9032 6.506 21.0187 6.40272 21.1338C6.36708 21.1733 6.33145 21.2113 6.29659 21.2531C6.24159 21.3159 6.18737 21.3794 6.13314 21.4437C6.09363 21.4894 6.05568 21.5351 6.01617 21.5816C5.96349 21.6443 5.91082 21.7071 5.86124 21.7706C5.81941 21.8217 5.77835 21.8736 5.73652 21.9255C5.65441 22.0285 5.57307 22.1316 5.49251 22.2354C5.4499 22.2896 5.40807 22.3438 5.36702 22.3988C5.32596 22.4538 5.27406 22.522 5.22835 22.5847L5.10519 22.7536C5.06181 22.814 5.01765 22.8737 4.97505 22.9341C4.90223 23.0379 4.82941 23.1425 4.75814 23.2478C4.71941 23.3044 4.68068 23.3625 4.6435 23.4198C4.60631 23.4771 4.55751 23.5484 4.51568 23.6135C4.47385 23.6785 4.43822 23.7328 4.40103 23.7924C4.36385 23.8521 4.3135 23.9319 4.27012 24.0023C4.23681 24.0558 4.2035 24.1092 4.17096 24.1627C4.10279 24.2758 4.03566 24.3894 3.96955 24.5035C3.93702 24.5593 3.90603 24.6151 3.87427 24.6709C3.83244 24.7445 3.79061 24.8188 3.74956 24.8932C3.71857 24.9497 3.68758 25.0063 3.65737 25.0628C3.6078 25.155 3.55899 25.248 3.51097 25.3409C3.47921 25.4014 3.44822 25.4618 3.41723 25.5222C3.36765 25.6214 3.31808 25.7197 3.27005 25.8197C3.24371 25.8731 3.21815 25.9273 3.19258 25.9816C3.1523 26.066 3.11512 26.1512 3.07329 26.2364L3.0028 26.3914C2.94547 26.5189 2.88944 26.648 2.8347 26.7787C2.81766 26.819 2.80139 26.86 2.78435 26.9003C2.74329 26.9987 2.70688 27.0971 2.6635 27.1962C2.64336 27.2481 2.62245 27.3 2.60231 27.3511C2.56435 27.4487 2.52484 27.5471 2.48998 27.6455L2.44273 27.7733C2.39109 27.9091 2.34306 28.045 2.29864 28.1808L2.25526 28.3125C2.22118 28.4158 2.18787 28.519 2.15533 28.6223C2.13984 28.6711 2.12435 28.7207 2.10963 28.7703C2.07245 28.8896 2.03681 29.0091 2.00273 29.129C1.99498 29.1545 1.98724 29.1801 1.98026 29.2064C1.93998 29.349 1.90125 29.492 1.86407 29.6356L1.82921 29.7735C1.81449 29.8308 1.80055 29.8889 1.7866 29.947C1.66576 30.4652 1.5635 30.9718 1.47674 31.4684C1.469 31.5187 1.4597 31.5691 1.45196 31.6194L1.43336 31.7364C1.41013 31.8882 1.38895 32.0403 1.36984 32.1927C1.3652 32.226 1.36132 32.2601 1.35745 32.2934C1.34196 32.4165 1.32801 32.5405 1.31484 32.6644L1.3009 32.8046C1.28773 32.9348 1.27611 33.0657 1.26604 33.1966L1.25907 33.2741C1.24719 33.429 1.23738 33.5852 1.22963 33.7427C1.22963 33.7838 1.22576 33.8256 1.22343 33.8667C1.21775 33.9886 1.21311 34.1102 1.20949 34.2315C1.20949 34.2772 1.20949 34.323 1.20562 34.3687C1.20562 34.5275 1.2002 34.687 1.2002 34.8466V34.8544C1.2002 35.0253 1.20226 35.1962 1.20639 35.3672C1.20639 35.426 1.21104 35.4849 1.21259 35.5438C1.21646 35.6577 1.22034 35.7715 1.22576 35.8854C1.22963 35.9544 1.23428 36.0225 1.23815 36.0915C1.24435 36.1945 1.25055 36.2975 1.25752 36.4013C1.26294 36.4788 1.26991 36.5477 1.27611 36.6206C1.28463 36.7182 1.29238 36.8158 1.30245 36.9126C1.30942 36.9901 1.31872 37.0629 1.32646 37.138C1.33731 37.2317 1.34738 37.3263 1.359 37.42C1.36829 37.4975 1.37914 37.5749 1.38921 37.6485C1.4016 37.7399 1.41477 37.8321 1.42794 37.9235C1.43956 38.001 1.45196 38.0784 1.46435 38.1559C1.47907 38.2458 1.49301 38.3364 1.50928 38.4263C1.52245 38.5037 1.53639 38.5812 1.55111 38.6586C1.56738 38.7477 1.58442 38.8368 1.60224 38.9251C1.62005 39.0134 1.63322 39.0801 1.64949 39.1575C1.66808 39.2458 1.68667 39.3334 1.70681 39.4209C1.72696 39.5084 1.74167 39.5758 1.75949 39.6479C1.77963 39.7354 1.80132 39.8222 1.82301 39.9081C1.8447 39.9941 1.86097 40.0592 1.88111 40.1336C1.90357 40.2203 1.92681 40.3063 1.95083 40.3923C1.97174 40.4698 1.99188 40.541 2.01357 40.6146C2.03836 40.7006 2.06393 40.7858 2.09104 40.871C2.11815 40.9562 2.13519 41.0174 2.15843 41.091C2.18167 41.1646 2.21343 41.2607 2.24132 41.3451C2.26533 41.4172 2.28857 41.49 2.31336 41.562L2.40245 41.8153L2.47991 42.0276C2.51167 42.112 2.54421 42.1965 2.57674 42.2809C2.60308 42.3498 2.62942 42.4196 2.65421 42.4885C2.68829 42.5729 2.72315 42.6581 2.75801 42.7426C2.7859 42.8092 2.81301 42.8766 2.84167 42.9432C2.87885 43.03 2.91913 43.1152 2.95477 43.2012C2.98266 43.2655 3.01054 43.329 3.0392 43.3925C3.07949 43.4824 3.12209 43.5707 3.16392 43.659C3.19181 43.7186 3.21892 43.7783 3.24758 43.8372C3.29406 43.9348 3.34287 44.0308 3.39167 44.1276L3.46526 44.2748C3.61399 44.5645 3.76892 44.8504 3.93005 45.1324C3.95793 45.1804 3.9866 45.2276 4.01449 45.2749C4.06871 45.3679 4.12216 45.4608 4.17793 45.5522C4.21202 45.608 4.24688 45.6622 4.28096 45.718C4.33209 45.8009 4.38321 45.8838 4.43589 45.9651C4.47307 46.024 4.51336 46.0813 4.54976 46.1386C4.60012 46.2161 4.65124 46.2936 4.70469 46.371C4.7442 46.4299 4.78216 46.4888 4.82554 46.5476C4.87667 46.6251 4.92779 46.6964 4.98047 46.7707C5.0223 46.8304 5.06568 46.8893 5.10829 46.9489C5.15089 47.0086 5.21209 47.0922 5.26321 47.1635C5.31434 47.2348 5.3523 47.282 5.39645 47.3409L5.5568 47.55C5.60251 47.6089 5.64899 47.667 5.69547 47.7251C5.74194 47.7832 5.80469 47.8614 5.85969 47.9288C5.91469 47.9962 5.95497 48.0443 6.003 48.1016C6.05103 48.1589 6.11455 48.2348 6.1711 48.3007C6.22765 48.3665 6.26948 48.4145 6.31906 48.4711L6.49103 48.6648C6.54138 48.7213 6.59251 48.7763 6.64596 48.8321L6.73504 48.9289C6.95969 49.0776 1.39696 38.1381 6.54061 30.2537C7.07666 30.2228 7.64215 30.1925 8.23553 30.1492Z" fill="#8D5638"/>
<path d="M33.8986 25.4667C33.8986 25.4667 33.7359 27.0787 29.9766 27.6527C31.7668 27.7767 33.6747 27.6171 35.506 26.916C35.7554 27.1957 33.8986 25.4667 33.8986 25.4667Z" fill="#8D5638"/>
<path d="M6.53788 30.2747C6.53788 30.2747 5.68577 30.363 4.1543 30.1283L6.53788 30.2747Z" fill="#A56941"/>
<path d="M6.58473 30.7398C6.54522 30.746 6.52199 30.7483 6.49255 30.7514C6.46311 30.7545 6.43755 30.7568 6.40966 30.7592C6.35544 30.7592 6.30199 30.7653 6.24854 30.7653C6.14241 30.7653 6.03706 30.7653 5.93248 30.753C5.72404 30.7352 5.51701 30.7036 5.31276 30.6584C5.21128 30.636 5.11058 30.6127 5.01065 30.581C4.9098 30.555 4.8107 30.5227 4.71396 30.4842C4.50572 30.4027 4.31507 30.282 4.15234 30.1286C4.25433 30.0767 4.36091 30.0345 4.47072 30.0023C4.5711 29.9723 4.67331 29.9487 4.77671 29.9318C4.97734 29.8993 5.17333 29.8892 5.36854 29.8706C5.56375 29.852 5.75586 29.8404 5.94565 29.8296C6.04016 29.8234 6.13466 29.8203 6.22685 29.8164H6.36473C6.3872 29.8164 6.41044 29.8164 6.43135 29.8164C6.45227 29.8164 6.47783 29.8164 6.4879 29.8164L6.58473 30.7398Z" fill="#592D3D"/>
<path d="M35.3751 26.8034C35.3751 26.8034 34.5454 25.6956 32.2471 24.402L35.3751 26.8034Z" fill="#A56941"/>
<path d="M34.9992 27.0809L34.8621 26.9329L34.7072 26.7687C34.5995 26.6595 34.4887 26.5479 34.3764 26.4395C34.1502 26.221 33.9155 26.0041 33.6792 25.7888C33.443 25.5734 33.1912 25.3674 32.9487 25.1443C32.8279 25.0327 32.7063 24.9188 32.5901 24.7941C32.4676 24.6705 32.354 24.5385 32.25 24.399C32.4242 24.4202 32.5964 24.4549 32.7651 24.5029C32.9293 24.5517 33.0907 24.6097 33.2485 24.6764C33.4034 24.7453 33.5584 24.8181 33.7063 24.9018C33.8543 24.9855 34.0038 25.0668 34.1494 25.1567C34.4425 25.3354 34.7228 25.5342 34.9884 25.7516C35.1208 25.8639 35.2541 25.977 35.3757 26.1025C35.4392 26.1637 35.5004 26.2288 35.5608 26.2962C35.591 26.331 35.6213 26.3635 35.6507 26.4007C35.6801 26.4379 35.7065 26.4697 35.7452 26.5239L34.9992 27.0809Z" fill="#592D3D"/>
<path d="M15.584 15.0571C8.89419 17.3082 3.36477 22.9724 1.91463 29.4066C-0.568881 39.209 3.29583 45.2249 6.72596 48.9122C7.06448 49.2763 1.34527 38.202 6.53772 30.2432C11.2708 30.0635 18.3449 29.1293 21.7037 25.3738C21.3675 27.0106 20.424 28.2601 20.579 28.5065C20.8021 28.8558 23.5373 28.0781 24.2849 26.683L24.3492 26.4033C27.0387 27.3778 31.4573 28.4631 35.5041 26.9154C45.0431 37.6287 36.4817 49.4854 37.1796 48.7108C40.6254 44.9154 42.5314 39.9709 42.5247 34.8446C42.5247 28.1501 39.0945 23.3109 39.0945 23.3109C36.7303 19.0961 32.6247 16.1943 27.8777 14.8588" stroke="#592D3D" stroke-width="0.929575" stroke-miterlimit="10"/>
<path d="M23.222 15.4147C22.1186 15.478 21.0199 15.6055 19.9313 15.7966C19.661 15.8493 19.3891 15.9066 19.1226 15.9562C18.8561 16.0058 18.5881 16.0809 18.3208 16.1429L17.5253 16.3536C17.2627 16.431 17.0016 16.5147 16.7398 16.5945C15.6952 16.9313 14.6747 17.3387 13.6854 17.8138C12.691 18.2963 11.7274 18.8396 10.7998 19.4405C11.6259 18.6867 12.538 18.0331 13.5173 17.4931C14.4969 16.9453 15.5287 16.4963 16.5973 16.1529C16.8661 16.0755 17.1341 15.9918 17.4044 15.9167C17.6748 15.8415 17.9467 15.7757 18.2209 15.716C18.4951 15.6564 18.7709 15.6068 19.0467 15.5611C19.3225 15.5154 19.6006 15.4775 19.8787 15.4434C20.9884 15.3064 22.1101 15.2968 23.222 15.4147Z" fill="white"/>
<path d="M23.9746 14.2262C24.3665 14.1324 24.7677 14.0825 25.1707 14.0774C25.369 14.0728 25.5665 14.0774 25.7648 14.0875C25.9631 14.0976 26.1614 14.1107 26.3597 14.1278C26.759 14.1624 27.156 14.2193 27.5488 14.2982C27.9466 14.3755 28.3373 14.4853 28.717 14.6267L28.4149 15.5059C28.0578 15.399 27.6991 15.2905 27.335 15.1906C26.9709 15.0907 26.603 14.9962 26.2312 14.9032L25.6695 14.7669C25.4813 14.7227 25.2923 14.6778 25.104 14.6267C24.7162 14.5277 24.3382 14.3937 23.9746 14.2262Z" fill="#592D3D"/>
<path d="M14.8809 14.8193C15.2249 14.6863 15.5783 14.5788 15.9383 14.4978C16.2963 14.4161 16.6583 14.3528 17.0228 14.308C17.204 14.2864 17.3853 14.267 17.565 14.253C17.7447 14.2391 17.9283 14.2275 18.1073 14.2267C18.4794 14.221 18.8508 14.2622 19.2127 14.3491C18.8874 14.522 18.547 14.6646 18.1956 14.7752C18.0259 14.8317 17.8555 14.8813 17.6851 14.9301L17.1777 15.0796C16.8415 15.1819 16.5061 15.281 16.1753 15.3895C15.8445 15.4979 15.5153 15.6002 15.1845 15.6993L14.8809 14.8193Z" fill="#592D3D"/>
<path d="M22.7678 14.6343C23.0177 14.6343 23.2202 14.4317 23.2202 14.1819C23.2202 13.932 23.0177 13.7295 22.7678 13.7295C22.518 13.7295 22.3154 13.932 22.3154 14.1819C22.3154 14.4317 22.518 14.6343 22.7678 14.6343Z" fill="#592D3D"/>
<path d="M21.5089 14.5023C21.6858 14.5023 21.8292 14.3588 21.8292 14.1819C21.8292 14.005 21.6858 13.8615 21.5089 13.8615C21.3319 13.8615 21.1885 14.005 21.1885 14.1819C21.1885 14.3588 21.3319 14.5023 21.5089 14.5023Z" fill="#592D3D"/>
<path d="M29.4788 31.7912C30.3343 31.5731 31.2008 31.4011 32.0747 31.276L31.8686 31.3031C32.8896 31.1684 33.9245 31.1288 34.9478 31.266L34.7418 31.2381C34.9951 31.2737 35.2484 31.3155 35.5025 31.3481L35.2964 31.3202C36.0675 31.4259 36.8305 31.584 37.5801 31.7935C37.9674 31.9012 38.4399 31.6595 38.5329 31.2512C38.5835 31.0531 38.5553 30.8431 38.4542 30.6653C38.353 30.4876 38.1868 30.3561 37.9906 30.2984C37.1116 30.0577 36.216 29.8822 35.3111 29.7732L35.5172 29.8011C34.6626 29.6494 33.7932 29.5987 32.9268 29.65C32.0651 29.7066 31.2085 29.8244 30.3635 30.0025C29.9281 30.09 29.4959 30.1907 29.0652 30.2969C28.6717 30.3937 28.3974 30.8593 28.5229 31.2497C28.5806 31.4459 28.7121 31.6121 28.8898 31.7132C29.0676 31.8144 29.2776 31.8426 29.4757 31.7919L29.4788 31.7912Z" fill="#592D3D"/>
<path d="M5.09757 31.7934C5.84001 31.578 6.59735 31.4177 7.36341 31.3139L7.15736 31.3418C8.47856 31.1688 9.81682 31.1709 11.1375 31.348L10.9314 31.3209C11.7018 31.4259 12.464 31.5838 13.2128 31.7934C13.6001 31.9019 14.0726 31.6594 14.1656 31.2512C14.2162 31.053 14.188 30.843 14.0868 30.6653C13.9857 30.4875 13.8195 30.356 13.6233 30.2983C12.5045 29.9871 11.3576 29.7873 10.1994 29.7019C8.33969 29.5808 6.47307 29.7829 4.68236 30.2991C4.48818 30.3553 4.32226 30.4825 4.21757 30.6554C4.11412 30.8363 4.08628 31.0507 4.14011 31.2519C4.26793 31.6478 4.67539 31.9135 5.09292 31.7942L5.09757 31.7934Z" fill="#592D3D"/>
<path opacity="0.2" d="M9.1833 45.8343C13.1753 45.8343 16.4115 42.5981 16.4115 38.606C16.4115 34.614 13.1753 31.3778 9.1833 31.3778C5.19126 31.3778 1.95508 34.614 1.95508 38.606C1.95508 42.5981 5.19126 45.8343 9.1833 45.8343Z" fill="white"/>
<path opacity="0.15" d="M40.6013 43.1194C39.6625 44.4941 38.3183 45.5417 36.7559 46.1162C35.1936 46.6907 33.491 46.7635 31.8853 46.3245C30.2796 45.8855 28.8508 44.9565 27.7981 43.6671C26.7454 42.3776 26.1212 40.7918 26.0124 39.1308C23.1462 37.9998 20.2467 38.0099 17.1667 39.161C17.0238 41.1807 16.1215 43.0714 14.6412 44.453C13.161 45.8345 11.2126 46.6043 9.18781 46.6077C6.67176 46.6077 3.3005 43.7802 3.68782 44.4085C4.77233 46.0112 7.32866 47.232 9.30711 47.232C13.5328 47.232 16.8886 44.1885 17.1744 40.034C20.2544 38.8837 23.157 38.8721 26.0201 40.0038C26.2912 44.173 29.7686 47.2491 34.0044 47.2491C37.4663 47.2491 39.4339 44.6052 40.6013 43.1194Z" fill="black"/>
<path opacity="0.4" d="M7.71945 46.368L17.253 36.8337C17.0435 36.3612 16.7838 35.9127 16.4784 35.4958L6.38086 45.5941C6.79803 45.8993 7.24681 46.1588 7.71945 46.368Z" fill="white"/>
<path d="M9.1833 45.8343C13.1753 45.8343 16.4115 42.5981 16.4115 38.606C16.4115 34.614 13.1753 31.3778 9.1833 31.3778C5.19126 31.3778 1.95508 34.614 1.95508 38.606C1.95508 42.5981 5.19126 45.8343 9.1833 45.8343Z" stroke="#592D3D" stroke-width="1.54929" stroke-miterlimit="10"/>
<path d="M33.9968 45.8343C37.9888 45.8343 41.225 42.5981 41.225 38.606C41.225 34.614 37.9888 31.3778 33.9968 31.3778C30.0047 31.3778 26.7686 34.614 26.7686 38.606C26.7686 42.5981 30.0047 45.8343 33.9968 45.8343Z" stroke="#592D3D" stroke-width="1.54929" stroke-miterlimit="10"/>
<path d="M16.4561 38.6055C19.9575 37.1871 23.3977 37.1337 26.7697 38.6055" stroke="#592D3D" stroke-width="1.54929" stroke-miterlimit="10"/>
<path d="M7.31018 34.2645C7.46975 34.768 6.85004 35.1553 6.38525 35.2328C5.92046 35.2328 5.6106 34.9229 5.45567 34.5356C5.37821 34.1483 5.45567 33.7609 5.76553 33.5286C6.15286 33.3736 6.69511 33.2187 7.03982 33.6161C7.12591 33.7006 7.19418 33.8016 7.24062 33.9129C7.28705 34.0243 7.3107 34.1438 7.31018 34.2645Z" fill="white"/>
<path d="M8.13721 33.9678C8.08989 34.3037 7.62445 34.3037 7.54688 33.9934C7.54688 33.7607 7.62445 33.6831 7.84553 33.6754C7.8839 33.6754 7.92189 33.6829 7.95733 33.6976C7.99277 33.7123 8.02496 33.7339 8.05206 33.7611C8.07915 33.7882 8.10062 33.8205 8.11523 33.8559C8.12984 33.8914 8.13731 33.9294 8.13721 33.9678Z" fill="white"/>
<path opacity="0.2" d="M33.9968 45.8343C37.9888 45.8343 41.225 42.5981 41.225 38.606C41.225 34.614 37.9888 31.3778 33.9968 31.3778C30.0047 31.3778 26.7686 34.614 26.7686 38.606C26.7686 42.5981 30.0047 45.8343 33.9968 45.8343Z" fill="white"/>
<path opacity="0.4" d="M32.9118 45.7533L41.1447 37.5196C41.1001 37.2264 41.0377 36.9361 40.958 36.6505L32.0449 45.5666C32.3298 45.6464 32.6193 45.7087 32.9118 45.7533Z" fill="white"/>
<path d="M33.9968 45.8343C37.9888 45.8343 41.225 42.5981 41.225 38.606C41.225 34.614 37.9888 31.3778 33.9968 31.3778C30.0047 31.3778 26.7686 34.614 26.7686 38.606C26.7686 42.5981 30.0047 45.8343 33.9968 45.8343Z" stroke="#592D3D" stroke-width="1.54929" stroke-miterlimit="10"/>
<path d="M32.1217 34.2645C32.2813 34.768 31.6616 35.1553 31.1968 35.2328C30.732 35.2328 30.4221 34.9229 30.2672 34.5356C30.1897 34.1483 30.2672 33.7609 30.5771 33.5286C30.9644 33.3736 31.5066 33.2187 31.8513 33.6161C31.9373 33.7007 32.0055 33.8017 32.0519 33.913C32.0983 34.0244 32.1221 34.1438 32.1217 34.2645Z" fill="white"/>
<path d="M32.9507 33.9678C32.9034 34.3037 32.4379 34.3037 32.3604 33.9934C32.3604 33.7607 32.4379 33.6831 32.6582 33.6754C32.7358 33.6754 32.8102 33.7062 32.865 33.761C32.9199 33.8159 32.9507 33.8902 32.9507 33.9678Z" fill="white"/>
</svg>
