<svg width="53" height="71" viewBox="0 0 53 71" fill="none" xmlns="http://www.w3.org/2000/svg">
<path d="M36.8721 51.479C44.8942 51.479 43.236 61.5791 43.3129 72.8109H36.8721V51.479Z" fill="#FDD2B2"/>
<path d="M38.882 57.947L36.8721 61.3181L37.8779 72.8116H40.6851C40.7532 56.8737 38.882 57.947 38.882 57.947Z" fill="#F3AB98"/>
<path d="M3.57229 28.6053C3.57229 15.5805 14.1285 5.02155 27.1499 5.02155C40.1712 5.02155 50.7274 15.5805 50.7274 28.6053C50.7308 32.1147 49.9495 35.5805 48.4408 38.7488C46.9321 41.9172 44.7342 44.7081 42.0079 46.917C41.5242 47.3108 41.0251 47.6848 40.5106 48.039C35.1932 51.4154 28.4757 51.4154 22.4114 50.8752C21.8227 50.7868 21.2358 50.6754 20.6533 50.5472C18.3261 50.0344 16.073 49.2432 13.9915 48.0894C13.4771 47.7723 12.9783 47.4298 12.4951 47.062C12.0094 46.6922 11.5433 46.2973 11.0985 45.8791C10.6778 45.4883 10.2715 45.0822 9.87967 44.6608C5.81887 40.302 3.56443 34.5633 3.57229 28.6053Z" fill="#FDD2B2"/>
<path d="M6.78601 40.4948C6.84788 40.6009 6.90887 40.707 6.97251 40.8113C7.01052 40.875 7.05029 40.9368 7.09007 41.0005C7.1484 41.0951 7.20674 41.1897 7.26684 41.2825C7.30927 41.3497 7.35523 41.4152 7.39589 41.4806C7.45423 41.569 7.51257 41.6574 7.57267 41.7458C7.61775 41.813 7.66106 41.8802 7.71056 41.9474C7.76889 42.0358 7.82723 42.1171 7.88733 42.202C7.93506 42.2701 7.98456 42.3373 8.03317 42.4054C8.08179 42.4734 8.15161 42.5689 8.20995 42.6503C8.26828 42.7316 8.3116 42.7855 8.36286 42.8527C8.41413 42.9199 8.48395 43.0119 8.54582 43.0914C8.60769 43.171 8.65101 43.2249 8.70404 43.2912C8.75707 43.3575 8.82867 43.4468 8.89142 43.5238C8.95418 43.6007 9.00014 43.6555 9.05494 43.7209C9.10974 43.7863 9.18222 43.873 9.24674 43.9481C9.31127 44.0233 9.35899 44.0781 9.41556 44.1426L9.61179 44.3637C9.66924 44.4282 9.72757 44.491 9.78856 44.5546C9.86458 44.6377 9.94147 44.72 10.0184 44.8013L10.1253 44.9145C10.2393 45.0329 10.3542 45.1514 10.4709 45.2681L10.4939 45.292C10.6079 45.4052 10.7237 45.5174 10.8395 45.6288L10.9792 45.7615C11.0631 45.8401 11.1471 45.9188 11.2319 45.9966L11.3345 46.0903C11.4229 46.1735 11.5192 46.2548 11.612 46.3361C11.9007 46.5878 12.1954 46.8292 12.4959 47.0602C12.9785 47.428 13.4773 47.7705 13.9923 48.0876C16.0739 49.2369 18.3233 50.0326 20.6541 50.5454C21.2366 50.6736 21.8235 50.7841 22.4122 50.8734C26.1333 51.2049 30.102 51.3314 33.839 50.6011C27.8967 48.8514 -0.640372 38.5727 17.321 7.1637C17.0806 7.27421 16.8437 7.38826 16.6086 7.50673L16.5565 7.53237C16.4486 7.5863 16.3408 7.642 16.2338 7.69858L16.1454 7.74544C15.8131 7.92226 15.4843 8.10528 15.1617 8.29625L15.0821 8.3431C14.9796 8.40411 14.878 8.466 14.7763 8.52877L14.6994 8.57651C14.3836 8.77396 14.0727 8.97819 13.7669 9.1892L13.6715 9.25551C13.5751 9.3227 13.4805 9.38989 13.386 9.45797L13.3276 9.49952C13.1349 9.64039 12.9446 9.78303 12.7566 9.92743L12.7018 9.96987C12.6135 10.0388 12.5251 10.1096 12.4367 10.1812L12.3333 10.2643C12.2449 10.3359 12.1565 10.4075 12.0681 10.4809C11.8816 10.6356 11.6978 10.7948 11.5166 10.9557L11.4158 11.0441L11.178 11.2607L11.0631 11.365C10.8109 11.6008 10.5643 11.8415 10.3233 12.0873L10.2013 12.212C10.1315 12.2845 10.0617 12.357 9.99274 12.4304C9.95208 12.4737 9.91142 12.5188 9.87165 12.5612C9.75026 12.6909 9.63064 12.8223 9.51279 12.9555C9.47302 13.0006 9.43236 13.0439 9.39258 13.0917C9.32983 13.1633 9.26796 13.2358 9.20608 13.3083L9.07262 13.4665C9.01252 13.5382 8.95241 13.6098 8.89584 13.6823C8.84811 13.7406 8.80038 13.7999 8.75354 13.8591C8.65896 13.9767 8.56615 14.0943 8.47423 14.2127C8.4265 14.2746 8.37877 14.3365 8.33192 14.3993C8.28508 14.4621 8.22586 14.5399 8.17371 14.6115C8.12156 14.6831 8.07913 14.7397 8.03317 14.8042C7.98721 14.8687 7.93329 14.9412 7.88468 15.0102C7.80101 15.1281 7.71851 15.2474 7.63719 15.3683C7.593 15.4328 7.5488 15.4991 7.50549 15.5645C7.46218 15.63 7.40827 15.7113 7.36054 15.7856L7.22884 15.9898L7.08035 16.2294C7.04234 16.2904 7.00433 16.3514 6.96721 16.4124C6.88854 16.5415 6.81253 16.6715 6.73651 16.8014L6.62868 16.9924C6.58095 17.0764 6.53322 17.1613 6.48638 17.2461C6.45102 17.3107 6.41567 17.3752 6.38119 17.4398C6.32463 17.545 6.26894 17.6511 6.21326 17.7571L6.10719 17.964C6.05062 18.0772 5.99405 18.1895 5.93837 18.3035C5.9092 18.3645 5.87915 18.4264 5.84998 18.4883C5.80402 18.5847 5.76159 18.6819 5.71475 18.7792C5.68735 18.8375 5.66083 18.8959 5.63431 18.956C5.56891 19.1016 5.50497 19.2489 5.44251 19.3981C5.42307 19.444 5.4045 19.4909 5.38506 19.5369C5.33821 19.6492 5.29225 19.7614 5.24717 19.8746C5.22331 19.9338 5.20033 19.9931 5.17735 20.0514C5.13315 20.1628 5.08896 20.2751 5.04918 20.3874C5.03062 20.436 5.01206 20.4846 4.99438 20.5333C4.93899 20.6883 4.88449 20.8433 4.83086 20.9983L4.78137 21.1486C4.74248 21.2665 4.70447 21.3844 4.66735 21.5023L4.61431 21.6711C4.57277 21.8073 4.53211 21.9434 4.49322 22.0805C4.48438 22.1096 4.47554 22.1388 4.46759 22.1689C4.42163 22.3316 4.37743 22.4948 4.33501 22.6587C4.32086 22.7108 4.30849 22.7639 4.29523 22.816C4.26429 22.9389 4.23424 23.0618 4.20684 23.1856L4.16972 23.3403C4.13171 23.5083 4.09459 23.6763 4.06012 23.8452L4.04686 23.9132C4.01681 24.0635 3.98735 24.2138 3.95847 24.3641C3.94875 24.4181 3.93991 24.4711 3.93019 24.525C3.90721 24.6568 3.88511 24.7903 3.86478 24.9229C3.85771 24.968 3.84976 25.0113 3.84357 25.0573C3.81705 25.2297 3.79319 25.403 3.77021 25.5771L3.75695 25.6921C3.73927 25.8326 3.72336 25.9741 3.70833 26.1156C3.70303 26.1686 3.69684 26.2217 3.69154 26.2756C3.6774 26.4241 3.66414 26.5735 3.65176 26.7229C3.65176 26.7539 3.64646 26.784 3.64469 26.8114C3.63173 26.9882 3.62024 27.1665 3.61022 27.3462C3.61022 27.3931 3.61022 27.4408 3.60404 27.4877C3.59814 27.6268 3.59284 27.7656 3.58812 27.9041C3.58812 27.9563 3.58812 28.0084 3.58812 28.0606C3.58812 28.2419 3.58105 28.424 3.58105 28.6061C3.58105 28.6061 3.58105 28.6123 3.58105 28.615C3.58105 28.8112 3.58105 29.0057 3.58812 29.2002C3.58812 29.2674 3.59343 29.3346 3.5952 29.4018C3.59962 29.5318 3.60403 29.6617 3.61022 29.7917C3.61022 29.8704 3.61994 29.9482 3.62436 30.0269C3.63144 30.1445 3.63762 30.2621 3.64646 30.3805C3.65265 30.4689 3.6606 30.5476 3.66767 30.6307C3.6774 30.7421 3.68624 30.8535 3.69773 30.964C3.70568 31.0525 3.71629 31.1356 3.72513 31.2213C3.7375 31.3283 3.74899 31.4362 3.76225 31.5431C3.77286 31.6315 3.78523 31.72 3.79672 31.8039C3.81086 31.9083 3.82501 32.0135 3.84092 32.1178C3.85417 32.2062 3.86832 32.2946 3.88246 32.383C3.89837 32.4856 3.91516 32.589 3.93284 32.6916C3.94875 32.78 3.96466 32.8684 3.98145 32.9568C4.00002 33.0585 4.01946 33.1602 4.03891 33.261C4.05835 33.3618 4.07514 33.4378 4.09371 33.5262C4.11492 33.627 4.13613 33.7269 4.15911 33.8268C4.18209 33.9267 4.198 34.0036 4.21922 34.0858C4.2422 34.1858 4.26695 34.2848 4.2917 34.3829C4.31644 34.481 4.33501 34.5553 4.3571 34.6402C4.38362 34.7392 4.41014 34.8373 4.43754 34.9355C4.46052 35.0239 4.48438 35.1052 4.50913 35.1892C4.53742 35.2874 4.56658 35.3846 4.59752 35.4819C4.62846 35.5791 4.64878 35.649 4.6753 35.733C4.70182 35.8169 4.73717 35.9266 4.76899 36.0229C4.80081 36.1193 4.82379 36.1883 4.85208 36.2705C4.88566 36.3669 4.91925 36.4632 4.95372 36.5596C4.98289 36.6401 5.01118 36.7214 5.04211 36.8018L5.15171 37.091C5.18265 37.1696 5.2127 37.2492 5.2401 37.3279C5.27899 37.4243 5.31877 37.5215 5.35854 37.6179C5.39036 37.6939 5.4213 37.7708 5.454 37.8469C5.49554 37.9459 5.54239 38.0431 5.58217 38.1413C5.61487 38.2138 5.64669 38.2872 5.67939 38.3597C5.72535 38.4622 5.77397 38.563 5.82081 38.6638L5.91627 38.8671C5.97019 38.9785 6.02588 39.0882 6.08156 39.1987C6.10984 39.2544 6.13636 39.311 6.16553 39.3667C6.33523 39.6973 6.51201 40.0236 6.69586 40.3454C6.72149 40.3869 6.75419 40.4409 6.78601 40.4948Z" fill="#F3AB98"/>
<path d="M3.57229 28.6053C3.57229 15.5805 14.1285 5.02155 27.1499 5.02155C40.1712 5.02155 50.7274 15.5805 50.7274 28.6053C50.7308 32.1147 49.9495 35.5805 48.4408 38.7488C46.9321 41.9172 44.7342 44.7081 42.0079 46.917C41.5242 47.3108 41.0251 47.6848 40.5106 48.039C35.1932 51.4154 28.4757 51.4154 22.4114 50.8752C21.8227 50.7868 21.2358 50.6754 20.6533 50.5472C18.3261 50.0344 16.073 49.2432 13.9915 48.0894C13.4771 47.7723 12.9783 47.4298 12.4951 47.062C12.0094 46.6922 11.5433 46.2973 11.0985 45.8791C10.6778 45.4883 10.2715 45.0822 9.87967 44.6608C5.81887 40.302 3.56443 34.5633 3.57229 28.6053V28.6053Z" stroke="#592D3D" stroke-width="1.06066" stroke-miterlimit="10"/>
<path d="M17.0847 51.479C9.06168 51.479 10.7207 61.5791 10.6438 72.8109H17.0847V51.479Z" fill="#FDD2B2"/>
<path d="M15.414 57.947L17.4266 61.3181L16.4198 72.8116H13.6153C13.5437 56.8737 15.414 57.947 15.414 57.947Z" fill="#F3AB98"/>
<path d="M37.7084 78.9997H16.5889C16.2778 78.9995 15.9794 78.8757 15.7595 78.6555C15.5396 78.4353 15.416 78.1368 15.416 77.8256V52.6531C15.416 52.3419 15.5396 52.0434 15.7595 51.8232C15.9794 51.603 16.2778 51.4792 16.5889 51.479H37.2037C38.3607 51.479 38.8831 52.1562 38.8831 53.2366V77.8221C38.8836 77.9766 38.8535 78.1297 38.7947 78.2727C38.7358 78.4156 38.6494 78.5455 38.5402 78.6549C38.4311 78.7643 38.3015 78.8511 38.1587 78.9102C38.016 78.9694 37.8629 78.9998 37.7084 78.9997Z" fill="#FDD2B2"/>
<path d="M38.5552 52.1777C38.4671 52.0694 38.3925 51.9507 38.3333 51.8242C38.1211 51.6579 37.8686 51.5508 37.6015 51.5139C37.4699 51.4936 37.3369 51.4835 37.2037 51.4839H16.5889C16.2785 51.4841 15.9809 51.6073 15.7611 51.8264C15.5412 52.0456 15.4172 52.3429 15.416 52.6533C17.9793 53.5743 22.7779 54.0887 27.1487 54.0887C32.7224 54.0887 36.3746 53.2623 38.5552 52.1777Z" fill="#F3AB98"/>
<path d="M36.8721 51.479C44.8942 51.479 43.236 61.5791 43.3129 72.8109H38.882" stroke="#592D3D" stroke-width="1.06066" stroke-miterlimit="10" stroke-linecap="square"/>
<path d="M17.0847 51.479C9.06168 51.479 10.7207 61.5791 10.6438 72.8109H15.0694" stroke="#592D3D" stroke-width="1.06066" stroke-miterlimit="10" stroke-linecap="square"/>
<path d="M16.5898 51.4878L37.2046 51.479" stroke="#592D3D" stroke-width="1.06066" stroke-miterlimit="10"/>
<path d="M16.5889 78.9999H26.8968C17.2492 78.9999 17.9775 58.5609 15.416 58.5609V77.8222C15.4156 77.9766 15.4455 78.1296 15.5043 78.2724C15.563 78.4152 15.6493 78.545 15.7583 78.6544C15.8672 78.7638 15.9967 78.8506 16.1392 78.9099C16.2817 78.9692 16.4346 78.9997 16.5889 78.9999Z" fill="#F3AB98"/>
<path d="M14.8867 60.5089C14.8699 60.1845 14.877 59.86 14.8912 59.5364C14.9053 59.2128 14.9327 58.8866 14.9672 58.5639C14.9848 58.4012 15.0025 58.2394 15.0246 58.0767C15.0467 57.9141 15.0679 57.7523 15.0997 57.5896C15.1624 57.2529 15.2691 56.9259 15.4171 56.6171C15.565 56.9259 15.6717 57.2529 15.7344 57.5896C15.7662 57.7523 15.7892 57.9141 15.8095 58.0767C15.8298 58.2394 15.8493 58.4012 15.867 58.5639C15.9005 58.8884 15.9271 59.2128 15.9421 59.5364C15.9571 59.86 15.9642 60.1853 15.9474 60.5089H14.8867Z" fill="#592D3D"/>
<path d="M38.8813 61.3177V62.025C38.9043 65.031 38.9043 68.1254 38.8813 71.1093C38.8813 71.363 38.8813 71.615 38.8813 71.8634V77.8232C38.8817 77.9775 38.8516 78.1304 38.7928 78.2731C38.734 78.4158 38.6477 78.5455 38.5388 78.6548C38.4298 78.7641 38.3004 78.8509 38.1579 78.9101C38.0154 78.9693 37.8627 78.9999 37.7084 79H16.5889C16.2777 78.9997 15.9794 78.8759 15.7595 78.6558C15.5395 78.4356 15.416 78.1371 15.416 77.8259V72.6803C15.416 72.4584 15.416 72.2321 15.416 72.004C15.3939 68.9211 15.3939 65.8267 15.416 62.6943V60.5087" stroke="#592D3D" stroke-width="1.06066" stroke-miterlimit="10"/>
<path d="M38.3513 61.3178C38.3345 60.9492 38.3424 60.5796 38.3566 60.21C38.3707 59.8405 38.3981 59.4718 38.4317 59.1022C38.4494 58.9175 38.4679 58.7327 38.4891 58.5479C38.5104 58.3631 38.5325 58.1792 38.5643 57.9944C38.6258 57.6139 38.7324 57.2421 38.8816 56.8867C39.0308 57.2421 39.1373 57.6139 39.1989 57.9944C39.2307 58.1792 39.2537 58.364 39.274 58.5479C39.2944 58.7318 39.3138 58.9175 39.3315 59.1022C39.3651 59.4718 39.3925 59.8405 39.4066 60.21C39.4208 60.5796 39.4287 60.9492 39.4119 61.3178H38.3513Z" fill="#592D3D"/>
<path d="M33.3965 58.8812C33.4159 58.0459 34.4766 57.6924 35.0069 58.2227C35.0931 58.3107 35.1611 58.4148 35.2071 58.5291C35.253 58.6433 35.276 58.7655 35.2748 58.8887C35.2735 59.0118 35.248 59.1335 35.1997 59.2468C35.1514 59.3601 35.0812 59.4628 34.9932 59.549C34.9052 59.6352 34.8011 59.7032 34.6869 59.7491C34.5726 59.7951 34.4504 59.8181 34.3273 59.8168C34.2041 59.8155 34.0824 59.79 33.9691 59.7417C33.8558 59.6934 33.7531 59.6233 33.667 59.5353C33.5809 59.4495 33.5127 59.3476 33.4662 59.2353C33.4198 59.1231 33.3961 59.0027 33.3965 58.8812Z" fill="#592D3D"/>
<path d="M19.0277 58.8549C19.0091 58.1345 19.8046 57.781 20.3349 58.0461C21.042 58.3113 21.042 59.2836 20.3349 59.7255C19.9814 59.9023 19.6278 59.7255 19.2964 59.5063C19.2109 59.4208 19.1432 59.3192 19.097 59.2074C19.0509 59.0956 19.0274 58.9758 19.0277 58.8549Z" fill="#592D3D"/>
<path d="M27.1495 57.9387C27.2127 58.1054 27.2572 58.2785 27.282 58.455C27.3084 58.6259 27.3228 58.7985 27.3254 58.9714L27.3519 60.0049C27.3598 60.3488 27.3704 60.6936 27.374 61.0384L27.389 62.0702C27.4093 63.4467 27.4084 64.8251 27.4137 66.2025C27.419 67.58 27.4297 68.9574 27.4137 70.3349C27.4058 71.0236 27.3872 71.7123 27.3669 72.4011C27.3581 72.745 27.3413 73.0898 27.3077 73.4337C27.2776 73.7812 27.2254 74.1264 27.1512 74.4672C27.0771 74.1264 27.0248 73.7812 26.9948 73.4337C26.9612 73.0898 26.9444 72.745 26.9356 72.4011C26.9152 71.7123 26.8967 71.0236 26.8887 70.3349C26.871 68.9574 26.8887 67.58 26.8887 66.2025C26.8887 64.8251 26.8887 63.4485 26.9046 62.0711L26.9197 61.0367L26.9488 60.004L26.978 58.9714C26.9813 58.7985 26.996 58.626 27.0222 58.455C27.0453 58.2787 27.088 58.1056 27.1495 57.9387Z" fill="#F3AB98"/>
<path d="M20.54 62.4667C20.6711 62.4044 20.81 62.3598 20.9528 62.3341C21.0893 62.3085 21.2276 62.2937 21.3665 62.2899L22.1929 62.2607L23.8458 62.2245C24.9471 62.2077 26.0475 62.2033 27.1497 62.2006C28.2519 62.198 29.3532 62.1865 30.4546 62.2006C31.0052 62.2086 31.5559 62.2272 32.1074 62.2475C32.3823 62.2572 32.6581 62.274 32.933 62.3067C33.2121 62.3377 33.4884 62.3903 33.7594 62.464C33.4886 62.5383 33.2122 62.5906 32.933 62.6205C32.6581 62.6541 32.3823 62.6709 32.1074 62.6797C31.5559 62.7 31.0052 62.7177 30.4546 62.7257C29.3532 62.7425 28.2519 62.7257 27.1497 62.7257C26.0475 62.7257 24.9462 62.7257 23.844 62.7124C23.2933 62.7071 22.7427 62.6894 22.1929 62.6682L21.3665 62.6382C21.2279 62.6344 21.0899 62.6196 20.9537 62.594C20.8108 62.5701 20.6717 62.5273 20.54 62.4667Z" fill="#F3AB98"/>
<path d="M22.0586 65.2419C22.163 65.1921 22.2745 65.159 22.3892 65.1438C22.4951 65.1288 22.6023 65.1244 22.7091 65.1305C22.9204 65.1393 23.1316 65.1447 23.3429 65.1491C23.7654 65.1588 24.1879 65.1623 24.6104 65.1641C25.4615 65.1641 26.2977 65.1712 27.1524 65.1455C28.0071 65.1199 28.8548 65.1075 29.7051 65.1111C30.1302 65.1111 30.5554 65.1226 30.9796 65.1323C31.1932 65.1351 31.4065 65.149 31.6187 65.1738C31.8368 65.1979 32.052 65.2432 32.2613 65.3091C32.0569 65.3893 31.8448 65.4486 31.6284 65.4858C31.4177 65.5238 31.2049 65.5492 30.9911 65.5618C30.5651 65.5928 30.1391 65.6193 29.7139 65.6343C28.8618 65.6661 28.0107 65.6626 27.1613 65.6741C26.7361 65.6741 26.3118 65.6935 25.8814 65.6829C25.4509 65.6723 25.0249 65.6714 24.598 65.6555C24.1711 65.6396 23.7424 65.6043 23.3164 65.5601C23.1025 65.5362 22.8903 65.5097 22.6773 65.4805C22.5697 65.4674 22.4639 65.4425 22.3618 65.4063C22.2521 65.3691 22.1496 65.3135 22.0586 65.2419Z" fill="#F3AB98"/>
<path d="M21.752 68.3785C21.8568 68.3168 21.9708 68.272 22.0896 68.2459C22.2004 68.2201 22.3135 68.2056 22.4272 68.2026L23.1016 68.1743C23.5515 68.1584 24.0023 68.1451 24.4522 68.138C25.352 68.1248 26.2518 68.1248 27.1498 68.1248C28.0479 68.1248 28.9494 68.1098 29.8492 68.1248C30.2991 68.1327 30.749 68.1513 31.1989 68.1716C31.4246 68.1792 31.6497 68.1987 31.8733 68.23C32.1036 68.2616 32.3303 68.3151 32.5503 68.3899C32.331 68.4634 32.1052 68.5158 31.8759 68.5464C31.6521 68.5784 31.4267 68.5982 31.2007 68.6056C30.7508 68.6259 30.3009 68.6445 29.851 68.6525C28.9512 68.6701 28.0505 68.6578 27.1507 68.6525C26.2509 68.6472 25.3511 68.6472 24.4513 68.6304C24.0014 68.6215 23.5507 68.6056 23.1008 68.5871L22.4264 68.5543C22.3126 68.5509 22.1995 68.5361 22.0887 68.5102C21.9701 68.4845 21.8565 68.4401 21.752 68.3785Z" fill="#F3AB98"/>
<path d="M31.3786 59.3715L27.6548 56.3328L34.2512 51.4888H20.0472L26.6436 56.3328L22.9198 59.3715L19.5938 54.3763V61.3148H34.9963V53.9378L31.3786 59.3715Z" fill="#F3AB98"/>
<path d="M37.4605 51.4292L33.6836 51.438C33.6641 51.8374 33.6219 52.2353 33.5572 52.6298C33.5157 52.8192 33.4643 53.0063 33.4035 53.1904C33.1966 53.7641 31.8779 54.2513 31.504 54.6695C31.3801 54.8086 31.2472 54.9394 31.1062 55.0611C28.8815 56.6702 25.346 56.7586 23.1973 55.0099C22.9655 54.8075 22.755 54.582 22.5688 54.3371C22.1949 53.8455 21.1192 53.3124 20.969 52.6625C20.9264 52.4703 20.8945 52.2757 20.8735 52.0799C20.8522 51.8802 20.8416 51.6795 20.8417 51.4787L16.8457 51.4292C16.5345 51.4292 16.2361 51.5528 16.016 51.7728C15.7959 51.9928 15.6721 52.2912 15.6719 52.6024V77.7723C15.6721 78.0835 15.7959 78.3819 16.016 78.6019C16.2361 78.8219 16.5345 78.9455 16.8457 78.9455H37.9643C38.2754 78.9455 38.5737 78.8219 38.7937 78.6018C39.0136 78.3818 39.1372 78.0834 39.1372 77.7723V53.1833C39.1372 52.1064 38.6175 51.4292 37.4605 51.4292Z" fill="white"/>
<path d="M37.123 51.4292C42.7392 51.4292 44.9472 55.2654 44.0969 75.4771C42.4405 76.0695 39.1551 75.8829 39.1551 75.8829L37.123 51.4292Z" fill="white"/>
<path d="M22.8242 60.0259L27.1066 57.8966L31.4005 60.0259L28.1249 56.2234L24.2455 56.2968L22.8242 60.0259Z" fill="#E2E2E2"/>
<path d="M39.1372 57.8972C39.1372 57.8972 37.1228 65.3715 37.4304 78.5855L40.3658 75.8447L40.6822 63.6811C40.1855 57.2952 39.1372 57.8972 39.1372 57.8972Z" fill="#E2E2E2"/>
<path d="M17.3389 51.4292C11.8783 51.4292 9.483 56.42 10.2016 73.1324C12.1833 74.0086 15.1681 73.6258 15.1681 73.6258L17.3389 51.4292Z" fill="white"/>
<path d="M10.0859 69.0526C10.1013 70.2586 10.1369 71.5399 10.1929 72.8967C11.5426 72.9613 14.0546 72.9745 15.2407 72.8967L15.6102 69.1119C14.6583 69.0005 11.5638 68.9642 10.0859 69.0526Z" fill="#E2E2E2"/>
<path d="M15.6703 57.8977L15.6261 73.6075L14.4461 73.6871C14.1836 60.5094 15.6703 57.8977 15.6703 57.8977Z" fill="#E2E2E2"/>
<path d="M37.123 51.4292C43.0822 51.4292 44.0571 56.405 44.0969 63.2569V75.4771C44.0969 75.4771 39.6775 75.966 39.1551 75.8829L39.1463 63.3188" stroke="#592D3D" stroke-width="1.06066" stroke-miterlimit="10" stroke-linecap="square"/>
<path d="M17.3379 51.4292C15.0637 51.4292 13.4913 52.1471 12.4138 53.4132C10.6947 55.4351 10.2368 58.854 10.2041 62.9855V73.9281C11.2701 74.2217 15.6276 73.6063 15.6276 73.6063L15.6709 63.1207" stroke="#592D3D" stroke-width="1.06066" stroke-miterlimit="10" stroke-linecap="square"/>
<path d="M15.8891 73.8055C15.7274 74.0362 9.36872 73.9752 9.28917 73.8055C9.20962 73.6357 9.0956 70.4901 9.28917 70.1806C9.44827 69.926 15.6629 69.9799 15.8891 70.1806C16.1154 70.3813 16.0509 73.5747 15.8891 73.8055Z" fill="white" stroke="#592D3D" stroke-width="1.06066" stroke-miterlimit="10" stroke-linecap="square"/>
<path d="M16.8463 78.9455H27.1497C17.4986 78.9455 18.2304 58.5101 15.6689 58.5101V77.7723C15.6691 77.9267 15.6996 78.0796 15.7589 78.2222C15.8181 78.3648 15.9049 78.4942 16.0143 78.6032C16.1237 78.7122 16.2534 78.7985 16.3962 78.8573C16.539 78.916 16.6919 78.946 16.8463 78.9455Z" fill="#E2E2E2"/>
<path d="M15.1416 60.4592C15.1248 60.1347 15.1318 59.8094 15.1469 59.4867C15.1619 59.164 15.1884 58.8378 15.222 58.5142C15.2397 58.3524 15.2582 58.1897 15.2794 58.027C15.3007 57.8643 15.3228 57.7026 15.3546 57.5408C15.4171 57.204 15.5238 56.877 15.6719 56.5682C15.8199 56.877 15.9266 57.204 15.9892 57.5408C16.021 57.7026 16.044 57.8652 16.0643 58.027C16.0847 58.1888 16.1041 58.3524 16.1218 58.5142C16.156 58.8395 16.1813 59.1637 16.1978 59.4867C16.2119 59.8112 16.219 60.1365 16.1978 60.4592H15.1416Z" fill="#592D3D"/>
<path d="M39.1378 61.2644V61.9716C39.1608 64.9776 39.1608 68.072 39.1378 71.0568C39.1378 71.3105 39.1378 71.5625 39.1378 71.8109V77.7708C39.1378 78.0819 39.0143 78.3803 38.7943 78.6003C38.5743 78.8204 38.276 78.944 37.9649 78.944H16.8463C16.5351 78.944 16.2367 78.8204 16.0166 78.6004C15.7965 78.3804 15.6727 78.082 15.6725 77.7708V71.9533C15.6495 68.8713 15.6495 65.7769 15.6725 62.6436V60.4589" stroke="#592D3D" stroke-width="1.06066" stroke-miterlimit="10"/>
<path d="M44.5983 70.179C44.7945 70.3788 44.7389 73.5731 44.5983 73.8039C44.4578 74.0347 38.9415 73.9736 38.8734 73.8039C38.8054 73.6341 38.7055 70.4885 38.8734 70.179C38.8973 70.1348 39.0749 70.1003 39.3551 70.0747" fill="white"/>
<path d="M44.5983 70.179C44.7945 70.3788 44.7389 73.5731 44.5983 73.8039C44.4578 74.0347 38.9415 73.9736 38.8734 73.8039C38.8054 73.6341 38.7055 70.4885 38.8734 70.179C38.8973 70.1348 39.0749 70.1003 39.3551 70.0747" stroke="#592D3D" stroke-width="1.06066" stroke-miterlimit="10" stroke-linecap="square"/>
<path d="M42.9639 70.0089C43.2997 70.0354 44.2897 69.9046 44.3268 69.9417L42.9639 70.0089Z" fill="white"/>
<path d="M42.9639 70.0085C43.0154 69.9416 43.0708 69.8778 43.13 69.8176C43.1782 69.7694 43.2309 69.7259 43.2874 69.6877C43.3382 69.6539 43.3917 69.6244 43.4474 69.5993C43.5013 69.5737 43.5552 69.5516 43.6091 69.5295C43.7177 69.4855 43.8298 69.4507 43.9441 69.4252C44.0024 69.4123 44.0614 69.4031 44.1209 69.3978C44.1527 69.3978 44.1854 69.3978 44.2243 69.3978C44.2464 69.3978 44.2649 69.3978 44.2968 69.3978C44.3074 69.3978 44.3357 69.3978 44.3595 69.404H44.3905L44.4338 69.4137L44.4559 69.419L44.4735 69.4243L44.5239 69.4428C44.59 69.4717 44.65 69.5128 44.7007 69.5639L45.0719 69.9431L44.3074 70.6927L43.9432 70.3064C43.9909 70.3564 44.0484 70.3961 44.112 70.4231C44.1279 70.4301 44.1439 70.4354 44.1598 70.4407H44.1748L44.1916 70.4452C44.2025 70.4487 44.2138 70.4514 44.2252 70.4531H44.242C44.2508 70.4531 44.2649 70.4531 44.2614 70.4531C44.2579 70.4531 44.2552 70.4531 44.2482 70.4531H44.1819C44.1315 70.4531 44.0767 70.4531 44.021 70.4531C43.9045 70.4462 43.7887 70.4306 43.6745 70.4063C43.6153 70.393 43.5561 70.3798 43.4977 70.363C43.4371 70.3468 43.378 70.3255 43.321 70.2993C43.2551 70.2682 43.1933 70.229 43.1371 70.1827C43.0699 70.1349 43.0113 70.076 42.9639 70.0085Z" fill="#592D3D"/>
<path d="M35.3265 51.9132L28.7266 56.7591L32.4512 59.7986L37.7033 51.9088L35.3265 51.9132Z" fill="#E2E2E2"/>
<path d="M38.6081 61.264C38.5913 60.8945 38.5993 60.5249 38.6134 60.1562C38.6275 59.7876 38.6549 59.4171 38.6894 59.0484C38.7071 58.8637 38.7248 58.6789 38.746 58.4941C38.7672 58.3093 38.7893 58.1245 38.822 57.9398C38.8831 57.5592 38.9893 57.1873 39.1384 56.832C39.2882 57.1872 39.3948 57.5591 39.4557 57.9398C39.4876 58.1245 39.5114 58.3093 39.5309 58.4941C39.5503 58.6789 39.5706 58.8637 39.5883 59.0484C39.6228 59.4171 39.6493 59.7867 39.6635 60.1562C39.6776 60.5258 39.6864 60.8945 39.6688 61.264H38.6081Z" fill="#592D3D"/>
<path d="M16.8457 51.438L37.4605 51.4292" stroke="#592D3D" stroke-width="1.06066" stroke-miterlimit="10"/>
<path d="M29.7469 58.2718L27.7715 56.2967L25.7969 58.2718L26.7674 59.2426L25.9082 68.6699L27.7414 70.0995L29.6347 68.6699L28.7764 59.2426L29.7469 58.2718Z" fill="#E2E2E2"/>
<path d="M27.1523 56.2967V78.9459" stroke="#592D3D" stroke-width="0.53033" stroke-miterlimit="10" stroke-linecap="square"/>
<path d="M27.1523 56.2967L29.1278 57.6526L27.1523 59.628L25.1777 57.6526L27.1523 56.2967Z" fill="#89D86F"/>
<path d="M20.0456 51.4865C20.0456 51.4865 23.8702 54.9646 26.6447 56.3324C25.2941 58.5612 22.9209 59.3728 22.9209 59.3728L17.668 51.4839L20.0456 51.4865Z" fill="white" stroke="#592D3D" stroke-width="1.06066" stroke-miterlimit="10"/>
<path d="M34.2543 51.4873C34.2543 51.4873 30.7736 55.1299 27.6553 56.3332C28.5392 58.1261 31.3791 59.3719 31.3791 59.3719L36.632 51.4829L34.2543 51.4873Z" fill="white" stroke="#592D3D" stroke-width="1.06066" stroke-miterlimit="10"/>
<path d="M25.29 68.0509L27.1232 69.4805L29.0165 68.0509L28.1326 58.3451H26.1739L25.29 68.0509Z" fill="#89D86F"/>
<path d="M25.1777 57.6525L26.1482 58.6233L25.2891 68.0506L27.1223 69.4802L29.0156 68.0506L28.1573 58.6233L29.1278 57.6525" stroke="#592D3D" stroke-width="0.707106" stroke-miterlimit="10"/>
<path d="M39.3555 70.0763C40.0193 70.0135 41.2567 69.9976 42.3607 70.0171L39.3555 70.0763Z" fill="white"/>
<path d="M39.3059 69.5474C39.5646 69.5109 39.826 69.497 40.0872 69.5058C40.3435 69.512 40.5981 69.5323 40.8527 69.5633C40.979 69.5792 41.1063 69.596 41.2327 69.6172C41.3603 69.6358 41.4869 69.6609 41.6119 69.6923C41.8789 69.7573 42.1329 69.8669 42.3632 70.0167C42.1295 70.1578 41.8755 70.2622 41.6101 70.3261C41.4855 70.3579 41.3609 70.3818 41.2363 70.4021C41.1116 70.4224 40.9879 70.4436 40.8641 70.4631C40.6167 70.5002 40.3701 70.532 40.1261 70.5515C39.8822 70.5709 39.6382 70.5957 39.4049 70.5992L38.8745 70.608L38.7861 69.6243L39.3059 69.5474Z" fill="#592D3D"/>
<path d="M28.5434 71.7252C28.7777 71.7252 28.9677 71.5352 28.9677 71.3009C28.9677 71.0666 28.7777 70.8766 28.5434 70.8766C28.3091 70.8766 28.1191 71.0666 28.1191 71.3009C28.1191 71.5352 28.3091 71.7252 28.5434 71.7252Z" fill="#592D3D"/>
<path d="M26.3448 58.3289C26.3404 58.3236 26.3448 58.3289 26.3448 58.3289L26.351 58.3333C26.3564 58.3362 26.3615 58.3398 26.366 58.3439L26.3996 58.3696C26.4217 58.3881 26.4456 58.4067 26.4686 58.427C26.5154 58.4668 26.5649 58.5092 26.6188 58.5499C26.6727 58.5905 26.7311 58.6294 26.7956 58.6754C26.8799 58.7387 26.9599 58.8075 27.0351 58.8813C26.9721 58.9842 26.8738 59.0605 26.7585 59.0961C26.6521 59.1257 26.541 59.1338 26.4314 59.12C26.3202 59.1092 26.2117 59.0793 26.1106 59.0316C26.0592 59.007 26.0103 58.9774 25.9648 58.9432C25.941 58.9259 25.9183 58.9073 25.8967 58.8875C25.8861 58.8778 25.8746 58.8672 25.864 58.8557L25.8463 58.8371L25.8242 58.8115L26.3448 58.3289Z" fill="#592D3D"/>
<path d="M6.94474 35.3977C6.85635 32.8904 8.53573 30.7685 10.7702 29.7783C11.0048 29.6822 11.2458 29.6024 11.4914 29.5396C12.7297 29.2319 14.0329 29.3146 15.2223 29.7765C15.4941 29.8808 15.7584 30.0037 16.0134 30.1443C18.6235 31.5483 19.7955 34.8522 18.7852 37.5231C18.6829 37.7924 18.5593 38.0531 18.4158 38.3029C18.0633 39.0374 17.5309 39.6709 16.8681 40.1445C16.647 40.3073 16.4152 40.4549 16.1742 40.5866C13.7542 41.7359 10.4838 41.3823 8.53308 39.5787C8.33795 39.3713 8.15749 39.1507 7.99303 38.9182C7.80542 38.6527 7.64072 38.3717 7.5007 38.0783C7.20432 37.4781 7.0332 36.8239 6.99777 36.1554C6.96577 35.904 6.94806 35.6511 6.94474 35.3977Z" fill="#F3AB98"/>
<path d="M6.80021 33.7753C6.71182 31.268 8.3912 29.1461 10.6257 28.1559C10.86 28.0598 11.1007 27.9801 11.346 27.9172C12.5846 27.6093 13.8881 27.6921 15.0778 28.1541C15.3487 28.2585 15.6121 28.3814 15.8662 28.5219C18.4763 29.9268 19.6483 33.2298 18.6381 35.9007C18.5364 36.1703 18.4129 36.4311 18.2686 36.6805C18.1464 36.92 18.0073 37.1505 17.8523 37.3701C17.6995 37.5878 17.5317 37.7946 17.3502 37.989C17.154 38.1832 16.9437 38.3626 16.7209 38.5257C16.4999 38.6886 16.2681 38.8363 16.0271 38.9677C13.607 40.1171 10.3366 39.7634 8.38678 37.9598C8.19118 37.7529 8.0107 37.5322 7.84673 37.2994C7.65886 37.0339 7.49386 36.7529 7.35352 36.4595C7.05515 35.8574 6.88338 35.2006 6.84882 34.5295C6.81756 34.2793 6.80132 34.0275 6.80021 33.7753Z" fill="white" stroke="#592D3D" stroke-width="1.06066" stroke-miterlimit="10"/>
<path d="M12.8748 34.9103C13.4723 34.9103 13.9567 34.426 13.9567 33.8285C13.9567 33.231 13.4723 32.7466 12.8748 32.7466C12.2773 32.7466 11.793 33.231 11.793 33.8285C11.793 34.426 12.2773 34.9103 12.8748 34.9103Z" fill="#592D3D"/>
<path d="M46.1558 33.8289H36.2891" stroke="#592D3D" stroke-width="1.41421" stroke-miterlimit="10" stroke-linecap="round"/>
<path d="M38.374 35.1623C38.7561 35.0941 39.1418 35.0481 39.5293 35.0244C39.9146 34.9979 40.3 34.9864 40.6854 34.9855C41.0708 34.9846 41.4552 34.9979 41.8406 35.0235C42.2283 35.0475 42.6143 35.0939 42.9967 35.1623C42.6144 35.2315 42.2284 35.2781 41.8406 35.3019C41.4552 35.3273 41.0702 35.3397 40.6854 35.3391C40.3006 35.3385 39.9152 35.3258 39.5293 35.3011C39.1418 35.2775 38.756 35.2312 38.374 35.1623Z" fill="#592D3D"/>
<path fill-rule="evenodd" clip-rule="evenodd" d="M4.5127 27.6446C5.01121 29.0438 6.36001 29.7713 7.46486 30.0258C8.61922 28.2368 12.4721 27.4696 15.3641 28.4843C17.8213 28.9263 14.4086 26.2242 8.95863 27.6888C8.75445 27.764 7.67169 27.9496 6.28223 26.8765C6.08866 26.7272 6.69589 28.0884 7.38708 28.6443C6.38388 28.624 6.21947 28.6249 4.5127 27.6446Z" fill="#592D3D"/>
<path d="M22.123 39.3797C22.123 37.7087 32.1746 37.9598 32.1746 39.3797C32.1746 40.7129 31.6451 41.9916 30.7026 42.9343C29.76 43.8771 28.4817 44.4067 27.1488 44.4067C25.8159 44.4067 24.5376 43.8771 23.5951 42.9343C22.6525 41.9916 22.123 40.7129 22.123 39.3797Z" fill="#592D3D"/>
<path d="M26.7072 41.2486C25.209 41.1602 23.9026 41.8452 23.4678 42.8591C24.1909 43.623 25.1354 44.1407 26.1683 44.3394C27.2013 44.5381 28.2705 44.4077 29.2254 43.9666C29.424 43.8749 29.6162 43.7701 29.8008 43.6528C29.7195 42.4056 28.3919 41.3529 26.7072 41.2486Z" fill="#F28195"/>
<path d="M22.123 39.3797C22.123 37.7087 32.1746 37.9598 32.1746 39.3797C32.1746 40.7129 31.6451 41.9916 30.7026 42.9343C29.76 43.8771 28.4817 44.4067 27.1488 44.4067C25.8159 44.4067 24.5376 43.8771 23.5951 42.9343C22.6525 41.9916 22.123 40.7129 22.123 39.3797V39.3797Z" stroke="#592D3D" stroke-width="0.53033" stroke-miterlimit="10"/>
<path d="M25.2158 40.316C25.2556 40.3063 25.2715 40.3018 25.2971 40.2974L25.3634 40.285C25.4067 40.2771 25.4518 40.2727 25.4925 40.2691C25.5773 40.2605 25.6627 40.2575 25.7479 40.2603C25.9207 40.2641 26.0925 40.2881 26.2597 40.3319C26.6099 40.4206 26.9273 40.6077 27.1745 40.871C27.4071 41.1212 27.5629 41.4329 27.6235 41.7691C27.6788 42.0791 27.6368 42.3987 27.5033 42.6839C27.3203 42.4249 27.1798 42.1925 27.0331 41.998C26.967 41.9048 26.8947 41.8162 26.8165 41.7328C26.7451 41.6596 26.665 41.5955 26.5779 41.5419C26.4129 41.4431 26.2288 41.3801 26.0378 41.3572C25.9376 41.3443 25.8366 41.3372 25.7355 41.336C25.6834 41.336 25.6312 41.336 25.58 41.3404L25.5049 41.3457H25.4704C25.4615 41.3457 25.4439 41.3457 25.45 41.3457L25.2158 40.316Z" fill="#592D3D"/>
<path d="M32.3401 19.706C31.2034 21.8278 27.0368 23.0161 26.6982 22.4838C26.3191 21.8888 30.0437 17.5929 27.9268 13.0999" fill="#F3AB98"/>
<path d="M52.2512 14.7115C51.8004 14.2606 49.5058 14.8733 47.1963 14.6911C44.9332 11.6169 41.9923 9.10577 38.6019 7.3526C35.2114 5.59943 31.4626 4.65142 27.6465 4.58219C27.4309 2.77152 27.5802 1.25085 27.4158 1.03689C27.1958 0.752207 26.0467 2.15795 25.748 3.77764C24.6953 2.45147 22.9072 1.74418 22.8559 2.11551C22.8223 2.35245 23.5135 3.36123 24.1649 4.75901C14.3008 5.94991 6.21503 12.9158 3.38661 22.1761C2.16154 23.2299 1.0125 23.9743 1.00012 24.4473C0.976257 25.3244 4.47466 25.2749 6.00113 25.1387V25.1334C11.3619 24.9566 21.8226 23.9151 26.8979 18.6891C26.41 20.3769 25.5111 21.6208 25.6843 21.8861C25.9495 22.2989 29.0714 21.4272 30.1099 19.8314C34.3526 21.5634 42.4392 23.6472 49.467 18.4027L49.4475 18.3646C50.7283 17.294 52.8125 15.2773 52.2512 14.7115Z" fill="#592D3D"/>
<path d="M47.1999 15.2206C46.7226 15.2418 46.2577 15.2303 45.7857 15.2082C45.3137 15.1861 44.8497 15.149 44.383 15.0968C44.1497 15.0712 43.9163 15.0438 43.6839 15.0084C43.4514 14.9731 43.218 14.9448 42.9865 14.8997C42.5146 14.8149 42.053 14.6804 41.6094 14.4984C42.073 14.3797 42.5463 14.3022 43.0236 14.2669C43.256 14.2474 43.4885 14.2341 43.721 14.2244L44.4175 14.1944C44.8815 14.1749 45.3447 14.1643 45.8069 14.1546C46.2692 14.1449 46.7332 14.144 47.1876 14.1546L47.1999 15.2206Z" fill="#592D3D"/>
<path d="M3.86797 22.4171C3.86797 22.4171 3.86797 22.4383 3.86797 22.4516L3.85736 22.4984L3.83261 22.5965C3.81405 22.6628 3.7946 22.7309 3.77427 22.7989C3.73273 22.9359 3.68589 23.0765 3.63816 23.2188C3.59043 23.3611 3.54447 23.5087 3.48171 23.6607C3.44658 23.7401 3.40582 23.8169 3.35973 23.8905C3.30679 23.9778 3.24551 24.0598 3.17677 24.1354C3.02773 24.0049 2.91454 23.8384 2.84797 23.6519C2.81766 23.5687 2.79517 23.4829 2.78079 23.3955C2.76223 23.3072 2.75339 23.2188 2.74278 23.1348C2.72506 22.9585 2.72506 22.7808 2.74278 22.6045C2.75141 22.5153 2.76558 22.4267 2.78521 22.3393C2.79582 22.2951 2.80731 22.2509 2.82145 22.2058C2.82822 22.1827 2.83618 22.16 2.84531 22.1378C2.85415 22.113 2.86122 22.0954 2.87713 22.0582L3.86797 22.4171Z" fill="#592D3D"/>
<path d="M6.00113 25.1405V25.1352C7.50373 25.0856 9.41557 24.9672 11.4936 24.7072C11.726 19.7633 13.4381 13.9582 17.3201 7.16289L16.7191 6.87555C13.5487 8.34899 10.7233 10.4727 8.42648 13.1089C6.12962 15.7451 4.41252 18.8349 3.38661 22.1778C2.16154 23.2317 1.0125 23.9761 1.00012 24.4491C0.976257 25.3261 4.47466 25.2766 6.00113 25.1405Z" fill="#592D3D"/>
<path d="M52.2512 14.7115C51.8004 14.2606 49.5058 14.8733 47.1963 14.6911C44.9332 11.6169 41.9923 9.10577 38.6019 7.3526C35.2114 5.59943 31.4626 4.65142 27.6465 4.58219C27.4309 2.77152 27.5802 1.25085 27.4158 1.03689C27.1958 0.752207 26.0467 2.15795 25.748 3.77764C24.6953 2.45147 22.9072 1.74418 22.8559 2.11551C22.8223 2.35245 23.5135 3.36123 24.1649 4.75901C14.3008 5.94991 6.21503 12.9158 3.38661 22.1761C2.16154 23.2299 1.0125 23.9743 1.00012 24.4473C0.976257 25.3244 4.47466 25.2749 6.00113 25.1387V25.1334C11.3619 24.9566 21.8226 23.9151 26.8979 18.6891C26.41 20.3769 25.5111 21.6208 25.6843 21.8861C25.9495 22.2989 29.0714 21.4272 30.1099 19.8314C34.3526 21.5634 42.4392 23.6472 49.467 18.4027L49.4475 18.3646C50.7283 17.294 52.8125 15.2773 52.2512 14.7115Z" stroke="#592D3D" stroke-width="1.06066" stroke-miterlimit="10"/>
<path d="M27.673 5.99952C26.414 6.07206 25.1603 6.21789 23.9182 6.43627C23.6106 6.49551 23.3039 6.56093 22.9955 6.61752C22.687 6.6741 22.3856 6.75986 22.0806 6.83059L21.1738 7.07107C20.8733 7.15948 20.5754 7.25496 20.2766 7.34691C19.0849 7.73134 17.9205 8.19597 16.7915 8.73762C15.657 9.28847 14.5575 9.90852 13.499 10.5943C14.4418 9.73418 15.4825 8.98815 16.5997 8.3716C17.7177 7.74716 18.8949 7.23511 20.114 6.84297C20.4216 6.75456 20.7274 6.65819 21.035 6.57331C21.3426 6.48844 21.6537 6.4124 21.9675 6.34344C22.2813 6.27448 22.5951 6.21967 22.9097 6.16662C23.2244 6.11357 23.5417 6.07202 23.8581 6.03223C25.1244 5.87642 26.4042 5.86545 27.673 5.99952Z" fill="white"/>
<path d="M36.0672 25.1183C37.0432 24.8695 38.032 24.6732 39.0291 24.5305L38.794 24.5614C39.9589 24.4076 41.1398 24.3626 42.3074 24.519L42.0723 24.4872C42.3613 24.5279 42.6503 24.5756 42.9403 24.6127L42.7051 24.5809C43.585 24.7015 44.4556 24.8819 45.3108 25.1209C45.7528 25.2438 46.2919 24.968 46.398 24.5022C46.4558 24.2762 46.4236 24.0365 46.3082 23.8337C46.1928 23.6309 46.0032 23.4808 45.7793 23.415C44.7763 23.1404 43.7544 22.9401 42.7219 22.8158L42.9571 22.8476C41.982 22.6746 40.9899 22.6167 40.0014 22.6752C39.0181 22.7398 38.0407 22.8742 37.0766 23.0774C36.5798 23.1773 36.0866 23.2922 35.5952 23.4133C35.1462 23.5238 34.8333 24.055 34.9765 24.5005C35.0423 24.7243 35.1923 24.9139 35.3951 25.0293C35.5979 25.1447 35.8376 25.177 36.0636 25.1192L36.0672 25.1183Z" fill="#592D3D"/>
<path d="M8.24614 25.1205C9.09327 24.8747 9.95741 24.6918 10.8315 24.5734L10.5964 24.6052C12.1039 24.4078 13.6309 24.4102 15.1378 24.6123L14.9027 24.5813C15.7817 24.7012 16.6514 24.8813 17.5057 25.1205C17.9476 25.2442 18.4868 24.9676 18.5929 24.5018C18.6506 24.2757 18.6184 24.036 18.503 23.8333C18.3876 23.6305 18.198 23.4804 17.9742 23.4146C16.6975 23.0594 15.3889 22.8315 14.0674 22.734C11.9454 22.5959 9.8156 22.8264 7.77238 23.4155C7.55081 23.4796 7.36149 23.6247 7.24205 23.8221C7.12401 24.0284 7.09224 24.273 7.15366 24.5027C7.2995 24.9543 7.76442 25.2575 8.24083 25.1214L8.24614 25.1205Z" fill="#592D3D"/>
</svg>
