<svg width="57" height="71" viewBox="0 0 57 71" fill="none" xmlns="http://www.w3.org/2000/svg">
<path d="M28.2848 1C13.2162 1 1 11.9165 1 25.3838V50.2216C1 63.6881 13.2162 74.6054 28.2848 74.6054C43.3534 74.6054 55.5695 63.6881 55.5695 50.2216V25.3838C55.5695 11.9165 43.3534 1 28.2848 1Z" fill="#A56941" stroke="#592D3D" stroke-width="1.08776" stroke-miterlimit="10"/>
<path d="M38.085 50.7836C46.3121 50.7836 44.6116 61.1391 44.6904 72.6549H38.085V50.7836Z" fill="#FDD2B2"/>
<path d="M40.1463 57.4137L38.085 60.8701L39.1165 72.6542H41.9955C42.0653 56.3132 40.1463 57.4137 40.1463 57.4137Z" fill="#F3AB98"/>
<path d="M3.93459 27.3314C3.93459 13.9772 14.7606 3.15125 28.1147 3.15125C41.4688 3.15125 52.2948 13.9772 52.2948 27.3314C52.2982 30.9295 51.497 34.4829 49.9498 37.7314C48.4025 40.9799 46.1484 43.8413 43.3525 46.1062C42.8563 46.5099 42.3445 46.8933 41.8169 47.2565C36.3636 50.7183 29.4744 50.7183 23.2551 50.1645C22.6514 50.0738 22.0495 49.9596 21.4521 49.8281C19.0654 49.3024 16.7548 48.4911 14.6201 47.3082C14.0925 46.983 13.581 46.6319 13.0854 46.2548C12.5873 45.8756 12.1093 45.4708 11.6532 45.042C11.2217 44.6413 10.805 44.2249 10.4032 43.7929C6.23858 39.3238 3.92654 33.44 3.93459 27.3314Z" fill="#FDD2B2"/>
<path d="M7.23022 39.5214C7.29367 39.6302 7.35622 39.739 7.42149 39.8459C7.46047 39.9112 7.50126 39.9747 7.54205 40.0399C7.60187 40.1369 7.6617 40.2339 7.72334 40.3291C7.76685 40.398 7.81399 40.4651 7.85569 40.5321C7.91551 40.6228 7.97534 40.7134 8.03698 40.8041C8.08321 40.873 8.12763 40.9419 8.17839 41.0107C8.23822 41.1014 8.29805 41.1848 8.35969 41.2718C8.40864 41.3416 8.4594 41.4105 8.50925 41.4803C8.55911 41.5501 8.63072 41.648 8.69055 41.7314C8.75037 41.8148 8.79479 41.8701 8.84737 41.939C8.89994 42.0079 8.97155 42.1021 9.035 42.1837C9.09846 42.2653 9.14288 42.3206 9.19726 42.3886C9.25165 42.4566 9.32508 42.5481 9.38944 42.627C9.45379 42.7059 9.50093 42.7621 9.55713 42.8291C9.61333 42.8962 9.68767 42.985 9.75384 43.0621C9.82001 43.1391 9.86896 43.1953 9.92697 43.2615L10.1282 43.4881C10.1871 43.5543 10.247 43.6187 10.3095 43.6839C10.3875 43.7691 10.4663 43.8534 10.5452 43.9368L10.6549 44.0529C10.7718 44.1743 10.8896 44.2958 11.0093 44.4155L11.0329 44.4399C11.1498 44.556 11.2685 44.6711 11.3873 44.7853L11.5305 44.9213C11.6166 45.0019 11.7027 45.0826 11.7898 45.1624L11.8949 45.2585C11.9856 45.3437 12.0844 45.4271 12.1796 45.5105C12.4757 45.7685 12.7778 46.016 13.086 46.2529C13.581 46.63 14.0925 46.9811 14.6207 47.3062C16.7554 48.4846 19.0624 49.3004 21.4528 49.8262C22.0501 49.9576 22.652 50.0709 23.2557 50.1625C27.072 50.5024 31.142 50.632 34.9746 49.8833C28.8804 48.0894 -0.385948 37.5508 18.0344 5.34747C17.7879 5.46078 17.545 5.57771 17.3038 5.69918L17.2504 5.72547C17.1398 5.78076 17.0292 5.83787 16.9195 5.89589L16.8288 5.94393C16.488 6.12522 16.1508 6.31286 15.8199 6.50866L15.7384 6.5567C15.6332 6.61925 15.529 6.6827 15.4247 6.74706L15.3459 6.79601C15.0219 6.99846 14.7032 7.20785 14.3895 7.4242L14.2916 7.49218C14.1928 7.56108 14.0958 7.62996 13.9988 7.69976L13.939 7.74237C13.7414 7.8868 13.5462 8.03304 13.3534 8.1811L13.2972 8.22461C13.2066 8.29532 13.1159 8.36783 13.0253 8.44126L12.9192 8.52646C12.8286 8.59989 12.7379 8.67331 12.6473 8.74855C12.456 8.90718 12.2675 9.07035 12.0817 9.23532L11.9783 9.32597L11.7345 9.54806L11.6166 9.65502C11.358 9.89675 11.1051 10.1436 10.8579 10.3956L10.7328 10.5234C10.6612 10.5977 10.5896 10.6721 10.5189 10.7473C10.4772 10.7917 10.4355 10.838 10.3947 10.8815C10.2702 11.0144 10.1475 11.1492 10.0267 11.2858C9.98589 11.332 9.9442 11.3764 9.90341 11.4254C9.83905 11.4988 9.77559 11.5731 9.71214 11.6474L9.57526 11.8097C9.51362 11.8831 9.45198 11.9566 9.39397 12.0309C9.34502 12.0907 9.29607 12.1514 9.24803 12.2122C9.15103 12.3327 9.05585 12.4533 8.96158 12.5748C8.91263 12.6382 8.86368 12.7017 8.81564 12.766C8.7676 12.8304 8.70686 12.9102 8.65338 12.9836C8.5999 13.057 8.55639 13.115 8.50925 13.1812C8.46212 13.2474 8.40682 13.3217 8.35697 13.3924C8.27115 13.5133 8.18655 13.6356 8.10315 13.7595C8.05783 13.8257 8.01251 13.8937 7.96809 13.9608C7.92367 14.0278 7.86838 14.1112 7.81943 14.1874L7.68436 14.3968L7.53208 14.6424C7.4931 14.705 7.45412 14.7675 7.41605 14.8301C7.33537 14.9624 7.25742 15.0957 7.17946 15.2289L7.06887 15.4247C7.01992 15.5108 6.97097 15.5978 6.92293 15.6849C6.88667 15.751 6.85041 15.8172 6.81506 15.8834C6.75704 15.9913 6.69994 16.1 6.64283 16.2088L6.53405 16.4209C6.47604 16.5369 6.41802 16.6521 6.36092 16.769C6.331 16.8316 6.30018 16.895 6.27027 16.9585C6.22313 17.0573 6.17962 17.157 6.13158 17.2567C6.10348 17.3165 6.07628 17.3763 6.04909 17.438C5.98201 17.5872 5.91644 17.7383 5.85239 17.8912C5.83244 17.9383 5.81341 17.9864 5.79347 18.0335C5.74542 18.1487 5.69829 18.2638 5.65206 18.3798C5.62758 18.4405 5.60401 18.5013 5.58045 18.5611C5.53512 18.6753 5.4898 18.7904 5.44901 18.9056C5.42997 18.9554 5.41093 19.0053 5.39281 19.0551C5.336 19.2141 5.2801 19.373 5.22511 19.5319L5.17435 19.686C5.13446 19.8069 5.09548 19.9278 5.05741 20.0486L5.00302 20.2218C4.96042 20.3613 4.91872 20.5009 4.87884 20.6414C4.86977 20.6714 4.86071 20.7013 4.85255 20.7321C4.80541 20.8989 4.76009 21.0663 4.71658 21.2343C4.70208 21.2878 4.68938 21.3421 4.67579 21.3956C4.64406 21.5216 4.61324 21.6476 4.58514 21.7745L4.54707 21.9332C4.50809 22.1054 4.47002 22.2776 4.43467 22.4508L4.42107 22.5206C4.39025 22.6747 4.36003 22.8288 4.33042 22.9829C4.32045 23.0382 4.31139 23.0925 4.30142 23.1478C4.27785 23.2829 4.25518 23.4198 4.23434 23.5558C4.22708 23.602 4.21893 23.6464 4.21258 23.6935C4.18539 23.8703 4.16091 24.048 4.13734 24.2265L4.12375 24.3444C4.10562 24.4885 4.0893 24.6335 4.07389 24.7786C4.06845 24.833 4.06211 24.8874 4.05667 24.9426C4.04216 25.0949 4.02857 25.2481 4.01588 25.4013C4.01588 25.4331 4.01044 25.4639 4.00863 25.492C3.99533 25.6733 3.98355 25.8561 3.97327 26.0404C3.97327 26.0884 3.97327 26.1374 3.96693 26.1854C3.96088 26.328 3.95544 26.4704 3.95061 26.6124C3.95061 26.6659 3.95061 26.7193 3.95061 26.7728C3.95061 26.9586 3.94336 27.1454 3.94336 27.3321C3.94336 27.3321 3.94336 27.3385 3.94336 27.3412C3.94336 27.5424 3.94336 27.7418 3.95061 27.9413C3.95061 28.0101 3.95605 28.079 3.95786 28.1479C3.96239 28.2812 3.96693 28.4144 3.97327 28.5477C3.97327 28.6284 3.98324 28.7081 3.98778 28.7888C3.99503 28.9094 4.00137 29.0299 4.01044 29.1514C4.01678 29.242 4.02494 29.3227 4.03219 29.4079C4.04216 29.5221 4.05123 29.6364 4.06301 29.7497C4.07117 29.8403 4.08205 29.9255 4.09111 30.0135C4.1038 30.1231 4.11559 30.2337 4.12918 30.3434C4.14006 30.434 4.15275 30.5247 4.16454 30.6108C4.17904 30.7178 4.19354 30.8256 4.20986 30.9326C4.22346 31.0233 4.23796 31.1139 4.25246 31.2045C4.26878 31.3097 4.286 31.4158 4.30413 31.5209C4.32045 31.6116 4.33677 31.7022 4.35399 31.7928C4.37303 31.8971 4.39297 32.0013 4.41291 32.1047C4.43285 32.208 4.45008 32.286 4.46911 32.3766C4.49087 32.48 4.51262 32.5824 4.53619 32.6848C4.55976 32.7872 4.57608 32.8661 4.59783 32.9504C4.6214 33.0528 4.64678 33.1544 4.67216 33.255C4.69754 33.3556 4.71658 33.4318 4.73924 33.5188C4.76643 33.6203 4.79363 33.7209 4.82173 33.8215C4.8453 33.9122 4.86977 33.9956 4.89515 34.0817C4.92416 34.1823 4.95407 34.282 4.9858 34.3817C5.01753 34.4814 5.03838 34.5531 5.06557 34.6392C5.09276 34.7253 5.12902 34.8377 5.16166 34.9365C5.19429 35.0353 5.21786 35.106 5.24686 35.1903C5.28131 35.2891 5.31576 35.3879 5.35111 35.4867C5.38102 35.5692 5.41003 35.6526 5.44176 35.7351L5.55416 36.0315C5.58588 36.1122 5.6167 36.1938 5.6448 36.2744C5.68469 36.3732 5.72548 36.473 5.76627 36.5718C5.79891 36.6497 5.83063 36.7286 5.86417 36.8065C5.90677 36.9081 5.95482 37.0078 5.99561 37.1084C6.02915 37.1827 6.06178 37.258 6.09532 37.3323C6.14246 37.4374 6.19231 37.5408 6.24036 37.6441L6.33825 37.8526C6.39355 37.9668 6.45066 38.0792 6.50777 38.1925C6.53677 38.2496 6.56397 38.3077 6.59388 38.3648C6.76792 38.7038 6.94922 39.0383 7.13776 39.3682C7.16405 39.4108 7.19759 39.4661 7.23022 39.5214Z" fill="#F3AB98"/>
<path d="M3.93459 27.3314C3.93459 13.9772 14.7606 3.15125 28.1147 3.15125C41.4688 3.15125 52.2948 13.9772 52.2948 27.3314C52.2982 30.9295 51.497 34.4829 49.9498 37.7314C48.4025 40.9799 46.1484 43.8413 43.3525 46.1062C42.8563 46.5099 42.3445 46.8933 41.8169 47.2565C36.3636 50.7183 29.4744 50.7183 23.2551 50.1645C22.6514 50.0738 22.0495 49.9596 21.4521 49.8281C19.0654 49.3024 16.7548 48.4911 14.6201 47.3082C14.0925 46.983 13.581 46.6319 13.0854 46.2548C12.5873 45.8756 12.1093 45.4708 11.6532 45.042C11.2217 44.6413 10.805 44.2249 10.4032 43.7929C6.23858 39.3238 3.92654 33.44 3.93459 27.3314V27.3314Z" stroke="#592D3D" stroke-width="1.08776" stroke-miterlimit="10"/>
<path d="M17.7917 50.7836C9.56367 50.7836 11.2651 61.1391 11.1863 72.6549H17.7917V50.7836Z" fill="#FDD2B2"/>
<path d="M16.0791 57.4137L18.1432 60.8701L17.1107 72.6542H14.2345C14.1611 56.3132 16.0791 57.4137 16.0791 57.4137Z" fill="#F3AB98"/>
<path d="M38.9441 79.0002H17.2849C16.9658 79 16.6599 78.873 16.4343 78.6473C16.2087 78.4216 16.082 78.1155 16.082 77.7964V51.9874C16.082 51.6683 16.2087 51.3622 16.4343 51.1365C16.6599 50.9107 16.9658 50.7838 17.2849 50.7836H38.4265C39.6131 50.7836 40.1488 51.4779 40.1488 52.5856V77.7928C40.1493 77.9512 40.1185 78.1082 40.0582 78.2548C39.9978 78.4013 39.9091 78.5345 39.7972 78.6466C39.6853 78.7588 39.5523 78.8478 39.4059 78.9085C39.2595 78.9691 39.1026 79.0003 38.9441 79.0002Z" fill="#FDD2B2"/>
<path d="M39.8125 51.4996C39.7222 51.3885 39.6457 51.2667 39.585 51.137C39.3674 50.9665 39.1084 50.8567 38.8344 50.8189C38.6995 50.798 38.5631 50.7877 38.4265 50.788H17.2849C16.9666 50.7883 16.6613 50.9146 16.4359 51.1393C16.2105 51.3641 16.0832 51.669 16.082 51.9873C18.7108 52.9318 23.632 53.4594 28.1145 53.4594C33.8307 53.4594 37.5763 52.6119 39.8125 51.4996Z" fill="#F3AB98"/>
<path d="M38.085 50.7836C46.3121 50.7836 44.6116 61.1391 44.6904 72.6549H40.1463" stroke="#592D3D" stroke-width="1.08776" stroke-miterlimit="10" stroke-linecap="square"/>
<path d="M17.7917 50.7836C9.56367 50.7836 11.2651 61.1391 11.1863 72.6549H15.725" stroke="#592D3D" stroke-width="1.08776" stroke-miterlimit="10" stroke-linecap="square"/>
<path d="M17.2852 50.7926L38.4268 50.7836" stroke="#592D3D" stroke-width="1.08776" stroke-miterlimit="10"/>
<path d="M17.2849 78.9998H27.8562C17.9621 78.9998 18.709 58.044 16.082 58.044V77.7924C16.0816 77.9507 16.1123 78.1075 16.1725 78.2539C16.2328 78.4004 16.3213 78.5335 16.433 78.6456C16.5447 78.7578 16.6775 78.8468 16.8237 78.9076C16.9699 78.9683 17.1266 78.9997 17.2849 78.9998Z" fill="#F3AB98"/>
<path d="M15.5383 60.0417C15.5211 59.709 15.5284 59.3763 15.5429 59.0446C15.5574 58.7128 15.5855 58.3783 15.6208 58.0474C15.639 57.8806 15.6571 57.7148 15.6798 57.548C15.7024 57.3812 15.7242 57.2153 15.7568 57.0485C15.8211 56.7033 15.9305 56.3681 16.0822 56.0514C16.234 56.3681 16.3434 56.7033 16.4077 57.0485C16.4403 57.2153 16.4639 57.3812 16.4847 57.548C16.5056 57.7148 16.5255 57.8806 16.5436 58.0474C16.5781 58.3801 16.6053 58.7128 16.6207 59.0446C16.6361 59.3763 16.6433 59.7099 16.6261 60.0417H15.5383Z" fill="#592D3D"/>
<path d="M40.1474 60.8705V61.5957C40.171 64.6777 40.171 67.8503 40.1474 70.9097C40.1474 71.1698 40.1474 71.4282 40.1474 71.6829V77.7934C40.1478 77.9516 40.1169 78.1084 40.0566 78.2547C39.9964 78.401 39.9078 78.534 39.7961 78.646C39.6844 78.7581 39.5517 78.847 39.4055 78.9078C39.2594 78.9685 39.1028 78.9998 38.9445 78.9999H17.2853C16.9662 78.9997 16.6602 78.8727 16.4347 78.647C16.2091 78.4213 16.0824 78.1152 16.0824 77.7961V72.5205C16.0824 72.2929 16.0824 72.0609 16.0824 71.827C16.0598 68.6661 16.0598 65.4935 16.0824 62.2819V60.0411" stroke="#592D3D" stroke-width="1.08776" stroke-miterlimit="10"/>
<path d="M39.6025 60.8703C39.5853 60.4923 39.5934 60.1134 39.6079 59.7344C39.6224 59.3555 39.6505 58.9775 39.685 58.5986C39.7031 58.4092 39.7221 58.2197 39.7439 58.0303C39.7656 57.8408 39.7883 57.6523 39.8209 57.4628C39.8841 57.0727 39.9933 56.6914 40.1464 56.327C40.2994 56.6914 40.4086 57.0727 40.4718 57.4628C40.5044 57.6523 40.528 57.8417 40.5488 58.0303C40.5697 58.2188 40.5896 58.4092 40.6078 58.5986C40.6422 58.9775 40.6703 59.3555 40.6848 59.7344C40.6993 60.1134 40.7075 60.4923 40.6902 60.8703H39.6025Z" fill="#592D3D"/>
<path d="M28.3018 61.6741C28.3017 62.6239 28.0862 63.5612 27.6716 64.4156C27.257 65.2701 26.6541 66.0194 25.9082 66.6073C25.1623 67.1952 24.2928 67.6064 23.3652 67.8099C22.4375 68.0133 21.4758 68.0039 20.5523 67.7821C19.6288 67.5604 18.7676 67.1322 18.0334 66.5297C17.2993 65.9272 16.7113 65.1661 16.3136 64.3037C15.9159 63.4412 15.719 62.4998 15.7375 61.5503C15.7561 60.6007 15.9897 59.6677 16.4207 58.8215" stroke="#592D3D" stroke-width="1.08776" stroke-miterlimit="10"/>
<path d="M16.4209 58.8212C16.7642 58.1505 17.2247 57.5466 17.7806 57.0381L16.4209 58.8212Z" fill="#FDD2B2"/>
<path d="M15.9355 58.5735C16.0151 58.3849 16.1181 58.207 16.2419 58.0441C16.3648 57.8809 16.5022 57.7292 16.6526 57.5908C16.7287 57.5219 16.8058 57.4549 16.8864 57.3923C16.9665 57.3275 17.0517 57.2693 17.1412 57.2183C17.3346 57.1067 17.5525 57.0444 17.7757 57.037C17.7522 57.2492 17.6987 57.457 17.6171 57.6543C17.5817 57.7449 17.5418 57.8247 17.5001 57.9054L17.3823 58.1474C17.3052 58.307 17.2291 58.4638 17.1511 58.6179C17.0757 58.7732 16.9922 58.9245 16.9009 59.0711L15.9355 58.5735Z" fill="#592D3D"/>
<path d="M27.1475 58.044C27.8997 59.1034 28.3033 60.3707 28.3023 61.6699L27.1475 58.044Z" fill="#FDD2B2"/>
<path d="M27.1475 58.044C27.4569 58.2118 27.7258 58.4454 27.9352 58.7284C28.0394 58.866 28.1333 59.0112 28.2162 59.1626C28.3005 59.314 28.3766 59.4699 28.4473 59.6294C28.5865 59.9499 28.6916 60.2841 28.761 60.6265C28.8314 60.9702 28.86 61.3212 28.8462 61.6717H27.7584C27.7412 61.3771 27.7258 61.0843 27.695 60.7897C27.6642 60.4951 27.6252 60.2023 27.5681 59.9068L27.5227 59.6856L27.4702 59.4635C27.4321 59.3158 27.3913 59.168 27.3532 59.0166C27.2676 58.6963 27.1989 58.3716 27.1475 58.044Z" fill="#592D3D"/>
<path d="M40.9546 61.6732C40.9556 60.8131 40.7795 59.9621 40.4374 59.173C40.0952 58.3839 39.5943 57.6736 38.9658 57.0865" fill="#FDD2B2"/>
<path d="M40.4107 61.6737C40.3962 61.2831 40.358 60.8939 40.2965 60.5079C40.2329 60.1182 40.1384 59.7341 40.0137 59.3594C39.9829 59.2688 39.9466 59.1718 39.9131 59.0775C39.8795 58.9832 39.8369 58.8917 39.7998 58.7974C39.7626 58.7032 39.7146 58.6161 39.6747 58.521L39.5423 58.249C39.361 57.8774 39.1643 57.5066 38.9658 57.0933C39.3859 57.2725 39.7634 57.5384 40.0735 57.8737C40.1488 57.9589 40.2276 58.0423 40.2974 58.1321C40.3672 58.2218 40.437 58.3134 40.5014 58.404C40.5657 58.4947 40.631 58.5935 40.689 58.6923C40.747 58.7911 40.8078 58.8899 40.8594 58.9932C41.0752 59.4032 41.2396 59.8383 41.3489 60.2886C41.4606 60.7414 41.51 61.2074 41.4958 61.6737H40.4107Z" fill="#592D3D"/>
<path d="M28.3862 61.6736C28.3762 62.505 28.5313 63.3301 28.8426 64.101C29.1538 64.872 29.615 65.5735 30.1993 66.1649C30.7837 66.7563 31.4796 67.2259 32.2468 67.5464C33.0139 67.8668 33.8371 68.0319 34.6685 68.0319C35.4999 68.0319 36.323 67.8668 37.0902 67.5464C37.8574 67.2259 38.5533 66.7563 39.1377 66.1649C39.722 65.5735 40.1832 64.872 40.4944 64.101C40.8057 63.3301 40.9608 62.505 40.9508 61.6736" stroke="#592D3D" stroke-width="1.08776" stroke-miterlimit="10"/>
<path d="M29.5436 58.044C28.7917 59.1035 28.3884 60.3708 28.3897 61.6699L29.5436 58.044Z" fill="#FDD2B2"/>
<path d="M29.5441 58.044C29.4927 58.3722 29.424 58.6975 29.3383 59.0185C29.3002 59.1698 29.2594 59.3176 29.2214 59.4654L29.1697 59.6874L29.1244 59.9086C29.0673 60.2041 29.0256 60.4978 28.9966 60.7915C28.9676 61.0852 28.9512 61.3789 28.934 61.6735H27.8426C27.8279 61.3229 27.8565 60.9719 27.9278 60.6284C27.9968 60.2858 28.102 59.9516 28.2415 59.6312C28.3113 59.4717 28.3874 59.3158 28.4717 59.1644C28.5549 59.0132 28.6488 58.8681 28.7527 58.7302C28.9632 58.4464 29.2333 58.2121 29.5441 58.044Z" fill="#592D3D"/>
<path d="M17.5479 57.9293V50.7836" stroke="#592D3D" stroke-width="1.08776" stroke-miterlimit="10"/>
<path d="M38.6719 57.9293V50.7836" stroke="#592D3D" stroke-width="1.08776" stroke-miterlimit="10"/>
<path d="M25.4395 63.3884H30.3253V65.1741C28.7173 64.6257 27.0883 64.6393 25.4395 65.1741V63.3884Z" fill="#D67070" stroke="#592D3D" stroke-width="1.08776" stroke-miterlimit="10"/>
<path d="M40.6324 61.6732C40.6346 60.0819 40.0308 58.5494 38.9436 57.3874C38.5611 56.9776 34.9307 57.9485 32.7968 59.8584C30.702 61.7339 28.8782 64.7978 29.1392 65.1839C29.8912 66.3 30.9818 67.1452 32.2502 67.5949C33.5187 68.0446 34.898 68.0751 36.1851 67.6819C37.4722 67.2888 38.599 66.4927 39.3996 65.411C40.2003 64.3292 40.6324 63.019 40.6324 61.6732Z" fill="#D67070" stroke="#592D3D" stroke-width="1.08776" stroke-miterlimit="10"/>
<path d="M37.0084 58.9114C36.4537 59.2441 35.9071 59.5623 35.3768 59.9086C34.8534 60.243 34.3529 60.6119 33.8784 61.0126C33.4116 61.4169 32.9619 61.8575 32.5187 62.3053C32.0754 62.7531 31.6403 63.2117 31.1816 63.6713C31.4598 63.0877 31.7995 62.5356 32.1951 62.0243C32.59 61.505 33.0368 61.0272 33.5285 60.5984C34.0288 60.1749 34.5814 59.8176 35.1728 59.5351C35.7554 59.2493 36.3723 59.0397 37.0084 58.9114Z" fill="white"/>
<path d="M15.5957 61.6732C15.5934 60.0819 16.1973 58.5494 17.2845 57.3874C17.667 56.9776 21.2974 57.9485 23.4312 59.8584C25.5261 61.7339 27.3499 64.7978 27.0889 65.1839C26.3368 66.3 25.2463 67.1452 23.9779 67.5949C22.7094 68.0446 21.3301 68.0751 20.043 67.6819C18.7559 67.2888 17.6291 66.4927 16.8284 65.411C16.0278 64.3292 15.5957 63.019 15.5957 61.6732Z" fill="#D67070" stroke="#592D3D" stroke-width="1.08776" stroke-miterlimit="10"/>
<path d="M24.104 67.118C22.0519 67.118 20.0838 66.3028 18.6327 64.8517C17.1816 63.4006 16.3664 61.4325 16.3664 59.3804C16.3664 59.1167 16.3797 58.8532 16.4063 58.5908C15.7247 59.8008 15.4633 61.2025 15.6629 62.5769C15.8624 63.9512 16.5117 65.2207 17.5092 66.1869C18.5067 67.1531 19.7962 67.7616 21.1762 67.9173C22.5561 68.073 23.9488 67.767 25.1365 67.0473C24.7943 67.0938 24.4494 67.1174 24.104 67.118Z" fill="#C46565"/>
<path d="M15.5957 61.6732C15.5934 60.0819 16.1973 58.5494 17.2845 57.3874C17.667 56.9776 21.2974 57.9485 23.4312 59.8584C25.5261 61.7339 27.3499 64.7978 27.0889 65.1839C26.3368 66.3 25.2463 67.1452 23.9779 67.5949C22.7094 68.0446 21.3301 68.0751 20.043 67.6819C18.7559 67.2888 17.6291 66.4927 16.8284 65.411C16.0278 64.3292 15.5957 63.019 15.5957 61.6732V61.6732Z" stroke="#592D3D" stroke-width="1.08776" stroke-miterlimit="10"/>
<path d="M19.2217 58.9114C19.8577 59.0394 20.4747 59.2487 21.0573 59.5342C21.6487 59.817 22.2014 60.1746 22.7016 60.5984C23.1913 61.0269 23.6363 61.504 24.0296 62.0224C24.4252 62.5338 24.7649 63.0859 25.043 63.6695C24.5844 63.2163 24.1511 62.7512 23.706 62.3035C23.2609 61.8557 22.814 61.4151 22.3463 61.0108C21.8718 60.61 21.3712 60.2412 20.8479 59.9067C20.3194 59.5623 19.7755 59.2441 19.2217 58.9114Z" fill="white"/>
<path d="M32.4512 58.8746L28.6322 55.7591L35.3972 50.7925H20.8303L27.5952 55.7591L23.7763 58.8746L20.3652 53.7531V60.8671H36.1614V53.3035L32.4512 58.8746Z" fill="#F3AB98"/>
<path d="M38.6901 50.7329L34.8168 50.742C34.7967 51.1514 34.7535 51.5594 34.6872 51.9639C34.6445 52.1581 34.5919 52.3499 34.5294 52.5386C34.3173 53.1269 32.9649 53.6264 32.5814 54.0551C32.4544 54.1978 32.3181 54.3319 32.1735 54.4567C29.8919 56.1065 26.2661 56.1971 24.0624 54.4041C23.8248 54.1966 23.6088 53.9655 23.4179 53.7143C23.0345 53.2103 21.9313 52.6637 21.7772 51.9974C21.7335 51.8003 21.7008 51.6009 21.6793 51.4001C21.6574 51.1953 21.6465 50.9896 21.6467 50.7837L17.5485 50.7329C17.2294 50.7329 16.9234 50.8596 16.6976 51.0852C16.4719 51.3107 16.345 51.6167 16.3447 51.9358V77.7421C16.345 78.0612 16.4719 78.3672 16.6976 78.5927C16.9234 78.8183 17.2294 78.945 17.5485 78.945H39.2068C39.5259 78.945 39.8318 78.8183 40.0574 78.5927C40.283 78.3671 40.4097 78.0611 40.4097 77.7421V52.5314C40.4097 51.4273 39.8767 50.7329 38.6901 50.7329Z" fill="white"/>
<path d="M38.3428 50.7329C44.1025 50.7329 46.3668 54.6661 45.4948 75.3889C43.7961 75.9963 40.4267 75.805 40.4267 75.805L38.3428 50.7329Z" fill="white"/>
<path d="M23.6777 59.5471L28.0696 57.3634L32.4732 59.5471L29.1138 55.6475L25.1353 55.7227L23.6777 59.5471Z" fill="#E2E2E2"/>
<path d="M40.4082 57.3631C40.4082 57.3631 38.3423 65.0264 38.6578 78.5745L41.6682 75.7644L41.9927 63.2932C41.4832 56.7458 40.4082 57.3631 40.4082 57.3631Z" fill="#E2E2E2"/>
<path d="M18.0528 50.7329C12.4527 50.7329 9.99614 55.8499 10.7331 72.985C12.7654 73.8833 15.8266 73.4908 15.8266 73.4908L18.0528 50.7329Z" fill="white"/>
<path d="M10.6143 68.8015C10.63 70.0379 10.6665 71.3517 10.7239 72.7428C12.1081 72.809 14.6843 72.8226 15.9008 72.7428L16.2797 68.8622C15.3034 68.748 12.1299 68.7108 10.6143 68.8015Z" fill="#E2E2E2"/>
<path d="M16.341 57.3633L16.2957 73.4704L15.0856 73.5519C14.8164 60.041 16.341 57.3633 16.341 57.3633Z" fill="#E2E2E2"/>
<path d="M38.3428 50.7329C44.4542 50.7329 45.454 55.8345 45.4948 62.8597V75.3889C45.4948 75.3889 40.9625 75.8902 40.4267 75.805L40.4177 62.9231" stroke="#592D3D" stroke-width="1.08776" stroke-miterlimit="10" stroke-linecap="square"/>
<path d="M18.0525 50.7329C15.7201 50.7329 14.1075 51.469 13.0025 52.767C11.2394 54.8401 10.7699 58.3455 10.7363 62.5814V73.8008C11.8295 74.1017 16.2984 73.4708 16.2984 73.4708L16.3429 62.7201" stroke="#592D3D" stroke-width="1.08776" stroke-miterlimit="10" stroke-linecap="square"/>
<path d="M16.5664 73.6735C16.4005 73.9101 9.87934 73.8476 9.79775 73.6735C9.71617 73.4995 9.59924 70.2742 9.79775 69.957C9.96092 69.6959 16.3343 69.7512 16.5664 69.957C16.7984 70.1628 16.7323 73.4369 16.5664 73.6735Z" fill="white" stroke="#592D3D" stroke-width="1.08776" stroke-miterlimit="10" stroke-linecap="square"/>
<path d="M17.5473 78.9444H28.114C18.2162 78.9444 18.9668 57.9922 16.3398 57.9922V77.7415C16.34 77.8998 16.3713 78.0566 16.4321 78.2028C16.4929 78.3489 16.5819 78.4817 16.694 78.5934C16.8062 78.7052 16.9393 78.7937 17.0857 78.8539C17.2321 78.9141 17.389 78.9449 17.5473 78.9444Z" fill="#E2E2E2"/>
<path d="M15.8 59.9901C15.7828 59.6574 15.79 59.3238 15.8054 58.993C15.8209 58.6621 15.848 58.3276 15.8825 57.9959C15.9006 57.83 15.9197 57.6632 15.9414 57.4964C15.9632 57.3296 15.9858 57.1637 16.0185 56.9979C16.0826 56.6526 16.192 56.3174 16.3439 56.0007C16.4957 56.3174 16.6052 56.6526 16.6693 56.9979C16.7019 57.1637 16.7255 57.3305 16.7464 57.4964C16.7672 57.6623 16.7872 57.83 16.8053 57.9959C16.8403 58.3295 16.8663 58.6618 16.8832 58.993C16.8977 59.3257 16.905 59.6592 16.8832 59.9901H15.8Z" fill="#592D3D"/>
<path d="M40.4088 60.8163V61.5415C40.4324 64.6235 40.4324 67.7961 40.4088 70.8563C40.4088 71.1165 40.4088 71.3748 40.4088 71.6296V77.7401C40.4088 78.0591 40.2821 78.3651 40.0565 78.5907C39.8309 78.8162 39.525 78.943 39.2059 78.943H17.5476C17.2285 78.943 16.9225 78.8163 16.6968 78.5907C16.471 78.3651 16.3441 78.0592 16.3438 77.7401V71.7755C16.3203 68.6155 16.3203 65.4429 16.3438 62.2304V59.9905" stroke="#592D3D" stroke-width="1.08776" stroke-miterlimit="10"/>
<path d="M46.0097 69.9569C46.2109 70.1618 46.1538 73.4369 46.0097 73.6735C45.8655 73.9101 40.2083 73.8475 40.1385 73.6735C40.0687 73.4994 39.9662 70.2742 40.1385 69.9569C40.1629 69.9116 40.3451 69.8763 40.6325 69.85" fill="white"/>
<path d="M46.0097 69.9569C46.2109 70.1618 46.1538 73.4369 46.0097 73.6735C45.8655 73.9101 40.2083 73.8475 40.1385 73.6735C40.0687 73.4994 39.9662 70.2742 40.1385 69.9569C40.1629 69.9116 40.3451 69.8763 40.6325 69.85" stroke="#592D3D" stroke-width="1.08776" stroke-miterlimit="10" stroke-linecap="square"/>
<path d="M44.333 69.7817C44.6775 69.8089 45.6927 69.6747 45.7308 69.7128L44.333 69.7817Z" fill="white"/>
<path d="M44.333 69.781C44.3858 69.7124 44.4427 69.647 44.5034 69.5852C44.5529 69.5358 44.6069 69.4912 44.6648 69.452C44.7169 69.4174 44.7718 69.3871 44.8289 69.3613C44.8841 69.335 44.9394 69.3124 44.9947 69.2897C45.1061 69.2447 45.221 69.2089 45.3383 69.1828C45.3981 69.1695 45.4586 69.1602 45.5196 69.1547C45.5522 69.1547 45.5858 69.1547 45.6256 69.1547C45.6483 69.1547 45.6673 69.1547 45.7 69.1547C45.7108 69.1547 45.7399 69.1547 45.7643 69.161H45.7961L45.8405 69.171L45.8631 69.1764L45.8813 69.1819L45.9329 69.2009C46.0007 69.2305 46.0622 69.2726 46.1142 69.3251L46.4949 69.714L45.7108 70.4826L45.3374 70.0865C45.3863 70.1378 45.4452 70.1785 45.5105 70.2062C45.5268 70.2134 45.5431 70.2189 45.5595 70.2243H45.5749L45.5921 70.2288C45.6033 70.2325 45.6149 70.2352 45.6265 70.237H45.6438C45.6528 70.237 45.6673 70.237 45.6637 70.237C45.6601 70.237 45.6574 70.237 45.6501 70.237H45.5821C45.5305 70.237 45.4743 70.237 45.4171 70.237C45.2977 70.2299 45.1789 70.2139 45.0618 70.1889C45.0011 70.1753 44.9403 70.1618 44.8805 70.1445C44.8184 70.1279 44.7577 70.1061 44.6992 70.0793C44.6317 70.0473 44.5684 70.0071 44.5107 69.9596C44.4417 69.9106 44.3816 69.8502 44.333 69.781Z" fill="#592D3D"/>
<path d="M36.5001 51.2291L29.7314 56.1975L33.5513 59.314L38.9376 51.2246L36.5001 51.2291Z" fill="#E2E2E2"/>
<path d="M39.8652 60.8161C39.8479 60.4371 39.8561 60.0582 39.8706 59.6802C39.8851 59.3022 39.9132 58.9224 39.9486 58.5444C39.9667 58.355 39.9848 58.1655 40.0066 57.9761C40.0283 57.7866 40.051 57.5972 40.0845 57.4077C40.1472 57.0176 40.2561 56.6363 40.4091 56.2719C40.5627 56.6361 40.6719 57.0174 40.7345 57.4077C40.7671 57.5972 40.7916 57.7866 40.8115 57.9761C40.8315 58.1655 40.8523 58.355 40.8704 58.5444C40.9058 58.9224 40.933 59.3013 40.9475 59.6802C40.962 60.0591 40.9711 60.4371 40.9529 60.8161H39.8652Z" fill="#592D3D"/>
<path d="M17.5479 50.742L38.6895 50.7329" stroke="#592D3D" stroke-width="1.08776" stroke-miterlimit="10"/>
<path d="M30.7776 57.7479L28.7516 55.7228L26.7266 57.7479L27.7219 58.7432L26.8408 68.4089L28.7208 69.8747L30.6625 68.4089L29.7823 58.7432L30.7776 57.7479Z" fill="#E2E2E2"/>
<path d="M28.1182 55.7228V78.9448" stroke="#592D3D" stroke-width="0.543882" stroke-miterlimit="10" stroke-linecap="square"/>
<path d="M28.1188 55.7228L30.1448 57.1134L28.1188 59.1393L26.0938 57.1134L28.1188 55.7228Z" fill="#D67070"/>
<path d="M20.8281 50.7907C20.8281 50.7907 24.7504 54.3568 27.5958 55.7591C26.2107 58.0443 23.7768 58.8765 23.7768 58.8765L18.3896 50.788L20.8281 50.7907Z" fill="white" stroke="#592D3D" stroke-width="1.08776" stroke-miterlimit="10"/>
<path d="M35.4005 50.7903C35.4005 50.7903 31.8308 54.525 28.6328 55.7587C29.5393 57.597 32.4518 58.8742 32.4518 58.8742L37.8389 50.7858L35.4005 50.7903Z" fill="white" stroke="#592D3D" stroke-width="1.08776" stroke-miterlimit="10"/>
<path d="M26.207 67.7747L28.0871 69.2405L30.0287 67.7747L29.1222 57.8235H27.1135L26.207 67.7747Z" fill="#D67070"/>
<path d="M26.0938 57.1135L27.0891 58.1088L26.208 67.7745L28.088 69.2403L30.0296 67.7745L29.1495 58.1088L30.1448 57.1135" stroke="#592D3D" stroke-width="0.725177" stroke-miterlimit="10"/>
<path d="M40.6328 69.85C41.3136 69.7857 42.5826 69.7694 43.7148 69.7893L40.6328 69.85Z" fill="white"/>
<path d="M40.5818 69.3079C40.8472 69.2705 41.1153 69.2562 41.3832 69.2653C41.646 69.2716 41.9071 69.2925 42.1682 69.3242C42.2978 69.3405 42.4283 69.3577 42.5579 69.3795C42.6888 69.3986 42.8186 69.4243 42.9468 69.4566C43.2206 69.5232 43.4811 69.6356 43.7173 69.7892C43.4777 69.9339 43.2172 70.0409 42.945 70.1065C42.8172 70.1391 42.6894 70.1636 42.5616 70.1845C42.4338 70.2053 42.3068 70.2271 42.1799 70.247C41.9261 70.2851 41.6732 70.3177 41.423 70.3376C41.1729 70.3576 40.9227 70.383 40.6834 70.3866L40.1395 70.3957L40.0488 69.3868L40.5818 69.3079Z" fill="#592D3D"/>
<path d="M29.5445 71.5426C29.7848 71.5426 29.9796 71.3478 29.9796 71.1075C29.9796 70.8672 29.7848 70.6724 29.5445 70.6724C29.3042 70.6724 29.1094 70.8672 29.1094 71.1075C29.1094 71.3478 29.3042 71.5426 29.5445 71.5426Z" fill="#592D3D"/>
<path d="M27.2888 57.8056C27.2843 57.8002 27.2888 57.8056 27.2888 57.8056L27.2951 57.8102C27.3007 57.8132 27.3059 57.8168 27.3105 57.821L27.345 57.8473C27.3677 57.8664 27.3921 57.8854 27.4157 57.9063C27.4637 57.947 27.5145 57.9906 27.5698 58.0323C27.6251 58.074 27.6849 58.1138 27.7511 58.161C27.8375 58.226 27.9196 58.2965 27.9967 58.3722C27.9321 58.4777 27.8312 58.556 27.713 58.5925C27.604 58.6228 27.4899 58.6311 27.3776 58.6169C27.2636 58.6059 27.1522 58.5752 27.0486 58.5263C26.9958 58.5011 26.9457 58.4707 26.899 58.4356C26.8747 58.4179 26.8514 58.3989 26.8292 58.3785C26.8183 58.3686 26.8066 58.3577 26.7957 58.3459L26.7775 58.3269L26.7549 58.3006L27.2888 57.8056Z" fill="#592D3D"/>
<path opacity="0.1" d="M21.4866 69.1767C22.7988 69.1765 24.078 68.7656 25.1448 68.0015C26.2116 67.2374 27.0124 66.1586 27.4349 64.9163C26.8986 65.8337 26.1435 66.604 25.237 67.1585C24.3304 67.713 23.3007 68.0343 22.2397 68.094C21.1788 68.1536 20.1195 67.9495 19.1566 67.5001C18.1937 67.0506 17.357 66.3697 16.7213 65.5182L16.7168 66.8534C17.8716 68.2702 19.5169 69.1767 21.4866 69.1767Z" fill="black"/>
<path opacity="0.1" d="M34.7422 69.1767C33.43 69.1765 32.1508 68.7656 31.084 68.0015C30.0173 67.2374 29.2164 66.1586 28.7939 64.9163C29.3303 65.8337 30.0854 66.604 30.9919 67.1585C31.8984 67.713 32.9281 68.0343 33.9891 68.094C35.0501 68.1536 36.1093 67.9495 37.0723 67.5001C38.0352 67.0506 38.8718 66.3697 39.5075 65.5182V66.8525C38.3572 68.2702 36.712 69.1767 34.7422 69.1767Z" fill="black"/>
<path d="M19.6847 67.5617C18.7174 67.2007 17.8539 66.6069 17.1707 65.8329C16.4874 65.0588 16.0054 64.1283 15.7672 63.1237C15.529 62.1191 15.542 61.0712 15.805 60.0728C16.0681 59.0744 16.573 58.1562 17.2753 57.3993" fill="white"/>
<path d="M19.6844 67.561C18.6127 67.3861 17.623 66.8787 16.8553 66.1107L16.7085 65.9656C16.6604 65.9167 16.6178 65.8632 16.5698 65.8124C16.5217 65.7617 16.4791 65.7082 16.4356 65.6556C16.3896 65.6038 16.3464 65.5497 16.306 65.4934C16.2244 65.3819 16.1419 65.2704 16.0631 65.1562L15.8482 64.7999C15.5771 64.3118 15.3725 63.7896 15.24 63.2471C15.1168 62.7032 15.0653 62.1455 15.0868 61.5883C15.1115 61.0346 15.2153 60.4873 15.395 59.963C15.4186 59.8986 15.4394 59.8334 15.4639 59.769L15.5437 59.5786C15.5935 59.4517 15.6579 59.3303 15.7168 59.2079C15.8428 58.9671 15.9864 58.7359 16.1465 58.5163C16.2235 58.4066 16.3114 58.3032 16.3957 58.1999C16.48 58.0966 16.5716 57.9978 16.6677 57.9071C16.8551 57.7199 17.0593 57.5502 17.2777 57.4004C16.7529 58.3069 16.3803 59.2306 16.2208 60.1805C16.1378 60.6474 16.102 61.1215 16.1138 61.5955C16.1313 62.0657 16.192 62.5333 16.2951 62.9924C16.4069 63.4489 16.5623 63.8936 16.7592 64.3204C16.9607 64.7515 17.2061 65.1607 17.4917 65.5414C17.7805 65.9349 18.1089 66.2979 18.4716 66.6246C18.8523 66.9661 19.2577 67.2791 19.6844 67.561Z" fill="#592D3D"/>
<path d="M36.5498 67.5617C37.5168 67.2002 38.3798 66.6061 39.0626 65.8318C39.7453 65.0575 40.2269 64.127 40.4646 63.1224C40.7023 62.1178 40.6889 61.0701 40.4256 60.0719C40.1622 59.0738 39.657 58.1558 38.9547 57.3993" fill="white"/>
<path d="M36.5498 67.5617C36.9755 67.2808 37.3799 66.9691 37.7599 66.629C38.1226 66.3022 38.451 65.9393 38.7398 65.5457C39.0254 65.1651 39.2708 64.7559 39.4723 64.3247C39.6692 63.898 39.8246 63.4533 39.9364 62.9967C40.0395 62.5377 40.1002 62.0701 40.1177 61.5999C40.1308 61.1241 40.0958 60.6482 40.0134 60.1794C39.8539 59.2295 39.4813 58.3085 38.9565 57.3993C39.1749 57.5491 39.3792 57.7188 39.5665 57.906C39.6644 57.9967 39.7478 58.1 39.8385 58.1988C39.9291 58.2976 40.0107 58.4055 40.0878 58.5152C40.2478 58.7348 40.3915 58.966 40.5174 59.2068C40.5763 59.3292 40.6407 59.4506 40.6906 59.5775L40.7703 59.7679C40.7948 59.8323 40.8157 59.8975 40.8392 59.9619C41.019 60.4862 41.1227 61.0335 41.1474 61.5872C41.1689 62.1445 41.1174 62.7021 40.9942 63.246C40.8617 63.7885 40.6571 64.3107 40.386 64.7988L40.1712 65.1551C40.0923 65.2693 40.0098 65.3808 39.9282 65.4923C39.8879 65.5486 39.8446 65.6027 39.7986 65.6545C39.7542 65.7071 39.7079 65.7597 39.6644 65.8113C39.6209 65.863 39.5738 65.9156 39.5257 65.9645L39.3789 66.1096C38.6115 66.8783 37.6218 67.3863 36.5498 67.5617Z" fill="#592D3D"/>
<path d="M9.66736 33.9128V32.7407C9.52582 31.9734 9.58642 31.1824 9.84322 30.4455C9.92786 30.2052 10.0344 29.973 10.1614 29.7521C10.4651 28.9626 11.2809 28.328 12.0967 28.0561C13.3658 27.6935 14.9068 27.8748 15.9039 28.8719C17.1729 30.2316 16.9916 32.2259 17.0324 33.9137" stroke="#592D3D" stroke-width="1.08776" stroke-miterlimit="10" stroke-linecap="round"/>
<path d="M39.2925 33.9487C39.0804 31.5357 39.443 28.1818 42.5676 27.86C42.8124 27.8378 43.0588 27.8378 43.3036 27.86C44.0411 27.924 44.7458 28.1934 45.3378 28.6377C46.9694 29.9974 46.6068 32.1729 46.6023 33.9523" stroke="#592D3D" stroke-width="1.08776" stroke-miterlimit="10" stroke-linecap="round"/>
<path d="M33.4227 40.2428C33.0936 40.2428 32.9377 40.124 32.0104 39.2647C31.3314 38.6365 30.8655 38.3256 30.2963 38.2259C29.5865 38.1017 28.8613 38.1461 28.0881 38.922C27.3149 38.1461 26.5906 38.1062 25.8799 38.2259C25.3107 38.3256 24.8447 38.6365 24.1658 39.2647C23.2385 40.124 23.0826 40.2428 22.7535 40.2428C22.7206 40.2428 22.6883 40.2526 22.6609 40.271C22.6336 40.2893 22.6122 40.3153 22.5996 40.3458C22.587 40.3762 22.5837 40.4097 22.5901 40.4421C22.5965 40.4744 22.6124 40.5041 22.6357 40.5274C24.222 42.1137 26.0395 42.9078 28.0881 42.9096C30.1367 42.9114 31.9542 42.1174 33.5405 40.5274C33.5638 40.5041 33.5797 40.4744 33.5861 40.4421C33.5925 40.4097 33.5892 40.3762 33.5766 40.3458C33.564 40.3153 33.5426 40.2893 33.5152 40.271C33.4878 40.2526 33.4556 40.2428 33.4227 40.2428Z" fill="#DD3E3E"/>
<path d="M33.5151 40.5517L33.4652 40.3514C27.0692 41.8126 22.7535 40.3994 22.7535 40.3994L22.593 40.3713C22.586 40.3989 22.5862 40.4279 22.5937 40.4553C22.6011 40.4828 22.6156 40.5079 22.6356 40.5281C24.2219 42.1145 26.0394 42.9085 28.088 42.9103C30.1234 42.9103 31.9324 42.1241 33.5151 40.5517Z" fill="#C43333"/>
<path d="M26.2363 40.9637C27.4555 40.8785 28.6557 40.8332 29.8522 40.6918C30.4496 40.6229 31.0443 40.5341 31.6353 40.4325C32.2263 40.331 32.8137 40.2141 33.4038 40.0881L33.5253 40.6184C32.9288 40.7598 32.3269 40.8749 31.7196 40.9637C31.1122 41.0526 30.5031 41.1148 29.8921 41.1505C29.2803 41.184 28.6684 41.1994 28.0565 41.1749C27.4452 41.1527 26.8365 41.0821 26.2363 40.9637Z" fill="#592D3D"/>
<path d="M22.8385 40.1409C22.9916 40.1799 23.1621 40.2316 23.3261 40.2751C23.4902 40.3186 23.657 40.373 23.8238 40.4228C23.9906 40.4727 24.1574 40.5226 24.3242 40.5833C24.4976 40.6443 24.6636 40.7245 24.8191 40.8226C24.641 40.8751 24.4564 40.9026 24.2707 40.9042C24.0894 40.9042 23.9126 40.8897 23.7331 40.8752C23.5537 40.8607 23.3769 40.8326 23.2001 40.7981C23.0197 40.7652 22.8421 40.7182 22.6689 40.6576L22.8385 40.1409Z" fill="#592D3D"/>
<path d="M33.4214 40.243C33.0924 40.243 32.9364 40.1243 32.0091 39.265C31.3302 38.6368 30.8733 38.2416 30.295 38.2261C29.2788 38.199 28.5591 38.7809 28.0506 38.7809C27.542 38.7809 27.1033 38.0983 25.875 38.2261C25.3003 38.286 24.8399 38.6368 24.1609 39.265C23.2336 40.1243 23.0777 40.243 22.7486 40.243C22.7157 40.2431 22.6835 40.2529 22.6561 40.2712C22.6287 40.2895 22.6073 40.3156 22.5947 40.346C22.5821 40.3765 22.5788 40.41 22.5852 40.4423C22.5916 40.4747 22.6075 40.5044 22.6308 40.5277C24.2171 42.114 26.0346 42.9081 28.0832 42.9099C30.1318 42.9117 31.9493 42.1176 33.5356 40.5277C33.5587 40.5046 33.5745 40.4752 33.581 40.4432C33.5876 40.4112 33.5846 40.378 33.5724 40.3477C33.5603 40.3174 33.5395 40.2913 33.5126 40.2727C33.4858 40.2541 33.4541 40.2438 33.4214 40.243V40.243Z" stroke="#592D3D" stroke-width="0.725177" stroke-miterlimit="10"/>
<path d="M30.2961 38.7965C29.9164 38.8288 29.5438 38.9187 29.1911 39.063C29.0152 39.1328 28.8403 39.208 28.6608 39.2824C28.4769 39.3667 28.2802 39.42 28.0788 39.4401C27.9712 39.4419 27.8642 39.4222 27.7643 39.3821C27.6708 39.3461 27.58 39.3037 27.4924 39.2552C27.3284 39.1609 27.1595 39.0753 26.9865 38.9986C26.8135 38.9263 26.6329 38.8737 26.4481 38.8418C26.2596 38.8111 26.0689 38.796 25.8779 38.7965C26.0688 38.7584 26.2636 38.7438 26.4581 38.753C26.655 38.7649 26.8495 38.803 27.0364 38.8663C27.22 38.9322 27.3987 39.011 27.5712 39.102C27.7407 39.1872 27.9075 39.2679 28.0716 39.2597C28.2528 39.2411 28.4301 39.1949 28.5973 39.1228C28.7786 39.0585 28.9599 38.9859 29.1412 38.9297C29.5121 38.8026 29.906 38.7572 30.2961 38.7965Z" fill="white"/>
<path d="M25.6323 41.1421C25.9242 41.1421 25.9251 40.6889 25.6323 40.6889C25.3395 40.6889 25.3405 41.1421 25.6323 41.1421Z" fill="#592D3D"/>
<path d="M33.489 18.0253C32.3224 20.2009 28.0502 21.4192 27.703 20.8735C27.3132 20.2634 31.1331 15.8589 28.963 11.2522" fill="#F3AB98"/>
<path d="M50.4954 15.1591C46.5514 6.97453 37.7804 2.28717 28.3105 2.28717C16.4185 2.28717 5.33143 10.8986 3.35352 22.5685C3.35352 22.5685 21.7014 23.9573 28.3041 16.4589C29.1752 16.8859 42.4532 23.4941 50.4954 15.1591Z" fill="#A56941"/>
<path d="M28.31 3.14148C26.729 3.24914 25.1579 3.47121 23.609 3.80593L22.4596 4.0824C22.0789 4.18483 21.7018 4.29723 21.3229 4.4042L20.1998 4.76679C19.8291 4.89913 19.4629 5.03873 19.0939 5.17832C17.627 5.75458 16.2066 6.44281 14.8453 7.23692C13.4796 8.04146 12.1698 8.93727 10.9248 9.91826C12.038 8.76734 13.2785 7.74675 14.6223 6.87614C15.9673 5.99688 17.3992 5.25844 18.8954 4.67251C19.2734 4.53654 19.6496 4.39513 20.0285 4.26369C20.4128 4.14676 20.7936 4.01895 21.1797 3.91017C21.5659 3.8014 21.9575 3.71165 22.3482 3.61919C22.7388 3.52673 23.135 3.45966 23.5266 3.38986C25.1057 3.11932 26.7113 3.03595 28.31 3.14148Z" fill="#592D3D"/>
<path d="M31.4887 18.1586C30.5523 19.909 27.1231 20.8844 26.8449 20.442C26.5321 19.9526 29.5987 16.4155 27.8565 12.7171" fill="#A56941"/>
<path d="M4.55957 23.1914C4.55957 23.1914 21.381 23.942 28.1151 16.6648C27.6619 18.4342 26.6874 19.755 26.8651 20.0333C27.1271 20.4439 30.3097 19.5419 31.2307 17.9166C35.3605 19.6389 43.1489 21.6631 49.9176 16.4581" stroke="#592D3D" stroke-width="1.08776" stroke-miterlimit="10"/>
<path d="M37.259 23.7568C38.26 23.5017 39.274 23.3004 40.2966 23.154L40.0555 23.1858C41.2502 23.028 42.4613 22.9818 43.6587 23.1423L43.4176 23.1096C43.714 23.1513 44.0104 23.2003 44.3078 23.2383L44.0666 23.2057C44.969 23.3294 45.8618 23.5144 46.7389 23.7596C47.1921 23.8856 47.7451 23.6027 47.8539 23.125C47.9131 22.8932 47.8801 22.6474 47.7617 22.4394C47.6434 22.2315 47.4489 22.0775 47.2193 22.0101C46.1907 21.7284 45.1427 21.523 44.0839 21.3955L44.325 21.4281C43.325 21.2507 42.3076 21.1913 41.2937 21.2514C40.2854 21.3175 39.283 21.4554 38.2942 21.6638C37.7848 21.7662 37.279 21.8841 36.775 22.0083C36.3145 22.1216 35.9936 22.6664 36.1405 23.1232C36.2079 23.3528 36.3618 23.5473 36.5698 23.6656C36.7778 23.784 37.0236 23.817 37.2554 23.7578L37.259 23.7568Z" fill="#592D3D"/>
<path d="M8.72894 23.7599C9.59772 23.5078 10.4839 23.3203 11.3804 23.1988L11.1392 23.2315C12.6853 23.029 14.2513 23.0314 15.7967 23.2387L15.5556 23.207C16.457 23.3299 17.349 23.5146 18.2251 23.7599C18.6784 23.8868 19.2313 23.6031 19.3401 23.1254C19.3993 22.8936 19.3663 22.6478 19.248 22.4398C19.1296 22.2318 18.9351 22.0779 18.7056 22.0104C17.3963 21.6462 16.0542 21.4124 14.699 21.3125C12.5228 21.1708 10.3385 21.4073 8.24307 22.0113C8.01585 22.0771 7.82169 22.226 7.69919 22.4283C7.57814 22.6399 7.54556 22.8908 7.60854 23.1263C7.75811 23.5895 8.23491 23.9004 8.7235 23.7608L8.72894 23.7599Z" fill="#592D3D"/>
<path opacity="0.15" d="M48.5103 39.2803C49.5227 37.589 50.3234 35.7798 50.8943 33.8931C49.3315 37.1329 46.3764 39.8269 42.5448 39.8269C39.9825 39.8235 37.5261 38.8041 35.7145 36.9921C33.9028 35.1801 32.8838 32.7235 32.8809 30.1612C32.8773 28.9112 33.1185 27.6727 33.5907 26.5154H51.5016C51.8955 27.4798 52.1288 28.5022 52.1924 29.5421C52.2585 28.8169 52.2939 28.0745 52.2939 27.3285C52.2935 26.4503 52.2457 25.5727 52.1507 24.6997H34.9132H21.1475H4.07779C3.98278 25.5727 3.93497 26.4503 3.93457 27.3285C3.93457 27.7572 3.94726 28.1824 3.96902 28.6057C4.08408 27.8888 4.28086 27.1875 4.5555 26.5154H22.4674C23.063 27.9833 23.289 29.575 23.1255 31.1507C22.9619 32.7263 22.4138 34.2377 21.5294 35.552C20.645 36.8662 19.4513 37.9432 18.0533 38.6881C16.6552 39.433 15.0956 39.8231 13.5114 39.8242C9.99433 39.8242 7.2731 37.4828 5.58163 34.6673C6.15194 36.3413 6.90461 37.9475 7.82605 39.4571C9.5837 40.5512 11.2933 41.6371 13.5114 41.6371C16.5542 41.6335 19.4713 40.4234 21.6231 38.2721C23.7749 36.1208 24.9858 33.2039 24.9901 30.1612C24.9901 29.9971 24.9901 29.834 24.9792 29.6717C27.0985 28.9257 29.1054 28.9148 31.0806 29.6391C31.0734 29.8122 31.068 29.9862 31.068 30.1612C31.0716 33.2044 32.2821 36.122 34.4339 38.2738C36.5858 40.4257 39.5034 41.6362 42.5466 41.6398C44.8844 41.6398 46.6973 40.4841 48.5103 39.2803ZM31.3109 27.8007C29.1898 27.1164 26.9925 27.1281 24.7544 27.8361C24.6624 27.3891 24.5435 26.948 24.3981 26.5154H31.659C31.5174 26.9365 31.4011 27.3657 31.3109 27.8007Z" fill="black"/>
<path opacity="0.95" d="M3.96582 24.595C3.96582 24.595 4.00299 27.5166 4.00299 29.1455C4.00299 34.9841 7.67238 39.7177 13.5119 39.7177C15.297 39.7169 17.0529 39.2643 18.6159 38.402C20.179 37.5397 21.4984 36.2959 22.4512 34.7863C23.404 33.2768 23.9592 31.5506 24.0651 29.7686C24.1711 27.9866 23.8243 26.2069 23.057 24.595H3.96582Z" fill="#592D3D"/>
<path opacity="0.95" d="M33.0014 24.595C32.2341 26.2069 31.8873 27.9866 31.9933 29.7686C32.0992 31.5506 32.6544 33.2768 33.6072 34.7863C34.56 36.2959 35.8794 37.5397 37.4425 38.402C39.0055 39.2643 40.7614 39.7169 42.5465 39.7177C48.386 39.7177 52.2947 34.9841 52.2947 29.1455C52.2947 27.5139 52.0926 24.595 52.0926 24.595H33.0014Z" fill="#592D3D"/>
<path opacity="0.25" d="M11.7978 38.8307L22.9538 27.6738C22.7086 27.121 22.4047 26.5962 22.0473 26.1083L10.2314 37.926C10.7199 38.2825 11.245 38.5858 11.7978 38.8307Z" fill="white"/>
<path d="M24.1133 28.0141C26.7892 26.9264 29.4189 26.8883 31.9996 28.0141" stroke="#592D3D" stroke-width="1.81294" stroke-miterlimit="10"/>
<path d="M7.65396 27.7616C7.84069 28.3517 7.11551 28.8049 6.57163 28.8956C6.02775 28.8956 5.66516 28.533 5.48387 28.0798C5.39322 27.6265 5.48387 27.1733 5.84645 26.9013C6.29969 26.72 6.93422 26.5388 7.33669 27.0029C7.43743 27.1018 7.51738 27.2199 7.57186 27.3502C7.62634 27.4805 7.65425 27.6204 7.65396 27.7616Z" fill="white"/>
<path d="M8.62537 27.4155C8.57008 27.808 8.02619 27.808 7.93555 27.4454C7.93555 27.1734 8.02619 27.0828 8.28363 27.0737C8.37427 27.0737 8.46119 27.1097 8.52528 27.1738C8.58936 27.2379 8.62537 27.3248 8.62537 27.4155Z" fill="white"/>
<path opacity="0.25" d="M41.2751 38.1107L50.9091 28.4767C50.857 28.1336 50.7841 27.7939 50.6906 27.4597L40.2607 37.8922C40.5941 37.9855 40.9329 38.0585 41.2751 38.1107Z" fill="white"/>
<path d="M36.3346 27.8504C36.5214 28.4406 35.7962 28.8938 35.2523 28.9844C34.7084 28.9844 34.3458 28.6219 34.1645 28.1686C34.0739 27.7154 34.1645 27.2621 34.5271 26.9902C34.9804 26.8089 35.6149 26.6276 36.0183 27.0917C36.1189 27.1907 36.1987 27.3089 36.253 27.4392C36.3073 27.5695 36.3351 27.7093 36.3346 27.8504Z" fill="white"/>
<path d="M37.3012 27.5043C37.2459 27.8968 36.702 27.8968 36.6113 27.5342C36.6113 27.2623 36.702 27.1717 36.9603 27.1626C37.0052 27.1626 37.0495 27.1714 37.091 27.1886C37.1324 27.2058 37.17 27.231 37.2016 27.2627C37.2333 27.2945 37.2584 27.3322 37.2755 27.3736C37.2925 27.4151 37.3013 27.4595 37.3012 27.5043Z" fill="white"/>
<path d="M3.96498 24.595C3.96498 24.595 3.93416 27.4676 4.00214 29.1455C4.23782 34.9796 7.67154 39.7177 13.511 39.7177C15.2961 39.7169 17.052 39.2643 18.6151 38.402C20.1781 37.5397 21.4975 36.2959 22.4503 34.7863C23.4031 33.2768 23.9584 31.5506 24.0643 29.7686C24.1702 27.9866 23.8234 26.2069 23.0562 24.595H3.96498Z" stroke="#592D3D" stroke-width="1.81294" stroke-miterlimit="10"/>
<path d="M33.0014 24.595C32.2341 26.2069 31.8873 27.9866 31.9933 29.7686C32.0992 31.5506 32.6544 33.2768 33.6072 34.7863C34.56 36.2959 35.8794 37.5397 37.4425 38.402C39.0055 39.2643 40.7614 39.7169 42.5465 39.7177C48.386 39.7177 52.2947 35.0466 52.2947 29.2081C52.2947 27.5764 52.0926 24.595 52.0926 24.595H33.0014Z" stroke="#592D3D" stroke-width="1.81294" stroke-miterlimit="10"/>
<path d="M21.1475 24.595H34.9104" stroke="#592D3D" stroke-width="1.81294" stroke-miterlimit="10"/>
</svg>
